<?xml version="1.0" encoding="UTF-8" standalone="no"?>
<!-- Created with Inkscape (http://www.inkscape.org/) -->

<svg
   width="20.099155mm"
   height="20.09984mm"
   viewBox="0 0 20.099155 20.09984"
   version="1.1"
   id="svg1"
   xml:space="preserve"
   inkscape:version="1.3.2 (091e20e, 2023-11-25, custom)"
   sodipodi:docname="Profile.svg"
   xmlns:inkscape="http://www.inkscape.org/namespaces/inkscape"
   xmlns:sodipodi="http://sodipodi.sourceforge.net/DTD/sodipodi-0.dtd"
   xmlns="http://www.w3.org/2000/svg"
   xmlns:svg="http://www.w3.org/2000/svg"><sodipodi:namedview
     id="namedview1"
     pagecolor="#ffffff"
     bordercolor="#000000"
     borderopacity="0.25"
     inkscape:showpageshadow="2"
     inkscape:pageopacity="0.0"
     inkscape:pagecheckerboard="0"
     inkscape:deskcolor="#d1d1d1"
     inkscape:document-units="mm"
     inkscape:zoom="5.7941077"
     inkscape:cx="27.78685"
     inkscape:cy="38.401081"
     inkscape:window-width="1920"
     inkscape:window-height="1009"
     inkscape:window-x="-8"
     inkscape:window-y="-8"
     inkscape:window-maximized="1"
     inkscape:current-layer="layer1" /><defs
     id="defs1" /><g
     inkscape:label="Layer 1"
     inkscape:groupmode="layer"
     id="layer1"
     transform="translate(-95.046988,-107.85638)"><path
       style="fill:none;stroke:#000000;stroke-width:0.1;stroke-dasharray:none;stroke-opacity:1"
       d="m 95.097131,125.20967 v -2.69574 l 0.08232,-0.0778 c 0.113869,-0.10763 1.713062,-1.44584 1.727818,-1.44584 0.0066,0 0.01195,0.53839 0.01195,1.19643 v 1.19643 h 0.806835 0.806835 l 1.333568,-1.3337 1.333563,-1.33371 v -1.1589 -1.15891 l 0.14381,-0.24841 0.1438,-0.2484 -0.1438,-0.24742 -0.14381,-0.24742 v -1.16572 -1.16572 l -1.322408,-1.32308 -1.322413,-1.32309 h -0.817803 -0.817802 l -0.0057,1.19813 -0.0057,1.19813 -0.905556,-0.75988 -0.905555,-0.75988 v -2.69939 -2.6994 h 2.707241 2.707236 l 0.74453,0.88814 c 0.40949,0.48848 0.74796,0.89845 0.75216,0.91105 0.005,0.0157 -0.36836,0.0229 -1.19062,0.0229 h -1.198258 v 0.80684 0.80683 l 1.322728,1.32259 1.32272,1.32259 h 1.15964 1.15964 l 0.25835,0.1509 0.25834,0.15089 0.2609,-0.15089 0.26089,-0.1509 h 1.15304 1.15304 l 1.32259,-1.32272 1.32259,-1.32273 v -0.8067 -0.8067 h -1.19826 c -0.65904,0 -1.19496,-0.008 -1.19094,-0.0181 0.004,-0.01 0.3432,-0.41931 0.75372,-0.90965 l 0.74639,-0.89155 2.70569,-0.001 2.70569,-0.001 -7.2e-4,2.70569 -7.3e-4,2.70569 -0.89079,0.74639 c -0.48994,0.41052 -0.8996,0.74969 -0.91036,0.75372 -0.0113,0.004 -0.0196,-0.49895 -0.0196,-1.19094 v -1.19826 h -0.80683 -0.80684 l -1.32259,1.32272 -1.32259,1.32273 v 1.15668 1.15667 l -0.15062,0.2576 -0.15061,0.2576 0.15061,0.25787 0.15062,0.25787 v 1.15977 1.15978 l 1.32273,1.32259 1.32272,1.32259 h 0.8067 0.8067 v -1.19826 c 0,-0.80422 0.007,-1.19581 0.0224,-1.1908 0.0123,0.004 0.42228,0.34258 0.91104,0.75217 l 0.88867,0.74471 v 2.70723 2.70724 h -2.6994 -2.6994 l -0.7596,-0.90555 -0.7596,-0.90556 1.19785,-0.006 1.19786,-0.006 v -0.81762 -0.81763 l -1.31175,-1.31161 -1.31175,-1.31161 h -1.15964 -1.15964 l -0.26399,-0.1542 -0.26399,-0.15419 -0.26751,0.15419 -0.2675,0.1542 h -1.15176 -1.15176 l -1.32259,1.32272 -1.322591,1.32273 v 0.8067 0.8067 h 1.198261 c 0.71046,0 1.19528,0.008 1.19094,0.02 -0.004,0.011 -0.3432,0.42079 -0.75372,0.91068 l -0.74639,0.8907 -2.70569,4.4e-4 -2.705689,4.3e-4 z m 6.137489,1.77373 0.72794,-0.86714 -1.17706,-0.011 -1.177057,-0.011 -0.0058,-0.8229 -0.0058,-0.82289 1.333837,-1.33398 1.33384,-1.33397 h 1.1569 1.1569 l 0.24815,-0.14545 c 0.13648,-0.08 0.25803,-0.14583 0.27011,-0.14631 0.0121,-4.4e-4 0.13659,0.065 0.2767,0.14544 l 0.25476,0.14632 h 1.16114 1.16114 l 1.3337,1.33357 1.3337,1.33357 v 0.82859 0.8286 l -1.18848,0.006 -1.18849,0.006 0.73226,0.87263 0.73225,0.87262 h 2.68445 2.68444 l -2.9e-4,-2.67276 -2.9e-4,-2.67276 -0.87227,-0.73109 -0.87228,-0.73108 -0.006,1.17563 -0.006,1.17563 h -0.83944 -0.83944 l -1.3337,-1.33357 -1.33371,-1.33356 v -1.16128 -1.16127 l -0.14269,-0.24851 c -0.0785,-0.13669 -0.14269,-0.25523 -0.14269,-0.26344 0,-0.008 0.0642,-0.12675 0.14269,-0.26343 l 0.14269,-0.24852 v -1.15883 -1.15883 l 1.34496,-1.34482 1.34495,-1.34482 0.82289,0.006 0.82289,0.006 0.011,1.17785 0.011,1.17784 0.8712,-0.72781 0.8712,-0.72781 0.001,-2.68374 10e-4,-2.68373 h -2.67771 -2.67753 l -0.73254,0.87262 -0.73254,0.87263 1.17637,0.011 1.17636,0.011 0.006,0.82289 0.006,0.8229 -1.34481,1.34495 -1.34482,1.34495 h -1.15547 -1.15547 l -0.24958,0.14258 c -0.13727,0.0784 -0.25733,0.14263 -0.2668,0.14269 -0.009,6e-5 -0.12905,-0.0641 -0.26573,-0.14258 l -0.24851,-0.14269 h -1.16128 -1.16127 l -1.33384,-1.33397 -1.333833,-1.33398 0.0058,-0.83387 0.0058,-0.83387 1.169903,-0.011 1.16989,-0.011 -0.73083,-0.87246 -0.73084,-0.87246 -2.672769,-1.7e-4 -2.67276,-1.8e-4 v 2.6849 2.68489 l 0.872626,0.73191 0.872626,0.73192 0.01098,-1.18311 0.01098,-1.1831 0.822893,-0.006 0.822892,-0.006 1.333976,1.33384 1.333976,1.33384 v 1.16185 1.16185 l 0.14635,0.25203 c 0.0805,0.13862 0.14596,0.26288 0.14548,0.27613 -4.8e-4,0.0133 -0.0663,0.13771 -0.14623,0.27656 l -0.14537,0.25246 -1.2e-4,1.15246 -1.1e-4,1.15245 -1.333569,1.33371 -1.333569,1.3337 H 97.72625 96.897652 l -0.0057,-1.18086 -0.0057,-1.18086 -0.872626,0.73247 -0.872626,0.73247 v 2.67669 2.6767 l 2.682827,-0.006 2.682823,-0.006 z m 3.56262,-7.10297 c -0.3139,-0.043 -0.64291,-0.18454 -0.91313,-0.3929 -0.42793,-0.32996 -0.68843,-0.7808 -0.76308,-1.32064 -0.0335,-0.24193 -0.0335,-0.28014 6e-5,-0.52901 0.20436,-1.51763 1.95803,-2.2502 3.18297,-1.32964 0.43825,0.32935 0.70224,0.77937 0.77623,1.32324 0.0349,0.25633 0.0349,0.29177 10e-4,0.53785 -0.12273,0.89389 -0.81277,1.58977 -1.69774,1.7121 -0.27574,0.0381 -0.3011,0.0381 -0.58647,-10e-4 z m 1.06777,-0.16541 c 0.64672,-0.27685 1.08973,-0.85995 1.1845,-1.55904 0.0312,-0.23035 0.0313,-0.27887 8.7e-4,-0.50492 -0.12027,-0.89156 -0.80628,-1.57779 -1.69707,-1.6976 -0.22426,-0.0302 -0.27318,-0.03 -0.50491,10e-4 -1.50545,0.2045 -2.22773,1.94922 -1.30253,3.14635 0.32351,0.41859 0.76906,0.67698 1.28742,0.7466 0.2445,0.0328 0.28315,0.0327 0.53784,-0.002 0.22357,-0.0302 0.31509,-0.0545 0.49394,-0.1311 z"
       id="path1"
       sodipodi:nodetypes="ccssscccccccccccccccccccccccccssscccccccccccccccccssscccccssscccccccccccccccccscscccccccccccccccccccccccccsssccccccccccccccscscccccccccccccccccccccccccssscccccccccccccccccccccccccssscccccccccccccccccccccccccssscccccccccccccccccssssssscccscscssscc" /></g></svg>
