%TF.GenerationSoftware,KiCad,Pcbnew,9.0.7*%
%TF.CreationDate,2026-05-06T10:24:24-05:00*%
%TF.ProjectId,RickNAS_4PortSATA,5269636b-4e41-4535-9f34-506f72745341,rev?*%
%TF.SameCoordinates,Original*%
%TF.FileFunction,Soldermask,Bot*%
%TF.FilePolarity,Negative*%
%FSLAX46Y46*%
G04 Gerber Fmt 4.6, Leading zero omitted, Abs format (unit mm)*
G04 Created by KiCad (PCBNEW 9.0.7) date 2026-05-06 10:24:24*
%MOMM*%
%LPD*%
G01*
G04 APERTURE LIST*
G04 Aperture macros list*
%AMRoundRect*
0 Rectangle with rounded corners*
0 $1 Rounding radius*
0 $2 $3 $4 $5 $6 $7 $8 $9 X,Y pos of 4 corners*
0 Add a 4 corners polygon primitive as box body*
4,1,4,$2,$3,$4,$5,$6,$7,$8,$9,$2,$3,0*
0 Add four circle primitives for the rounded corners*
1,1,$1+$1,$2,$3*
1,1,$1+$1,$4,$5*
1,1,$1+$1,$6,$7*
1,1,$1+$1,$8,$9*
0 Add four rect primitives between the rounded corners*
20,1,$1+$1,$2,$3,$4,$5,0*
20,1,$1+$1,$4,$5,$6,$7,0*
20,1,$1+$1,$6,$7,$8,$9,0*
20,1,$1+$1,$8,$9,$2,$3,0*%
G04 Aperture macros list end*
%ADD10C,1.300000*%
%ADD11C,0.900000*%
%ADD12C,0.800000*%
%ADD13R,0.800000X0.800000*%
%ADD14C,2.250000*%
%ADD15C,2.971800*%
%ADD16C,1.574800*%
%ADD17C,5.600000*%
%ADD18R,1.700000X1.700000*%
%ADD19C,1.700000*%
%ADD20R,0.850000X0.850000*%
%ADD21C,0.850000*%
%ADD22RoundRect,0.250000X0.750000X0.750000X-0.750000X0.750000X-0.750000X-0.750000X0.750000X-0.750000X0*%
%ADD23C,2.000000*%
G04 APERTURE END LIST*
D10*
%TO.C,J9*%
X183700000Y-47655000D03*
D11*
X183700000Y-85405000D03*
%TD*%
D10*
%TO.C,J10*%
X214700000Y-47655000D03*
D11*
X214700000Y-85405000D03*
%TD*%
D10*
%TO.C,J7*%
X121700000Y-47655000D03*
D11*
X121700000Y-85405000D03*
%TD*%
D10*
%TO.C,J8*%
X152700000Y-47655000D03*
D11*
X152700000Y-85405000D03*
%TD*%
D12*
%TO.C,J1*%
X170650000Y-89150000D03*
X169900000Y-88450000D03*
X169150000Y-89850000D03*
X168400000Y-89150000D03*
X167650000Y-88450000D03*
X166900000Y-89850000D03*
X166150000Y-89150000D03*
X165400000Y-88450000D03*
D13*
X164650000Y-89850000D03*
D12*
X170650000Y-85350000D03*
X169900000Y-84650000D03*
X169150000Y-86050000D03*
X168400000Y-85350000D03*
X167650000Y-84650000D03*
X166900000Y-86050000D03*
X166150000Y-85350000D03*
X165400000Y-84650000D03*
D13*
X164650000Y-86050000D03*
D12*
X170650000Y-81550000D03*
X169900000Y-80850000D03*
X169150000Y-82250000D03*
X168400000Y-81550000D03*
X167650000Y-80850000D03*
X166900000Y-82250000D03*
X166150000Y-81550000D03*
X165400000Y-80850000D03*
D13*
X164650000Y-82250000D03*
D12*
X170650000Y-77750000D03*
X169900000Y-77050000D03*
X169150000Y-78450000D03*
X168400000Y-77750000D03*
X167650000Y-77050000D03*
X166900000Y-78450000D03*
X166150000Y-77750000D03*
X165400000Y-77050000D03*
D13*
X164650000Y-78450000D03*
D14*
X173650000Y-77150000D03*
X161650000Y-77150000D03*
X173650000Y-89150000D03*
X161650000Y-89150000D03*
%TD*%
D15*
%TO.C,J6*%
X166450000Y-48950000D03*
X159149999Y-48950000D03*
D16*
X161300000Y-41629999D03*
X164299999Y-41629999D03*
X161300000Y-44629998D03*
X164299999Y-44629998D03*
%TD*%
D17*
%TO.C,H3*%
X95875000Y-89575000D03*
%TD*%
%TO.C,H1*%
X95800000Y-43000000D03*
%TD*%
%TO.C,H4*%
X222375000Y-89575000D03*
%TD*%
D18*
%TO.C,J3*%
X110250000Y-75460000D03*
D19*
X110250000Y-78000000D03*
X110250000Y-80540000D03*
%TD*%
D20*
%TO.C,J2*%
X106250000Y-86750000D03*
D21*
X107250000Y-86750000D03*
X108250000Y-86750000D03*
%TD*%
D17*
%TO.C,H2*%
X222300000Y-43000000D03*
%TD*%
D22*
%TO.C,C8*%
X205332323Y-60000000D03*
D23*
X200332323Y-60000000D03*
%TD*%
D22*
%TO.C,C2*%
X112214646Y-59950000D03*
D23*
X107214646Y-59950000D03*
%TD*%
D22*
%TO.C,C7*%
X205350000Y-48550000D03*
D23*
X200350000Y-48550000D03*
%TD*%
D22*
%TO.C,C4*%
X112232323Y-48500000D03*
D23*
X107232323Y-48500000D03*
%TD*%
D22*
%TO.C,C5*%
X176785354Y-48525000D03*
D23*
X171785354Y-48525000D03*
%TD*%
D22*
%TO.C,C6*%
X176767677Y-59975000D03*
D23*
X171767677Y-59975000D03*
%TD*%
D22*
%TO.C,C3*%
X142850000Y-48550000D03*
D23*
X137850000Y-48550000D03*
%TD*%
D22*
%TO.C,C1*%
X142832323Y-60000000D03*
D23*
X137832323Y-60000000D03*
%TD*%
M02*
