M48
; DRILL file {KiCad 9.0.4} date 2026-02-06T12:59:04-0600
; FORMAT={-:-/ absolute / metric / decimal}
; #@! TF.CreationDate,2026-02-06T12:59:04-06:00
; #@! TF.GenerationSoftware,Kicad,Pcbnew,9.0.4
; #@! TF.FileFunction,Plated,1,4,PTH
FMAT,2
METRIC
; #@! TA.AperFunction,Plated,PTH,ViaDrill
T1C0.400
; #@! TA.AperFunction,Plated,PTH,ComponentDrill
T2C0.420
; #@! TA.AperFunction,Plated,PTH,ComponentDrill
T3C0.500
; #@! TA.AperFunction,Plated,PTH,ComponentDrill
T4C1.000
; #@! TA.AperFunction,Plated,PTH,ComponentDrill
T5C1.067
; #@! TA.AperFunction,Plated,PTH,ComponentDrill
T6C2.464
; #@! TA.AperFunction,Plated,PTH,ComponentDrill
T7C3.200
%
G90
G05
T1
X117.495Y-72.205
X117.495Y-74.6
X117.5Y-69.8
X117.6Y-55.1
X117.6Y-56.3
X117.6Y-57.6
X117.6Y-62.75
X117.6Y-63.95
X117.6Y-65.25
X117.919Y-82.995
X117.995Y-75.405
X118.0Y-79.3
X122.2Y-51.2
X122.2Y-52.5
X122.2Y-53.8
X122.2Y-76.8
X122.2Y-77.8
X135.2Y-46.5
X135.2Y-58.0
X137.1Y-59.9
X137.3Y-48.5
X141.0Y-69.0
X144.1Y-39.9
X148.25Y-55.1
X148.25Y-56.3
X148.25Y-57.6
X148.25Y-62.75
X148.25Y-63.95
X148.25Y-65.25
X148.288Y-72.205
X148.288Y-74.6
X148.293Y-69.8
X148.719Y-82.995
X148.788Y-75.405
X148.8Y-79.3
X153.2Y-51.2
X153.2Y-52.5
X153.2Y-53.8
X155.4Y-35.0
X159.0Y-87.5
X159.0Y-90.0
X159.0Y-97.5
X160.5Y-97.5
X161.0Y-69.0
X161.0Y-87.5
X161.0Y-90.0
X162.55Y-112.8
X163.5Y-98.0
X165.3Y-111.3
X165.8Y-58.2
X165.9Y-46.7
X166.6Y-90.9
X166.7Y-95.3
X167.3Y-80.6
X167.3Y-85.6
X167.8Y-48.6
X167.8Y-60.1
X169.0Y-80.6
X169.2Y-84.9
X169.6Y-89.0
X169.6Y-92.8
X172.4Y-93.6
X172.5Y-83.0
X172.5Y-90.4
X172.6Y-86.8
X179.088Y-72.205
X179.088Y-74.6
X179.093Y-69.8
X179.25Y-55.1
X179.25Y-56.3
X179.25Y-57.6
X179.25Y-62.75
X179.25Y-63.95
X179.25Y-65.25
X179.588Y-75.405
X183.6Y-79.2
X183.6Y-83.0
X184.1Y-51.2
X184.1Y-52.5
X184.1Y-53.8
X192.0Y-69.0
X196.8Y-58.0
X196.9Y-46.6
X198.6Y-48.5
X199.4Y-60.0
X210.188Y-72.205
X210.188Y-74.6
X210.193Y-69.8
X210.4Y-76.8
X210.4Y-77.8
X210.45Y-55.1
X210.45Y-56.3
X210.45Y-57.6
X210.45Y-62.75
X210.45Y-63.95
X210.45Y-65.25
X210.688Y-75.405
X210.807Y-80.573
X210.807Y-81.573
X214.92Y-79.22
X214.92Y-83.02
X215.1Y-51.2
X215.1Y-52.5
X215.1Y-53.8
X223.5Y-69.0
X228.3Y-46.6
X228.3Y-58.2
X230.1Y-60.0
X230.2Y-48.5
T2
X165.5Y-83.3
X165.5Y-87.1
X165.5Y-90.9
X165.5Y-94.7
X166.25Y-81.9
X166.25Y-85.7
X166.25Y-89.5
X166.25Y-93.3
X167.0Y-82.6
X167.0Y-86.4
X167.0Y-90.2
X167.0Y-94.0
X167.75Y-83.3
X167.75Y-87.1
X167.75Y-90.9
X167.75Y-94.7
X168.5Y-81.9
X168.5Y-85.7
X168.5Y-89.5
X168.5Y-93.3
X169.25Y-82.6
X169.25Y-86.4
X169.25Y-90.2
X169.25Y-94.0
X170.0Y-83.3
X170.0Y-87.1
X170.0Y-90.9
X170.0Y-94.7
X170.75Y-81.9
X170.75Y-85.7
X170.75Y-89.5
X170.75Y-93.3
X171.5Y-82.6
X171.5Y-86.4
X171.5Y-90.2
X171.5Y-94.0
T3
X166.6Y-104.5
X166.6Y-105.5
X166.6Y-106.5
T4
X130.215Y-59.95
X130.232Y-48.5
X135.215Y-59.95
X135.232Y-48.5
X152.3Y-98.62
X152.3Y-101.16
X152.3Y-103.7
X160.832Y-60.0
X160.85Y-48.55
X165.832Y-60.0
X165.85Y-48.55
X191.832Y-60.0
X191.85Y-48.55
X196.832Y-60.0
X196.85Y-48.55
X223.332Y-60.0
X223.35Y-48.55
X228.332Y-60.0
X228.35Y-48.55
T5
X174.84Y-32.436
X174.84Y-35.436
X177.84Y-32.436
X177.84Y-35.436
T6
X172.69Y-39.756
X179.99Y-39.756
T7
X112.5Y-33.0
X112.5Y-114.5
X239.0Y-33.0
X239.0Y-114.5
M30
