%TF.GenerationSoftware,KiCad,Pcbnew,9.0.4*%
%TF.CreationDate,2026-02-06T12:59:01-06:00*%
%TF.ProjectId,RickNAS_4PortSATA,5269636b-4e41-4535-9f34-506f72745341,rev?*%
%TF.SameCoordinates,Original*%
%TF.FileFunction,Copper,L4,Bot*%
%TF.FilePolarity,Positive*%
%FSLAX46Y46*%
G04 Gerber Fmt 4.6, Leading zero omitted, Abs format (unit mm)*
G04 Created by KiCad (PCBNEW 9.0.4) date 2026-02-06 12:59:01*
%MOMM*%
%LPD*%
G01*
G04 APERTURE LIST*
G04 Aperture macros list*
%AMRoundRect*
0 Rectangle with rounded corners*
0 $1 Rounding radius*
0 $2 $3 $4 $5 $6 $7 $8 $9 X,Y pos of 4 corners*
0 Add a 4 corners polygon primitive as box body*
4,1,4,$2,$3,$4,$5,$6,$7,$8,$9,$2,$3,0*
0 Add four circle primitives for the rounded corners*
1,1,$1+$1,$2,$3*
1,1,$1+$1,$4,$5*
1,1,$1+$1,$6,$7*
1,1,$1+$1,$8,$9*
0 Add four rect primitives between the rounded corners*
20,1,$1+$1,$2,$3,$4,$5,0*
20,1,$1+$1,$4,$5,$6,$7,0*
20,1,$1+$1,$6,$7,$8,$9,0*
20,1,$1+$1,$8,$9,$2,$3,0*%
G04 Aperture macros list end*
%TA.AperFunction,ComponentPad*%
%ADD10R,1.700000X1.700000*%
%TD*%
%TA.AperFunction,ComponentPad*%
%ADD11C,1.700000*%
%TD*%
%TA.AperFunction,ComponentPad*%
%ADD12R,0.850000X0.850000*%
%TD*%
%TA.AperFunction,ComponentPad*%
%ADD13C,0.850000*%
%TD*%
%TA.AperFunction,ComponentPad*%
%ADD14RoundRect,0.250000X-0.750000X-0.750000X0.750000X-0.750000X0.750000X0.750000X-0.750000X0.750000X0*%
%TD*%
%TA.AperFunction,ComponentPad*%
%ADD15C,2.000000*%
%TD*%
%TA.AperFunction,ComponentPad*%
%ADD16C,5.600000*%
%TD*%
%TA.AperFunction,ComponentPad*%
%ADD17C,1.574800*%
%TD*%
%TA.AperFunction,ComponentPad*%
%ADD18C,2.971800*%
%TD*%
%TA.AperFunction,ComponentPad*%
%ADD19R,0.800000X0.800000*%
%TD*%
%TA.AperFunction,ComponentPad*%
%ADD20C,0.800000*%
%TD*%
%TA.AperFunction,ViaPad*%
%ADD21C,0.800000*%
%TD*%
%TA.AperFunction,ViaPad*%
%ADD22C,1.000000*%
%TD*%
%TA.AperFunction,Conductor*%
%ADD23C,0.400000*%
%TD*%
%TA.AperFunction,Conductor*%
%ADD24C,0.250000*%
%TD*%
%TA.AperFunction,Conductor*%
%ADD25C,0.212600*%
%TD*%
G04 APERTURE END LIST*
D10*
%TO.P,J3,1,Pin_1*%
%TO.N,+3.3V*%
X152300000Y-98620000D03*
D11*
%TO.P,J3,2,Pin_2*%
%TO.N,SWO*%
X152300000Y-101160000D03*
%TO.P,J3,3,Pin_3*%
%TO.N,VSS*%
X152300000Y-103700000D03*
%TD*%
D12*
%TO.P,J2,1,Pin_1*%
%TO.N,Net-(J2-Pin_1)*%
X166600000Y-106500000D03*
D13*
%TO.P,J2,2,Pin_2*%
%TO.N,Net-(J2-Pin_2)*%
X166600000Y-105500000D03*
%TO.P,J2,3,Pin_3*%
%TO.N,Net-(J2-Pin_3)*%
X166600000Y-104500000D03*
%TD*%
D14*
%TO.P,C8,1*%
%TO.N,+5V*%
X223332323Y-60000000D03*
D15*
%TO.P,C8,2*%
%TO.N,VSS*%
X228332323Y-60000000D03*
%TD*%
D14*
%TO.P,C2,1*%
%TO.N,+5V*%
X130214646Y-59950000D03*
D15*
%TO.P,C2,2*%
%TO.N,VSS*%
X135214646Y-59950000D03*
%TD*%
D14*
%TO.P,C7,1*%
%TO.N,+12V*%
X223350000Y-48550000D03*
D15*
%TO.P,C7,2*%
%TO.N,VSS*%
X228350000Y-48550000D03*
%TD*%
D16*
%TO.P,H3,1,1*%
%TO.N,VSS*%
X112500000Y-114500000D03*
%TD*%
D17*
%TO.P,J6,1,1*%
%TO.N,VSS*%
X177839599Y-35435699D03*
%TO.P,J6,2,2*%
X174839600Y-35435699D03*
%TO.P,J6,3,3*%
%TO.N,+5V*%
X177839599Y-32435700D03*
%TO.P,J6,4,4*%
%TO.N,+12V*%
X174839600Y-32435700D03*
D18*
%TO.P,J6,5*%
%TO.N,N/C*%
X172689599Y-39755701D03*
%TO.P,J6,6*%
X179989600Y-39755701D03*
%TD*%
D16*
%TO.P,H1,1,1*%
%TO.N,VSS*%
X112500000Y-33000000D03*
%TD*%
%TO.P,H4,1,1*%
%TO.N,VSS*%
X239000000Y-114500000D03*
%TD*%
D14*
%TO.P,C4,1*%
%TO.N,+12V*%
X130232323Y-48500000D03*
D15*
%TO.P,C4,2*%
%TO.N,VSS*%
X135232323Y-48500000D03*
%TD*%
D14*
%TO.P,C5,1*%
%TO.N,+12V*%
X191850000Y-48550000D03*
D15*
%TO.P,C5,2*%
%TO.N,VSS*%
X196850000Y-48550000D03*
%TD*%
D14*
%TO.P,C6,1*%
%TO.N,+5V*%
X191832323Y-60000000D03*
D15*
%TO.P,C6,2*%
%TO.N,VSS*%
X196832323Y-60000000D03*
%TD*%
D14*
%TO.P,C3,1*%
%TO.N,+12V*%
X160850000Y-48550000D03*
D15*
%TO.P,C3,2*%
%TO.N,VSS*%
X165850000Y-48550000D03*
%TD*%
D16*
%TO.P,H2,1,1*%
%TO.N,VSS*%
X239000000Y-33000000D03*
%TD*%
D15*
%TO.P,C1,2*%
%TO.N,VSS*%
X165832323Y-60000000D03*
D14*
%TO.P,C1,1*%
%TO.N,+5V*%
X160832323Y-60000000D03*
%TD*%
D19*
%TO.P,J1,A1,SB7*%
%TO.N,unconnected-(J1-SB7-PadA1)*%
X165500000Y-83300000D03*
D20*
%TO.P,J1,A2,SB0*%
%TO.N,SClock*%
X166250000Y-81900000D03*
%TO.P,J1,A3,GND*%
%TO.N,VSS*%
X167000000Y-82600000D03*
%TO.P,J1,A4,RX1+*%
%TO.N,/RX1+*%
X167750000Y-83300000D03*
%TO.P,J1,A5,RX1-*%
%TO.N,/RX1-*%
X168500000Y-81900000D03*
%TO.P,J1,A6,GND*%
%TO.N,VSS*%
X169250000Y-82600000D03*
%TO.P,J1,A7,RX3+*%
%TO.N,/RX3+*%
X170000000Y-83300000D03*
%TO.P,J1,A8,RX3-*%
%TO.N,/RX3-*%
X170750000Y-81900000D03*
%TO.P,J1,A9,GND*%
%TO.N,VSS*%
X171500000Y-82600000D03*
D19*
%TO.P,J1,B1,SB3*%
%TO.N,unconnected-(J1-SB3-PadB1)*%
X165500000Y-87100000D03*
D20*
%TO.P,J1,B2,SB1*%
%TO.N,SLoad*%
X166250000Y-85700000D03*
%TO.P,J1,B3,GND*%
%TO.N,VSS*%
X167000000Y-86400000D03*
%TO.P,J1,B4,RX0+*%
%TO.N,/RX0+*%
X167750000Y-87100000D03*
%TO.P,J1,B5,RX0-*%
%TO.N,/RX0-*%
X168500000Y-85700000D03*
%TO.P,J1,B6,GND*%
%TO.N,VSS*%
X169250000Y-86400000D03*
%TO.P,J1,B7,RX2+*%
%TO.N,/RX2+*%
X170000000Y-87100000D03*
%TO.P,J1,B8,RX2-*%
%TO.N,/RX2-*%
X170750000Y-85700000D03*
%TO.P,J1,B9,GND*%
%TO.N,VSS*%
X171500000Y-86400000D03*
D19*
%TO.P,J1,C1,SB4*%
%TO.N,SDataOut*%
X165500000Y-90900000D03*
D20*
%TO.P,J1,C2,SB2*%
%TO.N,unconnected-(J1-SB2-PadC2)*%
X166250000Y-89500000D03*
%TO.P,J1,C3,GND*%
%TO.N,VSS*%
X167000000Y-90200000D03*
%TO.P,J1,C4,TX1+*%
%TO.N,/TX1+*%
X167750000Y-90900000D03*
%TO.P,J1,C5,TX1-*%
%TO.N,/TX1-*%
X168500000Y-89500000D03*
%TO.P,J1,C6,GND*%
%TO.N,VSS*%
X169250000Y-90200000D03*
%TO.P,J1,C7,TX3+*%
%TO.N,/TX3+*%
X170000000Y-90900000D03*
%TO.P,J1,C8,TX3-*%
%TO.N,/TX3-*%
X170750000Y-89500000D03*
%TO.P,J1,C9,GND*%
%TO.N,VSS*%
X171500000Y-90200000D03*
D19*
%TO.P,J1,D1,SB5*%
%TO.N,SDataIn*%
X165500000Y-94700000D03*
D20*
%TO.P,J1,D2,SB6*%
%TO.N,unconnected-(J1-SB6-PadD2)*%
X166250000Y-93300000D03*
%TO.P,J1,D3,GND*%
%TO.N,VSS*%
X167000000Y-94000000D03*
%TO.P,J1,D4,TX0+*%
%TO.N,/TX0+*%
X167750000Y-94700000D03*
%TO.P,J1,D5,TX0-*%
%TO.N,/TX0-*%
X168500000Y-93300000D03*
%TO.P,J1,D6,GND*%
%TO.N,VSS*%
X169250000Y-94000000D03*
%TO.P,J1,D7,TX2+*%
%TO.N,/TX2+*%
X170000000Y-94700000D03*
%TO.P,J1,D8,TX2-*%
%TO.N,/TX2-*%
X170750000Y-93300000D03*
%TO.P,J1,D9,GND*%
%TO.N,VSS*%
X171500000Y-94000000D03*
%TD*%
D21*
%TO.N,VSS*%
X135200000Y-46500000D03*
X135200000Y-58000000D03*
X196800000Y-58000000D03*
X196900000Y-46600000D03*
X162550000Y-112800000D03*
X198600000Y-48500000D03*
X228300000Y-46600000D03*
X230200000Y-48500000D03*
X228300000Y-58200000D03*
X230100000Y-60000000D03*
X165800000Y-58200000D03*
X165900000Y-46700000D03*
X167800000Y-60100000D03*
X167800000Y-48600000D03*
X137300000Y-48500000D03*
X137100000Y-59900000D03*
X155400000Y-35000000D03*
X144100000Y-39900000D03*
X166700000Y-95300000D03*
X172400000Y-93600000D03*
X169600000Y-92800000D03*
X166600000Y-90900000D03*
X169600000Y-89000000D03*
X172500000Y-90400000D03*
X169200000Y-84900000D03*
X167300000Y-85600000D03*
X172600000Y-86800000D03*
X167300000Y-80600000D03*
X169000000Y-80600000D03*
X172500000Y-83000000D03*
X214920000Y-79220000D03*
X214920000Y-83020000D03*
X183600000Y-83000000D03*
X183600000Y-79200000D03*
X148800000Y-79300000D03*
X148719499Y-82995000D03*
X117919499Y-82995000D03*
X118000000Y-79300000D03*
X210187750Y-72205000D03*
X210187750Y-74600000D03*
X210192750Y-69800000D03*
X210687750Y-75405000D03*
X179587750Y-75405000D03*
X179087750Y-74600000D03*
X179087750Y-72205000D03*
X179092750Y-69800000D03*
X148787750Y-75405000D03*
X148287750Y-74600000D03*
X148287750Y-72205000D03*
X148292750Y-69800000D03*
X117995000Y-75405000D03*
X117495000Y-74600000D03*
X117495000Y-72205000D03*
X117500000Y-69800000D03*
X199400000Y-60000000D03*
X210450000Y-65250000D03*
X210450000Y-55100000D03*
X210450000Y-62750000D03*
X210450000Y-56300000D03*
X210450000Y-63950000D03*
X210450000Y-57600000D03*
X179250000Y-56300000D03*
X179250000Y-63950000D03*
X179250000Y-65250000D03*
X179250000Y-55100000D03*
X179250000Y-62750000D03*
X179250000Y-57600000D03*
X148250000Y-55100000D03*
X148250000Y-56300000D03*
X148250000Y-63950000D03*
X148250000Y-65250000D03*
X148250000Y-62750000D03*
X148250000Y-57600000D03*
X117600000Y-62750000D03*
X117600000Y-63950000D03*
X117600000Y-65250000D03*
X117600000Y-57600000D03*
X117600000Y-56300000D03*
X117600000Y-55100000D03*
%TO.N,Net-(J2-Pin_1)*%
X165300000Y-111300000D03*
D22*
%TO.N,+12V*%
X215100000Y-51200000D03*
X215100000Y-52500000D03*
X215100000Y-53800000D03*
X184100000Y-51200000D03*
X184100000Y-52500000D03*
X184100000Y-53800000D03*
X153200000Y-53800000D03*
X153200000Y-51200000D03*
X153200000Y-52500000D03*
X122200000Y-53800000D03*
X122200000Y-52500000D03*
X122200000Y-51200000D03*
D21*
%TO.N,+3.3V*%
X223500000Y-69000000D03*
X192000000Y-69000000D03*
X141000000Y-69000000D03*
X161000000Y-69000000D03*
%TO.N,SClock*%
X159000000Y-87500000D03*
X159000000Y-90000000D03*
X159000000Y-97500000D03*
%TO.N,SLoad*%
X161000000Y-87500000D03*
X161000000Y-90000000D03*
X160500000Y-97500000D03*
%TO.N,SDataOut*%
X163500000Y-98000000D03*
%TO.N,/RX0-*%
X122200000Y-77800000D03*
%TO.N,/RX0+*%
X122200000Y-76800000D03*
%TO.N,/TX3-*%
X210806580Y-80573144D03*
%TO.N,/TX3+*%
X210806580Y-81573144D03*
%TO.N,/RX3-*%
X210400000Y-77800000D03*
%TO.N,/RX3+*%
X210400000Y-76800000D03*
%TD*%
D23*
%TO.N,VSS*%
X196832323Y-60000000D02*
X199400000Y-60000000D01*
D24*
%TO.N,Net-(J2-Pin_1)*%
X166600000Y-110000000D02*
X165300000Y-111300000D01*
X166600000Y-106500000D02*
X166600000Y-110000000D01*
D23*
%TO.N,+3.3V*%
X223500000Y-69000000D02*
X192000000Y-69000000D01*
X161000000Y-69000000D02*
X192000000Y-69000000D01*
X141000000Y-69000000D02*
X161000000Y-69000000D01*
D24*
%TO.N,SClock*%
X161000000Y-80000000D02*
X164350000Y-80000000D01*
X164350000Y-80000000D02*
X166250000Y-81900000D01*
X159000000Y-82000000D02*
X161000000Y-80000000D01*
X159000000Y-87500000D02*
X159000000Y-82000000D01*
X159000000Y-97500000D02*
X159000000Y-90000000D01*
%TO.N,SLoad*%
X161000000Y-87500000D02*
X162800000Y-85700000D01*
X160500000Y-90500000D02*
X161000000Y-90000000D01*
X162800000Y-85700000D02*
X166250000Y-85700000D01*
X160500000Y-97500000D02*
X160500000Y-90500000D01*
%TO.N,SDataOut*%
X165500000Y-93122735D02*
X165500000Y-90900000D01*
X163500000Y-95122735D02*
X165500000Y-93122735D01*
X163500000Y-98000000D02*
X163500000Y-95122735D01*
D25*
%TO.N,/RX3-*%
X173805034Y-77746301D02*
X173805034Y-77958248D01*
X210400000Y-77800000D02*
X210106301Y-77506301D01*
X173565034Y-78198248D02*
X173445034Y-78198248D01*
X174765034Y-78198247D02*
X174645034Y-78198247D01*
X210106301Y-77506301D02*
X175245034Y-77506301D01*
X170412600Y-79179152D02*
X170412600Y-81562600D01*
X175005034Y-77746301D02*
X175005034Y-77958247D01*
X170412600Y-81562600D02*
X170750000Y-81900000D01*
X172085451Y-77506301D02*
X171166211Y-78425539D01*
X173205034Y-77958248D02*
X173205034Y-77746301D01*
X174165034Y-77506301D02*
X174045034Y-77506301D01*
X174405034Y-77958247D02*
X174405034Y-77746301D01*
X170996999Y-78594753D02*
X170412600Y-79179152D01*
X171166211Y-78425539D02*
X170996999Y-78594753D01*
X172845034Y-77506301D02*
X172085451Y-77506301D01*
X172965034Y-77506301D02*
X172845034Y-77506301D01*
X173205034Y-77746301D02*
G75*
G03*
X172965034Y-77506266I-240034J1D01*
G01*
X173805034Y-77958248D02*
G75*
G02*
X173565034Y-78198234I-240034J48D01*
G01*
X174045034Y-77506301D02*
G75*
G03*
X173805001Y-77746301I-34J-239999D01*
G01*
X174645034Y-78198247D02*
G75*
G02*
X174404953Y-77958247I-34J240047D01*
G01*
X174405034Y-77746301D02*
G75*
G03*
X174165034Y-77506266I-240034J1D01*
G01*
X173445034Y-78198248D02*
G75*
G02*
X173204952Y-77958248I-34J240048D01*
G01*
X175005034Y-77958247D02*
G75*
G02*
X174765034Y-78198234I-240034J47D01*
G01*
X175245034Y-77506301D02*
G75*
G03*
X175005001Y-77746301I-34J-239999D01*
G01*
%TO.N,/RX0+*%
X129585451Y-77093699D02*
X122493699Y-77093699D01*
X165049652Y-88378120D02*
X164827328Y-88378120D01*
X163627328Y-88378120D02*
X162991805Y-88378120D01*
X165649652Y-88000444D02*
X165427328Y-88000444D01*
X163987328Y-87746463D02*
X163987328Y-88138120D01*
X164347328Y-87506463D02*
X164227328Y-87506463D01*
X166387328Y-87746511D02*
X166387328Y-88138120D01*
X163747328Y-88378120D02*
X163627328Y-88378120D01*
X164587328Y-88138120D02*
X164587328Y-87746463D01*
X140869872Y-88378120D02*
X129585451Y-77093699D01*
X166747328Y-87506511D02*
X166627328Y-87506511D01*
X122493699Y-77093699D02*
X122200000Y-76800000D01*
X166987328Y-88138120D02*
X166987328Y-87746511D01*
X166147328Y-88378120D02*
X166027328Y-88378120D01*
X162991805Y-88378120D02*
X140869872Y-88378120D01*
X167652724Y-87952724D02*
X167227328Y-88378120D01*
X165238490Y-88189282D02*
G75*
G02*
X165049652Y-88378090I-188790J-18D01*
G01*
X167227328Y-88378120D02*
G75*
G02*
X166987280Y-88138120I-28J240020D01*
G01*
X163987328Y-88138120D02*
G75*
G02*
X163747328Y-88378128I-240028J20D01*
G01*
X164227328Y-87506463D02*
G75*
G03*
X163987263Y-87746463I-28J-240037D01*
G01*
X164587328Y-87746463D02*
G75*
G03*
X164347328Y-87506472I-240028J-37D01*
G01*
X165838490Y-88189282D02*
G75*
G03*
X165649652Y-88000510I-188790J-18D01*
G01*
X165427328Y-88000444D02*
G75*
G03*
X165238444Y-88189282I-28J-188856D01*
G01*
X164827328Y-88378120D02*
G75*
G02*
X164587280Y-88138120I-28J240020D01*
G01*
X166027328Y-88378120D02*
G75*
G02*
X165838480Y-88189282I-28J188820D01*
G01*
X166627328Y-87506511D02*
G75*
G03*
X166387311Y-87746511I-28J-239989D01*
G01*
X166987328Y-87746511D02*
G75*
G03*
X166747328Y-87506472I-240028J11D01*
G01*
X166387328Y-88138120D02*
G75*
G02*
X166147328Y-88378128I-240028J20D01*
G01*
%TO.N,/RX0-*%
X168500000Y-85700000D02*
X168500000Y-87691752D01*
X168126056Y-88065696D02*
X168055037Y-88136715D01*
X168500000Y-87691752D02*
X168126056Y-88065696D01*
X167858671Y-88333080D02*
X168055037Y-88136715D01*
X122200000Y-77800000D02*
X122493699Y-77506301D01*
X140700948Y-88792700D02*
X164279148Y-88792700D01*
X167399052Y-88792700D02*
X167858671Y-88333080D01*
X129414549Y-77506301D02*
X140700948Y-88792700D01*
X164279148Y-88792700D02*
X167399052Y-88792700D01*
X122493699Y-77506301D02*
X129414549Y-77506301D01*
%TO.N,/TX3+*%
X197685452Y-92006300D02*
X208412307Y-81279445D01*
X208412307Y-81279445D02*
X210512881Y-81279445D01*
X173101941Y-92006300D02*
X173376449Y-92006300D01*
X171564547Y-92006300D02*
X172176449Y-92006300D01*
X210512881Y-81279445D02*
X210806580Y-81573144D01*
X173376449Y-92006300D02*
X173602298Y-92006300D01*
X170458247Y-90900000D02*
X171564547Y-92006300D01*
X172501941Y-92331792D02*
X172776449Y-92331792D01*
X173602298Y-92006300D02*
X197685452Y-92006300D01*
X170000000Y-90900000D02*
X170458247Y-90900000D01*
X172176449Y-92006300D02*
G75*
G02*
X172339100Y-92169046I-49J-162700D01*
G01*
X172939195Y-92169046D02*
G75*
G02*
X173101941Y-92006295I162705J46D01*
G01*
X172339195Y-92169046D02*
G75*
G03*
X172501941Y-92331705I162705J46D01*
G01*
X172776449Y-92331792D02*
G75*
G03*
X172939192Y-92169046I-49J162792D01*
G01*
%TO.N,/RX0+*%
X168087400Y-87520848D02*
X167654124Y-87954124D01*
X168087400Y-87437400D02*
X168087400Y-87520848D01*
X167750000Y-87100000D02*
X168087400Y-87437400D01*
%TO.N,/TX3-*%
X208241405Y-80866843D02*
X210512881Y-80866843D01*
X197514548Y-91593700D02*
X208241405Y-80866843D01*
X171735453Y-91593700D02*
X197514548Y-91593700D01*
X170750000Y-90608247D02*
X171735453Y-91593700D01*
X170750000Y-89500000D02*
X170750000Y-90608247D01*
X210512881Y-80866843D02*
X210806580Y-80573144D01*
%TO.N,/RX3+*%
X171914549Y-77093699D02*
X210106301Y-77093699D01*
X170000000Y-79008248D02*
X171914549Y-77093699D01*
X170000000Y-83300000D02*
X170000000Y-79008248D01*
X210106301Y-77093699D02*
X210400000Y-76800000D01*
%TD*%
%TA.AperFunction,Conductor*%
%TO.N,+12V*%
G36*
X238002562Y-28500605D02*
G01*
X238449036Y-28519072D01*
X238459209Y-28519915D01*
X238900114Y-28574873D01*
X238910194Y-28576555D01*
X239345042Y-28667733D01*
X239354950Y-28670242D01*
X239780786Y-28797019D01*
X239790454Y-28800338D01*
X240102418Y-28922068D01*
X240204339Y-28961838D01*
X240213724Y-28965954D01*
X240612869Y-29161083D01*
X240621877Y-29165958D01*
X241003544Y-29393383D01*
X241012123Y-29398989D01*
X241373693Y-29657144D01*
X241381770Y-29663431D01*
X241560391Y-29814715D01*
X241720796Y-29950571D01*
X241728336Y-29957512D01*
X242042487Y-30271663D01*
X242049428Y-30279203D01*
X242336564Y-30618224D01*
X242342859Y-30626312D01*
X242601010Y-30987876D01*
X242606616Y-30996455D01*
X242834041Y-31378122D01*
X242838919Y-31387136D01*
X243034045Y-31786275D01*
X243038161Y-31795660D01*
X243199656Y-32209533D01*
X243202984Y-32219226D01*
X243329753Y-32645036D01*
X243332269Y-32654971D01*
X243423441Y-33089791D01*
X243425128Y-33099900D01*
X243480082Y-33540769D01*
X243480928Y-33550983D01*
X243499394Y-33997437D01*
X243499500Y-34002561D01*
X243499500Y-71876000D01*
X243479815Y-71943039D01*
X243427011Y-71988794D01*
X243375500Y-72000000D01*
X211160384Y-72000000D01*
X211093345Y-71980315D01*
X211047590Y-71927511D01*
X211045823Y-71923452D01*
X210985766Y-71778459D01*
X210985759Y-71778446D01*
X210887214Y-71630965D01*
X210887211Y-71630961D01*
X210761788Y-71505538D01*
X210761784Y-71505535D01*
X210614303Y-71406990D01*
X210614290Y-71406983D01*
X210450417Y-71339106D01*
X210450408Y-71339103D01*
X210276444Y-71304500D01*
X210276441Y-71304500D01*
X210099059Y-71304500D01*
X210099056Y-71304500D01*
X209925091Y-71339103D01*
X209925082Y-71339106D01*
X209761209Y-71406983D01*
X209761196Y-71406990D01*
X209613715Y-71505535D01*
X209613711Y-71505538D01*
X209488288Y-71630961D01*
X209488285Y-71630965D01*
X209389740Y-71778446D01*
X209389733Y-71778459D01*
X209329677Y-71923452D01*
X209285837Y-71977856D01*
X209219543Y-71999921D01*
X209215116Y-72000000D01*
X180060384Y-72000000D01*
X179993345Y-71980315D01*
X179947590Y-71927511D01*
X179945823Y-71923452D01*
X179885766Y-71778459D01*
X179885759Y-71778446D01*
X179787214Y-71630965D01*
X179787211Y-71630961D01*
X179661788Y-71505538D01*
X179661784Y-71505535D01*
X179514303Y-71406990D01*
X179514290Y-71406983D01*
X179350417Y-71339106D01*
X179350408Y-71339103D01*
X179176444Y-71304500D01*
X179176441Y-71304500D01*
X178999059Y-71304500D01*
X178999056Y-71304500D01*
X178825091Y-71339103D01*
X178825082Y-71339106D01*
X178661209Y-71406983D01*
X178661196Y-71406990D01*
X178513715Y-71505535D01*
X178513711Y-71505538D01*
X178388288Y-71630961D01*
X178388285Y-71630965D01*
X178289740Y-71778446D01*
X178289733Y-71778459D01*
X178229677Y-71923452D01*
X178185837Y-71977856D01*
X178119543Y-71999921D01*
X178115116Y-72000000D01*
X149260384Y-72000000D01*
X149193345Y-71980315D01*
X149147590Y-71927511D01*
X149145823Y-71923452D01*
X149085766Y-71778459D01*
X149085759Y-71778446D01*
X148987214Y-71630965D01*
X148987211Y-71630961D01*
X148861788Y-71505538D01*
X148861784Y-71505535D01*
X148714303Y-71406990D01*
X148714290Y-71406983D01*
X148550417Y-71339106D01*
X148550408Y-71339103D01*
X148376444Y-71304500D01*
X148376441Y-71304500D01*
X148199059Y-71304500D01*
X148199056Y-71304500D01*
X148025091Y-71339103D01*
X148025082Y-71339106D01*
X147861209Y-71406983D01*
X147861196Y-71406990D01*
X147713715Y-71505535D01*
X147713711Y-71505538D01*
X147588288Y-71630961D01*
X147588285Y-71630965D01*
X147489740Y-71778446D01*
X147489733Y-71778459D01*
X147429677Y-71923452D01*
X147385837Y-71977856D01*
X147319543Y-71999921D01*
X147315116Y-72000000D01*
X118467634Y-72000000D01*
X118400595Y-71980315D01*
X118354840Y-71927511D01*
X118353073Y-71923452D01*
X118293016Y-71778459D01*
X118293009Y-71778446D01*
X118194464Y-71630965D01*
X118194461Y-71630961D01*
X118069038Y-71505538D01*
X118069034Y-71505535D01*
X117921553Y-71406990D01*
X117921540Y-71406983D01*
X117757667Y-71339106D01*
X117757658Y-71339103D01*
X117583694Y-71304500D01*
X117583691Y-71304500D01*
X117406309Y-71304500D01*
X117406306Y-71304500D01*
X117232341Y-71339103D01*
X117232332Y-71339106D01*
X117068459Y-71406983D01*
X117068446Y-71406990D01*
X116920965Y-71505535D01*
X116920961Y-71505538D01*
X116795538Y-71630961D01*
X116795535Y-71630965D01*
X116696990Y-71778446D01*
X116696983Y-71778459D01*
X116636927Y-71923452D01*
X116593087Y-71977856D01*
X116526793Y-71999921D01*
X116522366Y-72000000D01*
X108624500Y-72000000D01*
X108557461Y-71980315D01*
X108511706Y-71927511D01*
X108500500Y-71876000D01*
X108500500Y-69711304D01*
X116599500Y-69711304D01*
X116599500Y-69888695D01*
X116634103Y-70062658D01*
X116634106Y-70062667D01*
X116701983Y-70226540D01*
X116701990Y-70226553D01*
X116800535Y-70374034D01*
X116800538Y-70374038D01*
X116925961Y-70499461D01*
X116925965Y-70499464D01*
X117073446Y-70598009D01*
X117073459Y-70598016D01*
X117196363Y-70648923D01*
X117237334Y-70665894D01*
X117237336Y-70665894D01*
X117237341Y-70665896D01*
X117411304Y-70700499D01*
X117411307Y-70700500D01*
X117411309Y-70700500D01*
X117588693Y-70700500D01*
X117588694Y-70700499D01*
X117646682Y-70688964D01*
X117762658Y-70665896D01*
X117762661Y-70665894D01*
X117762666Y-70665894D01*
X117926547Y-70598013D01*
X118074035Y-70499464D01*
X118199464Y-70374035D01*
X118298013Y-70226547D01*
X118365894Y-70062666D01*
X118400500Y-69888691D01*
X118400500Y-69711309D01*
X118400500Y-69711306D01*
X118400499Y-69711304D01*
X118365896Y-69537341D01*
X118365893Y-69537332D01*
X118298016Y-69373459D01*
X118298009Y-69373446D01*
X118199464Y-69225965D01*
X118199461Y-69225961D01*
X118074038Y-69100538D01*
X118074034Y-69100535D01*
X117936024Y-69008319D01*
X117936023Y-69008318D01*
X117926554Y-69001991D01*
X117926540Y-69001983D01*
X117762667Y-68934106D01*
X117762658Y-68934103D01*
X117648038Y-68911304D01*
X140099500Y-68911304D01*
X140099500Y-69088695D01*
X140134103Y-69262658D01*
X140134106Y-69262667D01*
X140201983Y-69426540D01*
X140201990Y-69426553D01*
X140300535Y-69574034D01*
X140300538Y-69574038D01*
X140425961Y-69699461D01*
X140425965Y-69699464D01*
X140573446Y-69798009D01*
X140573459Y-69798016D01*
X140696363Y-69848923D01*
X140737334Y-69865894D01*
X140737336Y-69865894D01*
X140737341Y-69865896D01*
X140911304Y-69900499D01*
X140911307Y-69900500D01*
X140911309Y-69900500D01*
X141088693Y-69900500D01*
X141088694Y-69900499D01*
X141148058Y-69888691D01*
X141262658Y-69865896D01*
X141262661Y-69865894D01*
X141262666Y-69865894D01*
X141426547Y-69798013D01*
X141541209Y-69721397D01*
X141607886Y-69700520D01*
X141610100Y-69700500D01*
X147268250Y-69700500D01*
X147335289Y-69720185D01*
X147381044Y-69772989D01*
X147392250Y-69824500D01*
X147392250Y-69888695D01*
X147426853Y-70062658D01*
X147426856Y-70062667D01*
X147494733Y-70226540D01*
X147494740Y-70226553D01*
X147593285Y-70374034D01*
X147593288Y-70374038D01*
X147718711Y-70499461D01*
X147718715Y-70499464D01*
X147866196Y-70598009D01*
X147866209Y-70598016D01*
X147989113Y-70648923D01*
X148030084Y-70665894D01*
X148030086Y-70665894D01*
X148030091Y-70665896D01*
X148204054Y-70700499D01*
X148204057Y-70700500D01*
X148204059Y-70700500D01*
X148381443Y-70700500D01*
X148381444Y-70700499D01*
X148439432Y-70688964D01*
X148555408Y-70665896D01*
X148555411Y-70665894D01*
X148555416Y-70665894D01*
X148719297Y-70598013D01*
X148866785Y-70499464D01*
X148992214Y-70374035D01*
X149090763Y-70226547D01*
X149158644Y-70062666D01*
X149193250Y-69888691D01*
X149193250Y-69824500D01*
X149212935Y-69757461D01*
X149265739Y-69711706D01*
X149317250Y-69700500D01*
X160389900Y-69700500D01*
X160456939Y-69720185D01*
X160458788Y-69721396D01*
X160573453Y-69798013D01*
X160737334Y-69865894D01*
X160737336Y-69865894D01*
X160737341Y-69865896D01*
X160911304Y-69900499D01*
X160911307Y-69900500D01*
X160911309Y-69900500D01*
X161088693Y-69900500D01*
X161088694Y-69900499D01*
X161148058Y-69888691D01*
X161262658Y-69865896D01*
X161262661Y-69865894D01*
X161262666Y-69865894D01*
X161426547Y-69798013D01*
X161541209Y-69721397D01*
X161607886Y-69700520D01*
X161610100Y-69700500D01*
X178068250Y-69700500D01*
X178135289Y-69720185D01*
X178181044Y-69772989D01*
X178192250Y-69824500D01*
X178192250Y-69888695D01*
X178226853Y-70062658D01*
X178226856Y-70062667D01*
X178294733Y-70226540D01*
X178294740Y-70226553D01*
X178393285Y-70374034D01*
X178393288Y-70374038D01*
X178518711Y-70499461D01*
X178518715Y-70499464D01*
X178666196Y-70598009D01*
X178666209Y-70598016D01*
X178789113Y-70648923D01*
X178830084Y-70665894D01*
X178830086Y-70665894D01*
X178830091Y-70665896D01*
X179004054Y-70700499D01*
X179004057Y-70700500D01*
X179004059Y-70700500D01*
X179181443Y-70700500D01*
X179181444Y-70700499D01*
X179239432Y-70688964D01*
X179355408Y-70665896D01*
X179355411Y-70665894D01*
X179355416Y-70665894D01*
X179519297Y-70598013D01*
X179666785Y-70499464D01*
X179792214Y-70374035D01*
X179890763Y-70226547D01*
X179958644Y-70062666D01*
X179993250Y-69888691D01*
X179993250Y-69824500D01*
X180012935Y-69757461D01*
X180065739Y-69711706D01*
X180117250Y-69700500D01*
X191389900Y-69700500D01*
X191456939Y-69720185D01*
X191458788Y-69721396D01*
X191573453Y-69798013D01*
X191737334Y-69865894D01*
X191737336Y-69865894D01*
X191737341Y-69865896D01*
X191911304Y-69900499D01*
X191911307Y-69900500D01*
X191911309Y-69900500D01*
X192088693Y-69900500D01*
X192088694Y-69900499D01*
X192148058Y-69888691D01*
X192262658Y-69865896D01*
X192262661Y-69865894D01*
X192262666Y-69865894D01*
X192426547Y-69798013D01*
X192541209Y-69721397D01*
X192607886Y-69700520D01*
X192610100Y-69700500D01*
X209168250Y-69700500D01*
X209235289Y-69720185D01*
X209281044Y-69772989D01*
X209292250Y-69824500D01*
X209292250Y-69888695D01*
X209326853Y-70062658D01*
X209326856Y-70062667D01*
X209394733Y-70226540D01*
X209394740Y-70226553D01*
X209493285Y-70374034D01*
X209493288Y-70374038D01*
X209618711Y-70499461D01*
X209618715Y-70499464D01*
X209766196Y-70598009D01*
X209766209Y-70598016D01*
X209889113Y-70648923D01*
X209930084Y-70665894D01*
X209930086Y-70665894D01*
X209930091Y-70665896D01*
X210104054Y-70700499D01*
X210104057Y-70700500D01*
X210104059Y-70700500D01*
X210281443Y-70700500D01*
X210281444Y-70700499D01*
X210339432Y-70688964D01*
X210455408Y-70665896D01*
X210455411Y-70665894D01*
X210455416Y-70665894D01*
X210619297Y-70598013D01*
X210766785Y-70499464D01*
X210892214Y-70374035D01*
X210990763Y-70226547D01*
X211058644Y-70062666D01*
X211093250Y-69888691D01*
X211093250Y-69824500D01*
X211112935Y-69757461D01*
X211165739Y-69711706D01*
X211217250Y-69700500D01*
X222889900Y-69700500D01*
X222956939Y-69720185D01*
X222958788Y-69721396D01*
X223073453Y-69798013D01*
X223237334Y-69865894D01*
X223237336Y-69865894D01*
X223237341Y-69865896D01*
X223411304Y-69900499D01*
X223411307Y-69900500D01*
X223411309Y-69900500D01*
X223588693Y-69900500D01*
X223588694Y-69900499D01*
X223648058Y-69888691D01*
X223762658Y-69865896D01*
X223762661Y-69865894D01*
X223762666Y-69865894D01*
X223926547Y-69798013D01*
X224074035Y-69699464D01*
X224199464Y-69574035D01*
X224298013Y-69426547D01*
X224365894Y-69262666D01*
X224373195Y-69225965D01*
X224400499Y-69088695D01*
X224400500Y-69088693D01*
X224400500Y-68911306D01*
X224400499Y-68911304D01*
X224365896Y-68737341D01*
X224365893Y-68737332D01*
X224298016Y-68573459D01*
X224298009Y-68573446D01*
X224199464Y-68425965D01*
X224199461Y-68425961D01*
X224074038Y-68300538D01*
X224074034Y-68300535D01*
X223926553Y-68201990D01*
X223926540Y-68201983D01*
X223762667Y-68134106D01*
X223762658Y-68134103D01*
X223588694Y-68099500D01*
X223588691Y-68099500D01*
X223411309Y-68099500D01*
X223411306Y-68099500D01*
X223237341Y-68134103D01*
X223237332Y-68134106D01*
X223073452Y-68201987D01*
X223073450Y-68201988D01*
X222958791Y-68278602D01*
X222892114Y-68299480D01*
X222889900Y-68299500D01*
X192610100Y-68299500D01*
X192543061Y-68279815D01*
X192541209Y-68278602D01*
X192426549Y-68201988D01*
X192426547Y-68201987D01*
X192262667Y-68134106D01*
X192262658Y-68134103D01*
X192088694Y-68099500D01*
X192088691Y-68099500D01*
X191911309Y-68099500D01*
X191911306Y-68099500D01*
X191737341Y-68134103D01*
X191737332Y-68134106D01*
X191573452Y-68201987D01*
X191573450Y-68201988D01*
X191458791Y-68278602D01*
X191392114Y-68299480D01*
X191389900Y-68299500D01*
X161610100Y-68299500D01*
X161543061Y-68279815D01*
X161541209Y-68278602D01*
X161426549Y-68201988D01*
X161426547Y-68201987D01*
X161262667Y-68134106D01*
X161262658Y-68134103D01*
X161088694Y-68099500D01*
X161088691Y-68099500D01*
X160911309Y-68099500D01*
X160911306Y-68099500D01*
X160737341Y-68134103D01*
X160737332Y-68134106D01*
X160573452Y-68201987D01*
X160573450Y-68201988D01*
X160458791Y-68278602D01*
X160392114Y-68299480D01*
X160389900Y-68299500D01*
X141610100Y-68299500D01*
X141543061Y-68279815D01*
X141541209Y-68278602D01*
X141426549Y-68201988D01*
X141426547Y-68201987D01*
X141262667Y-68134106D01*
X141262658Y-68134103D01*
X141088694Y-68099500D01*
X141088691Y-68099500D01*
X140911309Y-68099500D01*
X140911306Y-68099500D01*
X140737341Y-68134103D01*
X140737332Y-68134106D01*
X140573459Y-68201983D01*
X140573446Y-68201990D01*
X140425965Y-68300535D01*
X140425961Y-68300538D01*
X140300538Y-68425961D01*
X140300535Y-68425965D01*
X140201990Y-68573446D01*
X140201983Y-68573459D01*
X140134106Y-68737332D01*
X140134103Y-68737341D01*
X140099500Y-68911304D01*
X117648038Y-68911304D01*
X117588694Y-68899500D01*
X117588691Y-68899500D01*
X117411309Y-68899500D01*
X117411306Y-68899500D01*
X117237341Y-68934103D01*
X117237332Y-68934106D01*
X117073459Y-69001983D01*
X117073446Y-69001990D01*
X116925965Y-69100535D01*
X116925961Y-69100538D01*
X116800538Y-69225961D01*
X116800535Y-69225965D01*
X116701990Y-69373446D01*
X116701983Y-69373459D01*
X116634106Y-69537332D01*
X116634103Y-69537341D01*
X116599500Y-69711304D01*
X108500500Y-69711304D01*
X108500500Y-62661304D01*
X116699500Y-62661304D01*
X116699500Y-62838695D01*
X116734103Y-63012658D01*
X116734106Y-63012667D01*
X116801983Y-63176540D01*
X116801990Y-63176553D01*
X116871853Y-63281109D01*
X116892731Y-63347786D01*
X116874247Y-63415166D01*
X116871853Y-63418891D01*
X116801990Y-63523446D01*
X116801983Y-63523459D01*
X116734106Y-63687332D01*
X116734103Y-63687341D01*
X116699500Y-63861304D01*
X116699500Y-64038695D01*
X116734103Y-64212658D01*
X116734106Y-64212667D01*
X116801983Y-64376540D01*
X116801990Y-64376553D01*
X116903920Y-64529100D01*
X116902131Y-64530295D01*
X116925635Y-64585672D01*
X116913829Y-64654537D01*
X116903495Y-64670616D01*
X116903920Y-64670900D01*
X116801990Y-64823446D01*
X116801983Y-64823459D01*
X116734106Y-64987332D01*
X116734103Y-64987341D01*
X116699500Y-65161304D01*
X116699500Y-65338695D01*
X116734103Y-65512658D01*
X116734106Y-65512667D01*
X116801983Y-65676540D01*
X116801990Y-65676553D01*
X116900535Y-65824034D01*
X116900538Y-65824038D01*
X117025961Y-65949461D01*
X117025965Y-65949464D01*
X117173446Y-66048009D01*
X117173459Y-66048016D01*
X117296363Y-66098923D01*
X117337334Y-66115894D01*
X117337336Y-66115894D01*
X117337341Y-66115896D01*
X117511304Y-66150499D01*
X117511307Y-66150500D01*
X117511309Y-66150500D01*
X117688693Y-66150500D01*
X117688694Y-66150499D01*
X117746682Y-66138964D01*
X117862658Y-66115896D01*
X117862661Y-66115894D01*
X117862666Y-66115894D01*
X118026547Y-66048013D01*
X118174035Y-65949464D01*
X118299464Y-65824035D01*
X118398013Y-65676547D01*
X118465894Y-65512666D01*
X118500500Y-65338691D01*
X118500500Y-65161309D01*
X118500500Y-65161306D01*
X118500499Y-65161304D01*
X118465896Y-64987341D01*
X118465893Y-64987332D01*
X118398016Y-64823459D01*
X118398009Y-64823446D01*
X118296080Y-64670900D01*
X118297874Y-64669700D01*
X118274368Y-64614364D01*
X118286154Y-64545496D01*
X118296507Y-64529385D01*
X118296080Y-64529100D01*
X118398009Y-64376553D01*
X118398009Y-64376552D01*
X118398013Y-64376547D01*
X118465894Y-64212666D01*
X118500500Y-64038691D01*
X118500500Y-63861309D01*
X118500500Y-63861306D01*
X118500499Y-63861304D01*
X118465896Y-63687341D01*
X118465893Y-63687332D01*
X118398016Y-63523459D01*
X118398012Y-63523452D01*
X118398008Y-63523446D01*
X118328145Y-63418888D01*
X118307268Y-63352215D01*
X118325752Y-63284834D01*
X118328118Y-63281150D01*
X118398013Y-63176547D01*
X118465894Y-63012666D01*
X118500500Y-62838691D01*
X118500500Y-62661309D01*
X118500500Y-62661306D01*
X118500499Y-62661304D01*
X147349500Y-62661304D01*
X147349500Y-62838695D01*
X147384103Y-63012658D01*
X147384106Y-63012667D01*
X147451983Y-63176540D01*
X147451990Y-63176553D01*
X147521853Y-63281109D01*
X147542731Y-63347786D01*
X147524247Y-63415166D01*
X147521853Y-63418891D01*
X147451990Y-63523446D01*
X147451983Y-63523459D01*
X147384106Y-63687332D01*
X147384103Y-63687341D01*
X147349500Y-63861304D01*
X147349500Y-64038695D01*
X147384103Y-64212658D01*
X147384106Y-64212667D01*
X147451983Y-64376540D01*
X147451990Y-64376553D01*
X147553920Y-64529100D01*
X147552131Y-64530295D01*
X147575635Y-64585672D01*
X147563829Y-64654537D01*
X147553495Y-64670616D01*
X147553920Y-64670900D01*
X147451990Y-64823446D01*
X147451983Y-64823459D01*
X147384106Y-64987332D01*
X147384103Y-64987341D01*
X147349500Y-65161304D01*
X147349500Y-65338695D01*
X147384103Y-65512658D01*
X147384106Y-65512667D01*
X147451983Y-65676540D01*
X147451990Y-65676553D01*
X147550535Y-65824034D01*
X147550538Y-65824038D01*
X147675961Y-65949461D01*
X147675965Y-65949464D01*
X147823446Y-66048009D01*
X147823459Y-66048016D01*
X147946363Y-66098923D01*
X147987334Y-66115894D01*
X147987336Y-66115894D01*
X147987341Y-66115896D01*
X148161304Y-66150499D01*
X148161307Y-66150500D01*
X148161309Y-66150500D01*
X148338693Y-66150500D01*
X148338694Y-66150499D01*
X148396682Y-66138964D01*
X148512658Y-66115896D01*
X148512661Y-66115894D01*
X148512666Y-66115894D01*
X148676547Y-66048013D01*
X148824035Y-65949464D01*
X148949464Y-65824035D01*
X149048013Y-65676547D01*
X149115894Y-65512666D01*
X149150500Y-65338691D01*
X149150500Y-65161309D01*
X149150500Y-65161306D01*
X149150499Y-65161304D01*
X149115896Y-64987341D01*
X149115893Y-64987332D01*
X149048016Y-64823459D01*
X149048009Y-64823446D01*
X148946080Y-64670900D01*
X148947874Y-64669700D01*
X148924368Y-64614364D01*
X148936154Y-64545496D01*
X148946507Y-64529385D01*
X148946080Y-64529100D01*
X149048009Y-64376553D01*
X149048009Y-64376552D01*
X149048013Y-64376547D01*
X149115894Y-64212666D01*
X149150500Y-64038691D01*
X149150500Y-63861309D01*
X149150500Y-63861306D01*
X149150499Y-63861304D01*
X149115896Y-63687341D01*
X149115893Y-63687332D01*
X149048016Y-63523459D01*
X149048012Y-63523452D01*
X149048008Y-63523446D01*
X148978145Y-63418888D01*
X148957268Y-63352215D01*
X148975752Y-63284834D01*
X148978118Y-63281150D01*
X149048013Y-63176547D01*
X149115894Y-63012666D01*
X149150500Y-62838691D01*
X149150500Y-62661309D01*
X149150500Y-62661306D01*
X149150499Y-62661304D01*
X178349500Y-62661304D01*
X178349500Y-62838695D01*
X178384103Y-63012658D01*
X178384106Y-63012667D01*
X178451983Y-63176540D01*
X178451990Y-63176553D01*
X178521853Y-63281109D01*
X178542731Y-63347786D01*
X178524247Y-63415166D01*
X178521853Y-63418891D01*
X178451990Y-63523446D01*
X178451983Y-63523459D01*
X178384106Y-63687332D01*
X178384103Y-63687341D01*
X178349500Y-63861304D01*
X178349500Y-64038695D01*
X178384103Y-64212658D01*
X178384106Y-64212667D01*
X178451983Y-64376540D01*
X178451990Y-64376553D01*
X178553920Y-64529100D01*
X178552131Y-64530295D01*
X178575635Y-64585672D01*
X178563829Y-64654537D01*
X178553495Y-64670616D01*
X178553920Y-64670900D01*
X178451990Y-64823446D01*
X178451983Y-64823459D01*
X178384106Y-64987332D01*
X178384103Y-64987341D01*
X178349500Y-65161304D01*
X178349500Y-65338695D01*
X178384103Y-65512658D01*
X178384106Y-65512667D01*
X178451983Y-65676540D01*
X178451990Y-65676553D01*
X178550535Y-65824034D01*
X178550538Y-65824038D01*
X178675961Y-65949461D01*
X178675965Y-65949464D01*
X178823446Y-66048009D01*
X178823459Y-66048016D01*
X178946363Y-66098923D01*
X178987334Y-66115894D01*
X178987336Y-66115894D01*
X178987341Y-66115896D01*
X179161304Y-66150499D01*
X179161307Y-66150500D01*
X179161309Y-66150500D01*
X179338693Y-66150500D01*
X179338694Y-66150499D01*
X179396682Y-66138964D01*
X179512658Y-66115896D01*
X179512661Y-66115894D01*
X179512666Y-66115894D01*
X179676547Y-66048013D01*
X179824035Y-65949464D01*
X179949464Y-65824035D01*
X180048013Y-65676547D01*
X180115894Y-65512666D01*
X180150500Y-65338691D01*
X180150500Y-65161309D01*
X180150500Y-65161306D01*
X180150499Y-65161304D01*
X180115896Y-64987341D01*
X180115893Y-64987332D01*
X180048016Y-64823459D01*
X180048009Y-64823446D01*
X179946080Y-64670900D01*
X179947874Y-64669700D01*
X179924368Y-64614364D01*
X179936154Y-64545496D01*
X179946507Y-64529385D01*
X179946080Y-64529100D01*
X180048009Y-64376553D01*
X180048009Y-64376552D01*
X180048013Y-64376547D01*
X180115894Y-64212666D01*
X180150500Y-64038691D01*
X180150500Y-63861309D01*
X180150500Y-63861306D01*
X180150499Y-63861304D01*
X180115896Y-63687341D01*
X180115893Y-63687332D01*
X180048016Y-63523459D01*
X180048012Y-63523452D01*
X180048008Y-63523446D01*
X179978145Y-63418888D01*
X179957268Y-63352215D01*
X179975752Y-63284834D01*
X179978118Y-63281150D01*
X180048013Y-63176547D01*
X180115894Y-63012666D01*
X180150500Y-62838691D01*
X180150500Y-62661309D01*
X180150500Y-62661306D01*
X180150499Y-62661304D01*
X209549500Y-62661304D01*
X209549500Y-62838695D01*
X209584103Y-63012658D01*
X209584106Y-63012667D01*
X209651983Y-63176540D01*
X209651990Y-63176553D01*
X209721853Y-63281109D01*
X209742731Y-63347786D01*
X209724247Y-63415166D01*
X209721853Y-63418891D01*
X209651990Y-63523446D01*
X209651983Y-63523459D01*
X209584106Y-63687332D01*
X209584103Y-63687341D01*
X209549500Y-63861304D01*
X209549500Y-64038695D01*
X209584103Y-64212658D01*
X209584106Y-64212667D01*
X209651983Y-64376540D01*
X209651990Y-64376553D01*
X209753920Y-64529100D01*
X209752131Y-64530295D01*
X209775635Y-64585672D01*
X209763829Y-64654537D01*
X209753495Y-64670616D01*
X209753920Y-64670900D01*
X209651990Y-64823446D01*
X209651983Y-64823459D01*
X209584106Y-64987332D01*
X209584103Y-64987341D01*
X209549500Y-65161304D01*
X209549500Y-65338695D01*
X209584103Y-65512658D01*
X209584106Y-65512667D01*
X209651983Y-65676540D01*
X209651990Y-65676553D01*
X209750535Y-65824034D01*
X209750538Y-65824038D01*
X209875961Y-65949461D01*
X209875965Y-65949464D01*
X210023446Y-66048009D01*
X210023459Y-66048016D01*
X210146363Y-66098923D01*
X210187334Y-66115894D01*
X210187336Y-66115894D01*
X210187341Y-66115896D01*
X210361304Y-66150499D01*
X210361307Y-66150500D01*
X210361309Y-66150500D01*
X210538693Y-66150500D01*
X210538694Y-66150499D01*
X210596682Y-66138964D01*
X210712658Y-66115896D01*
X210712661Y-66115894D01*
X210712666Y-66115894D01*
X210876547Y-66048013D01*
X211024035Y-65949464D01*
X211149464Y-65824035D01*
X211248013Y-65676547D01*
X211315894Y-65512666D01*
X211350500Y-65338691D01*
X211350500Y-65161309D01*
X211350500Y-65161306D01*
X211350499Y-65161304D01*
X211315896Y-64987341D01*
X211315893Y-64987332D01*
X211248016Y-64823459D01*
X211248009Y-64823446D01*
X211146080Y-64670900D01*
X211147874Y-64669700D01*
X211124368Y-64614364D01*
X211136154Y-64545496D01*
X211146507Y-64529385D01*
X211146080Y-64529100D01*
X211248009Y-64376553D01*
X211248009Y-64376552D01*
X211248013Y-64376547D01*
X211315894Y-64212666D01*
X211350500Y-64038691D01*
X211350500Y-63861309D01*
X211350500Y-63861306D01*
X211350499Y-63861304D01*
X211315896Y-63687341D01*
X211315893Y-63687332D01*
X211248016Y-63523459D01*
X211248012Y-63523452D01*
X211248008Y-63523446D01*
X211178145Y-63418888D01*
X211157268Y-63352215D01*
X211175752Y-63284834D01*
X211178118Y-63281150D01*
X211248013Y-63176547D01*
X211315894Y-63012666D01*
X211350500Y-62838691D01*
X211350500Y-62661309D01*
X211350500Y-62661306D01*
X211350499Y-62661304D01*
X211315896Y-62487341D01*
X211315893Y-62487332D01*
X211248016Y-62323459D01*
X211248009Y-62323446D01*
X211149464Y-62175965D01*
X211149461Y-62175961D01*
X211024038Y-62050538D01*
X211024034Y-62050535D01*
X210876553Y-61951990D01*
X210876540Y-61951983D01*
X210712667Y-61884106D01*
X210712658Y-61884103D01*
X210538694Y-61849500D01*
X210538691Y-61849500D01*
X210361309Y-61849500D01*
X210361306Y-61849500D01*
X210187341Y-61884103D01*
X210187332Y-61884106D01*
X210023459Y-61951983D01*
X210023446Y-61951990D01*
X209875965Y-62050535D01*
X209875961Y-62050538D01*
X209750538Y-62175961D01*
X209750535Y-62175965D01*
X209651990Y-62323446D01*
X209651983Y-62323459D01*
X209584106Y-62487332D01*
X209584103Y-62487341D01*
X209549500Y-62661304D01*
X180150499Y-62661304D01*
X180115896Y-62487341D01*
X180115893Y-62487332D01*
X180048016Y-62323459D01*
X180048009Y-62323446D01*
X179949464Y-62175965D01*
X179949461Y-62175961D01*
X179824038Y-62050538D01*
X179824034Y-62050535D01*
X179676553Y-61951990D01*
X179676540Y-61951983D01*
X179512667Y-61884106D01*
X179512658Y-61884103D01*
X179338694Y-61849500D01*
X179338691Y-61849500D01*
X179161309Y-61849500D01*
X179161306Y-61849500D01*
X178987341Y-61884103D01*
X178987332Y-61884106D01*
X178823459Y-61951983D01*
X178823446Y-61951990D01*
X178675965Y-62050535D01*
X178675961Y-62050538D01*
X178550538Y-62175961D01*
X178550535Y-62175965D01*
X178451990Y-62323446D01*
X178451983Y-62323459D01*
X178384106Y-62487332D01*
X178384103Y-62487341D01*
X178349500Y-62661304D01*
X149150499Y-62661304D01*
X149115896Y-62487341D01*
X149115893Y-62487332D01*
X149048016Y-62323459D01*
X149048009Y-62323446D01*
X148949464Y-62175965D01*
X148949461Y-62175961D01*
X148824038Y-62050538D01*
X148824034Y-62050535D01*
X148676553Y-61951990D01*
X148676540Y-61951983D01*
X148512667Y-61884106D01*
X148512658Y-61884103D01*
X148338694Y-61849500D01*
X148338691Y-61849500D01*
X148161309Y-61849500D01*
X148161306Y-61849500D01*
X147987341Y-61884103D01*
X147987332Y-61884106D01*
X147823459Y-61951983D01*
X147823446Y-61951990D01*
X147675965Y-62050535D01*
X147675961Y-62050538D01*
X147550538Y-62175961D01*
X147550535Y-62175965D01*
X147451990Y-62323446D01*
X147451983Y-62323459D01*
X147384106Y-62487332D01*
X147384103Y-62487341D01*
X147349500Y-62661304D01*
X118500499Y-62661304D01*
X118465896Y-62487341D01*
X118465893Y-62487332D01*
X118398016Y-62323459D01*
X118398009Y-62323446D01*
X118299464Y-62175965D01*
X118299461Y-62175961D01*
X118174038Y-62050538D01*
X118174034Y-62050535D01*
X118026553Y-61951990D01*
X118026540Y-61951983D01*
X117862667Y-61884106D01*
X117862658Y-61884103D01*
X117688694Y-61849500D01*
X117688691Y-61849500D01*
X117511309Y-61849500D01*
X117511306Y-61849500D01*
X117337341Y-61884103D01*
X117337332Y-61884106D01*
X117173459Y-61951983D01*
X117173446Y-61951990D01*
X117025965Y-62050535D01*
X117025961Y-62050538D01*
X116900538Y-62175961D01*
X116900535Y-62175965D01*
X116801990Y-62323446D01*
X116801983Y-62323459D01*
X116734106Y-62487332D01*
X116734103Y-62487341D01*
X116699500Y-62661304D01*
X108500500Y-62661304D01*
X108500500Y-59149983D01*
X128714146Y-59149983D01*
X128714146Y-60750001D01*
X128714147Y-60750018D01*
X128724646Y-60852796D01*
X128724647Y-60852799D01*
X128773591Y-61000499D01*
X128779832Y-61019334D01*
X128871934Y-61168656D01*
X128995990Y-61292712D01*
X129145312Y-61384814D01*
X129311849Y-61439999D01*
X129414637Y-61450500D01*
X131014654Y-61450499D01*
X131117443Y-61439999D01*
X131283980Y-61384814D01*
X131433302Y-61292712D01*
X131557358Y-61168656D01*
X131649460Y-61019334D01*
X131704645Y-60852797D01*
X131715146Y-60750009D01*
X131715145Y-59831902D01*
X133714146Y-59831902D01*
X133714146Y-60068097D01*
X133751092Y-60301368D01*
X133824079Y-60525996D01*
X133912465Y-60699461D01*
X133931303Y-60736433D01*
X134070129Y-60927510D01*
X134237136Y-61094517D01*
X134428213Y-61233343D01*
X134526342Y-61283342D01*
X134638649Y-61340566D01*
X134638651Y-61340566D01*
X134638654Y-61340568D01*
X134759058Y-61379689D01*
X134863277Y-61413553D01*
X135096549Y-61450500D01*
X135096554Y-61450500D01*
X135332743Y-61450500D01*
X135566014Y-61413553D01*
X135636760Y-61390566D01*
X135790638Y-61340568D01*
X136001079Y-61233343D01*
X136192156Y-61094517D01*
X136359163Y-60927510D01*
X136497989Y-60736433D01*
X136497997Y-60736417D01*
X136498265Y-60735980D01*
X136498420Y-60735839D01*
X136500853Y-60732491D01*
X136501555Y-60733001D01*
X136550066Y-60689092D01*
X136618993Y-60677654D01*
X136667767Y-60695739D01*
X136668086Y-60695144D01*
X136672439Y-60697471D01*
X136672892Y-60697639D01*
X136673447Y-60698010D01*
X136673457Y-60698015D01*
X136756691Y-60732491D01*
X136837334Y-60765894D01*
X136837336Y-60765894D01*
X136837341Y-60765896D01*
X137011304Y-60800499D01*
X137011307Y-60800500D01*
X137011309Y-60800500D01*
X137188693Y-60800500D01*
X137188694Y-60800499D01*
X137259410Y-60786433D01*
X137362658Y-60765896D01*
X137362661Y-60765894D01*
X137362666Y-60765894D01*
X137526547Y-60698013D01*
X137674035Y-60599464D01*
X137799464Y-60474035D01*
X137898013Y-60326547D01*
X137965894Y-60162666D01*
X137974760Y-60118097D01*
X137996001Y-60011309D01*
X138000500Y-59988691D01*
X138000500Y-59811309D01*
X138000500Y-59811306D01*
X138000499Y-59811304D01*
X137965896Y-59637341D01*
X137965893Y-59637332D01*
X137898016Y-59473459D01*
X137898009Y-59473446D01*
X137799464Y-59325965D01*
X137799461Y-59325961D01*
X137674038Y-59200538D01*
X137674034Y-59200535D01*
X137673208Y-59199983D01*
X159331823Y-59199983D01*
X159331823Y-60800001D01*
X159331824Y-60800018D01*
X159342323Y-60902796D01*
X159342324Y-60902799D01*
X159380941Y-61019336D01*
X159397509Y-61069334D01*
X159489611Y-61218656D01*
X159613667Y-61342712D01*
X159762989Y-61434814D01*
X159929526Y-61489999D01*
X160032314Y-61500500D01*
X161632331Y-61500499D01*
X161735120Y-61489999D01*
X161901657Y-61434814D01*
X162050979Y-61342712D01*
X162175035Y-61218656D01*
X162267137Y-61069334D01*
X162322322Y-60902797D01*
X162332823Y-60800009D01*
X162332822Y-59881902D01*
X164331823Y-59881902D01*
X164331823Y-60118097D01*
X164368769Y-60351368D01*
X164441756Y-60575996D01*
X164538514Y-60765893D01*
X164548980Y-60786433D01*
X164687806Y-60977510D01*
X164854813Y-61144517D01*
X165045890Y-61283343D01*
X165064278Y-61292712D01*
X165256326Y-61390566D01*
X165256328Y-61390566D01*
X165256331Y-61390568D01*
X165376735Y-61429689D01*
X165480954Y-61463553D01*
X165714226Y-61500500D01*
X165714231Y-61500500D01*
X165950420Y-61500500D01*
X166183691Y-61463553D01*
X166408315Y-61390568D01*
X166618756Y-61283343D01*
X166809833Y-61144517D01*
X166976840Y-60977510D01*
X167075261Y-60842044D01*
X167130591Y-60799380D01*
X167200205Y-60793401D01*
X167244470Y-60811829D01*
X167305780Y-60852795D01*
X167373453Y-60898013D01*
X167373455Y-60898014D01*
X167373459Y-60898016D01*
X167496363Y-60948923D01*
X167537334Y-60965894D01*
X167537336Y-60965894D01*
X167537341Y-60965896D01*
X167711304Y-61000499D01*
X167711307Y-61000500D01*
X167711309Y-61000500D01*
X167888693Y-61000500D01*
X167888694Y-61000499D01*
X167946682Y-60988964D01*
X168062658Y-60965896D01*
X168062661Y-60965894D01*
X168062666Y-60965894D01*
X168202535Y-60907958D01*
X168226540Y-60898016D01*
X168226540Y-60898015D01*
X168226547Y-60898013D01*
X168374035Y-60799464D01*
X168499464Y-60674035D01*
X168598013Y-60526547D01*
X168665894Y-60362666D01*
X168668142Y-60351368D01*
X168700499Y-60188695D01*
X168700500Y-60188693D01*
X168700500Y-60011306D01*
X168700499Y-60011304D01*
X168665896Y-59837341D01*
X168665893Y-59837332D01*
X168663646Y-59831908D01*
X168624473Y-59737334D01*
X168598016Y-59673459D01*
X168598009Y-59673446D01*
X168499464Y-59525965D01*
X168499461Y-59525961D01*
X168374038Y-59400538D01*
X168374034Y-59400535D01*
X168226550Y-59301989D01*
X168226540Y-59301983D01*
X168062667Y-59234106D01*
X168062658Y-59234103D01*
X167891122Y-59199983D01*
X190331823Y-59199983D01*
X190331823Y-60800001D01*
X190331824Y-60800018D01*
X190342323Y-60902796D01*
X190342324Y-60902799D01*
X190380941Y-61019336D01*
X190397509Y-61069334D01*
X190489611Y-61218656D01*
X190613667Y-61342712D01*
X190762989Y-61434814D01*
X190929526Y-61489999D01*
X191032314Y-61500500D01*
X192632331Y-61500499D01*
X192735120Y-61489999D01*
X192901657Y-61434814D01*
X193050979Y-61342712D01*
X193175035Y-61218656D01*
X193267137Y-61069334D01*
X193322322Y-60902797D01*
X193332823Y-60800009D01*
X193332822Y-59881902D01*
X195331823Y-59881902D01*
X195331823Y-60118097D01*
X195368769Y-60351368D01*
X195441756Y-60575996D01*
X195538514Y-60765893D01*
X195548980Y-60786433D01*
X195687806Y-60977510D01*
X195854813Y-61144517D01*
X196045890Y-61283343D01*
X196064278Y-61292712D01*
X196256326Y-61390566D01*
X196256328Y-61390566D01*
X196256331Y-61390568D01*
X196376735Y-61429689D01*
X196480954Y-61463553D01*
X196714226Y-61500500D01*
X196714231Y-61500500D01*
X196950420Y-61500500D01*
X197183691Y-61463553D01*
X197408315Y-61390568D01*
X197618756Y-61283343D01*
X197809833Y-61144517D01*
X197976840Y-60977510D01*
X198115666Y-60786433D01*
X198124955Y-60768203D01*
X198172931Y-60717408D01*
X198235439Y-60700500D01*
X198789900Y-60700500D01*
X198856939Y-60720185D01*
X198858788Y-60721396D01*
X198973453Y-60798013D01*
X199137334Y-60865894D01*
X199137336Y-60865894D01*
X199137341Y-60865896D01*
X199311304Y-60900499D01*
X199311307Y-60900500D01*
X199311309Y-60900500D01*
X199488693Y-60900500D01*
X199488694Y-60900499D01*
X199546682Y-60888964D01*
X199662658Y-60865896D01*
X199662661Y-60865894D01*
X199662666Y-60865894D01*
X199820545Y-60800499D01*
X199826540Y-60798016D01*
X199826540Y-60798015D01*
X199826547Y-60798013D01*
X199974035Y-60699464D01*
X200099464Y-60574035D01*
X200198013Y-60426547D01*
X200265894Y-60262666D01*
X200300500Y-60088691D01*
X200300500Y-59911309D01*
X200300500Y-59911306D01*
X200300499Y-59911304D01*
X200265896Y-59737341D01*
X200265893Y-59737332D01*
X200198016Y-59573459D01*
X200198009Y-59573446D01*
X200099464Y-59425965D01*
X200099461Y-59425961D01*
X199974037Y-59300537D01*
X199973134Y-59299934D01*
X199973132Y-59299932D01*
X199826553Y-59201990D01*
X199826540Y-59201983D01*
X199821711Y-59199983D01*
X221831823Y-59199983D01*
X221831823Y-60800001D01*
X221831824Y-60800018D01*
X221842323Y-60902796D01*
X221842324Y-60902799D01*
X221880941Y-61019336D01*
X221897509Y-61069334D01*
X221989611Y-61218656D01*
X222113667Y-61342712D01*
X222262989Y-61434814D01*
X222429526Y-61489999D01*
X222532314Y-61500500D01*
X224132331Y-61500499D01*
X224235120Y-61489999D01*
X224401657Y-61434814D01*
X224550979Y-61342712D01*
X224675035Y-61218656D01*
X224767137Y-61069334D01*
X224822322Y-60902797D01*
X224832823Y-60800009D01*
X224832822Y-59881902D01*
X226831823Y-59881902D01*
X226831823Y-60118097D01*
X226868769Y-60351368D01*
X226941756Y-60575996D01*
X227038514Y-60765893D01*
X227048980Y-60786433D01*
X227187806Y-60977510D01*
X227354813Y-61144517D01*
X227545890Y-61283343D01*
X227564278Y-61292712D01*
X227756326Y-61390566D01*
X227756328Y-61390566D01*
X227756331Y-61390568D01*
X227876735Y-61429689D01*
X227980954Y-61463553D01*
X228214226Y-61500500D01*
X228214231Y-61500500D01*
X228450420Y-61500500D01*
X228683691Y-61463553D01*
X228908315Y-61390568D01*
X229118756Y-61283343D01*
X229309833Y-61144517D01*
X229476840Y-60977510D01*
X229565109Y-60856017D01*
X229620438Y-60813353D01*
X229690051Y-60807374D01*
X229712876Y-60814342D01*
X229837334Y-60865894D01*
X229837336Y-60865894D01*
X229837341Y-60865896D01*
X230011304Y-60900499D01*
X230011307Y-60900500D01*
X230011309Y-60900500D01*
X230188693Y-60900500D01*
X230188694Y-60900499D01*
X230246682Y-60888964D01*
X230362658Y-60865896D01*
X230362661Y-60865894D01*
X230362666Y-60865894D01*
X230520545Y-60800499D01*
X230526540Y-60798016D01*
X230526540Y-60798015D01*
X230526547Y-60798013D01*
X230674035Y-60699464D01*
X230799464Y-60574035D01*
X230898013Y-60426547D01*
X230965894Y-60262666D01*
X231000500Y-60088691D01*
X231000500Y-59911309D01*
X231000500Y-59911306D01*
X231000499Y-59911304D01*
X230965896Y-59737341D01*
X230965893Y-59737332D01*
X230898016Y-59573459D01*
X230898009Y-59573446D01*
X230799464Y-59425965D01*
X230799461Y-59425961D01*
X230674038Y-59300538D01*
X230674034Y-59300535D01*
X230526553Y-59201990D01*
X230526540Y-59201983D01*
X230362667Y-59134106D01*
X230362658Y-59134103D01*
X230188694Y-59099500D01*
X230188691Y-59099500D01*
X230011309Y-59099500D01*
X230011306Y-59099500D01*
X229837341Y-59134103D01*
X229837341Y-59134104D01*
X229837338Y-59134105D01*
X229837334Y-59134106D01*
X229712878Y-59185657D01*
X229643408Y-59193125D01*
X229580929Y-59161849D01*
X229565111Y-59143985D01*
X229476840Y-59022490D01*
X229309833Y-58855483D01*
X229153204Y-58741685D01*
X229110539Y-58686355D01*
X229104560Y-58616741D01*
X229111526Y-58593922D01*
X229165894Y-58462666D01*
X229166425Y-58460001D01*
X229200499Y-58288695D01*
X229200500Y-58288693D01*
X229200500Y-58111306D01*
X229200499Y-58111304D01*
X229165896Y-57937341D01*
X229165893Y-57937332D01*
X229098016Y-57773459D01*
X229098009Y-57773446D01*
X228999464Y-57625965D01*
X228999461Y-57625961D01*
X228874038Y-57500538D01*
X228874034Y-57500535D01*
X228726553Y-57401990D01*
X228726540Y-57401983D01*
X228562667Y-57334106D01*
X228562658Y-57334103D01*
X228388694Y-57299500D01*
X228388691Y-57299500D01*
X228211309Y-57299500D01*
X228211306Y-57299500D01*
X228037341Y-57334103D01*
X228037332Y-57334106D01*
X227873459Y-57401983D01*
X227873446Y-57401990D01*
X227725965Y-57500535D01*
X227725961Y-57500538D01*
X227600538Y-57625961D01*
X227600535Y-57625965D01*
X227501990Y-57773446D01*
X227501983Y-57773459D01*
X227434106Y-57937332D01*
X227434103Y-57937341D01*
X227399500Y-58111304D01*
X227399500Y-58288695D01*
X227434103Y-58462658D01*
X227434105Y-58462663D01*
X227434106Y-58462666D01*
X227449777Y-58500499D01*
X227503425Y-58630019D01*
X227510893Y-58699489D01*
X227479617Y-58761968D01*
X227461749Y-58777789D01*
X227354811Y-58855484D01*
X227187808Y-59022487D01*
X227187808Y-59022488D01*
X227187806Y-59022490D01*
X227133526Y-59097200D01*
X227048980Y-59213566D01*
X226941756Y-59424003D01*
X226868769Y-59648631D01*
X226831823Y-59881902D01*
X224832822Y-59881902D01*
X224832822Y-59199992D01*
X224827714Y-59149992D01*
X224822322Y-59097203D01*
X224822321Y-59097200D01*
X224805754Y-59047204D01*
X224767137Y-58930666D01*
X224675035Y-58781344D01*
X224550979Y-58657288D01*
X224401657Y-58565186D01*
X224235120Y-58510001D01*
X224235118Y-58510000D01*
X224132333Y-58499500D01*
X222532321Y-58499500D01*
X222532304Y-58499501D01*
X222429526Y-58510000D01*
X222429523Y-58510001D01*
X222262991Y-58565185D01*
X222262986Y-58565187D01*
X222113665Y-58657289D01*
X221989612Y-58781342D01*
X221897510Y-58930663D01*
X221897508Y-58930668D01*
X221883650Y-58972490D01*
X221842324Y-59097203D01*
X221842324Y-59097204D01*
X221842323Y-59097204D01*
X221831823Y-59199983D01*
X199821711Y-59199983D01*
X199662667Y-59134106D01*
X199662658Y-59134103D01*
X199488694Y-59099500D01*
X199488691Y-59099500D01*
X199311309Y-59099500D01*
X199311306Y-59099500D01*
X199137341Y-59134103D01*
X199137332Y-59134106D01*
X198973452Y-59201987D01*
X198973450Y-59201988D01*
X198858791Y-59278602D01*
X198792114Y-59299480D01*
X198789900Y-59299500D01*
X198235439Y-59299500D01*
X198168400Y-59279815D01*
X198124955Y-59231797D01*
X198121011Y-59224058D01*
X198115666Y-59213567D01*
X197976840Y-59022490D01*
X197809833Y-58855483D01*
X197618756Y-58716657D01*
X197618755Y-58716656D01*
X197618753Y-58716655D01*
X197583001Y-58698438D01*
X197532205Y-58650463D01*
X197515411Y-58582642D01*
X197536194Y-58519065D01*
X197598013Y-58426547D01*
X197665894Y-58262666D01*
X197700500Y-58088691D01*
X197700500Y-57911309D01*
X197700500Y-57911306D01*
X197700499Y-57911304D01*
X197665896Y-57737341D01*
X197665893Y-57737332D01*
X197598016Y-57573459D01*
X197598009Y-57573446D01*
X197499464Y-57425965D01*
X197499461Y-57425961D01*
X197374038Y-57300538D01*
X197374034Y-57300535D01*
X197226553Y-57201990D01*
X197226540Y-57201983D01*
X197062667Y-57134106D01*
X197062658Y-57134103D01*
X196888694Y-57099500D01*
X196888691Y-57099500D01*
X196711309Y-57099500D01*
X196711306Y-57099500D01*
X196537341Y-57134103D01*
X196537332Y-57134106D01*
X196373459Y-57201983D01*
X196373446Y-57201990D01*
X196225965Y-57300535D01*
X196225961Y-57300538D01*
X196100538Y-57425961D01*
X196100535Y-57425965D01*
X196001990Y-57573446D01*
X196001983Y-57573459D01*
X195934106Y-57737332D01*
X195934103Y-57737341D01*
X195899500Y-57911304D01*
X195899500Y-58088695D01*
X195934103Y-58262658D01*
X195934106Y-58262667D01*
X196001983Y-58426540D01*
X196001990Y-58426553D01*
X196080621Y-58544232D01*
X196101499Y-58610910D01*
X196083014Y-58678290D01*
X196048819Y-58712399D01*
X196049832Y-58713793D01*
X196045890Y-58716656D01*
X196045890Y-58716657D01*
X195854813Y-58855483D01*
X195854811Y-58855485D01*
X195854810Y-58855485D01*
X195687808Y-59022487D01*
X195687808Y-59022488D01*
X195687806Y-59022490D01*
X195633526Y-59097200D01*
X195548980Y-59213566D01*
X195441756Y-59424003D01*
X195368769Y-59648631D01*
X195331823Y-59881902D01*
X193332822Y-59881902D01*
X193332822Y-59199992D01*
X193327714Y-59149992D01*
X193322322Y-59097203D01*
X193322321Y-59097200D01*
X193305754Y-59047204D01*
X193267137Y-58930666D01*
X193175035Y-58781344D01*
X193050979Y-58657288D01*
X192901657Y-58565186D01*
X192735120Y-58510001D01*
X192735118Y-58510000D01*
X192632333Y-58499500D01*
X191032321Y-58499500D01*
X191032304Y-58499501D01*
X190929526Y-58510000D01*
X190929523Y-58510001D01*
X190762991Y-58565185D01*
X190762986Y-58565187D01*
X190613665Y-58657289D01*
X190489612Y-58781342D01*
X190397510Y-58930663D01*
X190397508Y-58930668D01*
X190383650Y-58972490D01*
X190342324Y-59097203D01*
X190342324Y-59097204D01*
X190342323Y-59097204D01*
X190331823Y-59199983D01*
X167891122Y-59199983D01*
X167888694Y-59199500D01*
X167888691Y-59199500D01*
X167711309Y-59199500D01*
X167711306Y-59199500D01*
X167537341Y-59234103D01*
X167537332Y-59234106D01*
X167373459Y-59301983D01*
X167373448Y-59301989D01*
X167330773Y-59330504D01*
X167264095Y-59351381D01*
X167196715Y-59332896D01*
X167151398Y-59283695D01*
X167115667Y-59213568D01*
X167079338Y-59163566D01*
X166976840Y-59022490D01*
X166809833Y-58855483D01*
X166653204Y-58741685D01*
X166610539Y-58686355D01*
X166604560Y-58616741D01*
X166611526Y-58593922D01*
X166665894Y-58462666D01*
X166666425Y-58460001D01*
X166700499Y-58288695D01*
X166700500Y-58288693D01*
X166700500Y-58111306D01*
X166700499Y-58111304D01*
X166665896Y-57937341D01*
X166665893Y-57937332D01*
X166598016Y-57773459D01*
X166598009Y-57773446D01*
X166499464Y-57625965D01*
X166499461Y-57625961D01*
X166374038Y-57500538D01*
X166374034Y-57500535D01*
X166226553Y-57401990D01*
X166226540Y-57401983D01*
X166062667Y-57334106D01*
X166062658Y-57334103D01*
X165888694Y-57299500D01*
X165888691Y-57299500D01*
X165711309Y-57299500D01*
X165711306Y-57299500D01*
X165537341Y-57334103D01*
X165537332Y-57334106D01*
X165373459Y-57401983D01*
X165373446Y-57401990D01*
X165225965Y-57500535D01*
X165225961Y-57500538D01*
X165100538Y-57625961D01*
X165100535Y-57625965D01*
X165001990Y-57773446D01*
X165001983Y-57773459D01*
X164934106Y-57937332D01*
X164934103Y-57937341D01*
X164899500Y-58111304D01*
X164899500Y-58288695D01*
X164934103Y-58462658D01*
X164934105Y-58462663D01*
X164934106Y-58462666D01*
X164949777Y-58500499D01*
X165003425Y-58630019D01*
X165010893Y-58699489D01*
X164979617Y-58761968D01*
X164961749Y-58777789D01*
X164854811Y-58855484D01*
X164687808Y-59022487D01*
X164687808Y-59022488D01*
X164687806Y-59022490D01*
X164633526Y-59097200D01*
X164548980Y-59213566D01*
X164441756Y-59424003D01*
X164368769Y-59648631D01*
X164331823Y-59881902D01*
X162332822Y-59881902D01*
X162332822Y-59199992D01*
X162327714Y-59149992D01*
X162322322Y-59097203D01*
X162322321Y-59097200D01*
X162305754Y-59047204D01*
X162267137Y-58930666D01*
X162175035Y-58781344D01*
X162050979Y-58657288D01*
X161901657Y-58565186D01*
X161735120Y-58510001D01*
X161735118Y-58510000D01*
X161632333Y-58499500D01*
X160032321Y-58499500D01*
X160032304Y-58499501D01*
X159929526Y-58510000D01*
X159929523Y-58510001D01*
X159762991Y-58565185D01*
X159762986Y-58565187D01*
X159613665Y-58657289D01*
X159489612Y-58781342D01*
X159397510Y-58930663D01*
X159397508Y-58930668D01*
X159383650Y-58972490D01*
X159342324Y-59097203D01*
X159342324Y-59097204D01*
X159342323Y-59097204D01*
X159331823Y-59199983D01*
X137673208Y-59199983D01*
X137526553Y-59101990D01*
X137526540Y-59101983D01*
X137362667Y-59034106D01*
X137362658Y-59034103D01*
X137188694Y-58999500D01*
X137188691Y-58999500D01*
X137011309Y-58999500D01*
X137011306Y-58999500D01*
X136837341Y-59034103D01*
X136837332Y-59034106D01*
X136673459Y-59101983D01*
X136673446Y-59101990D01*
X136624344Y-59134800D01*
X136557666Y-59155678D01*
X136490286Y-59137193D01*
X136455135Y-59104584D01*
X136359163Y-58972490D01*
X136192156Y-58805483D01*
X136001079Y-58666657D01*
X136001078Y-58666656D01*
X136001072Y-58666652D01*
X135996927Y-58664112D01*
X135997858Y-58662591D01*
X135952638Y-58619879D01*
X135935845Y-58552057D01*
X135956630Y-58488481D01*
X135998008Y-58426555D01*
X135998009Y-58426552D01*
X135998013Y-58426547D01*
X136065894Y-58262666D01*
X136100500Y-58088691D01*
X136100500Y-57911309D01*
X136100500Y-57911306D01*
X136100499Y-57911304D01*
X136065896Y-57737341D01*
X136065893Y-57737332D01*
X135998016Y-57573459D01*
X135998009Y-57573446D01*
X135899464Y-57425965D01*
X135899461Y-57425961D01*
X135774038Y-57300538D01*
X135774034Y-57300535D01*
X135626553Y-57201990D01*
X135626540Y-57201983D01*
X135462667Y-57134106D01*
X135462658Y-57134103D01*
X135288694Y-57099500D01*
X135288691Y-57099500D01*
X135111309Y-57099500D01*
X135111306Y-57099500D01*
X134937341Y-57134103D01*
X134937332Y-57134106D01*
X134773459Y-57201983D01*
X134773446Y-57201990D01*
X134625965Y-57300535D01*
X134625961Y-57300538D01*
X134500538Y-57425961D01*
X134500535Y-57425965D01*
X134401990Y-57573446D01*
X134401983Y-57573459D01*
X134334106Y-57737332D01*
X134334103Y-57737341D01*
X134299500Y-57911304D01*
X134299500Y-58088695D01*
X134334103Y-58262658D01*
X134334106Y-58262667D01*
X134401983Y-58426540D01*
X134401990Y-58426553D01*
X134452324Y-58501883D01*
X134473202Y-58568561D01*
X134454717Y-58635941D01*
X134422108Y-58671092D01*
X134237134Y-58805484D01*
X134070131Y-58972487D01*
X134070131Y-58972488D01*
X134070129Y-58972490D01*
X134025362Y-59034106D01*
X133931303Y-59163566D01*
X133824079Y-59374003D01*
X133751092Y-59598631D01*
X133714146Y-59831902D01*
X131715145Y-59831902D01*
X131715145Y-59149992D01*
X131704645Y-59047203D01*
X131649460Y-58880666D01*
X131557358Y-58731344D01*
X131433302Y-58607288D01*
X131283980Y-58515186D01*
X131117443Y-58460001D01*
X131117441Y-58460000D01*
X131014656Y-58449500D01*
X129414644Y-58449500D01*
X129414627Y-58449501D01*
X129311849Y-58460000D01*
X129311846Y-58460001D01*
X129145314Y-58515185D01*
X129145309Y-58515187D01*
X128995988Y-58607289D01*
X128871935Y-58731342D01*
X128779833Y-58880663D01*
X128779831Y-58880668D01*
X128763263Y-58930668D01*
X128724647Y-59047203D01*
X128724647Y-59047204D01*
X128724646Y-59047204D01*
X128714146Y-59149983D01*
X108500500Y-59149983D01*
X108500500Y-55011304D01*
X116699500Y-55011304D01*
X116699500Y-55188695D01*
X116734103Y-55362658D01*
X116734106Y-55362667D01*
X116801983Y-55526540D01*
X116801990Y-55526553D01*
X116871853Y-55631109D01*
X116892731Y-55697786D01*
X116874247Y-55765166D01*
X116871853Y-55768891D01*
X116801990Y-55873446D01*
X116801983Y-55873459D01*
X116734106Y-56037332D01*
X116734103Y-56037341D01*
X116699500Y-56211304D01*
X116699500Y-56388695D01*
X116734103Y-56562658D01*
X116734106Y-56562667D01*
X116801983Y-56726540D01*
X116801990Y-56726553D01*
X116903920Y-56879100D01*
X116902131Y-56880295D01*
X116925635Y-56935672D01*
X116913829Y-57004537D01*
X116903495Y-57020616D01*
X116903920Y-57020900D01*
X116801990Y-57173446D01*
X116801983Y-57173459D01*
X116734106Y-57337332D01*
X116734103Y-57337341D01*
X116699500Y-57511304D01*
X116699500Y-57688695D01*
X116734103Y-57862658D01*
X116734106Y-57862667D01*
X116801983Y-58026540D01*
X116801990Y-58026553D01*
X116900535Y-58174034D01*
X116900538Y-58174038D01*
X117025961Y-58299461D01*
X117025965Y-58299464D01*
X117173446Y-58398009D01*
X117173459Y-58398016D01*
X117242355Y-58426553D01*
X117337334Y-58465894D01*
X117337336Y-58465894D01*
X117337341Y-58465896D01*
X117511304Y-58500499D01*
X117511307Y-58500500D01*
X117511309Y-58500500D01*
X117688693Y-58500500D01*
X117688694Y-58500499D01*
X117749114Y-58488481D01*
X117862658Y-58465896D01*
X117862661Y-58465894D01*
X117862666Y-58465894D01*
X118026547Y-58398013D01*
X118174035Y-58299464D01*
X118299464Y-58174035D01*
X118398013Y-58026547D01*
X118465894Y-57862666D01*
X118483639Y-57773459D01*
X118500499Y-57688695D01*
X118500500Y-57688693D01*
X118500500Y-57511306D01*
X118500499Y-57511304D01*
X118465896Y-57337341D01*
X118465893Y-57337332D01*
X118398016Y-57173459D01*
X118398009Y-57173446D01*
X118296080Y-57020900D01*
X118297874Y-57019700D01*
X118274368Y-56964364D01*
X118286154Y-56895496D01*
X118296507Y-56879385D01*
X118296080Y-56879100D01*
X118398009Y-56726553D01*
X118398009Y-56726552D01*
X118398013Y-56726547D01*
X118465894Y-56562666D01*
X118500500Y-56388691D01*
X118500500Y-56211309D01*
X118500500Y-56211306D01*
X118500499Y-56211304D01*
X118465896Y-56037341D01*
X118465893Y-56037332D01*
X118398016Y-55873459D01*
X118398012Y-55873452D01*
X118398008Y-55873446D01*
X118328145Y-55768888D01*
X118307268Y-55702215D01*
X118325752Y-55634834D01*
X118328118Y-55631150D01*
X118398013Y-55526547D01*
X118465894Y-55362666D01*
X118500500Y-55188691D01*
X118500500Y-55011309D01*
X118500500Y-55011306D01*
X118500499Y-55011304D01*
X147349500Y-55011304D01*
X147349500Y-55188695D01*
X147384103Y-55362658D01*
X147384106Y-55362667D01*
X147451983Y-55526540D01*
X147451990Y-55526553D01*
X147521853Y-55631109D01*
X147542731Y-55697786D01*
X147524247Y-55765166D01*
X147521853Y-55768891D01*
X147451990Y-55873446D01*
X147451983Y-55873459D01*
X147384106Y-56037332D01*
X147384103Y-56037341D01*
X147349500Y-56211304D01*
X147349500Y-56388695D01*
X147384103Y-56562658D01*
X147384106Y-56562667D01*
X147451983Y-56726540D01*
X147451990Y-56726553D01*
X147553920Y-56879100D01*
X147552131Y-56880295D01*
X147575635Y-56935672D01*
X147563829Y-57004537D01*
X147553495Y-57020616D01*
X147553920Y-57020900D01*
X147451990Y-57173446D01*
X147451983Y-57173459D01*
X147384106Y-57337332D01*
X147384103Y-57337341D01*
X147349500Y-57511304D01*
X147349500Y-57688695D01*
X147384103Y-57862658D01*
X147384106Y-57862667D01*
X147451983Y-58026540D01*
X147451990Y-58026553D01*
X147550535Y-58174034D01*
X147550538Y-58174038D01*
X147675961Y-58299461D01*
X147675965Y-58299464D01*
X147823446Y-58398009D01*
X147823459Y-58398016D01*
X147892355Y-58426553D01*
X147987334Y-58465894D01*
X147987336Y-58465894D01*
X147987341Y-58465896D01*
X148161304Y-58500499D01*
X148161307Y-58500500D01*
X148161309Y-58500500D01*
X148338693Y-58500500D01*
X148338694Y-58500499D01*
X148399114Y-58488481D01*
X148512658Y-58465896D01*
X148512661Y-58465894D01*
X148512666Y-58465894D01*
X148676547Y-58398013D01*
X148824035Y-58299464D01*
X148949464Y-58174035D01*
X149048013Y-58026547D01*
X149115894Y-57862666D01*
X149133639Y-57773459D01*
X149150499Y-57688695D01*
X149150500Y-57688693D01*
X149150500Y-57511306D01*
X149150499Y-57511304D01*
X149115896Y-57337341D01*
X149115893Y-57337332D01*
X149048016Y-57173459D01*
X149048009Y-57173446D01*
X148946080Y-57020900D01*
X148947874Y-57019700D01*
X148924368Y-56964364D01*
X148936154Y-56895496D01*
X148946507Y-56879385D01*
X148946080Y-56879100D01*
X149048009Y-56726553D01*
X149048009Y-56726552D01*
X149048013Y-56726547D01*
X149115894Y-56562666D01*
X149150500Y-56388691D01*
X149150500Y-56211309D01*
X149150500Y-56211306D01*
X149150499Y-56211304D01*
X149115896Y-56037341D01*
X149115893Y-56037332D01*
X149048016Y-55873459D01*
X149048012Y-55873452D01*
X149048008Y-55873446D01*
X148978145Y-55768888D01*
X148957268Y-55702215D01*
X148975752Y-55634834D01*
X148978118Y-55631150D01*
X149048013Y-55526547D01*
X149115894Y-55362666D01*
X149150500Y-55188691D01*
X149150500Y-55011309D01*
X149150500Y-55011306D01*
X149150499Y-55011304D01*
X178349500Y-55011304D01*
X178349500Y-55188695D01*
X178384103Y-55362658D01*
X178384106Y-55362667D01*
X178451983Y-55526540D01*
X178451990Y-55526553D01*
X178521853Y-55631109D01*
X178542731Y-55697786D01*
X178524247Y-55765166D01*
X178521853Y-55768891D01*
X178451990Y-55873446D01*
X178451983Y-55873459D01*
X178384106Y-56037332D01*
X178384103Y-56037341D01*
X178349500Y-56211304D01*
X178349500Y-56388695D01*
X178384103Y-56562658D01*
X178384106Y-56562667D01*
X178451983Y-56726540D01*
X178451990Y-56726553D01*
X178553920Y-56879100D01*
X178552131Y-56880295D01*
X178575635Y-56935672D01*
X178563829Y-57004537D01*
X178553495Y-57020616D01*
X178553920Y-57020900D01*
X178451990Y-57173446D01*
X178451983Y-57173459D01*
X178384106Y-57337332D01*
X178384103Y-57337341D01*
X178349500Y-57511304D01*
X178349500Y-57688695D01*
X178384103Y-57862658D01*
X178384106Y-57862667D01*
X178451983Y-58026540D01*
X178451990Y-58026553D01*
X178550535Y-58174034D01*
X178550538Y-58174038D01*
X178675961Y-58299461D01*
X178675965Y-58299464D01*
X178823446Y-58398009D01*
X178823459Y-58398016D01*
X178892355Y-58426553D01*
X178987334Y-58465894D01*
X178987336Y-58465894D01*
X178987341Y-58465896D01*
X179161304Y-58500499D01*
X179161307Y-58500500D01*
X179161309Y-58500500D01*
X179338693Y-58500500D01*
X179338694Y-58500499D01*
X179399114Y-58488481D01*
X179512658Y-58465896D01*
X179512661Y-58465894D01*
X179512666Y-58465894D01*
X179676547Y-58398013D01*
X179824035Y-58299464D01*
X179949464Y-58174035D01*
X180048013Y-58026547D01*
X180115894Y-57862666D01*
X180133639Y-57773459D01*
X180150499Y-57688695D01*
X180150500Y-57688693D01*
X180150500Y-57511306D01*
X180150499Y-57511304D01*
X180115896Y-57337341D01*
X180115893Y-57337332D01*
X180048016Y-57173459D01*
X180048009Y-57173446D01*
X179946080Y-57020900D01*
X179947874Y-57019700D01*
X179924368Y-56964364D01*
X179936154Y-56895496D01*
X179946507Y-56879385D01*
X179946080Y-56879100D01*
X180048009Y-56726553D01*
X180048009Y-56726552D01*
X180048013Y-56726547D01*
X180115894Y-56562666D01*
X180150500Y-56388691D01*
X180150500Y-56211309D01*
X180150500Y-56211306D01*
X180150499Y-56211304D01*
X180115896Y-56037341D01*
X180115893Y-56037332D01*
X180048016Y-55873459D01*
X180048012Y-55873452D01*
X180048008Y-55873446D01*
X179978145Y-55768888D01*
X179957268Y-55702215D01*
X179975752Y-55634834D01*
X179978118Y-55631150D01*
X180048013Y-55526547D01*
X180115894Y-55362666D01*
X180150500Y-55188691D01*
X180150500Y-55011309D01*
X180150500Y-55011306D01*
X180150499Y-55011304D01*
X209549500Y-55011304D01*
X209549500Y-55188695D01*
X209584103Y-55362658D01*
X209584106Y-55362667D01*
X209651983Y-55526540D01*
X209651990Y-55526553D01*
X209721853Y-55631109D01*
X209742731Y-55697786D01*
X209724247Y-55765166D01*
X209721853Y-55768891D01*
X209651990Y-55873446D01*
X209651983Y-55873459D01*
X209584106Y-56037332D01*
X209584103Y-56037341D01*
X209549500Y-56211304D01*
X209549500Y-56388695D01*
X209584103Y-56562658D01*
X209584106Y-56562667D01*
X209651983Y-56726540D01*
X209651990Y-56726553D01*
X209753920Y-56879100D01*
X209752131Y-56880295D01*
X209775635Y-56935672D01*
X209763829Y-57004537D01*
X209753495Y-57020616D01*
X209753920Y-57020900D01*
X209651990Y-57173446D01*
X209651983Y-57173459D01*
X209584106Y-57337332D01*
X209584103Y-57337341D01*
X209549500Y-57511304D01*
X209549500Y-57688695D01*
X209584103Y-57862658D01*
X209584106Y-57862667D01*
X209651983Y-58026540D01*
X209651990Y-58026553D01*
X209750535Y-58174034D01*
X209750538Y-58174038D01*
X209875961Y-58299461D01*
X209875965Y-58299464D01*
X210023446Y-58398009D01*
X210023459Y-58398016D01*
X210092355Y-58426553D01*
X210187334Y-58465894D01*
X210187336Y-58465894D01*
X210187341Y-58465896D01*
X210361304Y-58500499D01*
X210361307Y-58500500D01*
X210361309Y-58500500D01*
X210538693Y-58500500D01*
X210538694Y-58500499D01*
X210599114Y-58488481D01*
X210712658Y-58465896D01*
X210712661Y-58465894D01*
X210712666Y-58465894D01*
X210876547Y-58398013D01*
X211024035Y-58299464D01*
X211149464Y-58174035D01*
X211248013Y-58026547D01*
X211315894Y-57862666D01*
X211333639Y-57773459D01*
X211350499Y-57688695D01*
X211350500Y-57688693D01*
X211350500Y-57511306D01*
X211350499Y-57511304D01*
X211315896Y-57337341D01*
X211315893Y-57337332D01*
X211248016Y-57173459D01*
X211248009Y-57173446D01*
X211146080Y-57020900D01*
X211147874Y-57019700D01*
X211124368Y-56964364D01*
X211136154Y-56895496D01*
X211146507Y-56879385D01*
X211146080Y-56879100D01*
X211248009Y-56726553D01*
X211248009Y-56726552D01*
X211248013Y-56726547D01*
X211315894Y-56562666D01*
X211350500Y-56388691D01*
X211350500Y-56211309D01*
X211350500Y-56211306D01*
X211350499Y-56211304D01*
X211315896Y-56037341D01*
X211315893Y-56037332D01*
X211248016Y-55873459D01*
X211248012Y-55873452D01*
X211248008Y-55873446D01*
X211178145Y-55768888D01*
X211157268Y-55702215D01*
X211175752Y-55634834D01*
X211178118Y-55631150D01*
X211248013Y-55526547D01*
X211315894Y-55362666D01*
X211350500Y-55188691D01*
X211350500Y-55011309D01*
X211350500Y-55011306D01*
X211350499Y-55011304D01*
X211315896Y-54837341D01*
X211315893Y-54837332D01*
X211248016Y-54673459D01*
X211248009Y-54673446D01*
X211149464Y-54525965D01*
X211149461Y-54525961D01*
X211024038Y-54400538D01*
X211024034Y-54400535D01*
X210876553Y-54301990D01*
X210876540Y-54301983D01*
X210712667Y-54234106D01*
X210712658Y-54234103D01*
X210538694Y-54199500D01*
X210538691Y-54199500D01*
X210361309Y-54199500D01*
X210361306Y-54199500D01*
X210187341Y-54234103D01*
X210187332Y-54234106D01*
X210023459Y-54301983D01*
X210023446Y-54301990D01*
X209875965Y-54400535D01*
X209875961Y-54400538D01*
X209750538Y-54525961D01*
X209750535Y-54525965D01*
X209651990Y-54673446D01*
X209651983Y-54673459D01*
X209584106Y-54837332D01*
X209584103Y-54837341D01*
X209549500Y-55011304D01*
X180150499Y-55011304D01*
X180115896Y-54837341D01*
X180115893Y-54837332D01*
X180048016Y-54673459D01*
X180048009Y-54673446D01*
X179949464Y-54525965D01*
X179949461Y-54525961D01*
X179824038Y-54400538D01*
X179824034Y-54400535D01*
X179676553Y-54301990D01*
X179676540Y-54301983D01*
X179512667Y-54234106D01*
X179512658Y-54234103D01*
X179338694Y-54199500D01*
X179338691Y-54199500D01*
X179161309Y-54199500D01*
X179161306Y-54199500D01*
X178987341Y-54234103D01*
X178987332Y-54234106D01*
X178823459Y-54301983D01*
X178823446Y-54301990D01*
X178675965Y-54400535D01*
X178675961Y-54400538D01*
X178550538Y-54525961D01*
X178550535Y-54525965D01*
X178451990Y-54673446D01*
X178451983Y-54673459D01*
X178384106Y-54837332D01*
X178384103Y-54837341D01*
X178349500Y-55011304D01*
X149150499Y-55011304D01*
X149115896Y-54837341D01*
X149115893Y-54837332D01*
X149048016Y-54673459D01*
X149048009Y-54673446D01*
X148949464Y-54525965D01*
X148949461Y-54525961D01*
X148824038Y-54400538D01*
X148824034Y-54400535D01*
X148676553Y-54301990D01*
X148676540Y-54301983D01*
X148512667Y-54234106D01*
X148512658Y-54234103D01*
X148338694Y-54199500D01*
X148338691Y-54199500D01*
X148161309Y-54199500D01*
X148161306Y-54199500D01*
X147987341Y-54234103D01*
X147987332Y-54234106D01*
X147823459Y-54301983D01*
X147823446Y-54301990D01*
X147675965Y-54400535D01*
X147675961Y-54400538D01*
X147550538Y-54525961D01*
X147550535Y-54525965D01*
X147451990Y-54673446D01*
X147451983Y-54673459D01*
X147384106Y-54837332D01*
X147384103Y-54837341D01*
X147349500Y-55011304D01*
X118500499Y-55011304D01*
X118465896Y-54837341D01*
X118465893Y-54837332D01*
X118398016Y-54673459D01*
X118398009Y-54673446D01*
X118299464Y-54525965D01*
X118299461Y-54525961D01*
X118174038Y-54400538D01*
X118174034Y-54400535D01*
X118026553Y-54301990D01*
X118026540Y-54301983D01*
X117862667Y-54234106D01*
X117862658Y-54234103D01*
X117688694Y-54199500D01*
X117688691Y-54199500D01*
X117511309Y-54199500D01*
X117511306Y-54199500D01*
X117337341Y-54234103D01*
X117337332Y-54234106D01*
X117173459Y-54301983D01*
X117173446Y-54301990D01*
X117025965Y-54400535D01*
X117025961Y-54400538D01*
X116900538Y-54525961D01*
X116900535Y-54525965D01*
X116801990Y-54673446D01*
X116801983Y-54673459D01*
X116734106Y-54837332D01*
X116734103Y-54837341D01*
X116699500Y-55011304D01*
X108500500Y-55011304D01*
X108500500Y-47632329D01*
X120159399Y-47632329D01*
X120159399Y-47867674D01*
X120196212Y-48100101D01*
X120196213Y-48100105D01*
X120268936Y-48323921D01*
X120375775Y-48533605D01*
X120514101Y-48723994D01*
X120680507Y-48890400D01*
X120870896Y-49028726D01*
X121080580Y-49135565D01*
X121304396Y-49208288D01*
X121391559Y-49222093D01*
X121536827Y-49245102D01*
X121536832Y-49245102D01*
X121772171Y-49245102D01*
X121901297Y-49224649D01*
X122004602Y-49208288D01*
X122228418Y-49135565D01*
X122438102Y-49028726D01*
X122628491Y-48890400D01*
X122794897Y-48723994D01*
X122933223Y-48533605D01*
X123040062Y-48323921D01*
X123112785Y-48100105D01*
X123132757Y-47974008D01*
X123149599Y-47867674D01*
X123149599Y-47700013D01*
X128732323Y-47700013D01*
X128732323Y-48250000D01*
X129799311Y-48250000D01*
X129766398Y-48307007D01*
X129732323Y-48434174D01*
X129732323Y-48565826D01*
X129766398Y-48692993D01*
X129799311Y-48750000D01*
X128732324Y-48750000D01*
X128732324Y-49299986D01*
X128742817Y-49402697D01*
X128797964Y-49569119D01*
X128797966Y-49569124D01*
X128890007Y-49718345D01*
X129013977Y-49842315D01*
X129163198Y-49934356D01*
X129163203Y-49934358D01*
X129329625Y-49989505D01*
X129329632Y-49989506D01*
X129432342Y-49999999D01*
X129982322Y-49999999D01*
X129982323Y-49999998D01*
X129982323Y-48933012D01*
X130039330Y-48965925D01*
X130166497Y-49000000D01*
X130298149Y-49000000D01*
X130425316Y-48965925D01*
X130482323Y-48933012D01*
X130482323Y-49999999D01*
X131032295Y-49999999D01*
X131032309Y-49999998D01*
X131135020Y-49989505D01*
X131301442Y-49934358D01*
X131301447Y-49934356D01*
X131450668Y-49842315D01*
X131574638Y-49718345D01*
X131666679Y-49569124D01*
X131666681Y-49569119D01*
X131721828Y-49402697D01*
X131721829Y-49402690D01*
X131732322Y-49299986D01*
X131732323Y-49299973D01*
X131732323Y-48750000D01*
X130665335Y-48750000D01*
X130698248Y-48692993D01*
X130732323Y-48565826D01*
X130732323Y-48434174D01*
X130718316Y-48381902D01*
X133731823Y-48381902D01*
X133731823Y-48618097D01*
X133768769Y-48851368D01*
X133841756Y-49075996D01*
X133904667Y-49199464D01*
X133948980Y-49286433D01*
X134087806Y-49477510D01*
X134254813Y-49644517D01*
X134445890Y-49783343D01*
X134544019Y-49833342D01*
X134656326Y-49890566D01*
X134656328Y-49890566D01*
X134656331Y-49890568D01*
X134776735Y-49929689D01*
X134880954Y-49963553D01*
X135114226Y-50000500D01*
X135114231Y-50000500D01*
X135350420Y-50000500D01*
X135583691Y-49963553D01*
X135654437Y-49940566D01*
X135808315Y-49890568D01*
X136018756Y-49783343D01*
X136209833Y-49644517D01*
X136376840Y-49477510D01*
X136515666Y-49286433D01*
X136538936Y-49240761D01*
X136586908Y-49189967D01*
X136654729Y-49173171D01*
X136720864Y-49195707D01*
X136724616Y-49198563D01*
X136873446Y-49298009D01*
X136873459Y-49298016D01*
X136952000Y-49330548D01*
X137037334Y-49365894D01*
X137037336Y-49365894D01*
X137037341Y-49365896D01*
X137211304Y-49400499D01*
X137211307Y-49400500D01*
X137211309Y-49400500D01*
X137388693Y-49400500D01*
X137388694Y-49400499D01*
X137446682Y-49388964D01*
X137562658Y-49365896D01*
X137562661Y-49365894D01*
X137562666Y-49365894D01*
X137726547Y-49298013D01*
X137874035Y-49199464D01*
X137999464Y-49074035D01*
X138098013Y-48926547D01*
X138165894Y-48762666D01*
X138168414Y-48750000D01*
X138200499Y-48588695D01*
X138200500Y-48588693D01*
X138200500Y-48411306D01*
X138200499Y-48411304D01*
X138165896Y-48237341D01*
X138165893Y-48237332D01*
X138098016Y-48073459D01*
X138098009Y-48073446D01*
X137999464Y-47925965D01*
X137999461Y-47925961D01*
X137874038Y-47800538D01*
X137874034Y-47800535D01*
X137769318Y-47730565D01*
X137726553Y-47701990D01*
X137726540Y-47701983D01*
X137562667Y-47634106D01*
X137562658Y-47634103D01*
X137553739Y-47632329D01*
X151029900Y-47632329D01*
X151029900Y-47867674D01*
X151066713Y-48100101D01*
X151066714Y-48100105D01*
X151139437Y-48323921D01*
X151246276Y-48533605D01*
X151384602Y-48723994D01*
X151551008Y-48890400D01*
X151741397Y-49028726D01*
X151951081Y-49135565D01*
X152174897Y-49208288D01*
X152262060Y-49222093D01*
X152407328Y-49245102D01*
X152407333Y-49245102D01*
X152642672Y-49245102D01*
X152771798Y-49224649D01*
X152875103Y-49208288D01*
X153098919Y-49135565D01*
X153308603Y-49028726D01*
X153498992Y-48890400D01*
X153665398Y-48723994D01*
X153803724Y-48533605D01*
X153910563Y-48323921D01*
X153983286Y-48100105D01*
X154003258Y-47974008D01*
X154020100Y-47867674D01*
X154020100Y-47750013D01*
X159350000Y-47750013D01*
X159350000Y-48300000D01*
X160416988Y-48300000D01*
X160384075Y-48357007D01*
X160350000Y-48484174D01*
X160350000Y-48615826D01*
X160384075Y-48742993D01*
X160416988Y-48800000D01*
X159350001Y-48800000D01*
X159350001Y-49349986D01*
X159360494Y-49452697D01*
X159415641Y-49619119D01*
X159415643Y-49619124D01*
X159507684Y-49768345D01*
X159631654Y-49892315D01*
X159780875Y-49984356D01*
X159780880Y-49984358D01*
X159947302Y-50039505D01*
X159947309Y-50039506D01*
X160050019Y-50049999D01*
X160599999Y-50049999D01*
X160600000Y-50049998D01*
X160600000Y-48983012D01*
X160657007Y-49015925D01*
X160784174Y-49050000D01*
X160915826Y-49050000D01*
X161042993Y-49015925D01*
X161100000Y-48983012D01*
X161100000Y-50049999D01*
X161649972Y-50049999D01*
X161649986Y-50049998D01*
X161752697Y-50039505D01*
X161919119Y-49984358D01*
X161919124Y-49984356D01*
X162068345Y-49892315D01*
X162192315Y-49768345D01*
X162284356Y-49619124D01*
X162284358Y-49619119D01*
X162339505Y-49452697D01*
X162339506Y-49452690D01*
X162349999Y-49349986D01*
X162350000Y-49349973D01*
X162350000Y-48800000D01*
X161283012Y-48800000D01*
X161315925Y-48742993D01*
X161350000Y-48615826D01*
X161350000Y-48484174D01*
X161335993Y-48431902D01*
X164349500Y-48431902D01*
X164349500Y-48668097D01*
X164386446Y-48901368D01*
X164459433Y-49125996D01*
X164547819Y-49299461D01*
X164566657Y-49336433D01*
X164705483Y-49527510D01*
X164872490Y-49694517D01*
X165063567Y-49833343D01*
X165081176Y-49842315D01*
X165274003Y-49940566D01*
X165274005Y-49940566D01*
X165274008Y-49940568D01*
X165394412Y-49979689D01*
X165498631Y-50013553D01*
X165731903Y-50050500D01*
X165731908Y-50050500D01*
X165968097Y-50050500D01*
X166201368Y-50013553D01*
X166425992Y-49940568D01*
X166636433Y-49833343D01*
X166827510Y-49694517D01*
X166994517Y-49527510D01*
X167111616Y-49366336D01*
X167166946Y-49323672D01*
X167236560Y-49317693D01*
X167280825Y-49336121D01*
X167373446Y-49398009D01*
X167373459Y-49398016D01*
X167496363Y-49448923D01*
X167537334Y-49465894D01*
X167537336Y-49465894D01*
X167537341Y-49465896D01*
X167711304Y-49500499D01*
X167711307Y-49500500D01*
X167711309Y-49500500D01*
X167888693Y-49500500D01*
X167888694Y-49500499D01*
X167946682Y-49488964D01*
X168062658Y-49465896D01*
X168062661Y-49465894D01*
X168062666Y-49465894D01*
X168226547Y-49398013D01*
X168374035Y-49299464D01*
X168499464Y-49174035D01*
X168598013Y-49026547D01*
X168665894Y-48862666D01*
X168668142Y-48851368D01*
X168693477Y-48723996D01*
X168700500Y-48688691D01*
X168700500Y-48511309D01*
X168700500Y-48511306D01*
X168700499Y-48511304D01*
X168665896Y-48337341D01*
X168665893Y-48337332D01*
X168598016Y-48173459D01*
X168598009Y-48173446D01*
X168499464Y-48025965D01*
X168499461Y-48025961D01*
X168374038Y-47900538D01*
X168374034Y-47900535D01*
X168226553Y-47801990D01*
X168226540Y-47801983D01*
X168081786Y-47742025D01*
X168081784Y-47742025D01*
X168062666Y-47734106D01*
X168062659Y-47734104D01*
X168062658Y-47734104D01*
X168062658Y-47734103D01*
X167888694Y-47699500D01*
X167888691Y-47699500D01*
X167711309Y-47699500D01*
X167711306Y-47699500D01*
X167537341Y-47734103D01*
X167537332Y-47734106D01*
X167373459Y-47801983D01*
X167373446Y-47801990D01*
X167324956Y-47834391D01*
X167258278Y-47855269D01*
X167190898Y-47836784D01*
X167145580Y-47787583D01*
X167133344Y-47763568D01*
X167097015Y-47713566D01*
X167037993Y-47632329D01*
X181959399Y-47632329D01*
X181959399Y-47867674D01*
X181996212Y-48100101D01*
X181996213Y-48100105D01*
X182068936Y-48323921D01*
X182175775Y-48533605D01*
X182314101Y-48723994D01*
X182480507Y-48890400D01*
X182670896Y-49028726D01*
X182880580Y-49135565D01*
X183104396Y-49208288D01*
X183191559Y-49222093D01*
X183336827Y-49245102D01*
X183336832Y-49245102D01*
X183572171Y-49245102D01*
X183701297Y-49224649D01*
X183804602Y-49208288D01*
X184028418Y-49135565D01*
X184238102Y-49028726D01*
X184428491Y-48890400D01*
X184594897Y-48723994D01*
X184733223Y-48533605D01*
X184840062Y-48323921D01*
X184912785Y-48100105D01*
X184932757Y-47974008D01*
X184949599Y-47867674D01*
X184949599Y-47750013D01*
X190350000Y-47750013D01*
X190350000Y-48300000D01*
X191416988Y-48300000D01*
X191384075Y-48357007D01*
X191350000Y-48484174D01*
X191350000Y-48615826D01*
X191384075Y-48742993D01*
X191416988Y-48800000D01*
X190350001Y-48800000D01*
X190350001Y-49349986D01*
X190360494Y-49452697D01*
X190415641Y-49619119D01*
X190415643Y-49619124D01*
X190507684Y-49768345D01*
X190631654Y-49892315D01*
X190780875Y-49984356D01*
X190780880Y-49984358D01*
X190947302Y-50039505D01*
X190947309Y-50039506D01*
X191050019Y-50049999D01*
X191599999Y-50049999D01*
X191600000Y-50049998D01*
X191600000Y-48983012D01*
X191657007Y-49015925D01*
X191784174Y-49050000D01*
X191915826Y-49050000D01*
X192042993Y-49015925D01*
X192100000Y-48983012D01*
X192100000Y-50049999D01*
X192649972Y-50049999D01*
X192649986Y-50049998D01*
X192752697Y-50039505D01*
X192919119Y-49984358D01*
X192919124Y-49984356D01*
X193068345Y-49892315D01*
X193192315Y-49768345D01*
X193284356Y-49619124D01*
X193284358Y-49619119D01*
X193339505Y-49452697D01*
X193339506Y-49452690D01*
X193349999Y-49349986D01*
X193350000Y-49349973D01*
X193350000Y-48800000D01*
X192283012Y-48800000D01*
X192315925Y-48742993D01*
X192350000Y-48615826D01*
X192350000Y-48484174D01*
X192335993Y-48431902D01*
X195349500Y-48431902D01*
X195349500Y-48668097D01*
X195386446Y-48901368D01*
X195459433Y-49125996D01*
X195547819Y-49299461D01*
X195566657Y-49336433D01*
X195705483Y-49527510D01*
X195872490Y-49694517D01*
X196063567Y-49833343D01*
X196081176Y-49842315D01*
X196274003Y-49940566D01*
X196274005Y-49940566D01*
X196274008Y-49940568D01*
X196394412Y-49979689D01*
X196498631Y-50013553D01*
X196731903Y-50050500D01*
X196731908Y-50050500D01*
X196968097Y-50050500D01*
X197201368Y-50013553D01*
X197425992Y-49940568D01*
X197636433Y-49833343D01*
X197827510Y-49694517D01*
X197994517Y-49527510D01*
X198106621Y-49373211D01*
X198161950Y-49330548D01*
X198231563Y-49324569D01*
X198254391Y-49331538D01*
X198337334Y-49365894D01*
X198337336Y-49365894D01*
X198337341Y-49365896D01*
X198511304Y-49400499D01*
X198511307Y-49400500D01*
X198511309Y-49400500D01*
X198688693Y-49400500D01*
X198688694Y-49400499D01*
X198746682Y-49388964D01*
X198862658Y-49365896D01*
X198862661Y-49365894D01*
X198862666Y-49365894D01*
X199026547Y-49298013D01*
X199174035Y-49199464D01*
X199299464Y-49074035D01*
X199398013Y-48926547D01*
X199465894Y-48762666D01*
X199468414Y-48750000D01*
X199500499Y-48588695D01*
X199500500Y-48588693D01*
X199500500Y-48411306D01*
X199500499Y-48411304D01*
X199465896Y-48237341D01*
X199465893Y-48237332D01*
X199398016Y-48073459D01*
X199398009Y-48073446D01*
X199299464Y-47925965D01*
X199299461Y-47925961D01*
X199174038Y-47800538D01*
X199174034Y-47800535D01*
X199069318Y-47730565D01*
X199026553Y-47701990D01*
X199026540Y-47701983D01*
X198862667Y-47634106D01*
X198862658Y-47634103D01*
X198853739Y-47632329D01*
X213159399Y-47632329D01*
X213159399Y-47867674D01*
X213196212Y-48100101D01*
X213196213Y-48100105D01*
X213268936Y-48323921D01*
X213375775Y-48533605D01*
X213514101Y-48723994D01*
X213680507Y-48890400D01*
X213870896Y-49028726D01*
X214080580Y-49135565D01*
X214304396Y-49208288D01*
X214391559Y-49222093D01*
X214536827Y-49245102D01*
X214536832Y-49245102D01*
X214772171Y-49245102D01*
X214901297Y-49224649D01*
X215004602Y-49208288D01*
X215228418Y-49135565D01*
X215438102Y-49028726D01*
X215628491Y-48890400D01*
X215794897Y-48723994D01*
X215933223Y-48533605D01*
X216040062Y-48323921D01*
X216112785Y-48100105D01*
X216132757Y-47974008D01*
X216149599Y-47867674D01*
X216149599Y-47750013D01*
X221850000Y-47750013D01*
X221850000Y-48300000D01*
X222916988Y-48300000D01*
X222884075Y-48357007D01*
X222850000Y-48484174D01*
X222850000Y-48615826D01*
X222884075Y-48742993D01*
X222916988Y-48800000D01*
X221850001Y-48800000D01*
X221850001Y-49349986D01*
X221860494Y-49452697D01*
X221915641Y-49619119D01*
X221915643Y-49619124D01*
X222007684Y-49768345D01*
X222131654Y-49892315D01*
X222280875Y-49984356D01*
X222280880Y-49984358D01*
X222447302Y-50039505D01*
X222447309Y-50039506D01*
X222550019Y-50049999D01*
X223099999Y-50049999D01*
X223100000Y-50049998D01*
X223100000Y-48983012D01*
X223157007Y-49015925D01*
X223284174Y-49050000D01*
X223415826Y-49050000D01*
X223542993Y-49015925D01*
X223600000Y-48983012D01*
X223600000Y-50049999D01*
X224149972Y-50049999D01*
X224149986Y-50049998D01*
X224252697Y-50039505D01*
X224419119Y-49984358D01*
X224419124Y-49984356D01*
X224568345Y-49892315D01*
X224692315Y-49768345D01*
X224784356Y-49619124D01*
X224784358Y-49619119D01*
X224839505Y-49452697D01*
X224839506Y-49452690D01*
X224849999Y-49349986D01*
X224850000Y-49349973D01*
X224850000Y-48800000D01*
X223783012Y-48800000D01*
X223815925Y-48742993D01*
X223850000Y-48615826D01*
X223850000Y-48484174D01*
X223835993Y-48431902D01*
X226849500Y-48431902D01*
X226849500Y-48668097D01*
X226886446Y-48901368D01*
X226959433Y-49125996D01*
X227047819Y-49299461D01*
X227066657Y-49336433D01*
X227205483Y-49527510D01*
X227372490Y-49694517D01*
X227563567Y-49833343D01*
X227581176Y-49842315D01*
X227774003Y-49940566D01*
X227774005Y-49940566D01*
X227774008Y-49940568D01*
X227894412Y-49979689D01*
X227998631Y-50013553D01*
X228231903Y-50050500D01*
X228231908Y-50050500D01*
X228468097Y-50050500D01*
X228701368Y-50013553D01*
X228925992Y-49940568D01*
X229136433Y-49833343D01*
X229327510Y-49694517D01*
X229494517Y-49527510D01*
X229629752Y-49341374D01*
X229685082Y-49298709D01*
X229754695Y-49292730D01*
X229777522Y-49299699D01*
X229866208Y-49336433D01*
X229937334Y-49365894D01*
X229937336Y-49365894D01*
X229937341Y-49365896D01*
X230111304Y-49400499D01*
X230111307Y-49400500D01*
X230111309Y-49400500D01*
X230288693Y-49400500D01*
X230288694Y-49400499D01*
X230346682Y-49388964D01*
X230462658Y-49365896D01*
X230462661Y-49365894D01*
X230462666Y-49365894D01*
X230626547Y-49298013D01*
X230774035Y-49199464D01*
X230899464Y-49074035D01*
X230998013Y-48926547D01*
X231065894Y-48762666D01*
X231068414Y-48750000D01*
X231100499Y-48588695D01*
X231100500Y-48588693D01*
X231100500Y-48411306D01*
X231100499Y-48411304D01*
X231065896Y-48237341D01*
X231065893Y-48237332D01*
X230998016Y-48073459D01*
X230998009Y-48073446D01*
X230899464Y-47925965D01*
X230899461Y-47925961D01*
X230774038Y-47800538D01*
X230774034Y-47800535D01*
X230626553Y-47701990D01*
X230626540Y-47701983D01*
X230462667Y-47634106D01*
X230462658Y-47634103D01*
X230288694Y-47599500D01*
X230288691Y-47599500D01*
X230111309Y-47599500D01*
X230111306Y-47599500D01*
X229937341Y-47634103D01*
X229937332Y-47634106D01*
X229773460Y-47701983D01*
X229773451Y-47701988D01*
X229748142Y-47718899D01*
X229681464Y-47739775D01*
X229614084Y-47721289D01*
X229578935Y-47688681D01*
X229577140Y-47686210D01*
X229494517Y-47572490D01*
X229327510Y-47405483D01*
X229136433Y-47266657D01*
X229136432Y-47266656D01*
X229136430Y-47266655D01*
X229112414Y-47254418D01*
X229061619Y-47206443D01*
X229044824Y-47138622D01*
X229065609Y-47075042D01*
X229098013Y-47026547D01*
X229165894Y-46862666D01*
X229183132Y-46776008D01*
X229200499Y-46688695D01*
X229200500Y-46688693D01*
X229200500Y-46511306D01*
X229200499Y-46511304D01*
X229165896Y-46337341D01*
X229165893Y-46337332D01*
X229098016Y-46173459D01*
X229098009Y-46173446D01*
X228999464Y-46025965D01*
X228999461Y-46025961D01*
X228874038Y-45900538D01*
X228874034Y-45900535D01*
X228726553Y-45801990D01*
X228726540Y-45801983D01*
X228562667Y-45734106D01*
X228562658Y-45734103D01*
X228388694Y-45699500D01*
X228388691Y-45699500D01*
X228211309Y-45699500D01*
X228211306Y-45699500D01*
X228037341Y-45734103D01*
X228037332Y-45734106D01*
X227873459Y-45801983D01*
X227873446Y-45801990D01*
X227725965Y-45900535D01*
X227725961Y-45900538D01*
X227600538Y-46025961D01*
X227600535Y-46025965D01*
X227501990Y-46173446D01*
X227501983Y-46173459D01*
X227434106Y-46337332D01*
X227434103Y-46337341D01*
X227399500Y-46511304D01*
X227399500Y-46688695D01*
X227434103Y-46862658D01*
X227434106Y-46862667D01*
X227501983Y-47026540D01*
X227501990Y-47026553D01*
X227563879Y-47119175D01*
X227584757Y-47185852D01*
X227566273Y-47253232D01*
X227533664Y-47288382D01*
X227372490Y-47405483D01*
X227372488Y-47405485D01*
X227372487Y-47405485D01*
X227205485Y-47572487D01*
X227205485Y-47572488D01*
X227205483Y-47572490D01*
X227160718Y-47634104D01*
X227066657Y-47763566D01*
X226959433Y-47974003D01*
X226886446Y-48198631D01*
X226849500Y-48431902D01*
X223835993Y-48431902D01*
X223815925Y-48357007D01*
X223783012Y-48300000D01*
X224849999Y-48300000D01*
X224849999Y-47750028D01*
X224849998Y-47750013D01*
X224839505Y-47647302D01*
X224784358Y-47480880D01*
X224784356Y-47480875D01*
X224692315Y-47331654D01*
X224568345Y-47207684D01*
X224419124Y-47115643D01*
X224419119Y-47115641D01*
X224252697Y-47060494D01*
X224252690Y-47060493D01*
X224149986Y-47050000D01*
X223600000Y-47050000D01*
X223600000Y-48116988D01*
X223542993Y-48084075D01*
X223415826Y-48050000D01*
X223284174Y-48050000D01*
X223157007Y-48084075D01*
X223100000Y-48116988D01*
X223100000Y-47050000D01*
X222550028Y-47050000D01*
X222550012Y-47050001D01*
X222447302Y-47060494D01*
X222280880Y-47115641D01*
X222280875Y-47115643D01*
X222131654Y-47207684D01*
X222007684Y-47331654D01*
X221915643Y-47480875D01*
X221915641Y-47480880D01*
X221860494Y-47647302D01*
X221860493Y-47647309D01*
X221850000Y-47750013D01*
X216149599Y-47750013D01*
X216149599Y-47632329D01*
X216117691Y-47430875D01*
X216112785Y-47399899D01*
X216040062Y-47176083D01*
X215933223Y-46966399D01*
X215794897Y-46776010D01*
X215628491Y-46609604D01*
X215438102Y-46471278D01*
X215228418Y-46364439D01*
X215004602Y-46291716D01*
X215004600Y-46291715D01*
X215004598Y-46291715D01*
X214772171Y-46254902D01*
X214772166Y-46254902D01*
X214536832Y-46254902D01*
X214536827Y-46254902D01*
X214304399Y-46291715D01*
X214080577Y-46364440D01*
X213870895Y-46471278D01*
X213815805Y-46511304D01*
X213680507Y-46609604D01*
X213680505Y-46609606D01*
X213680504Y-46609606D01*
X213514103Y-46776007D01*
X213514103Y-46776008D01*
X213514101Y-46776010D01*
X213504885Y-46788695D01*
X213375775Y-46966398D01*
X213268937Y-47176080D01*
X213196212Y-47399902D01*
X213159399Y-47632329D01*
X198853739Y-47632329D01*
X198688694Y-47599500D01*
X198688691Y-47599500D01*
X198511309Y-47599500D01*
X198511306Y-47599500D01*
X198337341Y-47634103D01*
X198337341Y-47634104D01*
X198337338Y-47634105D01*
X198337334Y-47634106D01*
X198205577Y-47688681D01*
X198198542Y-47691595D01*
X198129072Y-47699063D01*
X198066593Y-47667787D01*
X198050772Y-47649919D01*
X198048871Y-47647302D01*
X197994517Y-47572490D01*
X197827510Y-47405483D01*
X197666335Y-47288382D01*
X197623671Y-47233053D01*
X197617692Y-47163439D01*
X197636119Y-47119176D01*
X197698013Y-47026547D01*
X197765894Y-46862666D01*
X197783132Y-46776008D01*
X197800499Y-46688695D01*
X197800500Y-46688693D01*
X197800500Y-46511306D01*
X197800499Y-46511304D01*
X197765896Y-46337341D01*
X197765893Y-46337332D01*
X197698016Y-46173459D01*
X197698009Y-46173446D01*
X197599464Y-46025965D01*
X197599461Y-46025961D01*
X197474038Y-45900538D01*
X197474034Y-45900535D01*
X197326553Y-45801990D01*
X197326540Y-45801983D01*
X197162667Y-45734106D01*
X197162658Y-45734103D01*
X196988694Y-45699500D01*
X196988691Y-45699500D01*
X196811309Y-45699500D01*
X196811306Y-45699500D01*
X196637341Y-45734103D01*
X196637332Y-45734106D01*
X196473459Y-45801983D01*
X196473446Y-45801990D01*
X196325965Y-45900535D01*
X196325961Y-45900538D01*
X196200538Y-46025961D01*
X196200535Y-46025965D01*
X196101990Y-46173446D01*
X196101983Y-46173459D01*
X196034106Y-46337332D01*
X196034103Y-46337341D01*
X195999500Y-46511304D01*
X195999500Y-46688695D01*
X196034103Y-46862658D01*
X196034106Y-46862667D01*
X196101983Y-47026540D01*
X196101987Y-47026547D01*
X196128110Y-47065643D01*
X196134391Y-47075042D01*
X196155269Y-47141720D01*
X196136785Y-47209100D01*
X196087587Y-47254417D01*
X196063569Y-47266655D01*
X196033662Y-47288384D01*
X195872490Y-47405483D01*
X195872488Y-47405485D01*
X195872487Y-47405485D01*
X195705485Y-47572487D01*
X195705485Y-47572488D01*
X195705483Y-47572490D01*
X195660718Y-47634104D01*
X195566657Y-47763566D01*
X195459433Y-47974003D01*
X195386446Y-48198631D01*
X195349500Y-48431902D01*
X192335993Y-48431902D01*
X192315925Y-48357007D01*
X192283012Y-48300000D01*
X193349999Y-48300000D01*
X193349999Y-47750028D01*
X193349998Y-47750013D01*
X193339505Y-47647302D01*
X193284358Y-47480880D01*
X193284356Y-47480875D01*
X193192315Y-47331654D01*
X193068345Y-47207684D01*
X192919124Y-47115643D01*
X192919119Y-47115641D01*
X192752697Y-47060494D01*
X192752690Y-47060493D01*
X192649986Y-47050000D01*
X192100000Y-47050000D01*
X192100000Y-48116988D01*
X192042993Y-48084075D01*
X191915826Y-48050000D01*
X191784174Y-48050000D01*
X191657007Y-48084075D01*
X191600000Y-48116988D01*
X191600000Y-47050000D01*
X191050028Y-47050000D01*
X191050012Y-47050001D01*
X190947302Y-47060494D01*
X190780880Y-47115641D01*
X190780875Y-47115643D01*
X190631654Y-47207684D01*
X190507684Y-47331654D01*
X190415643Y-47480875D01*
X190415641Y-47480880D01*
X190360494Y-47647302D01*
X190360493Y-47647309D01*
X190350000Y-47750013D01*
X184949599Y-47750013D01*
X184949599Y-47632329D01*
X184917691Y-47430875D01*
X184912785Y-47399899D01*
X184840062Y-47176083D01*
X184733223Y-46966399D01*
X184594897Y-46776010D01*
X184428491Y-46609604D01*
X184238102Y-46471278D01*
X184028418Y-46364439D01*
X183804602Y-46291716D01*
X183804600Y-46291715D01*
X183804598Y-46291715D01*
X183572171Y-46254902D01*
X183572166Y-46254902D01*
X183336832Y-46254902D01*
X183336827Y-46254902D01*
X183104399Y-46291715D01*
X182880577Y-46364440D01*
X182670895Y-46471278D01*
X182615805Y-46511304D01*
X182480507Y-46609604D01*
X182480505Y-46609606D01*
X182480504Y-46609606D01*
X182314103Y-46776007D01*
X182314103Y-46776008D01*
X182314101Y-46776010D01*
X182304885Y-46788695D01*
X182175775Y-46966398D01*
X182068937Y-47176080D01*
X181996212Y-47399902D01*
X181959399Y-47632329D01*
X167037993Y-47632329D01*
X166994517Y-47572490D01*
X166827510Y-47405483D01*
X166711316Y-47321063D01*
X166668652Y-47265734D01*
X166662673Y-47196120D01*
X166681100Y-47151857D01*
X166698013Y-47126547D01*
X166765894Y-46962666D01*
X166773078Y-46926553D01*
X166800499Y-46788695D01*
X166800500Y-46788693D01*
X166800500Y-46611306D01*
X166800499Y-46611304D01*
X166765896Y-46437341D01*
X166765893Y-46437332D01*
X166698016Y-46273459D01*
X166698009Y-46273446D01*
X166599464Y-46125965D01*
X166599461Y-46125961D01*
X166474038Y-46000538D01*
X166474034Y-46000535D01*
X166326553Y-45901990D01*
X166326540Y-45901983D01*
X166162667Y-45834106D01*
X166162658Y-45834103D01*
X165988694Y-45799500D01*
X165988691Y-45799500D01*
X165811309Y-45799500D01*
X165811306Y-45799500D01*
X165637341Y-45834103D01*
X165637332Y-45834106D01*
X165473459Y-45901983D01*
X165473446Y-45901990D01*
X165325965Y-46000535D01*
X165325961Y-46000538D01*
X165200538Y-46125961D01*
X165200535Y-46125965D01*
X165101990Y-46273446D01*
X165101983Y-46273459D01*
X165034106Y-46437332D01*
X165034103Y-46437341D01*
X164999500Y-46611304D01*
X164999500Y-46788695D01*
X165034103Y-46962658D01*
X165034105Y-46962664D01*
X165034106Y-46962666D01*
X165053917Y-47010494D01*
X165100301Y-47122477D01*
X165107769Y-47191947D01*
X165076493Y-47254426D01*
X165058625Y-47270247D01*
X164872488Y-47405484D01*
X164705485Y-47572487D01*
X164705485Y-47572488D01*
X164705483Y-47572490D01*
X164660718Y-47634104D01*
X164566657Y-47763566D01*
X164459433Y-47974003D01*
X164386446Y-48198631D01*
X164349500Y-48431902D01*
X161335993Y-48431902D01*
X161315925Y-48357007D01*
X161283012Y-48300000D01*
X162349999Y-48300000D01*
X162349999Y-47750028D01*
X162349998Y-47750013D01*
X162339505Y-47647302D01*
X162284358Y-47480880D01*
X162284356Y-47480875D01*
X162192315Y-47331654D01*
X162068345Y-47207684D01*
X161919124Y-47115643D01*
X161919119Y-47115641D01*
X161752697Y-47060494D01*
X161752690Y-47060493D01*
X161649986Y-47050000D01*
X161100000Y-47050000D01*
X161100000Y-48116988D01*
X161042993Y-48084075D01*
X160915826Y-48050000D01*
X160784174Y-48050000D01*
X160657007Y-48084075D01*
X160600000Y-48116988D01*
X160600000Y-47050000D01*
X160050028Y-47050000D01*
X160050012Y-47050001D01*
X159947302Y-47060494D01*
X159780880Y-47115641D01*
X159780875Y-47115643D01*
X159631654Y-47207684D01*
X159507684Y-47331654D01*
X159415643Y-47480875D01*
X159415641Y-47480880D01*
X159360494Y-47647302D01*
X159360493Y-47647309D01*
X159350000Y-47750013D01*
X154020100Y-47750013D01*
X154020100Y-47632329D01*
X153988192Y-47430875D01*
X153983286Y-47399899D01*
X153910563Y-47176083D01*
X153803724Y-46966399D01*
X153665398Y-46776010D01*
X153498992Y-46609604D01*
X153308603Y-46471278D01*
X153098919Y-46364439D01*
X152875103Y-46291716D01*
X152875101Y-46291715D01*
X152875099Y-46291715D01*
X152642672Y-46254902D01*
X152642667Y-46254902D01*
X152407333Y-46254902D01*
X152407328Y-46254902D01*
X152174900Y-46291715D01*
X151951078Y-46364440D01*
X151741396Y-46471278D01*
X151686306Y-46511304D01*
X151551008Y-46609604D01*
X151551006Y-46609606D01*
X151551005Y-46609606D01*
X151384604Y-46776007D01*
X151384604Y-46776008D01*
X151384602Y-46776010D01*
X151375386Y-46788695D01*
X151246276Y-46966398D01*
X151139438Y-47176080D01*
X151066713Y-47399902D01*
X151029900Y-47632329D01*
X137553739Y-47632329D01*
X137388694Y-47599500D01*
X137388691Y-47599500D01*
X137211309Y-47599500D01*
X137211306Y-47599500D01*
X137037341Y-47634103D01*
X137037332Y-47634106D01*
X136873459Y-47701983D01*
X136873446Y-47701990D01*
X136720900Y-47803920D01*
X136719823Y-47802308D01*
X136663754Y-47826111D01*
X136594888Y-47814308D01*
X136543336Y-47767147D01*
X136538943Y-47759252D01*
X136515666Y-47713567D01*
X136376840Y-47522490D01*
X136209833Y-47355483D01*
X136018756Y-47216657D01*
X136018755Y-47216656D01*
X136018753Y-47216655D01*
X135983001Y-47198438D01*
X135932205Y-47150463D01*
X135915411Y-47082642D01*
X135936194Y-47019065D01*
X135998013Y-46926547D01*
X136065894Y-46762666D01*
X136100500Y-46588691D01*
X136100500Y-46411309D01*
X136100500Y-46411306D01*
X136100499Y-46411304D01*
X136065896Y-46237341D01*
X136065893Y-46237332D01*
X135998016Y-46073459D01*
X135998009Y-46073446D01*
X135899464Y-45925965D01*
X135899461Y-45925961D01*
X135774038Y-45800538D01*
X135774034Y-45800535D01*
X135626553Y-45701990D01*
X135626540Y-45701983D01*
X135462667Y-45634106D01*
X135462658Y-45634103D01*
X135288694Y-45599500D01*
X135288691Y-45599500D01*
X135111309Y-45599500D01*
X135111306Y-45599500D01*
X134937341Y-45634103D01*
X134937332Y-45634106D01*
X134773459Y-45701983D01*
X134773446Y-45701990D01*
X134625965Y-45800535D01*
X134625961Y-45800538D01*
X134500538Y-45925961D01*
X134500535Y-45925965D01*
X134401990Y-46073446D01*
X134401983Y-46073459D01*
X134334106Y-46237332D01*
X134334103Y-46237341D01*
X134299500Y-46411304D01*
X134299500Y-46588695D01*
X134334103Y-46762658D01*
X134334106Y-46762667D01*
X134401983Y-46926540D01*
X134401990Y-46926553D01*
X134480621Y-47044232D01*
X134501499Y-47110910D01*
X134483014Y-47178290D01*
X134448819Y-47212399D01*
X134449832Y-47213793D01*
X134445890Y-47216656D01*
X134445890Y-47216657D01*
X134254813Y-47355483D01*
X134254811Y-47355485D01*
X134254810Y-47355485D01*
X134087808Y-47522487D01*
X134087808Y-47522488D01*
X134087806Y-47522490D01*
X134051481Y-47572487D01*
X133948980Y-47713566D01*
X133841756Y-47924003D01*
X133768769Y-48148631D01*
X133731823Y-48381902D01*
X130718316Y-48381902D01*
X130698248Y-48307007D01*
X130665335Y-48250000D01*
X131732322Y-48250000D01*
X131732322Y-47700028D01*
X131732321Y-47700013D01*
X131721828Y-47597302D01*
X131666681Y-47430880D01*
X131666679Y-47430875D01*
X131574638Y-47281654D01*
X131450668Y-47157684D01*
X131301447Y-47065643D01*
X131301442Y-47065641D01*
X131135020Y-47010494D01*
X131135013Y-47010493D01*
X131032309Y-47000000D01*
X130482323Y-47000000D01*
X130482323Y-48066988D01*
X130425316Y-48034075D01*
X130298149Y-48000000D01*
X130166497Y-48000000D01*
X130039330Y-48034075D01*
X129982323Y-48066988D01*
X129982323Y-47000000D01*
X129432351Y-47000000D01*
X129432335Y-47000001D01*
X129329625Y-47010494D01*
X129163203Y-47065641D01*
X129163198Y-47065643D01*
X129013977Y-47157684D01*
X128890007Y-47281654D01*
X128797966Y-47430875D01*
X128797964Y-47430880D01*
X128742817Y-47597302D01*
X128742816Y-47597309D01*
X128732323Y-47700013D01*
X123149599Y-47700013D01*
X123149599Y-47632329D01*
X123117691Y-47430875D01*
X123112785Y-47399899D01*
X123040062Y-47176083D01*
X122933223Y-46966399D01*
X122794897Y-46776010D01*
X122628491Y-46609604D01*
X122438102Y-46471278D01*
X122228418Y-46364439D01*
X122004602Y-46291716D01*
X122004600Y-46291715D01*
X122004598Y-46291715D01*
X121772171Y-46254902D01*
X121772166Y-46254902D01*
X121536832Y-46254902D01*
X121536827Y-46254902D01*
X121304399Y-46291715D01*
X121080577Y-46364440D01*
X120870895Y-46471278D01*
X120815805Y-46511304D01*
X120680507Y-46609604D01*
X120680505Y-46609606D01*
X120680504Y-46609606D01*
X120514103Y-46776007D01*
X120514103Y-46776008D01*
X120514101Y-46776010D01*
X120504885Y-46788695D01*
X120375775Y-46966398D01*
X120268937Y-47176080D01*
X120196212Y-47399902D01*
X120159399Y-47632329D01*
X108500500Y-47632329D01*
X108500500Y-39811304D01*
X143199500Y-39811304D01*
X143199500Y-39988695D01*
X143234103Y-40162658D01*
X143234106Y-40162667D01*
X143301983Y-40326540D01*
X143301990Y-40326553D01*
X143400535Y-40474034D01*
X143400538Y-40474038D01*
X143525961Y-40599461D01*
X143525965Y-40599464D01*
X143673446Y-40698009D01*
X143673459Y-40698016D01*
X143796363Y-40748923D01*
X143837334Y-40765894D01*
X143837336Y-40765894D01*
X143837341Y-40765896D01*
X144011304Y-40800499D01*
X144011307Y-40800500D01*
X144011309Y-40800500D01*
X144188693Y-40800500D01*
X144188694Y-40800499D01*
X144246682Y-40788964D01*
X144362658Y-40765896D01*
X144362661Y-40765894D01*
X144362666Y-40765894D01*
X144526547Y-40698013D01*
X144674035Y-40599464D01*
X144799464Y-40474035D01*
X144898013Y-40326547D01*
X144965894Y-40162666D01*
X144969596Y-40144058D01*
X145000499Y-39988695D01*
X145000500Y-39988693D01*
X145000500Y-39811306D01*
X144967546Y-39645638D01*
X144967546Y-39645637D01*
X144965895Y-39637341D01*
X144965894Y-39637334D01*
X144960997Y-39625511D01*
X170703199Y-39625511D01*
X170703199Y-39885890D01*
X170703200Y-39885906D01*
X170737186Y-40144058D01*
X170804580Y-40395576D01*
X170904226Y-40636141D01*
X170904230Y-40636151D01*
X171034423Y-40861653D01*
X171192938Y-41068234D01*
X171192944Y-41068241D01*
X171377058Y-41252355D01*
X171377065Y-41252361D01*
X171583646Y-41410876D01*
X171809148Y-41541069D01*
X171809149Y-41541069D01*
X171809152Y-41541071D01*
X172049722Y-41640719D01*
X172301240Y-41708113D01*
X172559403Y-41742101D01*
X172559410Y-41742101D01*
X172819788Y-41742101D01*
X172819795Y-41742101D01*
X173077958Y-41708113D01*
X173329476Y-41640719D01*
X173570046Y-41541071D01*
X173795552Y-41410876D01*
X174002134Y-41252360D01*
X174186258Y-41068236D01*
X174344774Y-40861654D01*
X174474969Y-40636148D01*
X174574617Y-40395578D01*
X174642011Y-40144060D01*
X174675999Y-39885897D01*
X174675999Y-39625511D01*
X178003200Y-39625511D01*
X178003200Y-39885890D01*
X178003201Y-39885906D01*
X178037187Y-40144058D01*
X178104581Y-40395576D01*
X178204227Y-40636141D01*
X178204231Y-40636151D01*
X178334424Y-40861653D01*
X178492939Y-41068234D01*
X178492945Y-41068241D01*
X178677059Y-41252355D01*
X178677066Y-41252361D01*
X178883647Y-41410876D01*
X179109149Y-41541069D01*
X179109150Y-41541069D01*
X179109153Y-41541071D01*
X179349723Y-41640719D01*
X179601241Y-41708113D01*
X179859404Y-41742101D01*
X179859411Y-41742101D01*
X180119789Y-41742101D01*
X180119796Y-41742101D01*
X180377959Y-41708113D01*
X180629477Y-41640719D01*
X180870047Y-41541071D01*
X181095553Y-41410876D01*
X181302135Y-41252360D01*
X181486259Y-41068236D01*
X181644775Y-40861654D01*
X181774970Y-40636148D01*
X181874618Y-40395578D01*
X181942012Y-40144060D01*
X181976000Y-39885897D01*
X181976000Y-39625505D01*
X181942012Y-39367342D01*
X181874618Y-39115824D01*
X181774970Y-38875254D01*
X181644775Y-38649748D01*
X181486259Y-38443166D01*
X181486254Y-38443160D01*
X181302140Y-38259046D01*
X181302133Y-38259040D01*
X181095552Y-38100525D01*
X180870050Y-37970332D01*
X180870040Y-37970328D01*
X180629475Y-37870682D01*
X180377957Y-37803288D01*
X180119805Y-37769302D01*
X180119802Y-37769301D01*
X180119796Y-37769301D01*
X179859404Y-37769301D01*
X179859398Y-37769301D01*
X179859394Y-37769302D01*
X179601242Y-37803288D01*
X179349724Y-37870682D01*
X179109159Y-37970328D01*
X179109149Y-37970332D01*
X178883647Y-38100525D01*
X178677066Y-38259040D01*
X178677059Y-38259046D01*
X178492945Y-38443160D01*
X178492939Y-38443167D01*
X178334424Y-38649748D01*
X178204231Y-38875250D01*
X178204227Y-38875260D01*
X178104581Y-39115825D01*
X178037187Y-39367343D01*
X178003201Y-39625495D01*
X178003200Y-39625511D01*
X174675999Y-39625511D01*
X174675999Y-39625505D01*
X174642011Y-39367342D01*
X174574617Y-39115824D01*
X174474969Y-38875254D01*
X174344774Y-38649748D01*
X174186258Y-38443166D01*
X174186253Y-38443160D01*
X174002139Y-38259046D01*
X174002132Y-38259040D01*
X173795551Y-38100525D01*
X173570049Y-37970332D01*
X173570039Y-37970328D01*
X173329474Y-37870682D01*
X173077956Y-37803288D01*
X172819804Y-37769302D01*
X172819801Y-37769301D01*
X172819795Y-37769301D01*
X172559403Y-37769301D01*
X172559397Y-37769301D01*
X172559393Y-37769302D01*
X172301241Y-37803288D01*
X172049723Y-37870682D01*
X171809158Y-37970328D01*
X171809148Y-37970332D01*
X171583646Y-38100525D01*
X171377065Y-38259040D01*
X171377058Y-38259046D01*
X171192944Y-38443160D01*
X171192938Y-38443167D01*
X171034423Y-38649748D01*
X170904230Y-38875250D01*
X170904226Y-38875260D01*
X170804580Y-39115825D01*
X170737186Y-39367343D01*
X170703200Y-39625495D01*
X170703199Y-39625511D01*
X144960997Y-39625511D01*
X144948923Y-39596363D01*
X144898016Y-39473459D01*
X144898009Y-39473446D01*
X144799464Y-39325965D01*
X144799461Y-39325961D01*
X144674038Y-39200538D01*
X144674034Y-39200535D01*
X144526553Y-39101990D01*
X144526540Y-39101983D01*
X144362667Y-39034106D01*
X144362658Y-39034103D01*
X144188694Y-38999500D01*
X144188691Y-38999500D01*
X144011309Y-38999500D01*
X144011306Y-38999500D01*
X143837341Y-39034103D01*
X143837332Y-39034106D01*
X143673459Y-39101983D01*
X143673446Y-39101990D01*
X143525965Y-39200535D01*
X143525961Y-39200538D01*
X143400538Y-39325961D01*
X143400535Y-39325965D01*
X143301990Y-39473446D01*
X143301983Y-39473459D01*
X143234106Y-39637332D01*
X143234103Y-39637341D01*
X143199500Y-39811304D01*
X108500500Y-39811304D01*
X108500500Y-33002706D01*
X108500618Y-32997297D01*
X108503436Y-32932750D01*
X108507579Y-32837860D01*
X109199500Y-32837860D01*
X109199500Y-33162139D01*
X109231284Y-33484857D01*
X109231287Y-33484874D01*
X109294545Y-33802902D01*
X109294548Y-33802913D01*
X109388686Y-34113247D01*
X109512786Y-34412849D01*
X109512788Y-34412854D01*
X109665646Y-34698830D01*
X109665657Y-34698848D01*
X109845811Y-34968467D01*
X109845821Y-34968481D01*
X110051546Y-35219158D01*
X110280841Y-35448453D01*
X110280846Y-35448457D01*
X110280847Y-35448458D01*
X110531524Y-35654183D01*
X110801158Y-35834347D01*
X110801167Y-35834352D01*
X110801169Y-35834353D01*
X111087145Y-35987211D01*
X111087147Y-35987211D01*
X111087153Y-35987215D01*
X111386754Y-36111314D01*
X111697077Y-36205449D01*
X111697083Y-36205450D01*
X111697086Y-36205451D01*
X111697097Y-36205454D01*
X111896528Y-36245122D01*
X112015132Y-36268714D01*
X112337857Y-36300500D01*
X112337860Y-36300500D01*
X112662140Y-36300500D01*
X112662143Y-36300500D01*
X112984868Y-36268714D01*
X113142295Y-36237399D01*
X113302902Y-36205454D01*
X113302913Y-36205451D01*
X113302913Y-36205450D01*
X113302923Y-36205449D01*
X113613246Y-36111314D01*
X113912847Y-35987215D01*
X114198842Y-35834347D01*
X114468476Y-35654183D01*
X114719153Y-35448458D01*
X114948458Y-35219153D01*
X115154183Y-34968476D01*
X115192384Y-34911304D01*
X154499500Y-34911304D01*
X154499500Y-35088695D01*
X154534103Y-35262658D01*
X154534106Y-35262667D01*
X154601983Y-35426540D01*
X154601990Y-35426553D01*
X154700535Y-35574034D01*
X154700538Y-35574038D01*
X154825961Y-35699461D01*
X154825965Y-35699464D01*
X154973446Y-35798009D01*
X154973459Y-35798016D01*
X155061160Y-35834342D01*
X155137334Y-35865894D01*
X155137336Y-35865894D01*
X155137341Y-35865896D01*
X155311304Y-35900499D01*
X155311307Y-35900500D01*
X155311309Y-35900500D01*
X155488693Y-35900500D01*
X155488694Y-35900499D01*
X155546682Y-35888964D01*
X155662658Y-35865896D01*
X155662661Y-35865894D01*
X155662666Y-35865894D01*
X155826547Y-35798013D01*
X155974035Y-35699464D01*
X156099464Y-35574035D01*
X156198013Y-35426547D01*
X156236206Y-35334339D01*
X173551700Y-35334339D01*
X173551700Y-35537059D01*
X173583413Y-35737283D01*
X173646057Y-35930081D01*
X173675168Y-35987215D01*
X173738092Y-36110708D01*
X173857239Y-36274703D01*
X174000595Y-36418059D01*
X174154056Y-36529553D01*
X174164594Y-36537209D01*
X174345218Y-36629242D01*
X174538016Y-36691886D01*
X174738240Y-36723599D01*
X174738241Y-36723599D01*
X174940959Y-36723599D01*
X174940960Y-36723599D01*
X175141184Y-36691886D01*
X175333982Y-36629242D01*
X175514606Y-36537209D01*
X175606685Y-36470309D01*
X175678604Y-36418059D01*
X175678606Y-36418056D01*
X175678610Y-36418054D01*
X175821955Y-36274709D01*
X175821957Y-36274705D01*
X175821960Y-36274703D01*
X175874210Y-36202784D01*
X175941110Y-36110705D01*
X176033143Y-35930081D01*
X176095787Y-35737283D01*
X176127500Y-35537059D01*
X176127500Y-35334339D01*
X176551699Y-35334339D01*
X176551699Y-35537059D01*
X176583412Y-35737283D01*
X176646056Y-35930081D01*
X176675167Y-35987215D01*
X176738091Y-36110708D01*
X176857238Y-36274703D01*
X177000594Y-36418059D01*
X177154055Y-36529553D01*
X177164593Y-36537209D01*
X177345217Y-36629242D01*
X177538015Y-36691886D01*
X177738239Y-36723599D01*
X177738240Y-36723599D01*
X177940958Y-36723599D01*
X177940959Y-36723599D01*
X178141183Y-36691886D01*
X178333981Y-36629242D01*
X178514605Y-36537209D01*
X178606684Y-36470309D01*
X178678603Y-36418059D01*
X178678605Y-36418056D01*
X178678609Y-36418054D01*
X178821954Y-36274709D01*
X178821956Y-36274705D01*
X178821959Y-36274703D01*
X178874209Y-36202784D01*
X178941109Y-36110705D01*
X179033142Y-35930081D01*
X179095786Y-35737283D01*
X179127499Y-35537059D01*
X179127499Y-35334339D01*
X179095786Y-35134115D01*
X179033142Y-34941317D01*
X178941109Y-34760693D01*
X178924136Y-34737332D01*
X178821959Y-34596694D01*
X178678603Y-34453338D01*
X178514608Y-34334191D01*
X178514607Y-34334190D01*
X178514605Y-34334189D01*
X178333981Y-34242156D01*
X178141183Y-34179512D01*
X178141181Y-34179511D01*
X178141179Y-34179511D01*
X178001381Y-34157369D01*
X177940959Y-34147799D01*
X177738239Y-34147799D01*
X177691823Y-34155150D01*
X177538018Y-34179511D01*
X177345214Y-34242157D01*
X177164589Y-34334191D01*
X177000594Y-34453338D01*
X176857238Y-34596694D01*
X176738091Y-34760689D01*
X176646057Y-34941314D01*
X176646056Y-34941316D01*
X176646056Y-34941317D01*
X176637230Y-34968481D01*
X176583411Y-35134118D01*
X176563051Y-35262666D01*
X176551699Y-35334339D01*
X176127500Y-35334339D01*
X176095787Y-35134115D01*
X176033143Y-34941317D01*
X175941110Y-34760693D01*
X175924137Y-34737332D01*
X175821960Y-34596694D01*
X175678604Y-34453338D01*
X175514609Y-34334191D01*
X175514608Y-34334190D01*
X175514606Y-34334189D01*
X175333982Y-34242156D01*
X175141184Y-34179512D01*
X175141182Y-34179511D01*
X175141180Y-34179511D01*
X175001382Y-34157369D01*
X174940960Y-34147799D01*
X174738240Y-34147799D01*
X174691824Y-34155150D01*
X174538019Y-34179511D01*
X174345215Y-34242157D01*
X174164590Y-34334191D01*
X174000595Y-34453338D01*
X173857239Y-34596694D01*
X173738092Y-34760689D01*
X173646058Y-34941314D01*
X173646057Y-34941316D01*
X173646057Y-34941317D01*
X173637231Y-34968481D01*
X173583412Y-35134118D01*
X173563052Y-35262666D01*
X173551700Y-35334339D01*
X156236206Y-35334339D01*
X156265894Y-35262666D01*
X156274549Y-35219158D01*
X156300499Y-35088695D01*
X156300500Y-35088693D01*
X156300500Y-34911306D01*
X156300499Y-34911304D01*
X156265896Y-34737341D01*
X156265893Y-34737332D01*
X156198016Y-34573459D01*
X156198009Y-34573446D01*
X156099464Y-34425965D01*
X156099461Y-34425961D01*
X155974038Y-34300538D01*
X155974034Y-34300535D01*
X155826553Y-34201990D01*
X155826540Y-34201983D01*
X155662667Y-34134106D01*
X155662658Y-34134103D01*
X155488694Y-34099500D01*
X155488691Y-34099500D01*
X155311309Y-34099500D01*
X155311306Y-34099500D01*
X155137341Y-34134103D01*
X155137332Y-34134106D01*
X154973459Y-34201983D01*
X154973446Y-34201990D01*
X154825965Y-34300535D01*
X154825961Y-34300538D01*
X154700538Y-34425961D01*
X154700535Y-34425965D01*
X154601990Y-34573446D01*
X154601983Y-34573459D01*
X154534106Y-34737332D01*
X154534103Y-34737341D01*
X154499500Y-34911304D01*
X115192384Y-34911304D01*
X115334347Y-34698842D01*
X115487215Y-34412847D01*
X115611314Y-34113246D01*
X115705449Y-33802923D01*
X115705451Y-33802913D01*
X115705454Y-33802902D01*
X115739996Y-33629241D01*
X115768714Y-33484868D01*
X115768715Y-33484857D01*
X115772470Y-33446739D01*
X115772470Y-33446738D01*
X115800500Y-33162139D01*
X115800500Y-32837860D01*
X115794062Y-32772498D01*
X115768714Y-32515132D01*
X115732760Y-32334379D01*
X173552200Y-32334379D01*
X173552200Y-32537020D01*
X173583899Y-32737163D01*
X173646521Y-32929892D01*
X173738516Y-33110444D01*
X173769145Y-33152599D01*
X173769146Y-33152600D01*
X174329365Y-32592380D01*
X174342550Y-32641585D01*
X174412774Y-32763215D01*
X174512085Y-32862526D01*
X174633715Y-32932750D01*
X174682919Y-32945934D01*
X174122699Y-33506153D01*
X174122699Y-33506154D01*
X174164854Y-33536782D01*
X174345407Y-33628778D01*
X174538136Y-33691400D01*
X174538135Y-33691400D01*
X174738280Y-33723100D01*
X174940920Y-33723100D01*
X175141063Y-33691400D01*
X175333792Y-33628778D01*
X175514347Y-33536781D01*
X175514351Y-33536779D01*
X175556499Y-33506154D01*
X175556500Y-33506154D01*
X174996280Y-32945934D01*
X175045485Y-32932750D01*
X175167115Y-32862526D01*
X175266426Y-32763215D01*
X175336650Y-32641585D01*
X175349834Y-32592380D01*
X175910053Y-33152600D01*
X175910054Y-33152599D01*
X175940679Y-33110451D01*
X175940681Y-33110447D01*
X176032678Y-32929892D01*
X176095300Y-32737163D01*
X176127000Y-32537020D01*
X176127000Y-32334379D01*
X176126994Y-32334340D01*
X176551699Y-32334340D01*
X176551699Y-32537059D01*
X176583411Y-32737280D01*
X176583411Y-32737282D01*
X176583412Y-32737284D01*
X176646056Y-32930082D01*
X176737959Y-33110451D01*
X176738091Y-33110709D01*
X176857238Y-33274704D01*
X177000594Y-33418060D01*
X177154055Y-33529554D01*
X177164593Y-33537210D01*
X177345217Y-33629243D01*
X177538015Y-33691887D01*
X177738239Y-33723600D01*
X177738240Y-33723600D01*
X177940958Y-33723600D01*
X177940959Y-33723600D01*
X178141183Y-33691887D01*
X178333981Y-33629243D01*
X178514605Y-33537210D01*
X178639130Y-33446738D01*
X178678603Y-33418060D01*
X178678605Y-33418057D01*
X178678609Y-33418055D01*
X178821954Y-33274710D01*
X178821956Y-33274706D01*
X178821959Y-33274704D01*
X178910672Y-33152599D01*
X178941109Y-33110706D01*
X179033142Y-32930082D01*
X179063107Y-32837860D01*
X235699500Y-32837860D01*
X235699500Y-33162139D01*
X235731284Y-33484857D01*
X235731287Y-33484874D01*
X235794545Y-33802902D01*
X235794548Y-33802913D01*
X235888686Y-34113247D01*
X236012786Y-34412849D01*
X236012788Y-34412854D01*
X236165646Y-34698830D01*
X236165657Y-34698848D01*
X236345811Y-34968467D01*
X236345821Y-34968481D01*
X236551546Y-35219158D01*
X236780841Y-35448453D01*
X236780846Y-35448457D01*
X236780847Y-35448458D01*
X237031524Y-35654183D01*
X237301158Y-35834347D01*
X237301167Y-35834352D01*
X237301169Y-35834353D01*
X237587145Y-35987211D01*
X237587147Y-35987211D01*
X237587153Y-35987215D01*
X237886754Y-36111314D01*
X238197077Y-36205449D01*
X238197083Y-36205450D01*
X238197086Y-36205451D01*
X238197097Y-36205454D01*
X238396528Y-36245122D01*
X238515132Y-36268714D01*
X238837857Y-36300500D01*
X238837860Y-36300500D01*
X239162140Y-36300500D01*
X239162143Y-36300500D01*
X239484868Y-36268714D01*
X239642295Y-36237399D01*
X239802902Y-36205454D01*
X239802913Y-36205451D01*
X239802913Y-36205450D01*
X239802923Y-36205449D01*
X240113246Y-36111314D01*
X240412847Y-35987215D01*
X240698842Y-35834347D01*
X240968476Y-35654183D01*
X241219153Y-35448458D01*
X241448458Y-35219153D01*
X241654183Y-34968476D01*
X241834347Y-34698842D01*
X241987215Y-34412847D01*
X242111314Y-34113246D01*
X242205449Y-33802923D01*
X242205451Y-33802913D01*
X242205454Y-33802902D01*
X242239996Y-33629241D01*
X242268714Y-33484868D01*
X242300500Y-33162143D01*
X242300500Y-32837857D01*
X242268714Y-32515132D01*
X242232760Y-32334379D01*
X242205454Y-32197097D01*
X242205451Y-32197086D01*
X242205450Y-32197083D01*
X242205449Y-32197077D01*
X242111314Y-31886754D01*
X241987215Y-31587153D01*
X241925108Y-31470960D01*
X241834353Y-31301169D01*
X241834352Y-31301167D01*
X241834347Y-31301158D01*
X241654183Y-31031524D01*
X241448458Y-30780847D01*
X241448457Y-30780846D01*
X241448453Y-30780841D01*
X241219158Y-30551546D01*
X240968481Y-30345821D01*
X240968480Y-30345820D01*
X240968476Y-30345817D01*
X240698842Y-30165653D01*
X240698837Y-30165650D01*
X240698830Y-30165646D01*
X240412854Y-30012788D01*
X240412849Y-30012786D01*
X240113247Y-29888686D01*
X239802913Y-29794548D01*
X239802902Y-29794545D01*
X239484874Y-29731287D01*
X239484857Y-29731284D01*
X239240812Y-29707248D01*
X239162143Y-29699500D01*
X238837857Y-29699500D01*
X238765099Y-29706666D01*
X238515142Y-29731284D01*
X238515125Y-29731287D01*
X238197097Y-29794545D01*
X238197086Y-29794548D01*
X237886752Y-29888686D01*
X237587150Y-30012786D01*
X237587145Y-30012788D01*
X237301169Y-30165646D01*
X237301151Y-30165657D01*
X237031532Y-30345811D01*
X237031518Y-30345821D01*
X236780841Y-30551546D01*
X236551546Y-30780841D01*
X236345821Y-31031518D01*
X236345811Y-31031532D01*
X236165657Y-31301151D01*
X236165646Y-31301169D01*
X236012788Y-31587145D01*
X236012786Y-31587150D01*
X235888686Y-31886752D01*
X235794548Y-32197086D01*
X235794545Y-32197097D01*
X235731287Y-32515125D01*
X235731284Y-32515142D01*
X235699500Y-32837860D01*
X179063107Y-32837860D01*
X179095786Y-32737284D01*
X179127499Y-32537060D01*
X179127499Y-32334340D01*
X179095786Y-32134116D01*
X179033142Y-31941318D01*
X178941109Y-31760694D01*
X178910670Y-31718798D01*
X178821959Y-31596695D01*
X178678603Y-31453339D01*
X178514608Y-31334192D01*
X178514607Y-31334191D01*
X178514605Y-31334190D01*
X178333981Y-31242157D01*
X178141183Y-31179513D01*
X178141181Y-31179512D01*
X178141179Y-31179512D01*
X178001381Y-31157370D01*
X177940959Y-31147800D01*
X177738239Y-31147800D01*
X177691823Y-31155151D01*
X177538018Y-31179512D01*
X177345214Y-31242158D01*
X177164589Y-31334192D01*
X177000594Y-31453339D01*
X176857238Y-31596695D01*
X176738091Y-31760690D01*
X176646057Y-31941315D01*
X176583411Y-32134119D01*
X176551699Y-32334340D01*
X176126994Y-32334340D01*
X176095300Y-32134236D01*
X176032678Y-31941507D01*
X175940682Y-31760954D01*
X175910053Y-31718799D01*
X175349833Y-32279018D01*
X175336650Y-32229815D01*
X175266426Y-32108185D01*
X175167115Y-32008874D01*
X175045485Y-31938650D01*
X174996280Y-31925465D01*
X175556500Y-31365246D01*
X175556499Y-31365245D01*
X175514344Y-31334616D01*
X175333792Y-31242621D01*
X175141063Y-31179999D01*
X175141064Y-31179999D01*
X174940920Y-31148300D01*
X174738280Y-31148300D01*
X174538136Y-31179999D01*
X174345407Y-31242621D01*
X174164850Y-31334619D01*
X174122699Y-31365244D01*
X174122698Y-31365245D01*
X174682919Y-31925465D01*
X174633715Y-31938650D01*
X174512085Y-32008874D01*
X174412774Y-32108185D01*
X174342550Y-32229815D01*
X174329366Y-32279019D01*
X173769145Y-31718798D01*
X173769144Y-31718799D01*
X173738519Y-31760950D01*
X173646521Y-31941507D01*
X173583899Y-32134236D01*
X173552200Y-32334379D01*
X115732760Y-32334379D01*
X115705454Y-32197097D01*
X115705451Y-32197086D01*
X115705450Y-32197083D01*
X115705449Y-32197077D01*
X115611314Y-31886754D01*
X115487215Y-31587153D01*
X115487211Y-31587145D01*
X115425109Y-31470960D01*
X115425108Y-31470959D01*
X115368602Y-31365245D01*
X115334347Y-31301158D01*
X115154183Y-31031524D01*
X114948458Y-30780847D01*
X114948457Y-30780846D01*
X114948453Y-30780841D01*
X114719158Y-30551546D01*
X114468481Y-30345821D01*
X114468480Y-30345820D01*
X114468476Y-30345817D01*
X114198842Y-30165653D01*
X114198837Y-30165650D01*
X114198830Y-30165646D01*
X113912854Y-30012788D01*
X113912849Y-30012786D01*
X113613247Y-29888686D01*
X113302913Y-29794548D01*
X113302902Y-29794545D01*
X112984874Y-29731287D01*
X112984857Y-29731284D01*
X112740812Y-29707248D01*
X112662143Y-29699500D01*
X112337857Y-29699500D01*
X112265099Y-29706666D01*
X112015142Y-29731284D01*
X112015125Y-29731287D01*
X111697097Y-29794545D01*
X111697086Y-29794548D01*
X111386752Y-29888686D01*
X111087150Y-30012786D01*
X111087145Y-30012788D01*
X110801169Y-30165646D01*
X110801151Y-30165657D01*
X110531532Y-30345811D01*
X110531518Y-30345821D01*
X110280841Y-30551546D01*
X110051546Y-30780841D01*
X109845821Y-31031518D01*
X109845811Y-31031532D01*
X109665657Y-31301151D01*
X109665646Y-31301169D01*
X109512788Y-31587145D01*
X109512786Y-31587150D01*
X109388686Y-31886752D01*
X109294548Y-32197086D01*
X109294545Y-32197097D01*
X109231287Y-32515125D01*
X109231284Y-32515142D01*
X109199500Y-32837860D01*
X108507579Y-32837860D01*
X108517386Y-32613226D01*
X108518326Y-32602495D01*
X108568152Y-32224025D01*
X108570025Y-32213405D01*
X108652649Y-31840709D01*
X108655440Y-31830295D01*
X108770230Y-31466227D01*
X108773917Y-31456095D01*
X108920003Y-31103412D01*
X108924561Y-31093638D01*
X109100822Y-30755045D01*
X109106217Y-30745700D01*
X109311325Y-30423744D01*
X109317515Y-30414905D01*
X109549896Y-30112060D01*
X109556834Y-30103791D01*
X109814726Y-29822352D01*
X109822352Y-29814726D01*
X110103791Y-29556834D01*
X110112060Y-29549896D01*
X110414905Y-29317515D01*
X110423744Y-29311325D01*
X110745700Y-29106217D01*
X110755045Y-29100822D01*
X111093638Y-28924561D01*
X111103412Y-28920003D01*
X111456095Y-28773917D01*
X111466227Y-28770230D01*
X111830295Y-28655440D01*
X111840709Y-28652649D01*
X112213405Y-28570025D01*
X112224025Y-28568152D01*
X112602495Y-28518326D01*
X112613226Y-28517386D01*
X112997297Y-28500617D01*
X113002706Y-28500500D01*
X113065892Y-28500500D01*
X237934108Y-28500500D01*
X237997439Y-28500500D01*
X238002562Y-28500605D01*
G37*
%TD.AperFunction*%
%TD*%
M02*
