%TF.GenerationSoftware,KiCad,Pcbnew,9.0.4*%
%TF.CreationDate,2026-02-06T12:59:01-06:00*%
%TF.ProjectId,RickNAS_4PortSATA,5269636b-4e41-4535-9f34-506f72745341,rev?*%
%TF.SameCoordinates,Original*%
%TF.FileFunction,Soldermask,Top*%
%TF.FilePolarity,Negative*%
%FSLAX46Y46*%
G04 Gerber Fmt 4.6, Leading zero omitted, Abs format (unit mm)*
G04 Created by KiCad (PCBNEW 9.0.4) date 2026-02-06 12:59:01*
%MOMM*%
%LPD*%
G01*
G04 APERTURE LIST*
G04 Aperture macros list*
%AMRoundRect*
0 Rectangle with rounded corners*
0 $1 Rounding radius*
0 $2 $3 $4 $5 $6 $7 $8 $9 X,Y pos of 4 corners*
0 Add a 4 corners polygon primitive as box body*
4,1,4,$2,$3,$4,$5,$6,$7,$8,$9,$2,$3,0*
0 Add four circle primitives for the rounded corners*
1,1,$1+$1,$2,$3*
1,1,$1+$1,$4,$5*
1,1,$1+$1,$6,$7*
1,1,$1+$1,$8,$9*
0 Add four rect primitives between the rounded corners*
20,1,$1+$1,$2,$3,$4,$5,0*
20,1,$1+$1,$4,$5,$6,$7,0*
20,1,$1+$1,$6,$7,$8,$9,0*
20,1,$1+$1,$8,$9,$2,$3,0*%
%AMFreePoly0*
4,1,6,1.000000,0.000000,0.500000,-0.750000,-0.500000,-0.750000,-0.500000,0.750000,0.500000,0.750000,1.000000,0.000000,1.000000,0.000000,$1*%
%AMFreePoly1*
4,1,6,0.500000,-0.750000,-0.650000,-0.750000,-0.150000,0.000000,-0.650000,0.750000,0.500000,0.750000,0.500000,-0.750000,0.500000,-0.750000,$1*%
G04 Aperture macros list end*
%ADD10R,1.700000X1.700000*%
%ADD11C,1.700000*%
%ADD12R,0.850000X0.850000*%
%ADD13C,0.850000*%
%ADD14RoundRect,0.375000X0.375000X-0.625000X0.375000X0.625000X-0.375000X0.625000X-0.375000X-0.625000X0*%
%ADD15RoundRect,0.500000X1.400000X-0.500000X1.400000X0.500000X-1.400000X0.500000X-1.400000X-0.500000X0*%
%ADD16RoundRect,0.250000X-0.250000X-0.475000X0.250000X-0.475000X0.250000X0.475000X-0.250000X0.475000X0*%
%ADD17R,1.727200X0.508000*%
%ADD18R,2.362200X0.609600*%
%ADD19RoundRect,0.100000X0.100000X-0.637500X0.100000X0.637500X-0.100000X0.637500X-0.100000X-0.637500X0*%
%ADD20FreePoly0,180.000000*%
%ADD21FreePoly1,180.000000*%
%ADD22RoundRect,0.243750X-0.243750X-0.456250X0.243750X-0.456250X0.243750X0.456250X-0.243750X0.456250X0*%
%ADD23RoundRect,0.250000X-0.750000X-0.750000X0.750000X-0.750000X0.750000X0.750000X-0.750000X0.750000X0*%
%ADD24C,2.000000*%
%ADD25C,5.600000*%
%ADD26C,1.574800*%
%ADD27C,2.971800*%
%ADD28R,0.400000X0.900000*%
%ADD29C,2.250000*%
%ADD30R,0.800000X0.800000*%
%ADD31C,0.800000*%
G04 APERTURE END LIST*
%TO.C,JP4*%
G36*
X222225000Y-69750000D02*
G01*
X219775000Y-69750000D01*
X219775000Y-68250000D01*
X222225000Y-68250000D01*
X222225000Y-69750000D01*
G37*
%TO.C,JP3*%
G36*
X191000000Y-69750000D02*
G01*
X188550000Y-69750000D01*
X188550000Y-68250000D01*
X191000000Y-68250000D01*
X191000000Y-69750000D01*
G37*
%TO.C,JP2*%
G36*
X160000000Y-69750000D02*
G01*
X157550000Y-69750000D01*
X157550000Y-68250000D01*
X160000000Y-68250000D01*
X160000000Y-69750000D01*
G37*
%TO.C,JP1*%
G36*
X129000000Y-69750000D02*
G01*
X126550000Y-69750000D01*
X126550000Y-68250000D01*
X129000000Y-68250000D01*
X129000000Y-69750000D01*
G37*
%TD*%
D10*
%TO.C,J3*%
X152300000Y-98620000D03*
D11*
X152300000Y-101160000D03*
X152300000Y-103700000D03*
%TD*%
D12*
%TO.C,J2*%
X166600000Y-106500000D03*
D13*
X166600000Y-105500000D03*
X166600000Y-104500000D03*
%TD*%
D14*
%TO.C,U2*%
X146200000Y-39800000D03*
X148500000Y-39800000D03*
D15*
X148500000Y-33500000D03*
D14*
X150800000Y-39800000D03*
%TD*%
D16*
%TO.C,C11*%
X153500000Y-39660000D03*
X155400000Y-39660000D03*
%TD*%
%TO.C,C10*%
X153500000Y-36650000D03*
X155400000Y-36650000D03*
%TD*%
D17*
%TO.C,J10*%
X212119499Y-69795000D03*
X212119499Y-70595000D03*
X212119499Y-71395000D03*
X212119499Y-72195000D03*
X212119499Y-72995000D03*
X212119499Y-73795000D03*
X212119499Y-74595000D03*
D18*
X212829499Y-75370000D03*
X212829499Y-76640000D03*
X212829499Y-77910000D03*
X212829499Y-79180000D03*
X212829499Y-80450000D03*
X212829499Y-81720000D03*
X212829499Y-82990000D03*
X212829499Y-51240000D03*
X212829499Y-52510000D03*
X212829499Y-53780000D03*
X212829499Y-55050000D03*
X212829499Y-56320000D03*
X212829499Y-57590000D03*
X212829499Y-58860000D03*
X212829499Y-60130000D03*
X212829499Y-61400000D03*
X212829499Y-62670000D03*
X212829499Y-63940000D03*
X212829499Y-65210000D03*
X212829499Y-66480000D03*
X212829499Y-67750000D03*
X212829499Y-69020000D03*
%TD*%
D17*
%TO.C,J9*%
X180919499Y-69795000D03*
X180919499Y-70595000D03*
X180919499Y-71395000D03*
X180919499Y-72195000D03*
X180919499Y-72995000D03*
X180919499Y-73795000D03*
X180919499Y-74595000D03*
D18*
X181629499Y-75370000D03*
X181629499Y-76640000D03*
X181629499Y-77910000D03*
X181629499Y-79180000D03*
X181629499Y-80450000D03*
X181629499Y-81720000D03*
X181629499Y-82990000D03*
X181629499Y-51240000D03*
X181629499Y-52510000D03*
X181629499Y-53780000D03*
X181629499Y-55050000D03*
X181629499Y-56320000D03*
X181629499Y-57590000D03*
X181629499Y-58860000D03*
X181629499Y-60130000D03*
X181629499Y-61400000D03*
X181629499Y-62670000D03*
X181629499Y-63940000D03*
X181629499Y-65210000D03*
X181629499Y-66480000D03*
X181629499Y-67750000D03*
X181629499Y-69020000D03*
%TD*%
D17*
%TO.C,J8*%
X149990000Y-69795000D03*
X149990000Y-70595000D03*
X149990000Y-71395000D03*
X149990000Y-72195000D03*
X149990000Y-72995000D03*
X149990000Y-73795000D03*
X149990000Y-74595000D03*
D18*
X150700000Y-75370000D03*
X150700000Y-76640000D03*
X150700000Y-77910000D03*
X150700000Y-79180000D03*
X150700000Y-80450000D03*
X150700000Y-81720000D03*
X150700000Y-82990000D03*
X150700000Y-51240000D03*
X150700000Y-52510000D03*
X150700000Y-53780000D03*
X150700000Y-55050000D03*
X150700000Y-56320000D03*
X150700000Y-57590000D03*
X150700000Y-58860000D03*
X150700000Y-60130000D03*
X150700000Y-61400000D03*
X150700000Y-62670000D03*
X150700000Y-63940000D03*
X150700000Y-65210000D03*
X150700000Y-66480000D03*
X150700000Y-67750000D03*
X150700000Y-69020000D03*
%TD*%
D17*
%TO.C,J7*%
X119119499Y-69795000D03*
X119119499Y-70595000D03*
X119119499Y-71395000D03*
X119119499Y-72195000D03*
X119119499Y-72995000D03*
X119119499Y-73795000D03*
X119119499Y-74595000D03*
D18*
X119829499Y-75370000D03*
X119829499Y-76640000D03*
X119829499Y-77910000D03*
X119829499Y-79180000D03*
X119829499Y-80450000D03*
X119829499Y-81720000D03*
X119829499Y-82990000D03*
X119829499Y-51240000D03*
X119829499Y-52510000D03*
X119829499Y-53780000D03*
X119829499Y-55050000D03*
X119829499Y-56320000D03*
X119829499Y-57590000D03*
X119829499Y-58860000D03*
X119829499Y-60130000D03*
X119829499Y-61400000D03*
X119829499Y-62670000D03*
X119829499Y-63940000D03*
X119829499Y-65210000D03*
X119829499Y-66480000D03*
X119829499Y-67750000D03*
X119829499Y-69020000D03*
%TD*%
D19*
%TO.C,U1*%
X158650000Y-111225000D03*
X159300000Y-111225000D03*
X159950000Y-111225000D03*
X160600000Y-111225000D03*
X161250000Y-111225000D03*
X161900000Y-111225000D03*
X162550000Y-111225000D03*
X163200000Y-111225000D03*
X163850000Y-111225000D03*
X164500000Y-111225000D03*
X164500000Y-105500000D03*
X163850000Y-105500000D03*
X163200000Y-105500000D03*
X162550000Y-105500000D03*
X161900000Y-105500000D03*
X161250000Y-105500000D03*
X160600000Y-105500000D03*
X159950000Y-105500000D03*
X159300000Y-105500000D03*
X158650000Y-105500000D03*
%TD*%
D20*
%TO.C,JP4*%
X221725000Y-69000000D03*
D21*
X220275000Y-69000000D03*
%TD*%
D20*
%TO.C,JP3*%
X190500000Y-69000000D03*
D21*
X189050000Y-69000000D03*
%TD*%
D20*
%TO.C,JP2*%
X159500000Y-69000000D03*
D21*
X158050000Y-69000000D03*
%TD*%
D16*
%TO.C,C9*%
X162050000Y-114500000D03*
X163950000Y-114500000D03*
%TD*%
D22*
%TO.C,D1*%
X144062500Y-108500000D03*
X145937500Y-108500000D03*
%TD*%
D23*
%TO.C,C8*%
X223332323Y-60000000D03*
D24*
X228332323Y-60000000D03*
%TD*%
D22*
%TO.C,D2*%
X175062500Y-108500000D03*
X176937500Y-108500000D03*
%TD*%
D23*
%TO.C,C2*%
X130214646Y-59950000D03*
D24*
X135214646Y-59950000D03*
%TD*%
D23*
%TO.C,C7*%
X223350000Y-48550000D03*
D24*
X228350000Y-48550000D03*
%TD*%
D25*
%TO.C,H3*%
X112500000Y-114500000D03*
%TD*%
D26*
%TO.C,J6*%
X177839599Y-35435699D03*
X174839600Y-35435699D03*
X177839599Y-32435700D03*
X174839600Y-32435700D03*
D27*
X172689599Y-39755701D03*
X179989600Y-39755701D03*
%TD*%
D25*
%TO.C,H1*%
X112500000Y-33000000D03*
%TD*%
D20*
%TO.C,JP1*%
X128500000Y-69000000D03*
D21*
X127050000Y-69000000D03*
%TD*%
D25*
%TO.C,H4*%
X239000000Y-114500000D03*
%TD*%
D23*
%TO.C,C4*%
X130232323Y-48500000D03*
D24*
X135232323Y-48500000D03*
%TD*%
D23*
%TO.C,C5*%
X191850000Y-48550000D03*
D24*
X196850000Y-48550000D03*
%TD*%
D23*
%TO.C,C6*%
X191832323Y-60000000D03*
D24*
X196832323Y-60000000D03*
%TD*%
D22*
%TO.C,D3*%
X205562500Y-108500000D03*
X207437500Y-108500000D03*
%TD*%
D23*
%TO.C,C3*%
X160850000Y-48550000D03*
D24*
X165850000Y-48550000D03*
%TD*%
D28*
%TO.C,RN1*%
X158100000Y-116000000D03*
X158900000Y-116000000D03*
X159700000Y-116000000D03*
X160500000Y-116000000D03*
X160500000Y-114300000D03*
X159700000Y-114300000D03*
X158900000Y-114300000D03*
X158100000Y-114300000D03*
%TD*%
D22*
%TO.C,D4*%
X236562500Y-108500000D03*
X238437500Y-108500000D03*
%TD*%
D25*
%TO.C,H2*%
X239000000Y-33000000D03*
%TD*%
D24*
%TO.C,C1*%
X165832323Y-60000000D03*
D23*
X160832323Y-60000000D03*
%TD*%
D29*
%TO.C,J1*%
X174500000Y-94000000D03*
X162500000Y-94000000D03*
X174500000Y-82000000D03*
X162500000Y-82000000D03*
D30*
X165500000Y-83300000D03*
D31*
X166250000Y-81900000D03*
X167000000Y-82600000D03*
X167750000Y-83300000D03*
X168500000Y-81900000D03*
X169250000Y-82600000D03*
X170000000Y-83300000D03*
X170750000Y-81900000D03*
X171500000Y-82600000D03*
D30*
X165500000Y-87100000D03*
D31*
X166250000Y-85700000D03*
X167000000Y-86400000D03*
X167750000Y-87100000D03*
X168500000Y-85700000D03*
X169250000Y-86400000D03*
X170000000Y-87100000D03*
X170750000Y-85700000D03*
X171500000Y-86400000D03*
D30*
X165500000Y-90900000D03*
D31*
X166250000Y-89500000D03*
X167000000Y-90200000D03*
X167750000Y-90900000D03*
X168500000Y-89500000D03*
X169250000Y-90200000D03*
X170000000Y-90900000D03*
X170750000Y-89500000D03*
X171500000Y-90200000D03*
D30*
X165500000Y-94700000D03*
D31*
X166250000Y-93300000D03*
X167000000Y-94000000D03*
X167750000Y-94700000D03*
X168500000Y-93300000D03*
X169250000Y-94000000D03*
X170000000Y-94700000D03*
X170750000Y-93300000D03*
X171500000Y-94000000D03*
%TD*%
M02*
