%TF.GenerationSoftware,KiCad,Pcbnew,9.0.4*%
%TF.CreationDate,2026-02-06T12:59:01-06:00*%
%TF.ProjectId,RickNAS_4PortSATA,5269636b-4e41-4535-9f34-506f72745341,rev?*%
%TF.SameCoordinates,Original*%
%TF.FileFunction,Soldermask,Bot*%
%TF.FilePolarity,Negative*%
%FSLAX46Y46*%
G04 Gerber Fmt 4.6, Leading zero omitted, Abs format (unit mm)*
G04 Created by KiCad (PCBNEW 9.0.4) date 2026-02-06 12:59:01*
%MOMM*%
%LPD*%
G01*
G04 APERTURE LIST*
G04 Aperture macros list*
%AMRoundRect*
0 Rectangle with rounded corners*
0 $1 Rounding radius*
0 $2 $3 $4 $5 $6 $7 $8 $9 X,Y pos of 4 corners*
0 Add a 4 corners polygon primitive as box body*
4,1,4,$2,$3,$4,$5,$6,$7,$8,$9,$2,$3,0*
0 Add four circle primitives for the rounded corners*
1,1,$1+$1,$2,$3*
1,1,$1+$1,$4,$5*
1,1,$1+$1,$6,$7*
1,1,$1+$1,$8,$9*
0 Add four rect primitives between the rounded corners*
20,1,$1+$1,$2,$3,$4,$5,0*
20,1,$1+$1,$4,$5,$6,$7,0*
20,1,$1+$1,$6,$7,$8,$9,0*
20,1,$1+$1,$8,$9,$2,$3,0*%
G04 Aperture macros list end*
%ADD10R,1.700000X1.700000*%
%ADD11C,1.700000*%
%ADD12R,0.850000X0.850000*%
%ADD13C,0.850000*%
%ADD14RoundRect,0.250000X-0.750000X-0.750000X0.750000X-0.750000X0.750000X0.750000X-0.750000X0.750000X0*%
%ADD15C,2.000000*%
%ADD16C,5.600000*%
%ADD17C,1.574800*%
%ADD18C,2.971800*%
%ADD19C,2.250000*%
%ADD20R,0.800000X0.800000*%
%ADD21C,0.800000*%
G04 APERTURE END LIST*
D10*
%TO.C,J3*%
X152300000Y-98620000D03*
D11*
X152300000Y-101160000D03*
X152300000Y-103700000D03*
%TD*%
D12*
%TO.C,J2*%
X166600000Y-106500000D03*
D13*
X166600000Y-105500000D03*
X166600000Y-104500000D03*
%TD*%
D14*
%TO.C,C8*%
X223332323Y-60000000D03*
D15*
X228332323Y-60000000D03*
%TD*%
D14*
%TO.C,C2*%
X130214646Y-59950000D03*
D15*
X135214646Y-59950000D03*
%TD*%
D14*
%TO.C,C7*%
X223350000Y-48550000D03*
D15*
X228350000Y-48550000D03*
%TD*%
D16*
%TO.C,H3*%
X112500000Y-114500000D03*
%TD*%
D17*
%TO.C,J6*%
X177839599Y-35435699D03*
X174839600Y-35435699D03*
X177839599Y-32435700D03*
X174839600Y-32435700D03*
D18*
X172689599Y-39755701D03*
X179989600Y-39755701D03*
%TD*%
D16*
%TO.C,H1*%
X112500000Y-33000000D03*
%TD*%
%TO.C,H4*%
X239000000Y-114500000D03*
%TD*%
D14*
%TO.C,C4*%
X130232323Y-48500000D03*
D15*
X135232323Y-48500000D03*
%TD*%
D14*
%TO.C,C5*%
X191850000Y-48550000D03*
D15*
X196850000Y-48550000D03*
%TD*%
D14*
%TO.C,C6*%
X191832323Y-60000000D03*
D15*
X196832323Y-60000000D03*
%TD*%
D14*
%TO.C,C3*%
X160850000Y-48550000D03*
D15*
X165850000Y-48550000D03*
%TD*%
D16*
%TO.C,H2*%
X239000000Y-33000000D03*
%TD*%
D15*
%TO.C,C1*%
X165832323Y-60000000D03*
D14*
X160832323Y-60000000D03*
%TD*%
D19*
%TO.C,J1*%
X174500000Y-94000000D03*
X162500000Y-94000000D03*
X174500000Y-82000000D03*
X162500000Y-82000000D03*
D20*
X165500000Y-83300000D03*
D21*
X166250000Y-81900000D03*
X167000000Y-82600000D03*
X167750000Y-83300000D03*
X168500000Y-81900000D03*
X169250000Y-82600000D03*
X170000000Y-83300000D03*
X170750000Y-81900000D03*
X171500000Y-82600000D03*
D20*
X165500000Y-87100000D03*
D21*
X166250000Y-85700000D03*
X167000000Y-86400000D03*
X167750000Y-87100000D03*
X168500000Y-85700000D03*
X169250000Y-86400000D03*
X170000000Y-87100000D03*
X170750000Y-85700000D03*
X171500000Y-86400000D03*
D20*
X165500000Y-90900000D03*
D21*
X166250000Y-89500000D03*
X167000000Y-90200000D03*
X167750000Y-90900000D03*
X168500000Y-89500000D03*
X169250000Y-90200000D03*
X170000000Y-90900000D03*
X170750000Y-89500000D03*
X171500000Y-90200000D03*
D20*
X165500000Y-94700000D03*
D21*
X166250000Y-93300000D03*
X167000000Y-94000000D03*
X167750000Y-94700000D03*
X168500000Y-93300000D03*
X169250000Y-94000000D03*
X170000000Y-94700000D03*
X170750000Y-93300000D03*
X171500000Y-94000000D03*
%TD*%
M02*
