%TF.GenerationSoftware,KiCad,Pcbnew,9.0.4*%
%TF.CreationDate,2026-02-06T12:59:01-06:00*%
%TF.ProjectId,RickNAS_4PortSATA,5269636b-4e41-4535-9f34-506f72745341,rev?*%
%TF.SameCoordinates,Original*%
%TF.FileFunction,Copper,L3,Inr*%
%TF.FilePolarity,Positive*%
%FSLAX46Y46*%
G04 Gerber Fmt 4.6, Leading zero omitted, Abs format (unit mm)*
G04 Created by KiCad (PCBNEW 9.0.4) date 2026-02-06 12:59:01*
%MOMM*%
%LPD*%
G01*
G04 APERTURE LIST*
%TA.AperFunction,ComponentPad*%
%ADD10R,1.700000X1.700000*%
%TD*%
%TA.AperFunction,ComponentPad*%
%ADD11C,1.700000*%
%TD*%
%TA.AperFunction,ComponentPad*%
%ADD12R,0.850000X0.850000*%
%TD*%
%TA.AperFunction,ComponentPad*%
%ADD13C,0.850000*%
%TD*%
%TA.AperFunction,ComponentPad*%
%ADD14C,5.600000*%
%TD*%
%TA.AperFunction,ComponentPad*%
%ADD15C,1.574800*%
%TD*%
%TA.AperFunction,ComponentPad*%
%ADD16C,2.971800*%
%TD*%
%TA.AperFunction,ViaPad*%
%ADD17C,0.800000*%
%TD*%
%TA.AperFunction,ViaPad*%
%ADD18C,1.000000*%
%TD*%
G04 APERTURE END LIST*
D10*
%TO.N,+3.3V*%
%TO.C,J3*%
X152300000Y-98620000D03*
D11*
%TO.N,SWO*%
X152300000Y-101160000D03*
%TO.N,VSS*%
X152300000Y-103700000D03*
%TD*%
D12*
%TO.N,Net-(J2-Pin_1)*%
%TO.C,J2*%
X166600000Y-106500000D03*
D13*
%TO.N,Net-(J2-Pin_2)*%
X166600000Y-105500000D03*
%TO.N,Net-(J2-Pin_3)*%
X166600000Y-104500000D03*
%TD*%
D14*
%TO.N,VSS*%
%TO.C,H3*%
X112500000Y-114500000D03*
%TD*%
D15*
%TO.N,VSS*%
%TO.C,J6*%
X177839599Y-35435699D03*
X174839600Y-35435699D03*
%TO.N,+5V*%
X177839599Y-32435700D03*
%TO.N,+12V*%
X174839600Y-32435700D03*
D16*
%TO.N,N/C*%
X172689599Y-39755701D03*
X179989600Y-39755701D03*
%TD*%
D14*
%TO.N,VSS*%
%TO.C,H1*%
X112500000Y-33000000D03*
%TD*%
%TO.N,VSS*%
%TO.C,H4*%
X239000000Y-114500000D03*
%TD*%
%TO.N,VSS*%
%TO.C,H2*%
X239000000Y-33000000D03*
%TD*%
D17*
%TO.N,VSS*%
X135200000Y-46500000D03*
X135200000Y-58000000D03*
X196800000Y-58000000D03*
X196900000Y-46600000D03*
X162550000Y-112800000D03*
X198600000Y-48500000D03*
X228300000Y-46600000D03*
X230200000Y-48500000D03*
X228300000Y-58200000D03*
X230100000Y-60000000D03*
X165800000Y-58200000D03*
X165900000Y-46700000D03*
X167800000Y-60100000D03*
X167800000Y-48600000D03*
X137300000Y-48500000D03*
X137100000Y-59900000D03*
X155400000Y-35000000D03*
X144100000Y-39900000D03*
X166700000Y-95300000D03*
X172400000Y-93600000D03*
X169600000Y-92800000D03*
X166600000Y-90900000D03*
X169600000Y-89000000D03*
X172500000Y-90400000D03*
X169200000Y-84900000D03*
X167300000Y-85600000D03*
X172600000Y-86800000D03*
X167300000Y-80600000D03*
X169000000Y-80600000D03*
X172500000Y-83000000D03*
X214920000Y-79220000D03*
X214920000Y-83020000D03*
X183600000Y-83000000D03*
X183600000Y-79200000D03*
X148800000Y-79300000D03*
X148719499Y-82995000D03*
X117919499Y-82995000D03*
X118000000Y-79300000D03*
X210187750Y-72205000D03*
X210187750Y-74600000D03*
X210192750Y-69800000D03*
X210687750Y-75405000D03*
X179587750Y-75405000D03*
X179087750Y-74600000D03*
X179087750Y-72205000D03*
X179092750Y-69800000D03*
X148787750Y-75405000D03*
X148287750Y-74600000D03*
X148287750Y-72205000D03*
X148292750Y-69800000D03*
X117995000Y-75405000D03*
X117495000Y-74600000D03*
X117495000Y-72205000D03*
X117500000Y-69800000D03*
X199400000Y-60000000D03*
X210450000Y-65250000D03*
X210450000Y-55100000D03*
X210450000Y-62750000D03*
X210450000Y-56300000D03*
X210450000Y-63950000D03*
X210450000Y-57600000D03*
X179250000Y-56300000D03*
X179250000Y-63950000D03*
X179250000Y-65250000D03*
X179250000Y-55100000D03*
X179250000Y-62750000D03*
X179250000Y-57600000D03*
X148250000Y-55100000D03*
X148250000Y-56300000D03*
X148250000Y-63950000D03*
X148250000Y-65250000D03*
X148250000Y-62750000D03*
X148250000Y-57600000D03*
X117600000Y-62750000D03*
X117600000Y-63950000D03*
X117600000Y-65250000D03*
X117600000Y-57600000D03*
X117600000Y-56300000D03*
X117600000Y-55100000D03*
%TO.N,Net-(J2-Pin_1)*%
X165300000Y-111300000D03*
D18*
%TO.N,+12V*%
X215100000Y-51200000D03*
X215100000Y-52500000D03*
X215100000Y-53800000D03*
X184100000Y-51200000D03*
X184100000Y-52500000D03*
X184100000Y-53800000D03*
X153200000Y-53800000D03*
X153200000Y-51200000D03*
X153200000Y-52500000D03*
X122200000Y-53800000D03*
X122200000Y-52500000D03*
X122200000Y-51200000D03*
D17*
%TO.N,+3.3V*%
X223500000Y-69000000D03*
X192000000Y-69000000D03*
X141000000Y-69000000D03*
X161000000Y-69000000D03*
%TO.N,SClock*%
X159000000Y-87500000D03*
X159000000Y-90000000D03*
X159000000Y-97500000D03*
%TO.N,SLoad*%
X161000000Y-87500000D03*
X161000000Y-90000000D03*
X160500000Y-97500000D03*
%TO.N,SDataOut*%
X163500000Y-98000000D03*
%TO.N,/RX0-*%
X122200000Y-77800000D03*
%TO.N,/RX0+*%
X122200000Y-76800000D03*
%TO.N,/TX3-*%
X210806580Y-80573144D03*
%TO.N,/TX3+*%
X210806580Y-81573144D03*
%TO.N,/RX3-*%
X210400000Y-77800000D03*
%TO.N,/RX3+*%
X210400000Y-76800000D03*
%TD*%
%TA.AperFunction,Conductor*%
%TO.N,VSS*%
G36*
X238002562Y-28500605D02*
G01*
X238449036Y-28519072D01*
X238459209Y-28519915D01*
X238900114Y-28574873D01*
X238910194Y-28576555D01*
X239345042Y-28667733D01*
X239354950Y-28670242D01*
X239780786Y-28797019D01*
X239790454Y-28800338D01*
X240102418Y-28922068D01*
X240204339Y-28961838D01*
X240213724Y-28965954D01*
X240612869Y-29161083D01*
X240621877Y-29165958D01*
X241003544Y-29393383D01*
X241012123Y-29398989D01*
X241373693Y-29657144D01*
X241381770Y-29663431D01*
X241560391Y-29814715D01*
X241720796Y-29950571D01*
X241728336Y-29957512D01*
X242042487Y-30271663D01*
X242049428Y-30279203D01*
X242336564Y-30618224D01*
X242342859Y-30626312D01*
X242601010Y-30987876D01*
X242606616Y-30996455D01*
X242834041Y-31378122D01*
X242838919Y-31387136D01*
X243034045Y-31786275D01*
X243038161Y-31795660D01*
X243199656Y-32209533D01*
X243202984Y-32219226D01*
X243329753Y-32645036D01*
X243332269Y-32654971D01*
X243423441Y-33089791D01*
X243425128Y-33099900D01*
X243480082Y-33540769D01*
X243480928Y-33550983D01*
X243499394Y-33997437D01*
X243499500Y-34002561D01*
X243499500Y-114997438D01*
X243499394Y-115002562D01*
X243480928Y-115449016D01*
X243480082Y-115459230D01*
X243425128Y-115900099D01*
X243423441Y-115910208D01*
X243332269Y-116345028D01*
X243329753Y-116354963D01*
X243202984Y-116780773D01*
X243199656Y-116790466D01*
X243038161Y-117204339D01*
X243034045Y-117213724D01*
X242838919Y-117612863D01*
X242834041Y-117621877D01*
X242606616Y-118003544D01*
X242601010Y-118012123D01*
X242342859Y-118373687D01*
X242336564Y-118381775D01*
X242049428Y-118720796D01*
X242042487Y-118728336D01*
X241728336Y-119042487D01*
X241720796Y-119049428D01*
X241381775Y-119336564D01*
X241373687Y-119342859D01*
X241012123Y-119601010D01*
X241003544Y-119606616D01*
X240621877Y-119834041D01*
X240612863Y-119838919D01*
X240213724Y-120034045D01*
X240204339Y-120038161D01*
X239790466Y-120199656D01*
X239780773Y-120202984D01*
X239354963Y-120329753D01*
X239345028Y-120332269D01*
X238910208Y-120423441D01*
X238900099Y-120425128D01*
X238459230Y-120480082D01*
X238449016Y-120480928D01*
X238002563Y-120499394D01*
X237997439Y-120499500D01*
X114002561Y-120499500D01*
X113997437Y-120499394D01*
X113550983Y-120480928D01*
X113540769Y-120480082D01*
X113099900Y-120425128D01*
X113089791Y-120423441D01*
X112654971Y-120332269D01*
X112645036Y-120329753D01*
X112219226Y-120202984D01*
X112209533Y-120199656D01*
X111795660Y-120038161D01*
X111786275Y-120034045D01*
X111387136Y-119838919D01*
X111378122Y-119834041D01*
X110996455Y-119606616D01*
X110987876Y-119601010D01*
X110626312Y-119342859D01*
X110618224Y-119336564D01*
X110279203Y-119049428D01*
X110271663Y-119042487D01*
X109957512Y-118728336D01*
X109950571Y-118720796D01*
X109663435Y-118381775D01*
X109657140Y-118373687D01*
X109398989Y-118012123D01*
X109393383Y-118003544D01*
X109165958Y-117621877D01*
X109161080Y-117612863D01*
X108965954Y-117213724D01*
X108961838Y-117204339D01*
X108933388Y-117131430D01*
X108800338Y-116790454D01*
X108797019Y-116780786D01*
X108670242Y-116354950D01*
X108667733Y-116345042D01*
X108576555Y-115910194D01*
X108574873Y-115900114D01*
X108519915Y-115459209D01*
X108519072Y-115449036D01*
X108500606Y-115002562D01*
X108500500Y-114997438D01*
X108500500Y-111211304D01*
X164399500Y-111211304D01*
X164399500Y-111388695D01*
X164434103Y-111562658D01*
X164434106Y-111562667D01*
X164501983Y-111726540D01*
X164501990Y-111726553D01*
X164600535Y-111874034D01*
X164600538Y-111874038D01*
X164725961Y-111999461D01*
X164725965Y-111999464D01*
X164873446Y-112098009D01*
X164873459Y-112098016D01*
X164996363Y-112148923D01*
X165037334Y-112165894D01*
X165037336Y-112165894D01*
X165037341Y-112165896D01*
X165211304Y-112200499D01*
X165211307Y-112200500D01*
X165211309Y-112200500D01*
X165388693Y-112200500D01*
X165388694Y-112200499D01*
X165446682Y-112188964D01*
X165562658Y-112165896D01*
X165562661Y-112165894D01*
X165562666Y-112165894D01*
X165726547Y-112098013D01*
X165874035Y-111999464D01*
X165999464Y-111874035D01*
X166098013Y-111726547D01*
X166165894Y-111562666D01*
X166200500Y-111388691D01*
X166200500Y-111211309D01*
X166200500Y-111211306D01*
X166200499Y-111211304D01*
X166165896Y-111037341D01*
X166165893Y-111037332D01*
X166098016Y-110873459D01*
X166098009Y-110873446D01*
X165999464Y-110725965D01*
X165999461Y-110725961D01*
X165874038Y-110600538D01*
X165874034Y-110600535D01*
X165726553Y-110501990D01*
X165726540Y-110501983D01*
X165562667Y-110434106D01*
X165562658Y-110434103D01*
X165388694Y-110399500D01*
X165388691Y-110399500D01*
X165211309Y-110399500D01*
X165211306Y-110399500D01*
X165037341Y-110434103D01*
X165037332Y-110434106D01*
X164873459Y-110501983D01*
X164873446Y-110501990D01*
X164725965Y-110600535D01*
X164725961Y-110600538D01*
X164600538Y-110725961D01*
X164600535Y-110725965D01*
X164501990Y-110873446D01*
X164501983Y-110873459D01*
X164434106Y-111037332D01*
X164434103Y-111037341D01*
X164399500Y-111211304D01*
X108500500Y-111211304D01*
X108500500Y-97722135D01*
X150949500Y-97722135D01*
X150949500Y-99517870D01*
X150949501Y-99517876D01*
X150955908Y-99577483D01*
X151006202Y-99712328D01*
X151006206Y-99712335D01*
X151092452Y-99827544D01*
X151092455Y-99827547D01*
X151207664Y-99913793D01*
X151207671Y-99913797D01*
X151339082Y-99962810D01*
X151395016Y-100004681D01*
X151419433Y-100070145D01*
X151404582Y-100138418D01*
X151383431Y-100166673D01*
X151269889Y-100280215D01*
X151144951Y-100452179D01*
X151048444Y-100641585D01*
X150982753Y-100843760D01*
X150949500Y-101053713D01*
X150949500Y-101266286D01*
X150982753Y-101476239D01*
X151048444Y-101678414D01*
X151144951Y-101867820D01*
X151269890Y-102039786D01*
X151420213Y-102190109D01*
X151592179Y-102315048D01*
X151592181Y-102315049D01*
X151592184Y-102315051D01*
X151601493Y-102319794D01*
X151652290Y-102367766D01*
X151669087Y-102435587D01*
X151646552Y-102501722D01*
X151601505Y-102540760D01*
X151592446Y-102545376D01*
X151592440Y-102545380D01*
X151538282Y-102584727D01*
X151538282Y-102584728D01*
X152170591Y-103217037D01*
X152107007Y-103234075D01*
X151992993Y-103299901D01*
X151899901Y-103392993D01*
X151834075Y-103507007D01*
X151817037Y-103570591D01*
X151184728Y-102938282D01*
X151184727Y-102938282D01*
X151145380Y-102992439D01*
X151048904Y-103181782D01*
X150983242Y-103383869D01*
X150983242Y-103383872D01*
X150950000Y-103593753D01*
X150950000Y-103806246D01*
X150983242Y-104016127D01*
X150983242Y-104016130D01*
X151048904Y-104218217D01*
X151145375Y-104407550D01*
X151184728Y-104461716D01*
X151817037Y-103829408D01*
X151834075Y-103892993D01*
X151899901Y-104007007D01*
X151992993Y-104100099D01*
X152107007Y-104165925D01*
X152170590Y-104182962D01*
X151538282Y-104815269D01*
X151538282Y-104815270D01*
X151592449Y-104854624D01*
X151781782Y-104951095D01*
X151983870Y-105016757D01*
X152193754Y-105050000D01*
X152406246Y-105050000D01*
X152616127Y-105016757D01*
X152616130Y-105016757D01*
X152818217Y-104951095D01*
X153007554Y-104854622D01*
X153061716Y-104815270D01*
X153061717Y-104815270D01*
X152837603Y-104591156D01*
X165674499Y-104591156D01*
X165710065Y-104769952D01*
X165710067Y-104769958D01*
X165779835Y-104938394D01*
X165781525Y-104941556D01*
X165781908Y-104943399D01*
X165782164Y-104944016D01*
X165782047Y-104944064D01*
X165795761Y-105009960D01*
X165781525Y-105058444D01*
X165779835Y-105061605D01*
X165710067Y-105230041D01*
X165710065Y-105230047D01*
X165674500Y-105408843D01*
X165674500Y-105408846D01*
X165674500Y-105591154D01*
X165674500Y-105591156D01*
X165674499Y-105591156D01*
X165710065Y-105769952D01*
X165710068Y-105769962D01*
X165714826Y-105781448D01*
X165722295Y-105850917D01*
X165716447Y-105872233D01*
X165680908Y-105967517D01*
X165674501Y-106027116D01*
X165674501Y-106027123D01*
X165674500Y-106027135D01*
X165674500Y-106972870D01*
X165674501Y-106972876D01*
X165680908Y-107032483D01*
X165731202Y-107167328D01*
X165731206Y-107167335D01*
X165817452Y-107282544D01*
X165817455Y-107282547D01*
X165932664Y-107368793D01*
X165932671Y-107368797D01*
X166067517Y-107419091D01*
X166067516Y-107419091D01*
X166074444Y-107419835D01*
X166127127Y-107425500D01*
X167072872Y-107425499D01*
X167132483Y-107419091D01*
X167267331Y-107368796D01*
X167382546Y-107282546D01*
X167468796Y-107167331D01*
X167519091Y-107032483D01*
X167525500Y-106972873D01*
X167525499Y-106027128D01*
X167519091Y-105967517D01*
X167483551Y-105872231D01*
X167478568Y-105802542D01*
X167485173Y-105781447D01*
X167489933Y-105769958D01*
X167525500Y-105591154D01*
X167525500Y-105408846D01*
X167525500Y-105408843D01*
X167489934Y-105230047D01*
X167489933Y-105230046D01*
X167489933Y-105230042D01*
X167420167Y-105061611D01*
X167420166Y-105061609D01*
X167418482Y-105058459D01*
X167418097Y-105056613D01*
X167417836Y-105055982D01*
X167417955Y-105055932D01*
X167404236Y-104990057D01*
X167418482Y-104941541D01*
X167420163Y-104938394D01*
X167420167Y-104938389D01*
X167489933Y-104769958D01*
X167525500Y-104591154D01*
X167525500Y-104408846D01*
X167525500Y-104408843D01*
X167489934Y-104230047D01*
X167489933Y-104230046D01*
X167489933Y-104230042D01*
X167463375Y-104165925D01*
X167420168Y-104061612D01*
X167420166Y-104061608D01*
X167318886Y-103910032D01*
X167318880Y-103910024D01*
X167189975Y-103781119D01*
X167189967Y-103781113D01*
X167038391Y-103679833D01*
X167038387Y-103679831D01*
X166869962Y-103610068D01*
X166869952Y-103610065D01*
X166691156Y-103574500D01*
X166691154Y-103574500D01*
X166508846Y-103574500D01*
X166508844Y-103574500D01*
X166330047Y-103610065D01*
X166330037Y-103610068D01*
X166161612Y-103679831D01*
X166161608Y-103679833D01*
X166010032Y-103781113D01*
X166010024Y-103781119D01*
X165881119Y-103910024D01*
X165881113Y-103910032D01*
X165779833Y-104061608D01*
X165779831Y-104061612D01*
X165710068Y-104230037D01*
X165710065Y-104230047D01*
X165674500Y-104408843D01*
X165674500Y-104408846D01*
X165674500Y-104591154D01*
X165674500Y-104591156D01*
X165674499Y-104591156D01*
X152837603Y-104591156D01*
X152429408Y-104182962D01*
X152492993Y-104165925D01*
X152607007Y-104100099D01*
X152700099Y-104007007D01*
X152765925Y-103892993D01*
X152782962Y-103829409D01*
X153415270Y-104461717D01*
X153415270Y-104461716D01*
X153454624Y-104407551D01*
X153485754Y-104346458D01*
X153551095Y-104218217D01*
X153616757Y-104016130D01*
X153616757Y-104016127D01*
X153650000Y-103806246D01*
X153650000Y-103593753D01*
X153616757Y-103383872D01*
X153616757Y-103383869D01*
X153551095Y-103181782D01*
X153454624Y-102992449D01*
X153415270Y-102938282D01*
X153415269Y-102938282D01*
X152782962Y-103570590D01*
X152765925Y-103507007D01*
X152700099Y-103392993D01*
X152607007Y-103299901D01*
X152492993Y-103234075D01*
X152429409Y-103217037D01*
X153061716Y-102584728D01*
X153007547Y-102545373D01*
X153007547Y-102545372D01*
X152998500Y-102540763D01*
X152947706Y-102492788D01*
X152930912Y-102424966D01*
X152953451Y-102358832D01*
X152998508Y-102319793D01*
X153007816Y-102315051D01*
X153087007Y-102257515D01*
X153179786Y-102190109D01*
X153179788Y-102190106D01*
X153179792Y-102190104D01*
X153330104Y-102039792D01*
X153330106Y-102039788D01*
X153330109Y-102039786D01*
X153455048Y-101867820D01*
X153455047Y-101867820D01*
X153455051Y-101867816D01*
X153551557Y-101678412D01*
X153617246Y-101476243D01*
X153650500Y-101266287D01*
X153650500Y-101053713D01*
X153617246Y-100843757D01*
X153551557Y-100641588D01*
X153455051Y-100452184D01*
X153455049Y-100452181D01*
X153455048Y-100452179D01*
X153330109Y-100280213D01*
X153216569Y-100166673D01*
X153183084Y-100105350D01*
X153188068Y-100035658D01*
X153229940Y-99979725D01*
X153260915Y-99962810D01*
X153392331Y-99913796D01*
X153507546Y-99827546D01*
X153593796Y-99712331D01*
X153644091Y-99577483D01*
X153650500Y-99517873D01*
X153650499Y-97722128D01*
X153644091Y-97662517D01*
X153616557Y-97588695D01*
X153593797Y-97527671D01*
X153593795Y-97527668D01*
X153557758Y-97479529D01*
X153507546Y-97412454D01*
X153506010Y-97411304D01*
X158099500Y-97411304D01*
X158099500Y-97588695D01*
X158134103Y-97762658D01*
X158134106Y-97762667D01*
X158201983Y-97926540D01*
X158201990Y-97926553D01*
X158300535Y-98074034D01*
X158300538Y-98074038D01*
X158425961Y-98199461D01*
X158425965Y-98199464D01*
X158573446Y-98298009D01*
X158573459Y-98298016D01*
X158696363Y-98348923D01*
X158737334Y-98365894D01*
X158737336Y-98365894D01*
X158737341Y-98365896D01*
X158911304Y-98400499D01*
X158911307Y-98400500D01*
X158911309Y-98400500D01*
X159088693Y-98400500D01*
X159088694Y-98400499D01*
X159146682Y-98388964D01*
X159262658Y-98365896D01*
X159262661Y-98365894D01*
X159262666Y-98365894D01*
X159426547Y-98298013D01*
X159574035Y-98199464D01*
X159574038Y-98199461D01*
X159662319Y-98111181D01*
X159723642Y-98077696D01*
X159793334Y-98082680D01*
X159837681Y-98111181D01*
X159925961Y-98199461D01*
X159925965Y-98199464D01*
X160073446Y-98298009D01*
X160073459Y-98298016D01*
X160196363Y-98348923D01*
X160237334Y-98365894D01*
X160237336Y-98365894D01*
X160237341Y-98365896D01*
X160411304Y-98400499D01*
X160411307Y-98400500D01*
X160411309Y-98400500D01*
X160588693Y-98400500D01*
X160588694Y-98400499D01*
X160646682Y-98388964D01*
X160762658Y-98365896D01*
X160762661Y-98365894D01*
X160762666Y-98365894D01*
X160926547Y-98298013D01*
X161074035Y-98199464D01*
X161199464Y-98074035D01*
X161298013Y-97926547D01*
X161304327Y-97911304D01*
X162599500Y-97911304D01*
X162599500Y-98088695D01*
X162634103Y-98262658D01*
X162634106Y-98262667D01*
X162701983Y-98426540D01*
X162701990Y-98426553D01*
X162800535Y-98574034D01*
X162800538Y-98574038D01*
X162925961Y-98699461D01*
X162925965Y-98699464D01*
X163073446Y-98798009D01*
X163073459Y-98798016D01*
X163196363Y-98848923D01*
X163237334Y-98865894D01*
X163237336Y-98865894D01*
X163237341Y-98865896D01*
X163411304Y-98900499D01*
X163411307Y-98900500D01*
X163411309Y-98900500D01*
X163588693Y-98900500D01*
X163588694Y-98900499D01*
X163646682Y-98888964D01*
X163762658Y-98865896D01*
X163762661Y-98865894D01*
X163762666Y-98865894D01*
X163926547Y-98798013D01*
X164074035Y-98699464D01*
X164199464Y-98574035D01*
X164298013Y-98426547D01*
X164365894Y-98262666D01*
X164378467Y-98199461D01*
X164400499Y-98088695D01*
X164400500Y-98088693D01*
X164400500Y-97911306D01*
X164400499Y-97911304D01*
X164365896Y-97737341D01*
X164365893Y-97737332D01*
X164359595Y-97722128D01*
X164334904Y-97662516D01*
X164298016Y-97573459D01*
X164298009Y-97573446D01*
X164199464Y-97425965D01*
X164199461Y-97425961D01*
X164074038Y-97300538D01*
X164074034Y-97300535D01*
X163926553Y-97201990D01*
X163926540Y-97201983D01*
X163762667Y-97134106D01*
X163762658Y-97134103D01*
X163588694Y-97099500D01*
X163588691Y-97099500D01*
X163411309Y-97099500D01*
X163411306Y-97099500D01*
X163237341Y-97134103D01*
X163237332Y-97134106D01*
X163073459Y-97201983D01*
X163073446Y-97201990D01*
X162925965Y-97300535D01*
X162925961Y-97300538D01*
X162800538Y-97425961D01*
X162800535Y-97425965D01*
X162701990Y-97573446D01*
X162701983Y-97573459D01*
X162634106Y-97737332D01*
X162634103Y-97737341D01*
X162599500Y-97911304D01*
X161304327Y-97911304D01*
X161365894Y-97762666D01*
X161370932Y-97737341D01*
X161400499Y-97588695D01*
X161400500Y-97588693D01*
X161400500Y-97411306D01*
X161400499Y-97411304D01*
X161365896Y-97237341D01*
X161365893Y-97237332D01*
X161298016Y-97073459D01*
X161298009Y-97073446D01*
X161199464Y-96925965D01*
X161199461Y-96925961D01*
X161074038Y-96800538D01*
X161074034Y-96800535D01*
X160926553Y-96701990D01*
X160926540Y-96701983D01*
X160762667Y-96634106D01*
X160762658Y-96634103D01*
X160588694Y-96599500D01*
X160588691Y-96599500D01*
X160411309Y-96599500D01*
X160411306Y-96599500D01*
X160237341Y-96634103D01*
X160237332Y-96634106D01*
X160073459Y-96701983D01*
X160073446Y-96701990D01*
X159925965Y-96800535D01*
X159925961Y-96800538D01*
X159837681Y-96888819D01*
X159776358Y-96922304D01*
X159706666Y-96917320D01*
X159662319Y-96888819D01*
X159574038Y-96800538D01*
X159574034Y-96800535D01*
X159426553Y-96701990D01*
X159426540Y-96701983D01*
X159262667Y-96634106D01*
X159262658Y-96634103D01*
X159088694Y-96599500D01*
X159088691Y-96599500D01*
X158911309Y-96599500D01*
X158911306Y-96599500D01*
X158737341Y-96634103D01*
X158737332Y-96634106D01*
X158573459Y-96701983D01*
X158573446Y-96701990D01*
X158425965Y-96800535D01*
X158425961Y-96800538D01*
X158300538Y-96925961D01*
X158300535Y-96925965D01*
X158201990Y-97073446D01*
X158201983Y-97073459D01*
X158134106Y-97237332D01*
X158134103Y-97237341D01*
X158099500Y-97411304D01*
X153506010Y-97411304D01*
X153484709Y-97395358D01*
X153392335Y-97326206D01*
X153392328Y-97326202D01*
X153257482Y-97275908D01*
X153257483Y-97275908D01*
X153197883Y-97269501D01*
X153197881Y-97269500D01*
X153197873Y-97269500D01*
X153197864Y-97269500D01*
X151402129Y-97269500D01*
X151402123Y-97269501D01*
X151342516Y-97275908D01*
X151207671Y-97326202D01*
X151207664Y-97326206D01*
X151092455Y-97412452D01*
X151092452Y-97412455D01*
X151006206Y-97527664D01*
X151006202Y-97527671D01*
X150955908Y-97662517D01*
X150949501Y-97722116D01*
X150949501Y-97722123D01*
X150949500Y-97722135D01*
X108500500Y-97722135D01*
X108500500Y-93891746D01*
X161124500Y-93891746D01*
X161124500Y-94108253D01*
X161158370Y-94322098D01*
X161225272Y-94528006D01*
X161225273Y-94528009D01*
X161318003Y-94710000D01*
X161323567Y-94720919D01*
X161450828Y-94896078D01*
X161603922Y-95049172D01*
X161779081Y-95176433D01*
X161873697Y-95224642D01*
X161971990Y-95274726D01*
X161971993Y-95274727D01*
X162074947Y-95308178D01*
X162177903Y-95341630D01*
X162391746Y-95375500D01*
X162391747Y-95375500D01*
X162608253Y-95375500D01*
X162608254Y-95375500D01*
X162822097Y-95341630D01*
X163028009Y-95274726D01*
X163220919Y-95176433D01*
X163396078Y-95049172D01*
X163549172Y-94896078D01*
X163676433Y-94720919D01*
X163722750Y-94630017D01*
X164789500Y-94630017D01*
X164789500Y-94769982D01*
X164816802Y-94907237D01*
X164816805Y-94907249D01*
X164870361Y-95036546D01*
X164870363Y-95036550D01*
X164948114Y-95152912D01*
X164948120Y-95152920D01*
X165047079Y-95251879D01*
X165047087Y-95251885D01*
X165163449Y-95329636D01*
X165163453Y-95329638D01*
X165274175Y-95375500D01*
X165292755Y-95383196D01*
X165430017Y-95410499D01*
X165430021Y-95410500D01*
X165430022Y-95410500D01*
X165569979Y-95410500D01*
X165569980Y-95410499D01*
X165707245Y-95383196D01*
X165836548Y-95329637D01*
X165836550Y-95329636D01*
X165918728Y-95274726D01*
X165952917Y-95251882D01*
X166051882Y-95152917D01*
X166129637Y-95036548D01*
X166183196Y-94907245D01*
X166210500Y-94769978D01*
X166210500Y-94630022D01*
X166198090Y-94567633D01*
X166183199Y-94492768D01*
X166183197Y-94492762D01*
X166183196Y-94492755D01*
X166183192Y-94492746D01*
X166182952Y-94491954D01*
X166182947Y-94491505D01*
X166182008Y-94486780D01*
X166182903Y-94486601D01*
X166182319Y-94422087D01*
X166219560Y-94362969D01*
X166282850Y-94333370D01*
X166352096Y-94342687D01*
X166404710Y-94387052D01*
X166448506Y-94452597D01*
X166448509Y-94452601D01*
X166547399Y-94551491D01*
X166663690Y-94629194D01*
X166792900Y-94682714D01*
X166792906Y-94682716D01*
X166930068Y-94710000D01*
X166936131Y-94710597D01*
X166935897Y-94712963D01*
X166992844Y-94729685D01*
X167038599Y-94782489D01*
X167047422Y-94809808D01*
X167066802Y-94907239D01*
X167066805Y-94907249D01*
X167120361Y-95036546D01*
X167120363Y-95036550D01*
X167198114Y-95152912D01*
X167198120Y-95152920D01*
X167297079Y-95251879D01*
X167297087Y-95251885D01*
X167413449Y-95329636D01*
X167413453Y-95329638D01*
X167524175Y-95375500D01*
X167542755Y-95383196D01*
X167680017Y-95410499D01*
X167680021Y-95410500D01*
X167680022Y-95410500D01*
X167819979Y-95410500D01*
X167819980Y-95410499D01*
X167957245Y-95383196D01*
X168086548Y-95329637D01*
X168086550Y-95329636D01*
X168168728Y-95274726D01*
X168202917Y-95251882D01*
X168301882Y-95152917D01*
X168379637Y-95036548D01*
X168433196Y-94907245D01*
X168460500Y-94769978D01*
X168460500Y-94630022D01*
X168448090Y-94567633D01*
X168433199Y-94492768D01*
X168433197Y-94492762D01*
X168433196Y-94492755D01*
X168433192Y-94492746D01*
X168432952Y-94491954D01*
X168432947Y-94491505D01*
X168432008Y-94486780D01*
X168432903Y-94486601D01*
X168432319Y-94422087D01*
X168469560Y-94362969D01*
X168532850Y-94333370D01*
X168602096Y-94342687D01*
X168654710Y-94387052D01*
X168698506Y-94452597D01*
X168698509Y-94452601D01*
X168797399Y-94551491D01*
X168913690Y-94629194D01*
X169042900Y-94682714D01*
X169042906Y-94682716D01*
X169180068Y-94710000D01*
X169186131Y-94710597D01*
X169185897Y-94712963D01*
X169242844Y-94729685D01*
X169288599Y-94782489D01*
X169297422Y-94809808D01*
X169316802Y-94907239D01*
X169316805Y-94907249D01*
X169370361Y-95036546D01*
X169370363Y-95036550D01*
X169448114Y-95152912D01*
X169448120Y-95152920D01*
X169547079Y-95251879D01*
X169547087Y-95251885D01*
X169663449Y-95329636D01*
X169663453Y-95329638D01*
X169774175Y-95375500D01*
X169792755Y-95383196D01*
X169930017Y-95410499D01*
X169930021Y-95410500D01*
X169930022Y-95410500D01*
X170069979Y-95410500D01*
X170069980Y-95410499D01*
X170207245Y-95383196D01*
X170336548Y-95329637D01*
X170336550Y-95329636D01*
X170418728Y-95274726D01*
X170452917Y-95251882D01*
X170551882Y-95152917D01*
X170629637Y-95036548D01*
X170683196Y-94907245D01*
X170710500Y-94769978D01*
X170710500Y-94630022D01*
X170698090Y-94567633D01*
X170683199Y-94492768D01*
X170683197Y-94492762D01*
X170683196Y-94492755D01*
X170683192Y-94492746D01*
X170682952Y-94491954D01*
X170682947Y-94491505D01*
X170682008Y-94486780D01*
X170682903Y-94486601D01*
X170682319Y-94422087D01*
X170719560Y-94362969D01*
X170782850Y-94333370D01*
X170852096Y-94342687D01*
X170904710Y-94387052D01*
X170948506Y-94452597D01*
X170948509Y-94452601D01*
X171047399Y-94551491D01*
X171163690Y-94629194D01*
X171292900Y-94682714D01*
X171292906Y-94682716D01*
X171430068Y-94710000D01*
X171569931Y-94710000D01*
X171707093Y-94682716D01*
X171707099Y-94682714D01*
X171836309Y-94629194D01*
X171952600Y-94551491D01*
X172051491Y-94452600D01*
X172129194Y-94336309D01*
X172182714Y-94207099D01*
X172182716Y-94207093D01*
X172210000Y-94069931D01*
X172210000Y-93930068D01*
X172206220Y-93911066D01*
X172206220Y-93911065D01*
X172202377Y-93891746D01*
X173124500Y-93891746D01*
X173124500Y-94108253D01*
X173158370Y-94322098D01*
X173225272Y-94528006D01*
X173225273Y-94528009D01*
X173318003Y-94710000D01*
X173323567Y-94720919D01*
X173450828Y-94896078D01*
X173603922Y-95049172D01*
X173779081Y-95176433D01*
X173873697Y-95224642D01*
X173971990Y-95274726D01*
X173971993Y-95274727D01*
X174074947Y-95308178D01*
X174177903Y-95341630D01*
X174391746Y-95375500D01*
X174391747Y-95375500D01*
X174608253Y-95375500D01*
X174608254Y-95375500D01*
X174822097Y-95341630D01*
X175028009Y-95274726D01*
X175220919Y-95176433D01*
X175396078Y-95049172D01*
X175549172Y-94896078D01*
X175676433Y-94720919D01*
X175774726Y-94528009D01*
X175841630Y-94322097D01*
X175875500Y-94108254D01*
X175875500Y-93891746D01*
X175841630Y-93677903D01*
X175799227Y-93547399D01*
X175774727Y-93471993D01*
X175774726Y-93471990D01*
X175676432Y-93279080D01*
X175640789Y-93230022D01*
X175549172Y-93103922D01*
X175396078Y-92950828D01*
X175220919Y-92823567D01*
X175028009Y-92725273D01*
X175028006Y-92725272D01*
X174822098Y-92658370D01*
X174715175Y-92641435D01*
X174608254Y-92624500D01*
X174391746Y-92624500D01*
X174320465Y-92635790D01*
X174177901Y-92658370D01*
X173971993Y-92725272D01*
X173971990Y-92725273D01*
X173779080Y-92823567D01*
X173679145Y-92896174D01*
X173603922Y-92950828D01*
X173603920Y-92950830D01*
X173603919Y-92950830D01*
X173450830Y-93103919D01*
X173450830Y-93103920D01*
X173450828Y-93103922D01*
X173396174Y-93179145D01*
X173323567Y-93279080D01*
X173225273Y-93471990D01*
X173225272Y-93471993D01*
X173158370Y-93677901D01*
X173124500Y-93891746D01*
X172202377Y-93891746D01*
X172182716Y-93792908D01*
X172182714Y-93792900D01*
X172129194Y-93663690D01*
X172051491Y-93547399D01*
X171952600Y-93448508D01*
X171836309Y-93370805D01*
X171707099Y-93317285D01*
X171707093Y-93317283D01*
X171569931Y-93289999D01*
X171563869Y-93289403D01*
X171564102Y-93287036D01*
X171507156Y-93270315D01*
X171461401Y-93217511D01*
X171452578Y-93190192D01*
X171433197Y-93092760D01*
X171433196Y-93092759D01*
X171433196Y-93092755D01*
X171433194Y-93092750D01*
X171379638Y-92963453D01*
X171379636Y-92963449D01*
X171301885Y-92847087D01*
X171301879Y-92847079D01*
X171202920Y-92748120D01*
X171202912Y-92748114D01*
X171086550Y-92670363D01*
X171086546Y-92670361D01*
X170957249Y-92616805D01*
X170957237Y-92616802D01*
X170819982Y-92589500D01*
X170819978Y-92589500D01*
X170680022Y-92589500D01*
X170680017Y-92589500D01*
X170542762Y-92616802D01*
X170542750Y-92616805D01*
X170413453Y-92670361D01*
X170413449Y-92670363D01*
X170297087Y-92748114D01*
X170297079Y-92748120D01*
X170198120Y-92847079D01*
X170198114Y-92847087D01*
X170120363Y-92963449D01*
X170120361Y-92963453D01*
X170066805Y-93092750D01*
X170066802Y-93092762D01*
X170039500Y-93230017D01*
X170039500Y-93369982D01*
X170066802Y-93507240D01*
X170067050Y-93508056D01*
X170067054Y-93508504D01*
X170067992Y-93513220D01*
X170067097Y-93513397D01*
X170067676Y-93577923D01*
X170030430Y-93637038D01*
X169967137Y-93666631D01*
X169897892Y-93657307D01*
X169845289Y-93612947D01*
X169801493Y-93547401D01*
X169702600Y-93448508D01*
X169586309Y-93370805D01*
X169457099Y-93317285D01*
X169457093Y-93317283D01*
X169319931Y-93289999D01*
X169313869Y-93289403D01*
X169314102Y-93287036D01*
X169257156Y-93270315D01*
X169211401Y-93217511D01*
X169202578Y-93190192D01*
X169183197Y-93092760D01*
X169183196Y-93092759D01*
X169183196Y-93092755D01*
X169183194Y-93092750D01*
X169129638Y-92963453D01*
X169129636Y-92963449D01*
X169051885Y-92847087D01*
X169051879Y-92847079D01*
X168952920Y-92748120D01*
X168952912Y-92748114D01*
X168836550Y-92670363D01*
X168836546Y-92670361D01*
X168707249Y-92616805D01*
X168707237Y-92616802D01*
X168569982Y-92589500D01*
X168569978Y-92589500D01*
X168430022Y-92589500D01*
X168430017Y-92589500D01*
X168292762Y-92616802D01*
X168292750Y-92616805D01*
X168163453Y-92670361D01*
X168163449Y-92670363D01*
X168047087Y-92748114D01*
X168047079Y-92748120D01*
X167948120Y-92847079D01*
X167948114Y-92847087D01*
X167870363Y-92963449D01*
X167870361Y-92963453D01*
X167816805Y-93092750D01*
X167816802Y-93092762D01*
X167789500Y-93230017D01*
X167789500Y-93369982D01*
X167816802Y-93507240D01*
X167817050Y-93508056D01*
X167817054Y-93508504D01*
X167817992Y-93513220D01*
X167817097Y-93513397D01*
X167817676Y-93577923D01*
X167780430Y-93637038D01*
X167717137Y-93666631D01*
X167647892Y-93657307D01*
X167595289Y-93612947D01*
X167551493Y-93547401D01*
X167452600Y-93448508D01*
X167336309Y-93370805D01*
X167207099Y-93317285D01*
X167207093Y-93317283D01*
X167069931Y-93289999D01*
X167063869Y-93289403D01*
X167064102Y-93287036D01*
X167007156Y-93270315D01*
X166961401Y-93217511D01*
X166952578Y-93190192D01*
X166933197Y-93092760D01*
X166933196Y-93092759D01*
X166933196Y-93092755D01*
X166933194Y-93092750D01*
X166879638Y-92963453D01*
X166879636Y-92963449D01*
X166801885Y-92847087D01*
X166801879Y-92847079D01*
X166702920Y-92748120D01*
X166702912Y-92748114D01*
X166586550Y-92670363D01*
X166586546Y-92670361D01*
X166457249Y-92616805D01*
X166457237Y-92616802D01*
X166319982Y-92589500D01*
X166319978Y-92589500D01*
X166180022Y-92589500D01*
X166180017Y-92589500D01*
X166042762Y-92616802D01*
X166042750Y-92616805D01*
X165913453Y-92670361D01*
X165913449Y-92670363D01*
X165797087Y-92748114D01*
X165797079Y-92748120D01*
X165698120Y-92847079D01*
X165698114Y-92847087D01*
X165620363Y-92963449D01*
X165620361Y-92963453D01*
X165566805Y-93092750D01*
X165566802Y-93092762D01*
X165539500Y-93230017D01*
X165539500Y-93369982D01*
X165566802Y-93507237D01*
X165566805Y-93507249D01*
X165620361Y-93636546D01*
X165620363Y-93636550D01*
X165698114Y-93752912D01*
X165698120Y-93752920D01*
X165736215Y-93791015D01*
X165769700Y-93852338D01*
X165764716Y-93922030D01*
X165722844Y-93977963D01*
X165657380Y-94002380D01*
X165624344Y-94000314D01*
X165617509Y-93998954D01*
X165569978Y-93989500D01*
X165430022Y-93989500D01*
X165430017Y-93989500D01*
X165292762Y-94016802D01*
X165292750Y-94016805D01*
X165163453Y-94070361D01*
X165163449Y-94070363D01*
X165047087Y-94148114D01*
X165047079Y-94148120D01*
X164948120Y-94247079D01*
X164948114Y-94247087D01*
X164870363Y-94363449D01*
X164870361Y-94363453D01*
X164816805Y-94492750D01*
X164816802Y-94492762D01*
X164789500Y-94630017D01*
X163722750Y-94630017D01*
X163726920Y-94621833D01*
X163754536Y-94567635D01*
X163754537Y-94567633D01*
X163774723Y-94528014D01*
X163774726Y-94528009D01*
X163841630Y-94322097D01*
X163875500Y-94108254D01*
X163875500Y-93891746D01*
X163841630Y-93677903D01*
X163799227Y-93547399D01*
X163774727Y-93471993D01*
X163774726Y-93471990D01*
X163676432Y-93279080D01*
X163640789Y-93230022D01*
X163549172Y-93103922D01*
X163396078Y-92950828D01*
X163220919Y-92823567D01*
X163028009Y-92725273D01*
X163028006Y-92725272D01*
X162822098Y-92658370D01*
X162715175Y-92641435D01*
X162608254Y-92624500D01*
X162391746Y-92624500D01*
X162320465Y-92635790D01*
X162177901Y-92658370D01*
X161971993Y-92725272D01*
X161971990Y-92725273D01*
X161779080Y-92823567D01*
X161679145Y-92896174D01*
X161603922Y-92950828D01*
X161603920Y-92950830D01*
X161603919Y-92950830D01*
X161450830Y-93103919D01*
X161450830Y-93103920D01*
X161450828Y-93103922D01*
X161396174Y-93179145D01*
X161323567Y-93279080D01*
X161225273Y-93471990D01*
X161225272Y-93471993D01*
X161158370Y-93677901D01*
X161124500Y-93891746D01*
X108500500Y-93891746D01*
X108500500Y-89911304D01*
X158099500Y-89911304D01*
X158099500Y-90088695D01*
X158134103Y-90262658D01*
X158134106Y-90262667D01*
X158201983Y-90426540D01*
X158201990Y-90426553D01*
X158300535Y-90574034D01*
X158300538Y-90574038D01*
X158425961Y-90699461D01*
X158425965Y-90699464D01*
X158573446Y-90798009D01*
X158573459Y-90798016D01*
X158648731Y-90829194D01*
X158737334Y-90865894D01*
X158737336Y-90865894D01*
X158737341Y-90865896D01*
X158911304Y-90900499D01*
X158911307Y-90900500D01*
X158911309Y-90900500D01*
X159088693Y-90900500D01*
X159088694Y-90900499D01*
X159178107Y-90882714D01*
X159262658Y-90865896D01*
X159262661Y-90865894D01*
X159262666Y-90865894D01*
X159426547Y-90798013D01*
X159574035Y-90699464D01*
X159699464Y-90574035D01*
X159798013Y-90426547D01*
X159865894Y-90262666D01*
X159875017Y-90216805D01*
X159878383Y-90199882D01*
X159910768Y-90137971D01*
X159971483Y-90103397D01*
X160041253Y-90107136D01*
X160097925Y-90148003D01*
X160121617Y-90199882D01*
X160134103Y-90262658D01*
X160134106Y-90262667D01*
X160201983Y-90426540D01*
X160201990Y-90426553D01*
X160300535Y-90574034D01*
X160300538Y-90574038D01*
X160425961Y-90699461D01*
X160425965Y-90699464D01*
X160573446Y-90798009D01*
X160573459Y-90798016D01*
X160648731Y-90829194D01*
X160737334Y-90865894D01*
X160737336Y-90865894D01*
X160737341Y-90865896D01*
X160911304Y-90900499D01*
X160911307Y-90900500D01*
X160911309Y-90900500D01*
X161088693Y-90900500D01*
X161088694Y-90900499D01*
X161178107Y-90882714D01*
X161262658Y-90865896D01*
X161262661Y-90865894D01*
X161262666Y-90865894D01*
X161349282Y-90830017D01*
X164789500Y-90830017D01*
X164789500Y-90969982D01*
X164816802Y-91107237D01*
X164816805Y-91107249D01*
X164870361Y-91236546D01*
X164870363Y-91236550D01*
X164948114Y-91352912D01*
X164948120Y-91352920D01*
X165047079Y-91451879D01*
X165047087Y-91451885D01*
X165163449Y-91529636D01*
X165163453Y-91529638D01*
X165292750Y-91583194D01*
X165292755Y-91583196D01*
X165430017Y-91610499D01*
X165430021Y-91610500D01*
X165430022Y-91610500D01*
X165569979Y-91610500D01*
X165569980Y-91610499D01*
X165707245Y-91583196D01*
X165836548Y-91529637D01*
X165836550Y-91529636D01*
X165894341Y-91491020D01*
X165952917Y-91451882D01*
X166051882Y-91352917D01*
X166129637Y-91236548D01*
X166183196Y-91107245D01*
X166210500Y-90969978D01*
X166210500Y-90830022D01*
X166204132Y-90798009D01*
X166183199Y-90692768D01*
X166183197Y-90692762D01*
X166183196Y-90692755D01*
X166183192Y-90692746D01*
X166182952Y-90691954D01*
X166182947Y-90691505D01*
X166182008Y-90686780D01*
X166182903Y-90686601D01*
X166182319Y-90622087D01*
X166219560Y-90562969D01*
X166282850Y-90533370D01*
X166352096Y-90542687D01*
X166404710Y-90587052D01*
X166448506Y-90652597D01*
X166448509Y-90652601D01*
X166547399Y-90751491D01*
X166663690Y-90829194D01*
X166792900Y-90882714D01*
X166792906Y-90882716D01*
X166930068Y-90910000D01*
X166936131Y-90910597D01*
X166935897Y-90912963D01*
X166992844Y-90929685D01*
X167038599Y-90982489D01*
X167047422Y-91009808D01*
X167066802Y-91107239D01*
X167066805Y-91107249D01*
X167120361Y-91236546D01*
X167120363Y-91236550D01*
X167198114Y-91352912D01*
X167198120Y-91352920D01*
X167297079Y-91451879D01*
X167297087Y-91451885D01*
X167413449Y-91529636D01*
X167413453Y-91529638D01*
X167542750Y-91583194D01*
X167542755Y-91583196D01*
X167680017Y-91610499D01*
X167680021Y-91610500D01*
X167680022Y-91610500D01*
X167819979Y-91610500D01*
X167819980Y-91610499D01*
X167957245Y-91583196D01*
X168086548Y-91529637D01*
X168086550Y-91529636D01*
X168144341Y-91491020D01*
X168202917Y-91451882D01*
X168301882Y-91352917D01*
X168379637Y-91236548D01*
X168433196Y-91107245D01*
X168460500Y-90969978D01*
X168460500Y-90830022D01*
X168454132Y-90798009D01*
X168433199Y-90692768D01*
X168433197Y-90692762D01*
X168433196Y-90692755D01*
X168433192Y-90692746D01*
X168432952Y-90691954D01*
X168432947Y-90691505D01*
X168432008Y-90686780D01*
X168432903Y-90686601D01*
X168432319Y-90622087D01*
X168469560Y-90562969D01*
X168532850Y-90533370D01*
X168602096Y-90542687D01*
X168654710Y-90587052D01*
X168698506Y-90652597D01*
X168698509Y-90652601D01*
X168797399Y-90751491D01*
X168913690Y-90829194D01*
X169042900Y-90882714D01*
X169042906Y-90882716D01*
X169180068Y-90910000D01*
X169186131Y-90910597D01*
X169185897Y-90912963D01*
X169242844Y-90929685D01*
X169288599Y-90982489D01*
X169297422Y-91009808D01*
X169316802Y-91107239D01*
X169316805Y-91107249D01*
X169370361Y-91236546D01*
X169370363Y-91236550D01*
X169448114Y-91352912D01*
X169448120Y-91352920D01*
X169547079Y-91451879D01*
X169547087Y-91451885D01*
X169663449Y-91529636D01*
X169663453Y-91529638D01*
X169792750Y-91583194D01*
X169792755Y-91583196D01*
X169930017Y-91610499D01*
X169930021Y-91610500D01*
X169930022Y-91610500D01*
X170069979Y-91610500D01*
X170069980Y-91610499D01*
X170207245Y-91583196D01*
X170336548Y-91529637D01*
X170336550Y-91529636D01*
X170394341Y-91491020D01*
X170452917Y-91451882D01*
X170551882Y-91352917D01*
X170629637Y-91236548D01*
X170683196Y-91107245D01*
X170710500Y-90969978D01*
X170710500Y-90830022D01*
X170704132Y-90798009D01*
X170683199Y-90692768D01*
X170683197Y-90692762D01*
X170683196Y-90692755D01*
X170683192Y-90692746D01*
X170682952Y-90691954D01*
X170682947Y-90691505D01*
X170682008Y-90686780D01*
X170682903Y-90686601D01*
X170682319Y-90622087D01*
X170719560Y-90562969D01*
X170782850Y-90533370D01*
X170852096Y-90542687D01*
X170904710Y-90587052D01*
X170948506Y-90652597D01*
X170948509Y-90652601D01*
X171047399Y-90751491D01*
X171163690Y-90829194D01*
X171292900Y-90882714D01*
X171292906Y-90882716D01*
X171430068Y-90910000D01*
X171569931Y-90910000D01*
X171707093Y-90882716D01*
X171707099Y-90882714D01*
X171836309Y-90829194D01*
X171952600Y-90751491D01*
X172051491Y-90652600D01*
X172129194Y-90536309D01*
X172182714Y-90407099D01*
X172182716Y-90407093D01*
X172210000Y-90269931D01*
X172210000Y-90130068D01*
X172182716Y-89992906D01*
X172182714Y-89992900D01*
X172129194Y-89863690D01*
X172051491Y-89747399D01*
X171952600Y-89648508D01*
X171836309Y-89570805D01*
X171707099Y-89517285D01*
X171707093Y-89517283D01*
X171569931Y-89489999D01*
X171563869Y-89489403D01*
X171564102Y-89487036D01*
X171507156Y-89470315D01*
X171461401Y-89417511D01*
X171452578Y-89390192D01*
X171433197Y-89292760D01*
X171433196Y-89292759D01*
X171433196Y-89292755D01*
X171395597Y-89201983D01*
X171379638Y-89163453D01*
X171379636Y-89163449D01*
X171301885Y-89047087D01*
X171301879Y-89047079D01*
X171202920Y-88948120D01*
X171202912Y-88948114D01*
X171086550Y-88870363D01*
X171086546Y-88870361D01*
X170957249Y-88816805D01*
X170957237Y-88816802D01*
X170819982Y-88789500D01*
X170819978Y-88789500D01*
X170680022Y-88789500D01*
X170680017Y-88789500D01*
X170542762Y-88816802D01*
X170542750Y-88816805D01*
X170413453Y-88870361D01*
X170413449Y-88870363D01*
X170297087Y-88948114D01*
X170297079Y-88948120D01*
X170198120Y-89047079D01*
X170198114Y-89047087D01*
X170120363Y-89163449D01*
X170120361Y-89163453D01*
X170066805Y-89292750D01*
X170066802Y-89292762D01*
X170039500Y-89430017D01*
X170039500Y-89569982D01*
X170066802Y-89707240D01*
X170067050Y-89708056D01*
X170067054Y-89708504D01*
X170067992Y-89713220D01*
X170067097Y-89713397D01*
X170067676Y-89777923D01*
X170030430Y-89837038D01*
X169967137Y-89866631D01*
X169897892Y-89857307D01*
X169845289Y-89812947D01*
X169801493Y-89747401D01*
X169702600Y-89648508D01*
X169586309Y-89570805D01*
X169457099Y-89517285D01*
X169457093Y-89517283D01*
X169319931Y-89489999D01*
X169313869Y-89489403D01*
X169314102Y-89487036D01*
X169257156Y-89470315D01*
X169211401Y-89417511D01*
X169202578Y-89390192D01*
X169183197Y-89292760D01*
X169183196Y-89292759D01*
X169183196Y-89292755D01*
X169145597Y-89201983D01*
X169129638Y-89163453D01*
X169129636Y-89163449D01*
X169051885Y-89047087D01*
X169051879Y-89047079D01*
X168952920Y-88948120D01*
X168952912Y-88948114D01*
X168836550Y-88870363D01*
X168836546Y-88870361D01*
X168707249Y-88816805D01*
X168707237Y-88816802D01*
X168569982Y-88789500D01*
X168569978Y-88789500D01*
X168430022Y-88789500D01*
X168430017Y-88789500D01*
X168292762Y-88816802D01*
X168292750Y-88816805D01*
X168163453Y-88870361D01*
X168163449Y-88870363D01*
X168047087Y-88948114D01*
X168047079Y-88948120D01*
X167948120Y-89047079D01*
X167948114Y-89047087D01*
X167870363Y-89163449D01*
X167870361Y-89163453D01*
X167816805Y-89292750D01*
X167816802Y-89292762D01*
X167789500Y-89430017D01*
X167789500Y-89569982D01*
X167816802Y-89707240D01*
X167817050Y-89708056D01*
X167817054Y-89708504D01*
X167817992Y-89713220D01*
X167817097Y-89713397D01*
X167817676Y-89777923D01*
X167780430Y-89837038D01*
X167717137Y-89866631D01*
X167647892Y-89857307D01*
X167595289Y-89812947D01*
X167551493Y-89747401D01*
X167452600Y-89648508D01*
X167336309Y-89570805D01*
X167207099Y-89517285D01*
X167207093Y-89517283D01*
X167069931Y-89489999D01*
X167063869Y-89489403D01*
X167064102Y-89487036D01*
X167007156Y-89470315D01*
X166961401Y-89417511D01*
X166952578Y-89390192D01*
X166933197Y-89292760D01*
X166933196Y-89292759D01*
X166933196Y-89292755D01*
X166895597Y-89201983D01*
X166879638Y-89163453D01*
X166879636Y-89163449D01*
X166801885Y-89047087D01*
X166801879Y-89047079D01*
X166702920Y-88948120D01*
X166702912Y-88948114D01*
X166586550Y-88870363D01*
X166586546Y-88870361D01*
X166457249Y-88816805D01*
X166457237Y-88816802D01*
X166319982Y-88789500D01*
X166319978Y-88789500D01*
X166180022Y-88789500D01*
X166180017Y-88789500D01*
X166042762Y-88816802D01*
X166042750Y-88816805D01*
X165913453Y-88870361D01*
X165913449Y-88870363D01*
X165797087Y-88948114D01*
X165797079Y-88948120D01*
X165698120Y-89047079D01*
X165698114Y-89047087D01*
X165620363Y-89163449D01*
X165620361Y-89163453D01*
X165566805Y-89292750D01*
X165566802Y-89292762D01*
X165539500Y-89430017D01*
X165539500Y-89569982D01*
X165566802Y-89707237D01*
X165566805Y-89707249D01*
X165620361Y-89836546D01*
X165620363Y-89836550D01*
X165698114Y-89952912D01*
X165698120Y-89952920D01*
X165736215Y-89991015D01*
X165769700Y-90052338D01*
X165764716Y-90122030D01*
X165722844Y-90177963D01*
X165657380Y-90202380D01*
X165624344Y-90200314D01*
X165617509Y-90198954D01*
X165569978Y-90189500D01*
X165430022Y-90189500D01*
X165430017Y-90189500D01*
X165292762Y-90216802D01*
X165292750Y-90216805D01*
X165163453Y-90270361D01*
X165163449Y-90270363D01*
X165047087Y-90348114D01*
X165047079Y-90348120D01*
X164948120Y-90447079D01*
X164948114Y-90447087D01*
X164870363Y-90563449D01*
X164870361Y-90563453D01*
X164816805Y-90692750D01*
X164816802Y-90692762D01*
X164789500Y-90830017D01*
X161349282Y-90830017D01*
X161426547Y-90798013D01*
X161574035Y-90699464D01*
X161699464Y-90574035D01*
X161798013Y-90426547D01*
X161865894Y-90262666D01*
X161875017Y-90216805D01*
X161890698Y-90137971D01*
X161900500Y-90088691D01*
X161900500Y-89911309D01*
X161900500Y-89911306D01*
X161900499Y-89911304D01*
X161865896Y-89737341D01*
X161865893Y-89737332D01*
X161853432Y-89707249D01*
X161848923Y-89696363D01*
X161798016Y-89573459D01*
X161798009Y-89573446D01*
X161699464Y-89425965D01*
X161699461Y-89425961D01*
X161574038Y-89300538D01*
X161574034Y-89300535D01*
X161426553Y-89201990D01*
X161426540Y-89201983D01*
X161262667Y-89134106D01*
X161262658Y-89134103D01*
X161088694Y-89099500D01*
X161088691Y-89099500D01*
X160911309Y-89099500D01*
X160911306Y-89099500D01*
X160737341Y-89134103D01*
X160737332Y-89134106D01*
X160573459Y-89201983D01*
X160573446Y-89201990D01*
X160425965Y-89300535D01*
X160425961Y-89300538D01*
X160300538Y-89425961D01*
X160300535Y-89425965D01*
X160201990Y-89573446D01*
X160201983Y-89573459D01*
X160134106Y-89737332D01*
X160134104Y-89737340D01*
X160121617Y-89800118D01*
X160089232Y-89862028D01*
X160028516Y-89896603D01*
X159958747Y-89892863D01*
X159902075Y-89851996D01*
X159878383Y-89800118D01*
X159865895Y-89737340D01*
X159865894Y-89737334D01*
X159848923Y-89696363D01*
X159798016Y-89573459D01*
X159798009Y-89573446D01*
X159699464Y-89425965D01*
X159699461Y-89425961D01*
X159574038Y-89300538D01*
X159574034Y-89300535D01*
X159426553Y-89201990D01*
X159426540Y-89201983D01*
X159262667Y-89134106D01*
X159262658Y-89134103D01*
X159088694Y-89099500D01*
X159088691Y-89099500D01*
X158911309Y-89099500D01*
X158911306Y-89099500D01*
X158737341Y-89134103D01*
X158737332Y-89134106D01*
X158573459Y-89201983D01*
X158573446Y-89201990D01*
X158425965Y-89300535D01*
X158425961Y-89300538D01*
X158300538Y-89425961D01*
X158300535Y-89425965D01*
X158201990Y-89573446D01*
X158201983Y-89573459D01*
X158134106Y-89737332D01*
X158134103Y-89737341D01*
X158099500Y-89911304D01*
X108500500Y-89911304D01*
X108500500Y-86362325D01*
X120159399Y-86362325D01*
X120159399Y-86597670D01*
X120196212Y-86830097D01*
X120196213Y-86830101D01*
X120261170Y-87030017D01*
X120268937Y-87053919D01*
X120348366Y-87209808D01*
X120375775Y-87263601D01*
X120514101Y-87453990D01*
X120680507Y-87620396D01*
X120870896Y-87758722D01*
X121080580Y-87865561D01*
X121304396Y-87938284D01*
X121391559Y-87952089D01*
X121536827Y-87975098D01*
X121536832Y-87975098D01*
X121772171Y-87975098D01*
X121901297Y-87954645D01*
X122004602Y-87938284D01*
X122228418Y-87865561D01*
X122438102Y-87758722D01*
X122628491Y-87620396D01*
X122794897Y-87453990D01*
X122933223Y-87263601D01*
X123040062Y-87053917D01*
X123112785Y-86830101D01*
X123133077Y-86701983D01*
X123149599Y-86597670D01*
X123149599Y-86362325D01*
X151029900Y-86362325D01*
X151029900Y-86597670D01*
X151066713Y-86830097D01*
X151066714Y-86830101D01*
X151131671Y-87030017D01*
X151139438Y-87053919D01*
X151218867Y-87209808D01*
X151246276Y-87263601D01*
X151384602Y-87453990D01*
X151551008Y-87620396D01*
X151741397Y-87758722D01*
X151951081Y-87865561D01*
X152174897Y-87938284D01*
X152262060Y-87952089D01*
X152407328Y-87975098D01*
X152407333Y-87975098D01*
X152642672Y-87975098D01*
X152771798Y-87954645D01*
X152875103Y-87938284D01*
X153098919Y-87865561D01*
X153308603Y-87758722D01*
X153498992Y-87620396D01*
X153665398Y-87453990D01*
X153696411Y-87411304D01*
X158099500Y-87411304D01*
X158099500Y-87588695D01*
X158134103Y-87762658D01*
X158134106Y-87762667D01*
X158201983Y-87926540D01*
X158201990Y-87926553D01*
X158300535Y-88074034D01*
X158300538Y-88074038D01*
X158425961Y-88199461D01*
X158425965Y-88199464D01*
X158573446Y-88298009D01*
X158573459Y-88298016D01*
X158696363Y-88348923D01*
X158737334Y-88365894D01*
X158737336Y-88365894D01*
X158737341Y-88365896D01*
X158911304Y-88400499D01*
X158911307Y-88400500D01*
X158911309Y-88400500D01*
X159088693Y-88400500D01*
X159088694Y-88400499D01*
X159146682Y-88388964D01*
X159262658Y-88365896D01*
X159262661Y-88365894D01*
X159262666Y-88365894D01*
X159426547Y-88298013D01*
X159574035Y-88199464D01*
X159699464Y-88074035D01*
X159798013Y-87926547D01*
X159865894Y-87762666D01*
X159872465Y-87729636D01*
X159878383Y-87699882D01*
X159910768Y-87637971D01*
X159971483Y-87603397D01*
X160041253Y-87607136D01*
X160097925Y-87648003D01*
X160121617Y-87699882D01*
X160134103Y-87762658D01*
X160134106Y-87762667D01*
X160201983Y-87926540D01*
X160201990Y-87926553D01*
X160300535Y-88074034D01*
X160300538Y-88074038D01*
X160425961Y-88199461D01*
X160425965Y-88199464D01*
X160573446Y-88298009D01*
X160573459Y-88298016D01*
X160696363Y-88348923D01*
X160737334Y-88365894D01*
X160737336Y-88365894D01*
X160737341Y-88365896D01*
X160911304Y-88400499D01*
X160911307Y-88400500D01*
X160911309Y-88400500D01*
X161088693Y-88400500D01*
X161088694Y-88400499D01*
X161146682Y-88388964D01*
X161262658Y-88365896D01*
X161262661Y-88365894D01*
X161262666Y-88365894D01*
X161426547Y-88298013D01*
X161574035Y-88199464D01*
X161699464Y-88074035D01*
X161798013Y-87926547D01*
X161865894Y-87762666D01*
X161900500Y-87588691D01*
X161900500Y-87411309D01*
X161900500Y-87411306D01*
X161900499Y-87411304D01*
X161865896Y-87237341D01*
X161865893Y-87237332D01*
X161798017Y-87073461D01*
X161798009Y-87073446D01*
X161768990Y-87030017D01*
X164789500Y-87030017D01*
X164789500Y-87169982D01*
X164816802Y-87307237D01*
X164816805Y-87307249D01*
X164870361Y-87436546D01*
X164870363Y-87436550D01*
X164948114Y-87552912D01*
X164948120Y-87552920D01*
X165047079Y-87651879D01*
X165047087Y-87651885D01*
X165163449Y-87729636D01*
X165163453Y-87729638D01*
X165292750Y-87783194D01*
X165292755Y-87783196D01*
X165430017Y-87810499D01*
X165430021Y-87810500D01*
X165430022Y-87810500D01*
X165569979Y-87810500D01*
X165569980Y-87810499D01*
X165707245Y-87783196D01*
X165836548Y-87729637D01*
X165836550Y-87729636D01*
X165894341Y-87691020D01*
X165952917Y-87651882D01*
X166051882Y-87552917D01*
X166091020Y-87494341D01*
X166129636Y-87436550D01*
X166129638Y-87436546D01*
X166160504Y-87362028D01*
X166183196Y-87307245D01*
X166210500Y-87169978D01*
X166210500Y-87030022D01*
X166210144Y-87028236D01*
X166183199Y-86892768D01*
X166183197Y-86892762D01*
X166183196Y-86892755D01*
X166183192Y-86892746D01*
X166182952Y-86891954D01*
X166182947Y-86891505D01*
X166182008Y-86886780D01*
X166182903Y-86886601D01*
X166182319Y-86822087D01*
X166219560Y-86762969D01*
X166282850Y-86733370D01*
X166352096Y-86742687D01*
X166404710Y-86787052D01*
X166448506Y-86852597D01*
X166448509Y-86852601D01*
X166547399Y-86951491D01*
X166663690Y-87029194D01*
X166792900Y-87082714D01*
X166792906Y-87082716D01*
X166930068Y-87110000D01*
X166936131Y-87110597D01*
X166935897Y-87112963D01*
X166992844Y-87129685D01*
X167038599Y-87182489D01*
X167047422Y-87209808D01*
X167066802Y-87307239D01*
X167066805Y-87307249D01*
X167120361Y-87436546D01*
X167120363Y-87436550D01*
X167198114Y-87552912D01*
X167198120Y-87552920D01*
X167297079Y-87651879D01*
X167297087Y-87651885D01*
X167413449Y-87729636D01*
X167413453Y-87729638D01*
X167542750Y-87783194D01*
X167542755Y-87783196D01*
X167680017Y-87810499D01*
X167680021Y-87810500D01*
X167680022Y-87810500D01*
X167819979Y-87810500D01*
X167819980Y-87810499D01*
X167957245Y-87783196D01*
X168086548Y-87729637D01*
X168086550Y-87729636D01*
X168144341Y-87691020D01*
X168202917Y-87651882D01*
X168301882Y-87552917D01*
X168341020Y-87494341D01*
X168379636Y-87436550D01*
X168379638Y-87436546D01*
X168410504Y-87362028D01*
X168433196Y-87307245D01*
X168460500Y-87169978D01*
X168460500Y-87030022D01*
X168460144Y-87028236D01*
X168433199Y-86892768D01*
X168433197Y-86892762D01*
X168433196Y-86892755D01*
X168433192Y-86892746D01*
X168432952Y-86891954D01*
X168432947Y-86891505D01*
X168432008Y-86886780D01*
X168432903Y-86886601D01*
X168432319Y-86822087D01*
X168469560Y-86762969D01*
X168532850Y-86733370D01*
X168602096Y-86742687D01*
X168654710Y-86787052D01*
X168698506Y-86852597D01*
X168698509Y-86852601D01*
X168797399Y-86951491D01*
X168913690Y-87029194D01*
X169042900Y-87082714D01*
X169042906Y-87082716D01*
X169180068Y-87110000D01*
X169186131Y-87110597D01*
X169185897Y-87112963D01*
X169242844Y-87129685D01*
X169288599Y-87182489D01*
X169297422Y-87209808D01*
X169316802Y-87307239D01*
X169316805Y-87307249D01*
X169370361Y-87436546D01*
X169370363Y-87436550D01*
X169448114Y-87552912D01*
X169448120Y-87552920D01*
X169547079Y-87651879D01*
X169547087Y-87651885D01*
X169663449Y-87729636D01*
X169663453Y-87729638D01*
X169792750Y-87783194D01*
X169792755Y-87783196D01*
X169930017Y-87810499D01*
X169930021Y-87810500D01*
X169930022Y-87810500D01*
X170069979Y-87810500D01*
X170069980Y-87810499D01*
X170207245Y-87783196D01*
X170336548Y-87729637D01*
X170336550Y-87729636D01*
X170394341Y-87691020D01*
X170452917Y-87651882D01*
X170551882Y-87552917D01*
X170591020Y-87494341D01*
X170629636Y-87436550D01*
X170629638Y-87436546D01*
X170660504Y-87362028D01*
X170683196Y-87307245D01*
X170710500Y-87169978D01*
X170710500Y-87030022D01*
X170710144Y-87028236D01*
X170683199Y-86892768D01*
X170683197Y-86892762D01*
X170683196Y-86892755D01*
X170683192Y-86892746D01*
X170682952Y-86891954D01*
X170682947Y-86891505D01*
X170682008Y-86886780D01*
X170682903Y-86886601D01*
X170682319Y-86822087D01*
X170719560Y-86762969D01*
X170782850Y-86733370D01*
X170852096Y-86742687D01*
X170904710Y-86787052D01*
X170948506Y-86852597D01*
X170948509Y-86852601D01*
X171047399Y-86951491D01*
X171163690Y-87029194D01*
X171292900Y-87082714D01*
X171292906Y-87082716D01*
X171430068Y-87110000D01*
X171569931Y-87110000D01*
X171707093Y-87082716D01*
X171707099Y-87082714D01*
X171836309Y-87029194D01*
X171952600Y-86951491D01*
X172051491Y-86852600D01*
X172129194Y-86736309D01*
X172182714Y-86607099D01*
X172182716Y-86607093D01*
X172210000Y-86469931D01*
X172210000Y-86362325D01*
X181959399Y-86362325D01*
X181959399Y-86597670D01*
X181996212Y-86830097D01*
X181996213Y-86830101D01*
X182061170Y-87030017D01*
X182068937Y-87053919D01*
X182148366Y-87209808D01*
X182175775Y-87263601D01*
X182314101Y-87453990D01*
X182480507Y-87620396D01*
X182670896Y-87758722D01*
X182880580Y-87865561D01*
X183104396Y-87938284D01*
X183191559Y-87952089D01*
X183336827Y-87975098D01*
X183336832Y-87975098D01*
X183572171Y-87975098D01*
X183701297Y-87954645D01*
X183804602Y-87938284D01*
X184028418Y-87865561D01*
X184238102Y-87758722D01*
X184428491Y-87620396D01*
X184594897Y-87453990D01*
X184733223Y-87263601D01*
X184840062Y-87053917D01*
X184912785Y-86830101D01*
X184933077Y-86701983D01*
X184949599Y-86597670D01*
X184949599Y-86362325D01*
X213159399Y-86362325D01*
X213159399Y-86597670D01*
X213196212Y-86830097D01*
X213196213Y-86830101D01*
X213261170Y-87030017D01*
X213268937Y-87053919D01*
X213348366Y-87209808D01*
X213375775Y-87263601D01*
X213514101Y-87453990D01*
X213680507Y-87620396D01*
X213870896Y-87758722D01*
X214080580Y-87865561D01*
X214304396Y-87938284D01*
X214391559Y-87952089D01*
X214536827Y-87975098D01*
X214536832Y-87975098D01*
X214772171Y-87975098D01*
X214901297Y-87954645D01*
X215004602Y-87938284D01*
X215228418Y-87865561D01*
X215438102Y-87758722D01*
X215628491Y-87620396D01*
X215794897Y-87453990D01*
X215933223Y-87263601D01*
X216040062Y-87053917D01*
X216112785Y-86830101D01*
X216133077Y-86701983D01*
X216149599Y-86597670D01*
X216149599Y-86362325D01*
X216122465Y-86191015D01*
X216112785Y-86129895D01*
X216040062Y-85906079D01*
X215933223Y-85696395D01*
X215794897Y-85506006D01*
X215628491Y-85339600D01*
X215438102Y-85201274D01*
X215228418Y-85094435D01*
X215004602Y-85021712D01*
X215004600Y-85021711D01*
X215004598Y-85021711D01*
X214772171Y-84984898D01*
X214772166Y-84984898D01*
X214536832Y-84984898D01*
X214536827Y-84984898D01*
X214304399Y-85021711D01*
X214080577Y-85094436D01*
X213870895Y-85201274D01*
X213807851Y-85247079D01*
X213680507Y-85339600D01*
X213680505Y-85339602D01*
X213680504Y-85339602D01*
X213514103Y-85506003D01*
X213514103Y-85506004D01*
X213514101Y-85506006D01*
X213454695Y-85587770D01*
X213375775Y-85696394D01*
X213268937Y-85906076D01*
X213196212Y-86129898D01*
X213159399Y-86362325D01*
X184949599Y-86362325D01*
X184922465Y-86191015D01*
X184912785Y-86129895D01*
X184840062Y-85906079D01*
X184733223Y-85696395D01*
X184594897Y-85506006D01*
X184428491Y-85339600D01*
X184238102Y-85201274D01*
X184028418Y-85094435D01*
X183804602Y-85021712D01*
X183804600Y-85021711D01*
X183804598Y-85021711D01*
X183572171Y-84984898D01*
X183572166Y-84984898D01*
X183336832Y-84984898D01*
X183336827Y-84984898D01*
X183104399Y-85021711D01*
X182880577Y-85094436D01*
X182670895Y-85201274D01*
X182607851Y-85247079D01*
X182480507Y-85339600D01*
X182480505Y-85339602D01*
X182480504Y-85339602D01*
X182314103Y-85506003D01*
X182314103Y-85506004D01*
X182314101Y-85506006D01*
X182254695Y-85587770D01*
X182175775Y-85696394D01*
X182068937Y-85906076D01*
X181996212Y-86129898D01*
X181959399Y-86362325D01*
X172210000Y-86362325D01*
X172210000Y-86330068D01*
X172182716Y-86192906D01*
X172182714Y-86192900D01*
X172129194Y-86063690D01*
X172051491Y-85947399D01*
X171952600Y-85848508D01*
X171836309Y-85770805D01*
X171707099Y-85717285D01*
X171707093Y-85717283D01*
X171569931Y-85689999D01*
X171563869Y-85689403D01*
X171564102Y-85687036D01*
X171507156Y-85670315D01*
X171461401Y-85617511D01*
X171452578Y-85590192D01*
X171433197Y-85492760D01*
X171433196Y-85492759D01*
X171433196Y-85492755D01*
X171433194Y-85492750D01*
X171379638Y-85363453D01*
X171379636Y-85363449D01*
X171301885Y-85247087D01*
X171301879Y-85247079D01*
X171202920Y-85148120D01*
X171202912Y-85148114D01*
X171086550Y-85070363D01*
X171086546Y-85070361D01*
X170957249Y-85016805D01*
X170957237Y-85016802D01*
X170819982Y-84989500D01*
X170819978Y-84989500D01*
X170680022Y-84989500D01*
X170680017Y-84989500D01*
X170542762Y-85016802D01*
X170542750Y-85016805D01*
X170413453Y-85070361D01*
X170413449Y-85070363D01*
X170297087Y-85148114D01*
X170297079Y-85148120D01*
X170198120Y-85247079D01*
X170198114Y-85247087D01*
X170120363Y-85363449D01*
X170120361Y-85363453D01*
X170066805Y-85492750D01*
X170066802Y-85492762D01*
X170039500Y-85630017D01*
X170039500Y-85769982D01*
X170066802Y-85907240D01*
X170067050Y-85908056D01*
X170067054Y-85908504D01*
X170067992Y-85913220D01*
X170067097Y-85913397D01*
X170067676Y-85977923D01*
X170030430Y-86037038D01*
X169967137Y-86066631D01*
X169897892Y-86057307D01*
X169845289Y-86012947D01*
X169801493Y-85947401D01*
X169702600Y-85848508D01*
X169586309Y-85770805D01*
X169457099Y-85717285D01*
X169457093Y-85717283D01*
X169319931Y-85689999D01*
X169313869Y-85689403D01*
X169314102Y-85687036D01*
X169257156Y-85670315D01*
X169211401Y-85617511D01*
X169202578Y-85590192D01*
X169183197Y-85492760D01*
X169183196Y-85492759D01*
X169183196Y-85492755D01*
X169183194Y-85492750D01*
X169129638Y-85363453D01*
X169129636Y-85363449D01*
X169051885Y-85247087D01*
X169051879Y-85247079D01*
X168952920Y-85148120D01*
X168952912Y-85148114D01*
X168836550Y-85070363D01*
X168836546Y-85070361D01*
X168707249Y-85016805D01*
X168707237Y-85016802D01*
X168569982Y-84989500D01*
X168569978Y-84989500D01*
X168430022Y-84989500D01*
X168430017Y-84989500D01*
X168292762Y-85016802D01*
X168292750Y-85016805D01*
X168163453Y-85070361D01*
X168163449Y-85070363D01*
X168047087Y-85148114D01*
X168047079Y-85148120D01*
X167948120Y-85247079D01*
X167948114Y-85247087D01*
X167870363Y-85363449D01*
X167870361Y-85363453D01*
X167816805Y-85492750D01*
X167816802Y-85492762D01*
X167789500Y-85630017D01*
X167789500Y-85769982D01*
X167816802Y-85907240D01*
X167817050Y-85908056D01*
X167817054Y-85908504D01*
X167817992Y-85913220D01*
X167817097Y-85913397D01*
X167817676Y-85977923D01*
X167780430Y-86037038D01*
X167717137Y-86066631D01*
X167647892Y-86057307D01*
X167595289Y-86012947D01*
X167551493Y-85947401D01*
X167452600Y-85848508D01*
X167336309Y-85770805D01*
X167207099Y-85717285D01*
X167207093Y-85717283D01*
X167069931Y-85689999D01*
X167063869Y-85689403D01*
X167064102Y-85687036D01*
X167007156Y-85670315D01*
X166961401Y-85617511D01*
X166952578Y-85590192D01*
X166933197Y-85492760D01*
X166933196Y-85492759D01*
X166933196Y-85492755D01*
X166933194Y-85492750D01*
X166879638Y-85363453D01*
X166879636Y-85363449D01*
X166801885Y-85247087D01*
X166801879Y-85247079D01*
X166702920Y-85148120D01*
X166702912Y-85148114D01*
X166586550Y-85070363D01*
X166586546Y-85070361D01*
X166457249Y-85016805D01*
X166457237Y-85016802D01*
X166319982Y-84989500D01*
X166319978Y-84989500D01*
X166180022Y-84989500D01*
X166180017Y-84989500D01*
X166042762Y-85016802D01*
X166042750Y-85016805D01*
X165913453Y-85070361D01*
X165913449Y-85070363D01*
X165797087Y-85148114D01*
X165797079Y-85148120D01*
X165698120Y-85247079D01*
X165698114Y-85247087D01*
X165620363Y-85363449D01*
X165620361Y-85363453D01*
X165566805Y-85492750D01*
X165566802Y-85492762D01*
X165539500Y-85630017D01*
X165539500Y-85769982D01*
X165566802Y-85907237D01*
X165566805Y-85907249D01*
X165620361Y-86036546D01*
X165620363Y-86036550D01*
X165698114Y-86152912D01*
X165698120Y-86152920D01*
X165736215Y-86191015D01*
X165769700Y-86252338D01*
X165764716Y-86322030D01*
X165722844Y-86377963D01*
X165657380Y-86402380D01*
X165624344Y-86400314D01*
X165617509Y-86398954D01*
X165569978Y-86389500D01*
X165430022Y-86389500D01*
X165430017Y-86389500D01*
X165292762Y-86416802D01*
X165292750Y-86416805D01*
X165163453Y-86470361D01*
X165163449Y-86470363D01*
X165047087Y-86548114D01*
X165047079Y-86548120D01*
X164948120Y-86647079D01*
X164948114Y-86647087D01*
X164870363Y-86763449D01*
X164870361Y-86763453D01*
X164816805Y-86892750D01*
X164816802Y-86892762D01*
X164789500Y-87030017D01*
X161768990Y-87030017D01*
X161699464Y-86925965D01*
X161699461Y-86925961D01*
X161574038Y-86800538D01*
X161574034Y-86800535D01*
X161426553Y-86701990D01*
X161426540Y-86701983D01*
X161262667Y-86634106D01*
X161262658Y-86634103D01*
X161088694Y-86599500D01*
X161088691Y-86599500D01*
X160911309Y-86599500D01*
X160911306Y-86599500D01*
X160737341Y-86634103D01*
X160737332Y-86634106D01*
X160573459Y-86701983D01*
X160573446Y-86701990D01*
X160425965Y-86800535D01*
X160425961Y-86800538D01*
X160300538Y-86925961D01*
X160300535Y-86925965D01*
X160201990Y-87073446D01*
X160201983Y-87073459D01*
X160134106Y-87237332D01*
X160134104Y-87237340D01*
X160121617Y-87300118D01*
X160089232Y-87362028D01*
X160028516Y-87396603D01*
X159958747Y-87392863D01*
X159902075Y-87351996D01*
X159878383Y-87300118D01*
X159865895Y-87237340D01*
X159865894Y-87237334D01*
X159821305Y-87129685D01*
X159798016Y-87073459D01*
X159798009Y-87073446D01*
X159699464Y-86925965D01*
X159699461Y-86925961D01*
X159574038Y-86800538D01*
X159574034Y-86800535D01*
X159426553Y-86701990D01*
X159426540Y-86701983D01*
X159262667Y-86634106D01*
X159262658Y-86634103D01*
X159088694Y-86599500D01*
X159088691Y-86599500D01*
X158911309Y-86599500D01*
X158911306Y-86599500D01*
X158737341Y-86634103D01*
X158737332Y-86634106D01*
X158573459Y-86701983D01*
X158573446Y-86701990D01*
X158425965Y-86800535D01*
X158425961Y-86800538D01*
X158300538Y-86925961D01*
X158300535Y-86925965D01*
X158201990Y-87073446D01*
X158201983Y-87073459D01*
X158134106Y-87237332D01*
X158134103Y-87237341D01*
X158099500Y-87411304D01*
X153696411Y-87411304D01*
X153803724Y-87263601D01*
X153910563Y-87053917D01*
X153983286Y-86830101D01*
X154003578Y-86701983D01*
X154020100Y-86597670D01*
X154020100Y-86362325D01*
X153992966Y-86191015D01*
X153983286Y-86129895D01*
X153910563Y-85906079D01*
X153803724Y-85696395D01*
X153665398Y-85506006D01*
X153498992Y-85339600D01*
X153308603Y-85201274D01*
X153098919Y-85094435D01*
X152875103Y-85021712D01*
X152875101Y-85021711D01*
X152875099Y-85021711D01*
X152642672Y-84984898D01*
X152642667Y-84984898D01*
X152407333Y-84984898D01*
X152407328Y-84984898D01*
X152174900Y-85021711D01*
X151951078Y-85094436D01*
X151741396Y-85201274D01*
X151678352Y-85247079D01*
X151551008Y-85339600D01*
X151551006Y-85339602D01*
X151551005Y-85339602D01*
X151384604Y-85506003D01*
X151384604Y-85506004D01*
X151384602Y-85506006D01*
X151325196Y-85587770D01*
X151246276Y-85696394D01*
X151139438Y-85906076D01*
X151066713Y-86129898D01*
X151029900Y-86362325D01*
X123149599Y-86362325D01*
X123122465Y-86191015D01*
X123112785Y-86129895D01*
X123040062Y-85906079D01*
X122933223Y-85696395D01*
X122794897Y-85506006D01*
X122628491Y-85339600D01*
X122438102Y-85201274D01*
X122228418Y-85094435D01*
X122004602Y-85021712D01*
X122004600Y-85021711D01*
X122004598Y-85021711D01*
X121772171Y-84984898D01*
X121772166Y-84984898D01*
X121536832Y-84984898D01*
X121536827Y-84984898D01*
X121304399Y-85021711D01*
X121080577Y-85094436D01*
X120870895Y-85201274D01*
X120807851Y-85247079D01*
X120680507Y-85339600D01*
X120680505Y-85339602D01*
X120680504Y-85339602D01*
X120514103Y-85506003D01*
X120514103Y-85506004D01*
X120514101Y-85506006D01*
X120454695Y-85587770D01*
X120375775Y-85696394D01*
X120268937Y-85906076D01*
X120196212Y-86129898D01*
X120159399Y-86362325D01*
X108500500Y-86362325D01*
X108500500Y-81891746D01*
X161124500Y-81891746D01*
X161124500Y-82108253D01*
X161158370Y-82322098D01*
X161225272Y-82528006D01*
X161225273Y-82528009D01*
X161297587Y-82669931D01*
X161323567Y-82720919D01*
X161450828Y-82896078D01*
X161603922Y-83049172D01*
X161779081Y-83176433D01*
X161873697Y-83224642D01*
X161971990Y-83274726D01*
X161971993Y-83274727D01*
X162074947Y-83308178D01*
X162177903Y-83341630D01*
X162391746Y-83375500D01*
X162391747Y-83375500D01*
X162608253Y-83375500D01*
X162608254Y-83375500D01*
X162822097Y-83341630D01*
X163028009Y-83274726D01*
X163115755Y-83230017D01*
X164789500Y-83230017D01*
X164789500Y-83369982D01*
X164816802Y-83507237D01*
X164816805Y-83507249D01*
X164870361Y-83636546D01*
X164870363Y-83636550D01*
X164948114Y-83752912D01*
X164948120Y-83752920D01*
X165047079Y-83851879D01*
X165047087Y-83851885D01*
X165163449Y-83929636D01*
X165163453Y-83929638D01*
X165292750Y-83983194D01*
X165292755Y-83983196D01*
X165430017Y-84010499D01*
X165430021Y-84010500D01*
X165430022Y-84010500D01*
X165569979Y-84010500D01*
X165569980Y-84010499D01*
X165707245Y-83983196D01*
X165836548Y-83929637D01*
X165836550Y-83929636D01*
X165894341Y-83891020D01*
X165952917Y-83851882D01*
X166051882Y-83752917D01*
X166129637Y-83636548D01*
X166183196Y-83507245D01*
X166210500Y-83369978D01*
X166210500Y-83230022D01*
X166199840Y-83176432D01*
X166183199Y-83092768D01*
X166183197Y-83092762D01*
X166183196Y-83092755D01*
X166183192Y-83092746D01*
X166182952Y-83091954D01*
X166182947Y-83091505D01*
X166182008Y-83086780D01*
X166182903Y-83086601D01*
X166182319Y-83022087D01*
X166219560Y-82962969D01*
X166282850Y-82933370D01*
X166352096Y-82942687D01*
X166404710Y-82987052D01*
X166448506Y-83052597D01*
X166448509Y-83052601D01*
X166547399Y-83151491D01*
X166663690Y-83229194D01*
X166792900Y-83282714D01*
X166792906Y-83282716D01*
X166930068Y-83310000D01*
X166936131Y-83310597D01*
X166935897Y-83312963D01*
X166992844Y-83329685D01*
X167038599Y-83382489D01*
X167047422Y-83409808D01*
X167066802Y-83507239D01*
X167066805Y-83507249D01*
X167120361Y-83636546D01*
X167120363Y-83636550D01*
X167198114Y-83752912D01*
X167198120Y-83752920D01*
X167297079Y-83851879D01*
X167297087Y-83851885D01*
X167413449Y-83929636D01*
X167413453Y-83929638D01*
X167542750Y-83983194D01*
X167542755Y-83983196D01*
X167680017Y-84010499D01*
X167680021Y-84010500D01*
X167680022Y-84010500D01*
X167819979Y-84010500D01*
X167819980Y-84010499D01*
X167957245Y-83983196D01*
X168086548Y-83929637D01*
X168086550Y-83929636D01*
X168144341Y-83891020D01*
X168202917Y-83851882D01*
X168301882Y-83752917D01*
X168379637Y-83636548D01*
X168433196Y-83507245D01*
X168460500Y-83369978D01*
X168460500Y-83230022D01*
X168449840Y-83176432D01*
X168433199Y-83092768D01*
X168433197Y-83092762D01*
X168433196Y-83092755D01*
X168433192Y-83092746D01*
X168432952Y-83091954D01*
X168432947Y-83091505D01*
X168432008Y-83086780D01*
X168432903Y-83086601D01*
X168432319Y-83022087D01*
X168469560Y-82962969D01*
X168532850Y-82933370D01*
X168602096Y-82942687D01*
X168654710Y-82987052D01*
X168698506Y-83052597D01*
X168698509Y-83052601D01*
X168797399Y-83151491D01*
X168913690Y-83229194D01*
X169042900Y-83282714D01*
X169042906Y-83282716D01*
X169180068Y-83310000D01*
X169186131Y-83310597D01*
X169185897Y-83312963D01*
X169242844Y-83329685D01*
X169288599Y-83382489D01*
X169297422Y-83409808D01*
X169316802Y-83507239D01*
X169316805Y-83507249D01*
X169370361Y-83636546D01*
X169370363Y-83636550D01*
X169448114Y-83752912D01*
X169448120Y-83752920D01*
X169547079Y-83851879D01*
X169547087Y-83851885D01*
X169663449Y-83929636D01*
X169663453Y-83929638D01*
X169792750Y-83983194D01*
X169792755Y-83983196D01*
X169930017Y-84010499D01*
X169930021Y-84010500D01*
X169930022Y-84010500D01*
X170069979Y-84010500D01*
X170069980Y-84010499D01*
X170207245Y-83983196D01*
X170336548Y-83929637D01*
X170336550Y-83929636D01*
X170394341Y-83891020D01*
X170452917Y-83851882D01*
X170551882Y-83752917D01*
X170629637Y-83636548D01*
X170683196Y-83507245D01*
X170710500Y-83369978D01*
X170710500Y-83230022D01*
X170699840Y-83176432D01*
X170683199Y-83092768D01*
X170683197Y-83092762D01*
X170683196Y-83092755D01*
X170683192Y-83092746D01*
X170682952Y-83091954D01*
X170682947Y-83091505D01*
X170682008Y-83086780D01*
X170682903Y-83086601D01*
X170682319Y-83022087D01*
X170719560Y-82962969D01*
X170782850Y-82933370D01*
X170852096Y-82942687D01*
X170904710Y-82987052D01*
X170948506Y-83052597D01*
X170948509Y-83052601D01*
X171047399Y-83151491D01*
X171163690Y-83229194D01*
X171292900Y-83282714D01*
X171292906Y-83282716D01*
X171430068Y-83310000D01*
X171569931Y-83310000D01*
X171707093Y-83282716D01*
X171707099Y-83282714D01*
X171836309Y-83229194D01*
X171952600Y-83151491D01*
X172051491Y-83052600D01*
X172129194Y-82936309D01*
X172182714Y-82807099D01*
X172182716Y-82807093D01*
X172210000Y-82669931D01*
X172210000Y-82530068D01*
X172182716Y-82392906D01*
X172182714Y-82392900D01*
X172129194Y-82263690D01*
X172051491Y-82147399D01*
X171952601Y-82048509D01*
X171952593Y-82048503D01*
X171865075Y-81990025D01*
X171865001Y-81989977D01*
X171836309Y-81970806D01*
X171707099Y-81917285D01*
X171707093Y-81917283D01*
X171578714Y-81891746D01*
X173124500Y-81891746D01*
X173124500Y-82108253D01*
X173158370Y-82322098D01*
X173225272Y-82528006D01*
X173225273Y-82528009D01*
X173297587Y-82669931D01*
X173323567Y-82720919D01*
X173450828Y-82896078D01*
X173603922Y-83049172D01*
X173779081Y-83176433D01*
X173873697Y-83224642D01*
X173971990Y-83274726D01*
X173971993Y-83274727D01*
X174074947Y-83308178D01*
X174177903Y-83341630D01*
X174391746Y-83375500D01*
X174391747Y-83375500D01*
X174608253Y-83375500D01*
X174608254Y-83375500D01*
X174822097Y-83341630D01*
X175028009Y-83274726D01*
X175220919Y-83176433D01*
X175396078Y-83049172D01*
X175549172Y-82896078D01*
X175676433Y-82720919D01*
X175774726Y-82528009D01*
X175841630Y-82322097D01*
X175875500Y-82108254D01*
X175875500Y-81891746D01*
X175841630Y-81677903D01*
X175778774Y-81484450D01*
X175774727Y-81471993D01*
X175774726Y-81471990D01*
X175692434Y-81310485D01*
X175676433Y-81279081D01*
X175549172Y-81103922D01*
X175396078Y-80950828D01*
X175220919Y-80823567D01*
X175028009Y-80725273D01*
X175028006Y-80725272D01*
X174822098Y-80658370D01*
X174715175Y-80641435D01*
X174608254Y-80624500D01*
X174391746Y-80624500D01*
X174320465Y-80635790D01*
X174177901Y-80658370D01*
X173971993Y-80725272D01*
X173971990Y-80725273D01*
X173779080Y-80823567D01*
X173679145Y-80896174D01*
X173603922Y-80950828D01*
X173603920Y-80950830D01*
X173603919Y-80950830D01*
X173450830Y-81103919D01*
X173450830Y-81103920D01*
X173450828Y-81103922D01*
X173396174Y-81179145D01*
X173323567Y-81279080D01*
X173225273Y-81471990D01*
X173225272Y-81471993D01*
X173158370Y-81677901D01*
X173124500Y-81891746D01*
X171578714Y-81891746D01*
X171569931Y-81889999D01*
X171563869Y-81889403D01*
X171564102Y-81887036D01*
X171507156Y-81870315D01*
X171461401Y-81817511D01*
X171452578Y-81790192D01*
X171433197Y-81692760D01*
X171433196Y-81692759D01*
X171433196Y-81692755D01*
X171420390Y-81661839D01*
X171379638Y-81563453D01*
X171379636Y-81563449D01*
X171301885Y-81447087D01*
X171301879Y-81447079D01*
X171202920Y-81348120D01*
X171202912Y-81348114D01*
X171086550Y-81270363D01*
X171086546Y-81270361D01*
X170957249Y-81216805D01*
X170957237Y-81216802D01*
X170819982Y-81189500D01*
X170819978Y-81189500D01*
X170680022Y-81189500D01*
X170680017Y-81189500D01*
X170542762Y-81216802D01*
X170542750Y-81216805D01*
X170413453Y-81270361D01*
X170413449Y-81270363D01*
X170297087Y-81348114D01*
X170297079Y-81348120D01*
X170198120Y-81447079D01*
X170198114Y-81447087D01*
X170120363Y-81563449D01*
X170120361Y-81563453D01*
X170066805Y-81692750D01*
X170066802Y-81692762D01*
X170039500Y-81830017D01*
X170039500Y-81969982D01*
X170066802Y-82107240D01*
X170067050Y-82108056D01*
X170067054Y-82108504D01*
X170067992Y-82113220D01*
X170067097Y-82113397D01*
X170067676Y-82177923D01*
X170030430Y-82237038D01*
X169967137Y-82266631D01*
X169897892Y-82257307D01*
X169845289Y-82212947D01*
X169801493Y-82147401D01*
X169702600Y-82048508D01*
X169586309Y-81970805D01*
X169457099Y-81917285D01*
X169457093Y-81917283D01*
X169319931Y-81889999D01*
X169313869Y-81889403D01*
X169314102Y-81887036D01*
X169257156Y-81870315D01*
X169211401Y-81817511D01*
X169202578Y-81790192D01*
X169183197Y-81692760D01*
X169183196Y-81692759D01*
X169183196Y-81692755D01*
X169170390Y-81661839D01*
X169129638Y-81563453D01*
X169129636Y-81563449D01*
X169051885Y-81447087D01*
X169051879Y-81447079D01*
X168952920Y-81348120D01*
X168952912Y-81348114D01*
X168836550Y-81270363D01*
X168836546Y-81270361D01*
X168707249Y-81216805D01*
X168707237Y-81216802D01*
X168569982Y-81189500D01*
X168569978Y-81189500D01*
X168430022Y-81189500D01*
X168430017Y-81189500D01*
X168292762Y-81216802D01*
X168292750Y-81216805D01*
X168163453Y-81270361D01*
X168163449Y-81270363D01*
X168047087Y-81348114D01*
X168047079Y-81348120D01*
X167948120Y-81447079D01*
X167948114Y-81447087D01*
X167870363Y-81563449D01*
X167870361Y-81563453D01*
X167816805Y-81692750D01*
X167816802Y-81692762D01*
X167789500Y-81830017D01*
X167789500Y-81969982D01*
X167816802Y-82107240D01*
X167817050Y-82108056D01*
X167817054Y-82108504D01*
X167817992Y-82113220D01*
X167817097Y-82113397D01*
X167817676Y-82177923D01*
X167780430Y-82237038D01*
X167717137Y-82266631D01*
X167647892Y-82257307D01*
X167595289Y-82212947D01*
X167551493Y-82147401D01*
X167452600Y-82048508D01*
X167336309Y-81970805D01*
X167207099Y-81917285D01*
X167207093Y-81917283D01*
X167069931Y-81889999D01*
X167063869Y-81889403D01*
X167064102Y-81887036D01*
X167007156Y-81870315D01*
X166961401Y-81817511D01*
X166952578Y-81790192D01*
X166933197Y-81692760D01*
X166933196Y-81692759D01*
X166933196Y-81692755D01*
X166920390Y-81661839D01*
X166879638Y-81563453D01*
X166879636Y-81563449D01*
X166801885Y-81447087D01*
X166801879Y-81447079D01*
X166702920Y-81348120D01*
X166702912Y-81348114D01*
X166586550Y-81270363D01*
X166586546Y-81270361D01*
X166457249Y-81216805D01*
X166457237Y-81216802D01*
X166319982Y-81189500D01*
X166319978Y-81189500D01*
X166180022Y-81189500D01*
X166180017Y-81189500D01*
X166042762Y-81216802D01*
X166042750Y-81216805D01*
X165913453Y-81270361D01*
X165913449Y-81270363D01*
X165797087Y-81348114D01*
X165797079Y-81348120D01*
X165698120Y-81447079D01*
X165698114Y-81447087D01*
X165620363Y-81563449D01*
X165620361Y-81563453D01*
X165566805Y-81692750D01*
X165566802Y-81692762D01*
X165539500Y-81830017D01*
X165539500Y-81969982D01*
X165566802Y-82107237D01*
X165566805Y-82107249D01*
X165620361Y-82236546D01*
X165620363Y-82236550D01*
X165698114Y-82352912D01*
X165698120Y-82352920D01*
X165736215Y-82391015D01*
X165769700Y-82452338D01*
X165764716Y-82522030D01*
X165722844Y-82577963D01*
X165657380Y-82602380D01*
X165624344Y-82600314D01*
X165617509Y-82598954D01*
X165569978Y-82589500D01*
X165430022Y-82589500D01*
X165430017Y-82589500D01*
X165292762Y-82616802D01*
X165292750Y-82616805D01*
X165163453Y-82670361D01*
X165163449Y-82670363D01*
X165047087Y-82748114D01*
X165047079Y-82748120D01*
X164948120Y-82847079D01*
X164948114Y-82847087D01*
X164870363Y-82963449D01*
X164870361Y-82963453D01*
X164816805Y-83092750D01*
X164816802Y-83092762D01*
X164789500Y-83230017D01*
X163115755Y-83230017D01*
X163220919Y-83176433D01*
X163396078Y-83049172D01*
X163549172Y-82896078D01*
X163676433Y-82720919D01*
X163774726Y-82528009D01*
X163841630Y-82322097D01*
X163875500Y-82108254D01*
X163875500Y-81891746D01*
X163841630Y-81677903D01*
X163778774Y-81484450D01*
X163774727Y-81471993D01*
X163774726Y-81471990D01*
X163692434Y-81310485D01*
X163676433Y-81279081D01*
X163549172Y-81103922D01*
X163396078Y-80950828D01*
X163220919Y-80823567D01*
X163028009Y-80725273D01*
X163028006Y-80725272D01*
X162822098Y-80658370D01*
X162715175Y-80641435D01*
X162608254Y-80624500D01*
X162391746Y-80624500D01*
X162320465Y-80635790D01*
X162177901Y-80658370D01*
X161971993Y-80725272D01*
X161971990Y-80725273D01*
X161779080Y-80823567D01*
X161679145Y-80896174D01*
X161603922Y-80950828D01*
X161603920Y-80950830D01*
X161603919Y-80950830D01*
X161450830Y-81103919D01*
X161450830Y-81103920D01*
X161450828Y-81103922D01*
X161396174Y-81179145D01*
X161323567Y-81279080D01*
X161225273Y-81471990D01*
X161225272Y-81471993D01*
X161158370Y-81677901D01*
X161124500Y-81891746D01*
X108500500Y-81891746D01*
X108500500Y-80484448D01*
X209906080Y-80484448D01*
X209906080Y-80661839D01*
X209940683Y-80835802D01*
X209940686Y-80835811D01*
X210008563Y-80999684D01*
X210008570Y-80999697D01*
X210011617Y-81004257D01*
X210032492Y-81070936D01*
X210014005Y-81138315D01*
X210011617Y-81142031D01*
X210008570Y-81146590D01*
X210008563Y-81146603D01*
X209940686Y-81310476D01*
X209940683Y-81310485D01*
X209906080Y-81484448D01*
X209906080Y-81661839D01*
X209940683Y-81835802D01*
X209940686Y-81835811D01*
X210008563Y-81999684D01*
X210008570Y-81999697D01*
X210107115Y-82147178D01*
X210107118Y-82147182D01*
X210232541Y-82272605D01*
X210232545Y-82272608D01*
X210380026Y-82371153D01*
X210380039Y-82371160D01*
X210432540Y-82392906D01*
X210543914Y-82439038D01*
X210543916Y-82439038D01*
X210543921Y-82439040D01*
X210717884Y-82473643D01*
X210717887Y-82473644D01*
X210717889Y-82473644D01*
X210895273Y-82473644D01*
X210895274Y-82473643D01*
X210953262Y-82462108D01*
X211069238Y-82439040D01*
X211069241Y-82439038D01*
X211069246Y-82439038D01*
X211233127Y-82371157D01*
X211380615Y-82272608D01*
X211506044Y-82147179D01*
X211604593Y-81999691D01*
X211672474Y-81835810D01*
X211673626Y-81830022D01*
X211700929Y-81692760D01*
X211707080Y-81661835D01*
X211707080Y-81484453D01*
X211707080Y-81484450D01*
X211707079Y-81484448D01*
X211672476Y-81310485D01*
X211672473Y-81310476D01*
X211604595Y-81146601D01*
X211604594Y-81146599D01*
X211604593Y-81146597D01*
X211601545Y-81142036D01*
X211580666Y-81075361D01*
X211599149Y-81007981D01*
X211601542Y-81004257D01*
X211604593Y-80999691D01*
X211672474Y-80835810D01*
X211674910Y-80823567D01*
X211707079Y-80661839D01*
X211707080Y-80661837D01*
X211707080Y-80484450D01*
X211707079Y-80484448D01*
X211672476Y-80310485D01*
X211672473Y-80310476D01*
X211604596Y-80146603D01*
X211604589Y-80146590D01*
X211506044Y-79999109D01*
X211506041Y-79999105D01*
X211380618Y-79873682D01*
X211380614Y-79873679D01*
X211233133Y-79775134D01*
X211233120Y-79775127D01*
X211069247Y-79707250D01*
X211069238Y-79707247D01*
X210895274Y-79672644D01*
X210895271Y-79672644D01*
X210717889Y-79672644D01*
X210717886Y-79672644D01*
X210543921Y-79707247D01*
X210543912Y-79707250D01*
X210380039Y-79775127D01*
X210380026Y-79775134D01*
X210232545Y-79873679D01*
X210232541Y-79873682D01*
X210107118Y-79999105D01*
X210107115Y-79999109D01*
X210008570Y-80146590D01*
X210008563Y-80146603D01*
X209940686Y-80310476D01*
X209940683Y-80310485D01*
X209906080Y-80484448D01*
X108500500Y-80484448D01*
X108500500Y-76711304D01*
X121299500Y-76711304D01*
X121299500Y-76888695D01*
X121334103Y-77062658D01*
X121334106Y-77062667D01*
X121401983Y-77226540D01*
X121401990Y-77226553D01*
X121405037Y-77231113D01*
X121425912Y-77297792D01*
X121407425Y-77365171D01*
X121405037Y-77368887D01*
X121401990Y-77373446D01*
X121401983Y-77373459D01*
X121334106Y-77537332D01*
X121334103Y-77537341D01*
X121299500Y-77711304D01*
X121299500Y-77888695D01*
X121334103Y-78062658D01*
X121334106Y-78062667D01*
X121401983Y-78226540D01*
X121401990Y-78226553D01*
X121500535Y-78374034D01*
X121500538Y-78374038D01*
X121625961Y-78499461D01*
X121625965Y-78499464D01*
X121773446Y-78598009D01*
X121773459Y-78598016D01*
X121896363Y-78648923D01*
X121937334Y-78665894D01*
X121937336Y-78665894D01*
X121937341Y-78665896D01*
X122111304Y-78700499D01*
X122111307Y-78700500D01*
X122111309Y-78700500D01*
X122288693Y-78700500D01*
X122288694Y-78700499D01*
X122346682Y-78688964D01*
X122462658Y-78665896D01*
X122462661Y-78665894D01*
X122462666Y-78665894D01*
X122626547Y-78598013D01*
X122774035Y-78499464D01*
X122899464Y-78374035D01*
X122998013Y-78226547D01*
X123065894Y-78062666D01*
X123100500Y-77888691D01*
X123100500Y-77711309D01*
X123100500Y-77711306D01*
X123100499Y-77711304D01*
X123065896Y-77537341D01*
X123065893Y-77537332D01*
X122998015Y-77373457D01*
X122998014Y-77373455D01*
X122998013Y-77373453D01*
X122994965Y-77368892D01*
X122974086Y-77302217D01*
X122992569Y-77234837D01*
X122994962Y-77231113D01*
X122998013Y-77226547D01*
X123065894Y-77062666D01*
X123100500Y-76888691D01*
X123100500Y-76711309D01*
X123100500Y-76711306D01*
X123100499Y-76711304D01*
X209499500Y-76711304D01*
X209499500Y-76888695D01*
X209534103Y-77062658D01*
X209534106Y-77062667D01*
X209601983Y-77226540D01*
X209601990Y-77226553D01*
X209605037Y-77231113D01*
X209625912Y-77297792D01*
X209607425Y-77365171D01*
X209605037Y-77368887D01*
X209601990Y-77373446D01*
X209601983Y-77373459D01*
X209534106Y-77537332D01*
X209534103Y-77537341D01*
X209499500Y-77711304D01*
X209499500Y-77888695D01*
X209534103Y-78062658D01*
X209534106Y-78062667D01*
X209601983Y-78226540D01*
X209601990Y-78226553D01*
X209700535Y-78374034D01*
X209700538Y-78374038D01*
X209825961Y-78499461D01*
X209825965Y-78499464D01*
X209973446Y-78598009D01*
X209973459Y-78598016D01*
X210096363Y-78648923D01*
X210137334Y-78665894D01*
X210137336Y-78665894D01*
X210137341Y-78665896D01*
X210311304Y-78700499D01*
X210311307Y-78700500D01*
X210311309Y-78700500D01*
X210488693Y-78700500D01*
X210488694Y-78700499D01*
X210546682Y-78688964D01*
X210662658Y-78665896D01*
X210662661Y-78665894D01*
X210662666Y-78665894D01*
X210826547Y-78598013D01*
X210974035Y-78499464D01*
X211099464Y-78374035D01*
X211198013Y-78226547D01*
X211265894Y-78062666D01*
X211300500Y-77888691D01*
X211300500Y-77711309D01*
X211300500Y-77711306D01*
X211300499Y-77711304D01*
X211265896Y-77537341D01*
X211265893Y-77537332D01*
X211198015Y-77373457D01*
X211198014Y-77373455D01*
X211198013Y-77373453D01*
X211194965Y-77368892D01*
X211174086Y-77302217D01*
X211192569Y-77234837D01*
X211194962Y-77231113D01*
X211198013Y-77226547D01*
X211265894Y-77062666D01*
X211300500Y-76888691D01*
X211300500Y-76711309D01*
X211300500Y-76711306D01*
X211300499Y-76711304D01*
X211265896Y-76537341D01*
X211265893Y-76537332D01*
X211198016Y-76373459D01*
X211198009Y-76373446D01*
X211099464Y-76225965D01*
X211099461Y-76225961D01*
X210974038Y-76100538D01*
X210974034Y-76100535D01*
X210826553Y-76001990D01*
X210826540Y-76001983D01*
X210662667Y-75934106D01*
X210662658Y-75934103D01*
X210488694Y-75899500D01*
X210488691Y-75899500D01*
X210311309Y-75899500D01*
X210311306Y-75899500D01*
X210137341Y-75934103D01*
X210137332Y-75934106D01*
X209973459Y-76001983D01*
X209973446Y-76001990D01*
X209825965Y-76100535D01*
X209825961Y-76100538D01*
X209700538Y-76225961D01*
X209700535Y-76225965D01*
X209601990Y-76373446D01*
X209601983Y-76373459D01*
X209534106Y-76537332D01*
X209534103Y-76537341D01*
X209499500Y-76711304D01*
X123100499Y-76711304D01*
X123065896Y-76537341D01*
X123065893Y-76537332D01*
X122998016Y-76373459D01*
X122998009Y-76373446D01*
X122899464Y-76225965D01*
X122899461Y-76225961D01*
X122774038Y-76100538D01*
X122774034Y-76100535D01*
X122626553Y-76001990D01*
X122626540Y-76001983D01*
X122462667Y-75934106D01*
X122462658Y-75934103D01*
X122288694Y-75899500D01*
X122288691Y-75899500D01*
X122111309Y-75899500D01*
X122111306Y-75899500D01*
X121937341Y-75934103D01*
X121937332Y-75934106D01*
X121773459Y-76001983D01*
X121773446Y-76001990D01*
X121625965Y-76100535D01*
X121625961Y-76100538D01*
X121500538Y-76225961D01*
X121500535Y-76225965D01*
X121401990Y-76373446D01*
X121401983Y-76373459D01*
X121334106Y-76537332D01*
X121334103Y-76537341D01*
X121299500Y-76711304D01*
X108500500Y-76711304D01*
X108500500Y-68911304D01*
X140099500Y-68911304D01*
X140099500Y-69088695D01*
X140134103Y-69262658D01*
X140134106Y-69262667D01*
X140201983Y-69426540D01*
X140201990Y-69426553D01*
X140300535Y-69574034D01*
X140300538Y-69574038D01*
X140425961Y-69699461D01*
X140425965Y-69699464D01*
X140573446Y-69798009D01*
X140573459Y-69798016D01*
X140696363Y-69848923D01*
X140737334Y-69865894D01*
X140737336Y-69865894D01*
X140737341Y-69865896D01*
X140911304Y-69900499D01*
X140911307Y-69900500D01*
X140911309Y-69900500D01*
X141088693Y-69900500D01*
X141088694Y-69900499D01*
X141146682Y-69888964D01*
X141262658Y-69865896D01*
X141262661Y-69865894D01*
X141262666Y-69865894D01*
X141426547Y-69798013D01*
X141574035Y-69699464D01*
X141699464Y-69574035D01*
X141798013Y-69426547D01*
X141865894Y-69262666D01*
X141900500Y-69088691D01*
X141900500Y-68911309D01*
X141900500Y-68911306D01*
X141900499Y-68911304D01*
X160099500Y-68911304D01*
X160099500Y-69088695D01*
X160134103Y-69262658D01*
X160134106Y-69262667D01*
X160201983Y-69426540D01*
X160201990Y-69426553D01*
X160300535Y-69574034D01*
X160300538Y-69574038D01*
X160425961Y-69699461D01*
X160425965Y-69699464D01*
X160573446Y-69798009D01*
X160573459Y-69798016D01*
X160696363Y-69848923D01*
X160737334Y-69865894D01*
X160737336Y-69865894D01*
X160737341Y-69865896D01*
X160911304Y-69900499D01*
X160911307Y-69900500D01*
X160911309Y-69900500D01*
X161088693Y-69900500D01*
X161088694Y-69900499D01*
X161146682Y-69888964D01*
X161262658Y-69865896D01*
X161262661Y-69865894D01*
X161262666Y-69865894D01*
X161426547Y-69798013D01*
X161574035Y-69699464D01*
X161699464Y-69574035D01*
X161798013Y-69426547D01*
X161865894Y-69262666D01*
X161900500Y-69088691D01*
X161900500Y-68911309D01*
X161900500Y-68911306D01*
X161900499Y-68911304D01*
X191099500Y-68911304D01*
X191099500Y-69088695D01*
X191134103Y-69262658D01*
X191134106Y-69262667D01*
X191201983Y-69426540D01*
X191201990Y-69426553D01*
X191300535Y-69574034D01*
X191300538Y-69574038D01*
X191425961Y-69699461D01*
X191425965Y-69699464D01*
X191573446Y-69798009D01*
X191573459Y-69798016D01*
X191696363Y-69848923D01*
X191737334Y-69865894D01*
X191737336Y-69865894D01*
X191737341Y-69865896D01*
X191911304Y-69900499D01*
X191911307Y-69900500D01*
X191911309Y-69900500D01*
X192088693Y-69900500D01*
X192088694Y-69900499D01*
X192146682Y-69888964D01*
X192262658Y-69865896D01*
X192262661Y-69865894D01*
X192262666Y-69865894D01*
X192426547Y-69798013D01*
X192574035Y-69699464D01*
X192699464Y-69574035D01*
X192798013Y-69426547D01*
X192865894Y-69262666D01*
X192900500Y-69088691D01*
X192900500Y-68911309D01*
X192900500Y-68911306D01*
X192900499Y-68911304D01*
X222599500Y-68911304D01*
X222599500Y-69088695D01*
X222634103Y-69262658D01*
X222634106Y-69262667D01*
X222701983Y-69426540D01*
X222701990Y-69426553D01*
X222800535Y-69574034D01*
X222800538Y-69574038D01*
X222925961Y-69699461D01*
X222925965Y-69699464D01*
X223073446Y-69798009D01*
X223073459Y-69798016D01*
X223196363Y-69848923D01*
X223237334Y-69865894D01*
X223237336Y-69865894D01*
X223237341Y-69865896D01*
X223411304Y-69900499D01*
X223411307Y-69900500D01*
X223411309Y-69900500D01*
X223588693Y-69900500D01*
X223588694Y-69900499D01*
X223646682Y-69888964D01*
X223762658Y-69865896D01*
X223762661Y-69865894D01*
X223762666Y-69865894D01*
X223926547Y-69798013D01*
X224074035Y-69699464D01*
X224199464Y-69574035D01*
X224298013Y-69426547D01*
X224365894Y-69262666D01*
X224400500Y-69088691D01*
X224400500Y-68911309D01*
X224400500Y-68911306D01*
X224400499Y-68911304D01*
X224365896Y-68737341D01*
X224365893Y-68737332D01*
X224298016Y-68573459D01*
X224298009Y-68573446D01*
X224199464Y-68425965D01*
X224199461Y-68425961D01*
X224074038Y-68300538D01*
X224074034Y-68300535D01*
X223926553Y-68201990D01*
X223926540Y-68201983D01*
X223762667Y-68134106D01*
X223762658Y-68134103D01*
X223588694Y-68099500D01*
X223588691Y-68099500D01*
X223411309Y-68099500D01*
X223411306Y-68099500D01*
X223237341Y-68134103D01*
X223237332Y-68134106D01*
X223073459Y-68201983D01*
X223073446Y-68201990D01*
X222925965Y-68300535D01*
X222925961Y-68300538D01*
X222800538Y-68425961D01*
X222800535Y-68425965D01*
X222701990Y-68573446D01*
X222701983Y-68573459D01*
X222634106Y-68737332D01*
X222634103Y-68737341D01*
X222599500Y-68911304D01*
X192900499Y-68911304D01*
X192865896Y-68737341D01*
X192865893Y-68737332D01*
X192798016Y-68573459D01*
X192798009Y-68573446D01*
X192699464Y-68425965D01*
X192699461Y-68425961D01*
X192574038Y-68300538D01*
X192574034Y-68300535D01*
X192426553Y-68201990D01*
X192426540Y-68201983D01*
X192262667Y-68134106D01*
X192262658Y-68134103D01*
X192088694Y-68099500D01*
X192088691Y-68099500D01*
X191911309Y-68099500D01*
X191911306Y-68099500D01*
X191737341Y-68134103D01*
X191737332Y-68134106D01*
X191573459Y-68201983D01*
X191573446Y-68201990D01*
X191425965Y-68300535D01*
X191425961Y-68300538D01*
X191300538Y-68425961D01*
X191300535Y-68425965D01*
X191201990Y-68573446D01*
X191201983Y-68573459D01*
X191134106Y-68737332D01*
X191134103Y-68737341D01*
X191099500Y-68911304D01*
X161900499Y-68911304D01*
X161865896Y-68737341D01*
X161865893Y-68737332D01*
X161798016Y-68573459D01*
X161798009Y-68573446D01*
X161699464Y-68425965D01*
X161699461Y-68425961D01*
X161574038Y-68300538D01*
X161574034Y-68300535D01*
X161426553Y-68201990D01*
X161426540Y-68201983D01*
X161262667Y-68134106D01*
X161262658Y-68134103D01*
X161088694Y-68099500D01*
X161088691Y-68099500D01*
X160911309Y-68099500D01*
X160911306Y-68099500D01*
X160737341Y-68134103D01*
X160737332Y-68134106D01*
X160573459Y-68201983D01*
X160573446Y-68201990D01*
X160425965Y-68300535D01*
X160425961Y-68300538D01*
X160300538Y-68425961D01*
X160300535Y-68425965D01*
X160201990Y-68573446D01*
X160201983Y-68573459D01*
X160134106Y-68737332D01*
X160134103Y-68737341D01*
X160099500Y-68911304D01*
X141900499Y-68911304D01*
X141865896Y-68737341D01*
X141865893Y-68737332D01*
X141798016Y-68573459D01*
X141798009Y-68573446D01*
X141699464Y-68425965D01*
X141699461Y-68425961D01*
X141574038Y-68300538D01*
X141574034Y-68300535D01*
X141426553Y-68201990D01*
X141426540Y-68201983D01*
X141262667Y-68134106D01*
X141262658Y-68134103D01*
X141088694Y-68099500D01*
X141088691Y-68099500D01*
X140911309Y-68099500D01*
X140911306Y-68099500D01*
X140737341Y-68134103D01*
X140737332Y-68134106D01*
X140573459Y-68201983D01*
X140573446Y-68201990D01*
X140425965Y-68300535D01*
X140425961Y-68300538D01*
X140300538Y-68425961D01*
X140300535Y-68425965D01*
X140201990Y-68573446D01*
X140201983Y-68573459D01*
X140134106Y-68737332D01*
X140134103Y-68737341D01*
X140099500Y-68911304D01*
X108500500Y-68911304D01*
X108500500Y-60048543D01*
X129214145Y-60048543D01*
X129252593Y-60241829D01*
X129252596Y-60241839D01*
X129328010Y-60423907D01*
X129328017Y-60423920D01*
X129437506Y-60587781D01*
X129437509Y-60587785D01*
X129576860Y-60727136D01*
X129576864Y-60727139D01*
X129740725Y-60836628D01*
X129740738Y-60836635D01*
X129922806Y-60912049D01*
X129922811Y-60912051D01*
X129922815Y-60912051D01*
X129922816Y-60912052D01*
X130116102Y-60950500D01*
X130116105Y-60950500D01*
X130313189Y-60950500D01*
X130443228Y-60924632D01*
X130506481Y-60912051D01*
X130688560Y-60836632D01*
X130852428Y-60727139D01*
X130991785Y-60587782D01*
X131101278Y-60423914D01*
X131176697Y-60241835D01*
X131205200Y-60098543D01*
X131215146Y-60048543D01*
X131215146Y-59851504D01*
X134214646Y-59851504D01*
X134214646Y-60048495D01*
X134253073Y-60241681D01*
X134253076Y-60241693D01*
X134328453Y-60423671D01*
X134328460Y-60423684D01*
X134437894Y-60587462D01*
X134437897Y-60587466D01*
X134577179Y-60726748D01*
X134577183Y-60726751D01*
X134740961Y-60836185D01*
X134740974Y-60836192D01*
X134922952Y-60911569D01*
X134922964Y-60911572D01*
X135116150Y-60949999D01*
X135116154Y-60950000D01*
X135313138Y-60950000D01*
X135313141Y-60949999D01*
X135506327Y-60911572D01*
X135506339Y-60911569D01*
X135688317Y-60836192D01*
X135688330Y-60836185D01*
X135852108Y-60726751D01*
X135852112Y-60726748D01*
X135991394Y-60587466D01*
X135991397Y-60587462D01*
X136100831Y-60423684D01*
X136100838Y-60423671D01*
X136176215Y-60241693D01*
X136176218Y-60241681D01*
X136204690Y-60098543D01*
X159831822Y-60098543D01*
X159870270Y-60291829D01*
X159870273Y-60291839D01*
X159945687Y-60473907D01*
X159945694Y-60473920D01*
X160055183Y-60637781D01*
X160055186Y-60637785D01*
X160194537Y-60777136D01*
X160194541Y-60777139D01*
X160358402Y-60886628D01*
X160358415Y-60886635D01*
X160540483Y-60962049D01*
X160540488Y-60962051D01*
X160540492Y-60962051D01*
X160540493Y-60962052D01*
X160733779Y-61000500D01*
X160733782Y-61000500D01*
X160930866Y-61000500D01*
X161060905Y-60974632D01*
X161124158Y-60962051D01*
X161306237Y-60886632D01*
X161470105Y-60777139D01*
X161609462Y-60637782D01*
X161718955Y-60473914D01*
X161794374Y-60291835D01*
X161832823Y-60098541D01*
X161832823Y-59901504D01*
X164832323Y-59901504D01*
X164832323Y-60098495D01*
X164870750Y-60291681D01*
X164870753Y-60291693D01*
X164946130Y-60473671D01*
X164946137Y-60473684D01*
X165055571Y-60637462D01*
X165055574Y-60637466D01*
X165194856Y-60776748D01*
X165194860Y-60776751D01*
X165358638Y-60886185D01*
X165358651Y-60886192D01*
X165540629Y-60961569D01*
X165540641Y-60961572D01*
X165733827Y-60999999D01*
X165733831Y-61000000D01*
X165930815Y-61000000D01*
X165930818Y-60999999D01*
X166124004Y-60961572D01*
X166124016Y-60961569D01*
X166305994Y-60886192D01*
X166306007Y-60886185D01*
X166469785Y-60776751D01*
X166469789Y-60776748D01*
X166609071Y-60637466D01*
X166609074Y-60637462D01*
X166718508Y-60473684D01*
X166718515Y-60473671D01*
X166793892Y-60291693D01*
X166793895Y-60291681D01*
X166832312Y-60098543D01*
X190831822Y-60098543D01*
X190870270Y-60291829D01*
X190870273Y-60291839D01*
X190945687Y-60473907D01*
X190945694Y-60473920D01*
X191055183Y-60637781D01*
X191055186Y-60637785D01*
X191194537Y-60777136D01*
X191194541Y-60777139D01*
X191358402Y-60886628D01*
X191358415Y-60886635D01*
X191540483Y-60962049D01*
X191540488Y-60962051D01*
X191540492Y-60962051D01*
X191540493Y-60962052D01*
X191733779Y-61000500D01*
X191733782Y-61000500D01*
X191930866Y-61000500D01*
X192060905Y-60974632D01*
X192124158Y-60962051D01*
X192306237Y-60886632D01*
X192470105Y-60777139D01*
X192609462Y-60637782D01*
X192718955Y-60473914D01*
X192794374Y-60291835D01*
X192832823Y-60098541D01*
X192832823Y-59901504D01*
X195832323Y-59901504D01*
X195832323Y-60098495D01*
X195870750Y-60291681D01*
X195870753Y-60291693D01*
X195946130Y-60473671D01*
X195946137Y-60473684D01*
X196055571Y-60637462D01*
X196055574Y-60637466D01*
X196194856Y-60776748D01*
X196194860Y-60776751D01*
X196358638Y-60886185D01*
X196358651Y-60886192D01*
X196540629Y-60961569D01*
X196540641Y-60961572D01*
X196733827Y-60999999D01*
X196733831Y-61000000D01*
X196930815Y-61000000D01*
X196930818Y-60999999D01*
X197124004Y-60961572D01*
X197124016Y-60961569D01*
X197305994Y-60886192D01*
X197306007Y-60886185D01*
X197469785Y-60776751D01*
X197469789Y-60776748D01*
X197609071Y-60637466D01*
X197609074Y-60637462D01*
X197718508Y-60473684D01*
X197718515Y-60473671D01*
X197793892Y-60291693D01*
X197793895Y-60291681D01*
X197832312Y-60098543D01*
X222331822Y-60098543D01*
X222370270Y-60291829D01*
X222370273Y-60291839D01*
X222445687Y-60473907D01*
X222445694Y-60473920D01*
X222555183Y-60637781D01*
X222555186Y-60637785D01*
X222694537Y-60777136D01*
X222694541Y-60777139D01*
X222858402Y-60886628D01*
X222858415Y-60886635D01*
X223040483Y-60962049D01*
X223040488Y-60962051D01*
X223040492Y-60962051D01*
X223040493Y-60962052D01*
X223233779Y-61000500D01*
X223233782Y-61000500D01*
X223430866Y-61000500D01*
X223560905Y-60974632D01*
X223624158Y-60962051D01*
X223806237Y-60886632D01*
X223970105Y-60777139D01*
X224109462Y-60637782D01*
X224218955Y-60473914D01*
X224294374Y-60291835D01*
X224332823Y-60098541D01*
X224332823Y-59901504D01*
X227332323Y-59901504D01*
X227332323Y-60098495D01*
X227370750Y-60291681D01*
X227370753Y-60291693D01*
X227446130Y-60473671D01*
X227446137Y-60473684D01*
X227555571Y-60637462D01*
X227555574Y-60637466D01*
X227694856Y-60776748D01*
X227694860Y-60776751D01*
X227858638Y-60886185D01*
X227858651Y-60886192D01*
X228040629Y-60961569D01*
X228040641Y-60961572D01*
X228233827Y-60999999D01*
X228233831Y-61000000D01*
X228430815Y-61000000D01*
X228430818Y-60999999D01*
X228624004Y-60961572D01*
X228624016Y-60961569D01*
X228805994Y-60886192D01*
X228806007Y-60886185D01*
X228969785Y-60776751D01*
X228969789Y-60776748D01*
X229109071Y-60637466D01*
X229109074Y-60637462D01*
X229218508Y-60473684D01*
X229218515Y-60473671D01*
X229293892Y-60291693D01*
X229293895Y-60291681D01*
X229332322Y-60098495D01*
X229332323Y-60098492D01*
X229332323Y-59901508D01*
X229332322Y-59901504D01*
X229293895Y-59708318D01*
X229293892Y-59708306D01*
X229218515Y-59526328D01*
X229218508Y-59526315D01*
X229109074Y-59362537D01*
X229109071Y-59362533D01*
X228969789Y-59223251D01*
X228969785Y-59223248D01*
X228806007Y-59113814D01*
X228805994Y-59113807D01*
X228624016Y-59038430D01*
X228624004Y-59038427D01*
X228430818Y-59000000D01*
X228233827Y-59000000D01*
X228040641Y-59038427D01*
X228040629Y-59038430D01*
X227858651Y-59113807D01*
X227858638Y-59113814D01*
X227694860Y-59223248D01*
X227694856Y-59223251D01*
X227555574Y-59362533D01*
X227555571Y-59362537D01*
X227446137Y-59526315D01*
X227446130Y-59526328D01*
X227370753Y-59708306D01*
X227370750Y-59708318D01*
X227332323Y-59901504D01*
X224332823Y-59901504D01*
X224332823Y-59901459D01*
X224332823Y-59901456D01*
X224294375Y-59708170D01*
X224294374Y-59708169D01*
X224294374Y-59708165D01*
X224273666Y-59658170D01*
X224218958Y-59526092D01*
X224218951Y-59526079D01*
X224109462Y-59362218D01*
X224109459Y-59362214D01*
X223970108Y-59222863D01*
X223970104Y-59222860D01*
X223806243Y-59113371D01*
X223806230Y-59113364D01*
X223624162Y-59037950D01*
X223624152Y-59037947D01*
X223430866Y-58999500D01*
X223430864Y-58999500D01*
X223233782Y-58999500D01*
X223233780Y-58999500D01*
X223040493Y-59037947D01*
X223040483Y-59037950D01*
X222858415Y-59113364D01*
X222858402Y-59113371D01*
X222694541Y-59222860D01*
X222694537Y-59222863D01*
X222555186Y-59362214D01*
X222555183Y-59362218D01*
X222445694Y-59526079D01*
X222445687Y-59526092D01*
X222370273Y-59708160D01*
X222370270Y-59708170D01*
X222331823Y-59901456D01*
X222331823Y-59901459D01*
X222331823Y-60098541D01*
X222331823Y-60098543D01*
X222331822Y-60098543D01*
X197832312Y-60098543D01*
X197832322Y-60098495D01*
X197832323Y-60098492D01*
X197832323Y-59901507D01*
X197832322Y-59901505D01*
X197793895Y-59708318D01*
X197793892Y-59708306D01*
X197718515Y-59526328D01*
X197718508Y-59526315D01*
X197609074Y-59362537D01*
X197609071Y-59362533D01*
X197469789Y-59223251D01*
X197469785Y-59223248D01*
X197306007Y-59113814D01*
X197305994Y-59113807D01*
X197124016Y-59038430D01*
X197124004Y-59038427D01*
X196930818Y-59000000D01*
X196733827Y-59000000D01*
X196540641Y-59038427D01*
X196540629Y-59038430D01*
X196358651Y-59113807D01*
X196358638Y-59113814D01*
X196194860Y-59223248D01*
X196194856Y-59223251D01*
X196055574Y-59362533D01*
X196055571Y-59362537D01*
X195946137Y-59526315D01*
X195946130Y-59526328D01*
X195870753Y-59708306D01*
X195870750Y-59708318D01*
X195832323Y-59901504D01*
X192832823Y-59901504D01*
X192832823Y-59901459D01*
X192832823Y-59901456D01*
X192794375Y-59708170D01*
X192794374Y-59708169D01*
X192794374Y-59708165D01*
X192773666Y-59658170D01*
X192718958Y-59526092D01*
X192718951Y-59526079D01*
X192609462Y-59362218D01*
X192609459Y-59362214D01*
X192470108Y-59222863D01*
X192470104Y-59222860D01*
X192306243Y-59113371D01*
X192306230Y-59113364D01*
X192124162Y-59037950D01*
X192124152Y-59037947D01*
X191930866Y-58999500D01*
X191930864Y-58999500D01*
X191733782Y-58999500D01*
X191733780Y-58999500D01*
X191540493Y-59037947D01*
X191540483Y-59037950D01*
X191358415Y-59113364D01*
X191358402Y-59113371D01*
X191194541Y-59222860D01*
X191194537Y-59222863D01*
X191055186Y-59362214D01*
X191055183Y-59362218D01*
X190945694Y-59526079D01*
X190945687Y-59526092D01*
X190870273Y-59708160D01*
X190870270Y-59708170D01*
X190831823Y-59901456D01*
X190831823Y-59901459D01*
X190831823Y-60098541D01*
X190831823Y-60098543D01*
X190831822Y-60098543D01*
X166832312Y-60098543D01*
X166832322Y-60098495D01*
X166832323Y-60098492D01*
X166832323Y-59901507D01*
X166832322Y-59901505D01*
X166793895Y-59708318D01*
X166793892Y-59708306D01*
X166718515Y-59526328D01*
X166718508Y-59526315D01*
X166609074Y-59362537D01*
X166609071Y-59362533D01*
X166469789Y-59223251D01*
X166469785Y-59223248D01*
X166306007Y-59113814D01*
X166305994Y-59113807D01*
X166124016Y-59038430D01*
X166124004Y-59038427D01*
X165930818Y-59000000D01*
X165733827Y-59000000D01*
X165540641Y-59038427D01*
X165540629Y-59038430D01*
X165358651Y-59113807D01*
X165358638Y-59113814D01*
X165194860Y-59223248D01*
X165194856Y-59223251D01*
X165055574Y-59362533D01*
X165055571Y-59362537D01*
X164946137Y-59526315D01*
X164946130Y-59526328D01*
X164870753Y-59708306D01*
X164870750Y-59708318D01*
X164832323Y-59901504D01*
X161832823Y-59901504D01*
X161832823Y-59901459D01*
X161832823Y-59901456D01*
X161794375Y-59708170D01*
X161794374Y-59708169D01*
X161794374Y-59708165D01*
X161773666Y-59658170D01*
X161718958Y-59526092D01*
X161718951Y-59526079D01*
X161609462Y-59362218D01*
X161609459Y-59362214D01*
X161470108Y-59222863D01*
X161470104Y-59222860D01*
X161306243Y-59113371D01*
X161306230Y-59113364D01*
X161124162Y-59037950D01*
X161124152Y-59037947D01*
X160930866Y-58999500D01*
X160930864Y-58999500D01*
X160733782Y-58999500D01*
X160733780Y-58999500D01*
X160540493Y-59037947D01*
X160540483Y-59037950D01*
X160358415Y-59113364D01*
X160358402Y-59113371D01*
X160194541Y-59222860D01*
X160194537Y-59222863D01*
X160055186Y-59362214D01*
X160055183Y-59362218D01*
X159945694Y-59526079D01*
X159945687Y-59526092D01*
X159870273Y-59708160D01*
X159870270Y-59708170D01*
X159831823Y-59901456D01*
X159831823Y-59901459D01*
X159831823Y-60098541D01*
X159831823Y-60098543D01*
X159831822Y-60098543D01*
X136204690Y-60098543D01*
X136214645Y-60048495D01*
X136214646Y-60048492D01*
X136214646Y-59851508D01*
X136214645Y-59851504D01*
X136176218Y-59658318D01*
X136176215Y-59658306D01*
X136100838Y-59476328D01*
X136100831Y-59476315D01*
X135991397Y-59312537D01*
X135991394Y-59312533D01*
X135852112Y-59173251D01*
X135852108Y-59173248D01*
X135688330Y-59063814D01*
X135688317Y-59063807D01*
X135506339Y-58988430D01*
X135506327Y-58988427D01*
X135313141Y-58950000D01*
X135116150Y-58950000D01*
X134922964Y-58988427D01*
X134922952Y-58988430D01*
X134740974Y-59063807D01*
X134740961Y-59063814D01*
X134577183Y-59173248D01*
X134577179Y-59173251D01*
X134437897Y-59312533D01*
X134437894Y-59312537D01*
X134328460Y-59476315D01*
X134328453Y-59476328D01*
X134253076Y-59658306D01*
X134253073Y-59658318D01*
X134214646Y-59851504D01*
X131215146Y-59851504D01*
X131215146Y-59851456D01*
X131176698Y-59658170D01*
X131176697Y-59658169D01*
X131176697Y-59658165D01*
X131122089Y-59526328D01*
X131101281Y-59476092D01*
X131101274Y-59476079D01*
X130991785Y-59312218D01*
X130991782Y-59312214D01*
X130852431Y-59172863D01*
X130852427Y-59172860D01*
X130688566Y-59063371D01*
X130688553Y-59063364D01*
X130506485Y-58987950D01*
X130506475Y-58987947D01*
X130313189Y-58949500D01*
X130313187Y-58949500D01*
X130116105Y-58949500D01*
X130116103Y-58949500D01*
X129922816Y-58987947D01*
X129922806Y-58987950D01*
X129740738Y-59063364D01*
X129740725Y-59063371D01*
X129576864Y-59172860D01*
X129576860Y-59172863D01*
X129437509Y-59312214D01*
X129437506Y-59312218D01*
X129328017Y-59476079D01*
X129328010Y-59476092D01*
X129252596Y-59658160D01*
X129252593Y-59658170D01*
X129214146Y-59851456D01*
X129214146Y-59851459D01*
X129214146Y-60048541D01*
X129214146Y-60048543D01*
X129214145Y-60048543D01*
X108500500Y-60048543D01*
X108500500Y-51298543D01*
X121199499Y-51298543D01*
X121237947Y-51491829D01*
X121237950Y-51491839D01*
X121313364Y-51673907D01*
X121313370Y-51673918D01*
X121384993Y-51781110D01*
X121405870Y-51847787D01*
X121387385Y-51915167D01*
X121384993Y-51918890D01*
X121313370Y-52026081D01*
X121313364Y-52026092D01*
X121237950Y-52208160D01*
X121237947Y-52208170D01*
X121199500Y-52401456D01*
X121199500Y-52401459D01*
X121199500Y-52598541D01*
X121199500Y-52598543D01*
X121199499Y-52598543D01*
X121237947Y-52791829D01*
X121237950Y-52791839D01*
X121313364Y-52973907D01*
X121313370Y-52973918D01*
X121384993Y-53081110D01*
X121405870Y-53147787D01*
X121387385Y-53215167D01*
X121384993Y-53218890D01*
X121313370Y-53326081D01*
X121313364Y-53326092D01*
X121237950Y-53508160D01*
X121237947Y-53508170D01*
X121199500Y-53701456D01*
X121199500Y-53701459D01*
X121199500Y-53898541D01*
X121199500Y-53898543D01*
X121199499Y-53898543D01*
X121237947Y-54091829D01*
X121237950Y-54091839D01*
X121313364Y-54273907D01*
X121313371Y-54273920D01*
X121422860Y-54437781D01*
X121422863Y-54437785D01*
X121562214Y-54577136D01*
X121562218Y-54577139D01*
X121726079Y-54686628D01*
X121726092Y-54686635D01*
X121908160Y-54762049D01*
X121908165Y-54762051D01*
X121908169Y-54762051D01*
X121908170Y-54762052D01*
X122101456Y-54800500D01*
X122101459Y-54800500D01*
X122298543Y-54800500D01*
X122428582Y-54774632D01*
X122491835Y-54762051D01*
X122673914Y-54686632D01*
X122837782Y-54577139D01*
X122977139Y-54437782D01*
X123086632Y-54273914D01*
X123162051Y-54091835D01*
X123200500Y-53898541D01*
X123200500Y-53701459D01*
X123200500Y-53701456D01*
X123162052Y-53508170D01*
X123162051Y-53508169D01*
X123162051Y-53508165D01*
X123162049Y-53508160D01*
X123086635Y-53326092D01*
X123086628Y-53326079D01*
X123015007Y-53218891D01*
X122994129Y-53152213D01*
X123012613Y-53084833D01*
X123015007Y-53081109D01*
X123086628Y-52973920D01*
X123086629Y-52973918D01*
X123086632Y-52973914D01*
X123162051Y-52791835D01*
X123200500Y-52598541D01*
X123200500Y-52401459D01*
X123200500Y-52401456D01*
X123162052Y-52208170D01*
X123162051Y-52208169D01*
X123162051Y-52208165D01*
X123162049Y-52208160D01*
X123086635Y-52026092D01*
X123086628Y-52026079D01*
X123015007Y-51918891D01*
X122994129Y-51852213D01*
X123012613Y-51784833D01*
X123015007Y-51781109D01*
X123086628Y-51673920D01*
X123086629Y-51673918D01*
X123086632Y-51673914D01*
X123162051Y-51491835D01*
X123200500Y-51298543D01*
X152199499Y-51298543D01*
X152237947Y-51491829D01*
X152237950Y-51491839D01*
X152313364Y-51673907D01*
X152313370Y-51673918D01*
X152384993Y-51781110D01*
X152405870Y-51847787D01*
X152387385Y-51915167D01*
X152384993Y-51918890D01*
X152313370Y-52026081D01*
X152313364Y-52026092D01*
X152237950Y-52208160D01*
X152237947Y-52208170D01*
X152199500Y-52401456D01*
X152199500Y-52401459D01*
X152199500Y-52598541D01*
X152199500Y-52598543D01*
X152199499Y-52598543D01*
X152237947Y-52791829D01*
X152237950Y-52791839D01*
X152313364Y-52973907D01*
X152313370Y-52973918D01*
X152384993Y-53081110D01*
X152405870Y-53147787D01*
X152387385Y-53215167D01*
X152384993Y-53218890D01*
X152313370Y-53326081D01*
X152313364Y-53326092D01*
X152237950Y-53508160D01*
X152237947Y-53508170D01*
X152199500Y-53701456D01*
X152199500Y-53701459D01*
X152199500Y-53898541D01*
X152199500Y-53898543D01*
X152199499Y-53898543D01*
X152237947Y-54091829D01*
X152237950Y-54091839D01*
X152313364Y-54273907D01*
X152313371Y-54273920D01*
X152422860Y-54437781D01*
X152422863Y-54437785D01*
X152562214Y-54577136D01*
X152562218Y-54577139D01*
X152726079Y-54686628D01*
X152726092Y-54686635D01*
X152908160Y-54762049D01*
X152908165Y-54762051D01*
X152908169Y-54762051D01*
X152908170Y-54762052D01*
X153101456Y-54800500D01*
X153101459Y-54800500D01*
X153298543Y-54800500D01*
X153428582Y-54774632D01*
X153491835Y-54762051D01*
X153673914Y-54686632D01*
X153837782Y-54577139D01*
X153977139Y-54437782D01*
X154086632Y-54273914D01*
X154162051Y-54091835D01*
X154200500Y-53898541D01*
X154200500Y-53701459D01*
X154200500Y-53701456D01*
X154162052Y-53508170D01*
X154162051Y-53508169D01*
X154162051Y-53508165D01*
X154162049Y-53508160D01*
X154086635Y-53326092D01*
X154086628Y-53326079D01*
X154015007Y-53218891D01*
X153994129Y-53152213D01*
X154012613Y-53084833D01*
X154015007Y-53081109D01*
X154086628Y-52973920D01*
X154086629Y-52973918D01*
X154086632Y-52973914D01*
X154162051Y-52791835D01*
X154200500Y-52598541D01*
X154200500Y-52401459D01*
X154200500Y-52401456D01*
X154162052Y-52208170D01*
X154162051Y-52208169D01*
X154162051Y-52208165D01*
X154162049Y-52208160D01*
X154086635Y-52026092D01*
X154086628Y-52026079D01*
X154015007Y-51918891D01*
X153994129Y-51852213D01*
X154012613Y-51784833D01*
X154015007Y-51781109D01*
X154086628Y-51673920D01*
X154086629Y-51673918D01*
X154086632Y-51673914D01*
X154162051Y-51491835D01*
X154200500Y-51298543D01*
X183099499Y-51298543D01*
X183137947Y-51491829D01*
X183137950Y-51491839D01*
X183213364Y-51673907D01*
X183213370Y-51673918D01*
X183284993Y-51781110D01*
X183305870Y-51847787D01*
X183287385Y-51915167D01*
X183284993Y-51918890D01*
X183213370Y-52026081D01*
X183213364Y-52026092D01*
X183137950Y-52208160D01*
X183137947Y-52208170D01*
X183099500Y-52401456D01*
X183099500Y-52401459D01*
X183099500Y-52598541D01*
X183099500Y-52598543D01*
X183099499Y-52598543D01*
X183137947Y-52791829D01*
X183137950Y-52791839D01*
X183213364Y-52973907D01*
X183213370Y-52973918D01*
X183284993Y-53081110D01*
X183305870Y-53147787D01*
X183287385Y-53215167D01*
X183284993Y-53218890D01*
X183213370Y-53326081D01*
X183213364Y-53326092D01*
X183137950Y-53508160D01*
X183137947Y-53508170D01*
X183099500Y-53701456D01*
X183099500Y-53701459D01*
X183099500Y-53898541D01*
X183099500Y-53898543D01*
X183099499Y-53898543D01*
X183137947Y-54091829D01*
X183137950Y-54091839D01*
X183213364Y-54273907D01*
X183213371Y-54273920D01*
X183322860Y-54437781D01*
X183322863Y-54437785D01*
X183462214Y-54577136D01*
X183462218Y-54577139D01*
X183626079Y-54686628D01*
X183626092Y-54686635D01*
X183808160Y-54762049D01*
X183808165Y-54762051D01*
X183808169Y-54762051D01*
X183808170Y-54762052D01*
X184001456Y-54800500D01*
X184001459Y-54800500D01*
X184198543Y-54800500D01*
X184328582Y-54774632D01*
X184391835Y-54762051D01*
X184573914Y-54686632D01*
X184737782Y-54577139D01*
X184877139Y-54437782D01*
X184986632Y-54273914D01*
X185062051Y-54091835D01*
X185100500Y-53898541D01*
X185100500Y-53701459D01*
X185100500Y-53701456D01*
X185062052Y-53508170D01*
X185062051Y-53508169D01*
X185062051Y-53508165D01*
X185062049Y-53508160D01*
X184986635Y-53326092D01*
X184986628Y-53326079D01*
X184915007Y-53218891D01*
X184894129Y-53152213D01*
X184912613Y-53084833D01*
X184915007Y-53081109D01*
X184986628Y-52973920D01*
X184986629Y-52973918D01*
X184986632Y-52973914D01*
X185062051Y-52791835D01*
X185100500Y-52598541D01*
X185100500Y-52401459D01*
X185100500Y-52401456D01*
X185062052Y-52208170D01*
X185062051Y-52208169D01*
X185062051Y-52208165D01*
X185062049Y-52208160D01*
X184986635Y-52026092D01*
X184986628Y-52026079D01*
X184915007Y-51918891D01*
X184894129Y-51852213D01*
X184912613Y-51784833D01*
X184915007Y-51781109D01*
X184986628Y-51673920D01*
X184986629Y-51673918D01*
X184986632Y-51673914D01*
X185062051Y-51491835D01*
X185100500Y-51298543D01*
X214099499Y-51298543D01*
X214137947Y-51491829D01*
X214137950Y-51491839D01*
X214213364Y-51673907D01*
X214213370Y-51673918D01*
X214284993Y-51781110D01*
X214305870Y-51847787D01*
X214287385Y-51915167D01*
X214284993Y-51918890D01*
X214213370Y-52026081D01*
X214213364Y-52026092D01*
X214137950Y-52208160D01*
X214137947Y-52208170D01*
X214099500Y-52401456D01*
X214099500Y-52401459D01*
X214099500Y-52598541D01*
X214099500Y-52598543D01*
X214099499Y-52598543D01*
X214137947Y-52791829D01*
X214137950Y-52791839D01*
X214213364Y-52973907D01*
X214213370Y-52973918D01*
X214284993Y-53081110D01*
X214305870Y-53147787D01*
X214287385Y-53215167D01*
X214284993Y-53218890D01*
X214213370Y-53326081D01*
X214213364Y-53326092D01*
X214137950Y-53508160D01*
X214137947Y-53508170D01*
X214099500Y-53701456D01*
X214099500Y-53701459D01*
X214099500Y-53898541D01*
X214099500Y-53898543D01*
X214099499Y-53898543D01*
X214137947Y-54091829D01*
X214137950Y-54091839D01*
X214213364Y-54273907D01*
X214213371Y-54273920D01*
X214322860Y-54437781D01*
X214322863Y-54437785D01*
X214462214Y-54577136D01*
X214462218Y-54577139D01*
X214626079Y-54686628D01*
X214626092Y-54686635D01*
X214808160Y-54762049D01*
X214808165Y-54762051D01*
X214808169Y-54762051D01*
X214808170Y-54762052D01*
X215001456Y-54800500D01*
X215001459Y-54800500D01*
X215198543Y-54800500D01*
X215328582Y-54774632D01*
X215391835Y-54762051D01*
X215573914Y-54686632D01*
X215737782Y-54577139D01*
X215877139Y-54437782D01*
X215986632Y-54273914D01*
X216062051Y-54091835D01*
X216100500Y-53898541D01*
X216100500Y-53701459D01*
X216100500Y-53701456D01*
X216062052Y-53508170D01*
X216062051Y-53508169D01*
X216062051Y-53508165D01*
X216062049Y-53508160D01*
X215986635Y-53326092D01*
X215986628Y-53326079D01*
X215915007Y-53218891D01*
X215894129Y-53152213D01*
X215912613Y-53084833D01*
X215915007Y-53081109D01*
X215986628Y-52973920D01*
X215986629Y-52973918D01*
X215986632Y-52973914D01*
X216062051Y-52791835D01*
X216100500Y-52598541D01*
X216100500Y-52401459D01*
X216100500Y-52401456D01*
X216062052Y-52208170D01*
X216062051Y-52208169D01*
X216062051Y-52208165D01*
X216062049Y-52208160D01*
X215986635Y-52026092D01*
X215986628Y-52026079D01*
X215915007Y-51918891D01*
X215894129Y-51852213D01*
X215912613Y-51784833D01*
X215915007Y-51781109D01*
X215986628Y-51673920D01*
X215986629Y-51673918D01*
X215986632Y-51673914D01*
X216062051Y-51491835D01*
X216100500Y-51298541D01*
X216100500Y-51101459D01*
X216100500Y-51101456D01*
X216062052Y-50908170D01*
X216062051Y-50908169D01*
X216062051Y-50908165D01*
X216062049Y-50908160D01*
X215986635Y-50726092D01*
X215986628Y-50726079D01*
X215877139Y-50562218D01*
X215877136Y-50562214D01*
X215737785Y-50422863D01*
X215737781Y-50422860D01*
X215573920Y-50313371D01*
X215573907Y-50313364D01*
X215391839Y-50237950D01*
X215391829Y-50237947D01*
X215198543Y-50199500D01*
X215198541Y-50199500D01*
X215001459Y-50199500D01*
X215001457Y-50199500D01*
X214808170Y-50237947D01*
X214808160Y-50237950D01*
X214626092Y-50313364D01*
X214626079Y-50313371D01*
X214462218Y-50422860D01*
X214462214Y-50422863D01*
X214322863Y-50562214D01*
X214322860Y-50562218D01*
X214213371Y-50726079D01*
X214213364Y-50726092D01*
X214137950Y-50908160D01*
X214137947Y-50908170D01*
X214099500Y-51101456D01*
X214099500Y-51101459D01*
X214099500Y-51298541D01*
X214099500Y-51298543D01*
X214099499Y-51298543D01*
X185100500Y-51298543D01*
X185100500Y-51298541D01*
X185100500Y-51101459D01*
X185100500Y-51101456D01*
X185062052Y-50908170D01*
X185062051Y-50908169D01*
X185062051Y-50908165D01*
X185062049Y-50908160D01*
X184986635Y-50726092D01*
X184986628Y-50726079D01*
X184877139Y-50562218D01*
X184877136Y-50562214D01*
X184737785Y-50422863D01*
X184737781Y-50422860D01*
X184573920Y-50313371D01*
X184573907Y-50313364D01*
X184391839Y-50237950D01*
X184391829Y-50237947D01*
X184198543Y-50199500D01*
X184198541Y-50199500D01*
X184001459Y-50199500D01*
X184001457Y-50199500D01*
X183808170Y-50237947D01*
X183808160Y-50237950D01*
X183626092Y-50313364D01*
X183626079Y-50313371D01*
X183462218Y-50422860D01*
X183462214Y-50422863D01*
X183322863Y-50562214D01*
X183322860Y-50562218D01*
X183213371Y-50726079D01*
X183213364Y-50726092D01*
X183137950Y-50908160D01*
X183137947Y-50908170D01*
X183099500Y-51101456D01*
X183099500Y-51101459D01*
X183099500Y-51298541D01*
X183099500Y-51298543D01*
X183099499Y-51298543D01*
X154200500Y-51298543D01*
X154200500Y-51298541D01*
X154200500Y-51101459D01*
X154200500Y-51101456D01*
X154162052Y-50908170D01*
X154162051Y-50908169D01*
X154162051Y-50908165D01*
X154162049Y-50908160D01*
X154086635Y-50726092D01*
X154086628Y-50726079D01*
X153977139Y-50562218D01*
X153977136Y-50562214D01*
X153837785Y-50422863D01*
X153837781Y-50422860D01*
X153673920Y-50313371D01*
X153673907Y-50313364D01*
X153491839Y-50237950D01*
X153491829Y-50237947D01*
X153298543Y-50199500D01*
X153298541Y-50199500D01*
X153101459Y-50199500D01*
X153101457Y-50199500D01*
X152908170Y-50237947D01*
X152908160Y-50237950D01*
X152726092Y-50313364D01*
X152726079Y-50313371D01*
X152562218Y-50422860D01*
X152562214Y-50422863D01*
X152422863Y-50562214D01*
X152422860Y-50562218D01*
X152313371Y-50726079D01*
X152313364Y-50726092D01*
X152237950Y-50908160D01*
X152237947Y-50908170D01*
X152199500Y-51101456D01*
X152199500Y-51101459D01*
X152199500Y-51298541D01*
X152199500Y-51298543D01*
X152199499Y-51298543D01*
X123200500Y-51298543D01*
X123200500Y-51298541D01*
X123200500Y-51101459D01*
X123200500Y-51101456D01*
X123162052Y-50908170D01*
X123162051Y-50908169D01*
X123162051Y-50908165D01*
X123162049Y-50908160D01*
X123086635Y-50726092D01*
X123086628Y-50726079D01*
X122977139Y-50562218D01*
X122977136Y-50562214D01*
X122837785Y-50422863D01*
X122837781Y-50422860D01*
X122673920Y-50313371D01*
X122673907Y-50313364D01*
X122491839Y-50237950D01*
X122491829Y-50237947D01*
X122298543Y-50199500D01*
X122298541Y-50199500D01*
X122101459Y-50199500D01*
X122101457Y-50199500D01*
X121908170Y-50237947D01*
X121908160Y-50237950D01*
X121726092Y-50313364D01*
X121726079Y-50313371D01*
X121562218Y-50422860D01*
X121562214Y-50422863D01*
X121422863Y-50562214D01*
X121422860Y-50562218D01*
X121313371Y-50726079D01*
X121313364Y-50726092D01*
X121237950Y-50908160D01*
X121237947Y-50908170D01*
X121199500Y-51101456D01*
X121199500Y-51101459D01*
X121199500Y-51298541D01*
X121199500Y-51298543D01*
X121199499Y-51298543D01*
X108500500Y-51298543D01*
X108500500Y-47632329D01*
X120159399Y-47632329D01*
X120159399Y-47867674D01*
X120192445Y-48076315D01*
X120196213Y-48100105D01*
X120268936Y-48323921D01*
X120375775Y-48533605D01*
X120514101Y-48723994D01*
X120680507Y-48890400D01*
X120870896Y-49028726D01*
X121080580Y-49135565D01*
X121304396Y-49208288D01*
X121391559Y-49222093D01*
X121536827Y-49245102D01*
X121536832Y-49245102D01*
X121772171Y-49245102D01*
X121901297Y-49224649D01*
X122004602Y-49208288D01*
X122228418Y-49135565D01*
X122438102Y-49028726D01*
X122628491Y-48890400D01*
X122794897Y-48723994D01*
X122886043Y-48598543D01*
X129231822Y-48598543D01*
X129270270Y-48791829D01*
X129270273Y-48791839D01*
X129345687Y-48973907D01*
X129345694Y-48973920D01*
X129455180Y-49137777D01*
X129455186Y-49137785D01*
X129594537Y-49277136D01*
X129594541Y-49277139D01*
X129758402Y-49386628D01*
X129758415Y-49386635D01*
X129940483Y-49462049D01*
X129940488Y-49462051D01*
X129940492Y-49462051D01*
X129940493Y-49462052D01*
X130133779Y-49500500D01*
X130133782Y-49500500D01*
X130330866Y-49500500D01*
X130460905Y-49474632D01*
X130524158Y-49462051D01*
X130706237Y-49386632D01*
X130870105Y-49277139D01*
X131009462Y-49137782D01*
X131009463Y-49137780D01*
X131009466Y-49137777D01*
X131118951Y-48973920D01*
X131118951Y-48973919D01*
X131118955Y-48973914D01*
X131194374Y-48791835D01*
X131222877Y-48648543D01*
X131232823Y-48598543D01*
X131232823Y-48401504D01*
X134232323Y-48401504D01*
X134232323Y-48598495D01*
X134270750Y-48791681D01*
X134270753Y-48791693D01*
X134346130Y-48973671D01*
X134346137Y-48973684D01*
X134455571Y-49137462D01*
X134455574Y-49137466D01*
X134594856Y-49276748D01*
X134594860Y-49276751D01*
X134758638Y-49386185D01*
X134758651Y-49386192D01*
X134940629Y-49461569D01*
X134940641Y-49461572D01*
X135133827Y-49499999D01*
X135133831Y-49500000D01*
X135330815Y-49500000D01*
X135330818Y-49499999D01*
X135524004Y-49461572D01*
X135524016Y-49461569D01*
X135705994Y-49386192D01*
X135706007Y-49386185D01*
X135869785Y-49276751D01*
X135869789Y-49276748D01*
X136009071Y-49137466D01*
X136009074Y-49137462D01*
X136118508Y-48973684D01*
X136118515Y-48973671D01*
X136193892Y-48791693D01*
X136193895Y-48791681D01*
X136232322Y-48598495D01*
X136232323Y-48598492D01*
X136232323Y-48401508D01*
X136232322Y-48401504D01*
X136193895Y-48208318D01*
X136193892Y-48208306D01*
X136118515Y-48026328D01*
X136118508Y-48026315D01*
X136009074Y-47862537D01*
X136009071Y-47862533D01*
X135869788Y-47723250D01*
X135869786Y-47723249D01*
X135733716Y-47632329D01*
X151029900Y-47632329D01*
X151029900Y-47867674D01*
X151062946Y-48076315D01*
X151066714Y-48100105D01*
X151139437Y-48323921D01*
X151246276Y-48533605D01*
X151384602Y-48723994D01*
X151551008Y-48890400D01*
X151741397Y-49028726D01*
X151951081Y-49135565D01*
X152174897Y-49208288D01*
X152262060Y-49222093D01*
X152407328Y-49245102D01*
X152407333Y-49245102D01*
X152642672Y-49245102D01*
X152771798Y-49224649D01*
X152875103Y-49208288D01*
X153098919Y-49135565D01*
X153308603Y-49028726D01*
X153498992Y-48890400D01*
X153665398Y-48723994D01*
X153720216Y-48648543D01*
X159849499Y-48648543D01*
X159887947Y-48841829D01*
X159887950Y-48841839D01*
X159963364Y-49023907D01*
X159963371Y-49023920D01*
X160072860Y-49187781D01*
X160072863Y-49187785D01*
X160212214Y-49327136D01*
X160212218Y-49327139D01*
X160376079Y-49436628D01*
X160376092Y-49436635D01*
X160558160Y-49512049D01*
X160558165Y-49512051D01*
X160558169Y-49512051D01*
X160558170Y-49512052D01*
X160751456Y-49550500D01*
X160751459Y-49550500D01*
X160948543Y-49550500D01*
X161078582Y-49524632D01*
X161141835Y-49512051D01*
X161323914Y-49436632D01*
X161487782Y-49327139D01*
X161627139Y-49187782D01*
X161736632Y-49023914D01*
X161812051Y-48841835D01*
X161850500Y-48648541D01*
X161850500Y-48451504D01*
X164850000Y-48451504D01*
X164850000Y-48648495D01*
X164888427Y-48841681D01*
X164888430Y-48841693D01*
X164963807Y-49023671D01*
X164963814Y-49023684D01*
X165073248Y-49187462D01*
X165073251Y-49187466D01*
X165212533Y-49326748D01*
X165212537Y-49326751D01*
X165376315Y-49436185D01*
X165376328Y-49436192D01*
X165558306Y-49511569D01*
X165558318Y-49511572D01*
X165751504Y-49549999D01*
X165751508Y-49550000D01*
X165948492Y-49550000D01*
X165948495Y-49549999D01*
X166141681Y-49511572D01*
X166141693Y-49511569D01*
X166323671Y-49436192D01*
X166323684Y-49436185D01*
X166487462Y-49326751D01*
X166487466Y-49326748D01*
X166626748Y-49187466D01*
X166626751Y-49187462D01*
X166736185Y-49023684D01*
X166736192Y-49023671D01*
X166811569Y-48841693D01*
X166811572Y-48841681D01*
X166849999Y-48648495D01*
X166850000Y-48648492D01*
X166850000Y-48451508D01*
X166849999Y-48451504D01*
X166811572Y-48258318D01*
X166811569Y-48258306D01*
X166736192Y-48076328D01*
X166736185Y-48076315D01*
X166626751Y-47912537D01*
X166626748Y-47912533D01*
X166487466Y-47773251D01*
X166487462Y-47773248D01*
X166423583Y-47730565D01*
X166323684Y-47663814D01*
X166323671Y-47663807D01*
X166247676Y-47632329D01*
X181959399Y-47632329D01*
X181959399Y-47867674D01*
X181992445Y-48076315D01*
X181996213Y-48100105D01*
X182068936Y-48323921D01*
X182175775Y-48533605D01*
X182314101Y-48723994D01*
X182480507Y-48890400D01*
X182670896Y-49028726D01*
X182880580Y-49135565D01*
X183104396Y-49208288D01*
X183191559Y-49222093D01*
X183336827Y-49245102D01*
X183336832Y-49245102D01*
X183572171Y-49245102D01*
X183701297Y-49224649D01*
X183804602Y-49208288D01*
X184028418Y-49135565D01*
X184238102Y-49028726D01*
X184428491Y-48890400D01*
X184594897Y-48723994D01*
X184649715Y-48648543D01*
X190849499Y-48648543D01*
X190887947Y-48841829D01*
X190887950Y-48841839D01*
X190963364Y-49023907D01*
X190963371Y-49023920D01*
X191072860Y-49187781D01*
X191072863Y-49187785D01*
X191212214Y-49327136D01*
X191212218Y-49327139D01*
X191376079Y-49436628D01*
X191376092Y-49436635D01*
X191558160Y-49512049D01*
X191558165Y-49512051D01*
X191558169Y-49512051D01*
X191558170Y-49512052D01*
X191751456Y-49550500D01*
X191751459Y-49550500D01*
X191948543Y-49550500D01*
X192078582Y-49524632D01*
X192141835Y-49512051D01*
X192323914Y-49436632D01*
X192487782Y-49327139D01*
X192627139Y-49187782D01*
X192736632Y-49023914D01*
X192812051Y-48841835D01*
X192850500Y-48648541D01*
X192850500Y-48451504D01*
X195850000Y-48451504D01*
X195850000Y-48648495D01*
X195888427Y-48841681D01*
X195888430Y-48841693D01*
X195963807Y-49023671D01*
X195963814Y-49023684D01*
X196073248Y-49187462D01*
X196073251Y-49187466D01*
X196212533Y-49326748D01*
X196212537Y-49326751D01*
X196376315Y-49436185D01*
X196376328Y-49436192D01*
X196558306Y-49511569D01*
X196558318Y-49511572D01*
X196751504Y-49549999D01*
X196751508Y-49550000D01*
X196948492Y-49550000D01*
X196948495Y-49549999D01*
X197141681Y-49511572D01*
X197141693Y-49511569D01*
X197323671Y-49436192D01*
X197323684Y-49436185D01*
X197487462Y-49326751D01*
X197487466Y-49326748D01*
X197626748Y-49187466D01*
X197626751Y-49187462D01*
X197736185Y-49023684D01*
X197736192Y-49023671D01*
X197811569Y-48841693D01*
X197811572Y-48841681D01*
X197849999Y-48648495D01*
X197850000Y-48648492D01*
X197850000Y-48451508D01*
X197849999Y-48451504D01*
X197811572Y-48258318D01*
X197811569Y-48258306D01*
X197736192Y-48076328D01*
X197736185Y-48076315D01*
X197626751Y-47912537D01*
X197626748Y-47912533D01*
X197487466Y-47773251D01*
X197487462Y-47773248D01*
X197423583Y-47730565D01*
X197323684Y-47663814D01*
X197323671Y-47663807D01*
X197247676Y-47632329D01*
X213159399Y-47632329D01*
X213159399Y-47867674D01*
X213192445Y-48076315D01*
X213196213Y-48100105D01*
X213268936Y-48323921D01*
X213375775Y-48533605D01*
X213514101Y-48723994D01*
X213680507Y-48890400D01*
X213870896Y-49028726D01*
X214080580Y-49135565D01*
X214304396Y-49208288D01*
X214391559Y-49222093D01*
X214536827Y-49245102D01*
X214536832Y-49245102D01*
X214772171Y-49245102D01*
X214901297Y-49224649D01*
X215004602Y-49208288D01*
X215228418Y-49135565D01*
X215438102Y-49028726D01*
X215628491Y-48890400D01*
X215794897Y-48723994D01*
X215849715Y-48648543D01*
X222349499Y-48648543D01*
X222387947Y-48841829D01*
X222387950Y-48841839D01*
X222463364Y-49023907D01*
X222463371Y-49023920D01*
X222572860Y-49187781D01*
X222572863Y-49187785D01*
X222712214Y-49327136D01*
X222712218Y-49327139D01*
X222876079Y-49436628D01*
X222876092Y-49436635D01*
X223058160Y-49512049D01*
X223058165Y-49512051D01*
X223058169Y-49512051D01*
X223058170Y-49512052D01*
X223251456Y-49550500D01*
X223251459Y-49550500D01*
X223448543Y-49550500D01*
X223578582Y-49524632D01*
X223641835Y-49512051D01*
X223823914Y-49436632D01*
X223987782Y-49327139D01*
X224127139Y-49187782D01*
X224236632Y-49023914D01*
X224312051Y-48841835D01*
X224350500Y-48648541D01*
X224350500Y-48451504D01*
X227350000Y-48451504D01*
X227350000Y-48648495D01*
X227388427Y-48841681D01*
X227388430Y-48841693D01*
X227463807Y-49023671D01*
X227463814Y-49023684D01*
X227573248Y-49187462D01*
X227573251Y-49187466D01*
X227712533Y-49326748D01*
X227712537Y-49326751D01*
X227876315Y-49436185D01*
X227876328Y-49436192D01*
X228058306Y-49511569D01*
X228058318Y-49511572D01*
X228251504Y-49549999D01*
X228251508Y-49550000D01*
X228448492Y-49550000D01*
X228448495Y-49549999D01*
X228641681Y-49511572D01*
X228641693Y-49511569D01*
X228823671Y-49436192D01*
X228823684Y-49436185D01*
X228987462Y-49326751D01*
X228987466Y-49326748D01*
X229126748Y-49187466D01*
X229126751Y-49187462D01*
X229236185Y-49023684D01*
X229236192Y-49023671D01*
X229311569Y-48841693D01*
X229311572Y-48841681D01*
X229349999Y-48648495D01*
X229350000Y-48648492D01*
X229350000Y-48451508D01*
X229349999Y-48451504D01*
X229311572Y-48258318D01*
X229311569Y-48258306D01*
X229236192Y-48076328D01*
X229236185Y-48076315D01*
X229126751Y-47912537D01*
X229126748Y-47912533D01*
X228987466Y-47773251D01*
X228987462Y-47773248D01*
X228823684Y-47663814D01*
X228823671Y-47663807D01*
X228641693Y-47588430D01*
X228641681Y-47588427D01*
X228448495Y-47550000D01*
X228251504Y-47550000D01*
X228058318Y-47588427D01*
X228058306Y-47588430D01*
X227876328Y-47663807D01*
X227876315Y-47663814D01*
X227712537Y-47773248D01*
X227712533Y-47773251D01*
X227573251Y-47912533D01*
X227573248Y-47912537D01*
X227463814Y-48076315D01*
X227463807Y-48076328D01*
X227388430Y-48258306D01*
X227388427Y-48258318D01*
X227350000Y-48451504D01*
X224350500Y-48451504D01*
X224350500Y-48451459D01*
X224350500Y-48451456D01*
X224312052Y-48258170D01*
X224312051Y-48258169D01*
X224312051Y-48258165D01*
X224291343Y-48208170D01*
X224236635Y-48076092D01*
X224236628Y-48076079D01*
X224127139Y-47912218D01*
X224127136Y-47912214D01*
X223987785Y-47772863D01*
X223987781Y-47772860D01*
X223823920Y-47663371D01*
X223823907Y-47663364D01*
X223641839Y-47587950D01*
X223641829Y-47587947D01*
X223448543Y-47549500D01*
X223448541Y-47549500D01*
X223251459Y-47549500D01*
X223251457Y-47549500D01*
X223058170Y-47587947D01*
X223058160Y-47587950D01*
X222876092Y-47663364D01*
X222876079Y-47663371D01*
X222712218Y-47772860D01*
X222712214Y-47772863D01*
X222572863Y-47912214D01*
X222572860Y-47912218D01*
X222463371Y-48076079D01*
X222463364Y-48076092D01*
X222387950Y-48258160D01*
X222387947Y-48258170D01*
X222349500Y-48451456D01*
X222349500Y-48451459D01*
X222349500Y-48648541D01*
X222349500Y-48648543D01*
X222349499Y-48648543D01*
X215849715Y-48648543D01*
X215933223Y-48533605D01*
X216040062Y-48323921D01*
X216112785Y-48100105D01*
X216142493Y-47912537D01*
X216149599Y-47867674D01*
X216149599Y-47632329D01*
X216112785Y-47399902D01*
X216112785Y-47399899D01*
X216040062Y-47176083D01*
X215933223Y-46966399D01*
X215794897Y-46776010D01*
X215628491Y-46609604D01*
X215438102Y-46471278D01*
X215228418Y-46364439D01*
X215004602Y-46291716D01*
X215004600Y-46291715D01*
X215004598Y-46291715D01*
X214772171Y-46254902D01*
X214772166Y-46254902D01*
X214536832Y-46254902D01*
X214536827Y-46254902D01*
X214304399Y-46291715D01*
X214080577Y-46364440D01*
X213870895Y-46471278D01*
X213762271Y-46550198D01*
X213680507Y-46609604D01*
X213680505Y-46609606D01*
X213680504Y-46609606D01*
X213514103Y-46776007D01*
X213514103Y-46776008D01*
X213514101Y-46776010D01*
X213454695Y-46857774D01*
X213375775Y-46966398D01*
X213268937Y-47176080D01*
X213196212Y-47399902D01*
X213159399Y-47632329D01*
X197247676Y-47632329D01*
X197141693Y-47588430D01*
X197141681Y-47588427D01*
X196948495Y-47550000D01*
X196751504Y-47550000D01*
X196558318Y-47588427D01*
X196558306Y-47588430D01*
X196376328Y-47663807D01*
X196376315Y-47663814D01*
X196212537Y-47773248D01*
X196212533Y-47773251D01*
X196073251Y-47912533D01*
X196073248Y-47912537D01*
X195963814Y-48076315D01*
X195963807Y-48076328D01*
X195888430Y-48258306D01*
X195888427Y-48258318D01*
X195850000Y-48451504D01*
X192850500Y-48451504D01*
X192850500Y-48451459D01*
X192850500Y-48451456D01*
X192812052Y-48258170D01*
X192812051Y-48258169D01*
X192812051Y-48258165D01*
X192791343Y-48208170D01*
X192736635Y-48076092D01*
X192736628Y-48076079D01*
X192627139Y-47912218D01*
X192627136Y-47912214D01*
X192487785Y-47772863D01*
X192487781Y-47772860D01*
X192323920Y-47663371D01*
X192323907Y-47663364D01*
X192141839Y-47587950D01*
X192141829Y-47587947D01*
X191948543Y-47549500D01*
X191948541Y-47549500D01*
X191751459Y-47549500D01*
X191751457Y-47549500D01*
X191558170Y-47587947D01*
X191558160Y-47587950D01*
X191376092Y-47663364D01*
X191376079Y-47663371D01*
X191212218Y-47772860D01*
X191212214Y-47772863D01*
X191072863Y-47912214D01*
X191072860Y-47912218D01*
X190963371Y-48076079D01*
X190963364Y-48076092D01*
X190887950Y-48258160D01*
X190887947Y-48258170D01*
X190849500Y-48451456D01*
X190849500Y-48451459D01*
X190849500Y-48648541D01*
X190849500Y-48648543D01*
X190849499Y-48648543D01*
X184649715Y-48648543D01*
X184733223Y-48533605D01*
X184840062Y-48323921D01*
X184912785Y-48100105D01*
X184942493Y-47912537D01*
X184949599Y-47867674D01*
X184949599Y-47632329D01*
X184912785Y-47399902D01*
X184912785Y-47399899D01*
X184840062Y-47176083D01*
X184733223Y-46966399D01*
X184594897Y-46776010D01*
X184428491Y-46609604D01*
X184238102Y-46471278D01*
X184028418Y-46364439D01*
X183804602Y-46291716D01*
X183804600Y-46291715D01*
X183804598Y-46291715D01*
X183572171Y-46254902D01*
X183572166Y-46254902D01*
X183336832Y-46254902D01*
X183336827Y-46254902D01*
X183104399Y-46291715D01*
X182880577Y-46364440D01*
X182670895Y-46471278D01*
X182562271Y-46550198D01*
X182480507Y-46609604D01*
X182480505Y-46609606D01*
X182480504Y-46609606D01*
X182314103Y-46776007D01*
X182314103Y-46776008D01*
X182314101Y-46776010D01*
X182254695Y-46857774D01*
X182175775Y-46966398D01*
X182068937Y-47176080D01*
X181996212Y-47399902D01*
X181959399Y-47632329D01*
X166247676Y-47632329D01*
X166141693Y-47588430D01*
X166141681Y-47588427D01*
X165948495Y-47550000D01*
X165751504Y-47550000D01*
X165558318Y-47588427D01*
X165558306Y-47588430D01*
X165376328Y-47663807D01*
X165376315Y-47663814D01*
X165212537Y-47773248D01*
X165212533Y-47773251D01*
X165073251Y-47912533D01*
X165073248Y-47912537D01*
X164963814Y-48076315D01*
X164963807Y-48076328D01*
X164888430Y-48258306D01*
X164888427Y-48258318D01*
X164850000Y-48451504D01*
X161850500Y-48451504D01*
X161850500Y-48451459D01*
X161850500Y-48451456D01*
X161812052Y-48258170D01*
X161812051Y-48258169D01*
X161812051Y-48258165D01*
X161791343Y-48208170D01*
X161736635Y-48076092D01*
X161736628Y-48076079D01*
X161627139Y-47912218D01*
X161627136Y-47912214D01*
X161487785Y-47772863D01*
X161487781Y-47772860D01*
X161323920Y-47663371D01*
X161323907Y-47663364D01*
X161141839Y-47587950D01*
X161141829Y-47587947D01*
X160948543Y-47549500D01*
X160948541Y-47549500D01*
X160751459Y-47549500D01*
X160751457Y-47549500D01*
X160558170Y-47587947D01*
X160558160Y-47587950D01*
X160376092Y-47663364D01*
X160376079Y-47663371D01*
X160212218Y-47772860D01*
X160212214Y-47772863D01*
X160072863Y-47912214D01*
X160072860Y-47912218D01*
X159963371Y-48076079D01*
X159963364Y-48076092D01*
X159887950Y-48258160D01*
X159887947Y-48258170D01*
X159849500Y-48451456D01*
X159849500Y-48451459D01*
X159849500Y-48648541D01*
X159849500Y-48648543D01*
X159849499Y-48648543D01*
X153720216Y-48648543D01*
X153803724Y-48533605D01*
X153910563Y-48323921D01*
X153983286Y-48100105D01*
X154012994Y-47912537D01*
X154020100Y-47867674D01*
X154020100Y-47632329D01*
X153983286Y-47399902D01*
X153983286Y-47399899D01*
X153910563Y-47176083D01*
X153803724Y-46966399D01*
X153665398Y-46776010D01*
X153498992Y-46609604D01*
X153308603Y-46471278D01*
X153098919Y-46364439D01*
X152875103Y-46291716D01*
X152875101Y-46291715D01*
X152875099Y-46291715D01*
X152642672Y-46254902D01*
X152642667Y-46254902D01*
X152407333Y-46254902D01*
X152407328Y-46254902D01*
X152174900Y-46291715D01*
X151951078Y-46364440D01*
X151741396Y-46471278D01*
X151632772Y-46550198D01*
X151551008Y-46609604D01*
X151551006Y-46609606D01*
X151551005Y-46609606D01*
X151384604Y-46776007D01*
X151384604Y-46776008D01*
X151384602Y-46776010D01*
X151325196Y-46857774D01*
X151246276Y-46966398D01*
X151139438Y-47176080D01*
X151066713Y-47399902D01*
X151029900Y-47632329D01*
X135733716Y-47632329D01*
X135706007Y-47613814D01*
X135705994Y-47613807D01*
X135524016Y-47538430D01*
X135524004Y-47538427D01*
X135330818Y-47500000D01*
X135133827Y-47500000D01*
X134940641Y-47538427D01*
X134940629Y-47538430D01*
X134758651Y-47613807D01*
X134758638Y-47613814D01*
X134594860Y-47723248D01*
X134594856Y-47723251D01*
X134455574Y-47862533D01*
X134455571Y-47862537D01*
X134346137Y-48026315D01*
X134346130Y-48026328D01*
X134270753Y-48208306D01*
X134270750Y-48208318D01*
X134232323Y-48401504D01*
X131232823Y-48401504D01*
X131232823Y-48401456D01*
X131194375Y-48208170D01*
X131194374Y-48208169D01*
X131194374Y-48208165D01*
X131194372Y-48208160D01*
X131118958Y-48026092D01*
X131118951Y-48026079D01*
X131009462Y-47862218D01*
X131009459Y-47862214D01*
X130870108Y-47722863D01*
X130870104Y-47722860D01*
X130706243Y-47613371D01*
X130706230Y-47613364D01*
X130524162Y-47537950D01*
X130524152Y-47537947D01*
X130330866Y-47499500D01*
X130330864Y-47499500D01*
X130133782Y-47499500D01*
X130133780Y-47499500D01*
X129940493Y-47537947D01*
X129940483Y-47537950D01*
X129758415Y-47613364D01*
X129758402Y-47613371D01*
X129594541Y-47722860D01*
X129594537Y-47722863D01*
X129455186Y-47862214D01*
X129455183Y-47862218D01*
X129345694Y-48026079D01*
X129345687Y-48026092D01*
X129270273Y-48208160D01*
X129270270Y-48208170D01*
X129231823Y-48401456D01*
X129231823Y-48401459D01*
X129231823Y-48598541D01*
X129231823Y-48598543D01*
X129231822Y-48598543D01*
X122886043Y-48598543D01*
X122933223Y-48533605D01*
X123040062Y-48323921D01*
X123112785Y-48100105D01*
X123142493Y-47912537D01*
X123149599Y-47867674D01*
X123149599Y-47632329D01*
X123112785Y-47399902D01*
X123112785Y-47399899D01*
X123040062Y-47176083D01*
X122933223Y-46966399D01*
X122794897Y-46776010D01*
X122628491Y-46609604D01*
X122438102Y-46471278D01*
X122228418Y-46364439D01*
X122004602Y-46291716D01*
X122004600Y-46291715D01*
X122004598Y-46291715D01*
X121772171Y-46254902D01*
X121772166Y-46254902D01*
X121536832Y-46254902D01*
X121536827Y-46254902D01*
X121304399Y-46291715D01*
X121080577Y-46364440D01*
X120870895Y-46471278D01*
X120762271Y-46550198D01*
X120680507Y-46609604D01*
X120680505Y-46609606D01*
X120680504Y-46609606D01*
X120514103Y-46776007D01*
X120514103Y-46776008D01*
X120514101Y-46776010D01*
X120454695Y-46857774D01*
X120375775Y-46966398D01*
X120268937Y-47176080D01*
X120196212Y-47399902D01*
X120159399Y-47632329D01*
X108500500Y-47632329D01*
X108500500Y-39625511D01*
X170703199Y-39625511D01*
X170703199Y-39885890D01*
X170703200Y-39885906D01*
X170737186Y-40144058D01*
X170804580Y-40395576D01*
X170904226Y-40636141D01*
X170904230Y-40636151D01*
X171034423Y-40861653D01*
X171192938Y-41068234D01*
X171192944Y-41068241D01*
X171377058Y-41252355D01*
X171377065Y-41252361D01*
X171583646Y-41410876D01*
X171809148Y-41541069D01*
X171809149Y-41541069D01*
X171809152Y-41541071D01*
X172049722Y-41640719D01*
X172301240Y-41708113D01*
X172559403Y-41742101D01*
X172559410Y-41742101D01*
X172819788Y-41742101D01*
X172819795Y-41742101D01*
X173077958Y-41708113D01*
X173329476Y-41640719D01*
X173570046Y-41541071D01*
X173795552Y-41410876D01*
X174002134Y-41252360D01*
X174186258Y-41068236D01*
X174344774Y-40861654D01*
X174474969Y-40636148D01*
X174574617Y-40395578D01*
X174642011Y-40144060D01*
X174675999Y-39885897D01*
X174675999Y-39625511D01*
X178003200Y-39625511D01*
X178003200Y-39885890D01*
X178003201Y-39885906D01*
X178037187Y-40144058D01*
X178104581Y-40395576D01*
X178204227Y-40636141D01*
X178204231Y-40636151D01*
X178334424Y-40861653D01*
X178492939Y-41068234D01*
X178492945Y-41068241D01*
X178677059Y-41252355D01*
X178677066Y-41252361D01*
X178883647Y-41410876D01*
X179109149Y-41541069D01*
X179109150Y-41541069D01*
X179109153Y-41541071D01*
X179349723Y-41640719D01*
X179601241Y-41708113D01*
X179859404Y-41742101D01*
X179859411Y-41742101D01*
X180119789Y-41742101D01*
X180119796Y-41742101D01*
X180377959Y-41708113D01*
X180629477Y-41640719D01*
X180870047Y-41541071D01*
X181095553Y-41410876D01*
X181302135Y-41252360D01*
X181486259Y-41068236D01*
X181644775Y-40861654D01*
X181774970Y-40636148D01*
X181874618Y-40395578D01*
X181942012Y-40144060D01*
X181976000Y-39885897D01*
X181976000Y-39625505D01*
X181942012Y-39367342D01*
X181874618Y-39115824D01*
X181774970Y-38875254D01*
X181644775Y-38649748D01*
X181486259Y-38443166D01*
X181486254Y-38443160D01*
X181302140Y-38259046D01*
X181302133Y-38259040D01*
X181095552Y-38100525D01*
X180870050Y-37970332D01*
X180870040Y-37970328D01*
X180629475Y-37870682D01*
X180377957Y-37803288D01*
X180119805Y-37769302D01*
X180119802Y-37769301D01*
X180119796Y-37769301D01*
X179859404Y-37769301D01*
X179859398Y-37769301D01*
X179859394Y-37769302D01*
X179601242Y-37803288D01*
X179349724Y-37870682D01*
X179109159Y-37970328D01*
X179109149Y-37970332D01*
X178883647Y-38100525D01*
X178677066Y-38259040D01*
X178677059Y-38259046D01*
X178492945Y-38443160D01*
X178492939Y-38443167D01*
X178334424Y-38649748D01*
X178204231Y-38875250D01*
X178204227Y-38875260D01*
X178104581Y-39115825D01*
X178037187Y-39367343D01*
X178003201Y-39625495D01*
X178003200Y-39625511D01*
X174675999Y-39625511D01*
X174675999Y-39625505D01*
X174642011Y-39367342D01*
X174574617Y-39115824D01*
X174474969Y-38875254D01*
X174344774Y-38649748D01*
X174186258Y-38443166D01*
X174186253Y-38443160D01*
X174002139Y-38259046D01*
X174002132Y-38259040D01*
X173795551Y-38100525D01*
X173570049Y-37970332D01*
X173570039Y-37970328D01*
X173329474Y-37870682D01*
X173077956Y-37803288D01*
X172819804Y-37769302D01*
X172819801Y-37769301D01*
X172819795Y-37769301D01*
X172559403Y-37769301D01*
X172559397Y-37769301D01*
X172559393Y-37769302D01*
X172301241Y-37803288D01*
X172049723Y-37870682D01*
X171809158Y-37970328D01*
X171809148Y-37970332D01*
X171583646Y-38100525D01*
X171377065Y-38259040D01*
X171377058Y-38259046D01*
X171192944Y-38443160D01*
X171192938Y-38443167D01*
X171034423Y-38649748D01*
X170904230Y-38875250D01*
X170904226Y-38875260D01*
X170804580Y-39115825D01*
X170737186Y-39367343D01*
X170703200Y-39625495D01*
X170703199Y-39625511D01*
X108500500Y-39625511D01*
X108500500Y-35334378D01*
X173552200Y-35334378D01*
X173552200Y-35537019D01*
X173583899Y-35737162D01*
X173646521Y-35929891D01*
X173738516Y-36110443D01*
X173769145Y-36152598D01*
X173769146Y-36152599D01*
X174329365Y-35592379D01*
X174342550Y-35641584D01*
X174412774Y-35763214D01*
X174512085Y-35862525D01*
X174633715Y-35932749D01*
X174682919Y-35945933D01*
X174122699Y-36506152D01*
X174122699Y-36506153D01*
X174164854Y-36536781D01*
X174345407Y-36628777D01*
X174538136Y-36691399D01*
X174538135Y-36691399D01*
X174738280Y-36723099D01*
X174940920Y-36723099D01*
X175141063Y-36691399D01*
X175333792Y-36628777D01*
X175514347Y-36536780D01*
X175514351Y-36536778D01*
X175556499Y-36506153D01*
X175556500Y-36506153D01*
X174996280Y-35945933D01*
X175045485Y-35932749D01*
X175167115Y-35862525D01*
X175266426Y-35763214D01*
X175336650Y-35641584D01*
X175349834Y-35592379D01*
X175910053Y-36152599D01*
X175910054Y-36152598D01*
X175940679Y-36110450D01*
X175940681Y-36110446D01*
X176032678Y-35929891D01*
X176095300Y-35737162D01*
X176127000Y-35537019D01*
X176127000Y-35334378D01*
X176552199Y-35334378D01*
X176552199Y-35537019D01*
X176583898Y-35737162D01*
X176646520Y-35929891D01*
X176738515Y-36110443D01*
X176769144Y-36152598D01*
X176769145Y-36152599D01*
X177329364Y-35592379D01*
X177342549Y-35641584D01*
X177412773Y-35763214D01*
X177512084Y-35862525D01*
X177633714Y-35932749D01*
X177682918Y-35945933D01*
X177122698Y-36506152D01*
X177122698Y-36506153D01*
X177164853Y-36536781D01*
X177345406Y-36628777D01*
X177538135Y-36691399D01*
X177538134Y-36691399D01*
X177738279Y-36723099D01*
X177940919Y-36723099D01*
X178141062Y-36691399D01*
X178333791Y-36628777D01*
X178514346Y-36536780D01*
X178514350Y-36536778D01*
X178556498Y-36506153D01*
X178556499Y-36506153D01*
X177996279Y-35945933D01*
X178045484Y-35932749D01*
X178167114Y-35862525D01*
X178266425Y-35763214D01*
X178336649Y-35641584D01*
X178349833Y-35592379D01*
X178910052Y-36152599D01*
X178910053Y-36152598D01*
X178940678Y-36110450D01*
X178940680Y-36110446D01*
X179032677Y-35929891D01*
X179095299Y-35737162D01*
X179126999Y-35537019D01*
X179126999Y-35334378D01*
X179095299Y-35134235D01*
X179032677Y-34941506D01*
X178940681Y-34760953D01*
X178910052Y-34718798D01*
X178349832Y-35279017D01*
X178336649Y-35229814D01*
X178266425Y-35108184D01*
X178167114Y-35008873D01*
X178045484Y-34938649D01*
X177996279Y-34925464D01*
X178556499Y-34365245D01*
X178556498Y-34365244D01*
X178514343Y-34334615D01*
X178333791Y-34242620D01*
X178141062Y-34179998D01*
X178141063Y-34179998D01*
X177940919Y-34148299D01*
X177738279Y-34148299D01*
X177538135Y-34179998D01*
X177345406Y-34242620D01*
X177164849Y-34334618D01*
X177122698Y-34365243D01*
X177122697Y-34365244D01*
X177682918Y-34925464D01*
X177633714Y-34938649D01*
X177512084Y-35008873D01*
X177412773Y-35108184D01*
X177342549Y-35229814D01*
X177329365Y-35279018D01*
X176769144Y-34718797D01*
X176769143Y-34718798D01*
X176738518Y-34760949D01*
X176646520Y-34941506D01*
X176583898Y-35134235D01*
X176552199Y-35334378D01*
X176127000Y-35334378D01*
X176095300Y-35134235D01*
X176032678Y-34941506D01*
X175940682Y-34760953D01*
X175910053Y-34718798D01*
X175349833Y-35279017D01*
X175336650Y-35229814D01*
X175266426Y-35108184D01*
X175167115Y-35008873D01*
X175045485Y-34938649D01*
X174996280Y-34925464D01*
X175556500Y-34365245D01*
X175556499Y-34365244D01*
X175514344Y-34334615D01*
X175333792Y-34242620D01*
X175141063Y-34179998D01*
X175141064Y-34179998D01*
X174940920Y-34148299D01*
X174738280Y-34148299D01*
X174538136Y-34179998D01*
X174345407Y-34242620D01*
X174164850Y-34334618D01*
X174122699Y-34365243D01*
X174122698Y-34365244D01*
X174682919Y-34925464D01*
X174633715Y-34938649D01*
X174512085Y-35008873D01*
X174412774Y-35108184D01*
X174342550Y-35229814D01*
X174329366Y-35279018D01*
X173769145Y-34718797D01*
X173769144Y-34718798D01*
X173738519Y-34760949D01*
X173646521Y-34941506D01*
X173583899Y-35134235D01*
X173552200Y-35334378D01*
X108500500Y-35334378D01*
X108500500Y-33002706D01*
X108500618Y-32997297D01*
X108503377Y-32934108D01*
X108517386Y-32613226D01*
X108518326Y-32602495D01*
X108553629Y-32334340D01*
X173551700Y-32334340D01*
X173551700Y-32537059D01*
X173570375Y-32654971D01*
X173583413Y-32737284D01*
X173646057Y-32930082D01*
X173727433Y-33089791D01*
X173738092Y-33110709D01*
X173857239Y-33274704D01*
X174000595Y-33418060D01*
X174154056Y-33529554D01*
X174164594Y-33537210D01*
X174345218Y-33629243D01*
X174538016Y-33691887D01*
X174738240Y-33723600D01*
X174738241Y-33723600D01*
X174940959Y-33723600D01*
X174940960Y-33723600D01*
X175141184Y-33691887D01*
X175333982Y-33629243D01*
X175514606Y-33537210D01*
X175606685Y-33470310D01*
X175678604Y-33418060D01*
X175678606Y-33418057D01*
X175678610Y-33418055D01*
X175821955Y-33274710D01*
X175821957Y-33274706D01*
X175821960Y-33274704D01*
X175874210Y-33202785D01*
X175941110Y-33110706D01*
X176033143Y-32930082D01*
X176095787Y-32737284D01*
X176127500Y-32537060D01*
X176127500Y-32334340D01*
X176551699Y-32334340D01*
X176551699Y-32537059D01*
X176570374Y-32654971D01*
X176583412Y-32737284D01*
X176646056Y-32930082D01*
X176727432Y-33089791D01*
X176738091Y-33110709D01*
X176857238Y-33274704D01*
X177000594Y-33418060D01*
X177154055Y-33529554D01*
X177164593Y-33537210D01*
X177345217Y-33629243D01*
X177538015Y-33691887D01*
X177738239Y-33723600D01*
X177738240Y-33723600D01*
X177940958Y-33723600D01*
X177940959Y-33723600D01*
X178141183Y-33691887D01*
X178333981Y-33629243D01*
X178514605Y-33537210D01*
X178606684Y-33470310D01*
X178678603Y-33418060D01*
X178678605Y-33418057D01*
X178678609Y-33418055D01*
X178821954Y-33274710D01*
X178821956Y-33274706D01*
X178821959Y-33274704D01*
X178874209Y-33202785D01*
X178941109Y-33110706D01*
X179033142Y-32930082D01*
X179095786Y-32737284D01*
X179127499Y-32537060D01*
X179127499Y-32334340D01*
X179095786Y-32134116D01*
X179033142Y-31941318D01*
X178941109Y-31760694D01*
X178933453Y-31750156D01*
X178821959Y-31596695D01*
X178678603Y-31453339D01*
X178514608Y-31334192D01*
X178514607Y-31334191D01*
X178514605Y-31334190D01*
X178333981Y-31242157D01*
X178141183Y-31179513D01*
X178141181Y-31179512D01*
X178141179Y-31179512D01*
X178001381Y-31157370D01*
X177940959Y-31147800D01*
X177738239Y-31147800D01*
X177691823Y-31155151D01*
X177538018Y-31179512D01*
X177345214Y-31242158D01*
X177164589Y-31334192D01*
X177000594Y-31453339D01*
X176857238Y-31596695D01*
X176738091Y-31760690D01*
X176646057Y-31941315D01*
X176583411Y-32134119D01*
X176551699Y-32334340D01*
X176127500Y-32334340D01*
X176095787Y-32134116D01*
X176033143Y-31941318D01*
X175941110Y-31760694D01*
X175933454Y-31750156D01*
X175821960Y-31596695D01*
X175678604Y-31453339D01*
X175514609Y-31334192D01*
X175514608Y-31334191D01*
X175514606Y-31334190D01*
X175333982Y-31242157D01*
X175141184Y-31179513D01*
X175141182Y-31179512D01*
X175141180Y-31179512D01*
X175001382Y-31157370D01*
X174940960Y-31147800D01*
X174738240Y-31147800D01*
X174691824Y-31155151D01*
X174538019Y-31179512D01*
X174345215Y-31242158D01*
X174164590Y-31334192D01*
X174000595Y-31453339D01*
X173857239Y-31596695D01*
X173738092Y-31760690D01*
X173646058Y-31941315D01*
X173583412Y-32134119D01*
X173551700Y-32334340D01*
X108553629Y-32334340D01*
X108568153Y-32224021D01*
X108570025Y-32213405D01*
X108652649Y-31840709D01*
X108655440Y-31830295D01*
X108770230Y-31466227D01*
X108773917Y-31456095D01*
X108920003Y-31103412D01*
X108924561Y-31093638D01*
X109100822Y-30755045D01*
X109106217Y-30745700D01*
X109311325Y-30423744D01*
X109317515Y-30414905D01*
X109549896Y-30112060D01*
X109556834Y-30103791D01*
X109814726Y-29822352D01*
X109822352Y-29814726D01*
X110103791Y-29556834D01*
X110112060Y-29549896D01*
X110414905Y-29317515D01*
X110423744Y-29311325D01*
X110745700Y-29106217D01*
X110755045Y-29100822D01*
X111093638Y-28924561D01*
X111103412Y-28920003D01*
X111456095Y-28773917D01*
X111466227Y-28770230D01*
X111830295Y-28655440D01*
X111840709Y-28652649D01*
X112213405Y-28570025D01*
X112224025Y-28568152D01*
X112602495Y-28518326D01*
X112613226Y-28517386D01*
X112997297Y-28500617D01*
X113002706Y-28500500D01*
X113065892Y-28500500D01*
X237934108Y-28500500D01*
X237997439Y-28500500D01*
X238002562Y-28500605D01*
G37*
%TD.AperFunction*%
%TD*%
M02*
