M48
; DRILL file {KiCad 9.0.7} date 2026-05-06T10:24:26-0500
; FORMAT={-:-/ absolute / metric / decimal}
; #@! TF.CreationDate,2026-05-06T10:24:26-05:00
; #@! TF.GenerationSoftware,Kicad,Pcbnew,9.0.7
; #@! TF.FileFunction,Plated,1,4,PTH
FMAT,2
METRIC
; #@! TA.AperFunction,Plated,PTH,ViaDrill
T1C0.300
; #@! TA.AperFunction,Plated,PTH,ViaDrill
T2C0.400
; #@! TA.AperFunction,Plated,PTH,ComponentDrill
T3C0.420
; #@! TA.AperFunction,Plated,PTH,ComponentDrill
T4C0.500
; #@! TA.AperFunction,Plated,PTH,ComponentDrill
T5C1.000
; #@! TA.AperFunction,Plated,PTH,ComponentDrill
T6C1.067
; #@! TA.AperFunction,Plated,PTH,ComponentDrill
T7C2.464
; #@! TA.AperFunction,Plated,PTH,ComponentDrill
T8C3.200
%
G90
G05
T1
X209.45Y-78.125
X209.45Y-79.025
T2
X100.25Y-85.75
X102.25Y-68.25
X102.282Y-82.535
X105.0Y-80.75
X108.4Y-81.125
X108.652Y-66.658
X108.75Y-65.5
X109.418Y-67.376
X110.0Y-68.25
X111.5Y-69.0
X121.005Y-74.065
X121.055Y-69.89
X121.08Y-72.14
X121.771Y-54.51
X121.771Y-55.71
X121.771Y-57.01
X121.771Y-62.16
X121.771Y-63.36
X121.771Y-64.66
X121.8Y-50.675
X121.8Y-51.975
X121.8Y-53.275
X121.805Y-74.815
X125.075Y-78.575
X125.075Y-82.425
X126.6Y-53.95
X126.75Y-64.5
X127.9Y-75.175
X127.9Y-76.19
X127.9Y-77.19
X127.925Y-78.25
X131.0Y-59.8
X141.0Y-69.0
X151.95Y-74.075
X152.0Y-69.9
X152.025Y-72.15
X152.675Y-54.45
X152.675Y-55.8
X152.675Y-56.975
X152.675Y-62.1
X152.675Y-63.35
X152.675Y-64.625
X152.7Y-50.65
X152.7Y-51.925
X152.7Y-53.15
X152.75Y-74.825
X152.75Y-78.6
X152.775Y-82.425
X158.25Y-64.75
X161.0Y-69.0
X163.375Y-91.2
X163.475Y-86.225
X183.3Y-78.65
X183.3Y-82.375
X183.375Y-74.0
X183.45Y-69.925
X183.45Y-71.55
X183.725Y-54.445
X183.725Y-55.795
X183.725Y-56.97
X183.725Y-62.125
X183.725Y-63.375
X183.725Y-64.65
X183.75Y-50.645
X183.75Y-51.92
X183.75Y-53.145
X187.1Y-74.775
X189.0Y-64.75
X192.0Y-69.0
X204.8Y-69.0
X209.45Y-75.175
X209.45Y-80.0
X209.45Y-81.0
X209.475Y-76.19
X209.475Y-77.19
X209.475Y-82.175
X210.188Y-74.6
X214.225Y-74.031
X214.3Y-69.956
X214.3Y-71.581
X214.75Y-82.475
X214.775Y-54.44
X214.775Y-55.79
X214.775Y-56.965
X214.775Y-78.625
X214.8Y-50.64
X214.8Y-51.915
X214.8Y-53.14
X214.85Y-62.1
X214.85Y-63.35
X214.85Y-64.625
X217.95Y-74.806
X220.0Y-64.5
X221.25Y-65.5
T3
X164.65Y-78.45
X164.65Y-82.25
X164.65Y-86.05
X164.65Y-89.85
X165.4Y-77.05
X165.4Y-80.85
X165.4Y-84.65
X165.4Y-88.45
X166.15Y-77.75
X166.15Y-81.55
X166.15Y-85.35
X166.15Y-89.15
X166.9Y-78.45
X166.9Y-82.25
X166.9Y-86.05
X166.9Y-89.85
X167.65Y-77.05
X167.65Y-80.85
X167.65Y-84.65
X167.65Y-88.45
X168.4Y-77.75
X168.4Y-81.55
X168.4Y-85.35
X168.4Y-89.15
X169.15Y-78.45
X169.15Y-82.25
X169.15Y-86.05
X169.15Y-89.85
X169.9Y-77.05
X169.9Y-80.85
X169.9Y-84.65
X169.9Y-88.45
X170.65Y-77.75
X170.65Y-81.55
X170.65Y-85.35
X170.65Y-89.15
T4
X106.25Y-86.75
X107.25Y-86.75
X108.25Y-86.75
T5
X107.215Y-59.95
X107.232Y-48.5
X110.25Y-75.46
X110.25Y-78.0
X110.25Y-80.54
X112.215Y-59.95
X112.232Y-48.5
X137.832Y-60.0
X137.85Y-48.55
X142.832Y-60.0
X142.85Y-48.55
X171.768Y-59.975
X171.785Y-48.525
X176.768Y-59.975
X176.785Y-48.525
X200.332Y-60.0
X200.35Y-48.55
X205.332Y-60.0
X205.35Y-48.55
T6
X161.3Y-41.63
X161.3Y-44.63
X164.3Y-41.63
X164.3Y-44.63
T7
X159.15Y-48.95
X166.45Y-48.95
T8
X95.8Y-43.0
X95.875Y-89.575
X222.3Y-43.0
X222.375Y-89.575
M30
