%TF.GenerationSoftware,KiCad,Pcbnew,9.0.7*%
%TF.CreationDate,2026-05-06T10:24:24-05:00*%
%TF.ProjectId,RickNAS_4PortSATA,5269636b-4e41-4535-9f34-506f72745341,rev?*%
%TF.SameCoordinates,Original*%
%TF.FileFunction,Legend,Top*%
%TF.FilePolarity,Positive*%
%FSLAX46Y46*%
G04 Gerber Fmt 4.6, Leading zero omitted, Abs format (unit mm)*
G04 Created by KiCad (PCBNEW 9.0.7) date 2026-05-06 10:24:24*
%MOMM*%
%LPD*%
G01*
G04 APERTURE LIST*
%ADD10C,0.150000*%
%ADD11C,0.304800*%
%ADD12C,0.508000*%
%ADD13C,0.152400*%
%ADD14C,0.120000*%
G04 APERTURE END LIST*
D10*
X170004819Y-52438333D02*
X170719104Y-52438333D01*
X170719104Y-52438333D02*
X170861961Y-52485952D01*
X170861961Y-52485952D02*
X170957200Y-52581190D01*
X170957200Y-52581190D02*
X171004819Y-52724047D01*
X171004819Y-52724047D02*
X171004819Y-52819285D01*
X171004819Y-51914523D02*
X171004819Y-51724047D01*
X171004819Y-51724047D02*
X170957200Y-51628809D01*
X170957200Y-51628809D02*
X170909580Y-51581190D01*
X170909580Y-51581190D02*
X170766723Y-51485952D01*
X170766723Y-51485952D02*
X170576247Y-51438333D01*
X170576247Y-51438333D02*
X170195295Y-51438333D01*
X170195295Y-51438333D02*
X170100057Y-51485952D01*
X170100057Y-51485952D02*
X170052438Y-51533571D01*
X170052438Y-51533571D02*
X170004819Y-51628809D01*
X170004819Y-51628809D02*
X170004819Y-51819285D01*
X170004819Y-51819285D02*
X170052438Y-51914523D01*
X170052438Y-51914523D02*
X170100057Y-51962142D01*
X170100057Y-51962142D02*
X170195295Y-52009761D01*
X170195295Y-52009761D02*
X170433390Y-52009761D01*
X170433390Y-52009761D02*
X170528628Y-51962142D01*
X170528628Y-51962142D02*
X170576247Y-51914523D01*
X170576247Y-51914523D02*
X170623866Y-51819285D01*
X170623866Y-51819285D02*
X170623866Y-51628809D01*
X170623866Y-51628809D02*
X170576247Y-51533571D01*
X170576247Y-51533571D02*
X170528628Y-51485952D01*
X170528628Y-51485952D02*
X170433390Y-51438333D01*
X201004819Y-52914523D02*
X201719104Y-52914523D01*
X201719104Y-52914523D02*
X201861961Y-52962142D01*
X201861961Y-52962142D02*
X201957200Y-53057380D01*
X201957200Y-53057380D02*
X202004819Y-53200237D01*
X202004819Y-53200237D02*
X202004819Y-53295475D01*
X202004819Y-51914523D02*
X202004819Y-52485951D01*
X202004819Y-52200237D02*
X201004819Y-52200237D01*
X201004819Y-52200237D02*
X201147676Y-52295475D01*
X201147676Y-52295475D02*
X201242914Y-52390713D01*
X201242914Y-52390713D02*
X201290533Y-52485951D01*
X201004819Y-51295475D02*
X201004819Y-51200237D01*
X201004819Y-51200237D02*
X201052438Y-51104999D01*
X201052438Y-51104999D02*
X201100057Y-51057380D01*
X201100057Y-51057380D02*
X201195295Y-51009761D01*
X201195295Y-51009761D02*
X201385771Y-50962142D01*
X201385771Y-50962142D02*
X201623866Y-50962142D01*
X201623866Y-50962142D02*
X201814342Y-51009761D01*
X201814342Y-51009761D02*
X201909580Y-51057380D01*
X201909580Y-51057380D02*
X201957200Y-51104999D01*
X201957200Y-51104999D02*
X202004819Y-51200237D01*
X202004819Y-51200237D02*
X202004819Y-51295475D01*
X202004819Y-51295475D02*
X201957200Y-51390713D01*
X201957200Y-51390713D02*
X201909580Y-51438332D01*
X201909580Y-51438332D02*
X201814342Y-51485951D01*
X201814342Y-51485951D02*
X201623866Y-51533570D01*
X201623866Y-51533570D02*
X201385771Y-51533570D01*
X201385771Y-51533570D02*
X201195295Y-51485951D01*
X201195295Y-51485951D02*
X201100057Y-51438332D01*
X201100057Y-51438332D02*
X201052438Y-51390713D01*
X201052438Y-51390713D02*
X201004819Y-51295475D01*
X116204819Y-88053333D02*
X116919104Y-88053333D01*
X116919104Y-88053333D02*
X117061961Y-88100952D01*
X117061961Y-88100952D02*
X117157200Y-88196190D01*
X117157200Y-88196190D02*
X117204819Y-88339047D01*
X117204819Y-88339047D02*
X117204819Y-88434285D01*
X116204819Y-87672380D02*
X116204819Y-87005714D01*
X116204819Y-87005714D02*
X117204819Y-87434285D01*
X139004819Y-52438333D02*
X139719104Y-52438333D01*
X139719104Y-52438333D02*
X139861961Y-52485952D01*
X139861961Y-52485952D02*
X139957200Y-52581190D01*
X139957200Y-52581190D02*
X140004819Y-52724047D01*
X140004819Y-52724047D02*
X140004819Y-52819285D01*
X139433390Y-51819285D02*
X139385771Y-51914523D01*
X139385771Y-51914523D02*
X139338152Y-51962142D01*
X139338152Y-51962142D02*
X139242914Y-52009761D01*
X139242914Y-52009761D02*
X139195295Y-52009761D01*
X139195295Y-52009761D02*
X139100057Y-51962142D01*
X139100057Y-51962142D02*
X139052438Y-51914523D01*
X139052438Y-51914523D02*
X139004819Y-51819285D01*
X139004819Y-51819285D02*
X139004819Y-51628809D01*
X139004819Y-51628809D02*
X139052438Y-51533571D01*
X139052438Y-51533571D02*
X139100057Y-51485952D01*
X139100057Y-51485952D02*
X139195295Y-51438333D01*
X139195295Y-51438333D02*
X139242914Y-51438333D01*
X139242914Y-51438333D02*
X139338152Y-51485952D01*
X139338152Y-51485952D02*
X139385771Y-51533571D01*
X139385771Y-51533571D02*
X139433390Y-51628809D01*
X139433390Y-51628809D02*
X139433390Y-51819285D01*
X139433390Y-51819285D02*
X139481009Y-51914523D01*
X139481009Y-51914523D02*
X139528628Y-51962142D01*
X139528628Y-51962142D02*
X139623866Y-52009761D01*
X139623866Y-52009761D02*
X139814342Y-52009761D01*
X139814342Y-52009761D02*
X139909580Y-51962142D01*
X139909580Y-51962142D02*
X139957200Y-51914523D01*
X139957200Y-51914523D02*
X140004819Y-51819285D01*
X140004819Y-51819285D02*
X140004819Y-51628809D01*
X140004819Y-51628809D02*
X139957200Y-51533571D01*
X139957200Y-51533571D02*
X139909580Y-51485952D01*
X139909580Y-51485952D02*
X139814342Y-51438333D01*
X139814342Y-51438333D02*
X139623866Y-51438333D01*
X139623866Y-51438333D02*
X139528628Y-51485952D01*
X139528628Y-51485952D02*
X139481009Y-51533571D01*
X139481009Y-51533571D02*
X139433390Y-51628809D01*
X162466665Y-42584817D02*
X162466665Y-43299102D01*
X162466665Y-43299102D02*
X162419046Y-43441959D01*
X162419046Y-43441959D02*
X162323808Y-43537198D01*
X162323808Y-43537198D02*
X162180951Y-43584817D01*
X162180951Y-43584817D02*
X162085713Y-43584817D01*
X163371427Y-42584817D02*
X163180951Y-42584817D01*
X163180951Y-42584817D02*
X163085713Y-42632436D01*
X163085713Y-42632436D02*
X163038094Y-42680055D01*
X163038094Y-42680055D02*
X162942856Y-42822912D01*
X162942856Y-42822912D02*
X162895237Y-43013388D01*
X162895237Y-43013388D02*
X162895237Y-43394340D01*
X162895237Y-43394340D02*
X162942856Y-43489578D01*
X162942856Y-43489578D02*
X162990475Y-43537198D01*
X162990475Y-43537198D02*
X163085713Y-43584817D01*
X163085713Y-43584817D02*
X163276189Y-43584817D01*
X163276189Y-43584817D02*
X163371427Y-43537198D01*
X163371427Y-43537198D02*
X163419046Y-43489578D01*
X163419046Y-43489578D02*
X163466665Y-43394340D01*
X163466665Y-43394340D02*
X163466665Y-43156245D01*
X163466665Y-43156245D02*
X163419046Y-43061007D01*
X163419046Y-43061007D02*
X163371427Y-43013388D01*
X163371427Y-43013388D02*
X163276189Y-42965769D01*
X163276189Y-42965769D02*
X163085713Y-42965769D01*
X163085713Y-42965769D02*
X162990475Y-43013388D01*
X162990475Y-43013388D02*
X162942856Y-43061007D01*
X162942856Y-43061007D02*
X162895237Y-43156245D01*
X135039580Y-58192857D02*
X135087200Y-58240476D01*
X135087200Y-58240476D02*
X135134819Y-58383333D01*
X135134819Y-58383333D02*
X135134819Y-58478571D01*
X135134819Y-58478571D02*
X135087200Y-58621428D01*
X135087200Y-58621428D02*
X134991961Y-58716666D01*
X134991961Y-58716666D02*
X134896723Y-58764285D01*
X134896723Y-58764285D02*
X134706247Y-58811904D01*
X134706247Y-58811904D02*
X134563390Y-58811904D01*
X134563390Y-58811904D02*
X134372914Y-58764285D01*
X134372914Y-58764285D02*
X134277676Y-58716666D01*
X134277676Y-58716666D02*
X134182438Y-58621428D01*
X134182438Y-58621428D02*
X134134819Y-58478571D01*
X134134819Y-58478571D02*
X134134819Y-58383333D01*
X134134819Y-58383333D02*
X134182438Y-58240476D01*
X134182438Y-58240476D02*
X134230057Y-58192857D01*
X135134819Y-57240476D02*
X135134819Y-57811904D01*
X135134819Y-57526190D02*
X134134819Y-57526190D01*
X134134819Y-57526190D02*
X134277676Y-57621428D01*
X134277676Y-57621428D02*
X134372914Y-57716666D01*
X134372914Y-57716666D02*
X134420533Y-57811904D01*
X135134819Y-56288095D02*
X135134819Y-56859523D01*
X135134819Y-56573809D02*
X134134819Y-56573809D01*
X134134819Y-56573809D02*
X134277676Y-56669047D01*
X134277676Y-56669047D02*
X134372914Y-56764285D01*
X134372914Y-56764285D02*
X134420533Y-56859523D01*
X206166666Y-70454819D02*
X206166666Y-71169104D01*
X206166666Y-71169104D02*
X206119047Y-71311961D01*
X206119047Y-71311961D02*
X206023809Y-71407200D01*
X206023809Y-71407200D02*
X205880952Y-71454819D01*
X205880952Y-71454819D02*
X205785714Y-71454819D01*
X206642857Y-71454819D02*
X206642857Y-70454819D01*
X206642857Y-70454819D02*
X207023809Y-70454819D01*
X207023809Y-70454819D02*
X207119047Y-70502438D01*
X207119047Y-70502438D02*
X207166666Y-70550057D01*
X207166666Y-70550057D02*
X207214285Y-70645295D01*
X207214285Y-70645295D02*
X207214285Y-70788152D01*
X207214285Y-70788152D02*
X207166666Y-70883390D01*
X207166666Y-70883390D02*
X207119047Y-70931009D01*
X207119047Y-70931009D02*
X207023809Y-70978628D01*
X207023809Y-70978628D02*
X206642857Y-70978628D01*
X208071428Y-70788152D02*
X208071428Y-71454819D01*
X207833333Y-70407200D02*
X207595238Y-71121485D01*
X207595238Y-71121485D02*
X208214285Y-71121485D01*
X127261905Y-61804819D02*
X127261905Y-60804819D01*
X127261905Y-60804819D02*
X127500000Y-60804819D01*
X127500000Y-60804819D02*
X127642857Y-60852438D01*
X127642857Y-60852438D02*
X127738095Y-60947676D01*
X127738095Y-60947676D02*
X127785714Y-61042914D01*
X127785714Y-61042914D02*
X127833333Y-61233390D01*
X127833333Y-61233390D02*
X127833333Y-61376247D01*
X127833333Y-61376247D02*
X127785714Y-61566723D01*
X127785714Y-61566723D02*
X127738095Y-61661961D01*
X127738095Y-61661961D02*
X127642857Y-61757200D01*
X127642857Y-61757200D02*
X127500000Y-61804819D01*
X127500000Y-61804819D02*
X127261905Y-61804819D01*
X128785714Y-61804819D02*
X128214286Y-61804819D01*
X128500000Y-61804819D02*
X128500000Y-60804819D01*
X128500000Y-60804819D02*
X128404762Y-60947676D01*
X128404762Y-60947676D02*
X128309524Y-61042914D01*
X128309524Y-61042914D02*
X128214286Y-61090533D01*
X103238095Y-76879819D02*
X103238095Y-77689342D01*
X103238095Y-77689342D02*
X103285714Y-77784580D01*
X103285714Y-77784580D02*
X103333333Y-77832200D01*
X103333333Y-77832200D02*
X103428571Y-77879819D01*
X103428571Y-77879819D02*
X103619047Y-77879819D01*
X103619047Y-77879819D02*
X103714285Y-77832200D01*
X103714285Y-77832200D02*
X103761904Y-77784580D01*
X103761904Y-77784580D02*
X103809523Y-77689342D01*
X103809523Y-77689342D02*
X103809523Y-76879819D01*
X104809523Y-77879819D02*
X104238095Y-77879819D01*
X104523809Y-77879819D02*
X104523809Y-76879819D01*
X104523809Y-76879819D02*
X104428571Y-77022676D01*
X104428571Y-77022676D02*
X104333333Y-77117914D01*
X104333333Y-77117914D02*
X104238095Y-77165533D01*
X158449405Y-61804819D02*
X158449405Y-60804819D01*
X158449405Y-60804819D02*
X158687500Y-60804819D01*
X158687500Y-60804819D02*
X158830357Y-60852438D01*
X158830357Y-60852438D02*
X158925595Y-60947676D01*
X158925595Y-60947676D02*
X158973214Y-61042914D01*
X158973214Y-61042914D02*
X159020833Y-61233390D01*
X159020833Y-61233390D02*
X159020833Y-61376247D01*
X159020833Y-61376247D02*
X158973214Y-61566723D01*
X158973214Y-61566723D02*
X158925595Y-61661961D01*
X158925595Y-61661961D02*
X158830357Y-61757200D01*
X158830357Y-61757200D02*
X158687500Y-61804819D01*
X158687500Y-61804819D02*
X158449405Y-61804819D01*
X159401786Y-60900057D02*
X159449405Y-60852438D01*
X159449405Y-60852438D02*
X159544643Y-60804819D01*
X159544643Y-60804819D02*
X159782738Y-60804819D01*
X159782738Y-60804819D02*
X159877976Y-60852438D01*
X159877976Y-60852438D02*
X159925595Y-60900057D01*
X159925595Y-60900057D02*
X159973214Y-60995295D01*
X159973214Y-60995295D02*
X159973214Y-61090533D01*
X159973214Y-61090533D02*
X159925595Y-61233390D01*
X159925595Y-61233390D02*
X159354167Y-61804819D01*
X159354167Y-61804819D02*
X159973214Y-61804819D01*
X125954819Y-51461904D02*
X126764342Y-51461904D01*
X126764342Y-51461904D02*
X126859580Y-51414285D01*
X126859580Y-51414285D02*
X126907200Y-51366666D01*
X126907200Y-51366666D02*
X126954819Y-51271428D01*
X126954819Y-51271428D02*
X126954819Y-51080952D01*
X126954819Y-51080952D02*
X126907200Y-50985714D01*
X126907200Y-50985714D02*
X126859580Y-50938095D01*
X126859580Y-50938095D02*
X126764342Y-50890476D01*
X126764342Y-50890476D02*
X125954819Y-50890476D01*
X126050057Y-50461904D02*
X126002438Y-50414285D01*
X126002438Y-50414285D02*
X125954819Y-50319047D01*
X125954819Y-50319047D02*
X125954819Y-50080952D01*
X125954819Y-50080952D02*
X126002438Y-49985714D01*
X126002438Y-49985714D02*
X126050057Y-49938095D01*
X126050057Y-49938095D02*
X126145295Y-49890476D01*
X126145295Y-49890476D02*
X126240533Y-49890476D01*
X126240533Y-49890476D02*
X126383390Y-49938095D01*
X126383390Y-49938095D02*
X126954819Y-50509523D01*
X126954819Y-50509523D02*
X126954819Y-49890476D01*
X95113095Y-86279819D02*
X95113095Y-85279819D01*
X95113095Y-85756009D02*
X95684523Y-85756009D01*
X95684523Y-86279819D02*
X95684523Y-85279819D01*
X96065476Y-85279819D02*
X96684523Y-85279819D01*
X96684523Y-85279819D02*
X96351190Y-85660771D01*
X96351190Y-85660771D02*
X96494047Y-85660771D01*
X96494047Y-85660771D02*
X96589285Y-85708390D01*
X96589285Y-85708390D02*
X96636904Y-85756009D01*
X96636904Y-85756009D02*
X96684523Y-85851247D01*
X96684523Y-85851247D02*
X96684523Y-86089342D01*
X96684523Y-86089342D02*
X96636904Y-86184580D01*
X96636904Y-86184580D02*
X96589285Y-86232200D01*
X96589285Y-86232200D02*
X96494047Y-86279819D01*
X96494047Y-86279819D02*
X96208333Y-86279819D01*
X96208333Y-86279819D02*
X96113095Y-86232200D01*
X96113095Y-86232200D02*
X96065476Y-86184580D01*
X157941666Y-70254819D02*
X157941666Y-70969104D01*
X157941666Y-70969104D02*
X157894047Y-71111961D01*
X157894047Y-71111961D02*
X157798809Y-71207200D01*
X157798809Y-71207200D02*
X157655952Y-71254819D01*
X157655952Y-71254819D02*
X157560714Y-71254819D01*
X158417857Y-71254819D02*
X158417857Y-70254819D01*
X158417857Y-70254819D02*
X158798809Y-70254819D01*
X158798809Y-70254819D02*
X158894047Y-70302438D01*
X158894047Y-70302438D02*
X158941666Y-70350057D01*
X158941666Y-70350057D02*
X158989285Y-70445295D01*
X158989285Y-70445295D02*
X158989285Y-70588152D01*
X158989285Y-70588152D02*
X158941666Y-70683390D01*
X158941666Y-70683390D02*
X158894047Y-70731009D01*
X158894047Y-70731009D02*
X158798809Y-70778628D01*
X158798809Y-70778628D02*
X158417857Y-70778628D01*
X159370238Y-70350057D02*
X159417857Y-70302438D01*
X159417857Y-70302438D02*
X159513095Y-70254819D01*
X159513095Y-70254819D02*
X159751190Y-70254819D01*
X159751190Y-70254819D02*
X159846428Y-70302438D01*
X159846428Y-70302438D02*
X159894047Y-70350057D01*
X159894047Y-70350057D02*
X159941666Y-70445295D01*
X159941666Y-70445295D02*
X159941666Y-70540533D01*
X159941666Y-70540533D02*
X159894047Y-70683390D01*
X159894047Y-70683390D02*
X159322619Y-71254819D01*
X159322619Y-71254819D02*
X159941666Y-71254819D01*
X126941666Y-70254819D02*
X126941666Y-70969104D01*
X126941666Y-70969104D02*
X126894047Y-71111961D01*
X126894047Y-71111961D02*
X126798809Y-71207200D01*
X126798809Y-71207200D02*
X126655952Y-71254819D01*
X126655952Y-71254819D02*
X126560714Y-71254819D01*
X127417857Y-71254819D02*
X127417857Y-70254819D01*
X127417857Y-70254819D02*
X127798809Y-70254819D01*
X127798809Y-70254819D02*
X127894047Y-70302438D01*
X127894047Y-70302438D02*
X127941666Y-70350057D01*
X127941666Y-70350057D02*
X127989285Y-70445295D01*
X127989285Y-70445295D02*
X127989285Y-70588152D01*
X127989285Y-70588152D02*
X127941666Y-70683390D01*
X127941666Y-70683390D02*
X127894047Y-70731009D01*
X127894047Y-70731009D02*
X127798809Y-70778628D01*
X127798809Y-70778628D02*
X127417857Y-70778628D01*
X128941666Y-71254819D02*
X128370238Y-71254819D01*
X128655952Y-71254819D02*
X128655952Y-70254819D01*
X128655952Y-70254819D02*
X128560714Y-70397676D01*
X128560714Y-70397676D02*
X128465476Y-70492914D01*
X128465476Y-70492914D02*
X128370238Y-70540533D01*
X132539580Y-58192857D02*
X132587200Y-58240476D01*
X132587200Y-58240476D02*
X132634819Y-58383333D01*
X132634819Y-58383333D02*
X132634819Y-58478571D01*
X132634819Y-58478571D02*
X132587200Y-58621428D01*
X132587200Y-58621428D02*
X132491961Y-58716666D01*
X132491961Y-58716666D02*
X132396723Y-58764285D01*
X132396723Y-58764285D02*
X132206247Y-58811904D01*
X132206247Y-58811904D02*
X132063390Y-58811904D01*
X132063390Y-58811904D02*
X131872914Y-58764285D01*
X131872914Y-58764285D02*
X131777676Y-58716666D01*
X131777676Y-58716666D02*
X131682438Y-58621428D01*
X131682438Y-58621428D02*
X131634819Y-58478571D01*
X131634819Y-58478571D02*
X131634819Y-58383333D01*
X131634819Y-58383333D02*
X131682438Y-58240476D01*
X131682438Y-58240476D02*
X131730057Y-58192857D01*
X132634819Y-57240476D02*
X132634819Y-57811904D01*
X132634819Y-57526190D02*
X131634819Y-57526190D01*
X131634819Y-57526190D02*
X131777676Y-57621428D01*
X131777676Y-57621428D02*
X131872914Y-57716666D01*
X131872914Y-57716666D02*
X131920533Y-57811904D01*
X131634819Y-56621428D02*
X131634819Y-56526190D01*
X131634819Y-56526190D02*
X131682438Y-56430952D01*
X131682438Y-56430952D02*
X131730057Y-56383333D01*
X131730057Y-56383333D02*
X131825295Y-56335714D01*
X131825295Y-56335714D02*
X132015771Y-56288095D01*
X132015771Y-56288095D02*
X132253866Y-56288095D01*
X132253866Y-56288095D02*
X132444342Y-56335714D01*
X132444342Y-56335714D02*
X132539580Y-56383333D01*
X132539580Y-56383333D02*
X132587200Y-56430952D01*
X132587200Y-56430952D02*
X132634819Y-56526190D01*
X132634819Y-56526190D02*
X132634819Y-56621428D01*
X132634819Y-56621428D02*
X132587200Y-56716666D01*
X132587200Y-56716666D02*
X132539580Y-56764285D01*
X132539580Y-56764285D02*
X132444342Y-56811904D01*
X132444342Y-56811904D02*
X132253866Y-56859523D01*
X132253866Y-56859523D02*
X132015771Y-56859523D01*
X132015771Y-56859523D02*
X131825295Y-56811904D01*
X131825295Y-56811904D02*
X131730057Y-56764285D01*
X131730057Y-56764285D02*
X131682438Y-56716666D01*
X131682438Y-56716666D02*
X131634819Y-56621428D01*
X221613095Y-86279819D02*
X221613095Y-85279819D01*
X221613095Y-85756009D02*
X222184523Y-85756009D01*
X222184523Y-86279819D02*
X222184523Y-85279819D01*
X223089285Y-85613152D02*
X223089285Y-86279819D01*
X222851190Y-85232200D02*
X222613095Y-85946485D01*
X222613095Y-85946485D02*
X223232142Y-85946485D01*
X189337405Y-61817819D02*
X189337405Y-60817819D01*
X189337405Y-60817819D02*
X189575500Y-60817819D01*
X189575500Y-60817819D02*
X189718357Y-60865438D01*
X189718357Y-60865438D02*
X189813595Y-60960676D01*
X189813595Y-60960676D02*
X189861214Y-61055914D01*
X189861214Y-61055914D02*
X189908833Y-61246390D01*
X189908833Y-61246390D02*
X189908833Y-61389247D01*
X189908833Y-61389247D02*
X189861214Y-61579723D01*
X189861214Y-61579723D02*
X189813595Y-61674961D01*
X189813595Y-61674961D02*
X189718357Y-61770200D01*
X189718357Y-61770200D02*
X189575500Y-61817819D01*
X189575500Y-61817819D02*
X189337405Y-61817819D01*
X190242167Y-60817819D02*
X190861214Y-60817819D01*
X190861214Y-60817819D02*
X190527881Y-61198771D01*
X190527881Y-61198771D02*
X190670738Y-61198771D01*
X190670738Y-61198771D02*
X190765976Y-61246390D01*
X190765976Y-61246390D02*
X190813595Y-61294009D01*
X190813595Y-61294009D02*
X190861214Y-61389247D01*
X190861214Y-61389247D02*
X190861214Y-61627342D01*
X190861214Y-61627342D02*
X190813595Y-61722580D01*
X190813595Y-61722580D02*
X190765976Y-61770200D01*
X190765976Y-61770200D02*
X190670738Y-61817819D01*
X190670738Y-61817819D02*
X190385024Y-61817819D01*
X190385024Y-61817819D02*
X190289786Y-61770200D01*
X190289786Y-61770200D02*
X190242167Y-61722580D01*
X109916666Y-72534819D02*
X109916666Y-73249104D01*
X109916666Y-73249104D02*
X109869047Y-73391961D01*
X109869047Y-73391961D02*
X109773809Y-73487200D01*
X109773809Y-73487200D02*
X109630952Y-73534819D01*
X109630952Y-73534819D02*
X109535714Y-73534819D01*
X110297619Y-72534819D02*
X110916666Y-72534819D01*
X110916666Y-72534819D02*
X110583333Y-72915771D01*
X110583333Y-72915771D02*
X110726190Y-72915771D01*
X110726190Y-72915771D02*
X110821428Y-72963390D01*
X110821428Y-72963390D02*
X110869047Y-73011009D01*
X110869047Y-73011009D02*
X110916666Y-73106247D01*
X110916666Y-73106247D02*
X110916666Y-73344342D01*
X110916666Y-73344342D02*
X110869047Y-73439580D01*
X110869047Y-73439580D02*
X110821428Y-73487200D01*
X110821428Y-73487200D02*
X110726190Y-73534819D01*
X110726190Y-73534819D02*
X110440476Y-73534819D01*
X110440476Y-73534819D02*
X110345238Y-73487200D01*
X110345238Y-73487200D02*
X110297619Y-73439580D01*
X103554819Y-76190476D02*
X103078628Y-76523809D01*
X103554819Y-76761904D02*
X102554819Y-76761904D01*
X102554819Y-76761904D02*
X102554819Y-76380952D01*
X102554819Y-76380952D02*
X102602438Y-76285714D01*
X102602438Y-76285714D02*
X102650057Y-76238095D01*
X102650057Y-76238095D02*
X102745295Y-76190476D01*
X102745295Y-76190476D02*
X102888152Y-76190476D01*
X102888152Y-76190476D02*
X102983390Y-76238095D01*
X102983390Y-76238095D02*
X103031009Y-76285714D01*
X103031009Y-76285714D02*
X103078628Y-76380952D01*
X103078628Y-76380952D02*
X103078628Y-76761904D01*
X103554819Y-75761904D02*
X102554819Y-75761904D01*
X102554819Y-75761904D02*
X103554819Y-75190476D01*
X103554819Y-75190476D02*
X102554819Y-75190476D01*
X103554819Y-74190476D02*
X103554819Y-74761904D01*
X103554819Y-74476190D02*
X102554819Y-74476190D01*
X102554819Y-74476190D02*
X102697676Y-74571428D01*
X102697676Y-74571428D02*
X102792914Y-74666666D01*
X102792914Y-74666666D02*
X102840533Y-74761904D01*
X100789580Y-83416666D02*
X100837200Y-83464285D01*
X100837200Y-83464285D02*
X100884819Y-83607142D01*
X100884819Y-83607142D02*
X100884819Y-83702380D01*
X100884819Y-83702380D02*
X100837200Y-83845237D01*
X100837200Y-83845237D02*
X100741961Y-83940475D01*
X100741961Y-83940475D02*
X100646723Y-83988094D01*
X100646723Y-83988094D02*
X100456247Y-84035713D01*
X100456247Y-84035713D02*
X100313390Y-84035713D01*
X100313390Y-84035713D02*
X100122914Y-83988094D01*
X100122914Y-83988094D02*
X100027676Y-83940475D01*
X100027676Y-83940475D02*
X99932438Y-83845237D01*
X99932438Y-83845237D02*
X99884819Y-83702380D01*
X99884819Y-83702380D02*
X99884819Y-83607142D01*
X99884819Y-83607142D02*
X99932438Y-83464285D01*
X99932438Y-83464285D02*
X99980057Y-83416666D01*
X100884819Y-82940475D02*
X100884819Y-82749999D01*
X100884819Y-82749999D02*
X100837200Y-82654761D01*
X100837200Y-82654761D02*
X100789580Y-82607142D01*
X100789580Y-82607142D02*
X100646723Y-82511904D01*
X100646723Y-82511904D02*
X100456247Y-82464285D01*
X100456247Y-82464285D02*
X100075295Y-82464285D01*
X100075295Y-82464285D02*
X99980057Y-82511904D01*
X99980057Y-82511904D02*
X99932438Y-82559523D01*
X99932438Y-82559523D02*
X99884819Y-82654761D01*
X99884819Y-82654761D02*
X99884819Y-82845237D01*
X99884819Y-82845237D02*
X99932438Y-82940475D01*
X99932438Y-82940475D02*
X99980057Y-82988094D01*
X99980057Y-82988094D02*
X100075295Y-83035713D01*
X100075295Y-83035713D02*
X100313390Y-83035713D01*
X100313390Y-83035713D02*
X100408628Y-82988094D01*
X100408628Y-82988094D02*
X100456247Y-82940475D01*
X100456247Y-82940475D02*
X100503866Y-82845237D01*
X100503866Y-82845237D02*
X100503866Y-82654761D01*
X100503866Y-82654761D02*
X100456247Y-82559523D01*
X100456247Y-82559523D02*
X100408628Y-82511904D01*
X100408628Y-82511904D02*
X100313390Y-82464285D01*
X220337405Y-61817819D02*
X220337405Y-60817819D01*
X220337405Y-60817819D02*
X220575500Y-60817819D01*
X220575500Y-60817819D02*
X220718357Y-60865438D01*
X220718357Y-60865438D02*
X220813595Y-60960676D01*
X220813595Y-60960676D02*
X220861214Y-61055914D01*
X220861214Y-61055914D02*
X220908833Y-61246390D01*
X220908833Y-61246390D02*
X220908833Y-61389247D01*
X220908833Y-61389247D02*
X220861214Y-61579723D01*
X220861214Y-61579723D02*
X220813595Y-61674961D01*
X220813595Y-61674961D02*
X220718357Y-61770200D01*
X220718357Y-61770200D02*
X220575500Y-61817819D01*
X220575500Y-61817819D02*
X220337405Y-61817819D01*
X221765976Y-61151152D02*
X221765976Y-61817819D01*
X221527881Y-60770200D02*
X221289786Y-61484485D01*
X221289786Y-61484485D02*
X221908833Y-61484485D01*
X104094819Y-87083333D02*
X104809104Y-87083333D01*
X104809104Y-87083333D02*
X104951961Y-87130952D01*
X104951961Y-87130952D02*
X105047200Y-87226190D01*
X105047200Y-87226190D02*
X105094819Y-87369047D01*
X105094819Y-87369047D02*
X105094819Y-87464285D01*
X104190057Y-86654761D02*
X104142438Y-86607142D01*
X104142438Y-86607142D02*
X104094819Y-86511904D01*
X104094819Y-86511904D02*
X104094819Y-86273809D01*
X104094819Y-86273809D02*
X104142438Y-86178571D01*
X104142438Y-86178571D02*
X104190057Y-86130952D01*
X104190057Y-86130952D02*
X104285295Y-86083333D01*
X104285295Y-86083333D02*
X104380533Y-86083333D01*
X104380533Y-86083333D02*
X104523390Y-86130952D01*
X104523390Y-86130952D02*
X105094819Y-86702380D01*
X105094819Y-86702380D02*
X105094819Y-86083333D01*
X188941666Y-70254819D02*
X188941666Y-70969104D01*
X188941666Y-70969104D02*
X188894047Y-71111961D01*
X188894047Y-71111961D02*
X188798809Y-71207200D01*
X188798809Y-71207200D02*
X188655952Y-71254819D01*
X188655952Y-71254819D02*
X188560714Y-71254819D01*
X189417857Y-71254819D02*
X189417857Y-70254819D01*
X189417857Y-70254819D02*
X189798809Y-70254819D01*
X189798809Y-70254819D02*
X189894047Y-70302438D01*
X189894047Y-70302438D02*
X189941666Y-70350057D01*
X189941666Y-70350057D02*
X189989285Y-70445295D01*
X189989285Y-70445295D02*
X189989285Y-70588152D01*
X189989285Y-70588152D02*
X189941666Y-70683390D01*
X189941666Y-70683390D02*
X189894047Y-70731009D01*
X189894047Y-70731009D02*
X189798809Y-70778628D01*
X189798809Y-70778628D02*
X189417857Y-70778628D01*
X190322619Y-70254819D02*
X190941666Y-70254819D01*
X190941666Y-70254819D02*
X190608333Y-70635771D01*
X190608333Y-70635771D02*
X190751190Y-70635771D01*
X190751190Y-70635771D02*
X190846428Y-70683390D01*
X190846428Y-70683390D02*
X190894047Y-70731009D01*
X190894047Y-70731009D02*
X190941666Y-70826247D01*
X190941666Y-70826247D02*
X190941666Y-71064342D01*
X190941666Y-71064342D02*
X190894047Y-71159580D01*
X190894047Y-71159580D02*
X190846428Y-71207200D01*
X190846428Y-71207200D02*
X190751190Y-71254819D01*
X190751190Y-71254819D02*
X190465476Y-71254819D01*
X190465476Y-71254819D02*
X190370238Y-71207200D01*
X190370238Y-71207200D02*
X190322619Y-71159580D01*
%TO.C,J9*%
D11*
X180250000Y-89880000D02*
X187050000Y-89880000D01*
X187050000Y-43180000D01*
X180250000Y-43180000D01*
X180250000Y-89880000D01*
%TO.C,J10*%
X211250000Y-89880000D02*
X218050000Y-89880000D01*
X218050000Y-43180000D01*
X211250000Y-43180000D01*
X211250000Y-89880000D01*
%TO.C,J7*%
X118250000Y-89880000D02*
X125050000Y-89880000D01*
X125050000Y-43180000D01*
X118250000Y-43180000D01*
X118250000Y-89880000D01*
%TO.C,J8*%
X149250000Y-89880000D02*
X156050000Y-89880000D01*
X156050000Y-43180000D01*
X149250000Y-43180000D01*
X149250000Y-89880000D01*
D12*
%TO.C,J6*%
X169332900Y-44629998D02*
G75*
G02*
X168570900Y-44629998I-381000J0D01*
G01*
X168570900Y-44629998D02*
G75*
G02*
X169332900Y-44629998I381000J0D01*
G01*
D13*
X168006999Y-53672998D02*
X168006999Y-49889789D01*
X168006999Y-48010210D02*
X168006999Y-43512998D01*
X168006999Y-43512998D02*
X157592999Y-43512998D01*
X157592999Y-53672998D02*
X168006999Y-53672998D01*
X157592999Y-49889789D02*
X157592999Y-53672998D01*
X157592999Y-43512998D02*
X157592999Y-48010210D01*
D14*
%TO.C,C11*%
X132265000Y-57288748D02*
X132265000Y-57811252D01*
X133735000Y-57288748D02*
X133735000Y-57811252D01*
%TO.C,JP4*%
X205725000Y-68100000D02*
X208525000Y-68100000D01*
X205725000Y-70100000D02*
X205725000Y-68100000D01*
X208525000Y-68100000D02*
X208525000Y-70100000D01*
X208525000Y-70100000D02*
X205725000Y-70100000D01*
%TO.C,D1*%
X126315000Y-62040000D02*
X126315000Y-63960000D01*
X126315000Y-63960000D02*
X129000000Y-63960000D01*
X129000000Y-62040000D02*
X126315000Y-62040000D01*
%TO.C,U1*%
X104000000Y-78240000D02*
X101800000Y-78240000D01*
X104000000Y-78240000D02*
X106200000Y-78240000D01*
X104000000Y-85010000D02*
X101800000Y-85010000D01*
X104000000Y-85010000D02*
X106200000Y-85010000D01*
X100140000Y-78700000D02*
X99810000Y-78940000D01*
X99810000Y-78460000D01*
X100140000Y-78700000D01*
G36*
X100140000Y-78700000D02*
G01*
X99810000Y-78940000D01*
X99810000Y-78460000D01*
X100140000Y-78700000D01*
G37*
%TO.C,D2*%
X157502500Y-62040000D02*
X157502500Y-63960000D01*
X157502500Y-63960000D02*
X160187500Y-63960000D01*
X160187500Y-62040000D02*
X157502500Y-62040000D01*
%TO.C,U2*%
X127590000Y-48790000D02*
X128850000Y-48790000D01*
X127590000Y-52550000D02*
X127590000Y-48790000D01*
X134410000Y-48790000D02*
X133150000Y-48790000D01*
X134410000Y-52550000D02*
X134410000Y-48790000D01*
X127690000Y-53830000D02*
X127360000Y-54070000D01*
X127360000Y-53590000D01*
X127690000Y-53830000D01*
G36*
X127690000Y-53830000D02*
G01*
X127360000Y-54070000D01*
X127360000Y-53590000D01*
X127690000Y-53830000D01*
G37*
%TO.C,JP2*%
X157375000Y-68000000D02*
X160175000Y-68000000D01*
X157375000Y-70000000D02*
X157375000Y-68000000D01*
X160175000Y-68000000D02*
X160175000Y-70000000D01*
X160175000Y-70000000D02*
X157375000Y-70000000D01*
%TO.C,JP1*%
X126375000Y-68000000D02*
X129175000Y-68000000D01*
X126375000Y-70000000D02*
X126375000Y-68000000D01*
X129175000Y-68000000D02*
X129175000Y-70000000D01*
X129175000Y-70000000D02*
X126375000Y-70000000D01*
%TO.C,C10*%
X129765000Y-57288748D02*
X129765000Y-57811252D01*
X131235000Y-57288748D02*
X131235000Y-57811252D01*
%TO.C,D3*%
X188390500Y-62053000D02*
X188390500Y-63973000D01*
X188390500Y-63973000D02*
X191075500Y-63973000D01*
X191075500Y-62053000D02*
X188390500Y-62053000D01*
%TO.C,J3*%
X108870000Y-74080000D02*
X110250000Y-74080000D01*
X108870000Y-75460000D02*
X108870000Y-74080000D01*
X108870000Y-76730000D02*
X108870000Y-81920000D01*
X108870000Y-76730000D02*
X111630000Y-76730000D01*
X108870000Y-81920000D02*
X111630000Y-81920000D01*
X111630000Y-76730000D02*
X111630000Y-81920000D01*
%TO.C,RN1*%
X98780000Y-75900000D02*
X98780000Y-75100000D01*
X102220000Y-75900000D02*
X102220000Y-75100000D01*
%TO.C,C9*%
X98015000Y-82988748D02*
X98015000Y-83511252D01*
X99485000Y-82988748D02*
X99485000Y-83511252D01*
%TO.C,D4*%
X219390500Y-62053000D02*
X219390500Y-63973000D01*
X219390500Y-63973000D02*
X222075500Y-63973000D01*
X222075500Y-62053000D02*
X219390500Y-62053000D01*
%TO.C,J2*%
X105515000Y-87495000D02*
X105515000Y-86750000D01*
X106250000Y-87495000D02*
X105515000Y-87495000D01*
X106985000Y-86005000D02*
X108860000Y-86005000D01*
X106985000Y-86064435D02*
X106985000Y-86005000D01*
X106985000Y-87495000D02*
X106985000Y-87435565D01*
X106985000Y-87495000D02*
X108860000Y-87495000D01*
X108860000Y-86339970D02*
X108860000Y-86005000D01*
X108860000Y-87495000D02*
X108860000Y-87160030D01*
%TO.C,JP3*%
X188375000Y-68000000D02*
X191175000Y-68000000D01*
X188375000Y-70000000D02*
X188375000Y-68000000D01*
X191175000Y-68000000D02*
X191175000Y-70000000D01*
X191175000Y-70000000D02*
X188375000Y-70000000D01*
%TD*%
M02*
