%TF.GenerationSoftware,KiCad,Pcbnew,9.0.4*%
%TF.CreationDate,2026-02-06T12:59:01-06:00*%
%TF.ProjectId,RickNAS_4PortSATA,5269636b-4e41-4535-9f34-506f72745341,rev?*%
%TF.SameCoordinates,Original*%
%TF.FileFunction,Legend,Bot*%
%TF.FilePolarity,Positive*%
%FSLAX46Y46*%
G04 Gerber Fmt 4.6, Leading zero omitted, Abs format (unit mm)*
G04 Created by KiCad (PCBNEW 9.0.4) date 2026-02-06 12:59:01*
%MOMM*%
%LPD*%
G01*
G04 APERTURE LIST*
%ADD10C,0.150000*%
%ADD11C,0.254000*%
%ADD12C,0.508000*%
%ADD13C,0.120000*%
%ADD14C,0.100000*%
G04 APERTURE END LIST*
D10*
X225998989Y-66609580D02*
X226046608Y-66657200D01*
X226046608Y-66657200D02*
X226189465Y-66704819D01*
X226189465Y-66704819D02*
X226284703Y-66704819D01*
X226284703Y-66704819D02*
X226427560Y-66657200D01*
X226427560Y-66657200D02*
X226522798Y-66561961D01*
X226522798Y-66561961D02*
X226570417Y-66466723D01*
X226570417Y-66466723D02*
X226618036Y-66276247D01*
X226618036Y-66276247D02*
X226618036Y-66133390D01*
X226618036Y-66133390D02*
X226570417Y-65942914D01*
X226570417Y-65942914D02*
X226522798Y-65847676D01*
X226522798Y-65847676D02*
X226427560Y-65752438D01*
X226427560Y-65752438D02*
X226284703Y-65704819D01*
X226284703Y-65704819D02*
X226189465Y-65704819D01*
X226189465Y-65704819D02*
X226046608Y-65752438D01*
X226046608Y-65752438D02*
X225998989Y-65800057D01*
X225427560Y-66133390D02*
X225522798Y-66085771D01*
X225522798Y-66085771D02*
X225570417Y-66038152D01*
X225570417Y-66038152D02*
X225618036Y-65942914D01*
X225618036Y-65942914D02*
X225618036Y-65895295D01*
X225618036Y-65895295D02*
X225570417Y-65800057D01*
X225570417Y-65800057D02*
X225522798Y-65752438D01*
X225522798Y-65752438D02*
X225427560Y-65704819D01*
X225427560Y-65704819D02*
X225237084Y-65704819D01*
X225237084Y-65704819D02*
X225141846Y-65752438D01*
X225141846Y-65752438D02*
X225094227Y-65800057D01*
X225094227Y-65800057D02*
X225046608Y-65895295D01*
X225046608Y-65895295D02*
X225046608Y-65942914D01*
X225046608Y-65942914D02*
X225094227Y-66038152D01*
X225094227Y-66038152D02*
X225141846Y-66085771D01*
X225141846Y-66085771D02*
X225237084Y-66133390D01*
X225237084Y-66133390D02*
X225427560Y-66133390D01*
X225427560Y-66133390D02*
X225522798Y-66181009D01*
X225522798Y-66181009D02*
X225570417Y-66228628D01*
X225570417Y-66228628D02*
X225618036Y-66323866D01*
X225618036Y-66323866D02*
X225618036Y-66514342D01*
X225618036Y-66514342D02*
X225570417Y-66609580D01*
X225570417Y-66609580D02*
X225522798Y-66657200D01*
X225522798Y-66657200D02*
X225427560Y-66704819D01*
X225427560Y-66704819D02*
X225237084Y-66704819D01*
X225237084Y-66704819D02*
X225141846Y-66657200D01*
X225141846Y-66657200D02*
X225094227Y-66609580D01*
X225094227Y-66609580D02*
X225046608Y-66514342D01*
X225046608Y-66514342D02*
X225046608Y-66323866D01*
X225046608Y-66323866D02*
X225094227Y-66228628D01*
X225094227Y-66228628D02*
X225141846Y-66181009D01*
X225141846Y-66181009D02*
X225237084Y-66133390D01*
X132881312Y-66559580D02*
X132928931Y-66607200D01*
X132928931Y-66607200D02*
X133071788Y-66654819D01*
X133071788Y-66654819D02*
X133167026Y-66654819D01*
X133167026Y-66654819D02*
X133309883Y-66607200D01*
X133309883Y-66607200D02*
X133405121Y-66511961D01*
X133405121Y-66511961D02*
X133452740Y-66416723D01*
X133452740Y-66416723D02*
X133500359Y-66226247D01*
X133500359Y-66226247D02*
X133500359Y-66083390D01*
X133500359Y-66083390D02*
X133452740Y-65892914D01*
X133452740Y-65892914D02*
X133405121Y-65797676D01*
X133405121Y-65797676D02*
X133309883Y-65702438D01*
X133309883Y-65702438D02*
X133167026Y-65654819D01*
X133167026Y-65654819D02*
X133071788Y-65654819D01*
X133071788Y-65654819D02*
X132928931Y-65702438D01*
X132928931Y-65702438D02*
X132881312Y-65750057D01*
X132500359Y-65750057D02*
X132452740Y-65702438D01*
X132452740Y-65702438D02*
X132357502Y-65654819D01*
X132357502Y-65654819D02*
X132119407Y-65654819D01*
X132119407Y-65654819D02*
X132024169Y-65702438D01*
X132024169Y-65702438D02*
X131976550Y-65750057D01*
X131976550Y-65750057D02*
X131928931Y-65845295D01*
X131928931Y-65845295D02*
X131928931Y-65940533D01*
X131928931Y-65940533D02*
X131976550Y-66083390D01*
X131976550Y-66083390D02*
X132547978Y-66654819D01*
X132547978Y-66654819D02*
X131928931Y-66654819D01*
X226016666Y-55159580D02*
X226064285Y-55207200D01*
X226064285Y-55207200D02*
X226207142Y-55254819D01*
X226207142Y-55254819D02*
X226302380Y-55254819D01*
X226302380Y-55254819D02*
X226445237Y-55207200D01*
X226445237Y-55207200D02*
X226540475Y-55111961D01*
X226540475Y-55111961D02*
X226588094Y-55016723D01*
X226588094Y-55016723D02*
X226635713Y-54826247D01*
X226635713Y-54826247D02*
X226635713Y-54683390D01*
X226635713Y-54683390D02*
X226588094Y-54492914D01*
X226588094Y-54492914D02*
X226540475Y-54397676D01*
X226540475Y-54397676D02*
X226445237Y-54302438D01*
X226445237Y-54302438D02*
X226302380Y-54254819D01*
X226302380Y-54254819D02*
X226207142Y-54254819D01*
X226207142Y-54254819D02*
X226064285Y-54302438D01*
X226064285Y-54302438D02*
X226016666Y-54350057D01*
X225683332Y-54254819D02*
X225016666Y-54254819D01*
X225016666Y-54254819D02*
X225445237Y-55254819D01*
X132898989Y-55109580D02*
X132946608Y-55157200D01*
X132946608Y-55157200D02*
X133089465Y-55204819D01*
X133089465Y-55204819D02*
X133184703Y-55204819D01*
X133184703Y-55204819D02*
X133327560Y-55157200D01*
X133327560Y-55157200D02*
X133422798Y-55061961D01*
X133422798Y-55061961D02*
X133470417Y-54966723D01*
X133470417Y-54966723D02*
X133518036Y-54776247D01*
X133518036Y-54776247D02*
X133518036Y-54633390D01*
X133518036Y-54633390D02*
X133470417Y-54442914D01*
X133470417Y-54442914D02*
X133422798Y-54347676D01*
X133422798Y-54347676D02*
X133327560Y-54252438D01*
X133327560Y-54252438D02*
X133184703Y-54204819D01*
X133184703Y-54204819D02*
X133089465Y-54204819D01*
X133089465Y-54204819D02*
X132946608Y-54252438D01*
X132946608Y-54252438D02*
X132898989Y-54300057D01*
X132041846Y-54538152D02*
X132041846Y-55204819D01*
X132279941Y-54157200D02*
X132518036Y-54871485D01*
X132518036Y-54871485D02*
X131898989Y-54871485D01*
X194516666Y-55159580D02*
X194564285Y-55207200D01*
X194564285Y-55207200D02*
X194707142Y-55254819D01*
X194707142Y-55254819D02*
X194802380Y-55254819D01*
X194802380Y-55254819D02*
X194945237Y-55207200D01*
X194945237Y-55207200D02*
X195040475Y-55111961D01*
X195040475Y-55111961D02*
X195088094Y-55016723D01*
X195088094Y-55016723D02*
X195135713Y-54826247D01*
X195135713Y-54826247D02*
X195135713Y-54683390D01*
X195135713Y-54683390D02*
X195088094Y-54492914D01*
X195088094Y-54492914D02*
X195040475Y-54397676D01*
X195040475Y-54397676D02*
X194945237Y-54302438D01*
X194945237Y-54302438D02*
X194802380Y-54254819D01*
X194802380Y-54254819D02*
X194707142Y-54254819D01*
X194707142Y-54254819D02*
X194564285Y-54302438D01*
X194564285Y-54302438D02*
X194516666Y-54350057D01*
X193611904Y-54254819D02*
X194088094Y-54254819D01*
X194088094Y-54254819D02*
X194135713Y-54731009D01*
X194135713Y-54731009D02*
X194088094Y-54683390D01*
X194088094Y-54683390D02*
X193992856Y-54635771D01*
X193992856Y-54635771D02*
X193754761Y-54635771D01*
X193754761Y-54635771D02*
X193659523Y-54683390D01*
X193659523Y-54683390D02*
X193611904Y-54731009D01*
X193611904Y-54731009D02*
X193564285Y-54826247D01*
X193564285Y-54826247D02*
X193564285Y-55064342D01*
X193564285Y-55064342D02*
X193611904Y-55159580D01*
X193611904Y-55159580D02*
X193659523Y-55207200D01*
X193659523Y-55207200D02*
X193754761Y-55254819D01*
X193754761Y-55254819D02*
X193992856Y-55254819D01*
X193992856Y-55254819D02*
X194088094Y-55207200D01*
X194088094Y-55207200D02*
X194135713Y-55159580D01*
X194498989Y-66609580D02*
X194546608Y-66657200D01*
X194546608Y-66657200D02*
X194689465Y-66704819D01*
X194689465Y-66704819D02*
X194784703Y-66704819D01*
X194784703Y-66704819D02*
X194927560Y-66657200D01*
X194927560Y-66657200D02*
X195022798Y-66561961D01*
X195022798Y-66561961D02*
X195070417Y-66466723D01*
X195070417Y-66466723D02*
X195118036Y-66276247D01*
X195118036Y-66276247D02*
X195118036Y-66133390D01*
X195118036Y-66133390D02*
X195070417Y-65942914D01*
X195070417Y-65942914D02*
X195022798Y-65847676D01*
X195022798Y-65847676D02*
X194927560Y-65752438D01*
X194927560Y-65752438D02*
X194784703Y-65704819D01*
X194784703Y-65704819D02*
X194689465Y-65704819D01*
X194689465Y-65704819D02*
X194546608Y-65752438D01*
X194546608Y-65752438D02*
X194498989Y-65800057D01*
X193641846Y-65704819D02*
X193832322Y-65704819D01*
X193832322Y-65704819D02*
X193927560Y-65752438D01*
X193927560Y-65752438D02*
X193975179Y-65800057D01*
X193975179Y-65800057D02*
X194070417Y-65942914D01*
X194070417Y-65942914D02*
X194118036Y-66133390D01*
X194118036Y-66133390D02*
X194118036Y-66514342D01*
X194118036Y-66514342D02*
X194070417Y-66609580D01*
X194070417Y-66609580D02*
X194022798Y-66657200D01*
X194022798Y-66657200D02*
X193927560Y-66704819D01*
X193927560Y-66704819D02*
X193737084Y-66704819D01*
X193737084Y-66704819D02*
X193641846Y-66657200D01*
X193641846Y-66657200D02*
X193594227Y-66609580D01*
X193594227Y-66609580D02*
X193546608Y-66514342D01*
X193546608Y-66514342D02*
X193546608Y-66276247D01*
X193546608Y-66276247D02*
X193594227Y-66181009D01*
X193594227Y-66181009D02*
X193641846Y-66133390D01*
X193641846Y-66133390D02*
X193737084Y-66085771D01*
X193737084Y-66085771D02*
X193927560Y-66085771D01*
X193927560Y-66085771D02*
X194022798Y-66133390D01*
X194022798Y-66133390D02*
X194070417Y-66181009D01*
X194070417Y-66181009D02*
X194118036Y-66276247D01*
X163516666Y-55159580D02*
X163564285Y-55207200D01*
X163564285Y-55207200D02*
X163707142Y-55254819D01*
X163707142Y-55254819D02*
X163802380Y-55254819D01*
X163802380Y-55254819D02*
X163945237Y-55207200D01*
X163945237Y-55207200D02*
X164040475Y-55111961D01*
X164040475Y-55111961D02*
X164088094Y-55016723D01*
X164088094Y-55016723D02*
X164135713Y-54826247D01*
X164135713Y-54826247D02*
X164135713Y-54683390D01*
X164135713Y-54683390D02*
X164088094Y-54492914D01*
X164088094Y-54492914D02*
X164040475Y-54397676D01*
X164040475Y-54397676D02*
X163945237Y-54302438D01*
X163945237Y-54302438D02*
X163802380Y-54254819D01*
X163802380Y-54254819D02*
X163707142Y-54254819D01*
X163707142Y-54254819D02*
X163564285Y-54302438D01*
X163564285Y-54302438D02*
X163516666Y-54350057D01*
X163183332Y-54254819D02*
X162564285Y-54254819D01*
X162564285Y-54254819D02*
X162897618Y-54635771D01*
X162897618Y-54635771D02*
X162754761Y-54635771D01*
X162754761Y-54635771D02*
X162659523Y-54683390D01*
X162659523Y-54683390D02*
X162611904Y-54731009D01*
X162611904Y-54731009D02*
X162564285Y-54826247D01*
X162564285Y-54826247D02*
X162564285Y-55064342D01*
X162564285Y-55064342D02*
X162611904Y-55159580D01*
X162611904Y-55159580D02*
X162659523Y-55207200D01*
X162659523Y-55207200D02*
X162754761Y-55254819D01*
X162754761Y-55254819D02*
X163040475Y-55254819D01*
X163040475Y-55254819D02*
X163135713Y-55207200D01*
X163135713Y-55207200D02*
X163183332Y-55159580D01*
X163498989Y-66609580D02*
X163546608Y-66657200D01*
X163546608Y-66657200D02*
X163689465Y-66704819D01*
X163689465Y-66704819D02*
X163784703Y-66704819D01*
X163784703Y-66704819D02*
X163927560Y-66657200D01*
X163927560Y-66657200D02*
X164022798Y-66561961D01*
X164022798Y-66561961D02*
X164070417Y-66466723D01*
X164070417Y-66466723D02*
X164118036Y-66276247D01*
X164118036Y-66276247D02*
X164118036Y-66133390D01*
X164118036Y-66133390D02*
X164070417Y-65942914D01*
X164070417Y-65942914D02*
X164022798Y-65847676D01*
X164022798Y-65847676D02*
X163927560Y-65752438D01*
X163927560Y-65752438D02*
X163784703Y-65704819D01*
X163784703Y-65704819D02*
X163689465Y-65704819D01*
X163689465Y-65704819D02*
X163546608Y-65752438D01*
X163546608Y-65752438D02*
X163498989Y-65800057D01*
X162546608Y-66704819D02*
X163118036Y-66704819D01*
X162832322Y-66704819D02*
X162832322Y-65704819D01*
X162832322Y-65704819D02*
X162927560Y-65847676D01*
X162927560Y-65847676D02*
X163022798Y-65942914D01*
X163022798Y-65942914D02*
X163118036Y-65990533D01*
D11*
X167804318Y-87876667D02*
X168711461Y-87876667D01*
X168711461Y-87876667D02*
X168892889Y-87816190D01*
X168892889Y-87816190D02*
X169013842Y-87695238D01*
X169013842Y-87695238D02*
X169074318Y-87513809D01*
X169074318Y-87513809D02*
X169074318Y-87392857D01*
X169074318Y-89146667D02*
X169074318Y-88420952D01*
X169074318Y-88783809D02*
X167804318Y-88783809D01*
X167804318Y-88783809D02*
X167985746Y-88662857D01*
X167985746Y-88662857D02*
X168106699Y-88541905D01*
X168106699Y-88541905D02*
X168167175Y-88420952D01*
D12*
%TO.C,J10*%
X213210499Y-89238400D02*
G75*
G02*
X212448499Y-89238400I-381000J0D01*
G01*
X212448499Y-89238400D02*
G75*
G02*
X213210499Y-89238400I381000J0D01*
G01*
%TO.C,J9*%
X182010499Y-89238400D02*
G75*
G02*
X181248499Y-89238400I-381000J0D01*
G01*
X181248499Y-89238400D02*
G75*
G02*
X182010499Y-89238400I381000J0D01*
G01*
%TO.C,J8*%
X151081000Y-89238400D02*
G75*
G02*
X150319000Y-89238400I-381000J0D01*
G01*
X150319000Y-89238400D02*
G75*
G02*
X151081000Y-89238400I381000J0D01*
G01*
%TO.C,J7*%
X120210499Y-89238400D02*
G75*
G02*
X119448499Y-89238400I-381000J0D01*
G01*
X119448499Y-89238400D02*
G75*
G02*
X120210499Y-89238400I381000J0D01*
G01*
D13*
%TO.C,C8*%
X220352677Y-62875000D02*
X221352677Y-62875000D01*
X220852677Y-63375000D02*
X220852677Y-62375000D01*
X225832323Y-65080000D02*
X225832323Y-54920000D01*
X225872323Y-65080000D02*
X225872323Y-54920000D01*
X225912323Y-65079000D02*
X225912323Y-54921000D01*
X225952323Y-65079000D02*
X225952323Y-54921000D01*
X225992323Y-65077000D02*
X225992323Y-54923000D01*
X226032323Y-65076000D02*
X226032323Y-54924000D01*
X226072323Y-65074000D02*
X226072323Y-54926000D01*
X226112323Y-65072000D02*
X226112323Y-54928000D01*
X226152323Y-65070000D02*
X226152323Y-54930000D01*
X226192323Y-65067000D02*
X226192323Y-54933000D01*
X226232323Y-65064000D02*
X226232323Y-54936000D01*
X226272323Y-65061000D02*
X226272323Y-54939000D01*
X226312323Y-65057000D02*
X226312323Y-54943000D01*
X226352323Y-65054000D02*
X226352323Y-54946000D01*
X226392323Y-65049000D02*
X226392323Y-54951000D01*
X226432323Y-65045000D02*
X226432323Y-54955000D01*
X226472323Y-65040000D02*
X226472323Y-54960000D01*
X226512323Y-65035000D02*
X226512323Y-54965000D01*
X226552323Y-65029000D02*
X226552323Y-54971000D01*
X226592323Y-65023000D02*
X226592323Y-54977000D01*
X226632323Y-65017000D02*
X226632323Y-54983000D01*
X226672323Y-65011000D02*
X226672323Y-54989000D01*
X226712323Y-65004000D02*
X226712323Y-54996000D01*
X226752323Y-64997000D02*
X226752323Y-55003000D01*
X226792323Y-64989000D02*
X226792323Y-55011000D01*
X226832323Y-64981000D02*
X226832323Y-55019000D01*
X226872323Y-64973000D02*
X226872323Y-55027000D01*
X226912323Y-64965000D02*
X226912323Y-55035000D01*
X226952323Y-64956000D02*
X226952323Y-55044000D01*
X226992323Y-64947000D02*
X226992323Y-55053000D01*
X227032323Y-64937000D02*
X227032323Y-55063000D01*
X227072323Y-64928000D02*
X227072323Y-55072000D01*
X227112323Y-64917000D02*
X227112323Y-61240000D01*
X227112323Y-58760000D02*
X227112323Y-55083000D01*
X227152323Y-64907000D02*
X227152323Y-61240000D01*
X227152323Y-58760000D02*
X227152323Y-55093000D01*
X227192323Y-64896000D02*
X227192323Y-61240000D01*
X227192323Y-58760000D02*
X227192323Y-55104000D01*
X227232323Y-64885000D02*
X227232323Y-61240000D01*
X227232323Y-58760000D02*
X227232323Y-55115000D01*
X227272323Y-64873000D02*
X227272323Y-61240000D01*
X227272323Y-58760000D02*
X227272323Y-55127000D01*
X227312323Y-64861000D02*
X227312323Y-61240000D01*
X227312323Y-58760000D02*
X227312323Y-55139000D01*
X227352323Y-64849000D02*
X227352323Y-61240000D01*
X227352323Y-58760000D02*
X227352323Y-55151000D01*
X227392323Y-64837000D02*
X227392323Y-61240000D01*
X227392323Y-58760000D02*
X227392323Y-55163000D01*
X227432323Y-64824000D02*
X227432323Y-61240000D01*
X227432323Y-58760000D02*
X227432323Y-55176000D01*
X227472323Y-64810000D02*
X227472323Y-61240000D01*
X227472323Y-58760000D02*
X227472323Y-55190000D01*
X227512323Y-64797000D02*
X227512323Y-61240000D01*
X227512323Y-58760000D02*
X227512323Y-55203000D01*
X227552323Y-64782000D02*
X227552323Y-61240000D01*
X227552323Y-58760000D02*
X227552323Y-55218000D01*
X227592323Y-64768000D02*
X227592323Y-61240000D01*
X227592323Y-58760000D02*
X227592323Y-55232000D01*
X227632323Y-64753000D02*
X227632323Y-61240000D01*
X227632323Y-58760000D02*
X227632323Y-55247000D01*
X227672323Y-64738000D02*
X227672323Y-61240000D01*
X227672323Y-58760000D02*
X227672323Y-55262000D01*
X227712323Y-64722000D02*
X227712323Y-61240000D01*
X227712323Y-58760000D02*
X227712323Y-55278000D01*
X227752323Y-64706000D02*
X227752323Y-61240000D01*
X227752323Y-58760000D02*
X227752323Y-55294000D01*
X227792323Y-64690000D02*
X227792323Y-61240000D01*
X227792323Y-58760000D02*
X227792323Y-55310000D01*
X227832323Y-64673000D02*
X227832323Y-61240000D01*
X227832323Y-58760000D02*
X227832323Y-55327000D01*
X227872323Y-64656000D02*
X227872323Y-61240000D01*
X227872323Y-58760000D02*
X227872323Y-55344000D01*
X227912323Y-64638000D02*
X227912323Y-61240000D01*
X227912323Y-58760000D02*
X227912323Y-55362000D01*
X227952323Y-64620000D02*
X227952323Y-61240000D01*
X227952323Y-58760000D02*
X227952323Y-55380000D01*
X227992323Y-64602000D02*
X227992323Y-61240000D01*
X227992323Y-58760000D02*
X227992323Y-55398000D01*
X228032323Y-64583000D02*
X228032323Y-61240000D01*
X228032323Y-58760000D02*
X228032323Y-55417000D01*
X228072323Y-64564000D02*
X228072323Y-61240000D01*
X228072323Y-58760000D02*
X228072323Y-55436000D01*
X228112323Y-64544000D02*
X228112323Y-61240000D01*
X228112323Y-58760000D02*
X228112323Y-55456000D01*
X228152323Y-64524000D02*
X228152323Y-61240000D01*
X228152323Y-58760000D02*
X228152323Y-55476000D01*
X228192323Y-64504000D02*
X228192323Y-61240000D01*
X228192323Y-58760000D02*
X228192323Y-55496000D01*
X228232323Y-64483000D02*
X228232323Y-61240000D01*
X228232323Y-58760000D02*
X228232323Y-55517000D01*
X228272323Y-64461000D02*
X228272323Y-61240000D01*
X228272323Y-58760000D02*
X228272323Y-55539000D01*
X228312323Y-64439000D02*
X228312323Y-61240000D01*
X228312323Y-58760000D02*
X228312323Y-55561000D01*
X228352323Y-64417000D02*
X228352323Y-61240000D01*
X228352323Y-58760000D02*
X228352323Y-55583000D01*
X228392323Y-64394000D02*
X228392323Y-61240000D01*
X228392323Y-58760000D02*
X228392323Y-55606000D01*
X228432323Y-64371000D02*
X228432323Y-61240000D01*
X228432323Y-58760000D02*
X228432323Y-55629000D01*
X228472323Y-64347000D02*
X228472323Y-61240000D01*
X228472323Y-58760000D02*
X228472323Y-55653000D01*
X228512323Y-64323000D02*
X228512323Y-61240000D01*
X228512323Y-58760000D02*
X228512323Y-55677000D01*
X228552323Y-64298000D02*
X228552323Y-61240000D01*
X228552323Y-58760000D02*
X228552323Y-55702000D01*
X228592323Y-64272000D02*
X228592323Y-61240000D01*
X228592323Y-58760000D02*
X228592323Y-55728000D01*
X228632323Y-64247000D02*
X228632323Y-61240000D01*
X228632323Y-58760000D02*
X228632323Y-55753000D01*
X228672323Y-64220000D02*
X228672323Y-61240000D01*
X228672323Y-58760000D02*
X228672323Y-55780000D01*
X228712323Y-64193000D02*
X228712323Y-61240000D01*
X228712323Y-58760000D02*
X228712323Y-55807000D01*
X228752323Y-64166000D02*
X228752323Y-61240000D01*
X228752323Y-58760000D02*
X228752323Y-55834000D01*
X228792323Y-64138000D02*
X228792323Y-61240000D01*
X228792323Y-58760000D02*
X228792323Y-55862000D01*
X228832323Y-64109000D02*
X228832323Y-61240000D01*
X228832323Y-58760000D02*
X228832323Y-55891000D01*
X228872323Y-64080000D02*
X228872323Y-61240000D01*
X228872323Y-58760000D02*
X228872323Y-55920000D01*
X228912323Y-64050000D02*
X228912323Y-61240000D01*
X228912323Y-58760000D02*
X228912323Y-55950000D01*
X228952323Y-64020000D02*
X228952323Y-61240000D01*
X228952323Y-58760000D02*
X228952323Y-55980000D01*
X228992323Y-63988000D02*
X228992323Y-61240000D01*
X228992323Y-58760000D02*
X228992323Y-56012000D01*
X229032323Y-63957000D02*
X229032323Y-61240000D01*
X229032323Y-58760000D02*
X229032323Y-56043000D01*
X229072323Y-63924000D02*
X229072323Y-61240000D01*
X229072323Y-58760000D02*
X229072323Y-56076000D01*
X229112323Y-63891000D02*
X229112323Y-61240000D01*
X229112323Y-58760000D02*
X229112323Y-56109000D01*
X229152323Y-63858000D02*
X229152323Y-61240000D01*
X229152323Y-58760000D02*
X229152323Y-56142000D01*
X229192323Y-63823000D02*
X229192323Y-61240000D01*
X229192323Y-58760000D02*
X229192323Y-56177000D01*
X229232323Y-63788000D02*
X229232323Y-61240000D01*
X229232323Y-58760000D02*
X229232323Y-56212000D01*
X229272323Y-63752000D02*
X229272323Y-61240000D01*
X229272323Y-58760000D02*
X229272323Y-56248000D01*
X229312323Y-63716000D02*
X229312323Y-61240000D01*
X229312323Y-58760000D02*
X229312323Y-56284000D01*
X229352323Y-63678000D02*
X229352323Y-61240000D01*
X229352323Y-58760000D02*
X229352323Y-56322000D01*
X229392323Y-63640000D02*
X229392323Y-61240000D01*
X229392323Y-58760000D02*
X229392323Y-56360000D01*
X229432323Y-63601000D02*
X229432323Y-61240000D01*
X229432323Y-58760000D02*
X229432323Y-56399000D01*
X229472323Y-63561000D02*
X229472323Y-61240000D01*
X229472323Y-58760000D02*
X229472323Y-56439000D01*
X229512323Y-63520000D02*
X229512323Y-61240000D01*
X229512323Y-58760000D02*
X229512323Y-56480000D01*
X229552323Y-63478000D02*
X229552323Y-61240000D01*
X229552323Y-58760000D02*
X229552323Y-56522000D01*
X229592323Y-63435000D02*
X229592323Y-56565000D01*
X229632323Y-63391000D02*
X229632323Y-56609000D01*
X229672323Y-63347000D02*
X229672323Y-56653000D01*
X229712323Y-63301000D02*
X229712323Y-56699000D01*
X229752323Y-63254000D02*
X229752323Y-56746000D01*
X229792323Y-63205000D02*
X229792323Y-56795000D01*
X229832323Y-63156000D02*
X229832323Y-56844000D01*
X229872323Y-63105000D02*
X229872323Y-56895000D01*
X229912323Y-63053000D02*
X229912323Y-56947000D01*
X229952323Y-63000000D02*
X229952323Y-57000000D01*
X229992323Y-62945000D02*
X229992323Y-57055000D01*
X230032323Y-62888000D02*
X230032323Y-57112000D01*
X230072323Y-62830000D02*
X230072323Y-57170000D01*
X230112323Y-62770000D02*
X230112323Y-57230000D01*
X230152323Y-62708000D02*
X230152323Y-57292000D01*
X230192323Y-62644000D02*
X230192323Y-57356000D01*
X230232323Y-62578000D02*
X230232323Y-57422000D01*
X230272323Y-62510000D02*
X230272323Y-57490000D01*
X230312323Y-62439000D02*
X230312323Y-57561000D01*
X230352323Y-62365000D02*
X230352323Y-57635000D01*
X230392323Y-62288000D02*
X230392323Y-57712000D01*
X230432323Y-62208000D02*
X230432323Y-57792000D01*
X230472323Y-62124000D02*
X230472323Y-57876000D01*
X230512323Y-62037000D02*
X230512323Y-57963000D01*
X230552323Y-61944000D02*
X230552323Y-58056000D01*
X230592323Y-61846000D02*
X230592323Y-58154000D01*
X230632323Y-61742000D02*
X230632323Y-58258000D01*
X230672323Y-61630000D02*
X230672323Y-58370000D01*
X230712323Y-61509000D02*
X230712323Y-58491000D01*
X230752323Y-61377000D02*
X230752323Y-58623000D01*
X230792323Y-61230000D02*
X230792323Y-58770000D01*
X230832323Y-61062000D02*
X230832323Y-58938000D01*
X230872323Y-60862000D02*
X230872323Y-59138000D01*
X230912323Y-60599000D02*
X230912323Y-59401000D01*
X230952323Y-60000000D02*
G75*
G02*
X220712323Y-60000000I-5120000J0D01*
G01*
X220712323Y-60000000D02*
G75*
G02*
X230952323Y-60000000I5120000J0D01*
G01*
%TO.C,C2*%
X127235000Y-62825000D02*
X128235000Y-62825000D01*
X127735000Y-63325000D02*
X127735000Y-62325000D01*
X132714646Y-65030000D02*
X132714646Y-54870000D01*
X132754646Y-65030000D02*
X132754646Y-54870000D01*
X132794646Y-65029000D02*
X132794646Y-54871000D01*
X132834646Y-65029000D02*
X132834646Y-54871000D01*
X132874646Y-65027000D02*
X132874646Y-54873000D01*
X132914646Y-65026000D02*
X132914646Y-54874000D01*
X132954646Y-65024000D02*
X132954646Y-54876000D01*
X132994646Y-65022000D02*
X132994646Y-54878000D01*
X133034646Y-65020000D02*
X133034646Y-54880000D01*
X133074646Y-65017000D02*
X133074646Y-54883000D01*
X133114646Y-65014000D02*
X133114646Y-54886000D01*
X133154646Y-65011000D02*
X133154646Y-54889000D01*
X133194646Y-65007000D02*
X133194646Y-54893000D01*
X133234646Y-65004000D02*
X133234646Y-54896000D01*
X133274646Y-64999000D02*
X133274646Y-54901000D01*
X133314646Y-64995000D02*
X133314646Y-54905000D01*
X133354646Y-64990000D02*
X133354646Y-54910000D01*
X133394646Y-64985000D02*
X133394646Y-54915000D01*
X133434646Y-64979000D02*
X133434646Y-54921000D01*
X133474646Y-64973000D02*
X133474646Y-54927000D01*
X133514646Y-64967000D02*
X133514646Y-54933000D01*
X133554646Y-64961000D02*
X133554646Y-54939000D01*
X133594646Y-64954000D02*
X133594646Y-54946000D01*
X133634646Y-64947000D02*
X133634646Y-54953000D01*
X133674646Y-64939000D02*
X133674646Y-54961000D01*
X133714646Y-64931000D02*
X133714646Y-54969000D01*
X133754646Y-64923000D02*
X133754646Y-54977000D01*
X133794646Y-64915000D02*
X133794646Y-54985000D01*
X133834646Y-64906000D02*
X133834646Y-54994000D01*
X133874646Y-64897000D02*
X133874646Y-55003000D01*
X133914646Y-64887000D02*
X133914646Y-55013000D01*
X133954646Y-64878000D02*
X133954646Y-55022000D01*
X133994646Y-64867000D02*
X133994646Y-61190000D01*
X133994646Y-58710000D02*
X133994646Y-55033000D01*
X134034646Y-64857000D02*
X134034646Y-61190000D01*
X134034646Y-58710000D02*
X134034646Y-55043000D01*
X134074646Y-64846000D02*
X134074646Y-61190000D01*
X134074646Y-58710000D02*
X134074646Y-55054000D01*
X134114646Y-64835000D02*
X134114646Y-61190000D01*
X134114646Y-58710000D02*
X134114646Y-55065000D01*
X134154646Y-64823000D02*
X134154646Y-61190000D01*
X134154646Y-58710000D02*
X134154646Y-55077000D01*
X134194646Y-64811000D02*
X134194646Y-61190000D01*
X134194646Y-58710000D02*
X134194646Y-55089000D01*
X134234646Y-64799000D02*
X134234646Y-61190000D01*
X134234646Y-58710000D02*
X134234646Y-55101000D01*
X134274646Y-64787000D02*
X134274646Y-61190000D01*
X134274646Y-58710000D02*
X134274646Y-55113000D01*
X134314646Y-64774000D02*
X134314646Y-61190000D01*
X134314646Y-58710000D02*
X134314646Y-55126000D01*
X134354646Y-64760000D02*
X134354646Y-61190000D01*
X134354646Y-58710000D02*
X134354646Y-55140000D01*
X134394646Y-64747000D02*
X134394646Y-61190000D01*
X134394646Y-58710000D02*
X134394646Y-55153000D01*
X134434646Y-64732000D02*
X134434646Y-61190000D01*
X134434646Y-58710000D02*
X134434646Y-55168000D01*
X134474646Y-64718000D02*
X134474646Y-61190000D01*
X134474646Y-58710000D02*
X134474646Y-55182000D01*
X134514646Y-64703000D02*
X134514646Y-61190000D01*
X134514646Y-58710000D02*
X134514646Y-55197000D01*
X134554646Y-64688000D02*
X134554646Y-61190000D01*
X134554646Y-58710000D02*
X134554646Y-55212000D01*
X134594646Y-64672000D02*
X134594646Y-61190000D01*
X134594646Y-58710000D02*
X134594646Y-55228000D01*
X134634646Y-64656000D02*
X134634646Y-61190000D01*
X134634646Y-58710000D02*
X134634646Y-55244000D01*
X134674646Y-64640000D02*
X134674646Y-61190000D01*
X134674646Y-58710000D02*
X134674646Y-55260000D01*
X134714646Y-64623000D02*
X134714646Y-61190000D01*
X134714646Y-58710000D02*
X134714646Y-55277000D01*
X134754646Y-64606000D02*
X134754646Y-61190000D01*
X134754646Y-58710000D02*
X134754646Y-55294000D01*
X134794646Y-64588000D02*
X134794646Y-61190000D01*
X134794646Y-58710000D02*
X134794646Y-55312000D01*
X134834646Y-64570000D02*
X134834646Y-61190000D01*
X134834646Y-58710000D02*
X134834646Y-55330000D01*
X134874646Y-64552000D02*
X134874646Y-61190000D01*
X134874646Y-58710000D02*
X134874646Y-55348000D01*
X134914646Y-64533000D02*
X134914646Y-61190000D01*
X134914646Y-58710000D02*
X134914646Y-55367000D01*
X134954646Y-64514000D02*
X134954646Y-61190000D01*
X134954646Y-58710000D02*
X134954646Y-55386000D01*
X134994646Y-64494000D02*
X134994646Y-61190000D01*
X134994646Y-58710000D02*
X134994646Y-55406000D01*
X135034646Y-64474000D02*
X135034646Y-61190000D01*
X135034646Y-58710000D02*
X135034646Y-55426000D01*
X135074646Y-64454000D02*
X135074646Y-61190000D01*
X135074646Y-58710000D02*
X135074646Y-55446000D01*
X135114646Y-64433000D02*
X135114646Y-61190000D01*
X135114646Y-58710000D02*
X135114646Y-55467000D01*
X135154646Y-64411000D02*
X135154646Y-61190000D01*
X135154646Y-58710000D02*
X135154646Y-55489000D01*
X135194646Y-64389000D02*
X135194646Y-61190000D01*
X135194646Y-58710000D02*
X135194646Y-55511000D01*
X135234646Y-64367000D02*
X135234646Y-61190000D01*
X135234646Y-58710000D02*
X135234646Y-55533000D01*
X135274646Y-64344000D02*
X135274646Y-61190000D01*
X135274646Y-58710000D02*
X135274646Y-55556000D01*
X135314646Y-64321000D02*
X135314646Y-61190000D01*
X135314646Y-58710000D02*
X135314646Y-55579000D01*
X135354646Y-64297000D02*
X135354646Y-61190000D01*
X135354646Y-58710000D02*
X135354646Y-55603000D01*
X135394646Y-64273000D02*
X135394646Y-61190000D01*
X135394646Y-58710000D02*
X135394646Y-55627000D01*
X135434646Y-64248000D02*
X135434646Y-61190000D01*
X135434646Y-58710000D02*
X135434646Y-55652000D01*
X135474646Y-64222000D02*
X135474646Y-61190000D01*
X135474646Y-58710000D02*
X135474646Y-55678000D01*
X135514646Y-64197000D02*
X135514646Y-61190000D01*
X135514646Y-58710000D02*
X135514646Y-55703000D01*
X135554646Y-64170000D02*
X135554646Y-61190000D01*
X135554646Y-58710000D02*
X135554646Y-55730000D01*
X135594646Y-64143000D02*
X135594646Y-61190000D01*
X135594646Y-58710000D02*
X135594646Y-55757000D01*
X135634646Y-64116000D02*
X135634646Y-61190000D01*
X135634646Y-58710000D02*
X135634646Y-55784000D01*
X135674646Y-64088000D02*
X135674646Y-61190000D01*
X135674646Y-58710000D02*
X135674646Y-55812000D01*
X135714646Y-64059000D02*
X135714646Y-61190000D01*
X135714646Y-58710000D02*
X135714646Y-55841000D01*
X135754646Y-64030000D02*
X135754646Y-61190000D01*
X135754646Y-58710000D02*
X135754646Y-55870000D01*
X135794646Y-64000000D02*
X135794646Y-61190000D01*
X135794646Y-58710000D02*
X135794646Y-55900000D01*
X135834646Y-63970000D02*
X135834646Y-61190000D01*
X135834646Y-58710000D02*
X135834646Y-55930000D01*
X135874646Y-63938000D02*
X135874646Y-61190000D01*
X135874646Y-58710000D02*
X135874646Y-55962000D01*
X135914646Y-63907000D02*
X135914646Y-61190000D01*
X135914646Y-58710000D02*
X135914646Y-55993000D01*
X135954646Y-63874000D02*
X135954646Y-61190000D01*
X135954646Y-58710000D02*
X135954646Y-56026000D01*
X135994646Y-63841000D02*
X135994646Y-61190000D01*
X135994646Y-58710000D02*
X135994646Y-56059000D01*
X136034646Y-63808000D02*
X136034646Y-61190000D01*
X136034646Y-58710000D02*
X136034646Y-56092000D01*
X136074646Y-63773000D02*
X136074646Y-61190000D01*
X136074646Y-58710000D02*
X136074646Y-56127000D01*
X136114646Y-63738000D02*
X136114646Y-61190000D01*
X136114646Y-58710000D02*
X136114646Y-56162000D01*
X136154646Y-63702000D02*
X136154646Y-61190000D01*
X136154646Y-58710000D02*
X136154646Y-56198000D01*
X136194646Y-63666000D02*
X136194646Y-61190000D01*
X136194646Y-58710000D02*
X136194646Y-56234000D01*
X136234646Y-63628000D02*
X136234646Y-61190000D01*
X136234646Y-58710000D02*
X136234646Y-56272000D01*
X136274646Y-63590000D02*
X136274646Y-61190000D01*
X136274646Y-58710000D02*
X136274646Y-56310000D01*
X136314646Y-63551000D02*
X136314646Y-61190000D01*
X136314646Y-58710000D02*
X136314646Y-56349000D01*
X136354646Y-63511000D02*
X136354646Y-61190000D01*
X136354646Y-58710000D02*
X136354646Y-56389000D01*
X136394646Y-63470000D02*
X136394646Y-61190000D01*
X136394646Y-58710000D02*
X136394646Y-56430000D01*
X136434646Y-63428000D02*
X136434646Y-61190000D01*
X136434646Y-58710000D02*
X136434646Y-56472000D01*
X136474646Y-63385000D02*
X136474646Y-56515000D01*
X136514646Y-63341000D02*
X136514646Y-56559000D01*
X136554646Y-63297000D02*
X136554646Y-56603000D01*
X136594646Y-63251000D02*
X136594646Y-56649000D01*
X136634646Y-63204000D02*
X136634646Y-56696000D01*
X136674646Y-63155000D02*
X136674646Y-56745000D01*
X136714646Y-63106000D02*
X136714646Y-56794000D01*
X136754646Y-63055000D02*
X136754646Y-56845000D01*
X136794646Y-63003000D02*
X136794646Y-56897000D01*
X136834646Y-62950000D02*
X136834646Y-56950000D01*
X136874646Y-62895000D02*
X136874646Y-57005000D01*
X136914646Y-62838000D02*
X136914646Y-57062000D01*
X136954646Y-62780000D02*
X136954646Y-57120000D01*
X136994646Y-62720000D02*
X136994646Y-57180000D01*
X137034646Y-62658000D02*
X137034646Y-57242000D01*
X137074646Y-62594000D02*
X137074646Y-57306000D01*
X137114646Y-62528000D02*
X137114646Y-57372000D01*
X137154646Y-62460000D02*
X137154646Y-57440000D01*
X137194646Y-62389000D02*
X137194646Y-57511000D01*
X137234646Y-62315000D02*
X137234646Y-57585000D01*
X137274646Y-62238000D02*
X137274646Y-57662000D01*
X137314646Y-62158000D02*
X137314646Y-57742000D01*
X137354646Y-62074000D02*
X137354646Y-57826000D01*
X137394646Y-61987000D02*
X137394646Y-57913000D01*
X137434646Y-61894000D02*
X137434646Y-58006000D01*
X137474646Y-61796000D02*
X137474646Y-58104000D01*
X137514646Y-61692000D02*
X137514646Y-58208000D01*
X137554646Y-61580000D02*
X137554646Y-58320000D01*
X137594646Y-61459000D02*
X137594646Y-58441000D01*
X137634646Y-61327000D02*
X137634646Y-58573000D01*
X137674646Y-61180000D02*
X137674646Y-58720000D01*
X137714646Y-61012000D02*
X137714646Y-58888000D01*
X137754646Y-60812000D02*
X137754646Y-59088000D01*
X137794646Y-60549000D02*
X137794646Y-59351000D01*
X137834646Y-59950000D02*
G75*
G02*
X127594646Y-59950000I-5120000J0D01*
G01*
X127594646Y-59950000D02*
G75*
G02*
X137834646Y-59950000I5120000J0D01*
G01*
%TO.C,C7*%
X220370354Y-51425000D02*
X221370354Y-51425000D01*
X220870354Y-51925000D02*
X220870354Y-50925000D01*
X225850000Y-53630000D02*
X225850000Y-43470000D01*
X225890000Y-53630000D02*
X225890000Y-43470000D01*
X225930000Y-53629000D02*
X225930000Y-43471000D01*
X225970000Y-53629000D02*
X225970000Y-43471000D01*
X226010000Y-53627000D02*
X226010000Y-43473000D01*
X226050000Y-53626000D02*
X226050000Y-43474000D01*
X226090000Y-53624000D02*
X226090000Y-43476000D01*
X226130000Y-53622000D02*
X226130000Y-43478000D01*
X226170000Y-53620000D02*
X226170000Y-43480000D01*
X226210000Y-53617000D02*
X226210000Y-43483000D01*
X226250000Y-53614000D02*
X226250000Y-43486000D01*
X226290000Y-53611000D02*
X226290000Y-43489000D01*
X226330000Y-53607000D02*
X226330000Y-43493000D01*
X226370000Y-53604000D02*
X226370000Y-43496000D01*
X226410000Y-53599000D02*
X226410000Y-43501000D01*
X226450000Y-53595000D02*
X226450000Y-43505000D01*
X226490000Y-53590000D02*
X226490000Y-43510000D01*
X226530000Y-53585000D02*
X226530000Y-43515000D01*
X226570000Y-53579000D02*
X226570000Y-43521000D01*
X226610000Y-53573000D02*
X226610000Y-43527000D01*
X226650000Y-53567000D02*
X226650000Y-43533000D01*
X226690000Y-53561000D02*
X226690000Y-43539000D01*
X226730000Y-53554000D02*
X226730000Y-43546000D01*
X226770000Y-53547000D02*
X226770000Y-43553000D01*
X226810000Y-53539000D02*
X226810000Y-43561000D01*
X226850000Y-53531000D02*
X226850000Y-43569000D01*
X226890000Y-53523000D02*
X226890000Y-43577000D01*
X226930000Y-53515000D02*
X226930000Y-43585000D01*
X226970000Y-53506000D02*
X226970000Y-43594000D01*
X227010000Y-53497000D02*
X227010000Y-43603000D01*
X227050000Y-53487000D02*
X227050000Y-43613000D01*
X227090000Y-53478000D02*
X227090000Y-43622000D01*
X227130000Y-53467000D02*
X227130000Y-49790000D01*
X227130000Y-47310000D02*
X227130000Y-43633000D01*
X227170000Y-53457000D02*
X227170000Y-49790000D01*
X227170000Y-47310000D02*
X227170000Y-43643000D01*
X227210000Y-53446000D02*
X227210000Y-49790000D01*
X227210000Y-47310000D02*
X227210000Y-43654000D01*
X227250000Y-53435000D02*
X227250000Y-49790000D01*
X227250000Y-47310000D02*
X227250000Y-43665000D01*
X227290000Y-53423000D02*
X227290000Y-49790000D01*
X227290000Y-47310000D02*
X227290000Y-43677000D01*
X227330000Y-53411000D02*
X227330000Y-49790000D01*
X227330000Y-47310000D02*
X227330000Y-43689000D01*
X227370000Y-53399000D02*
X227370000Y-49790000D01*
X227370000Y-47310000D02*
X227370000Y-43701000D01*
X227410000Y-53387000D02*
X227410000Y-49790000D01*
X227410000Y-47310000D02*
X227410000Y-43713000D01*
X227450000Y-53374000D02*
X227450000Y-49790000D01*
X227450000Y-47310000D02*
X227450000Y-43726000D01*
X227490000Y-53360000D02*
X227490000Y-49790000D01*
X227490000Y-47310000D02*
X227490000Y-43740000D01*
X227530000Y-53347000D02*
X227530000Y-49790000D01*
X227530000Y-47310000D02*
X227530000Y-43753000D01*
X227570000Y-53332000D02*
X227570000Y-49790000D01*
X227570000Y-47310000D02*
X227570000Y-43768000D01*
X227610000Y-53318000D02*
X227610000Y-49790000D01*
X227610000Y-47310000D02*
X227610000Y-43782000D01*
X227650000Y-53303000D02*
X227650000Y-49790000D01*
X227650000Y-47310000D02*
X227650000Y-43797000D01*
X227690000Y-53288000D02*
X227690000Y-49790000D01*
X227690000Y-47310000D02*
X227690000Y-43812000D01*
X227730000Y-53272000D02*
X227730000Y-49790000D01*
X227730000Y-47310000D02*
X227730000Y-43828000D01*
X227770000Y-53256000D02*
X227770000Y-49790000D01*
X227770000Y-47310000D02*
X227770000Y-43844000D01*
X227810000Y-53240000D02*
X227810000Y-49790000D01*
X227810000Y-47310000D02*
X227810000Y-43860000D01*
X227850000Y-53223000D02*
X227850000Y-49790000D01*
X227850000Y-47310000D02*
X227850000Y-43877000D01*
X227890000Y-53206000D02*
X227890000Y-49790000D01*
X227890000Y-47310000D02*
X227890000Y-43894000D01*
X227930000Y-53188000D02*
X227930000Y-49790000D01*
X227930000Y-47310000D02*
X227930000Y-43912000D01*
X227970000Y-53170000D02*
X227970000Y-49790000D01*
X227970000Y-47310000D02*
X227970000Y-43930000D01*
X228010000Y-53152000D02*
X228010000Y-49790000D01*
X228010000Y-47310000D02*
X228010000Y-43948000D01*
X228050000Y-53133000D02*
X228050000Y-49790000D01*
X228050000Y-47310000D02*
X228050000Y-43967000D01*
X228090000Y-53114000D02*
X228090000Y-49790000D01*
X228090000Y-47310000D02*
X228090000Y-43986000D01*
X228130000Y-53094000D02*
X228130000Y-49790000D01*
X228130000Y-47310000D02*
X228130000Y-44006000D01*
X228170000Y-53074000D02*
X228170000Y-49790000D01*
X228170000Y-47310000D02*
X228170000Y-44026000D01*
X228210000Y-53054000D02*
X228210000Y-49790000D01*
X228210000Y-47310000D02*
X228210000Y-44046000D01*
X228250000Y-53033000D02*
X228250000Y-49790000D01*
X228250000Y-47310000D02*
X228250000Y-44067000D01*
X228290000Y-53011000D02*
X228290000Y-49790000D01*
X228290000Y-47310000D02*
X228290000Y-44089000D01*
X228330000Y-52989000D02*
X228330000Y-49790000D01*
X228330000Y-47310000D02*
X228330000Y-44111000D01*
X228370000Y-52967000D02*
X228370000Y-49790000D01*
X228370000Y-47310000D02*
X228370000Y-44133000D01*
X228410000Y-52944000D02*
X228410000Y-49790000D01*
X228410000Y-47310000D02*
X228410000Y-44156000D01*
X228450000Y-52921000D02*
X228450000Y-49790000D01*
X228450000Y-47310000D02*
X228450000Y-44179000D01*
X228490000Y-52897000D02*
X228490000Y-49790000D01*
X228490000Y-47310000D02*
X228490000Y-44203000D01*
X228530000Y-52873000D02*
X228530000Y-49790000D01*
X228530000Y-47310000D02*
X228530000Y-44227000D01*
X228570000Y-52848000D02*
X228570000Y-49790000D01*
X228570000Y-47310000D02*
X228570000Y-44252000D01*
X228610000Y-52822000D02*
X228610000Y-49790000D01*
X228610000Y-47310000D02*
X228610000Y-44278000D01*
X228650000Y-52797000D02*
X228650000Y-49790000D01*
X228650000Y-47310000D02*
X228650000Y-44303000D01*
X228690000Y-52770000D02*
X228690000Y-49790000D01*
X228690000Y-47310000D02*
X228690000Y-44330000D01*
X228730000Y-52743000D02*
X228730000Y-49790000D01*
X228730000Y-47310000D02*
X228730000Y-44357000D01*
X228770000Y-52716000D02*
X228770000Y-49790000D01*
X228770000Y-47310000D02*
X228770000Y-44384000D01*
X228810000Y-52688000D02*
X228810000Y-49790000D01*
X228810000Y-47310000D02*
X228810000Y-44412000D01*
X228850000Y-52659000D02*
X228850000Y-49790000D01*
X228850000Y-47310000D02*
X228850000Y-44441000D01*
X228890000Y-52630000D02*
X228890000Y-49790000D01*
X228890000Y-47310000D02*
X228890000Y-44470000D01*
X228930000Y-52600000D02*
X228930000Y-49790000D01*
X228930000Y-47310000D02*
X228930000Y-44500000D01*
X228970000Y-52570000D02*
X228970000Y-49790000D01*
X228970000Y-47310000D02*
X228970000Y-44530000D01*
X229010000Y-52538000D02*
X229010000Y-49790000D01*
X229010000Y-47310000D02*
X229010000Y-44562000D01*
X229050000Y-52507000D02*
X229050000Y-49790000D01*
X229050000Y-47310000D02*
X229050000Y-44593000D01*
X229090000Y-52474000D02*
X229090000Y-49790000D01*
X229090000Y-47310000D02*
X229090000Y-44626000D01*
X229130000Y-52441000D02*
X229130000Y-49790000D01*
X229130000Y-47310000D02*
X229130000Y-44659000D01*
X229170000Y-52408000D02*
X229170000Y-49790000D01*
X229170000Y-47310000D02*
X229170000Y-44692000D01*
X229210000Y-52373000D02*
X229210000Y-49790000D01*
X229210000Y-47310000D02*
X229210000Y-44727000D01*
X229250000Y-52338000D02*
X229250000Y-49790000D01*
X229250000Y-47310000D02*
X229250000Y-44762000D01*
X229290000Y-52302000D02*
X229290000Y-49790000D01*
X229290000Y-47310000D02*
X229290000Y-44798000D01*
X229330000Y-52266000D02*
X229330000Y-49790000D01*
X229330000Y-47310000D02*
X229330000Y-44834000D01*
X229370000Y-52228000D02*
X229370000Y-49790000D01*
X229370000Y-47310000D02*
X229370000Y-44872000D01*
X229410000Y-52190000D02*
X229410000Y-49790000D01*
X229410000Y-47310000D02*
X229410000Y-44910000D01*
X229450000Y-52151000D02*
X229450000Y-49790000D01*
X229450000Y-47310000D02*
X229450000Y-44949000D01*
X229490000Y-52111000D02*
X229490000Y-49790000D01*
X229490000Y-47310000D02*
X229490000Y-44989000D01*
X229530000Y-52070000D02*
X229530000Y-49790000D01*
X229530000Y-47310000D02*
X229530000Y-45030000D01*
X229570000Y-52028000D02*
X229570000Y-49790000D01*
X229570000Y-47310000D02*
X229570000Y-45072000D01*
X229610000Y-51985000D02*
X229610000Y-45115000D01*
X229650000Y-51941000D02*
X229650000Y-45159000D01*
X229690000Y-51897000D02*
X229690000Y-45203000D01*
X229730000Y-51851000D02*
X229730000Y-45249000D01*
X229770000Y-51804000D02*
X229770000Y-45296000D01*
X229810000Y-51755000D02*
X229810000Y-45345000D01*
X229850000Y-51706000D02*
X229850000Y-45394000D01*
X229890000Y-51655000D02*
X229890000Y-45445000D01*
X229930000Y-51603000D02*
X229930000Y-45497000D01*
X229970000Y-51550000D02*
X229970000Y-45550000D01*
X230010000Y-51495000D02*
X230010000Y-45605000D01*
X230050000Y-51438000D02*
X230050000Y-45662000D01*
X230090000Y-51380000D02*
X230090000Y-45720000D01*
X230130000Y-51320000D02*
X230130000Y-45780000D01*
X230170000Y-51258000D02*
X230170000Y-45842000D01*
X230210000Y-51194000D02*
X230210000Y-45906000D01*
X230250000Y-51128000D02*
X230250000Y-45972000D01*
X230290000Y-51060000D02*
X230290000Y-46040000D01*
X230330000Y-50989000D02*
X230330000Y-46111000D01*
X230370000Y-50915000D02*
X230370000Y-46185000D01*
X230410000Y-50838000D02*
X230410000Y-46262000D01*
X230450000Y-50758000D02*
X230450000Y-46342000D01*
X230490000Y-50674000D02*
X230490000Y-46426000D01*
X230530000Y-50587000D02*
X230530000Y-46513000D01*
X230570000Y-50494000D02*
X230570000Y-46606000D01*
X230610000Y-50396000D02*
X230610000Y-46704000D01*
X230650000Y-50292000D02*
X230650000Y-46808000D01*
X230690000Y-50180000D02*
X230690000Y-46920000D01*
X230730000Y-50059000D02*
X230730000Y-47041000D01*
X230770000Y-49927000D02*
X230770000Y-47173000D01*
X230810000Y-49780000D02*
X230810000Y-47320000D01*
X230850000Y-49612000D02*
X230850000Y-47488000D01*
X230890000Y-49412000D02*
X230890000Y-47688000D01*
X230930000Y-49149000D02*
X230930000Y-47951000D01*
X230970000Y-48550000D02*
G75*
G02*
X220730000Y-48550000I-5120000J0D01*
G01*
X220730000Y-48550000D02*
G75*
G02*
X230970000Y-48550000I5120000J0D01*
G01*
D12*
%TO.C,J6*%
X182872500Y-35435699D02*
G75*
G02*
X182110500Y-35435699I-381000J0D01*
G01*
X182110500Y-35435699D02*
G75*
G02*
X182872500Y-35435699I381000J0D01*
G01*
D13*
%TO.C,C4*%
X127252677Y-51375000D02*
X128252677Y-51375000D01*
X127752677Y-51875000D02*
X127752677Y-50875000D01*
X132732323Y-53580000D02*
X132732323Y-43420000D01*
X132772323Y-53580000D02*
X132772323Y-43420000D01*
X132812323Y-53579000D02*
X132812323Y-43421000D01*
X132852323Y-53579000D02*
X132852323Y-43421000D01*
X132892323Y-53577000D02*
X132892323Y-43423000D01*
X132932323Y-53576000D02*
X132932323Y-43424000D01*
X132972323Y-53574000D02*
X132972323Y-43426000D01*
X133012323Y-53572000D02*
X133012323Y-43428000D01*
X133052323Y-53570000D02*
X133052323Y-43430000D01*
X133092323Y-53567000D02*
X133092323Y-43433000D01*
X133132323Y-53564000D02*
X133132323Y-43436000D01*
X133172323Y-53561000D02*
X133172323Y-43439000D01*
X133212323Y-53557000D02*
X133212323Y-43443000D01*
X133252323Y-53554000D02*
X133252323Y-43446000D01*
X133292323Y-53549000D02*
X133292323Y-43451000D01*
X133332323Y-53545000D02*
X133332323Y-43455000D01*
X133372323Y-53540000D02*
X133372323Y-43460000D01*
X133412323Y-53535000D02*
X133412323Y-43465000D01*
X133452323Y-53529000D02*
X133452323Y-43471000D01*
X133492323Y-53523000D02*
X133492323Y-43477000D01*
X133532323Y-53517000D02*
X133532323Y-43483000D01*
X133572323Y-53511000D02*
X133572323Y-43489000D01*
X133612323Y-53504000D02*
X133612323Y-43496000D01*
X133652323Y-53497000D02*
X133652323Y-43503000D01*
X133692323Y-53489000D02*
X133692323Y-43511000D01*
X133732323Y-53481000D02*
X133732323Y-43519000D01*
X133772323Y-53473000D02*
X133772323Y-43527000D01*
X133812323Y-53465000D02*
X133812323Y-43535000D01*
X133852323Y-53456000D02*
X133852323Y-43544000D01*
X133892323Y-53447000D02*
X133892323Y-43553000D01*
X133932323Y-53437000D02*
X133932323Y-43563000D01*
X133972323Y-53428000D02*
X133972323Y-43572000D01*
X134012323Y-53417000D02*
X134012323Y-49740000D01*
X134012323Y-47260000D02*
X134012323Y-43583000D01*
X134052323Y-53407000D02*
X134052323Y-49740000D01*
X134052323Y-47260000D02*
X134052323Y-43593000D01*
X134092323Y-53396000D02*
X134092323Y-49740000D01*
X134092323Y-47260000D02*
X134092323Y-43604000D01*
X134132323Y-53385000D02*
X134132323Y-49740000D01*
X134132323Y-47260000D02*
X134132323Y-43615000D01*
X134172323Y-53373000D02*
X134172323Y-49740000D01*
X134172323Y-47260000D02*
X134172323Y-43627000D01*
X134212323Y-53361000D02*
X134212323Y-49740000D01*
X134212323Y-47260000D02*
X134212323Y-43639000D01*
X134252323Y-53349000D02*
X134252323Y-49740000D01*
X134252323Y-47260000D02*
X134252323Y-43651000D01*
X134292323Y-53337000D02*
X134292323Y-49740000D01*
X134292323Y-47260000D02*
X134292323Y-43663000D01*
X134332323Y-53324000D02*
X134332323Y-49740000D01*
X134332323Y-47260000D02*
X134332323Y-43676000D01*
X134372323Y-53310000D02*
X134372323Y-49740000D01*
X134372323Y-47260000D02*
X134372323Y-43690000D01*
X134412323Y-53297000D02*
X134412323Y-49740000D01*
X134412323Y-47260000D02*
X134412323Y-43703000D01*
X134452323Y-53282000D02*
X134452323Y-49740000D01*
X134452323Y-47260000D02*
X134452323Y-43718000D01*
X134492323Y-53268000D02*
X134492323Y-49740000D01*
X134492323Y-47260000D02*
X134492323Y-43732000D01*
X134532323Y-53253000D02*
X134532323Y-49740000D01*
X134532323Y-47260000D02*
X134532323Y-43747000D01*
X134572323Y-53238000D02*
X134572323Y-49740000D01*
X134572323Y-47260000D02*
X134572323Y-43762000D01*
X134612323Y-53222000D02*
X134612323Y-49740000D01*
X134612323Y-47260000D02*
X134612323Y-43778000D01*
X134652323Y-53206000D02*
X134652323Y-49740000D01*
X134652323Y-47260000D02*
X134652323Y-43794000D01*
X134692323Y-53190000D02*
X134692323Y-49740000D01*
X134692323Y-47260000D02*
X134692323Y-43810000D01*
X134732323Y-53173000D02*
X134732323Y-49740000D01*
X134732323Y-47260000D02*
X134732323Y-43827000D01*
X134772323Y-53156000D02*
X134772323Y-49740000D01*
X134772323Y-47260000D02*
X134772323Y-43844000D01*
X134812323Y-53138000D02*
X134812323Y-49740000D01*
X134812323Y-47260000D02*
X134812323Y-43862000D01*
X134852323Y-53120000D02*
X134852323Y-49740000D01*
X134852323Y-47260000D02*
X134852323Y-43880000D01*
X134892323Y-53102000D02*
X134892323Y-49740000D01*
X134892323Y-47260000D02*
X134892323Y-43898000D01*
X134932323Y-53083000D02*
X134932323Y-49740000D01*
X134932323Y-47260000D02*
X134932323Y-43917000D01*
X134972323Y-53064000D02*
X134972323Y-49740000D01*
X134972323Y-47260000D02*
X134972323Y-43936000D01*
X135012323Y-53044000D02*
X135012323Y-49740000D01*
X135012323Y-47260000D02*
X135012323Y-43956000D01*
X135052323Y-53024000D02*
X135052323Y-49740000D01*
X135052323Y-47260000D02*
X135052323Y-43976000D01*
X135092323Y-53004000D02*
X135092323Y-49740000D01*
X135092323Y-47260000D02*
X135092323Y-43996000D01*
X135132323Y-52983000D02*
X135132323Y-49740000D01*
X135132323Y-47260000D02*
X135132323Y-44017000D01*
X135172323Y-52961000D02*
X135172323Y-49740000D01*
X135172323Y-47260000D02*
X135172323Y-44039000D01*
X135212323Y-52939000D02*
X135212323Y-49740000D01*
X135212323Y-47260000D02*
X135212323Y-44061000D01*
X135252323Y-52917000D02*
X135252323Y-49740000D01*
X135252323Y-47260000D02*
X135252323Y-44083000D01*
X135292323Y-52894000D02*
X135292323Y-49740000D01*
X135292323Y-47260000D02*
X135292323Y-44106000D01*
X135332323Y-52871000D02*
X135332323Y-49740000D01*
X135332323Y-47260000D02*
X135332323Y-44129000D01*
X135372323Y-52847000D02*
X135372323Y-49740000D01*
X135372323Y-47260000D02*
X135372323Y-44153000D01*
X135412323Y-52823000D02*
X135412323Y-49740000D01*
X135412323Y-47260000D02*
X135412323Y-44177000D01*
X135452323Y-52798000D02*
X135452323Y-49740000D01*
X135452323Y-47260000D02*
X135452323Y-44202000D01*
X135492323Y-52772000D02*
X135492323Y-49740000D01*
X135492323Y-47260000D02*
X135492323Y-44228000D01*
X135532323Y-52747000D02*
X135532323Y-49740000D01*
X135532323Y-47260000D02*
X135532323Y-44253000D01*
X135572323Y-52720000D02*
X135572323Y-49740000D01*
X135572323Y-47260000D02*
X135572323Y-44280000D01*
X135612323Y-52693000D02*
X135612323Y-49740000D01*
X135612323Y-47260000D02*
X135612323Y-44307000D01*
X135652323Y-52666000D02*
X135652323Y-49740000D01*
X135652323Y-47260000D02*
X135652323Y-44334000D01*
X135692323Y-52638000D02*
X135692323Y-49740000D01*
X135692323Y-47260000D02*
X135692323Y-44362000D01*
X135732323Y-52609000D02*
X135732323Y-49740000D01*
X135732323Y-47260000D02*
X135732323Y-44391000D01*
X135772323Y-52580000D02*
X135772323Y-49740000D01*
X135772323Y-47260000D02*
X135772323Y-44420000D01*
X135812323Y-52550000D02*
X135812323Y-49740000D01*
X135812323Y-47260000D02*
X135812323Y-44450000D01*
X135852323Y-52520000D02*
X135852323Y-49740000D01*
X135852323Y-47260000D02*
X135852323Y-44480000D01*
X135892323Y-52488000D02*
X135892323Y-49740000D01*
X135892323Y-47260000D02*
X135892323Y-44512000D01*
X135932323Y-52457000D02*
X135932323Y-49740000D01*
X135932323Y-47260000D02*
X135932323Y-44543000D01*
X135972323Y-52424000D02*
X135972323Y-49740000D01*
X135972323Y-47260000D02*
X135972323Y-44576000D01*
X136012323Y-52391000D02*
X136012323Y-49740000D01*
X136012323Y-47260000D02*
X136012323Y-44609000D01*
X136052323Y-52358000D02*
X136052323Y-49740000D01*
X136052323Y-47260000D02*
X136052323Y-44642000D01*
X136092323Y-52323000D02*
X136092323Y-49740000D01*
X136092323Y-47260000D02*
X136092323Y-44677000D01*
X136132323Y-52288000D02*
X136132323Y-49740000D01*
X136132323Y-47260000D02*
X136132323Y-44712000D01*
X136172323Y-52252000D02*
X136172323Y-49740000D01*
X136172323Y-47260000D02*
X136172323Y-44748000D01*
X136212323Y-52216000D02*
X136212323Y-49740000D01*
X136212323Y-47260000D02*
X136212323Y-44784000D01*
X136252323Y-52178000D02*
X136252323Y-49740000D01*
X136252323Y-47260000D02*
X136252323Y-44822000D01*
X136292323Y-52140000D02*
X136292323Y-49740000D01*
X136292323Y-47260000D02*
X136292323Y-44860000D01*
X136332323Y-52101000D02*
X136332323Y-49740000D01*
X136332323Y-47260000D02*
X136332323Y-44899000D01*
X136372323Y-52061000D02*
X136372323Y-49740000D01*
X136372323Y-47260000D02*
X136372323Y-44939000D01*
X136412323Y-52020000D02*
X136412323Y-49740000D01*
X136412323Y-47260000D02*
X136412323Y-44980000D01*
X136452323Y-51978000D02*
X136452323Y-49740000D01*
X136452323Y-47260000D02*
X136452323Y-45022000D01*
X136492323Y-51935000D02*
X136492323Y-45065000D01*
X136532323Y-51891000D02*
X136532323Y-45109000D01*
X136572323Y-51847000D02*
X136572323Y-45153000D01*
X136612323Y-51801000D02*
X136612323Y-45199000D01*
X136652323Y-51754000D02*
X136652323Y-45246000D01*
X136692323Y-51705000D02*
X136692323Y-45295000D01*
X136732323Y-51656000D02*
X136732323Y-45344000D01*
X136772323Y-51605000D02*
X136772323Y-45395000D01*
X136812323Y-51553000D02*
X136812323Y-45447000D01*
X136852323Y-51500000D02*
X136852323Y-45500000D01*
X136892323Y-51445000D02*
X136892323Y-45555000D01*
X136932323Y-51388000D02*
X136932323Y-45612000D01*
X136972323Y-51330000D02*
X136972323Y-45670000D01*
X137012323Y-51270000D02*
X137012323Y-45730000D01*
X137052323Y-51208000D02*
X137052323Y-45792000D01*
X137092323Y-51144000D02*
X137092323Y-45856000D01*
X137132323Y-51078000D02*
X137132323Y-45922000D01*
X137172323Y-51010000D02*
X137172323Y-45990000D01*
X137212323Y-50939000D02*
X137212323Y-46061000D01*
X137252323Y-50865000D02*
X137252323Y-46135000D01*
X137292323Y-50788000D02*
X137292323Y-46212000D01*
X137332323Y-50708000D02*
X137332323Y-46292000D01*
X137372323Y-50624000D02*
X137372323Y-46376000D01*
X137412323Y-50537000D02*
X137412323Y-46463000D01*
X137452323Y-50444000D02*
X137452323Y-46556000D01*
X137492323Y-50346000D02*
X137492323Y-46654000D01*
X137532323Y-50242000D02*
X137532323Y-46758000D01*
X137572323Y-50130000D02*
X137572323Y-46870000D01*
X137612323Y-50009000D02*
X137612323Y-46991000D01*
X137652323Y-49877000D02*
X137652323Y-47123000D01*
X137692323Y-49730000D02*
X137692323Y-47270000D01*
X137732323Y-49562000D02*
X137732323Y-47438000D01*
X137772323Y-49362000D02*
X137772323Y-47638000D01*
X137812323Y-49099000D02*
X137812323Y-47901000D01*
X137852323Y-48500000D02*
G75*
G02*
X127612323Y-48500000I-5120000J0D01*
G01*
X127612323Y-48500000D02*
G75*
G02*
X137852323Y-48500000I5120000J0D01*
G01*
%TO.C,C5*%
X188870354Y-51425000D02*
X189870354Y-51425000D01*
X189370354Y-51925000D02*
X189370354Y-50925000D01*
X194350000Y-53630000D02*
X194350000Y-43470000D01*
X194390000Y-53630000D02*
X194390000Y-43470000D01*
X194430000Y-53629000D02*
X194430000Y-43471000D01*
X194470000Y-53629000D02*
X194470000Y-43471000D01*
X194510000Y-53627000D02*
X194510000Y-43473000D01*
X194550000Y-53626000D02*
X194550000Y-43474000D01*
X194590000Y-53624000D02*
X194590000Y-43476000D01*
X194630000Y-53622000D02*
X194630000Y-43478000D01*
X194670000Y-53620000D02*
X194670000Y-43480000D01*
X194710000Y-53617000D02*
X194710000Y-43483000D01*
X194750000Y-53614000D02*
X194750000Y-43486000D01*
X194790000Y-53611000D02*
X194790000Y-43489000D01*
X194830000Y-53607000D02*
X194830000Y-43493000D01*
X194870000Y-53604000D02*
X194870000Y-43496000D01*
X194910000Y-53599000D02*
X194910000Y-43501000D01*
X194950000Y-53595000D02*
X194950000Y-43505000D01*
X194990000Y-53590000D02*
X194990000Y-43510000D01*
X195030000Y-53585000D02*
X195030000Y-43515000D01*
X195070000Y-53579000D02*
X195070000Y-43521000D01*
X195110000Y-53573000D02*
X195110000Y-43527000D01*
X195150000Y-53567000D02*
X195150000Y-43533000D01*
X195190000Y-53561000D02*
X195190000Y-43539000D01*
X195230000Y-53554000D02*
X195230000Y-43546000D01*
X195270000Y-53547000D02*
X195270000Y-43553000D01*
X195310000Y-53539000D02*
X195310000Y-43561000D01*
X195350000Y-53531000D02*
X195350000Y-43569000D01*
X195390000Y-53523000D02*
X195390000Y-43577000D01*
X195430000Y-53515000D02*
X195430000Y-43585000D01*
X195470000Y-53506000D02*
X195470000Y-43594000D01*
X195510000Y-53497000D02*
X195510000Y-43603000D01*
X195550000Y-53487000D02*
X195550000Y-43613000D01*
X195590000Y-53478000D02*
X195590000Y-43622000D01*
X195630000Y-53467000D02*
X195630000Y-49790000D01*
X195630000Y-47310000D02*
X195630000Y-43633000D01*
X195670000Y-53457000D02*
X195670000Y-49790000D01*
X195670000Y-47310000D02*
X195670000Y-43643000D01*
X195710000Y-53446000D02*
X195710000Y-49790000D01*
X195710000Y-47310000D02*
X195710000Y-43654000D01*
X195750000Y-53435000D02*
X195750000Y-49790000D01*
X195750000Y-47310000D02*
X195750000Y-43665000D01*
X195790000Y-53423000D02*
X195790000Y-49790000D01*
X195790000Y-47310000D02*
X195790000Y-43677000D01*
X195830000Y-53411000D02*
X195830000Y-49790000D01*
X195830000Y-47310000D02*
X195830000Y-43689000D01*
X195870000Y-53399000D02*
X195870000Y-49790000D01*
X195870000Y-47310000D02*
X195870000Y-43701000D01*
X195910000Y-53387000D02*
X195910000Y-49790000D01*
X195910000Y-47310000D02*
X195910000Y-43713000D01*
X195950000Y-53374000D02*
X195950000Y-49790000D01*
X195950000Y-47310000D02*
X195950000Y-43726000D01*
X195990000Y-53360000D02*
X195990000Y-49790000D01*
X195990000Y-47310000D02*
X195990000Y-43740000D01*
X196030000Y-53347000D02*
X196030000Y-49790000D01*
X196030000Y-47310000D02*
X196030000Y-43753000D01*
X196070000Y-53332000D02*
X196070000Y-49790000D01*
X196070000Y-47310000D02*
X196070000Y-43768000D01*
X196110000Y-53318000D02*
X196110000Y-49790000D01*
X196110000Y-47310000D02*
X196110000Y-43782000D01*
X196150000Y-53303000D02*
X196150000Y-49790000D01*
X196150000Y-47310000D02*
X196150000Y-43797000D01*
X196190000Y-53288000D02*
X196190000Y-49790000D01*
X196190000Y-47310000D02*
X196190000Y-43812000D01*
X196230000Y-53272000D02*
X196230000Y-49790000D01*
X196230000Y-47310000D02*
X196230000Y-43828000D01*
X196270000Y-53256000D02*
X196270000Y-49790000D01*
X196270000Y-47310000D02*
X196270000Y-43844000D01*
X196310000Y-53240000D02*
X196310000Y-49790000D01*
X196310000Y-47310000D02*
X196310000Y-43860000D01*
X196350000Y-53223000D02*
X196350000Y-49790000D01*
X196350000Y-47310000D02*
X196350000Y-43877000D01*
X196390000Y-53206000D02*
X196390000Y-49790000D01*
X196390000Y-47310000D02*
X196390000Y-43894000D01*
X196430000Y-53188000D02*
X196430000Y-49790000D01*
X196430000Y-47310000D02*
X196430000Y-43912000D01*
X196470000Y-53170000D02*
X196470000Y-49790000D01*
X196470000Y-47310000D02*
X196470000Y-43930000D01*
X196510000Y-53152000D02*
X196510000Y-49790000D01*
X196510000Y-47310000D02*
X196510000Y-43948000D01*
X196550000Y-53133000D02*
X196550000Y-49790000D01*
X196550000Y-47310000D02*
X196550000Y-43967000D01*
X196590000Y-53114000D02*
X196590000Y-49790000D01*
X196590000Y-47310000D02*
X196590000Y-43986000D01*
X196630000Y-53094000D02*
X196630000Y-49790000D01*
X196630000Y-47310000D02*
X196630000Y-44006000D01*
X196670000Y-53074000D02*
X196670000Y-49790000D01*
X196670000Y-47310000D02*
X196670000Y-44026000D01*
X196710000Y-53054000D02*
X196710000Y-49790000D01*
X196710000Y-47310000D02*
X196710000Y-44046000D01*
X196750000Y-53033000D02*
X196750000Y-49790000D01*
X196750000Y-47310000D02*
X196750000Y-44067000D01*
X196790000Y-53011000D02*
X196790000Y-49790000D01*
X196790000Y-47310000D02*
X196790000Y-44089000D01*
X196830000Y-52989000D02*
X196830000Y-49790000D01*
X196830000Y-47310000D02*
X196830000Y-44111000D01*
X196870000Y-52967000D02*
X196870000Y-49790000D01*
X196870000Y-47310000D02*
X196870000Y-44133000D01*
X196910000Y-52944000D02*
X196910000Y-49790000D01*
X196910000Y-47310000D02*
X196910000Y-44156000D01*
X196950000Y-52921000D02*
X196950000Y-49790000D01*
X196950000Y-47310000D02*
X196950000Y-44179000D01*
X196990000Y-52897000D02*
X196990000Y-49790000D01*
X196990000Y-47310000D02*
X196990000Y-44203000D01*
X197030000Y-52873000D02*
X197030000Y-49790000D01*
X197030000Y-47310000D02*
X197030000Y-44227000D01*
X197070000Y-52848000D02*
X197070000Y-49790000D01*
X197070000Y-47310000D02*
X197070000Y-44252000D01*
X197110000Y-52822000D02*
X197110000Y-49790000D01*
X197110000Y-47310000D02*
X197110000Y-44278000D01*
X197150000Y-52797000D02*
X197150000Y-49790000D01*
X197150000Y-47310000D02*
X197150000Y-44303000D01*
X197190000Y-52770000D02*
X197190000Y-49790000D01*
X197190000Y-47310000D02*
X197190000Y-44330000D01*
X197230000Y-52743000D02*
X197230000Y-49790000D01*
X197230000Y-47310000D02*
X197230000Y-44357000D01*
X197270000Y-52716000D02*
X197270000Y-49790000D01*
X197270000Y-47310000D02*
X197270000Y-44384000D01*
X197310000Y-52688000D02*
X197310000Y-49790000D01*
X197310000Y-47310000D02*
X197310000Y-44412000D01*
X197350000Y-52659000D02*
X197350000Y-49790000D01*
X197350000Y-47310000D02*
X197350000Y-44441000D01*
X197390000Y-52630000D02*
X197390000Y-49790000D01*
X197390000Y-47310000D02*
X197390000Y-44470000D01*
X197430000Y-52600000D02*
X197430000Y-49790000D01*
X197430000Y-47310000D02*
X197430000Y-44500000D01*
X197470000Y-52570000D02*
X197470000Y-49790000D01*
X197470000Y-47310000D02*
X197470000Y-44530000D01*
X197510000Y-52538000D02*
X197510000Y-49790000D01*
X197510000Y-47310000D02*
X197510000Y-44562000D01*
X197550000Y-52507000D02*
X197550000Y-49790000D01*
X197550000Y-47310000D02*
X197550000Y-44593000D01*
X197590000Y-52474000D02*
X197590000Y-49790000D01*
X197590000Y-47310000D02*
X197590000Y-44626000D01*
X197630000Y-52441000D02*
X197630000Y-49790000D01*
X197630000Y-47310000D02*
X197630000Y-44659000D01*
X197670000Y-52408000D02*
X197670000Y-49790000D01*
X197670000Y-47310000D02*
X197670000Y-44692000D01*
X197710000Y-52373000D02*
X197710000Y-49790000D01*
X197710000Y-47310000D02*
X197710000Y-44727000D01*
X197750000Y-52338000D02*
X197750000Y-49790000D01*
X197750000Y-47310000D02*
X197750000Y-44762000D01*
X197790000Y-52302000D02*
X197790000Y-49790000D01*
X197790000Y-47310000D02*
X197790000Y-44798000D01*
X197830000Y-52266000D02*
X197830000Y-49790000D01*
X197830000Y-47310000D02*
X197830000Y-44834000D01*
X197870000Y-52228000D02*
X197870000Y-49790000D01*
X197870000Y-47310000D02*
X197870000Y-44872000D01*
X197910000Y-52190000D02*
X197910000Y-49790000D01*
X197910000Y-47310000D02*
X197910000Y-44910000D01*
X197950000Y-52151000D02*
X197950000Y-49790000D01*
X197950000Y-47310000D02*
X197950000Y-44949000D01*
X197990000Y-52111000D02*
X197990000Y-49790000D01*
X197990000Y-47310000D02*
X197990000Y-44989000D01*
X198030000Y-52070000D02*
X198030000Y-49790000D01*
X198030000Y-47310000D02*
X198030000Y-45030000D01*
X198070000Y-52028000D02*
X198070000Y-49790000D01*
X198070000Y-47310000D02*
X198070000Y-45072000D01*
X198110000Y-51985000D02*
X198110000Y-45115000D01*
X198150000Y-51941000D02*
X198150000Y-45159000D01*
X198190000Y-51897000D02*
X198190000Y-45203000D01*
X198230000Y-51851000D02*
X198230000Y-45249000D01*
X198270000Y-51804000D02*
X198270000Y-45296000D01*
X198310000Y-51755000D02*
X198310000Y-45345000D01*
X198350000Y-51706000D02*
X198350000Y-45394000D01*
X198390000Y-51655000D02*
X198390000Y-45445000D01*
X198430000Y-51603000D02*
X198430000Y-45497000D01*
X198470000Y-51550000D02*
X198470000Y-45550000D01*
X198510000Y-51495000D02*
X198510000Y-45605000D01*
X198550000Y-51438000D02*
X198550000Y-45662000D01*
X198590000Y-51380000D02*
X198590000Y-45720000D01*
X198630000Y-51320000D02*
X198630000Y-45780000D01*
X198670000Y-51258000D02*
X198670000Y-45842000D01*
X198710000Y-51194000D02*
X198710000Y-45906000D01*
X198750000Y-51128000D02*
X198750000Y-45972000D01*
X198790000Y-51060000D02*
X198790000Y-46040000D01*
X198830000Y-50989000D02*
X198830000Y-46111000D01*
X198870000Y-50915000D02*
X198870000Y-46185000D01*
X198910000Y-50838000D02*
X198910000Y-46262000D01*
X198950000Y-50758000D02*
X198950000Y-46342000D01*
X198990000Y-50674000D02*
X198990000Y-46426000D01*
X199030000Y-50587000D02*
X199030000Y-46513000D01*
X199070000Y-50494000D02*
X199070000Y-46606000D01*
X199110000Y-50396000D02*
X199110000Y-46704000D01*
X199150000Y-50292000D02*
X199150000Y-46808000D01*
X199190000Y-50180000D02*
X199190000Y-46920000D01*
X199230000Y-50059000D02*
X199230000Y-47041000D01*
X199270000Y-49927000D02*
X199270000Y-47173000D01*
X199310000Y-49780000D02*
X199310000Y-47320000D01*
X199350000Y-49612000D02*
X199350000Y-47488000D01*
X199390000Y-49412000D02*
X199390000Y-47688000D01*
X199430000Y-49149000D02*
X199430000Y-47951000D01*
X199470000Y-48550000D02*
G75*
G02*
X189230000Y-48550000I-5120000J0D01*
G01*
X189230000Y-48550000D02*
G75*
G02*
X199470000Y-48550000I5120000J0D01*
G01*
%TO.C,C6*%
X188852677Y-62875000D02*
X189852677Y-62875000D01*
X189352677Y-63375000D02*
X189352677Y-62375000D01*
X194332323Y-65080000D02*
X194332323Y-54920000D01*
X194372323Y-65080000D02*
X194372323Y-54920000D01*
X194412323Y-65079000D02*
X194412323Y-54921000D01*
X194452323Y-65079000D02*
X194452323Y-54921000D01*
X194492323Y-65077000D02*
X194492323Y-54923000D01*
X194532323Y-65076000D02*
X194532323Y-54924000D01*
X194572323Y-65074000D02*
X194572323Y-54926000D01*
X194612323Y-65072000D02*
X194612323Y-54928000D01*
X194652323Y-65070000D02*
X194652323Y-54930000D01*
X194692323Y-65067000D02*
X194692323Y-54933000D01*
X194732323Y-65064000D02*
X194732323Y-54936000D01*
X194772323Y-65061000D02*
X194772323Y-54939000D01*
X194812323Y-65057000D02*
X194812323Y-54943000D01*
X194852323Y-65054000D02*
X194852323Y-54946000D01*
X194892323Y-65049000D02*
X194892323Y-54951000D01*
X194932323Y-65045000D02*
X194932323Y-54955000D01*
X194972323Y-65040000D02*
X194972323Y-54960000D01*
X195012323Y-65035000D02*
X195012323Y-54965000D01*
X195052323Y-65029000D02*
X195052323Y-54971000D01*
X195092323Y-65023000D02*
X195092323Y-54977000D01*
X195132323Y-65017000D02*
X195132323Y-54983000D01*
X195172323Y-65011000D02*
X195172323Y-54989000D01*
X195212323Y-65004000D02*
X195212323Y-54996000D01*
X195252323Y-64997000D02*
X195252323Y-55003000D01*
X195292323Y-64989000D02*
X195292323Y-55011000D01*
X195332323Y-64981000D02*
X195332323Y-55019000D01*
X195372323Y-64973000D02*
X195372323Y-55027000D01*
X195412323Y-64965000D02*
X195412323Y-55035000D01*
X195452323Y-64956000D02*
X195452323Y-55044000D01*
X195492323Y-64947000D02*
X195492323Y-55053000D01*
X195532323Y-64937000D02*
X195532323Y-55063000D01*
X195572323Y-64928000D02*
X195572323Y-55072000D01*
X195612323Y-64917000D02*
X195612323Y-61240000D01*
X195612323Y-58760000D02*
X195612323Y-55083000D01*
X195652323Y-64907000D02*
X195652323Y-61240000D01*
X195652323Y-58760000D02*
X195652323Y-55093000D01*
X195692323Y-64896000D02*
X195692323Y-61240000D01*
X195692323Y-58760000D02*
X195692323Y-55104000D01*
X195732323Y-64885000D02*
X195732323Y-61240000D01*
X195732323Y-58760000D02*
X195732323Y-55115000D01*
X195772323Y-64873000D02*
X195772323Y-61240000D01*
X195772323Y-58760000D02*
X195772323Y-55127000D01*
X195812323Y-64861000D02*
X195812323Y-61240000D01*
X195812323Y-58760000D02*
X195812323Y-55139000D01*
X195852323Y-64849000D02*
X195852323Y-61240000D01*
X195852323Y-58760000D02*
X195852323Y-55151000D01*
X195892323Y-64837000D02*
X195892323Y-61240000D01*
X195892323Y-58760000D02*
X195892323Y-55163000D01*
X195932323Y-64824000D02*
X195932323Y-61240000D01*
X195932323Y-58760000D02*
X195932323Y-55176000D01*
X195972323Y-64810000D02*
X195972323Y-61240000D01*
X195972323Y-58760000D02*
X195972323Y-55190000D01*
X196012323Y-64797000D02*
X196012323Y-61240000D01*
X196012323Y-58760000D02*
X196012323Y-55203000D01*
X196052323Y-64782000D02*
X196052323Y-61240000D01*
X196052323Y-58760000D02*
X196052323Y-55218000D01*
X196092323Y-64768000D02*
X196092323Y-61240000D01*
X196092323Y-58760000D02*
X196092323Y-55232000D01*
X196132323Y-64753000D02*
X196132323Y-61240000D01*
X196132323Y-58760000D02*
X196132323Y-55247000D01*
X196172323Y-64738000D02*
X196172323Y-61240000D01*
X196172323Y-58760000D02*
X196172323Y-55262000D01*
X196212323Y-64722000D02*
X196212323Y-61240000D01*
X196212323Y-58760000D02*
X196212323Y-55278000D01*
X196252323Y-64706000D02*
X196252323Y-61240000D01*
X196252323Y-58760000D02*
X196252323Y-55294000D01*
X196292323Y-64690000D02*
X196292323Y-61240000D01*
X196292323Y-58760000D02*
X196292323Y-55310000D01*
X196332323Y-64673000D02*
X196332323Y-61240000D01*
X196332323Y-58760000D02*
X196332323Y-55327000D01*
X196372323Y-64656000D02*
X196372323Y-61240000D01*
X196372323Y-58760000D02*
X196372323Y-55344000D01*
X196412323Y-64638000D02*
X196412323Y-61240000D01*
X196412323Y-58760000D02*
X196412323Y-55362000D01*
X196452323Y-64620000D02*
X196452323Y-61240000D01*
X196452323Y-58760000D02*
X196452323Y-55380000D01*
X196492323Y-64602000D02*
X196492323Y-61240000D01*
X196492323Y-58760000D02*
X196492323Y-55398000D01*
X196532323Y-64583000D02*
X196532323Y-61240000D01*
X196532323Y-58760000D02*
X196532323Y-55417000D01*
X196572323Y-64564000D02*
X196572323Y-61240000D01*
X196572323Y-58760000D02*
X196572323Y-55436000D01*
X196612323Y-64544000D02*
X196612323Y-61240000D01*
X196612323Y-58760000D02*
X196612323Y-55456000D01*
X196652323Y-64524000D02*
X196652323Y-61240000D01*
X196652323Y-58760000D02*
X196652323Y-55476000D01*
X196692323Y-64504000D02*
X196692323Y-61240000D01*
X196692323Y-58760000D02*
X196692323Y-55496000D01*
X196732323Y-64483000D02*
X196732323Y-61240000D01*
X196732323Y-58760000D02*
X196732323Y-55517000D01*
X196772323Y-64461000D02*
X196772323Y-61240000D01*
X196772323Y-58760000D02*
X196772323Y-55539000D01*
X196812323Y-64439000D02*
X196812323Y-61240000D01*
X196812323Y-58760000D02*
X196812323Y-55561000D01*
X196852323Y-64417000D02*
X196852323Y-61240000D01*
X196852323Y-58760000D02*
X196852323Y-55583000D01*
X196892323Y-64394000D02*
X196892323Y-61240000D01*
X196892323Y-58760000D02*
X196892323Y-55606000D01*
X196932323Y-64371000D02*
X196932323Y-61240000D01*
X196932323Y-58760000D02*
X196932323Y-55629000D01*
X196972323Y-64347000D02*
X196972323Y-61240000D01*
X196972323Y-58760000D02*
X196972323Y-55653000D01*
X197012323Y-64323000D02*
X197012323Y-61240000D01*
X197012323Y-58760000D02*
X197012323Y-55677000D01*
X197052323Y-64298000D02*
X197052323Y-61240000D01*
X197052323Y-58760000D02*
X197052323Y-55702000D01*
X197092323Y-64272000D02*
X197092323Y-61240000D01*
X197092323Y-58760000D02*
X197092323Y-55728000D01*
X197132323Y-64247000D02*
X197132323Y-61240000D01*
X197132323Y-58760000D02*
X197132323Y-55753000D01*
X197172323Y-64220000D02*
X197172323Y-61240000D01*
X197172323Y-58760000D02*
X197172323Y-55780000D01*
X197212323Y-64193000D02*
X197212323Y-61240000D01*
X197212323Y-58760000D02*
X197212323Y-55807000D01*
X197252323Y-64166000D02*
X197252323Y-61240000D01*
X197252323Y-58760000D02*
X197252323Y-55834000D01*
X197292323Y-64138000D02*
X197292323Y-61240000D01*
X197292323Y-58760000D02*
X197292323Y-55862000D01*
X197332323Y-64109000D02*
X197332323Y-61240000D01*
X197332323Y-58760000D02*
X197332323Y-55891000D01*
X197372323Y-64080000D02*
X197372323Y-61240000D01*
X197372323Y-58760000D02*
X197372323Y-55920000D01*
X197412323Y-64050000D02*
X197412323Y-61240000D01*
X197412323Y-58760000D02*
X197412323Y-55950000D01*
X197452323Y-64020000D02*
X197452323Y-61240000D01*
X197452323Y-58760000D02*
X197452323Y-55980000D01*
X197492323Y-63988000D02*
X197492323Y-61240000D01*
X197492323Y-58760000D02*
X197492323Y-56012000D01*
X197532323Y-63957000D02*
X197532323Y-61240000D01*
X197532323Y-58760000D02*
X197532323Y-56043000D01*
X197572323Y-63924000D02*
X197572323Y-61240000D01*
X197572323Y-58760000D02*
X197572323Y-56076000D01*
X197612323Y-63891000D02*
X197612323Y-61240000D01*
X197612323Y-58760000D02*
X197612323Y-56109000D01*
X197652323Y-63858000D02*
X197652323Y-61240000D01*
X197652323Y-58760000D02*
X197652323Y-56142000D01*
X197692323Y-63823000D02*
X197692323Y-61240000D01*
X197692323Y-58760000D02*
X197692323Y-56177000D01*
X197732323Y-63788000D02*
X197732323Y-61240000D01*
X197732323Y-58760000D02*
X197732323Y-56212000D01*
X197772323Y-63752000D02*
X197772323Y-61240000D01*
X197772323Y-58760000D02*
X197772323Y-56248000D01*
X197812323Y-63716000D02*
X197812323Y-61240000D01*
X197812323Y-58760000D02*
X197812323Y-56284000D01*
X197852323Y-63678000D02*
X197852323Y-61240000D01*
X197852323Y-58760000D02*
X197852323Y-56322000D01*
X197892323Y-63640000D02*
X197892323Y-61240000D01*
X197892323Y-58760000D02*
X197892323Y-56360000D01*
X197932323Y-63601000D02*
X197932323Y-61240000D01*
X197932323Y-58760000D02*
X197932323Y-56399000D01*
X197972323Y-63561000D02*
X197972323Y-61240000D01*
X197972323Y-58760000D02*
X197972323Y-56439000D01*
X198012323Y-63520000D02*
X198012323Y-61240000D01*
X198012323Y-58760000D02*
X198012323Y-56480000D01*
X198052323Y-63478000D02*
X198052323Y-61240000D01*
X198052323Y-58760000D02*
X198052323Y-56522000D01*
X198092323Y-63435000D02*
X198092323Y-56565000D01*
X198132323Y-63391000D02*
X198132323Y-56609000D01*
X198172323Y-63347000D02*
X198172323Y-56653000D01*
X198212323Y-63301000D02*
X198212323Y-56699000D01*
X198252323Y-63254000D02*
X198252323Y-56746000D01*
X198292323Y-63205000D02*
X198292323Y-56795000D01*
X198332323Y-63156000D02*
X198332323Y-56844000D01*
X198372323Y-63105000D02*
X198372323Y-56895000D01*
X198412323Y-63053000D02*
X198412323Y-56947000D01*
X198452323Y-63000000D02*
X198452323Y-57000000D01*
X198492323Y-62945000D02*
X198492323Y-57055000D01*
X198532323Y-62888000D02*
X198532323Y-57112000D01*
X198572323Y-62830000D02*
X198572323Y-57170000D01*
X198612323Y-62770000D02*
X198612323Y-57230000D01*
X198652323Y-62708000D02*
X198652323Y-57292000D01*
X198692323Y-62644000D02*
X198692323Y-57356000D01*
X198732323Y-62578000D02*
X198732323Y-57422000D01*
X198772323Y-62510000D02*
X198772323Y-57490000D01*
X198812323Y-62439000D02*
X198812323Y-57561000D01*
X198852323Y-62365000D02*
X198852323Y-57635000D01*
X198892323Y-62288000D02*
X198892323Y-57712000D01*
X198932323Y-62208000D02*
X198932323Y-57792000D01*
X198972323Y-62124000D02*
X198972323Y-57876000D01*
X199012323Y-62037000D02*
X199012323Y-57963000D01*
X199052323Y-61944000D02*
X199052323Y-58056000D01*
X199092323Y-61846000D02*
X199092323Y-58154000D01*
X199132323Y-61742000D02*
X199132323Y-58258000D01*
X199172323Y-61630000D02*
X199172323Y-58370000D01*
X199212323Y-61509000D02*
X199212323Y-58491000D01*
X199252323Y-61377000D02*
X199252323Y-58623000D01*
X199292323Y-61230000D02*
X199292323Y-58770000D01*
X199332323Y-61062000D02*
X199332323Y-58938000D01*
X199372323Y-60862000D02*
X199372323Y-59138000D01*
X199412323Y-60599000D02*
X199412323Y-59401000D01*
X199452323Y-60000000D02*
G75*
G02*
X189212323Y-60000000I-5120000J0D01*
G01*
X189212323Y-60000000D02*
G75*
G02*
X199452323Y-60000000I5120000J0D01*
G01*
%TO.C,C3*%
X157870354Y-51425000D02*
X158870354Y-51425000D01*
X158370354Y-51925000D02*
X158370354Y-50925000D01*
X163350000Y-53630000D02*
X163350000Y-43470000D01*
X163390000Y-53630000D02*
X163390000Y-43470000D01*
X163430000Y-53629000D02*
X163430000Y-43471000D01*
X163470000Y-53629000D02*
X163470000Y-43471000D01*
X163510000Y-53627000D02*
X163510000Y-43473000D01*
X163550000Y-53626000D02*
X163550000Y-43474000D01*
X163590000Y-53624000D02*
X163590000Y-43476000D01*
X163630000Y-53622000D02*
X163630000Y-43478000D01*
X163670000Y-53620000D02*
X163670000Y-43480000D01*
X163710000Y-53617000D02*
X163710000Y-43483000D01*
X163750000Y-53614000D02*
X163750000Y-43486000D01*
X163790000Y-53611000D02*
X163790000Y-43489000D01*
X163830000Y-53607000D02*
X163830000Y-43493000D01*
X163870000Y-53604000D02*
X163870000Y-43496000D01*
X163910000Y-53599000D02*
X163910000Y-43501000D01*
X163950000Y-53595000D02*
X163950000Y-43505000D01*
X163990000Y-53590000D02*
X163990000Y-43510000D01*
X164030000Y-53585000D02*
X164030000Y-43515000D01*
X164070000Y-53579000D02*
X164070000Y-43521000D01*
X164110000Y-53573000D02*
X164110000Y-43527000D01*
X164150000Y-53567000D02*
X164150000Y-43533000D01*
X164190000Y-53561000D02*
X164190000Y-43539000D01*
X164230000Y-53554000D02*
X164230000Y-43546000D01*
X164270000Y-53547000D02*
X164270000Y-43553000D01*
X164310000Y-53539000D02*
X164310000Y-43561000D01*
X164350000Y-53531000D02*
X164350000Y-43569000D01*
X164390000Y-53523000D02*
X164390000Y-43577000D01*
X164430000Y-53515000D02*
X164430000Y-43585000D01*
X164470000Y-53506000D02*
X164470000Y-43594000D01*
X164510000Y-53497000D02*
X164510000Y-43603000D01*
X164550000Y-53487000D02*
X164550000Y-43613000D01*
X164590000Y-53478000D02*
X164590000Y-43622000D01*
X164630000Y-53467000D02*
X164630000Y-49790000D01*
X164630000Y-47310000D02*
X164630000Y-43633000D01*
X164670000Y-53457000D02*
X164670000Y-49790000D01*
X164670000Y-47310000D02*
X164670000Y-43643000D01*
X164710000Y-53446000D02*
X164710000Y-49790000D01*
X164710000Y-47310000D02*
X164710000Y-43654000D01*
X164750000Y-53435000D02*
X164750000Y-49790000D01*
X164750000Y-47310000D02*
X164750000Y-43665000D01*
X164790000Y-53423000D02*
X164790000Y-49790000D01*
X164790000Y-47310000D02*
X164790000Y-43677000D01*
X164830000Y-53411000D02*
X164830000Y-49790000D01*
X164830000Y-47310000D02*
X164830000Y-43689000D01*
X164870000Y-53399000D02*
X164870000Y-49790000D01*
X164870000Y-47310000D02*
X164870000Y-43701000D01*
X164910000Y-53387000D02*
X164910000Y-49790000D01*
X164910000Y-47310000D02*
X164910000Y-43713000D01*
X164950000Y-53374000D02*
X164950000Y-49790000D01*
X164950000Y-47310000D02*
X164950000Y-43726000D01*
X164990000Y-53360000D02*
X164990000Y-49790000D01*
X164990000Y-47310000D02*
X164990000Y-43740000D01*
X165030000Y-53347000D02*
X165030000Y-49790000D01*
X165030000Y-47310000D02*
X165030000Y-43753000D01*
X165070000Y-53332000D02*
X165070000Y-49790000D01*
X165070000Y-47310000D02*
X165070000Y-43768000D01*
X165110000Y-53318000D02*
X165110000Y-49790000D01*
X165110000Y-47310000D02*
X165110000Y-43782000D01*
X165150000Y-53303000D02*
X165150000Y-49790000D01*
X165150000Y-47310000D02*
X165150000Y-43797000D01*
X165190000Y-53288000D02*
X165190000Y-49790000D01*
X165190000Y-47310000D02*
X165190000Y-43812000D01*
X165230000Y-53272000D02*
X165230000Y-49790000D01*
X165230000Y-47310000D02*
X165230000Y-43828000D01*
X165270000Y-53256000D02*
X165270000Y-49790000D01*
X165270000Y-47310000D02*
X165270000Y-43844000D01*
X165310000Y-53240000D02*
X165310000Y-49790000D01*
X165310000Y-47310000D02*
X165310000Y-43860000D01*
X165350000Y-53223000D02*
X165350000Y-49790000D01*
X165350000Y-47310000D02*
X165350000Y-43877000D01*
X165390000Y-53206000D02*
X165390000Y-49790000D01*
X165390000Y-47310000D02*
X165390000Y-43894000D01*
X165430000Y-53188000D02*
X165430000Y-49790000D01*
X165430000Y-47310000D02*
X165430000Y-43912000D01*
X165470000Y-53170000D02*
X165470000Y-49790000D01*
X165470000Y-47310000D02*
X165470000Y-43930000D01*
X165510000Y-53152000D02*
X165510000Y-49790000D01*
X165510000Y-47310000D02*
X165510000Y-43948000D01*
X165550000Y-53133000D02*
X165550000Y-49790000D01*
X165550000Y-47310000D02*
X165550000Y-43967000D01*
X165590000Y-53114000D02*
X165590000Y-49790000D01*
X165590000Y-47310000D02*
X165590000Y-43986000D01*
X165630000Y-53094000D02*
X165630000Y-49790000D01*
X165630000Y-47310000D02*
X165630000Y-44006000D01*
X165670000Y-53074000D02*
X165670000Y-49790000D01*
X165670000Y-47310000D02*
X165670000Y-44026000D01*
X165710000Y-53054000D02*
X165710000Y-49790000D01*
X165710000Y-47310000D02*
X165710000Y-44046000D01*
X165750000Y-53033000D02*
X165750000Y-49790000D01*
X165750000Y-47310000D02*
X165750000Y-44067000D01*
X165790000Y-53011000D02*
X165790000Y-49790000D01*
X165790000Y-47310000D02*
X165790000Y-44089000D01*
X165830000Y-52989000D02*
X165830000Y-49790000D01*
X165830000Y-47310000D02*
X165830000Y-44111000D01*
X165870000Y-52967000D02*
X165870000Y-49790000D01*
X165870000Y-47310000D02*
X165870000Y-44133000D01*
X165910000Y-52944000D02*
X165910000Y-49790000D01*
X165910000Y-47310000D02*
X165910000Y-44156000D01*
X165950000Y-52921000D02*
X165950000Y-49790000D01*
X165950000Y-47310000D02*
X165950000Y-44179000D01*
X165990000Y-52897000D02*
X165990000Y-49790000D01*
X165990000Y-47310000D02*
X165990000Y-44203000D01*
X166030000Y-52873000D02*
X166030000Y-49790000D01*
X166030000Y-47310000D02*
X166030000Y-44227000D01*
X166070000Y-52848000D02*
X166070000Y-49790000D01*
X166070000Y-47310000D02*
X166070000Y-44252000D01*
X166110000Y-52822000D02*
X166110000Y-49790000D01*
X166110000Y-47310000D02*
X166110000Y-44278000D01*
X166150000Y-52797000D02*
X166150000Y-49790000D01*
X166150000Y-47310000D02*
X166150000Y-44303000D01*
X166190000Y-52770000D02*
X166190000Y-49790000D01*
X166190000Y-47310000D02*
X166190000Y-44330000D01*
X166230000Y-52743000D02*
X166230000Y-49790000D01*
X166230000Y-47310000D02*
X166230000Y-44357000D01*
X166270000Y-52716000D02*
X166270000Y-49790000D01*
X166270000Y-47310000D02*
X166270000Y-44384000D01*
X166310000Y-52688000D02*
X166310000Y-49790000D01*
X166310000Y-47310000D02*
X166310000Y-44412000D01*
X166350000Y-52659000D02*
X166350000Y-49790000D01*
X166350000Y-47310000D02*
X166350000Y-44441000D01*
X166390000Y-52630000D02*
X166390000Y-49790000D01*
X166390000Y-47310000D02*
X166390000Y-44470000D01*
X166430000Y-52600000D02*
X166430000Y-49790000D01*
X166430000Y-47310000D02*
X166430000Y-44500000D01*
X166470000Y-52570000D02*
X166470000Y-49790000D01*
X166470000Y-47310000D02*
X166470000Y-44530000D01*
X166510000Y-52538000D02*
X166510000Y-49790000D01*
X166510000Y-47310000D02*
X166510000Y-44562000D01*
X166550000Y-52507000D02*
X166550000Y-49790000D01*
X166550000Y-47310000D02*
X166550000Y-44593000D01*
X166590000Y-52474000D02*
X166590000Y-49790000D01*
X166590000Y-47310000D02*
X166590000Y-44626000D01*
X166630000Y-52441000D02*
X166630000Y-49790000D01*
X166630000Y-47310000D02*
X166630000Y-44659000D01*
X166670000Y-52408000D02*
X166670000Y-49790000D01*
X166670000Y-47310000D02*
X166670000Y-44692000D01*
X166710000Y-52373000D02*
X166710000Y-49790000D01*
X166710000Y-47310000D02*
X166710000Y-44727000D01*
X166750000Y-52338000D02*
X166750000Y-49790000D01*
X166750000Y-47310000D02*
X166750000Y-44762000D01*
X166790000Y-52302000D02*
X166790000Y-49790000D01*
X166790000Y-47310000D02*
X166790000Y-44798000D01*
X166830000Y-52266000D02*
X166830000Y-49790000D01*
X166830000Y-47310000D02*
X166830000Y-44834000D01*
X166870000Y-52228000D02*
X166870000Y-49790000D01*
X166870000Y-47310000D02*
X166870000Y-44872000D01*
X166910000Y-52190000D02*
X166910000Y-49790000D01*
X166910000Y-47310000D02*
X166910000Y-44910000D01*
X166950000Y-52151000D02*
X166950000Y-49790000D01*
X166950000Y-47310000D02*
X166950000Y-44949000D01*
X166990000Y-52111000D02*
X166990000Y-49790000D01*
X166990000Y-47310000D02*
X166990000Y-44989000D01*
X167030000Y-52070000D02*
X167030000Y-49790000D01*
X167030000Y-47310000D02*
X167030000Y-45030000D01*
X167070000Y-52028000D02*
X167070000Y-49790000D01*
X167070000Y-47310000D02*
X167070000Y-45072000D01*
X167110000Y-51985000D02*
X167110000Y-45115000D01*
X167150000Y-51941000D02*
X167150000Y-45159000D01*
X167190000Y-51897000D02*
X167190000Y-45203000D01*
X167230000Y-51851000D02*
X167230000Y-45249000D01*
X167270000Y-51804000D02*
X167270000Y-45296000D01*
X167310000Y-51755000D02*
X167310000Y-45345000D01*
X167350000Y-51706000D02*
X167350000Y-45394000D01*
X167390000Y-51655000D02*
X167390000Y-45445000D01*
X167430000Y-51603000D02*
X167430000Y-45497000D01*
X167470000Y-51550000D02*
X167470000Y-45550000D01*
X167510000Y-51495000D02*
X167510000Y-45605000D01*
X167550000Y-51438000D02*
X167550000Y-45662000D01*
X167590000Y-51380000D02*
X167590000Y-45720000D01*
X167630000Y-51320000D02*
X167630000Y-45780000D01*
X167670000Y-51258000D02*
X167670000Y-45842000D01*
X167710000Y-51194000D02*
X167710000Y-45906000D01*
X167750000Y-51128000D02*
X167750000Y-45972000D01*
X167790000Y-51060000D02*
X167790000Y-46040000D01*
X167830000Y-50989000D02*
X167830000Y-46111000D01*
X167870000Y-50915000D02*
X167870000Y-46185000D01*
X167910000Y-50838000D02*
X167910000Y-46262000D01*
X167950000Y-50758000D02*
X167950000Y-46342000D01*
X167990000Y-50674000D02*
X167990000Y-46426000D01*
X168030000Y-50587000D02*
X168030000Y-46513000D01*
X168070000Y-50494000D02*
X168070000Y-46606000D01*
X168110000Y-50396000D02*
X168110000Y-46704000D01*
X168150000Y-50292000D02*
X168150000Y-46808000D01*
X168190000Y-50180000D02*
X168190000Y-46920000D01*
X168230000Y-50059000D02*
X168230000Y-47041000D01*
X168270000Y-49927000D02*
X168270000Y-47173000D01*
X168310000Y-49780000D02*
X168310000Y-47320000D01*
X168350000Y-49612000D02*
X168350000Y-47488000D01*
X168390000Y-49412000D02*
X168390000Y-47688000D01*
X168430000Y-49149000D02*
X168430000Y-47951000D01*
X168470000Y-48550000D02*
G75*
G02*
X158230000Y-48550000I-5120000J0D01*
G01*
X158230000Y-48550000D02*
G75*
G02*
X168470000Y-48550000I5120000J0D01*
G01*
%TO.C,C1*%
X168452323Y-60000000D02*
G75*
G02*
X158212323Y-60000000I-5120000J0D01*
G01*
X158212323Y-60000000D02*
G75*
G02*
X168452323Y-60000000I5120000J0D01*
G01*
X168412323Y-60599000D02*
X168412323Y-59401000D01*
X168372323Y-60862000D02*
X168372323Y-59138000D01*
X168332323Y-61062000D02*
X168332323Y-58938000D01*
X168292323Y-61230000D02*
X168292323Y-58770000D01*
X168252323Y-61377000D02*
X168252323Y-58623000D01*
X168212323Y-61509000D02*
X168212323Y-58491000D01*
X168172323Y-61630000D02*
X168172323Y-58370000D01*
X168132323Y-61742000D02*
X168132323Y-58258000D01*
X168092323Y-61846000D02*
X168092323Y-58154000D01*
X168052323Y-61944000D02*
X168052323Y-58056000D01*
X168012323Y-62037000D02*
X168012323Y-57963000D01*
X167972323Y-62124000D02*
X167972323Y-57876000D01*
X167932323Y-62208000D02*
X167932323Y-57792000D01*
X167892323Y-62288000D02*
X167892323Y-57712000D01*
X167852323Y-62365000D02*
X167852323Y-57635000D01*
X167812323Y-62439000D02*
X167812323Y-57561000D01*
X167772323Y-62510000D02*
X167772323Y-57490000D01*
X167732323Y-62578000D02*
X167732323Y-57422000D01*
X167692323Y-62644000D02*
X167692323Y-57356000D01*
X167652323Y-62708000D02*
X167652323Y-57292000D01*
X167612323Y-62770000D02*
X167612323Y-57230000D01*
X167572323Y-62830000D02*
X167572323Y-57170000D01*
X167532323Y-62888000D02*
X167532323Y-57112000D01*
X167492323Y-62945000D02*
X167492323Y-57055000D01*
X167452323Y-63000000D02*
X167452323Y-57000000D01*
X167412323Y-63053000D02*
X167412323Y-56947000D01*
X167372323Y-63105000D02*
X167372323Y-56895000D01*
X167332323Y-63156000D02*
X167332323Y-56844000D01*
X167292323Y-63205000D02*
X167292323Y-56795000D01*
X167252323Y-63254000D02*
X167252323Y-56746000D01*
X167212323Y-63301000D02*
X167212323Y-56699000D01*
X167172323Y-63347000D02*
X167172323Y-56653000D01*
X167132323Y-63391000D02*
X167132323Y-56609000D01*
X167092323Y-63435000D02*
X167092323Y-56565000D01*
X167052323Y-58760000D02*
X167052323Y-56522000D01*
X167052323Y-63478000D02*
X167052323Y-61240000D01*
X167012323Y-58760000D02*
X167012323Y-56480000D01*
X167012323Y-63520000D02*
X167012323Y-61240000D01*
X166972323Y-58760000D02*
X166972323Y-56439000D01*
X166972323Y-63561000D02*
X166972323Y-61240000D01*
X166932323Y-58760000D02*
X166932323Y-56399000D01*
X166932323Y-63601000D02*
X166932323Y-61240000D01*
X166892323Y-58760000D02*
X166892323Y-56360000D01*
X166892323Y-63640000D02*
X166892323Y-61240000D01*
X166852323Y-58760000D02*
X166852323Y-56322000D01*
X166852323Y-63678000D02*
X166852323Y-61240000D01*
X166812323Y-58760000D02*
X166812323Y-56284000D01*
X166812323Y-63716000D02*
X166812323Y-61240000D01*
X166772323Y-58760000D02*
X166772323Y-56248000D01*
X166772323Y-63752000D02*
X166772323Y-61240000D01*
X166732323Y-58760000D02*
X166732323Y-56212000D01*
X166732323Y-63788000D02*
X166732323Y-61240000D01*
X166692323Y-58760000D02*
X166692323Y-56177000D01*
X166692323Y-63823000D02*
X166692323Y-61240000D01*
X166652323Y-58760000D02*
X166652323Y-56142000D01*
X166652323Y-63858000D02*
X166652323Y-61240000D01*
X166612323Y-58760000D02*
X166612323Y-56109000D01*
X166612323Y-63891000D02*
X166612323Y-61240000D01*
X166572323Y-58760000D02*
X166572323Y-56076000D01*
X166572323Y-63924000D02*
X166572323Y-61240000D01*
X166532323Y-58760000D02*
X166532323Y-56043000D01*
X166532323Y-63957000D02*
X166532323Y-61240000D01*
X166492323Y-58760000D02*
X166492323Y-56012000D01*
X166492323Y-63988000D02*
X166492323Y-61240000D01*
X166452323Y-58760000D02*
X166452323Y-55980000D01*
X166452323Y-64020000D02*
X166452323Y-61240000D01*
X166412323Y-58760000D02*
X166412323Y-55950000D01*
X166412323Y-64050000D02*
X166412323Y-61240000D01*
X166372323Y-58760000D02*
X166372323Y-55920000D01*
X166372323Y-64080000D02*
X166372323Y-61240000D01*
X166332323Y-58760000D02*
X166332323Y-55891000D01*
X166332323Y-64109000D02*
X166332323Y-61240000D01*
X166292323Y-58760000D02*
X166292323Y-55862000D01*
X166292323Y-64138000D02*
X166292323Y-61240000D01*
X166252323Y-58760000D02*
X166252323Y-55834000D01*
X166252323Y-64166000D02*
X166252323Y-61240000D01*
X166212323Y-58760000D02*
X166212323Y-55807000D01*
X166212323Y-64193000D02*
X166212323Y-61240000D01*
X166172323Y-58760000D02*
X166172323Y-55780000D01*
X166172323Y-64220000D02*
X166172323Y-61240000D01*
X166132323Y-58760000D02*
X166132323Y-55753000D01*
X166132323Y-64247000D02*
X166132323Y-61240000D01*
X166092323Y-58760000D02*
X166092323Y-55728000D01*
X166092323Y-64272000D02*
X166092323Y-61240000D01*
X166052323Y-58760000D02*
X166052323Y-55702000D01*
X166052323Y-64298000D02*
X166052323Y-61240000D01*
X166012323Y-58760000D02*
X166012323Y-55677000D01*
X166012323Y-64323000D02*
X166012323Y-61240000D01*
X165972323Y-58760000D02*
X165972323Y-55653000D01*
X165972323Y-64347000D02*
X165972323Y-61240000D01*
X165932323Y-58760000D02*
X165932323Y-55629000D01*
X165932323Y-64371000D02*
X165932323Y-61240000D01*
X165892323Y-58760000D02*
X165892323Y-55606000D01*
X165892323Y-64394000D02*
X165892323Y-61240000D01*
X165852323Y-58760000D02*
X165852323Y-55583000D01*
X165852323Y-64417000D02*
X165852323Y-61240000D01*
X165812323Y-58760000D02*
X165812323Y-55561000D01*
X165812323Y-64439000D02*
X165812323Y-61240000D01*
X165772323Y-58760000D02*
X165772323Y-55539000D01*
X165772323Y-64461000D02*
X165772323Y-61240000D01*
X165732323Y-58760000D02*
X165732323Y-55517000D01*
X165732323Y-64483000D02*
X165732323Y-61240000D01*
X165692323Y-58760000D02*
X165692323Y-55496000D01*
X165692323Y-64504000D02*
X165692323Y-61240000D01*
X165652323Y-58760000D02*
X165652323Y-55476000D01*
X165652323Y-64524000D02*
X165652323Y-61240000D01*
X165612323Y-58760000D02*
X165612323Y-55456000D01*
X165612323Y-64544000D02*
X165612323Y-61240000D01*
X165572323Y-58760000D02*
X165572323Y-55436000D01*
X165572323Y-64564000D02*
X165572323Y-61240000D01*
X165532323Y-58760000D02*
X165532323Y-55417000D01*
X165532323Y-64583000D02*
X165532323Y-61240000D01*
X165492323Y-58760000D02*
X165492323Y-55398000D01*
X165492323Y-64602000D02*
X165492323Y-61240000D01*
X165452323Y-58760000D02*
X165452323Y-55380000D01*
X165452323Y-64620000D02*
X165452323Y-61240000D01*
X165412323Y-58760000D02*
X165412323Y-55362000D01*
X165412323Y-64638000D02*
X165412323Y-61240000D01*
X165372323Y-58760000D02*
X165372323Y-55344000D01*
X165372323Y-64656000D02*
X165372323Y-61240000D01*
X165332323Y-58760000D02*
X165332323Y-55327000D01*
X165332323Y-64673000D02*
X165332323Y-61240000D01*
X165292323Y-58760000D02*
X165292323Y-55310000D01*
X165292323Y-64690000D02*
X165292323Y-61240000D01*
X165252323Y-58760000D02*
X165252323Y-55294000D01*
X165252323Y-64706000D02*
X165252323Y-61240000D01*
X165212323Y-58760000D02*
X165212323Y-55278000D01*
X165212323Y-64722000D02*
X165212323Y-61240000D01*
X165172323Y-58760000D02*
X165172323Y-55262000D01*
X165172323Y-64738000D02*
X165172323Y-61240000D01*
X165132323Y-58760000D02*
X165132323Y-55247000D01*
X165132323Y-64753000D02*
X165132323Y-61240000D01*
X165092323Y-58760000D02*
X165092323Y-55232000D01*
X165092323Y-64768000D02*
X165092323Y-61240000D01*
X165052323Y-58760000D02*
X165052323Y-55218000D01*
X165052323Y-64782000D02*
X165052323Y-61240000D01*
X165012323Y-58760000D02*
X165012323Y-55203000D01*
X165012323Y-64797000D02*
X165012323Y-61240000D01*
X164972323Y-58760000D02*
X164972323Y-55190000D01*
X164972323Y-64810000D02*
X164972323Y-61240000D01*
X164932323Y-58760000D02*
X164932323Y-55176000D01*
X164932323Y-64824000D02*
X164932323Y-61240000D01*
X164892323Y-58760000D02*
X164892323Y-55163000D01*
X164892323Y-64837000D02*
X164892323Y-61240000D01*
X164852323Y-58760000D02*
X164852323Y-55151000D01*
X164852323Y-64849000D02*
X164852323Y-61240000D01*
X164812323Y-58760000D02*
X164812323Y-55139000D01*
X164812323Y-64861000D02*
X164812323Y-61240000D01*
X164772323Y-58760000D02*
X164772323Y-55127000D01*
X164772323Y-64873000D02*
X164772323Y-61240000D01*
X164732323Y-58760000D02*
X164732323Y-55115000D01*
X164732323Y-64885000D02*
X164732323Y-61240000D01*
X164692323Y-58760000D02*
X164692323Y-55104000D01*
X164692323Y-64896000D02*
X164692323Y-61240000D01*
X164652323Y-58760000D02*
X164652323Y-55093000D01*
X164652323Y-64907000D02*
X164652323Y-61240000D01*
X164612323Y-58760000D02*
X164612323Y-55083000D01*
X164612323Y-64917000D02*
X164612323Y-61240000D01*
X164572323Y-64928000D02*
X164572323Y-55072000D01*
X164532323Y-64937000D02*
X164532323Y-55063000D01*
X164492323Y-64947000D02*
X164492323Y-55053000D01*
X164452323Y-64956000D02*
X164452323Y-55044000D01*
X164412323Y-64965000D02*
X164412323Y-55035000D01*
X164372323Y-64973000D02*
X164372323Y-55027000D01*
X164332323Y-64981000D02*
X164332323Y-55019000D01*
X164292323Y-64989000D02*
X164292323Y-55011000D01*
X164252323Y-64997000D02*
X164252323Y-55003000D01*
X164212323Y-65004000D02*
X164212323Y-54996000D01*
X164172323Y-65011000D02*
X164172323Y-54989000D01*
X164132323Y-65017000D02*
X164132323Y-54983000D01*
X164092323Y-65023000D02*
X164092323Y-54977000D01*
X164052323Y-65029000D02*
X164052323Y-54971000D01*
X164012323Y-65035000D02*
X164012323Y-54965000D01*
X163972323Y-65040000D02*
X163972323Y-54960000D01*
X163932323Y-65045000D02*
X163932323Y-54955000D01*
X163892323Y-65049000D02*
X163892323Y-54951000D01*
X163852323Y-65054000D02*
X163852323Y-54946000D01*
X163812323Y-65057000D02*
X163812323Y-54943000D01*
X163772323Y-65061000D02*
X163772323Y-54939000D01*
X163732323Y-65064000D02*
X163732323Y-54936000D01*
X163692323Y-65067000D02*
X163692323Y-54933000D01*
X163652323Y-65070000D02*
X163652323Y-54930000D01*
X163612323Y-65072000D02*
X163612323Y-54928000D01*
X163572323Y-65074000D02*
X163572323Y-54926000D01*
X163532323Y-65076000D02*
X163532323Y-54924000D01*
X163492323Y-65077000D02*
X163492323Y-54923000D01*
X163452323Y-65079000D02*
X163452323Y-54921000D01*
X163412323Y-65079000D02*
X163412323Y-54921000D01*
X163372323Y-65080000D02*
X163372323Y-54920000D01*
X163332323Y-65080000D02*
X163332323Y-54920000D01*
X158352677Y-63375000D02*
X158352677Y-62375000D01*
X157852677Y-62875000D02*
X158852677Y-62875000D01*
D14*
%TO.C,J1*%
X176075000Y-97500000D02*
X176075000Y-79100000D01*
X160925000Y-97500000D02*
X176075000Y-97500000D01*
X176075000Y-79100000D02*
X160925000Y-79100000D01*
X160925000Y-79100000D02*
X160925000Y-97500000D01*
%TD*%
M02*
