%TF.GenerationSoftware,KiCad,Pcbnew,9.0.7*%
%TF.CreationDate,2026-05-06T10:24:24-05:00*%
%TF.ProjectId,RickNAS_4PortSATA,5269636b-4e41-4535-9f34-506f72745341,rev?*%
%TF.SameCoordinates,Original*%
%TF.FileFunction,Paste,Top*%
%TF.FilePolarity,Positive*%
%FSLAX46Y46*%
G04 Gerber Fmt 4.6, Leading zero omitted, Abs format (unit mm)*
G04 Created by KiCad (PCBNEW 9.0.7) date 2026-05-06 10:24:24*
%MOMM*%
%LPD*%
G01*
G04 APERTURE LIST*
G04 Aperture macros list*
%AMRoundRect*
0 Rectangle with rounded corners*
0 $1 Rounding radius*
0 $2 $3 $4 $5 $6 $7 $8 $9 X,Y pos of 4 corners*
0 Add a 4 corners polygon primitive as box body*
4,1,4,$2,$3,$4,$5,$6,$7,$8,$9,$2,$3,0*
0 Add four circle primitives for the rounded corners*
1,1,$1+$1,$2,$3*
1,1,$1+$1,$4,$5*
1,1,$1+$1,$6,$7*
1,1,$1+$1,$8,$9*
0 Add four rect primitives between the rounded corners*
20,1,$1+$1,$2,$3,$4,$5,0*
20,1,$1+$1,$4,$5,$6,$7,0*
20,1,$1+$1,$6,$7,$8,$9,0*
20,1,$1+$1,$8,$9,$2,$3,0*%
G04 Aperture macros list end*
%ADD10R,1.800000X0.500000*%
%ADD11R,1.800000X0.600000*%
%ADD12R,2.600000X2.600000*%
%ADD13RoundRect,0.250000X-0.475000X0.250000X-0.475000X-0.250000X0.475000X-0.250000X0.475000X0.250000X0*%
%ADD14RoundRect,0.243750X-0.243750X-0.456250X0.243750X-0.456250X0.243750X0.456250X-0.243750X0.456250X0*%
%ADD15RoundRect,0.100000X-0.637500X-0.100000X0.637500X-0.100000X0.637500X0.100000X-0.637500X0.100000X0*%
%ADD16RoundRect,0.375000X0.375000X-0.625000X0.375000X0.625000X-0.375000X0.625000X-0.375000X-0.625000X0*%
%ADD17RoundRect,0.500000X1.400000X-0.500000X1.400000X0.500000X-1.400000X0.500000X-1.400000X-0.500000X0*%
%ADD18R,0.400000X0.900000*%
G04 APERTURE END LIST*
D10*
%TO.C,J9*%
X181370000Y-69210000D03*
X181370000Y-70010000D03*
X181370000Y-70810000D03*
X181370000Y-71610000D03*
X181370000Y-72455000D03*
X181370000Y-73255000D03*
X181370000Y-74055000D03*
D11*
X185400000Y-74785000D03*
X185400000Y-76055000D03*
X185400000Y-77325000D03*
X185400000Y-78595000D03*
X185400000Y-79865000D03*
X185400000Y-81135000D03*
X185400000Y-82405000D03*
X185400000Y-50655000D03*
X185400000Y-51925000D03*
X185400000Y-53195000D03*
X185400000Y-54465000D03*
X185400000Y-55735000D03*
X185400000Y-57005000D03*
X185400000Y-58275000D03*
X185400000Y-59545000D03*
X185400000Y-60815000D03*
X185400000Y-62085000D03*
X185400000Y-63355000D03*
X185400000Y-64625000D03*
X185400000Y-65895000D03*
X185400000Y-67165000D03*
X185400000Y-68435000D03*
D12*
X183700000Y-44655000D03*
X183700000Y-88405000D03*
%TD*%
D10*
%TO.C,J10*%
X212370000Y-69210000D03*
X212370000Y-70010000D03*
X212370000Y-70810000D03*
X212370000Y-71610000D03*
X212370000Y-72455000D03*
X212370000Y-73255000D03*
X212370000Y-74055000D03*
D11*
X216400000Y-74785000D03*
X216400000Y-76055000D03*
X216400000Y-77325000D03*
X216400000Y-78595000D03*
X216400000Y-79865000D03*
X216400000Y-81135000D03*
X216400000Y-82405000D03*
X216400000Y-50655000D03*
X216400000Y-51925000D03*
X216400000Y-53195000D03*
X216400000Y-54465000D03*
X216400000Y-55735000D03*
X216400000Y-57005000D03*
X216400000Y-58275000D03*
X216400000Y-59545000D03*
X216400000Y-60815000D03*
X216400000Y-62085000D03*
X216400000Y-63355000D03*
X216400000Y-64625000D03*
X216400000Y-65895000D03*
X216400000Y-67165000D03*
X216400000Y-68435000D03*
D12*
X214700000Y-44655000D03*
X214700000Y-88405000D03*
%TD*%
D10*
%TO.C,J7*%
X119370000Y-69210000D03*
X119370000Y-70010000D03*
X119370000Y-70810000D03*
X119370000Y-71610000D03*
X119370000Y-72455000D03*
X119370000Y-73255000D03*
X119370000Y-74055000D03*
D11*
X123400000Y-74785000D03*
X123400000Y-76055000D03*
X123400000Y-77325000D03*
X123400000Y-78595000D03*
X123400000Y-79865000D03*
X123400000Y-81135000D03*
X123400000Y-82405000D03*
X123400000Y-50655000D03*
X123400000Y-51925000D03*
X123400000Y-53195000D03*
X123400000Y-54465000D03*
X123400000Y-55735000D03*
X123400000Y-57005000D03*
X123400000Y-58275000D03*
X123400000Y-59545000D03*
X123400000Y-60815000D03*
X123400000Y-62085000D03*
X123400000Y-63355000D03*
X123400000Y-64625000D03*
X123400000Y-65895000D03*
X123400000Y-67165000D03*
X123400000Y-68435000D03*
D12*
X121700000Y-44655000D03*
X121700000Y-88405000D03*
%TD*%
D10*
%TO.C,J8*%
X150370000Y-69210000D03*
X150370000Y-70010000D03*
X150370000Y-70810000D03*
X150370000Y-71610000D03*
X150370000Y-72455000D03*
X150370000Y-73255000D03*
X150370000Y-74055000D03*
D11*
X154400000Y-74785000D03*
X154400000Y-76055000D03*
X154400000Y-77325000D03*
X154400000Y-78595000D03*
X154400000Y-79865000D03*
X154400000Y-81135000D03*
X154400000Y-82405000D03*
X154400000Y-50655000D03*
X154400000Y-51925000D03*
X154400000Y-53195000D03*
X154400000Y-54465000D03*
X154400000Y-55735000D03*
X154400000Y-57005000D03*
X154400000Y-58275000D03*
X154400000Y-59545000D03*
X154400000Y-60815000D03*
X154400000Y-62085000D03*
X154400000Y-63355000D03*
X154400000Y-64625000D03*
X154400000Y-65895000D03*
X154400000Y-67165000D03*
X154400000Y-68435000D03*
D12*
X152700000Y-44655000D03*
X152700000Y-88405000D03*
%TD*%
D13*
%TO.C,C11*%
X133000000Y-56600000D03*
X133000000Y-58500000D03*
%TD*%
D14*
%TO.C,D1*%
X127062500Y-63000000D03*
X128937500Y-63000000D03*
%TD*%
D15*
%TO.C,U1*%
X101137500Y-78700000D03*
X101137500Y-79350000D03*
X101137500Y-80000000D03*
X101137500Y-80650000D03*
X101137500Y-81300000D03*
X101137500Y-81950000D03*
X101137500Y-82600000D03*
X101137500Y-83250000D03*
X101137500Y-83900000D03*
X101137500Y-84550000D03*
X106862500Y-84550000D03*
X106862500Y-83900000D03*
X106862500Y-83250000D03*
X106862500Y-82600000D03*
X106862500Y-81950000D03*
X106862500Y-81300000D03*
X106862500Y-80650000D03*
X106862500Y-80000000D03*
X106862500Y-79350000D03*
X106862500Y-78700000D03*
%TD*%
D14*
%TO.C,D2*%
X158250000Y-63000000D03*
X160125000Y-63000000D03*
%TD*%
D16*
%TO.C,U2*%
X128700000Y-53850000D03*
X131000000Y-53850000D03*
D17*
X131000000Y-47550000D03*
D16*
X133300000Y-53850000D03*
%TD*%
D13*
%TO.C,C10*%
X130500000Y-56600000D03*
X130500000Y-58500000D03*
%TD*%
D14*
%TO.C,D3*%
X189138000Y-63013000D03*
X191013000Y-63013000D03*
%TD*%
D18*
%TO.C,RN1*%
X101700000Y-74650000D03*
X100900000Y-74650000D03*
X100100000Y-74650000D03*
X99300000Y-74650000D03*
X99300000Y-76350000D03*
X100100000Y-76350000D03*
X100900000Y-76350000D03*
X101700000Y-76350000D03*
%TD*%
D13*
%TO.C,C9*%
X98750000Y-82300000D03*
X98750000Y-84200000D03*
%TD*%
D14*
%TO.C,D4*%
X220138000Y-63013000D03*
X222013000Y-63013000D03*
%TD*%
M02*
