%TF.GenerationSoftware,KiCad,Pcbnew,9.0.7*%
%TF.CreationDate,2026-05-06T10:24:24-05:00*%
%TF.ProjectId,RickNAS_4PortSATA,5269636b-4e41-4535-9f34-506f72745341,rev?*%
%TF.SameCoordinates,Original*%
%TF.FileFunction,Copper,L3,Inr*%
%TF.FilePolarity,Positive*%
%FSLAX46Y46*%
G04 Gerber Fmt 4.6, Leading zero omitted, Abs format (unit mm)*
G04 Created by KiCad (PCBNEW 9.0.7) date 2026-05-06 10:24:24*
%MOMM*%
%LPD*%
G01*
G04 APERTURE LIST*
G04 Aperture macros list*
%AMRoundRect*
0 Rectangle with rounded corners*
0 $1 Rounding radius*
0 $2 $3 $4 $5 $6 $7 $8 $9 X,Y pos of 4 corners*
0 Add a 4 corners polygon primitive as box body*
4,1,4,$2,$3,$4,$5,$6,$7,$8,$9,$2,$3,0*
0 Add four circle primitives for the rounded corners*
1,1,$1+$1,$2,$3*
1,1,$1+$1,$4,$5*
1,1,$1+$1,$6,$7*
1,1,$1+$1,$8,$9*
0 Add four rect primitives between the rounded corners*
20,1,$1+$1,$2,$3,$4,$5,0*
20,1,$1+$1,$4,$5,$6,$7,0*
20,1,$1+$1,$6,$7,$8,$9,0*
20,1,$1+$1,$8,$9,$2,$3,0*%
G04 Aperture macros list end*
%TA.AperFunction,ComponentPad*%
%ADD10C,0.800000*%
%TD*%
%TA.AperFunction,ComponentPad*%
%ADD11R,0.800000X0.800000*%
%TD*%
%TA.AperFunction,ComponentPad*%
%ADD12C,2.971800*%
%TD*%
%TA.AperFunction,ComponentPad*%
%ADD13C,1.574800*%
%TD*%
%TA.AperFunction,ComponentPad*%
%ADD14C,5.600000*%
%TD*%
%TA.AperFunction,ComponentPad*%
%ADD15R,1.700000X1.700000*%
%TD*%
%TA.AperFunction,ComponentPad*%
%ADD16C,1.700000*%
%TD*%
%TA.AperFunction,ComponentPad*%
%ADD17R,0.850000X0.850000*%
%TD*%
%TA.AperFunction,ComponentPad*%
%ADD18C,0.850000*%
%TD*%
%TA.AperFunction,ComponentPad*%
%ADD19RoundRect,0.250000X0.750000X0.750000X-0.750000X0.750000X-0.750000X-0.750000X0.750000X-0.750000X0*%
%TD*%
%TA.AperFunction,ComponentPad*%
%ADD20C,2.000000*%
%TD*%
%TA.AperFunction,ViaPad*%
%ADD21C,0.800000*%
%TD*%
%TA.AperFunction,ViaPad*%
%ADD22C,1.000000*%
%TD*%
G04 APERTURE END LIST*
D10*
%TO.N,VSS*%
%TO.C,J1*%
X170650000Y-89150000D03*
%TO.N,/TX2-*%
X169900000Y-88450000D03*
%TO.N,/TX2+*%
X169150000Y-89850000D03*
%TO.N,VSS*%
X168400000Y-89150000D03*
%TO.N,/TX0-*%
X167650000Y-88450000D03*
%TO.N,/TX0+*%
X166900000Y-89850000D03*
%TO.N,VSS*%
X166150000Y-89150000D03*
%TO.N,unconnected-(J1-SB6-PadD2)*%
X165400000Y-88450000D03*
D11*
%TO.N,SDataIn*%
X164650000Y-89850000D03*
D10*
%TO.N,VSS*%
X170650000Y-85350000D03*
%TO.N,/TX3-*%
X169900000Y-84650000D03*
%TO.N,/TX3+*%
X169150000Y-86050000D03*
%TO.N,VSS*%
X168400000Y-85350000D03*
%TO.N,/TX1-*%
X167650000Y-84650000D03*
%TO.N,/TX1+*%
X166900000Y-86050000D03*
%TO.N,VSS*%
X166150000Y-85350000D03*
%TO.N,unconnected-(J1-SB2-PadC2)*%
X165400000Y-84650000D03*
D11*
%TO.N,SDataOut*%
X164650000Y-86050000D03*
D10*
%TO.N,VSS*%
X170650000Y-81550000D03*
%TO.N,/RX2-*%
X169900000Y-80850000D03*
%TO.N,/RX2+*%
X169150000Y-82250000D03*
%TO.N,VSS*%
X168400000Y-81550000D03*
%TO.N,/RX0-*%
X167650000Y-80850000D03*
%TO.N,/RX0+*%
X166900000Y-82250000D03*
%TO.N,VSS*%
X166150000Y-81550000D03*
%TO.N,SLoad*%
X165400000Y-80850000D03*
D11*
%TO.N,unconnected-(J1-SB3-PadB1)*%
X164650000Y-82250000D03*
D10*
%TO.N,VSS*%
X170650000Y-77750000D03*
%TO.N,/RX3-*%
X169900000Y-77050000D03*
%TO.N,/RX3+*%
X169150000Y-78450000D03*
%TO.N,VSS*%
X168400000Y-77750000D03*
%TO.N,/RX1-*%
X167650000Y-77050000D03*
%TO.N,/RX1+*%
X166900000Y-78450000D03*
%TO.N,VSS*%
X166150000Y-77750000D03*
%TO.N,SClock*%
X165400000Y-77050000D03*
D11*
%TO.N,unconnected-(J1-SB7-PadA1)*%
X164650000Y-78450000D03*
%TD*%
D12*
%TO.N,N/C*%
%TO.C,J6*%
X166450000Y-48950000D03*
X159149999Y-48950000D03*
D13*
%TO.N,+12V*%
X161300000Y-41629999D03*
%TO.N,+5V*%
X164299999Y-41629999D03*
%TO.N,VSS*%
X161300000Y-44629998D03*
X164299999Y-44629998D03*
%TD*%
D14*
%TO.N,VSS*%
%TO.C,H3*%
X95875000Y-89575000D03*
%TD*%
%TO.N,VSS*%
%TO.C,H1*%
X95800000Y-43000000D03*
%TD*%
%TO.N,VSS*%
%TO.C,H4*%
X222375000Y-89575000D03*
%TD*%
D15*
%TO.N,+3.3V*%
%TO.C,J3*%
X110250000Y-75460000D03*
D16*
%TO.N,SWO*%
X110250000Y-78000000D03*
%TO.N,VSS*%
X110250000Y-80540000D03*
%TD*%
D17*
%TO.N,Net-(J2-Pin_1)*%
%TO.C,J2*%
X106250000Y-86750000D03*
D18*
%TO.N,Net-(J2-Pin_2)*%
X107250000Y-86750000D03*
%TO.N,Net-(J2-Pin_3)*%
X108250000Y-86750000D03*
%TD*%
D14*
%TO.N,VSS*%
%TO.C,H2*%
X222300000Y-43000000D03*
%TD*%
D19*
%TO.N,+5V*%
%TO.C,C8*%
X205332323Y-60000000D03*
D20*
%TO.N,VSS*%
X200332323Y-60000000D03*
%TD*%
D19*
%TO.N,+5V*%
%TO.C,C2*%
X112214646Y-59950000D03*
D20*
%TO.N,VSS*%
X107214646Y-59950000D03*
%TD*%
D19*
%TO.N,+12V*%
%TO.C,C7*%
X205350000Y-48550000D03*
D20*
%TO.N,VSS*%
X200350000Y-48550000D03*
%TD*%
D19*
%TO.N,+12V*%
%TO.C,C4*%
X112232323Y-48500000D03*
D20*
%TO.N,VSS*%
X107232323Y-48500000D03*
%TD*%
D19*
%TO.N,+12V*%
%TO.C,C5*%
X176785354Y-48525000D03*
D20*
%TO.N,VSS*%
X171785354Y-48525000D03*
%TD*%
D19*
%TO.N,+5V*%
%TO.C,C6*%
X176767677Y-59975000D03*
D20*
%TO.N,VSS*%
X171767677Y-59975000D03*
%TD*%
D19*
%TO.N,+12V*%
%TO.C,C3*%
X142850000Y-48550000D03*
D20*
%TO.N,VSS*%
X137850000Y-48550000D03*
%TD*%
D19*
%TO.N,+5V*%
%TO.C,C1*%
X142832323Y-60000000D03*
D20*
%TO.N,VSS*%
X137832323Y-60000000D03*
%TD*%
D21*
%TO.N,VSS*%
X209450000Y-79025000D03*
X209450000Y-78125000D03*
X209475000Y-82175000D03*
X127925000Y-78250000D03*
X127900000Y-75175000D03*
X125075000Y-82425000D03*
X125075000Y-78575000D03*
X183300000Y-82375000D03*
X183300000Y-78650000D03*
X214750000Y-82475000D03*
X214775000Y-78625000D03*
X214225343Y-74030558D03*
X217950343Y-74805558D03*
X214300343Y-71580558D03*
X214300343Y-69955558D03*
X187100000Y-74775000D03*
X183375000Y-74000000D03*
X183450000Y-71550000D03*
X183450000Y-69925000D03*
X121055000Y-69890000D03*
X121080000Y-72140000D03*
X121805000Y-74815000D03*
X121005000Y-74065000D03*
X214850000Y-62100000D03*
X214850000Y-64625000D03*
X214850000Y-63350000D03*
X183725000Y-63375000D03*
X183725000Y-62125000D03*
X183725000Y-64650000D03*
X214775000Y-54440000D03*
X214775000Y-56965000D03*
%TO.N,+12V*%
X214800000Y-50640000D03*
X214800000Y-51915000D03*
X214800000Y-53140000D03*
%TO.N,VSS*%
X214775000Y-55790000D03*
X183725000Y-56970000D03*
%TO.N,+12V*%
X183750000Y-50645000D03*
X183750000Y-51920000D03*
X183750000Y-53145000D03*
%TO.N,VSS*%
X183725000Y-54445000D03*
X183725000Y-55795000D03*
%TO.N,+12V*%
X152700000Y-50650000D03*
X152700000Y-51925000D03*
X152700000Y-53150000D03*
%TO.N,VSS*%
X152675000Y-54450000D03*
X152675000Y-55800000D03*
X152675000Y-56975000D03*
X152675000Y-62100000D03*
X152675000Y-63350000D03*
X152675000Y-64625000D03*
X152025000Y-72150000D03*
X152000000Y-69900000D03*
X151950000Y-74075000D03*
X152775000Y-82425000D03*
X152750000Y-74825000D03*
X152750000Y-78600000D03*
%TO.N,/RX0-*%
X127900000Y-77190000D03*
%TO.N,/RX0+*%
X127900000Y-76190000D03*
%TO.N,VSS*%
X209450000Y-75175000D03*
%TO.N,/TX3+*%
X209450000Y-81000000D03*
%TO.N,/TX3-*%
X209450000Y-80000000D03*
%TO.N,/RX3-*%
X209475000Y-77190000D03*
%TO.N,/RX3+*%
X209475000Y-76190000D03*
D22*
%TO.N,+12V*%
X121800000Y-53275000D03*
D21*
%TO.N,VSS*%
X121770501Y-55710000D03*
X121770501Y-54510000D03*
D22*
%TO.N,+12V*%
X121800000Y-51975000D03*
X121800000Y-50675000D03*
D21*
%TO.N,VSS*%
X121770501Y-63360000D03*
X121770501Y-62160000D03*
%TO.N,+3.3V*%
X204800000Y-69000000D03*
X102250000Y-68250000D03*
X221250000Y-65500000D03*
X111500000Y-69000000D03*
X141000000Y-69000000D03*
X161000000Y-69000000D03*
X192000000Y-69000000D03*
%TO.N,VSS*%
X131000000Y-59800000D03*
X126600000Y-53950000D03*
X121770501Y-57010000D03*
X121770501Y-64660000D03*
X102282136Y-82535304D03*
X210187750Y-74600000D03*
%TO.N,SClock*%
X105000000Y-80750000D03*
%TO.N,SDataOut*%
X163375000Y-91200000D03*
X163475000Y-86225000D03*
%TO.N,SLoad*%
X108400000Y-81125000D03*
%TO.N,Net-(D1-K)*%
X126750000Y-64500000D03*
X108750000Y-65500000D03*
%TO.N,Net-(D2-K)*%
X108651836Y-66657897D03*
X158250000Y-64750000D03*
%TO.N,Net-(D3-K)*%
X109417563Y-67376345D03*
X189000000Y-64750000D03*
%TO.N,Net-(D4-K)*%
X110000000Y-68250000D03*
X220000000Y-64500000D03*
%TO.N,Net-(J2-Pin_1)*%
X100250000Y-85750000D03*
%TD*%
%TA.AperFunction,Conductor*%
%TO.N,VSS*%
G36*
X221302562Y-39000605D02*
G01*
X221749036Y-39019072D01*
X221759209Y-39019915D01*
X222200114Y-39074873D01*
X222210194Y-39076555D01*
X222645042Y-39167733D01*
X222654950Y-39170242D01*
X223080786Y-39297019D01*
X223090454Y-39300338D01*
X223402418Y-39422068D01*
X223504339Y-39461838D01*
X223513724Y-39465954D01*
X223912869Y-39661083D01*
X223921877Y-39665958D01*
X224303544Y-39893383D01*
X224312123Y-39898989D01*
X224673693Y-40157144D01*
X224681770Y-40163431D01*
X224930167Y-40373812D01*
X225020796Y-40450571D01*
X225028336Y-40457512D01*
X225342487Y-40771663D01*
X225349428Y-40779203D01*
X225636564Y-41118224D01*
X225642859Y-41126312D01*
X225901010Y-41487876D01*
X225906616Y-41496455D01*
X226134041Y-41878122D01*
X226138919Y-41887136D01*
X226334045Y-42286275D01*
X226338161Y-42295660D01*
X226499656Y-42709533D01*
X226502984Y-42719226D01*
X226629753Y-43145036D01*
X226632269Y-43154971D01*
X226723441Y-43589791D01*
X226725128Y-43599900D01*
X226780082Y-44040769D01*
X226780928Y-44050983D01*
X226799388Y-44497326D01*
X226799494Y-44502639D01*
X226731971Y-88832686D01*
X226731971Y-88832691D01*
X226731957Y-88841096D01*
X226731858Y-88841470D01*
X226731858Y-88905013D01*
X226731853Y-88905027D01*
X226731752Y-88909943D01*
X226713290Y-89356381D01*
X226712444Y-89366594D01*
X226657492Y-89807464D01*
X226655805Y-89817573D01*
X226564635Y-90252394D01*
X226562119Y-90262329D01*
X226435353Y-90688136D01*
X226432025Y-90697830D01*
X226270531Y-91111707D01*
X226266415Y-91121092D01*
X226071286Y-91520237D01*
X226066408Y-91529250D01*
X225838991Y-91910908D01*
X225833385Y-91919488D01*
X225575230Y-92281057D01*
X225568936Y-92289145D01*
X225281800Y-92628167D01*
X225274858Y-92635707D01*
X224960707Y-92949858D01*
X224953167Y-92956800D01*
X224614145Y-93243936D01*
X224606057Y-93250230D01*
X224244488Y-93508385D01*
X224235908Y-93513991D01*
X223854250Y-93741408D01*
X223845237Y-93746286D01*
X223446092Y-93941415D01*
X223436707Y-93945531D01*
X223022830Y-94107025D01*
X223013136Y-94110353D01*
X222587329Y-94237119D01*
X222577394Y-94239635D01*
X222142573Y-94330805D01*
X222132464Y-94332492D01*
X221691594Y-94387444D01*
X221681380Y-94388290D01*
X221234925Y-94406752D01*
X221229804Y-94406858D01*
X221196968Y-94406858D01*
X221166470Y-94406858D01*
X221166466Y-94406858D01*
X221158862Y-94406859D01*
X221158861Y-94406858D01*
X221158860Y-94406859D01*
X97234925Y-94406859D01*
X97229800Y-94406753D01*
X96783350Y-94388284D01*
X96773136Y-94387438D01*
X96332268Y-94332481D01*
X96322160Y-94330794D01*
X95887348Y-94239621D01*
X95877412Y-94237105D01*
X95451604Y-94110333D01*
X95441911Y-94107005D01*
X95028032Y-93945506D01*
X95018647Y-93941389D01*
X94619523Y-93746265D01*
X94610510Y-93741387D01*
X94228856Y-93513967D01*
X94220276Y-93508362D01*
X93858744Y-93250230D01*
X93858706Y-93250203D01*
X93850620Y-93243909D01*
X93511604Y-92956773D01*
X93504064Y-92949832D01*
X93189912Y-92635676D01*
X93182971Y-92628135D01*
X92895850Y-92289126D01*
X92889555Y-92281039D01*
X92631394Y-91919457D01*
X92625789Y-91910877D01*
X92553945Y-91790307D01*
X92398371Y-91529216D01*
X92393501Y-91520216D01*
X92217248Y-91159676D01*
X92217248Y-91159675D01*
X92198380Y-91121081D01*
X92194262Y-91111694D01*
X92194110Y-91111304D01*
X162474500Y-91111304D01*
X162474500Y-91288695D01*
X162509103Y-91462658D01*
X162509106Y-91462667D01*
X162576983Y-91626540D01*
X162576990Y-91626553D01*
X162675535Y-91774034D01*
X162675538Y-91774038D01*
X162800961Y-91899461D01*
X162800965Y-91899464D01*
X162948446Y-91998009D01*
X162948459Y-91998016D01*
X163071363Y-92048923D01*
X163112334Y-92065894D01*
X163112336Y-92065894D01*
X163112341Y-92065896D01*
X163286304Y-92100499D01*
X163286307Y-92100500D01*
X163286309Y-92100500D01*
X163463693Y-92100500D01*
X163463694Y-92100499D01*
X163521682Y-92088964D01*
X163637658Y-92065896D01*
X163637661Y-92065894D01*
X163637666Y-92065894D01*
X163801547Y-91998013D01*
X163949035Y-91899464D01*
X164074464Y-91774035D01*
X164173013Y-91626547D01*
X164240894Y-91462666D01*
X164275500Y-91288691D01*
X164275500Y-91111309D01*
X164275500Y-91111306D01*
X164275499Y-91111304D01*
X164240896Y-90937341D01*
X164240894Y-90937336D01*
X164240894Y-90937334D01*
X164234521Y-90921949D01*
X164227053Y-90852482D01*
X164258328Y-90790003D01*
X164318417Y-90754351D01*
X164349076Y-90750499D01*
X165097872Y-90750499D01*
X165157483Y-90744091D01*
X165292331Y-90693796D01*
X165407546Y-90607546D01*
X165493796Y-90492331D01*
X165544091Y-90357483D01*
X165550500Y-90297873D01*
X165550499Y-89761304D01*
X165999500Y-89761304D01*
X165999500Y-89938695D01*
X166034103Y-90112658D01*
X166034106Y-90112667D01*
X166101983Y-90276540D01*
X166101990Y-90276553D01*
X166200535Y-90424034D01*
X166200538Y-90424038D01*
X166325961Y-90549461D01*
X166325965Y-90549464D01*
X166473446Y-90648009D01*
X166473459Y-90648016D01*
X166593668Y-90697807D01*
X166637334Y-90715894D01*
X166637336Y-90715894D01*
X166637341Y-90715896D01*
X166811304Y-90750499D01*
X166811307Y-90750500D01*
X166811309Y-90750500D01*
X166988693Y-90750500D01*
X166988694Y-90750499D01*
X167046682Y-90738964D01*
X167162658Y-90715896D01*
X167162661Y-90715894D01*
X167162666Y-90715894D01*
X167326547Y-90648013D01*
X167474035Y-90549464D01*
X167599464Y-90424035D01*
X167698013Y-90276547D01*
X167765894Y-90112666D01*
X167800500Y-89938691D01*
X167800500Y-89761309D01*
X167800500Y-89761306D01*
X167800499Y-89761304D01*
X168249500Y-89761304D01*
X168249500Y-89938695D01*
X168284103Y-90112658D01*
X168284106Y-90112667D01*
X168351983Y-90276540D01*
X168351990Y-90276553D01*
X168450535Y-90424034D01*
X168450538Y-90424038D01*
X168575961Y-90549461D01*
X168575965Y-90549464D01*
X168723446Y-90648009D01*
X168723459Y-90648016D01*
X168843668Y-90697807D01*
X168887334Y-90715894D01*
X168887336Y-90715894D01*
X168887341Y-90715896D01*
X169061304Y-90750499D01*
X169061307Y-90750500D01*
X169061309Y-90750500D01*
X169238693Y-90750500D01*
X169238694Y-90750499D01*
X169296682Y-90738964D01*
X169412658Y-90715896D01*
X169412661Y-90715894D01*
X169412666Y-90715894D01*
X169576547Y-90648013D01*
X169724035Y-90549464D01*
X169849464Y-90424035D01*
X169948013Y-90276547D01*
X170015894Y-90112666D01*
X170050500Y-89938691D01*
X170050500Y-89761309D01*
X170050500Y-89761306D01*
X170050499Y-89761304D01*
X170015896Y-89587341D01*
X170015893Y-89587332D01*
X169981012Y-89503121D01*
X169973543Y-89433652D01*
X170004818Y-89371173D01*
X170064907Y-89335521D01*
X170071382Y-89334052D01*
X170162658Y-89315896D01*
X170162661Y-89315894D01*
X170162666Y-89315894D01*
X170326547Y-89248013D01*
X170474035Y-89149464D01*
X170581753Y-89041746D01*
X172274500Y-89041746D01*
X172274500Y-89258254D01*
X172283630Y-89315896D01*
X172308370Y-89472098D01*
X172375272Y-89678006D01*
X172375273Y-89678009D01*
X172473567Y-89870919D01*
X172600828Y-90046078D01*
X172753922Y-90199172D01*
X172929081Y-90326433D01*
X172990018Y-90357482D01*
X173121990Y-90424726D01*
X173121993Y-90424727D01*
X173224947Y-90458178D01*
X173327903Y-90491630D01*
X173541746Y-90525500D01*
X173541747Y-90525500D01*
X173758253Y-90525500D01*
X173758254Y-90525500D01*
X173972097Y-90491630D01*
X174178009Y-90424726D01*
X174370919Y-90326433D01*
X174546078Y-90199172D01*
X174699172Y-90046078D01*
X174826433Y-89870919D01*
X174924726Y-89678009D01*
X174991630Y-89472097D01*
X175025500Y-89258254D01*
X175025500Y-89041746D01*
X174991630Y-88827903D01*
X174924726Y-88621991D01*
X174924726Y-88621990D01*
X174826432Y-88429080D01*
X174699172Y-88253922D01*
X174546078Y-88100828D01*
X174370919Y-87973567D01*
X174178009Y-87875273D01*
X174178006Y-87875272D01*
X173972098Y-87808370D01*
X173865175Y-87791435D01*
X173758254Y-87774500D01*
X173541746Y-87774500D01*
X173470465Y-87785790D01*
X173327901Y-87808370D01*
X173121993Y-87875272D01*
X173121990Y-87875273D01*
X172929080Y-87973567D01*
X172860419Y-88023453D01*
X172753922Y-88100828D01*
X172753920Y-88100830D01*
X172753919Y-88100830D01*
X172600830Y-88253919D01*
X172600830Y-88253920D01*
X172600828Y-88253922D01*
X172546174Y-88329145D01*
X172473567Y-88429080D01*
X172375273Y-88621990D01*
X172375272Y-88621993D01*
X172308370Y-88827901D01*
X172286183Y-88967982D01*
X172274500Y-89041746D01*
X170581753Y-89041746D01*
X170599464Y-89024035D01*
X170698013Y-88876547D01*
X170765894Y-88712666D01*
X170783931Y-88621991D01*
X170800499Y-88538695D01*
X170800500Y-88538693D01*
X170800500Y-88361306D01*
X170800499Y-88361304D01*
X170765896Y-88187341D01*
X170765893Y-88187332D01*
X170698016Y-88023459D01*
X170698009Y-88023446D01*
X170599464Y-87875965D01*
X170599461Y-87875961D01*
X170474038Y-87750538D01*
X170474034Y-87750535D01*
X170326553Y-87651990D01*
X170326540Y-87651983D01*
X170162667Y-87584106D01*
X170162658Y-87584103D01*
X169988694Y-87549500D01*
X169988691Y-87549500D01*
X169811309Y-87549500D01*
X169811306Y-87549500D01*
X169637341Y-87584103D01*
X169637332Y-87584106D01*
X169473459Y-87651983D01*
X169473446Y-87651990D01*
X169325965Y-87750535D01*
X169325961Y-87750538D01*
X169200538Y-87875961D01*
X169200535Y-87875965D01*
X169101990Y-88023446D01*
X169101983Y-88023459D01*
X169034106Y-88187332D01*
X169034103Y-88187341D01*
X168999500Y-88361304D01*
X168999500Y-88538695D01*
X169034103Y-88712658D01*
X169034106Y-88712667D01*
X169068987Y-88796878D01*
X169076456Y-88866348D01*
X169045180Y-88928827D01*
X168985091Y-88964479D01*
X168978619Y-88965947D01*
X168887338Y-88984104D01*
X168887332Y-88984106D01*
X168723459Y-89051983D01*
X168723446Y-89051990D01*
X168575965Y-89150535D01*
X168575961Y-89150538D01*
X168450538Y-89275961D01*
X168450535Y-89275965D01*
X168351990Y-89423446D01*
X168351983Y-89423459D01*
X168284106Y-89587332D01*
X168284103Y-89587341D01*
X168249500Y-89761304D01*
X167800499Y-89761304D01*
X167765896Y-89587341D01*
X167765893Y-89587332D01*
X167731012Y-89503121D01*
X167723543Y-89433652D01*
X167754818Y-89371173D01*
X167814907Y-89335521D01*
X167821382Y-89334052D01*
X167912658Y-89315896D01*
X167912661Y-89315894D01*
X167912666Y-89315894D01*
X168076547Y-89248013D01*
X168224035Y-89149464D01*
X168349464Y-89024035D01*
X168448013Y-88876547D01*
X168515894Y-88712666D01*
X168533931Y-88621991D01*
X168550499Y-88538695D01*
X168550500Y-88538693D01*
X168550500Y-88361306D01*
X168550499Y-88361304D01*
X168515896Y-88187341D01*
X168515893Y-88187332D01*
X168448016Y-88023459D01*
X168448009Y-88023446D01*
X168349464Y-87875965D01*
X168349461Y-87875961D01*
X168224038Y-87750538D01*
X168224034Y-87750535D01*
X168076553Y-87651990D01*
X168076540Y-87651983D01*
X167912667Y-87584106D01*
X167912658Y-87584103D01*
X167738694Y-87549500D01*
X167738691Y-87549500D01*
X167561309Y-87549500D01*
X167561306Y-87549500D01*
X167387341Y-87584103D01*
X167387332Y-87584106D01*
X167223459Y-87651983D01*
X167223446Y-87651990D01*
X167075965Y-87750535D01*
X167075961Y-87750538D01*
X166950538Y-87875961D01*
X166950535Y-87875965D01*
X166851990Y-88023446D01*
X166851983Y-88023459D01*
X166784106Y-88187332D01*
X166784103Y-88187341D01*
X166749500Y-88361304D01*
X166749500Y-88538695D01*
X166784103Y-88712658D01*
X166784106Y-88712667D01*
X166818987Y-88796878D01*
X166826456Y-88866348D01*
X166795180Y-88928827D01*
X166735091Y-88964479D01*
X166728619Y-88965947D01*
X166637338Y-88984104D01*
X166637332Y-88984106D01*
X166473459Y-89051983D01*
X166473446Y-89051990D01*
X166325965Y-89150535D01*
X166325961Y-89150538D01*
X166200538Y-89275961D01*
X166200535Y-89275965D01*
X166101990Y-89423446D01*
X166101983Y-89423459D01*
X166034106Y-89587332D01*
X166034103Y-89587341D01*
X165999500Y-89761304D01*
X165550499Y-89761304D01*
X165550499Y-89439968D01*
X165570184Y-89372930D01*
X165622988Y-89327175D01*
X165650307Y-89318352D01*
X165662666Y-89315894D01*
X165826547Y-89248013D01*
X165974035Y-89149464D01*
X166099464Y-89024035D01*
X166198013Y-88876547D01*
X166265894Y-88712666D01*
X166283931Y-88621991D01*
X166300499Y-88538695D01*
X166300500Y-88538693D01*
X166300500Y-88361306D01*
X166300499Y-88361304D01*
X166265896Y-88187341D01*
X166265893Y-88187332D01*
X166198016Y-88023459D01*
X166198009Y-88023446D01*
X166099464Y-87875965D01*
X166099461Y-87875961D01*
X165974038Y-87750538D01*
X165974034Y-87750535D01*
X165826553Y-87651990D01*
X165826540Y-87651983D01*
X165662667Y-87584106D01*
X165662658Y-87584103D01*
X165488694Y-87549500D01*
X165488691Y-87549500D01*
X165311309Y-87549500D01*
X165311306Y-87549500D01*
X165137341Y-87584103D01*
X165137332Y-87584106D01*
X164973459Y-87651983D01*
X164973446Y-87651990D01*
X164825965Y-87750535D01*
X164825961Y-87750538D01*
X164700538Y-87875961D01*
X164700535Y-87875965D01*
X164601990Y-88023446D01*
X164601983Y-88023459D01*
X164534106Y-88187332D01*
X164534103Y-88187341D01*
X164499500Y-88361304D01*
X164499500Y-88538695D01*
X164534103Y-88712658D01*
X164534105Y-88712662D01*
X164534106Y-88712666D01*
X164554096Y-88760928D01*
X164561188Y-88778049D01*
X164568655Y-88847519D01*
X164537380Y-88909997D01*
X164477290Y-88945649D01*
X164446627Y-88949500D01*
X164202130Y-88949500D01*
X164202123Y-88949501D01*
X164142516Y-88955908D01*
X164007671Y-89006202D01*
X164007664Y-89006206D01*
X163892455Y-89092452D01*
X163892452Y-89092455D01*
X163806206Y-89207664D01*
X163806202Y-89207671D01*
X163755908Y-89342517D01*
X163749501Y-89402116D01*
X163749500Y-89402135D01*
X163749500Y-90205256D01*
X163729815Y-90272295D01*
X163677011Y-90318050D01*
X163607853Y-90327994D01*
X163601309Y-90326873D01*
X163463695Y-90299500D01*
X163463691Y-90299500D01*
X163286309Y-90299500D01*
X163286306Y-90299500D01*
X163112341Y-90334103D01*
X163112332Y-90334106D01*
X162948459Y-90401983D01*
X162948446Y-90401990D01*
X162800965Y-90500535D01*
X162800961Y-90500538D01*
X162675538Y-90625961D01*
X162675535Y-90625965D01*
X162576990Y-90773446D01*
X162576983Y-90773459D01*
X162509106Y-90937332D01*
X162509103Y-90937341D01*
X162474500Y-91111304D01*
X92194110Y-91111304D01*
X92126228Y-90937334D01*
X92032761Y-90697794D01*
X92029444Y-90688129D01*
X91902672Y-90262299D01*
X91900164Y-90252394D01*
X91808989Y-89817547D01*
X91807308Y-89807475D01*
X91752352Y-89366567D01*
X91751509Y-89356398D01*
X91738497Y-89041746D01*
X160274500Y-89041746D01*
X160274500Y-89258254D01*
X160283630Y-89315896D01*
X160308370Y-89472098D01*
X160375272Y-89678006D01*
X160375273Y-89678009D01*
X160473567Y-89870919D01*
X160600828Y-90046078D01*
X160753922Y-90199172D01*
X160929081Y-90326433D01*
X160990018Y-90357482D01*
X161121990Y-90424726D01*
X161121993Y-90424727D01*
X161224947Y-90458178D01*
X161327903Y-90491630D01*
X161541746Y-90525500D01*
X161541747Y-90525500D01*
X161758253Y-90525500D01*
X161758254Y-90525500D01*
X161972097Y-90491630D01*
X162178009Y-90424726D01*
X162370919Y-90326433D01*
X162546078Y-90199172D01*
X162699172Y-90046078D01*
X162826433Y-89870919D01*
X162924726Y-89678009D01*
X162991630Y-89472097D01*
X163025500Y-89258254D01*
X163025500Y-89041746D01*
X162991630Y-88827903D01*
X162924726Y-88621991D01*
X162924726Y-88621990D01*
X162826432Y-88429080D01*
X162699172Y-88253922D01*
X162546078Y-88100828D01*
X162370919Y-87973567D01*
X162178009Y-87875273D01*
X162178006Y-87875272D01*
X161972098Y-87808370D01*
X161865175Y-87791435D01*
X161758254Y-87774500D01*
X161541746Y-87774500D01*
X161470465Y-87785790D01*
X161327901Y-87808370D01*
X161121993Y-87875272D01*
X161121990Y-87875273D01*
X160929080Y-87973567D01*
X160860419Y-88023453D01*
X160753922Y-88100828D01*
X160753920Y-88100830D01*
X160753919Y-88100830D01*
X160600830Y-88253919D01*
X160600830Y-88253920D01*
X160600828Y-88253922D01*
X160546174Y-88329145D01*
X160473567Y-88429080D01*
X160375273Y-88621990D01*
X160375272Y-88621993D01*
X160308370Y-88827901D01*
X160286183Y-88967982D01*
X160274500Y-89041746D01*
X91738497Y-89041746D01*
X91732973Y-88908153D01*
X91732868Y-88902891D01*
X91737697Y-85661304D01*
X99349500Y-85661304D01*
X99349500Y-85838695D01*
X99384103Y-86012658D01*
X99384106Y-86012667D01*
X99451983Y-86176540D01*
X99451990Y-86176553D01*
X99550535Y-86324034D01*
X99550538Y-86324038D01*
X99675961Y-86449461D01*
X99675965Y-86449464D01*
X99823446Y-86548009D01*
X99823459Y-86548016D01*
X99946363Y-86598923D01*
X99987334Y-86615894D01*
X99987336Y-86615894D01*
X99987341Y-86615896D01*
X100161304Y-86650499D01*
X100161307Y-86650500D01*
X100161309Y-86650500D01*
X100338693Y-86650500D01*
X100338694Y-86650499D01*
X100396682Y-86638964D01*
X100512658Y-86615896D01*
X100512661Y-86615894D01*
X100512666Y-86615894D01*
X100676547Y-86548013D01*
X100824035Y-86449464D01*
X100949464Y-86324035D01*
X100980802Y-86277135D01*
X105324500Y-86277135D01*
X105324500Y-87222870D01*
X105324501Y-87222876D01*
X105330908Y-87282483D01*
X105381202Y-87417328D01*
X105381206Y-87417335D01*
X105467452Y-87532544D01*
X105467455Y-87532547D01*
X105582664Y-87618793D01*
X105582671Y-87618797D01*
X105717517Y-87669091D01*
X105717516Y-87669091D01*
X105724444Y-87669835D01*
X105777127Y-87675500D01*
X106722872Y-87675499D01*
X106782483Y-87669091D01*
X106877768Y-87633551D01*
X106947457Y-87628568D01*
X106968551Y-87635173D01*
X106980042Y-87639933D01*
X106980044Y-87639933D01*
X106980046Y-87639934D01*
X107158843Y-87675500D01*
X107158846Y-87675500D01*
X107341156Y-87675500D01*
X107461445Y-87651572D01*
X107519958Y-87639933D01*
X107688389Y-87570167D01*
X107688394Y-87570163D01*
X107691541Y-87568482D01*
X107693386Y-87568097D01*
X107694018Y-87567836D01*
X107694067Y-87567955D01*
X107759943Y-87554236D01*
X107808459Y-87568482D01*
X107811615Y-87570169D01*
X107929005Y-87618793D01*
X107980042Y-87639933D01*
X107980046Y-87639933D01*
X107980047Y-87639934D01*
X108158843Y-87675500D01*
X108158846Y-87675500D01*
X108341156Y-87675500D01*
X108461445Y-87651572D01*
X108519958Y-87639933D01*
X108654744Y-87584103D01*
X108688387Y-87570168D01*
X108688391Y-87570166D01*
X108763672Y-87519864D01*
X108839972Y-87468883D01*
X108968883Y-87339972D01*
X109070167Y-87188389D01*
X109139933Y-87019958D01*
X109161136Y-86913364D01*
X109175500Y-86841156D01*
X109175500Y-86658843D01*
X109139934Y-86480047D01*
X109139933Y-86480046D01*
X109139933Y-86480042D01*
X109138485Y-86476547D01*
X109070168Y-86311612D01*
X109070166Y-86311608D01*
X108968886Y-86160032D01*
X108968880Y-86160024D01*
X108839975Y-86031119D01*
X108839967Y-86031113D01*
X108688391Y-85929833D01*
X108688387Y-85929831D01*
X108519962Y-85860068D01*
X108519952Y-85860065D01*
X108341156Y-85824500D01*
X108341154Y-85824500D01*
X108158846Y-85824500D01*
X108158844Y-85824500D01*
X107980047Y-85860065D01*
X107980041Y-85860067D01*
X107811605Y-85929835D01*
X107808444Y-85931525D01*
X107806600Y-85931908D01*
X107805984Y-85932164D01*
X107805935Y-85932047D01*
X107740040Y-85945761D01*
X107691556Y-85931525D01*
X107688394Y-85929835D01*
X107519958Y-85860067D01*
X107519952Y-85860065D01*
X107341156Y-85824500D01*
X107341154Y-85824500D01*
X107158846Y-85824500D01*
X107158844Y-85824500D01*
X106980047Y-85860065D01*
X106980034Y-85860069D01*
X106968545Y-85864828D01*
X106899076Y-85872294D01*
X106877765Y-85866447D01*
X106873424Y-85864828D01*
X106842604Y-85853332D01*
X106782481Y-85830908D01*
X106782483Y-85830908D01*
X106722883Y-85824501D01*
X106722881Y-85824500D01*
X106722873Y-85824500D01*
X106722864Y-85824500D01*
X105777129Y-85824500D01*
X105777123Y-85824501D01*
X105717516Y-85830908D01*
X105582671Y-85881202D01*
X105582664Y-85881206D01*
X105467455Y-85967452D01*
X105467452Y-85967455D01*
X105381206Y-86082664D01*
X105381202Y-86082671D01*
X105330908Y-86217517D01*
X105324501Y-86277116D01*
X105324500Y-86277135D01*
X100980802Y-86277135D01*
X101020638Y-86217517D01*
X101029059Y-86204915D01*
X101048010Y-86176551D01*
X101048013Y-86176547D01*
X101115894Y-86012666D01*
X101124888Y-85967454D01*
X101145301Y-85864828D01*
X101150500Y-85838691D01*
X101150500Y-85661309D01*
X101150500Y-85661306D01*
X101150499Y-85661304D01*
X101115896Y-85487341D01*
X101115893Y-85487332D01*
X101062186Y-85357669D01*
X101048016Y-85323459D01*
X101048009Y-85323446D01*
X101043237Y-85316304D01*
X120799500Y-85316304D01*
X120799500Y-85493695D01*
X120834103Y-85667658D01*
X120834106Y-85667667D01*
X120901983Y-85831540D01*
X120901990Y-85831553D01*
X121000535Y-85979034D01*
X121000538Y-85979038D01*
X121125961Y-86104461D01*
X121125965Y-86104464D01*
X121273446Y-86203009D01*
X121273459Y-86203016D01*
X121396363Y-86253923D01*
X121437334Y-86270894D01*
X121437336Y-86270894D01*
X121437341Y-86270896D01*
X121611304Y-86305499D01*
X121611307Y-86305500D01*
X121611309Y-86305500D01*
X121788693Y-86305500D01*
X121788694Y-86305499D01*
X121846682Y-86293964D01*
X121962658Y-86270896D01*
X121962661Y-86270894D01*
X121962666Y-86270894D01*
X122126547Y-86203013D01*
X122274035Y-86104464D01*
X122399464Y-85979035D01*
X122498013Y-85831547D01*
X122565894Y-85667666D01*
X122567159Y-85661309D01*
X122592472Y-85534052D01*
X122600500Y-85493691D01*
X122600500Y-85316309D01*
X122600500Y-85316306D01*
X122600499Y-85316304D01*
X151799500Y-85316304D01*
X151799500Y-85493695D01*
X151834103Y-85667658D01*
X151834106Y-85667667D01*
X151901983Y-85831540D01*
X151901990Y-85831553D01*
X152000535Y-85979034D01*
X152000538Y-85979038D01*
X152125961Y-86104461D01*
X152125965Y-86104464D01*
X152273446Y-86203009D01*
X152273459Y-86203016D01*
X152396363Y-86253923D01*
X152437334Y-86270894D01*
X152437336Y-86270894D01*
X152437341Y-86270896D01*
X152611304Y-86305499D01*
X152611307Y-86305500D01*
X152611309Y-86305500D01*
X152788693Y-86305500D01*
X152788694Y-86305499D01*
X152846682Y-86293964D01*
X152962658Y-86270896D01*
X152962661Y-86270894D01*
X152962666Y-86270894D01*
X153126547Y-86203013D01*
X153226383Y-86136304D01*
X162574500Y-86136304D01*
X162574500Y-86313695D01*
X162609103Y-86487658D01*
X162609106Y-86487667D01*
X162676983Y-86651540D01*
X162676990Y-86651553D01*
X162775535Y-86799034D01*
X162775538Y-86799038D01*
X162900961Y-86924461D01*
X162900965Y-86924464D01*
X163048446Y-87023009D01*
X163048459Y-87023016D01*
X163171363Y-87073923D01*
X163212334Y-87090894D01*
X163212336Y-87090894D01*
X163212341Y-87090896D01*
X163386304Y-87125499D01*
X163386307Y-87125500D01*
X163386309Y-87125500D01*
X163563693Y-87125500D01*
X163563694Y-87125499D01*
X163621682Y-87113964D01*
X163737658Y-87090896D01*
X163737661Y-87090894D01*
X163737666Y-87090894D01*
X163901547Y-87023013D01*
X164010907Y-86949940D01*
X164077582Y-86929062D01*
X164123131Y-86936860D01*
X164142517Y-86944091D01*
X164202127Y-86950500D01*
X165097872Y-86950499D01*
X165157483Y-86944091D01*
X165292331Y-86893796D01*
X165407546Y-86807546D01*
X165493796Y-86692331D01*
X165544091Y-86557483D01*
X165550500Y-86497873D01*
X165550499Y-85961304D01*
X165999500Y-85961304D01*
X165999500Y-86138695D01*
X166034103Y-86312658D01*
X166034106Y-86312667D01*
X166101983Y-86476540D01*
X166101990Y-86476553D01*
X166200535Y-86624034D01*
X166200538Y-86624038D01*
X166325961Y-86749461D01*
X166325965Y-86749464D01*
X166473446Y-86848009D01*
X166473459Y-86848016D01*
X166596363Y-86898923D01*
X166637334Y-86915894D01*
X166637336Y-86915894D01*
X166637341Y-86915896D01*
X166811304Y-86950499D01*
X166811307Y-86950500D01*
X166811309Y-86950500D01*
X166988693Y-86950500D01*
X166988694Y-86950499D01*
X167046682Y-86938964D01*
X167162658Y-86915896D01*
X167162661Y-86915894D01*
X167162666Y-86915894D01*
X167326547Y-86848013D01*
X167474035Y-86749464D01*
X167599464Y-86624035D01*
X167698013Y-86476547D01*
X167765894Y-86312666D01*
X167766105Y-86311608D01*
X167796256Y-86160028D01*
X167800500Y-86138691D01*
X167800500Y-85961309D01*
X167800500Y-85961306D01*
X167800499Y-85961304D01*
X168249500Y-85961304D01*
X168249500Y-86138695D01*
X168284103Y-86312658D01*
X168284106Y-86312667D01*
X168351983Y-86476540D01*
X168351990Y-86476553D01*
X168450535Y-86624034D01*
X168450538Y-86624038D01*
X168575961Y-86749461D01*
X168575965Y-86749464D01*
X168723446Y-86848009D01*
X168723459Y-86848016D01*
X168846363Y-86898923D01*
X168887334Y-86915894D01*
X168887336Y-86915894D01*
X168887341Y-86915896D01*
X169061304Y-86950499D01*
X169061307Y-86950500D01*
X169061309Y-86950500D01*
X169238693Y-86950500D01*
X169238694Y-86950499D01*
X169296682Y-86938964D01*
X169412658Y-86915896D01*
X169412661Y-86915894D01*
X169412666Y-86915894D01*
X169576547Y-86848013D01*
X169724035Y-86749464D01*
X169849464Y-86624035D01*
X169948013Y-86476547D01*
X170015894Y-86312666D01*
X170016105Y-86311608D01*
X170046256Y-86160028D01*
X170050500Y-86138691D01*
X170050500Y-85961309D01*
X170050500Y-85961306D01*
X170050499Y-85961304D01*
X170015896Y-85787341D01*
X170015893Y-85787332D01*
X169981012Y-85703121D01*
X169973543Y-85633652D01*
X170004818Y-85571173D01*
X170064907Y-85535521D01*
X170071382Y-85534052D01*
X170162658Y-85515896D01*
X170162661Y-85515894D01*
X170162666Y-85515894D01*
X170326547Y-85448013D01*
X170474035Y-85349464D01*
X170507195Y-85316304D01*
X182799500Y-85316304D01*
X182799500Y-85493695D01*
X182834103Y-85667658D01*
X182834106Y-85667667D01*
X182901983Y-85831540D01*
X182901990Y-85831553D01*
X183000535Y-85979034D01*
X183000538Y-85979038D01*
X183125961Y-86104461D01*
X183125965Y-86104464D01*
X183273446Y-86203009D01*
X183273459Y-86203016D01*
X183396363Y-86253923D01*
X183437334Y-86270894D01*
X183437336Y-86270894D01*
X183437341Y-86270896D01*
X183611304Y-86305499D01*
X183611307Y-86305500D01*
X183611309Y-86305500D01*
X183788693Y-86305500D01*
X183788694Y-86305499D01*
X183846682Y-86293964D01*
X183962658Y-86270896D01*
X183962661Y-86270894D01*
X183962666Y-86270894D01*
X184126547Y-86203013D01*
X184274035Y-86104464D01*
X184399464Y-85979035D01*
X184498013Y-85831547D01*
X184565894Y-85667666D01*
X184567159Y-85661309D01*
X184592472Y-85534052D01*
X184600500Y-85493691D01*
X184600500Y-85316309D01*
X184600500Y-85316306D01*
X184600499Y-85316304D01*
X213799500Y-85316304D01*
X213799500Y-85493695D01*
X213834103Y-85667658D01*
X213834106Y-85667667D01*
X213901983Y-85831540D01*
X213901990Y-85831553D01*
X214000535Y-85979034D01*
X214000538Y-85979038D01*
X214125961Y-86104461D01*
X214125965Y-86104464D01*
X214273446Y-86203009D01*
X214273459Y-86203016D01*
X214396363Y-86253923D01*
X214437334Y-86270894D01*
X214437336Y-86270894D01*
X214437341Y-86270896D01*
X214611304Y-86305499D01*
X214611307Y-86305500D01*
X214611309Y-86305500D01*
X214788693Y-86305500D01*
X214788694Y-86305499D01*
X214846682Y-86293964D01*
X214962658Y-86270896D01*
X214962661Y-86270894D01*
X214962666Y-86270894D01*
X215126547Y-86203013D01*
X215274035Y-86104464D01*
X215399464Y-85979035D01*
X215498013Y-85831547D01*
X215565894Y-85667666D01*
X215567159Y-85661309D01*
X215592472Y-85534052D01*
X215600500Y-85493691D01*
X215600500Y-85316309D01*
X215600500Y-85316306D01*
X215600499Y-85316304D01*
X215565896Y-85142341D01*
X215565893Y-85142332D01*
X215498016Y-84978459D01*
X215498009Y-84978446D01*
X215399464Y-84830965D01*
X215399461Y-84830961D01*
X215274038Y-84705538D01*
X215274034Y-84705535D01*
X215126553Y-84606990D01*
X215126540Y-84606983D01*
X214962667Y-84539106D01*
X214962658Y-84539103D01*
X214788694Y-84504500D01*
X214788691Y-84504500D01*
X214611309Y-84504500D01*
X214611306Y-84504500D01*
X214437341Y-84539103D01*
X214437332Y-84539106D01*
X214273459Y-84606983D01*
X214273446Y-84606990D01*
X214125965Y-84705535D01*
X214125961Y-84705538D01*
X214000538Y-84830961D01*
X214000535Y-84830965D01*
X213901990Y-84978446D01*
X213901983Y-84978459D01*
X213834106Y-85142332D01*
X213834103Y-85142341D01*
X213799500Y-85316304D01*
X184600499Y-85316304D01*
X184565896Y-85142341D01*
X184565893Y-85142332D01*
X184498016Y-84978459D01*
X184498009Y-84978446D01*
X184399464Y-84830965D01*
X184399461Y-84830961D01*
X184274038Y-84705538D01*
X184274034Y-84705535D01*
X184126553Y-84606990D01*
X184126540Y-84606983D01*
X183962667Y-84539106D01*
X183962658Y-84539103D01*
X183788694Y-84504500D01*
X183788691Y-84504500D01*
X183611309Y-84504500D01*
X183611306Y-84504500D01*
X183437341Y-84539103D01*
X183437332Y-84539106D01*
X183273459Y-84606983D01*
X183273446Y-84606990D01*
X183125965Y-84705535D01*
X183125961Y-84705538D01*
X183000538Y-84830961D01*
X183000535Y-84830965D01*
X182901990Y-84978446D01*
X182901983Y-84978459D01*
X182834106Y-85142332D01*
X182834103Y-85142341D01*
X182799500Y-85316304D01*
X170507195Y-85316304D01*
X170599464Y-85224035D01*
X170698013Y-85076547D01*
X170765894Y-84912666D01*
X170782146Y-84830965D01*
X170800499Y-84738695D01*
X170800500Y-84738693D01*
X170800500Y-84561306D01*
X170800499Y-84561304D01*
X170765896Y-84387341D01*
X170765893Y-84387332D01*
X170698016Y-84223459D01*
X170698009Y-84223446D01*
X170599464Y-84075965D01*
X170599461Y-84075961D01*
X170474038Y-83950538D01*
X170474034Y-83950535D01*
X170326553Y-83851990D01*
X170326540Y-83851983D01*
X170162667Y-83784106D01*
X170162658Y-83784103D01*
X169988694Y-83749500D01*
X169988691Y-83749500D01*
X169811309Y-83749500D01*
X169811306Y-83749500D01*
X169637341Y-83784103D01*
X169637332Y-83784106D01*
X169473459Y-83851983D01*
X169473446Y-83851990D01*
X169325965Y-83950535D01*
X169325961Y-83950538D01*
X169200538Y-84075961D01*
X169200535Y-84075965D01*
X169101990Y-84223446D01*
X169101983Y-84223459D01*
X169034106Y-84387332D01*
X169034103Y-84387341D01*
X168999500Y-84561304D01*
X168999500Y-84738695D01*
X169034103Y-84912658D01*
X169034106Y-84912667D01*
X169068987Y-84996878D01*
X169076456Y-85066348D01*
X169045180Y-85128827D01*
X168985091Y-85164479D01*
X168978619Y-85165947D01*
X168887338Y-85184104D01*
X168887332Y-85184106D01*
X168723459Y-85251983D01*
X168723446Y-85251990D01*
X168575965Y-85350535D01*
X168575961Y-85350538D01*
X168450538Y-85475961D01*
X168450535Y-85475965D01*
X168351990Y-85623446D01*
X168351983Y-85623459D01*
X168284106Y-85787332D01*
X168284103Y-85787341D01*
X168249500Y-85961304D01*
X167800499Y-85961304D01*
X167765896Y-85787341D01*
X167765893Y-85787332D01*
X167731012Y-85703121D01*
X167723543Y-85633652D01*
X167754818Y-85571173D01*
X167814907Y-85535521D01*
X167821382Y-85534052D01*
X167912658Y-85515896D01*
X167912661Y-85515894D01*
X167912666Y-85515894D01*
X168076547Y-85448013D01*
X168224035Y-85349464D01*
X168349464Y-85224035D01*
X168448013Y-85076547D01*
X168515894Y-84912666D01*
X168532146Y-84830965D01*
X168550499Y-84738695D01*
X168550500Y-84738693D01*
X168550500Y-84561306D01*
X168550499Y-84561304D01*
X168515896Y-84387341D01*
X168515893Y-84387332D01*
X168448016Y-84223459D01*
X168448009Y-84223446D01*
X168349464Y-84075965D01*
X168349461Y-84075961D01*
X168224038Y-83950538D01*
X168224034Y-83950535D01*
X168076553Y-83851990D01*
X168076540Y-83851983D01*
X167912667Y-83784106D01*
X167912658Y-83784103D01*
X167738694Y-83749500D01*
X167738691Y-83749500D01*
X167561309Y-83749500D01*
X167561306Y-83749500D01*
X167387341Y-83784103D01*
X167387332Y-83784106D01*
X167223459Y-83851983D01*
X167223446Y-83851990D01*
X167075965Y-83950535D01*
X167075961Y-83950538D01*
X166950538Y-84075961D01*
X166950535Y-84075965D01*
X166851990Y-84223446D01*
X166851983Y-84223459D01*
X166784106Y-84387332D01*
X166784103Y-84387341D01*
X166749500Y-84561304D01*
X166749500Y-84738695D01*
X166784103Y-84912658D01*
X166784106Y-84912667D01*
X166818987Y-84996878D01*
X166826456Y-85066348D01*
X166795180Y-85128827D01*
X166735091Y-85164479D01*
X166728619Y-85165947D01*
X166637338Y-85184104D01*
X166637332Y-85184106D01*
X166473459Y-85251983D01*
X166473446Y-85251990D01*
X166325965Y-85350535D01*
X166325961Y-85350538D01*
X166200538Y-85475961D01*
X166200535Y-85475965D01*
X166101990Y-85623446D01*
X166101983Y-85623459D01*
X166034106Y-85787332D01*
X166034103Y-85787341D01*
X165999500Y-85961304D01*
X165550499Y-85961304D01*
X165550499Y-85639968D01*
X165570184Y-85572930D01*
X165622988Y-85527175D01*
X165650307Y-85518352D01*
X165662666Y-85515894D01*
X165826547Y-85448013D01*
X165974035Y-85349464D01*
X166099464Y-85224035D01*
X166198013Y-85076547D01*
X166265894Y-84912666D01*
X166282146Y-84830965D01*
X166300499Y-84738695D01*
X166300500Y-84738693D01*
X166300500Y-84561306D01*
X166300499Y-84561304D01*
X166265896Y-84387341D01*
X166265893Y-84387332D01*
X166198016Y-84223459D01*
X166198009Y-84223446D01*
X166099464Y-84075965D01*
X166099461Y-84075961D01*
X165974038Y-83950538D01*
X165974034Y-83950535D01*
X165826553Y-83851990D01*
X165826540Y-83851983D01*
X165662667Y-83784106D01*
X165662658Y-83784103D01*
X165488694Y-83749500D01*
X165488691Y-83749500D01*
X165311309Y-83749500D01*
X165311306Y-83749500D01*
X165137341Y-83784103D01*
X165137332Y-83784106D01*
X164973459Y-83851983D01*
X164973446Y-83851990D01*
X164825965Y-83950535D01*
X164825961Y-83950538D01*
X164700538Y-84075961D01*
X164700535Y-84075965D01*
X164601990Y-84223446D01*
X164601983Y-84223459D01*
X164534106Y-84387332D01*
X164534103Y-84387341D01*
X164499500Y-84561304D01*
X164499500Y-84738695D01*
X164534103Y-84912658D01*
X164534105Y-84912662D01*
X164534106Y-84912666D01*
X164550393Y-84951987D01*
X164561188Y-84978049D01*
X164568655Y-85047519D01*
X164537380Y-85109997D01*
X164477290Y-85145649D01*
X164446627Y-85149500D01*
X164202130Y-85149500D01*
X164202123Y-85149501D01*
X164142516Y-85155908D01*
X164007671Y-85206202D01*
X164007664Y-85206206D01*
X163892455Y-85292452D01*
X163892453Y-85292454D01*
X163875232Y-85315458D01*
X163819297Y-85357327D01*
X163749606Y-85362309D01*
X163739986Y-85359809D01*
X163737665Y-85359105D01*
X163563694Y-85324500D01*
X163563691Y-85324500D01*
X163386309Y-85324500D01*
X163386306Y-85324500D01*
X163212341Y-85359103D01*
X163212332Y-85359106D01*
X163048459Y-85426983D01*
X163048446Y-85426990D01*
X162900965Y-85525535D01*
X162900961Y-85525538D01*
X162775538Y-85650961D01*
X162775535Y-85650965D01*
X162676990Y-85798446D01*
X162676983Y-85798459D01*
X162609106Y-85962332D01*
X162609103Y-85962341D01*
X162574500Y-86136304D01*
X153226383Y-86136304D01*
X153274035Y-86104464D01*
X153295835Y-86082664D01*
X153335964Y-86042536D01*
X153399461Y-85979038D01*
X153399464Y-85979035D01*
X153498013Y-85831547D01*
X153565894Y-85667666D01*
X153567159Y-85661309D01*
X153592472Y-85534052D01*
X153600500Y-85493691D01*
X153600500Y-85316309D01*
X153600500Y-85316306D01*
X153600499Y-85316304D01*
X153565896Y-85142341D01*
X153565893Y-85142332D01*
X153498016Y-84978459D01*
X153498009Y-84978446D01*
X153399464Y-84830965D01*
X153399461Y-84830961D01*
X153274038Y-84705538D01*
X153274034Y-84705535D01*
X153126553Y-84606990D01*
X153126540Y-84606983D01*
X152962667Y-84539106D01*
X152962658Y-84539103D01*
X152788694Y-84504500D01*
X152788691Y-84504500D01*
X152611309Y-84504500D01*
X152611306Y-84504500D01*
X152437341Y-84539103D01*
X152437332Y-84539106D01*
X152273459Y-84606983D01*
X152273446Y-84606990D01*
X152125965Y-84705535D01*
X152125961Y-84705538D01*
X152000538Y-84830961D01*
X152000535Y-84830965D01*
X151901990Y-84978446D01*
X151901983Y-84978459D01*
X151834106Y-85142332D01*
X151834103Y-85142341D01*
X151799500Y-85316304D01*
X122600499Y-85316304D01*
X122565896Y-85142341D01*
X122565893Y-85142332D01*
X122498016Y-84978459D01*
X122498009Y-84978446D01*
X122399464Y-84830965D01*
X122399461Y-84830961D01*
X122274038Y-84705538D01*
X122274034Y-84705535D01*
X122126553Y-84606990D01*
X122126540Y-84606983D01*
X121962667Y-84539106D01*
X121962658Y-84539103D01*
X121788694Y-84504500D01*
X121788691Y-84504500D01*
X121611309Y-84504500D01*
X121611306Y-84504500D01*
X121437341Y-84539103D01*
X121437332Y-84539106D01*
X121273459Y-84606983D01*
X121273446Y-84606990D01*
X121125965Y-84705535D01*
X121125961Y-84705538D01*
X121000538Y-84830961D01*
X121000535Y-84830965D01*
X120901990Y-84978446D01*
X120901983Y-84978459D01*
X120834106Y-85142332D01*
X120834103Y-85142341D01*
X120799500Y-85316304D01*
X101043237Y-85316304D01*
X100949464Y-85175965D01*
X100949461Y-85175961D01*
X100824038Y-85050538D01*
X100824034Y-85050535D01*
X100676553Y-84951990D01*
X100676540Y-84951983D01*
X100512667Y-84884106D01*
X100512658Y-84884103D01*
X100338694Y-84849500D01*
X100338691Y-84849500D01*
X100161309Y-84849500D01*
X100161306Y-84849500D01*
X99987341Y-84884103D01*
X99987332Y-84884106D01*
X99823459Y-84951983D01*
X99823446Y-84951990D01*
X99675965Y-85050535D01*
X99675961Y-85050538D01*
X99550538Y-85175961D01*
X99550535Y-85175965D01*
X99451990Y-85323446D01*
X99451983Y-85323459D01*
X99384106Y-85487332D01*
X99384103Y-85487341D01*
X99349500Y-85661304D01*
X91737697Y-85661304D01*
X91745145Y-80661304D01*
X104099500Y-80661304D01*
X104099500Y-80838695D01*
X104134103Y-81012658D01*
X104134106Y-81012667D01*
X104201983Y-81176540D01*
X104201990Y-81176553D01*
X104300535Y-81324034D01*
X104300538Y-81324038D01*
X104425961Y-81449461D01*
X104425965Y-81449464D01*
X104573446Y-81548009D01*
X104573459Y-81548016D01*
X104696363Y-81598923D01*
X104737334Y-81615894D01*
X104737336Y-81615894D01*
X104737341Y-81615896D01*
X104911304Y-81650499D01*
X104911307Y-81650500D01*
X104911309Y-81650500D01*
X105088693Y-81650500D01*
X105088694Y-81650499D01*
X105146682Y-81638964D01*
X105262658Y-81615896D01*
X105262661Y-81615894D01*
X105262666Y-81615894D01*
X105426547Y-81548013D01*
X105574035Y-81449464D01*
X105699464Y-81324035D01*
X105798013Y-81176547D01*
X105856103Y-81036304D01*
X107499500Y-81036304D01*
X107499500Y-81213695D01*
X107534103Y-81387658D01*
X107534106Y-81387667D01*
X107601983Y-81551540D01*
X107601990Y-81551553D01*
X107700535Y-81699034D01*
X107700538Y-81699038D01*
X107825961Y-81824461D01*
X107825965Y-81824464D01*
X107973446Y-81923009D01*
X107973459Y-81923016D01*
X108096363Y-81973923D01*
X108137334Y-81990894D01*
X108137336Y-81990894D01*
X108137341Y-81990896D01*
X108311304Y-82025499D01*
X108311307Y-82025500D01*
X108311309Y-82025500D01*
X108488693Y-82025500D01*
X108488694Y-82025499D01*
X108546682Y-82013964D01*
X108662658Y-81990896D01*
X108662661Y-81990894D01*
X108662666Y-81990894D01*
X108826547Y-81923013D01*
X108974035Y-81824464D01*
X108996364Y-81802135D01*
X163749500Y-81802135D01*
X163749500Y-82697870D01*
X163749501Y-82697876D01*
X163755908Y-82757483D01*
X163806202Y-82892328D01*
X163806206Y-82892335D01*
X163892452Y-83007544D01*
X163892455Y-83007547D01*
X164007664Y-83093793D01*
X164007671Y-83093797D01*
X164142517Y-83144091D01*
X164142516Y-83144091D01*
X164149444Y-83144835D01*
X164202127Y-83150500D01*
X165097872Y-83150499D01*
X165157483Y-83144091D01*
X165292331Y-83093796D01*
X165407546Y-83007546D01*
X165493796Y-82892331D01*
X165544091Y-82757483D01*
X165550500Y-82697873D01*
X165550499Y-82161304D01*
X165999500Y-82161304D01*
X165999500Y-82338695D01*
X166034103Y-82512658D01*
X166034106Y-82512667D01*
X166101983Y-82676540D01*
X166101990Y-82676553D01*
X166200535Y-82824034D01*
X166200538Y-82824038D01*
X166325961Y-82949461D01*
X166325965Y-82949464D01*
X166473446Y-83048009D01*
X166473459Y-83048016D01*
X166596363Y-83098923D01*
X166637334Y-83115894D01*
X166637336Y-83115894D01*
X166637341Y-83115896D01*
X166811304Y-83150499D01*
X166811307Y-83150500D01*
X166811309Y-83150500D01*
X166988693Y-83150500D01*
X166988694Y-83150499D01*
X167046682Y-83138964D01*
X167162658Y-83115896D01*
X167162661Y-83115894D01*
X167162666Y-83115894D01*
X167326547Y-83048013D01*
X167474035Y-82949464D01*
X167599464Y-82824035D01*
X167698013Y-82676547D01*
X167765894Y-82512666D01*
X167800500Y-82338691D01*
X167800500Y-82161309D01*
X167800500Y-82161306D01*
X167800499Y-82161304D01*
X168249500Y-82161304D01*
X168249500Y-82338695D01*
X168284103Y-82512658D01*
X168284106Y-82512667D01*
X168351983Y-82676540D01*
X168351990Y-82676553D01*
X168450535Y-82824034D01*
X168450538Y-82824038D01*
X168575961Y-82949461D01*
X168575965Y-82949464D01*
X168723446Y-83048009D01*
X168723459Y-83048016D01*
X168846363Y-83098923D01*
X168887334Y-83115894D01*
X168887336Y-83115894D01*
X168887341Y-83115896D01*
X169061304Y-83150499D01*
X169061307Y-83150500D01*
X169061309Y-83150500D01*
X169238693Y-83150500D01*
X169238694Y-83150499D01*
X169296682Y-83138964D01*
X169412658Y-83115896D01*
X169412661Y-83115894D01*
X169412666Y-83115894D01*
X169576547Y-83048013D01*
X169724035Y-82949464D01*
X169849464Y-82824035D01*
X169948013Y-82676547D01*
X170015894Y-82512666D01*
X170050500Y-82338691D01*
X170050500Y-82161309D01*
X170050500Y-82161306D01*
X170050499Y-82161304D01*
X170015896Y-81987341D01*
X170015893Y-81987332D01*
X169989253Y-81923016D01*
X169981011Y-81903120D01*
X169973543Y-81833652D01*
X170004818Y-81771173D01*
X170064907Y-81735521D01*
X170071382Y-81734052D01*
X170162658Y-81715896D01*
X170162661Y-81715894D01*
X170162666Y-81715894D01*
X170326547Y-81648013D01*
X170474035Y-81549464D01*
X170599464Y-81424035D01*
X170698013Y-81276547D01*
X170765894Y-81112666D01*
X170781083Y-81036309D01*
X170800499Y-80938695D01*
X170800500Y-80938693D01*
X170800500Y-80761306D01*
X170800499Y-80761304D01*
X170765896Y-80587341D01*
X170765893Y-80587332D01*
X170698016Y-80423459D01*
X170698009Y-80423446D01*
X170599464Y-80275965D01*
X170599461Y-80275961D01*
X170474038Y-80150538D01*
X170474034Y-80150535D01*
X170326553Y-80051990D01*
X170326541Y-80051983D01*
X170248787Y-80019778D01*
X170162667Y-79984106D01*
X170162658Y-79984103D01*
X169988694Y-79949500D01*
X169988691Y-79949500D01*
X169811309Y-79949500D01*
X169811306Y-79949500D01*
X169637341Y-79984103D01*
X169637332Y-79984106D01*
X169473459Y-80051983D01*
X169473446Y-80051990D01*
X169325965Y-80150535D01*
X169325961Y-80150538D01*
X169200538Y-80275961D01*
X169200535Y-80275965D01*
X169101990Y-80423446D01*
X169101983Y-80423459D01*
X169034106Y-80587332D01*
X169034103Y-80587341D01*
X168999500Y-80761304D01*
X168999500Y-80938695D01*
X169034103Y-81112658D01*
X169034106Y-81112667D01*
X169068987Y-81196878D01*
X169076456Y-81266348D01*
X169045180Y-81328827D01*
X168985091Y-81364479D01*
X168978619Y-81365947D01*
X168887338Y-81384104D01*
X168887332Y-81384106D01*
X168723459Y-81451983D01*
X168723446Y-81451990D01*
X168575965Y-81550535D01*
X168575961Y-81550538D01*
X168450538Y-81675961D01*
X168450535Y-81675965D01*
X168351990Y-81823446D01*
X168351983Y-81823459D01*
X168284106Y-81987332D01*
X168284103Y-81987341D01*
X168249500Y-82161304D01*
X167800499Y-82161304D01*
X167765896Y-81987341D01*
X167765893Y-81987332D01*
X167739253Y-81923016D01*
X167731011Y-81903120D01*
X167723543Y-81833652D01*
X167754818Y-81771173D01*
X167814907Y-81735521D01*
X167821382Y-81734052D01*
X167912658Y-81715896D01*
X167912661Y-81715894D01*
X167912666Y-81715894D01*
X168076547Y-81648013D01*
X168224035Y-81549464D01*
X168349464Y-81424035D01*
X168448013Y-81276547D01*
X168515894Y-81112666D01*
X168531083Y-81036309D01*
X168550499Y-80938695D01*
X168550500Y-80938693D01*
X168550500Y-80761306D01*
X168550499Y-80761304D01*
X168515896Y-80587341D01*
X168515893Y-80587332D01*
X168448016Y-80423459D01*
X168448009Y-80423446D01*
X168349464Y-80275965D01*
X168349461Y-80275961D01*
X168224038Y-80150538D01*
X168224034Y-80150535D01*
X168076553Y-80051990D01*
X168076540Y-80051983D01*
X167912667Y-79984106D01*
X167912658Y-79984103D01*
X167738694Y-79949500D01*
X167738691Y-79949500D01*
X167561309Y-79949500D01*
X167561306Y-79949500D01*
X167387341Y-79984103D01*
X167387332Y-79984106D01*
X167223459Y-80051983D01*
X167223446Y-80051990D01*
X167075965Y-80150535D01*
X167075961Y-80150538D01*
X166950538Y-80275961D01*
X166950535Y-80275965D01*
X166851990Y-80423446D01*
X166851983Y-80423459D01*
X166784106Y-80587332D01*
X166784103Y-80587341D01*
X166749500Y-80761304D01*
X166749500Y-80938695D01*
X166784103Y-81112658D01*
X166784106Y-81112667D01*
X166818987Y-81196878D01*
X166826456Y-81266348D01*
X166795180Y-81328827D01*
X166735091Y-81364479D01*
X166728619Y-81365947D01*
X166637338Y-81384104D01*
X166637332Y-81384106D01*
X166473459Y-81451983D01*
X166473446Y-81451990D01*
X166325965Y-81550535D01*
X166325961Y-81550538D01*
X166200538Y-81675961D01*
X166200535Y-81675965D01*
X166101990Y-81823446D01*
X166101983Y-81823459D01*
X166034106Y-81987332D01*
X166034103Y-81987341D01*
X165999500Y-82161304D01*
X165550499Y-82161304D01*
X165550499Y-81839968D01*
X165570184Y-81772930D01*
X165622988Y-81727175D01*
X165650307Y-81718352D01*
X165662666Y-81715894D01*
X165826547Y-81648013D01*
X165974035Y-81549464D01*
X166099464Y-81424035D01*
X166198013Y-81276547D01*
X166265894Y-81112666D01*
X166281083Y-81036309D01*
X166300499Y-80938695D01*
X166300500Y-80938693D01*
X166300500Y-80761306D01*
X166300499Y-80761304D01*
X166265896Y-80587341D01*
X166265893Y-80587332D01*
X166198016Y-80423459D01*
X166198009Y-80423446D01*
X166099464Y-80275965D01*
X166099461Y-80275961D01*
X165974038Y-80150538D01*
X165974034Y-80150535D01*
X165826553Y-80051990D01*
X165826540Y-80051983D01*
X165662667Y-79984106D01*
X165662658Y-79984103D01*
X165488694Y-79949500D01*
X165488691Y-79949500D01*
X165311309Y-79949500D01*
X165311306Y-79949500D01*
X165137341Y-79984103D01*
X165137332Y-79984106D01*
X164973459Y-80051983D01*
X164973446Y-80051990D01*
X164825965Y-80150535D01*
X164825961Y-80150538D01*
X164700538Y-80275961D01*
X164700535Y-80275965D01*
X164601990Y-80423446D01*
X164601983Y-80423459D01*
X164534106Y-80587332D01*
X164534103Y-80587341D01*
X164499500Y-80761304D01*
X164499500Y-80938695D01*
X164534103Y-81112658D01*
X164534105Y-81112662D01*
X164534106Y-81112666D01*
X164554096Y-81160928D01*
X164561188Y-81178049D01*
X164568655Y-81247519D01*
X164537380Y-81309997D01*
X164477290Y-81345649D01*
X164446627Y-81349500D01*
X164202130Y-81349500D01*
X164202123Y-81349501D01*
X164142516Y-81355908D01*
X164007671Y-81406202D01*
X164007664Y-81406206D01*
X163892455Y-81492452D01*
X163892452Y-81492455D01*
X163806206Y-81607664D01*
X163806202Y-81607671D01*
X163755908Y-81742517D01*
X163749501Y-81802116D01*
X163749500Y-81802135D01*
X108996364Y-81802135D01*
X109027326Y-81771173D01*
X109087375Y-81711125D01*
X109099461Y-81699038D01*
X109099464Y-81699035D01*
X109198013Y-81551547D01*
X109199479Y-81548009D01*
X109239250Y-81451990D01*
X109265894Y-81387666D01*
X109266603Y-81384106D01*
X109300499Y-81213695D01*
X109300500Y-81213693D01*
X109300500Y-81036306D01*
X109300499Y-81036304D01*
X109265896Y-80862341D01*
X109265893Y-80862332D01*
X109256102Y-80838695D01*
X109224049Y-80761309D01*
X109198016Y-80698459D01*
X109198009Y-80698446D01*
X109099464Y-80550965D01*
X109099461Y-80550961D01*
X108974038Y-80425538D01*
X108974034Y-80425535D01*
X108826553Y-80326990D01*
X108826540Y-80326983D01*
X108662667Y-80259106D01*
X108662658Y-80259103D01*
X108488694Y-80224500D01*
X108488691Y-80224500D01*
X108311309Y-80224500D01*
X108311306Y-80224500D01*
X108137341Y-80259103D01*
X108137332Y-80259106D01*
X107973459Y-80326983D01*
X107973446Y-80326990D01*
X107825965Y-80425535D01*
X107825961Y-80425538D01*
X107700538Y-80550961D01*
X107700535Y-80550965D01*
X107601990Y-80698446D01*
X107601983Y-80698459D01*
X107534106Y-80862332D01*
X107534103Y-80862341D01*
X107499500Y-81036304D01*
X105856103Y-81036304D01*
X105865894Y-81012666D01*
X105880609Y-80938691D01*
X105900500Y-80838693D01*
X105900500Y-80661306D01*
X105900499Y-80661304D01*
X105865896Y-80487341D01*
X105865893Y-80487332D01*
X105798016Y-80323459D01*
X105798009Y-80323446D01*
X105699464Y-80175965D01*
X105699461Y-80175961D01*
X105574038Y-80050538D01*
X105574034Y-80050535D01*
X105426553Y-79951990D01*
X105426540Y-79951983D01*
X105328330Y-79911304D01*
X208549500Y-79911304D01*
X208549500Y-80088695D01*
X208584103Y-80262658D01*
X208584106Y-80262667D01*
X208651983Y-80426540D01*
X208651990Y-80426553D01*
X208655037Y-80431113D01*
X208675912Y-80497792D01*
X208657425Y-80565171D01*
X208655037Y-80568887D01*
X208651990Y-80573446D01*
X208651983Y-80573459D01*
X208584106Y-80737332D01*
X208584103Y-80737341D01*
X208549500Y-80911304D01*
X208549500Y-81088695D01*
X208584103Y-81262658D01*
X208584106Y-81262667D01*
X208651983Y-81426540D01*
X208651990Y-81426553D01*
X208750535Y-81574034D01*
X208750538Y-81574038D01*
X208875961Y-81699461D01*
X208875965Y-81699464D01*
X209023446Y-81798009D01*
X209023459Y-81798016D01*
X209109494Y-81833652D01*
X209187334Y-81865894D01*
X209187336Y-81865894D01*
X209187341Y-81865896D01*
X209361304Y-81900499D01*
X209361307Y-81900500D01*
X209361309Y-81900500D01*
X209538693Y-81900500D01*
X209538694Y-81900499D01*
X209596682Y-81888964D01*
X209712658Y-81865896D01*
X209712661Y-81865894D01*
X209712666Y-81865894D01*
X209866596Y-81802135D01*
X209876540Y-81798016D01*
X209876540Y-81798015D01*
X209876547Y-81798013D01*
X210024035Y-81699464D01*
X210149464Y-81574035D01*
X210248013Y-81426547D01*
X210249054Y-81424035D01*
X210279926Y-81349501D01*
X210315894Y-81262666D01*
X210325636Y-81213693D01*
X210350499Y-81088695D01*
X210350500Y-81088693D01*
X210350500Y-80911306D01*
X210350499Y-80911304D01*
X210315896Y-80737341D01*
X210315893Y-80737332D01*
X210248015Y-80573457D01*
X210248014Y-80573455D01*
X210248013Y-80573453D01*
X210244965Y-80568892D01*
X210224086Y-80502217D01*
X210242569Y-80434837D01*
X210244962Y-80431113D01*
X210248013Y-80426547D01*
X210315894Y-80262666D01*
X210316603Y-80259106D01*
X210350499Y-80088695D01*
X210350500Y-80088693D01*
X210350500Y-79911306D01*
X210350499Y-79911304D01*
X210315896Y-79737341D01*
X210315893Y-79737332D01*
X210248016Y-79573459D01*
X210248009Y-79573446D01*
X210149464Y-79425965D01*
X210149461Y-79425961D01*
X210024038Y-79300538D01*
X210024034Y-79300535D01*
X209876553Y-79201990D01*
X209876540Y-79201983D01*
X209712667Y-79134106D01*
X209712658Y-79134103D01*
X209538694Y-79099500D01*
X209538691Y-79099500D01*
X209361309Y-79099500D01*
X209361306Y-79099500D01*
X209187341Y-79134103D01*
X209187332Y-79134106D01*
X209023459Y-79201983D01*
X209023446Y-79201990D01*
X208875965Y-79300535D01*
X208875961Y-79300538D01*
X208750538Y-79425961D01*
X208750535Y-79425965D01*
X208651990Y-79573446D01*
X208651983Y-79573459D01*
X208584106Y-79737332D01*
X208584103Y-79737341D01*
X208549500Y-79911304D01*
X105328330Y-79911304D01*
X105262667Y-79884106D01*
X105262658Y-79884103D01*
X105088694Y-79849500D01*
X105088691Y-79849500D01*
X104911309Y-79849500D01*
X104911306Y-79849500D01*
X104737341Y-79884103D01*
X104737332Y-79884106D01*
X104573459Y-79951983D01*
X104573446Y-79951990D01*
X104425965Y-80050535D01*
X104425961Y-80050538D01*
X104300538Y-80175961D01*
X104300535Y-80175965D01*
X104201990Y-80323446D01*
X104201983Y-80323459D01*
X104134106Y-80487332D01*
X104134103Y-80487341D01*
X104099500Y-80661304D01*
X91745145Y-80661304D01*
X91754230Y-74562135D01*
X108899500Y-74562135D01*
X108899500Y-76357870D01*
X108899501Y-76357876D01*
X108905908Y-76417483D01*
X108956202Y-76552328D01*
X108956206Y-76552335D01*
X109042452Y-76667544D01*
X109042455Y-76667547D01*
X109157664Y-76753793D01*
X109157671Y-76753797D01*
X109289082Y-76802810D01*
X109345016Y-76844681D01*
X109369433Y-76910145D01*
X109354582Y-76978418D01*
X109333431Y-77006673D01*
X109219889Y-77120215D01*
X109094951Y-77292179D01*
X108998444Y-77481585D01*
X108932753Y-77683760D01*
X108913129Y-77807664D01*
X108899500Y-77893713D01*
X108899500Y-78106287D01*
X108932754Y-78316243D01*
X108968002Y-78424726D01*
X108998444Y-78518414D01*
X109094951Y-78707820D01*
X109219890Y-78879786D01*
X109370213Y-79030109D01*
X109542179Y-79155048D01*
X109542181Y-79155049D01*
X109542184Y-79155051D01*
X109731588Y-79251557D01*
X109933757Y-79317246D01*
X110143713Y-79350500D01*
X110143714Y-79350500D01*
X110356286Y-79350500D01*
X110356287Y-79350500D01*
X110566243Y-79317246D01*
X110768412Y-79251557D01*
X110957816Y-79155051D01*
X111044138Y-79092335D01*
X111129786Y-79030109D01*
X111129788Y-79030106D01*
X111129792Y-79030104D01*
X111280104Y-78879792D01*
X111280106Y-78879788D01*
X111280109Y-78879786D01*
X111389086Y-78729789D01*
X111405051Y-78707816D01*
X111501557Y-78518412D01*
X111567246Y-78316243D01*
X111600500Y-78106287D01*
X111600500Y-77893713D01*
X111567246Y-77683757D01*
X111501557Y-77481588D01*
X111405051Y-77292184D01*
X111405049Y-77292181D01*
X111405048Y-77292179D01*
X111280109Y-77120213D01*
X111166569Y-77006673D01*
X111133084Y-76945350D01*
X111138068Y-76875658D01*
X111179940Y-76819725D01*
X111210915Y-76802810D01*
X111342331Y-76753796D01*
X111457546Y-76667546D01*
X111543796Y-76552331D01*
X111594091Y-76417483D01*
X111600500Y-76357873D01*
X111600500Y-76101304D01*
X126999500Y-76101304D01*
X126999500Y-76278695D01*
X127034103Y-76452658D01*
X127034106Y-76452667D01*
X127101983Y-76616540D01*
X127101990Y-76616553D01*
X127105037Y-76621113D01*
X127125912Y-76687792D01*
X127107425Y-76755171D01*
X127105037Y-76758887D01*
X127101990Y-76763446D01*
X127101983Y-76763459D01*
X127034106Y-76927332D01*
X127034103Y-76927341D01*
X126999500Y-77101304D01*
X126999500Y-77278695D01*
X127034103Y-77452658D01*
X127034106Y-77452667D01*
X127101983Y-77616540D01*
X127101990Y-77616553D01*
X127200535Y-77764034D01*
X127200538Y-77764038D01*
X127325961Y-77889461D01*
X127325965Y-77889464D01*
X127473446Y-77988009D01*
X127473459Y-77988016D01*
X127559028Y-78023459D01*
X127637334Y-78055894D01*
X127637336Y-78055894D01*
X127637341Y-78055896D01*
X127811304Y-78090499D01*
X127811307Y-78090500D01*
X127811309Y-78090500D01*
X127988693Y-78090500D01*
X127988694Y-78090499D01*
X128046682Y-78078964D01*
X128162658Y-78055896D01*
X128162661Y-78055894D01*
X128162666Y-78055894D01*
X128326547Y-77988013D01*
X128474035Y-77889464D01*
X128599464Y-77764035D01*
X128698013Y-77616547D01*
X128765894Y-77452666D01*
X128800500Y-77278691D01*
X128800500Y-77101309D01*
X128792495Y-77061064D01*
X128792495Y-77061061D01*
X128788653Y-77041746D01*
X160274500Y-77041746D01*
X160274500Y-77258253D01*
X160308370Y-77472098D01*
X160375272Y-77678006D01*
X160375273Y-77678009D01*
X160441339Y-77807669D01*
X160473567Y-77870919D01*
X160600828Y-78046078D01*
X160753922Y-78199172D01*
X160929081Y-78326433D01*
X160997519Y-78361304D01*
X161121990Y-78424726D01*
X161121993Y-78424727D01*
X161224947Y-78458178D01*
X161327903Y-78491630D01*
X161541746Y-78525500D01*
X161541747Y-78525500D01*
X161758253Y-78525500D01*
X161758254Y-78525500D01*
X161972097Y-78491630D01*
X162178009Y-78424726D01*
X162370919Y-78326433D01*
X162546078Y-78199172D01*
X162699172Y-78046078D01*
X162731099Y-78002135D01*
X163749500Y-78002135D01*
X163749500Y-78897870D01*
X163749501Y-78897876D01*
X163755908Y-78957483D01*
X163806202Y-79092328D01*
X163806206Y-79092335D01*
X163892452Y-79207544D01*
X163892455Y-79207547D01*
X164007664Y-79293793D01*
X164007671Y-79293797D01*
X164142517Y-79344091D01*
X164142516Y-79344091D01*
X164149444Y-79344835D01*
X164202127Y-79350500D01*
X165097872Y-79350499D01*
X165157483Y-79344091D01*
X165292331Y-79293796D01*
X165407546Y-79207546D01*
X165493796Y-79092331D01*
X165544091Y-78957483D01*
X165550500Y-78897873D01*
X165550499Y-78361304D01*
X165999500Y-78361304D01*
X165999500Y-78538695D01*
X166034103Y-78712658D01*
X166034106Y-78712667D01*
X166101983Y-78876540D01*
X166101990Y-78876553D01*
X166200535Y-79024034D01*
X166200538Y-79024038D01*
X166325961Y-79149461D01*
X166325965Y-79149464D01*
X166473446Y-79248009D01*
X166473459Y-79248016D01*
X166596363Y-79298923D01*
X166637334Y-79315894D01*
X166637336Y-79315894D01*
X166637341Y-79315896D01*
X166811304Y-79350499D01*
X166811307Y-79350500D01*
X166811309Y-79350500D01*
X166988693Y-79350500D01*
X166988694Y-79350499D01*
X167046682Y-79338964D01*
X167162658Y-79315896D01*
X167162661Y-79315894D01*
X167162666Y-79315894D01*
X167326547Y-79248013D01*
X167474035Y-79149464D01*
X167599464Y-79024035D01*
X167698013Y-78876547D01*
X167765894Y-78712666D01*
X167800500Y-78538691D01*
X167800500Y-78361309D01*
X167800500Y-78361306D01*
X167800499Y-78361304D01*
X168249500Y-78361304D01*
X168249500Y-78538695D01*
X168284103Y-78712658D01*
X168284106Y-78712667D01*
X168351983Y-78876540D01*
X168351990Y-78876553D01*
X168450535Y-79024034D01*
X168450538Y-79024038D01*
X168575961Y-79149461D01*
X168575965Y-79149464D01*
X168723446Y-79248009D01*
X168723459Y-79248016D01*
X168846363Y-79298923D01*
X168887334Y-79315894D01*
X168887336Y-79315894D01*
X168887341Y-79315896D01*
X169061304Y-79350499D01*
X169061307Y-79350500D01*
X169061309Y-79350500D01*
X169238693Y-79350500D01*
X169238694Y-79350499D01*
X169296682Y-79338964D01*
X169412658Y-79315896D01*
X169412661Y-79315894D01*
X169412666Y-79315894D01*
X169576547Y-79248013D01*
X169724035Y-79149464D01*
X169849464Y-79024035D01*
X169948013Y-78876547D01*
X170015894Y-78712666D01*
X170050500Y-78538691D01*
X170050500Y-78361309D01*
X170050500Y-78361306D01*
X170050499Y-78361304D01*
X170015896Y-78187341D01*
X170015893Y-78187332D01*
X169981011Y-78103120D01*
X169973543Y-78033652D01*
X170004818Y-77971173D01*
X170064907Y-77935521D01*
X170071382Y-77934052D01*
X170162658Y-77915896D01*
X170162661Y-77915894D01*
X170162666Y-77915894D01*
X170326547Y-77848013D01*
X170474035Y-77749464D01*
X170599464Y-77624035D01*
X170698013Y-77476547D01*
X170765894Y-77312666D01*
X170772652Y-77278695D01*
X170800499Y-77138695D01*
X170800500Y-77138693D01*
X170800500Y-77041746D01*
X172274500Y-77041746D01*
X172274500Y-77258253D01*
X172308370Y-77472098D01*
X172375272Y-77678006D01*
X172375273Y-77678009D01*
X172441339Y-77807669D01*
X172473567Y-77870919D01*
X172600828Y-78046078D01*
X172753922Y-78199172D01*
X172929081Y-78326433D01*
X172997519Y-78361304D01*
X173121990Y-78424726D01*
X173121993Y-78424727D01*
X173224947Y-78458178D01*
X173327903Y-78491630D01*
X173541746Y-78525500D01*
X173541747Y-78525500D01*
X173758253Y-78525500D01*
X173758254Y-78525500D01*
X173972097Y-78491630D01*
X174178009Y-78424726D01*
X174370919Y-78326433D01*
X174546078Y-78199172D01*
X174699172Y-78046078D01*
X174826433Y-77870919D01*
X174924726Y-77678009D01*
X174991630Y-77472097D01*
X175025500Y-77258254D01*
X175025500Y-77041746D01*
X174991630Y-76827903D01*
X174924726Y-76621991D01*
X174924726Y-76621990D01*
X174874642Y-76523697D01*
X174826433Y-76429081D01*
X174699172Y-76253922D01*
X174546554Y-76101304D01*
X208574500Y-76101304D01*
X208574500Y-76278695D01*
X208609103Y-76452658D01*
X208609106Y-76452667D01*
X208676983Y-76616540D01*
X208676990Y-76616553D01*
X208680037Y-76621113D01*
X208700912Y-76687792D01*
X208682425Y-76755171D01*
X208680037Y-76758887D01*
X208676990Y-76763446D01*
X208676983Y-76763459D01*
X208609106Y-76927332D01*
X208609103Y-76927341D01*
X208574500Y-77101304D01*
X208574500Y-77278695D01*
X208609103Y-77452658D01*
X208609106Y-77452667D01*
X208676983Y-77616540D01*
X208676990Y-77616553D01*
X208775535Y-77764034D01*
X208775538Y-77764038D01*
X208900961Y-77889461D01*
X208900965Y-77889464D01*
X209048446Y-77988009D01*
X209048459Y-77988016D01*
X209134028Y-78023459D01*
X209212334Y-78055894D01*
X209212336Y-78055894D01*
X209212341Y-78055896D01*
X209386304Y-78090499D01*
X209386307Y-78090500D01*
X209386309Y-78090500D01*
X209563693Y-78090500D01*
X209563694Y-78090499D01*
X209621682Y-78078964D01*
X209737658Y-78055896D01*
X209737661Y-78055894D01*
X209737666Y-78055894D01*
X209901547Y-77988013D01*
X210049035Y-77889464D01*
X210174464Y-77764035D01*
X210273013Y-77616547D01*
X210340894Y-77452666D01*
X210375500Y-77278691D01*
X210375500Y-77101309D01*
X210375500Y-77101306D01*
X210375499Y-77101304D01*
X210340896Y-76927341D01*
X210340893Y-76927332D01*
X210273015Y-76763457D01*
X210273014Y-76763455D01*
X210273013Y-76763453D01*
X210269965Y-76758892D01*
X210249086Y-76692217D01*
X210267569Y-76624837D01*
X210269962Y-76621113D01*
X210273013Y-76616547D01*
X210340894Y-76452666D01*
X210345586Y-76429081D01*
X210375499Y-76278695D01*
X210375500Y-76278693D01*
X210375500Y-76101306D01*
X210375499Y-76101304D01*
X210340896Y-75927341D01*
X210340893Y-75927332D01*
X210273016Y-75763459D01*
X210273009Y-75763446D01*
X210174464Y-75615965D01*
X210174461Y-75615961D01*
X210049038Y-75490538D01*
X210049034Y-75490535D01*
X209901553Y-75391990D01*
X209901540Y-75391983D01*
X209737667Y-75324106D01*
X209737658Y-75324103D01*
X209563694Y-75289500D01*
X209563691Y-75289500D01*
X209386309Y-75289500D01*
X209386306Y-75289500D01*
X209212341Y-75324103D01*
X209212332Y-75324106D01*
X209048459Y-75391983D01*
X209048446Y-75391990D01*
X208900965Y-75490535D01*
X208900961Y-75490538D01*
X208775538Y-75615961D01*
X208775535Y-75615965D01*
X208676990Y-75763446D01*
X208676983Y-75763459D01*
X208609106Y-75927332D01*
X208609103Y-75927341D01*
X208574500Y-76101304D01*
X174546554Y-76101304D01*
X174546078Y-76100828D01*
X174370919Y-75973567D01*
X174178009Y-75875273D01*
X174178006Y-75875272D01*
X173972098Y-75808370D01*
X173865175Y-75791435D01*
X173758254Y-75774500D01*
X173541746Y-75774500D01*
X173470465Y-75785790D01*
X173327901Y-75808370D01*
X173121993Y-75875272D01*
X173121990Y-75875273D01*
X172929080Y-75973567D01*
X172829145Y-76046174D01*
X172753922Y-76100828D01*
X172753920Y-76100830D01*
X172753919Y-76100830D01*
X172600830Y-76253919D01*
X172600830Y-76253920D01*
X172600828Y-76253922D01*
X172546174Y-76329145D01*
X172473567Y-76429080D01*
X172375273Y-76621990D01*
X172375272Y-76621993D01*
X172308370Y-76827901D01*
X172274500Y-77041746D01*
X170800500Y-77041746D01*
X170800500Y-76961306D01*
X170800499Y-76961304D01*
X170765896Y-76787341D01*
X170765893Y-76787332D01*
X170698016Y-76623459D01*
X170698009Y-76623446D01*
X170599464Y-76475965D01*
X170599461Y-76475961D01*
X170474038Y-76350538D01*
X170474034Y-76350535D01*
X170326553Y-76251990D01*
X170326540Y-76251983D01*
X170162667Y-76184106D01*
X170162658Y-76184103D01*
X169988694Y-76149500D01*
X169988691Y-76149500D01*
X169811309Y-76149500D01*
X169811306Y-76149500D01*
X169637341Y-76184103D01*
X169637332Y-76184106D01*
X169473459Y-76251983D01*
X169473446Y-76251990D01*
X169325965Y-76350535D01*
X169325961Y-76350538D01*
X169200538Y-76475961D01*
X169200535Y-76475965D01*
X169101990Y-76623446D01*
X169101983Y-76623459D01*
X169034106Y-76787332D01*
X169034103Y-76787341D01*
X168999500Y-76961304D01*
X168999500Y-77138695D01*
X169034103Y-77312658D01*
X169034106Y-77312667D01*
X169068987Y-77396878D01*
X169076456Y-77466348D01*
X169045180Y-77528827D01*
X168985091Y-77564479D01*
X168978619Y-77565947D01*
X168887338Y-77584104D01*
X168887332Y-77584106D01*
X168723459Y-77651983D01*
X168723446Y-77651990D01*
X168575965Y-77750535D01*
X168575961Y-77750538D01*
X168450538Y-77875961D01*
X168450535Y-77875965D01*
X168351990Y-78023446D01*
X168351983Y-78023459D01*
X168284106Y-78187332D01*
X168284103Y-78187341D01*
X168249500Y-78361304D01*
X167800499Y-78361304D01*
X167765896Y-78187341D01*
X167765893Y-78187332D01*
X167731011Y-78103120D01*
X167723543Y-78033652D01*
X167754818Y-77971173D01*
X167814907Y-77935521D01*
X167821382Y-77934052D01*
X167912658Y-77915896D01*
X167912661Y-77915894D01*
X167912666Y-77915894D01*
X168076547Y-77848013D01*
X168224035Y-77749464D01*
X168349464Y-77624035D01*
X168448013Y-77476547D01*
X168515894Y-77312666D01*
X168522652Y-77278695D01*
X168550499Y-77138695D01*
X168550500Y-77138693D01*
X168550500Y-76961306D01*
X168550499Y-76961304D01*
X168515896Y-76787341D01*
X168515893Y-76787332D01*
X168448016Y-76623459D01*
X168448009Y-76623446D01*
X168349464Y-76475965D01*
X168349461Y-76475961D01*
X168224038Y-76350538D01*
X168224034Y-76350535D01*
X168076553Y-76251990D01*
X168076540Y-76251983D01*
X167912667Y-76184106D01*
X167912658Y-76184103D01*
X167738694Y-76149500D01*
X167738691Y-76149500D01*
X167561309Y-76149500D01*
X167561306Y-76149500D01*
X167387341Y-76184103D01*
X167387332Y-76184106D01*
X167223459Y-76251983D01*
X167223446Y-76251990D01*
X167075965Y-76350535D01*
X167075961Y-76350538D01*
X166950538Y-76475961D01*
X166950535Y-76475965D01*
X166851990Y-76623446D01*
X166851983Y-76623459D01*
X166784106Y-76787332D01*
X166784103Y-76787341D01*
X166749500Y-76961304D01*
X166749500Y-77138695D01*
X166784103Y-77312658D01*
X166784106Y-77312667D01*
X166818987Y-77396878D01*
X166826456Y-77466348D01*
X166795180Y-77528827D01*
X166735091Y-77564479D01*
X166728619Y-77565947D01*
X166637338Y-77584104D01*
X166637332Y-77584106D01*
X166473459Y-77651983D01*
X166473446Y-77651990D01*
X166325965Y-77750535D01*
X166325961Y-77750538D01*
X166200538Y-77875961D01*
X166200535Y-77875965D01*
X166101990Y-78023446D01*
X166101983Y-78023459D01*
X166034106Y-78187332D01*
X166034103Y-78187341D01*
X165999500Y-78361304D01*
X165550499Y-78361304D01*
X165550499Y-78039968D01*
X165570184Y-77972930D01*
X165622988Y-77927175D01*
X165650307Y-77918352D01*
X165662666Y-77915894D01*
X165826547Y-77848013D01*
X165974035Y-77749464D01*
X166099464Y-77624035D01*
X166198013Y-77476547D01*
X166265894Y-77312666D01*
X166272652Y-77278695D01*
X166300499Y-77138695D01*
X166300500Y-77138693D01*
X166300500Y-76961306D01*
X166300499Y-76961304D01*
X166265896Y-76787341D01*
X166265893Y-76787332D01*
X166198016Y-76623459D01*
X166198009Y-76623446D01*
X166099464Y-76475965D01*
X166099461Y-76475961D01*
X165974038Y-76350538D01*
X165974034Y-76350535D01*
X165826553Y-76251990D01*
X165826540Y-76251983D01*
X165662667Y-76184106D01*
X165662658Y-76184103D01*
X165488694Y-76149500D01*
X165488691Y-76149500D01*
X165311309Y-76149500D01*
X165311306Y-76149500D01*
X165137341Y-76184103D01*
X165137332Y-76184106D01*
X164973459Y-76251983D01*
X164973446Y-76251990D01*
X164825965Y-76350535D01*
X164825961Y-76350538D01*
X164700538Y-76475961D01*
X164700535Y-76475965D01*
X164601990Y-76623446D01*
X164601983Y-76623459D01*
X164534106Y-76787332D01*
X164534103Y-76787341D01*
X164499500Y-76961304D01*
X164499500Y-77138695D01*
X164534103Y-77312658D01*
X164534105Y-77312662D01*
X164534106Y-77312666D01*
X164554096Y-77360928D01*
X164561188Y-77378049D01*
X164568655Y-77447519D01*
X164537380Y-77509997D01*
X164477290Y-77545649D01*
X164446627Y-77549500D01*
X164202130Y-77549500D01*
X164202123Y-77549501D01*
X164142516Y-77555908D01*
X164007671Y-77606202D01*
X164007664Y-77606206D01*
X163892455Y-77692452D01*
X163892452Y-77692455D01*
X163806206Y-77807664D01*
X163806202Y-77807671D01*
X163755908Y-77942517D01*
X163749501Y-78002116D01*
X163749500Y-78002135D01*
X162731099Y-78002135D01*
X162826433Y-77870919D01*
X162924726Y-77678009D01*
X162991630Y-77472097D01*
X163025500Y-77258254D01*
X163025500Y-77041746D01*
X162991630Y-76827903D01*
X162924726Y-76621991D01*
X162924726Y-76621990D01*
X162874642Y-76523697D01*
X162826433Y-76429081D01*
X162699172Y-76253922D01*
X162546078Y-76100828D01*
X162370919Y-75973567D01*
X162178009Y-75875273D01*
X162178006Y-75875272D01*
X161972098Y-75808370D01*
X161865175Y-75791435D01*
X161758254Y-75774500D01*
X161541746Y-75774500D01*
X161470465Y-75785790D01*
X161327901Y-75808370D01*
X161121993Y-75875272D01*
X161121990Y-75875273D01*
X160929080Y-75973567D01*
X160829145Y-76046174D01*
X160753922Y-76100828D01*
X160753920Y-76100830D01*
X160753919Y-76100830D01*
X160600830Y-76253919D01*
X160600830Y-76253920D01*
X160600828Y-76253922D01*
X160546174Y-76329145D01*
X160473567Y-76429080D01*
X160375273Y-76621990D01*
X160375272Y-76621993D01*
X160308370Y-76827901D01*
X160274500Y-77041746D01*
X128788653Y-77041746D01*
X128765895Y-76927340D01*
X128765894Y-76927334D01*
X128724708Y-76827901D01*
X128698015Y-76763457D01*
X128698014Y-76763455D01*
X128698013Y-76763453D01*
X128694965Y-76758892D01*
X128674086Y-76692217D01*
X128692569Y-76624837D01*
X128694962Y-76621113D01*
X128698013Y-76616547D01*
X128765894Y-76452666D01*
X128770586Y-76429081D01*
X128800499Y-76278695D01*
X128800500Y-76278693D01*
X128800500Y-76101306D01*
X128800499Y-76101304D01*
X128765896Y-75927341D01*
X128765893Y-75927332D01*
X128698016Y-75763459D01*
X128698009Y-75763446D01*
X128599464Y-75615965D01*
X128599461Y-75615961D01*
X128474038Y-75490538D01*
X128474034Y-75490535D01*
X128326553Y-75391990D01*
X128326540Y-75391983D01*
X128162667Y-75324106D01*
X128162658Y-75324103D01*
X127988694Y-75289500D01*
X127988691Y-75289500D01*
X127811309Y-75289500D01*
X127811306Y-75289500D01*
X127637341Y-75324103D01*
X127637332Y-75324106D01*
X127473459Y-75391983D01*
X127473446Y-75391990D01*
X127325965Y-75490535D01*
X127325961Y-75490538D01*
X127200538Y-75615961D01*
X127200535Y-75615965D01*
X127101990Y-75763446D01*
X127101983Y-75763459D01*
X127034106Y-75927332D01*
X127034103Y-75927341D01*
X126999500Y-76101304D01*
X111600500Y-76101304D01*
X111600499Y-75391990D01*
X111600499Y-74562129D01*
X111600498Y-74562123D01*
X111600497Y-74562116D01*
X111594091Y-74502517D01*
X111543796Y-74367669D01*
X111543795Y-74367668D01*
X111543793Y-74367664D01*
X111457547Y-74252455D01*
X111457544Y-74252452D01*
X111342335Y-74166206D01*
X111342328Y-74166202D01*
X111207482Y-74115908D01*
X111207483Y-74115908D01*
X111147883Y-74109501D01*
X111147881Y-74109500D01*
X111147873Y-74109500D01*
X111147864Y-74109500D01*
X109352129Y-74109500D01*
X109352123Y-74109501D01*
X109292516Y-74115908D01*
X109157671Y-74166202D01*
X109157664Y-74166206D01*
X109042455Y-74252452D01*
X109042452Y-74252455D01*
X108956206Y-74367664D01*
X108956202Y-74367671D01*
X108905908Y-74502517D01*
X108899877Y-74558621D01*
X108899501Y-74562123D01*
X108899500Y-74562135D01*
X91754230Y-74562135D01*
X91763765Y-68161304D01*
X101349500Y-68161304D01*
X101349500Y-68338695D01*
X101384103Y-68512658D01*
X101384106Y-68512667D01*
X101451983Y-68676540D01*
X101451990Y-68676553D01*
X101550535Y-68824034D01*
X101550538Y-68824038D01*
X101675961Y-68949461D01*
X101675965Y-68949464D01*
X101823446Y-69048009D01*
X101823459Y-69048016D01*
X101921659Y-69088691D01*
X101987334Y-69115894D01*
X101987336Y-69115894D01*
X101987341Y-69115896D01*
X102161304Y-69150499D01*
X102161307Y-69150500D01*
X102161309Y-69150500D01*
X102338693Y-69150500D01*
X102338694Y-69150499D01*
X102429972Y-69132343D01*
X102512658Y-69115896D01*
X102512661Y-69115894D01*
X102512666Y-69115894D01*
X102676547Y-69048013D01*
X102824035Y-68949464D01*
X102949464Y-68824035D01*
X103048013Y-68676547D01*
X103115894Y-68512666D01*
X103150500Y-68338691D01*
X103150500Y-68161309D01*
X103150500Y-68161306D01*
X103150499Y-68161304D01*
X103115896Y-67987341D01*
X103115893Y-67987332D01*
X103048016Y-67823459D01*
X103048009Y-67823446D01*
X102949464Y-67675965D01*
X102949461Y-67675961D01*
X102824038Y-67550538D01*
X102824034Y-67550535D01*
X102676553Y-67451990D01*
X102676540Y-67451983D01*
X102512667Y-67384106D01*
X102512658Y-67384103D01*
X102338694Y-67349500D01*
X102338691Y-67349500D01*
X102161309Y-67349500D01*
X102161306Y-67349500D01*
X101987341Y-67384103D01*
X101987332Y-67384106D01*
X101823459Y-67451983D01*
X101823446Y-67451990D01*
X101675965Y-67550535D01*
X101675961Y-67550538D01*
X101550538Y-67675961D01*
X101550535Y-67675965D01*
X101451990Y-67823446D01*
X101451983Y-67823459D01*
X101384106Y-67987332D01*
X101384103Y-67987341D01*
X101349500Y-68161304D01*
X91763765Y-68161304D01*
X91766137Y-66569201D01*
X107751336Y-66569201D01*
X107751336Y-66746592D01*
X107785939Y-66920555D01*
X107785942Y-66920564D01*
X107853819Y-67084437D01*
X107853826Y-67084450D01*
X107952371Y-67231931D01*
X107952374Y-67231935D01*
X108077797Y-67357358D01*
X108077801Y-67357361D01*
X108225282Y-67455906D01*
X108225295Y-67455913D01*
X108389168Y-67523790D01*
X108389170Y-67523791D01*
X108453240Y-67536535D01*
X108515149Y-67568919D01*
X108549723Y-67629635D01*
X108550664Y-67633961D01*
X108551667Y-67639003D01*
X108551670Y-67639015D01*
X108619546Y-67802885D01*
X108619553Y-67802898D01*
X108718098Y-67950379D01*
X108718101Y-67950383D01*
X108843524Y-68075806D01*
X108843528Y-68075809D01*
X108991009Y-68174354D01*
X108991013Y-68174356D01*
X108991016Y-68174358D01*
X109022950Y-68187585D01*
X109077355Y-68231425D01*
X109099421Y-68297719D01*
X109099500Y-68302147D01*
X109099500Y-68338695D01*
X109134103Y-68512658D01*
X109134106Y-68512667D01*
X109201983Y-68676540D01*
X109201990Y-68676553D01*
X109300535Y-68824034D01*
X109300538Y-68824038D01*
X109425961Y-68949461D01*
X109425965Y-68949464D01*
X109573446Y-69048009D01*
X109573459Y-69048016D01*
X109671659Y-69088691D01*
X109737334Y-69115894D01*
X109737336Y-69115894D01*
X109737341Y-69115896D01*
X109911304Y-69150499D01*
X109911307Y-69150500D01*
X109911309Y-69150500D01*
X110088693Y-69150500D01*
X110088694Y-69150499D01*
X110179972Y-69132343D01*
X110262658Y-69115896D01*
X110262661Y-69115894D01*
X110262666Y-69115894D01*
X110426547Y-69048013D01*
X110426552Y-69048009D01*
X110428111Y-69047177D01*
X110429027Y-69046986D01*
X110432176Y-69045682D01*
X110432423Y-69046279D01*
X110496513Y-69032935D01*
X110561757Y-69057934D01*
X110603128Y-69114239D01*
X110608182Y-69132343D01*
X110634104Y-69262659D01*
X110634106Y-69262667D01*
X110701983Y-69426540D01*
X110701990Y-69426553D01*
X110800535Y-69574034D01*
X110800538Y-69574038D01*
X110925961Y-69699461D01*
X110925965Y-69699464D01*
X111073446Y-69798009D01*
X111073459Y-69798016D01*
X111196363Y-69848923D01*
X111237334Y-69865894D01*
X111237336Y-69865894D01*
X111237341Y-69865896D01*
X111411304Y-69900499D01*
X111411307Y-69900500D01*
X111411309Y-69900500D01*
X111588693Y-69900500D01*
X111588694Y-69900499D01*
X111646682Y-69888964D01*
X111762658Y-69865896D01*
X111762661Y-69865894D01*
X111762666Y-69865894D01*
X111926547Y-69798013D01*
X112074035Y-69699464D01*
X112199464Y-69574035D01*
X112298013Y-69426547D01*
X112365894Y-69262666D01*
X112365894Y-69262661D01*
X112365896Y-69262658D01*
X112391817Y-69132343D01*
X112400500Y-69088691D01*
X112400500Y-68911309D01*
X112400500Y-68911306D01*
X112400499Y-68911304D01*
X140099500Y-68911304D01*
X140099500Y-69088695D01*
X140134103Y-69262658D01*
X140134106Y-69262667D01*
X140201983Y-69426540D01*
X140201990Y-69426553D01*
X140300535Y-69574034D01*
X140300538Y-69574038D01*
X140425961Y-69699461D01*
X140425965Y-69699464D01*
X140573446Y-69798009D01*
X140573459Y-69798016D01*
X140696363Y-69848923D01*
X140737334Y-69865894D01*
X140737336Y-69865894D01*
X140737341Y-69865896D01*
X140911304Y-69900499D01*
X140911307Y-69900500D01*
X140911309Y-69900500D01*
X141088693Y-69900500D01*
X141088694Y-69900499D01*
X141146682Y-69888964D01*
X141262658Y-69865896D01*
X141262661Y-69865894D01*
X141262666Y-69865894D01*
X141426547Y-69798013D01*
X141574035Y-69699464D01*
X141699464Y-69574035D01*
X141798013Y-69426547D01*
X141865894Y-69262666D01*
X141865894Y-69262661D01*
X141865896Y-69262658D01*
X141891817Y-69132343D01*
X141900500Y-69088691D01*
X141900500Y-68911309D01*
X141900500Y-68911306D01*
X141900499Y-68911304D01*
X160099500Y-68911304D01*
X160099500Y-69088695D01*
X160134103Y-69262658D01*
X160134106Y-69262667D01*
X160201983Y-69426540D01*
X160201990Y-69426553D01*
X160300535Y-69574034D01*
X160300538Y-69574038D01*
X160425961Y-69699461D01*
X160425965Y-69699464D01*
X160573446Y-69798009D01*
X160573459Y-69798016D01*
X160696363Y-69848923D01*
X160737334Y-69865894D01*
X160737336Y-69865894D01*
X160737341Y-69865896D01*
X160911304Y-69900499D01*
X160911307Y-69900500D01*
X160911309Y-69900500D01*
X161088693Y-69900500D01*
X161088694Y-69900499D01*
X161146682Y-69888964D01*
X161262658Y-69865896D01*
X161262661Y-69865894D01*
X161262666Y-69865894D01*
X161426547Y-69798013D01*
X161574035Y-69699464D01*
X161699464Y-69574035D01*
X161798013Y-69426547D01*
X161865894Y-69262666D01*
X161865894Y-69262661D01*
X161865896Y-69262658D01*
X161891817Y-69132343D01*
X161900500Y-69088691D01*
X161900500Y-68911309D01*
X161900500Y-68911306D01*
X161900499Y-68911304D01*
X191099500Y-68911304D01*
X191099500Y-69088695D01*
X191134103Y-69262658D01*
X191134106Y-69262667D01*
X191201983Y-69426540D01*
X191201990Y-69426553D01*
X191300535Y-69574034D01*
X191300538Y-69574038D01*
X191425961Y-69699461D01*
X191425965Y-69699464D01*
X191573446Y-69798009D01*
X191573459Y-69798016D01*
X191696363Y-69848923D01*
X191737334Y-69865894D01*
X191737336Y-69865894D01*
X191737341Y-69865896D01*
X191911304Y-69900499D01*
X191911307Y-69900500D01*
X191911309Y-69900500D01*
X192088693Y-69900500D01*
X192088694Y-69900499D01*
X192146682Y-69888964D01*
X192262658Y-69865896D01*
X192262661Y-69865894D01*
X192262666Y-69865894D01*
X192426547Y-69798013D01*
X192574035Y-69699464D01*
X192699464Y-69574035D01*
X192798013Y-69426547D01*
X192865894Y-69262666D01*
X192865894Y-69262661D01*
X192865896Y-69262658D01*
X192891817Y-69132343D01*
X192900500Y-69088691D01*
X192900500Y-68911309D01*
X192900500Y-68911306D01*
X192900499Y-68911304D01*
X203899500Y-68911304D01*
X203899500Y-69088695D01*
X203934103Y-69262658D01*
X203934106Y-69262667D01*
X204001983Y-69426540D01*
X204001990Y-69426553D01*
X204100535Y-69574034D01*
X204100538Y-69574038D01*
X204225961Y-69699461D01*
X204225965Y-69699464D01*
X204373446Y-69798009D01*
X204373459Y-69798016D01*
X204496363Y-69848923D01*
X204537334Y-69865894D01*
X204537336Y-69865894D01*
X204537341Y-69865896D01*
X204711304Y-69900499D01*
X204711307Y-69900500D01*
X204711309Y-69900500D01*
X204888693Y-69900500D01*
X204888694Y-69900499D01*
X204946682Y-69888964D01*
X205062658Y-69865896D01*
X205062661Y-69865894D01*
X205062666Y-69865894D01*
X205226547Y-69798013D01*
X205374035Y-69699464D01*
X205499464Y-69574035D01*
X205598013Y-69426547D01*
X205665894Y-69262666D01*
X205665894Y-69262661D01*
X205665896Y-69262658D01*
X205691817Y-69132343D01*
X205700500Y-69088691D01*
X205700500Y-68911309D01*
X205700500Y-68911306D01*
X205700499Y-68911304D01*
X205665896Y-68737341D01*
X205665893Y-68737332D01*
X205598016Y-68573459D01*
X205598009Y-68573446D01*
X205499464Y-68425965D01*
X205499461Y-68425961D01*
X205374038Y-68300538D01*
X205374034Y-68300535D01*
X205226553Y-68201990D01*
X205226540Y-68201983D01*
X205062667Y-68134106D01*
X205062658Y-68134103D01*
X204888694Y-68099500D01*
X204888691Y-68099500D01*
X204711309Y-68099500D01*
X204711306Y-68099500D01*
X204537341Y-68134103D01*
X204537332Y-68134106D01*
X204373459Y-68201983D01*
X204373446Y-68201990D01*
X204225965Y-68300535D01*
X204225961Y-68300538D01*
X204100538Y-68425961D01*
X204100535Y-68425965D01*
X204001990Y-68573446D01*
X204001983Y-68573459D01*
X203934106Y-68737332D01*
X203934103Y-68737341D01*
X203899500Y-68911304D01*
X192900499Y-68911304D01*
X192865896Y-68737341D01*
X192865893Y-68737332D01*
X192798016Y-68573459D01*
X192798009Y-68573446D01*
X192699464Y-68425965D01*
X192699461Y-68425961D01*
X192574038Y-68300538D01*
X192574034Y-68300535D01*
X192426553Y-68201990D01*
X192426540Y-68201983D01*
X192262667Y-68134106D01*
X192262658Y-68134103D01*
X192088694Y-68099500D01*
X192088691Y-68099500D01*
X191911309Y-68099500D01*
X191911306Y-68099500D01*
X191737341Y-68134103D01*
X191737332Y-68134106D01*
X191573459Y-68201983D01*
X191573446Y-68201990D01*
X191425965Y-68300535D01*
X191425961Y-68300538D01*
X191300538Y-68425961D01*
X191300535Y-68425965D01*
X191201990Y-68573446D01*
X191201983Y-68573459D01*
X191134106Y-68737332D01*
X191134103Y-68737341D01*
X191099500Y-68911304D01*
X161900499Y-68911304D01*
X161865896Y-68737341D01*
X161865893Y-68737332D01*
X161798016Y-68573459D01*
X161798009Y-68573446D01*
X161699464Y-68425965D01*
X161699461Y-68425961D01*
X161574038Y-68300538D01*
X161574034Y-68300535D01*
X161426553Y-68201990D01*
X161426540Y-68201983D01*
X161262667Y-68134106D01*
X161262658Y-68134103D01*
X161088694Y-68099500D01*
X161088691Y-68099500D01*
X160911309Y-68099500D01*
X160911306Y-68099500D01*
X160737341Y-68134103D01*
X160737332Y-68134106D01*
X160573459Y-68201983D01*
X160573446Y-68201990D01*
X160425965Y-68300535D01*
X160425961Y-68300538D01*
X160300538Y-68425961D01*
X160300535Y-68425965D01*
X160201990Y-68573446D01*
X160201983Y-68573459D01*
X160134106Y-68737332D01*
X160134103Y-68737341D01*
X160099500Y-68911304D01*
X141900499Y-68911304D01*
X141865896Y-68737341D01*
X141865893Y-68737332D01*
X141798016Y-68573459D01*
X141798009Y-68573446D01*
X141699464Y-68425965D01*
X141699461Y-68425961D01*
X141574038Y-68300538D01*
X141574034Y-68300535D01*
X141426553Y-68201990D01*
X141426540Y-68201983D01*
X141262667Y-68134106D01*
X141262658Y-68134103D01*
X141088694Y-68099500D01*
X141088691Y-68099500D01*
X140911309Y-68099500D01*
X140911306Y-68099500D01*
X140737341Y-68134103D01*
X140737332Y-68134106D01*
X140573459Y-68201983D01*
X140573446Y-68201990D01*
X140425965Y-68300535D01*
X140425961Y-68300538D01*
X140300538Y-68425961D01*
X140300535Y-68425965D01*
X140201990Y-68573446D01*
X140201983Y-68573459D01*
X140134106Y-68737332D01*
X140134103Y-68737341D01*
X140099500Y-68911304D01*
X112400499Y-68911304D01*
X112365896Y-68737341D01*
X112365893Y-68737332D01*
X112298016Y-68573459D01*
X112298009Y-68573446D01*
X112199464Y-68425965D01*
X112199461Y-68425961D01*
X112074038Y-68300538D01*
X112074034Y-68300535D01*
X111926553Y-68201990D01*
X111926540Y-68201983D01*
X111762667Y-68134106D01*
X111762658Y-68134103D01*
X111588694Y-68099500D01*
X111588691Y-68099500D01*
X111411309Y-68099500D01*
X111411306Y-68099500D01*
X111237341Y-68134103D01*
X111237332Y-68134106D01*
X111073450Y-68201987D01*
X111071870Y-68202832D01*
X111070949Y-68203023D01*
X111067824Y-68204318D01*
X111067578Y-68203724D01*
X111003465Y-68217063D01*
X110938225Y-68192052D01*
X110896863Y-68135740D01*
X110891817Y-68117655D01*
X110865896Y-67987341D01*
X110865893Y-67987332D01*
X110798016Y-67823459D01*
X110798009Y-67823446D01*
X110699464Y-67675965D01*
X110699461Y-67675961D01*
X110574038Y-67550538D01*
X110574034Y-67550535D01*
X110500791Y-67501596D01*
X110426547Y-67451987D01*
X110426545Y-67451986D01*
X110394607Y-67438756D01*
X110340205Y-67394914D01*
X110318142Y-67328619D01*
X110318063Y-67324196D01*
X110318063Y-67287651D01*
X110318062Y-67287649D01*
X110283459Y-67113686D01*
X110283456Y-67113677D01*
X110215579Y-66949804D01*
X110215572Y-66949791D01*
X110117027Y-66802310D01*
X110117024Y-66802306D01*
X109991601Y-66676883D01*
X109991597Y-66676880D01*
X109844116Y-66578335D01*
X109844103Y-66578328D01*
X109680233Y-66510452D01*
X109680223Y-66510449D01*
X109616159Y-66497706D01*
X109554248Y-66465321D01*
X109526077Y-66424229D01*
X109521190Y-66412630D01*
X109517730Y-66395231D01*
X109449849Y-66231350D01*
X109436250Y-66210999D01*
X109431656Y-66200092D01*
X109428994Y-66176664D01*
X109421950Y-66154166D01*
X109425124Y-66142593D01*
X109423770Y-66130668D01*
X109434197Y-66109520D01*
X109440434Y-66086786D01*
X109448305Y-66075769D01*
X109449465Y-66074034D01*
X109548013Y-65926547D01*
X109615894Y-65762666D01*
X109650500Y-65588691D01*
X109650500Y-65411309D01*
X109650500Y-65411306D01*
X109650499Y-65411304D01*
X109615896Y-65237341D01*
X109615893Y-65237332D01*
X109548016Y-65073459D01*
X109548009Y-65073446D01*
X109449464Y-64925965D01*
X109449461Y-64925961D01*
X109324038Y-64800538D01*
X109324034Y-64800535D01*
X109176553Y-64701990D01*
X109176540Y-64701983D01*
X109012667Y-64634106D01*
X109012658Y-64634103D01*
X108838694Y-64599500D01*
X108838691Y-64599500D01*
X108661309Y-64599500D01*
X108661306Y-64599500D01*
X108487341Y-64634103D01*
X108487332Y-64634106D01*
X108323459Y-64701983D01*
X108323446Y-64701990D01*
X108175965Y-64800535D01*
X108175961Y-64800538D01*
X108050538Y-64925961D01*
X108050535Y-64925965D01*
X107951990Y-65073446D01*
X107951983Y-65073459D01*
X107884106Y-65237332D01*
X107884103Y-65237341D01*
X107849500Y-65411304D01*
X107849500Y-65588695D01*
X107884103Y-65762658D01*
X107884106Y-65762667D01*
X107951984Y-65926542D01*
X107959008Y-65937054D01*
X107979885Y-66003732D01*
X107961400Y-66071112D01*
X107953513Y-66082153D01*
X107853826Y-66231343D01*
X107853819Y-66231356D01*
X107785942Y-66395229D01*
X107785939Y-66395238D01*
X107751336Y-66569201D01*
X91766137Y-66569201D01*
X91769352Y-64411304D01*
X125849500Y-64411304D01*
X125849500Y-64588695D01*
X125884103Y-64762658D01*
X125884106Y-64762667D01*
X125951983Y-64926540D01*
X125951990Y-64926553D01*
X126050535Y-65074034D01*
X126050538Y-65074038D01*
X126175961Y-65199461D01*
X126175965Y-65199464D01*
X126323446Y-65298009D01*
X126323459Y-65298016D01*
X126446363Y-65348923D01*
X126487334Y-65365894D01*
X126487336Y-65365894D01*
X126487341Y-65365896D01*
X126661304Y-65400499D01*
X126661307Y-65400500D01*
X126661309Y-65400500D01*
X126838693Y-65400500D01*
X126838694Y-65400499D01*
X126920003Y-65384326D01*
X127012658Y-65365896D01*
X127012661Y-65365894D01*
X127012666Y-65365894D01*
X127176547Y-65298013D01*
X127324035Y-65199464D01*
X127449464Y-65074035D01*
X127548013Y-64926547D01*
X127615894Y-64762666D01*
X127632859Y-64677380D01*
X127636057Y-64661304D01*
X157349500Y-64661304D01*
X157349500Y-64838695D01*
X157384103Y-65012658D01*
X157384106Y-65012667D01*
X157451983Y-65176540D01*
X157451990Y-65176553D01*
X157550535Y-65324034D01*
X157550538Y-65324038D01*
X157675961Y-65449461D01*
X157675965Y-65449464D01*
X157823446Y-65548009D01*
X157823459Y-65548016D01*
X157921659Y-65588691D01*
X157987334Y-65615894D01*
X157987336Y-65615894D01*
X157987341Y-65615896D01*
X158161304Y-65650499D01*
X158161307Y-65650500D01*
X158161309Y-65650500D01*
X158338693Y-65650500D01*
X158338694Y-65650499D01*
X158396682Y-65638964D01*
X158512658Y-65615896D01*
X158512661Y-65615894D01*
X158512666Y-65615894D01*
X158676547Y-65548013D01*
X158824035Y-65449464D01*
X158949464Y-65324035D01*
X159048013Y-65176547D01*
X159115894Y-65012666D01*
X159150500Y-64838691D01*
X159150500Y-64661309D01*
X159150500Y-64661306D01*
X159150499Y-64661304D01*
X188099500Y-64661304D01*
X188099500Y-64838695D01*
X188134103Y-65012658D01*
X188134106Y-65012667D01*
X188201983Y-65176540D01*
X188201990Y-65176553D01*
X188300535Y-65324034D01*
X188300538Y-65324038D01*
X188425961Y-65449461D01*
X188425965Y-65449464D01*
X188573446Y-65548009D01*
X188573459Y-65548016D01*
X188671659Y-65588691D01*
X188737334Y-65615894D01*
X188737336Y-65615894D01*
X188737341Y-65615896D01*
X188911304Y-65650499D01*
X188911307Y-65650500D01*
X188911309Y-65650500D01*
X189088693Y-65650500D01*
X189088694Y-65650499D01*
X189146682Y-65638964D01*
X189262658Y-65615896D01*
X189262661Y-65615894D01*
X189262666Y-65615894D01*
X189426547Y-65548013D01*
X189574035Y-65449464D01*
X189699464Y-65324035D01*
X189798013Y-65176547D01*
X189865894Y-65012666D01*
X189900500Y-64838691D01*
X189900500Y-64661309D01*
X189900500Y-64661306D01*
X189900499Y-64661304D01*
X189865896Y-64487341D01*
X189865894Y-64487336D01*
X189865894Y-64487334D01*
X189834402Y-64411304D01*
X219099500Y-64411304D01*
X219099500Y-64588695D01*
X219134103Y-64762658D01*
X219134106Y-64762667D01*
X219201983Y-64926540D01*
X219201990Y-64926553D01*
X219300535Y-65074034D01*
X219300538Y-65074038D01*
X219425961Y-65199461D01*
X219425965Y-65199464D01*
X219573446Y-65298009D01*
X219573459Y-65298016D01*
X219696363Y-65348923D01*
X219737334Y-65365894D01*
X219737336Y-65365894D01*
X219737341Y-65365896D01*
X219911304Y-65400499D01*
X219911307Y-65400500D01*
X219911309Y-65400500D01*
X220088693Y-65400500D01*
X220201308Y-65378099D01*
X220270900Y-65384326D01*
X220326077Y-65427189D01*
X220349322Y-65493078D01*
X220349500Y-65499716D01*
X220349500Y-65588695D01*
X220384103Y-65762658D01*
X220384106Y-65762667D01*
X220451983Y-65926540D01*
X220451990Y-65926553D01*
X220550535Y-66074034D01*
X220550538Y-66074038D01*
X220675961Y-66199461D01*
X220675965Y-66199464D01*
X220823446Y-66298009D01*
X220823459Y-66298016D01*
X220946363Y-66348923D01*
X220987334Y-66365894D01*
X220987336Y-66365894D01*
X220987341Y-66365896D01*
X221161304Y-66400499D01*
X221161307Y-66400500D01*
X221161309Y-66400500D01*
X221338693Y-66400500D01*
X221338694Y-66400499D01*
X221396682Y-66388964D01*
X221512658Y-66365896D01*
X221512661Y-66365894D01*
X221512666Y-66365894D01*
X221676547Y-66298013D01*
X221824035Y-66199464D01*
X221949464Y-66074035D01*
X222048013Y-65926547D01*
X222115894Y-65762666D01*
X222150500Y-65588691D01*
X222150500Y-65411309D01*
X222150500Y-65411306D01*
X222150499Y-65411304D01*
X222115896Y-65237341D01*
X222115893Y-65237332D01*
X222048016Y-65073459D01*
X222048009Y-65073446D01*
X221949464Y-64925965D01*
X221949461Y-64925961D01*
X221824038Y-64800538D01*
X221824034Y-64800535D01*
X221676553Y-64701990D01*
X221676540Y-64701983D01*
X221512667Y-64634106D01*
X221512658Y-64634103D01*
X221338694Y-64599500D01*
X221338691Y-64599500D01*
X221161309Y-64599500D01*
X221161304Y-64599500D01*
X221048691Y-64621900D01*
X220979099Y-64615673D01*
X220923922Y-64572809D01*
X220900678Y-64506920D01*
X220900500Y-64500283D01*
X220900500Y-64411306D01*
X220900499Y-64411304D01*
X220865896Y-64237341D01*
X220865893Y-64237332D01*
X220798016Y-64073459D01*
X220798009Y-64073446D01*
X220699464Y-63925965D01*
X220699461Y-63925961D01*
X220574038Y-63800538D01*
X220574034Y-63800535D01*
X220426553Y-63701990D01*
X220426540Y-63701983D01*
X220262667Y-63634106D01*
X220262658Y-63634103D01*
X220088694Y-63599500D01*
X220088691Y-63599500D01*
X219911309Y-63599500D01*
X219911306Y-63599500D01*
X219737341Y-63634103D01*
X219737332Y-63634106D01*
X219573459Y-63701983D01*
X219573446Y-63701990D01*
X219425965Y-63800535D01*
X219425961Y-63800538D01*
X219300538Y-63925961D01*
X219300535Y-63925965D01*
X219201990Y-64073446D01*
X219201983Y-64073459D01*
X219134106Y-64237332D01*
X219134103Y-64237341D01*
X219099500Y-64411304D01*
X189834402Y-64411304D01*
X189798013Y-64323453D01*
X189798011Y-64323450D01*
X189798009Y-64323446D01*
X189699464Y-64175965D01*
X189699461Y-64175961D01*
X189574038Y-64050538D01*
X189574034Y-64050535D01*
X189426553Y-63951990D01*
X189426540Y-63951983D01*
X189262667Y-63884106D01*
X189262658Y-63884103D01*
X189088694Y-63849500D01*
X189088691Y-63849500D01*
X188911309Y-63849500D01*
X188911306Y-63849500D01*
X188737341Y-63884103D01*
X188737332Y-63884106D01*
X188573459Y-63951983D01*
X188573446Y-63951990D01*
X188425965Y-64050535D01*
X188425961Y-64050538D01*
X188300538Y-64175961D01*
X188300535Y-64175965D01*
X188201990Y-64323446D01*
X188201983Y-64323459D01*
X188134106Y-64487332D01*
X188134103Y-64487341D01*
X188099500Y-64661304D01*
X159150499Y-64661304D01*
X159115896Y-64487341D01*
X159115893Y-64487332D01*
X159048016Y-64323459D01*
X159048009Y-64323446D01*
X158949464Y-64175965D01*
X158949461Y-64175961D01*
X158824038Y-64050538D01*
X158824034Y-64050535D01*
X158676553Y-63951990D01*
X158676540Y-63951983D01*
X158512667Y-63884106D01*
X158512658Y-63884103D01*
X158338694Y-63849500D01*
X158338691Y-63849500D01*
X158161309Y-63849500D01*
X158161306Y-63849500D01*
X157987341Y-63884103D01*
X157987332Y-63884106D01*
X157823459Y-63951983D01*
X157823446Y-63951990D01*
X157675965Y-64050535D01*
X157675961Y-64050538D01*
X157550538Y-64175961D01*
X157550535Y-64175965D01*
X157451990Y-64323446D01*
X157451983Y-64323459D01*
X157384106Y-64487332D01*
X157384103Y-64487341D01*
X157349500Y-64661304D01*
X127636057Y-64661304D01*
X127642080Y-64631025D01*
X127642080Y-64631024D01*
X127650499Y-64588695D01*
X127650500Y-64588693D01*
X127650500Y-64411306D01*
X127650499Y-64411304D01*
X127615896Y-64237341D01*
X127615893Y-64237332D01*
X127548016Y-64073459D01*
X127548009Y-64073446D01*
X127449464Y-63925965D01*
X127449461Y-63925961D01*
X127324038Y-63800538D01*
X127324034Y-63800535D01*
X127176553Y-63701990D01*
X127176540Y-63701983D01*
X127012667Y-63634106D01*
X127012658Y-63634103D01*
X126838694Y-63599500D01*
X126838691Y-63599500D01*
X126661309Y-63599500D01*
X126661306Y-63599500D01*
X126487341Y-63634103D01*
X126487332Y-63634106D01*
X126323459Y-63701983D01*
X126323446Y-63701990D01*
X126175965Y-63800535D01*
X126175961Y-63800538D01*
X126050538Y-63925961D01*
X126050535Y-63925965D01*
X125951990Y-64073446D01*
X125951983Y-64073459D01*
X125884106Y-64237332D01*
X125884103Y-64237341D01*
X125849500Y-64411304D01*
X91769352Y-64411304D01*
X91777189Y-59149983D01*
X110714146Y-59149983D01*
X110714146Y-60750001D01*
X110714147Y-60750018D01*
X110724646Y-60852796D01*
X110724647Y-60852799D01*
X110741215Y-60902796D01*
X110779832Y-61019334D01*
X110871934Y-61168656D01*
X110995990Y-61292712D01*
X111145312Y-61384814D01*
X111311849Y-61439999D01*
X111414637Y-61450500D01*
X113014654Y-61450499D01*
X113117443Y-61439999D01*
X113283980Y-61384814D01*
X113433302Y-61292712D01*
X113557358Y-61168656D01*
X113649460Y-61019334D01*
X113704645Y-60852797D01*
X113715146Y-60750009D01*
X113715145Y-59199983D01*
X141331823Y-59199983D01*
X141331823Y-60800001D01*
X141331824Y-60800018D01*
X141342323Y-60902796D01*
X141342324Y-60902799D01*
X141380941Y-61019336D01*
X141397509Y-61069334D01*
X141489611Y-61218656D01*
X141613667Y-61342712D01*
X141762989Y-61434814D01*
X141929526Y-61489999D01*
X142032314Y-61500500D01*
X143632331Y-61500499D01*
X143735120Y-61489999D01*
X143901657Y-61434814D01*
X144050979Y-61342712D01*
X144175035Y-61218656D01*
X144267137Y-61069334D01*
X144322322Y-60902797D01*
X144332823Y-60800009D01*
X144332822Y-59199992D01*
X144330267Y-59174983D01*
X175267177Y-59174983D01*
X175267177Y-60775001D01*
X175267178Y-60775018D01*
X175277677Y-60877796D01*
X175277678Y-60877799D01*
X175324578Y-61019331D01*
X175332863Y-61044334D01*
X175424965Y-61193656D01*
X175549021Y-61317712D01*
X175698343Y-61409814D01*
X175864880Y-61464999D01*
X175967668Y-61475500D01*
X177567685Y-61475499D01*
X177670474Y-61464999D01*
X177837011Y-61409814D01*
X177986333Y-61317712D01*
X178110389Y-61193656D01*
X178202491Y-61044334D01*
X178257676Y-60877797D01*
X178268177Y-60775009D01*
X178268176Y-59199983D01*
X203831823Y-59199983D01*
X203831823Y-60800001D01*
X203831824Y-60800018D01*
X203842323Y-60902796D01*
X203842324Y-60902799D01*
X203880941Y-61019336D01*
X203897509Y-61069334D01*
X203989611Y-61218656D01*
X204113667Y-61342712D01*
X204262989Y-61434814D01*
X204429526Y-61489999D01*
X204532314Y-61500500D01*
X206132331Y-61500499D01*
X206235120Y-61489999D01*
X206401657Y-61434814D01*
X206550979Y-61342712D01*
X206675035Y-61218656D01*
X206767137Y-61069334D01*
X206822322Y-60902797D01*
X206832823Y-60800009D01*
X206832822Y-59199992D01*
X206827714Y-59149992D01*
X206822322Y-59097203D01*
X206822321Y-59097200D01*
X206805754Y-59047204D01*
X206767137Y-58930666D01*
X206675035Y-58781344D01*
X206550979Y-58657288D01*
X206401657Y-58565186D01*
X206235120Y-58510001D01*
X206235118Y-58510000D01*
X206132333Y-58499500D01*
X204532321Y-58499500D01*
X204532304Y-58499501D01*
X204429526Y-58510000D01*
X204429523Y-58510001D01*
X204262991Y-58565185D01*
X204262986Y-58565187D01*
X204113665Y-58657289D01*
X203989612Y-58781342D01*
X203897510Y-58930663D01*
X203897509Y-58930666D01*
X203842324Y-59097203D01*
X203842324Y-59097204D01*
X203842323Y-59097204D01*
X203831823Y-59199983D01*
X178268176Y-59199983D01*
X178268176Y-59174992D01*
X178257676Y-59072203D01*
X178202491Y-58905666D01*
X178110389Y-58756344D01*
X177986333Y-58632288D01*
X177837011Y-58540186D01*
X177670474Y-58485001D01*
X177670472Y-58485000D01*
X177567687Y-58474500D01*
X175967675Y-58474500D01*
X175967658Y-58474501D01*
X175864880Y-58485000D01*
X175864877Y-58485001D01*
X175698345Y-58540185D01*
X175698340Y-58540187D01*
X175549019Y-58632289D01*
X175424966Y-58756342D01*
X175332864Y-58905663D01*
X175332863Y-58905666D01*
X175277678Y-59072203D01*
X175277678Y-59072204D01*
X175277677Y-59072204D01*
X175267177Y-59174983D01*
X144330267Y-59174983D01*
X144327714Y-59149992D01*
X144322322Y-59097203D01*
X144322321Y-59097200D01*
X144305754Y-59047204D01*
X144267137Y-58930666D01*
X144175035Y-58781344D01*
X144050979Y-58657288D01*
X143901657Y-58565186D01*
X143735120Y-58510001D01*
X143735118Y-58510000D01*
X143632333Y-58499500D01*
X142032321Y-58499500D01*
X142032304Y-58499501D01*
X141929526Y-58510000D01*
X141929523Y-58510001D01*
X141762991Y-58565185D01*
X141762986Y-58565187D01*
X141613665Y-58657289D01*
X141489612Y-58781342D01*
X141397510Y-58930663D01*
X141397509Y-58930666D01*
X141342324Y-59097203D01*
X141342324Y-59097204D01*
X141342323Y-59097204D01*
X141331823Y-59199983D01*
X113715145Y-59199983D01*
X113715145Y-59149992D01*
X113704645Y-59047203D01*
X113649460Y-58880666D01*
X113557358Y-58731344D01*
X113433302Y-58607288D01*
X113283980Y-58515186D01*
X113117443Y-58460001D01*
X113117441Y-58460000D01*
X113014656Y-58449500D01*
X111414644Y-58449500D01*
X111414627Y-58449501D01*
X111311849Y-58460000D01*
X111311846Y-58460001D01*
X111145314Y-58515185D01*
X111145309Y-58515187D01*
X110995988Y-58607289D01*
X110871935Y-58731342D01*
X110779833Y-58880663D01*
X110779831Y-58880668D01*
X110763263Y-58930668D01*
X110724647Y-59047203D01*
X110724647Y-59047204D01*
X110724646Y-59047204D01*
X110714146Y-59149983D01*
X91777189Y-59149983D01*
X91789667Y-50773543D01*
X120799499Y-50773543D01*
X120837947Y-50966829D01*
X120837950Y-50966839D01*
X120913364Y-51148907D01*
X120913370Y-51148918D01*
X120984993Y-51256110D01*
X121005870Y-51322787D01*
X120987385Y-51390167D01*
X120984993Y-51393890D01*
X120913370Y-51501081D01*
X120913364Y-51501092D01*
X120837950Y-51683160D01*
X120837947Y-51683170D01*
X120799500Y-51876456D01*
X120799500Y-51876459D01*
X120799500Y-52073541D01*
X120799500Y-52073543D01*
X120799499Y-52073543D01*
X120837947Y-52266829D01*
X120837950Y-52266839D01*
X120913364Y-52448907D01*
X120913370Y-52448918D01*
X120984993Y-52556110D01*
X121005870Y-52622787D01*
X120987385Y-52690167D01*
X120984993Y-52693890D01*
X120913370Y-52801081D01*
X120913364Y-52801092D01*
X120837950Y-52983160D01*
X120837947Y-52983170D01*
X120799500Y-53176456D01*
X120799500Y-53176459D01*
X120799500Y-53373541D01*
X120799500Y-53373543D01*
X120799499Y-53373543D01*
X120837947Y-53566829D01*
X120837950Y-53566839D01*
X120913364Y-53748907D01*
X120913371Y-53748920D01*
X121022860Y-53912781D01*
X121022863Y-53912785D01*
X121162214Y-54052136D01*
X121162218Y-54052139D01*
X121326079Y-54161628D01*
X121326092Y-54161635D01*
X121508160Y-54237049D01*
X121508165Y-54237051D01*
X121508169Y-54237051D01*
X121508170Y-54237052D01*
X121701456Y-54275500D01*
X121701459Y-54275500D01*
X121898543Y-54275500D01*
X122028582Y-54249632D01*
X122091835Y-54237051D01*
X122273914Y-54161632D01*
X122437782Y-54052139D01*
X122577139Y-53912782D01*
X122686632Y-53748914D01*
X122762051Y-53566835D01*
X122774632Y-53503582D01*
X122800500Y-53373543D01*
X122800500Y-53176456D01*
X122762052Y-52983170D01*
X122762051Y-52983169D01*
X122762051Y-52983165D01*
X122718214Y-52877332D01*
X122686635Y-52801092D01*
X122686628Y-52801079D01*
X122615007Y-52693891D01*
X122594129Y-52627213D01*
X122612613Y-52559833D01*
X122615007Y-52556109D01*
X122686628Y-52448920D01*
X122686629Y-52448918D01*
X122686632Y-52448914D01*
X122762051Y-52266835D01*
X122777799Y-52187666D01*
X122800500Y-52073543D01*
X122800500Y-51876456D01*
X122762052Y-51683170D01*
X122762051Y-51683169D01*
X122762051Y-51683165D01*
X122762049Y-51683160D01*
X122686635Y-51501092D01*
X122686628Y-51501079D01*
X122615007Y-51393891D01*
X122594129Y-51327213D01*
X122612613Y-51259833D01*
X122615007Y-51256109D01*
X122686628Y-51148920D01*
X122686629Y-51148918D01*
X122686632Y-51148914D01*
X122762051Y-50966835D01*
X122774866Y-50902412D01*
X122800500Y-50773543D01*
X122800500Y-50576456D01*
X122797486Y-50561304D01*
X151799500Y-50561304D01*
X151799500Y-50738695D01*
X151834103Y-50912658D01*
X151834106Y-50912667D01*
X151901983Y-51076540D01*
X151901990Y-51076553D01*
X151996910Y-51218609D01*
X152017788Y-51285286D01*
X151999304Y-51352666D01*
X151996910Y-51356391D01*
X151901990Y-51498446D01*
X151901983Y-51498459D01*
X151834106Y-51662332D01*
X151834103Y-51662341D01*
X151799500Y-51836304D01*
X151799500Y-52013695D01*
X151834103Y-52187658D01*
X151834106Y-52187667D01*
X151901983Y-52351540D01*
X151901990Y-52351553D01*
X151980205Y-52468609D01*
X152001083Y-52535286D01*
X151982599Y-52602667D01*
X151980205Y-52606391D01*
X151901990Y-52723446D01*
X151901983Y-52723459D01*
X151834106Y-52887332D01*
X151834103Y-52887341D01*
X151799500Y-53061304D01*
X151799500Y-53238695D01*
X151834103Y-53412658D01*
X151834106Y-53412667D01*
X151901983Y-53576540D01*
X151901990Y-53576553D01*
X152000535Y-53724034D01*
X152000538Y-53724038D01*
X152125961Y-53849461D01*
X152125965Y-53849464D01*
X152273446Y-53948009D01*
X152273459Y-53948016D01*
X152396363Y-53998923D01*
X152437334Y-54015894D01*
X152437336Y-54015894D01*
X152437341Y-54015896D01*
X152611304Y-54050499D01*
X152611307Y-54050500D01*
X152611309Y-54050500D01*
X152788693Y-54050500D01*
X152788694Y-54050499D01*
X152846682Y-54038964D01*
X152962658Y-54015896D01*
X152962661Y-54015894D01*
X152962666Y-54015894D01*
X153126547Y-53948013D01*
X153274035Y-53849464D01*
X153399464Y-53724035D01*
X153498013Y-53576547D01*
X153565894Y-53412666D01*
X153566889Y-53407667D01*
X153600499Y-53238695D01*
X153600500Y-53238693D01*
X153600500Y-53061306D01*
X153600499Y-53061304D01*
X153565896Y-52887341D01*
X153565893Y-52887332D01*
X153498016Y-52723459D01*
X153498014Y-52723455D01*
X153498013Y-52723453D01*
X153419793Y-52606390D01*
X153398916Y-52539714D01*
X153417400Y-52472334D01*
X153419794Y-52468609D01*
X153432954Y-52448914D01*
X153498013Y-52351547D01*
X153565894Y-52187666D01*
X153566889Y-52182667D01*
X153600499Y-52013695D01*
X153600500Y-52013693D01*
X153600500Y-51836306D01*
X153600499Y-51836304D01*
X153565896Y-51662341D01*
X153565893Y-51662332D01*
X153498016Y-51498459D01*
X153498012Y-51498452D01*
X153491331Y-51488453D01*
X153403087Y-51356388D01*
X153382211Y-51289714D01*
X153400695Y-51222334D01*
X153403058Y-51218655D01*
X153498013Y-51076547D01*
X153565894Y-50912666D01*
X153566889Y-50907667D01*
X153600499Y-50738695D01*
X153600500Y-50738693D01*
X153600500Y-50561306D01*
X153600499Y-50561304D01*
X153565896Y-50387341D01*
X153565893Y-50387332D01*
X153561753Y-50377338D01*
X153548923Y-50346363D01*
X153498016Y-50223459D01*
X153498009Y-50223446D01*
X153399464Y-50075965D01*
X153399461Y-50075961D01*
X153274038Y-49950538D01*
X153274034Y-49950535D01*
X153126553Y-49851990D01*
X153126540Y-49851983D01*
X152962667Y-49784106D01*
X152962658Y-49784103D01*
X152788694Y-49749500D01*
X152788691Y-49749500D01*
X152611309Y-49749500D01*
X152611306Y-49749500D01*
X152437341Y-49784103D01*
X152437332Y-49784106D01*
X152273459Y-49851983D01*
X152273446Y-49851990D01*
X152125965Y-49950535D01*
X152125961Y-49950538D01*
X152000538Y-50075961D01*
X152000535Y-50075965D01*
X151901990Y-50223446D01*
X151901983Y-50223459D01*
X151834106Y-50387332D01*
X151834103Y-50387341D01*
X151799500Y-50561304D01*
X122797486Y-50561304D01*
X122762052Y-50383169D01*
X122762049Y-50383160D01*
X122686635Y-50201092D01*
X122686628Y-50201079D01*
X122577139Y-50037218D01*
X122577136Y-50037214D01*
X122437785Y-49897863D01*
X122437781Y-49897860D01*
X122273920Y-49788371D01*
X122273907Y-49788364D01*
X122091839Y-49712950D01*
X122091829Y-49712947D01*
X121898543Y-49674500D01*
X121898541Y-49674500D01*
X121701459Y-49674500D01*
X121701457Y-49674500D01*
X121508170Y-49712947D01*
X121508160Y-49712950D01*
X121326092Y-49788364D01*
X121326079Y-49788371D01*
X121162218Y-49897860D01*
X121162214Y-49897863D01*
X121022863Y-50037214D01*
X121022860Y-50037218D01*
X120913371Y-50201079D01*
X120913364Y-50201092D01*
X120837950Y-50383160D01*
X120837948Y-50383169D01*
X120799500Y-50576456D01*
X120799500Y-50576459D01*
X120799500Y-50773541D01*
X120799500Y-50773543D01*
X120799499Y-50773543D01*
X91789667Y-50773543D01*
X91794245Y-47699983D01*
X110731823Y-47699983D01*
X110731823Y-49300001D01*
X110731824Y-49300018D01*
X110742323Y-49402796D01*
X110742324Y-49402799D01*
X110758892Y-49452796D01*
X110797509Y-49569334D01*
X110889611Y-49718656D01*
X111013667Y-49842712D01*
X111162989Y-49934814D01*
X111329526Y-49989999D01*
X111432314Y-50000500D01*
X113032331Y-50000499D01*
X113135120Y-49989999D01*
X113301657Y-49934814D01*
X113450979Y-49842712D01*
X113575035Y-49718656D01*
X113667137Y-49569334D01*
X113722322Y-49402797D01*
X113732823Y-49300009D01*
X113732822Y-47699992D01*
X113722322Y-47597203D01*
X113712083Y-47566304D01*
X120799500Y-47566304D01*
X120799500Y-47743695D01*
X120834103Y-47917658D01*
X120834106Y-47917667D01*
X120901983Y-48081540D01*
X120901990Y-48081553D01*
X121000535Y-48229034D01*
X121000538Y-48229038D01*
X121125961Y-48354461D01*
X121125965Y-48354464D01*
X121273446Y-48453009D01*
X121273459Y-48453016D01*
X121396363Y-48503923D01*
X121437334Y-48520894D01*
X121437336Y-48520894D01*
X121437341Y-48520896D01*
X121611304Y-48555499D01*
X121611307Y-48555500D01*
X121611309Y-48555500D01*
X121788693Y-48555500D01*
X121788694Y-48555499D01*
X121846682Y-48543964D01*
X121962658Y-48520896D01*
X121962661Y-48520894D01*
X121962666Y-48520894D01*
X122126547Y-48453013D01*
X122274035Y-48354464D01*
X122399464Y-48229035D01*
X122498013Y-48081547D01*
X122565894Y-47917666D01*
X122599248Y-47749983D01*
X141349500Y-47749983D01*
X141349500Y-49350001D01*
X141349501Y-49350018D01*
X141360000Y-49452796D01*
X141360001Y-49452799D01*
X141398618Y-49569336D01*
X141415186Y-49619334D01*
X141507288Y-49768656D01*
X141631344Y-49892712D01*
X141780666Y-49984814D01*
X141947203Y-50039999D01*
X142049991Y-50050500D01*
X143650008Y-50050499D01*
X143752797Y-50039999D01*
X143919334Y-49984814D01*
X144068656Y-49892712D01*
X144192712Y-49768656D01*
X144284814Y-49619334D01*
X144339999Y-49452797D01*
X144350500Y-49350009D01*
X144350499Y-48819810D01*
X157163599Y-48819810D01*
X157163599Y-49080189D01*
X157163600Y-49080205D01*
X157197586Y-49338357D01*
X157264980Y-49589875D01*
X157364626Y-49830440D01*
X157364630Y-49830450D01*
X157494823Y-50055952D01*
X157653338Y-50262533D01*
X157653344Y-50262540D01*
X157837458Y-50446654D01*
X157837465Y-50446660D01*
X158044046Y-50605175D01*
X158269548Y-50735368D01*
X158269549Y-50735368D01*
X158269552Y-50735370D01*
X158510122Y-50835018D01*
X158761640Y-50902412D01*
X159019803Y-50936400D01*
X159019810Y-50936400D01*
X159280188Y-50936400D01*
X159280195Y-50936400D01*
X159538358Y-50902412D01*
X159789876Y-50835018D01*
X160030446Y-50735370D01*
X160255952Y-50605175D01*
X160462534Y-50446659D01*
X160646658Y-50262535D01*
X160805174Y-50055953D01*
X160935369Y-49830447D01*
X161035017Y-49589877D01*
X161102411Y-49338359D01*
X161136399Y-49080196D01*
X161136399Y-48819810D01*
X164463600Y-48819810D01*
X164463600Y-49080189D01*
X164463601Y-49080205D01*
X164497587Y-49338357D01*
X164564981Y-49589875D01*
X164664627Y-49830440D01*
X164664631Y-49830450D01*
X164794824Y-50055952D01*
X164953339Y-50262533D01*
X164953345Y-50262540D01*
X165137459Y-50446654D01*
X165137466Y-50446660D01*
X165344047Y-50605175D01*
X165569549Y-50735368D01*
X165569550Y-50735368D01*
X165569553Y-50735370D01*
X165810123Y-50835018D01*
X166061641Y-50902412D01*
X166319804Y-50936400D01*
X166319811Y-50936400D01*
X166580189Y-50936400D01*
X166580196Y-50936400D01*
X166838359Y-50902412D01*
X167089877Y-50835018D01*
X167330447Y-50735370D01*
X167555953Y-50605175D01*
X167619643Y-50556304D01*
X182849500Y-50556304D01*
X182849500Y-50733695D01*
X182884103Y-50907658D01*
X182884106Y-50907667D01*
X182951983Y-51071540D01*
X182951990Y-51071553D01*
X183046910Y-51213609D01*
X183067788Y-51280286D01*
X183049304Y-51347666D01*
X183046910Y-51351391D01*
X182951990Y-51493446D01*
X182951983Y-51493459D01*
X182884106Y-51657332D01*
X182884103Y-51657341D01*
X182849500Y-51831304D01*
X182849500Y-52008695D01*
X182884103Y-52182658D01*
X182884106Y-52182667D01*
X182951983Y-52346540D01*
X182951990Y-52346553D01*
X183030205Y-52463609D01*
X183051083Y-52530286D01*
X183032599Y-52597667D01*
X183030205Y-52601391D01*
X182951990Y-52718446D01*
X182951983Y-52718459D01*
X182884106Y-52882332D01*
X182884103Y-52882341D01*
X182849500Y-53056304D01*
X182849500Y-53233695D01*
X182884103Y-53407658D01*
X182884106Y-53407667D01*
X182951983Y-53571540D01*
X182951990Y-53571553D01*
X183050535Y-53719034D01*
X183050538Y-53719038D01*
X183175961Y-53844461D01*
X183175965Y-53844464D01*
X183323446Y-53943009D01*
X183323459Y-53943016D01*
X183446363Y-53993923D01*
X183487334Y-54010894D01*
X183487336Y-54010894D01*
X183487341Y-54010896D01*
X183661304Y-54045499D01*
X183661307Y-54045500D01*
X183661309Y-54045500D01*
X183838693Y-54045500D01*
X183838694Y-54045499D01*
X183896682Y-54033964D01*
X184012658Y-54010896D01*
X184012661Y-54010894D01*
X184012666Y-54010894D01*
X184164476Y-53948013D01*
X184176540Y-53943016D01*
X184176540Y-53943015D01*
X184176547Y-53943013D01*
X184324035Y-53844464D01*
X184449464Y-53719035D01*
X184548013Y-53571547D01*
X184615894Y-53407666D01*
X184616889Y-53402667D01*
X184638964Y-53291682D01*
X184650500Y-53233691D01*
X184650500Y-53056309D01*
X184650500Y-53056306D01*
X184650499Y-53056304D01*
X184615896Y-52882341D01*
X184615893Y-52882332D01*
X184548016Y-52718459D01*
X184548014Y-52718455D01*
X184548013Y-52718453D01*
X184469793Y-52601390D01*
X184448916Y-52534714D01*
X184467400Y-52467334D01*
X184469794Y-52463609D01*
X184479618Y-52448907D01*
X184548013Y-52346547D01*
X184615894Y-52182666D01*
X184616889Y-52177667D01*
X184638964Y-52066682D01*
X184650500Y-52008691D01*
X184650500Y-51831309D01*
X184650500Y-51831306D01*
X184650499Y-51831304D01*
X184615896Y-51657341D01*
X184615893Y-51657332D01*
X184548016Y-51493459D01*
X184548012Y-51493452D01*
X184544667Y-51488446D01*
X184453087Y-51351388D01*
X184432211Y-51284714D01*
X184450695Y-51217334D01*
X184453058Y-51213655D01*
X184548013Y-51071547D01*
X184615894Y-50907666D01*
X184616889Y-50902667D01*
X184642573Y-50773541D01*
X184650500Y-50733691D01*
X184650500Y-50556309D01*
X184650500Y-50556305D01*
X184649505Y-50551304D01*
X213899500Y-50551304D01*
X213899500Y-50728695D01*
X213934103Y-50902658D01*
X213934106Y-50902667D01*
X214001983Y-51066540D01*
X214001990Y-51066553D01*
X214096910Y-51208609D01*
X214117788Y-51275286D01*
X214099304Y-51342666D01*
X214096910Y-51346391D01*
X214001990Y-51488446D01*
X214001983Y-51488459D01*
X213934106Y-51652332D01*
X213934103Y-51652341D01*
X213899500Y-51826304D01*
X213899500Y-52003695D01*
X213934103Y-52177658D01*
X213934106Y-52177667D01*
X214001983Y-52341540D01*
X214001990Y-52341553D01*
X214080205Y-52458609D01*
X214101083Y-52525286D01*
X214082599Y-52592667D01*
X214080205Y-52596391D01*
X214001990Y-52713446D01*
X214001983Y-52713459D01*
X213934106Y-52877332D01*
X213934103Y-52877341D01*
X213899500Y-53051304D01*
X213899500Y-53228695D01*
X213934103Y-53402658D01*
X213934106Y-53402667D01*
X214001983Y-53566540D01*
X214001990Y-53566553D01*
X214100535Y-53714034D01*
X214100538Y-53714038D01*
X214225961Y-53839461D01*
X214225965Y-53839464D01*
X214373446Y-53938009D01*
X214373459Y-53938016D01*
X214496363Y-53988923D01*
X214537334Y-54005894D01*
X214537336Y-54005894D01*
X214537341Y-54005896D01*
X214711304Y-54040499D01*
X214711307Y-54040500D01*
X214711309Y-54040500D01*
X214888693Y-54040500D01*
X214888694Y-54040499D01*
X214946682Y-54028964D01*
X215062658Y-54005896D01*
X215062661Y-54005894D01*
X215062666Y-54005894D01*
X215214476Y-53943013D01*
X215226540Y-53938016D01*
X215226540Y-53938015D01*
X215226547Y-53938013D01*
X215374035Y-53839464D01*
X215499464Y-53714035D01*
X215598013Y-53566547D01*
X215665894Y-53402666D01*
X215671688Y-53373541D01*
X215698511Y-53238691D01*
X215700500Y-53228691D01*
X215700500Y-53051309D01*
X215700500Y-53051306D01*
X215700499Y-53051304D01*
X215665896Y-52877341D01*
X215665893Y-52877332D01*
X215598016Y-52713459D01*
X215598014Y-52713455D01*
X215598013Y-52713453D01*
X215519793Y-52596390D01*
X215498916Y-52529714D01*
X215517400Y-52462334D01*
X215519794Y-52458609D01*
X215526268Y-52448920D01*
X215598013Y-52341547D01*
X215665894Y-52177666D01*
X215686606Y-52073543D01*
X215698511Y-52013691D01*
X215700500Y-52003691D01*
X215700500Y-51826309D01*
X215700500Y-51826306D01*
X215700499Y-51826304D01*
X215665896Y-51652341D01*
X215665893Y-51652332D01*
X215598016Y-51488459D01*
X215598012Y-51488452D01*
X215598008Y-51488446D01*
X215503087Y-51346388D01*
X215482211Y-51279714D01*
X215500695Y-51212334D01*
X215503058Y-51208655D01*
X215598013Y-51066547D01*
X215665894Y-50902666D01*
X215700500Y-50728691D01*
X215700500Y-50551309D01*
X215700500Y-50551306D01*
X215700499Y-50551304D01*
X215665895Y-50377338D01*
X215665893Y-50377332D01*
X215598016Y-50213459D01*
X215598009Y-50213446D01*
X215499464Y-50065965D01*
X215499461Y-50065961D01*
X215374038Y-49940538D01*
X215374034Y-49940535D01*
X215226553Y-49841990D01*
X215226540Y-49841983D01*
X215062667Y-49774106D01*
X215062658Y-49774103D01*
X214888694Y-49739500D01*
X214888691Y-49739500D01*
X214711309Y-49739500D01*
X214711306Y-49739500D01*
X214537341Y-49774103D01*
X214537332Y-49774106D01*
X214373459Y-49841983D01*
X214373446Y-49841990D01*
X214225965Y-49940535D01*
X214225961Y-49940538D01*
X214100538Y-50065961D01*
X214100535Y-50065965D01*
X214001990Y-50213446D01*
X214001983Y-50213459D01*
X213934106Y-50377332D01*
X213934105Y-50377338D01*
X213899500Y-50551304D01*
X184649505Y-50551304D01*
X184615896Y-50382341D01*
X184615893Y-50382332D01*
X184613824Y-50377338D01*
X184598923Y-50341363D01*
X184548016Y-50218459D01*
X184548009Y-50218446D01*
X184449464Y-50070965D01*
X184449461Y-50070961D01*
X184324038Y-49945538D01*
X184324034Y-49945535D01*
X184176553Y-49846990D01*
X184176540Y-49846983D01*
X184012667Y-49779106D01*
X184012658Y-49779103D01*
X183838694Y-49744500D01*
X183838691Y-49744500D01*
X183661309Y-49744500D01*
X183661306Y-49744500D01*
X183487341Y-49779103D01*
X183487332Y-49779106D01*
X183323459Y-49846983D01*
X183323446Y-49846990D01*
X183175965Y-49945535D01*
X183175961Y-49945538D01*
X183050538Y-50070961D01*
X183050535Y-50070965D01*
X182951990Y-50218446D01*
X182951983Y-50218459D01*
X182884106Y-50382332D01*
X182884103Y-50382341D01*
X182849500Y-50556304D01*
X167619643Y-50556304D01*
X167755783Y-50451840D01*
X167755784Y-50451840D01*
X167762529Y-50446664D01*
X167762531Y-50446661D01*
X167762535Y-50446659D01*
X167946659Y-50262535D01*
X168105175Y-50055953D01*
X168235370Y-49830447D01*
X168335018Y-49589877D01*
X168402412Y-49338359D01*
X168436400Y-49080196D01*
X168436400Y-48819804D01*
X168402412Y-48561641D01*
X168335018Y-48310123D01*
X168235370Y-48069553D01*
X168235368Y-48069549D01*
X168105178Y-47844051D01*
X168105175Y-47844047D01*
X168033003Y-47749991D01*
X168013814Y-47724983D01*
X175284854Y-47724983D01*
X175284854Y-49325001D01*
X175284855Y-49325018D01*
X175295354Y-49427796D01*
X175295355Y-49427799D01*
X175342255Y-49569331D01*
X175350540Y-49594334D01*
X175442642Y-49743656D01*
X175566698Y-49867712D01*
X175716020Y-49959814D01*
X175882557Y-50014999D01*
X175985345Y-50025500D01*
X177585362Y-50025499D01*
X177688151Y-50014999D01*
X177854688Y-49959814D01*
X178004010Y-49867712D01*
X178128066Y-49743656D01*
X178220168Y-49594334D01*
X178275353Y-49427797D01*
X178285854Y-49325009D01*
X178285853Y-47724992D01*
X178275353Y-47622203D01*
X178275351Y-47622196D01*
X178267742Y-47599232D01*
X178267738Y-47599222D01*
X178261052Y-47579048D01*
X178256829Y-47566304D01*
X182799500Y-47566304D01*
X182799500Y-47743695D01*
X182834103Y-47917658D01*
X182834106Y-47917667D01*
X182901983Y-48081540D01*
X182901990Y-48081553D01*
X183000535Y-48229034D01*
X183000538Y-48229038D01*
X183125961Y-48354461D01*
X183125965Y-48354464D01*
X183273446Y-48453009D01*
X183273459Y-48453016D01*
X183396363Y-48503923D01*
X183437334Y-48520894D01*
X183437336Y-48520894D01*
X183437341Y-48520896D01*
X183611304Y-48555499D01*
X183611307Y-48555500D01*
X183611309Y-48555500D01*
X183788693Y-48555500D01*
X183788694Y-48555499D01*
X183846682Y-48543964D01*
X183962658Y-48520896D01*
X183962661Y-48520894D01*
X183962666Y-48520894D01*
X184126547Y-48453013D01*
X184274035Y-48354464D01*
X184399464Y-48229035D01*
X184498013Y-48081547D01*
X184565894Y-47917666D01*
X184599248Y-47749983D01*
X203849500Y-47749983D01*
X203849500Y-49350001D01*
X203849501Y-49350018D01*
X203860000Y-49452796D01*
X203860001Y-49452799D01*
X203898618Y-49569336D01*
X203915186Y-49619334D01*
X204007288Y-49768656D01*
X204131344Y-49892712D01*
X204280666Y-49984814D01*
X204447203Y-50039999D01*
X204549991Y-50050500D01*
X206150008Y-50050499D01*
X206252797Y-50039999D01*
X206419334Y-49984814D01*
X206568656Y-49892712D01*
X206692712Y-49768656D01*
X206784814Y-49619334D01*
X206839999Y-49452797D01*
X206850500Y-49350009D01*
X206850499Y-47749992D01*
X206845391Y-47699992D01*
X206839999Y-47647203D01*
X206831715Y-47622204D01*
X206813192Y-47566304D01*
X213799500Y-47566304D01*
X213799500Y-47743695D01*
X213834103Y-47917658D01*
X213834106Y-47917667D01*
X213901983Y-48081540D01*
X213901990Y-48081553D01*
X214000535Y-48229034D01*
X214000538Y-48229038D01*
X214125961Y-48354461D01*
X214125965Y-48354464D01*
X214273446Y-48453009D01*
X214273459Y-48453016D01*
X214396363Y-48503923D01*
X214437334Y-48520894D01*
X214437336Y-48520894D01*
X214437341Y-48520896D01*
X214611304Y-48555499D01*
X214611307Y-48555500D01*
X214611309Y-48555500D01*
X214788693Y-48555500D01*
X214788694Y-48555499D01*
X214846682Y-48543964D01*
X214962658Y-48520896D01*
X214962661Y-48520894D01*
X214962666Y-48520894D01*
X215126547Y-48453013D01*
X215274035Y-48354464D01*
X215399464Y-48229035D01*
X215498013Y-48081547D01*
X215565894Y-47917666D01*
X215600500Y-47743691D01*
X215600500Y-47566309D01*
X215600500Y-47566306D01*
X215600499Y-47566304D01*
X215565896Y-47392341D01*
X215565893Y-47392332D01*
X215498016Y-47228459D01*
X215498009Y-47228446D01*
X215399464Y-47080965D01*
X215399461Y-47080961D01*
X215274038Y-46955538D01*
X215274034Y-46955535D01*
X215126553Y-46856990D01*
X215126540Y-46856983D01*
X214962667Y-46789106D01*
X214962658Y-46789103D01*
X214788694Y-46754500D01*
X214788691Y-46754500D01*
X214611309Y-46754500D01*
X214611306Y-46754500D01*
X214437341Y-46789103D01*
X214437332Y-46789106D01*
X214273459Y-46856983D01*
X214273446Y-46856990D01*
X214125965Y-46955535D01*
X214125961Y-46955538D01*
X214000538Y-47080961D01*
X214000535Y-47080965D01*
X213901990Y-47228446D01*
X213901983Y-47228459D01*
X213834106Y-47392332D01*
X213834103Y-47392341D01*
X213799500Y-47566304D01*
X206813192Y-47566304D01*
X206784814Y-47480666D01*
X206692712Y-47331344D01*
X206568656Y-47207288D01*
X206419334Y-47115186D01*
X206252797Y-47060001D01*
X206252795Y-47060000D01*
X206150010Y-47049500D01*
X204549998Y-47049500D01*
X204549981Y-47049501D01*
X204447203Y-47060000D01*
X204447200Y-47060001D01*
X204280668Y-47115185D01*
X204280663Y-47115187D01*
X204131342Y-47207289D01*
X204007289Y-47331342D01*
X203915187Y-47480663D01*
X203915186Y-47480666D01*
X203860001Y-47647203D01*
X203860001Y-47647204D01*
X203860000Y-47647204D01*
X203849500Y-47749983D01*
X184599248Y-47749983D01*
X184600500Y-47743691D01*
X184600500Y-47566309D01*
X184600500Y-47566306D01*
X184600499Y-47566304D01*
X184565896Y-47392341D01*
X184565893Y-47392332D01*
X184498016Y-47228459D01*
X184498009Y-47228446D01*
X184399464Y-47080965D01*
X184399461Y-47080961D01*
X184274038Y-46955538D01*
X184274034Y-46955535D01*
X184126553Y-46856990D01*
X184126540Y-46856983D01*
X183962667Y-46789106D01*
X183962658Y-46789103D01*
X183788694Y-46754500D01*
X183788691Y-46754500D01*
X183611309Y-46754500D01*
X183611306Y-46754500D01*
X183437341Y-46789103D01*
X183437332Y-46789106D01*
X183273459Y-46856983D01*
X183273446Y-46856990D01*
X183125965Y-46955535D01*
X183125961Y-46955538D01*
X183000538Y-47080961D01*
X183000535Y-47080965D01*
X182901990Y-47228446D01*
X182901983Y-47228459D01*
X182834106Y-47392332D01*
X182834103Y-47392341D01*
X182799500Y-47566304D01*
X178256829Y-47566304D01*
X178220168Y-47455666D01*
X178128066Y-47306344D01*
X178004010Y-47182288D01*
X177854688Y-47090186D01*
X177688151Y-47035001D01*
X177688149Y-47035000D01*
X177585364Y-47024500D01*
X175985352Y-47024500D01*
X175985335Y-47024501D01*
X175882557Y-47035000D01*
X175882554Y-47035001D01*
X175716022Y-47090185D01*
X175716017Y-47090187D01*
X175566696Y-47182289D01*
X175442643Y-47306342D01*
X175350541Y-47455663D01*
X175350540Y-47455666D01*
X175295355Y-47622203D01*
X175295355Y-47622204D01*
X175295354Y-47622204D01*
X175284854Y-47724983D01*
X168013814Y-47724983D01*
X167946660Y-47637466D01*
X167946654Y-47637459D01*
X167762540Y-47453345D01*
X167762533Y-47453339D01*
X167555952Y-47294824D01*
X167330450Y-47164631D01*
X167330440Y-47164627D01*
X167089875Y-47064981D01*
X166838357Y-46997587D01*
X166580205Y-46963601D01*
X166580202Y-46963600D01*
X166580196Y-46963600D01*
X166319804Y-46963600D01*
X166319798Y-46963600D01*
X166319794Y-46963601D01*
X166061642Y-46997587D01*
X165810124Y-47064981D01*
X165569559Y-47164627D01*
X165569549Y-47164631D01*
X165344047Y-47294824D01*
X165137466Y-47453339D01*
X165137459Y-47453345D01*
X164953345Y-47637459D01*
X164953339Y-47637466D01*
X164794824Y-47844047D01*
X164664631Y-48069549D01*
X164664627Y-48069559D01*
X164564981Y-48310124D01*
X164497587Y-48561642D01*
X164463601Y-48819794D01*
X164463600Y-48819810D01*
X161136399Y-48819810D01*
X161136399Y-48819804D01*
X161102411Y-48561641D01*
X161035017Y-48310123D01*
X160935369Y-48069553D01*
X160805174Y-47844047D01*
X160728168Y-47743691D01*
X160646659Y-47637466D01*
X160646653Y-47637459D01*
X160462539Y-47453345D01*
X160462532Y-47453339D01*
X160255951Y-47294824D01*
X160030449Y-47164631D01*
X160030439Y-47164627D01*
X159789874Y-47064981D01*
X159538356Y-46997587D01*
X159280204Y-46963601D01*
X159280201Y-46963600D01*
X159280195Y-46963600D01*
X159019803Y-46963600D01*
X159019797Y-46963600D01*
X159019793Y-46963601D01*
X158761641Y-46997587D01*
X158510123Y-47064981D01*
X158269558Y-47164627D01*
X158269548Y-47164631D01*
X158044046Y-47294824D01*
X157837465Y-47453339D01*
X157837458Y-47453345D01*
X157653344Y-47637459D01*
X157653338Y-47637466D01*
X157494823Y-47844047D01*
X157364630Y-48069549D01*
X157364626Y-48069559D01*
X157264980Y-48310124D01*
X157197586Y-48561642D01*
X157163600Y-48819794D01*
X157163599Y-48819810D01*
X144350499Y-48819810D01*
X144350499Y-48520896D01*
X144350499Y-47749998D01*
X144350498Y-47749981D01*
X144339999Y-47647203D01*
X144331715Y-47622204D01*
X144313192Y-47566304D01*
X151799500Y-47566304D01*
X151799500Y-47743695D01*
X151834103Y-47917658D01*
X151834106Y-47917667D01*
X151901983Y-48081540D01*
X151901990Y-48081553D01*
X152000535Y-48229034D01*
X152000538Y-48229038D01*
X152125961Y-48354461D01*
X152125965Y-48354464D01*
X152273446Y-48453009D01*
X152273459Y-48453016D01*
X152396363Y-48503923D01*
X152437334Y-48520894D01*
X152437336Y-48520894D01*
X152437341Y-48520896D01*
X152611304Y-48555499D01*
X152611307Y-48555500D01*
X152611309Y-48555500D01*
X152788693Y-48555500D01*
X152788694Y-48555499D01*
X152846682Y-48543964D01*
X152962658Y-48520896D01*
X152962661Y-48520894D01*
X152962666Y-48520894D01*
X153126547Y-48453013D01*
X153274035Y-48354464D01*
X153399464Y-48229035D01*
X153498013Y-48081547D01*
X153565894Y-47917666D01*
X153600500Y-47743691D01*
X153600500Y-47566309D01*
X153600500Y-47566306D01*
X153600499Y-47566304D01*
X153565896Y-47392341D01*
X153565893Y-47392332D01*
X153498016Y-47228459D01*
X153498009Y-47228446D01*
X153399464Y-47080965D01*
X153399461Y-47080961D01*
X153274038Y-46955538D01*
X153274034Y-46955535D01*
X153126553Y-46856990D01*
X153126540Y-46856983D01*
X152962667Y-46789106D01*
X152962658Y-46789103D01*
X152788694Y-46754500D01*
X152788691Y-46754500D01*
X152611309Y-46754500D01*
X152611306Y-46754500D01*
X152437341Y-46789103D01*
X152437332Y-46789106D01*
X152273459Y-46856983D01*
X152273446Y-46856990D01*
X152125965Y-46955535D01*
X152125961Y-46955538D01*
X152000538Y-47080961D01*
X152000535Y-47080965D01*
X151901990Y-47228446D01*
X151901983Y-47228459D01*
X151834106Y-47392332D01*
X151834103Y-47392341D01*
X151799500Y-47566304D01*
X144313192Y-47566304D01*
X144284814Y-47480666D01*
X144192712Y-47331344D01*
X144068656Y-47207288D01*
X143919334Y-47115186D01*
X143752797Y-47060001D01*
X143752795Y-47060000D01*
X143650010Y-47049500D01*
X142049998Y-47049500D01*
X142049981Y-47049501D01*
X141947203Y-47060000D01*
X141947200Y-47060001D01*
X141780668Y-47115185D01*
X141780663Y-47115187D01*
X141631342Y-47207289D01*
X141507289Y-47331342D01*
X141415187Y-47480663D01*
X141415186Y-47480666D01*
X141360001Y-47647203D01*
X141360001Y-47647204D01*
X141360000Y-47647204D01*
X141349500Y-47749983D01*
X122599248Y-47749983D01*
X122600500Y-47743691D01*
X122600500Y-47566309D01*
X122600500Y-47566306D01*
X122600499Y-47566304D01*
X122565896Y-47392341D01*
X122565893Y-47392332D01*
X122498016Y-47228459D01*
X122498009Y-47228446D01*
X122399464Y-47080965D01*
X122399461Y-47080961D01*
X122274038Y-46955538D01*
X122274034Y-46955535D01*
X122126553Y-46856990D01*
X122126540Y-46856983D01*
X121962667Y-46789106D01*
X121962658Y-46789103D01*
X121788694Y-46754500D01*
X121788691Y-46754500D01*
X121611309Y-46754500D01*
X121611306Y-46754500D01*
X121437341Y-46789103D01*
X121437332Y-46789106D01*
X121273459Y-46856983D01*
X121273446Y-46856990D01*
X121125965Y-46955535D01*
X121125961Y-46955538D01*
X121000538Y-47080961D01*
X121000535Y-47080965D01*
X120901990Y-47228446D01*
X120901983Y-47228459D01*
X120834106Y-47392332D01*
X120834103Y-47392341D01*
X120799500Y-47566304D01*
X113712083Y-47566304D01*
X113667137Y-47430666D01*
X113575035Y-47281344D01*
X113450979Y-47157288D01*
X113327239Y-47080965D01*
X113301659Y-47065187D01*
X113301654Y-47065185D01*
X113286007Y-47060000D01*
X113135120Y-47010001D01*
X113135118Y-47010000D01*
X113032333Y-46999500D01*
X111432321Y-46999500D01*
X111432304Y-46999501D01*
X111329526Y-47010000D01*
X111329523Y-47010001D01*
X111162991Y-47065185D01*
X111162986Y-47065187D01*
X111013665Y-47157289D01*
X110889612Y-47281342D01*
X110797510Y-47430663D01*
X110797508Y-47430668D01*
X110780940Y-47480668D01*
X110742324Y-47597203D01*
X110742324Y-47597204D01*
X110742323Y-47597204D01*
X110731823Y-47699983D01*
X91794245Y-47699983D01*
X91800402Y-43566256D01*
X91800500Y-43565892D01*
X91800500Y-43502492D01*
X91800504Y-43502476D01*
X91800618Y-43497274D01*
X91817386Y-43113227D01*
X91818326Y-43102495D01*
X91868152Y-42724025D01*
X91870025Y-42713405D01*
X91952649Y-42340709D01*
X91955440Y-42330295D01*
X92070230Y-41966227D01*
X92073917Y-41956095D01*
X92220003Y-41603412D01*
X92224561Y-41593638D01*
X92258397Y-41528639D01*
X160012100Y-41528639D01*
X160012100Y-41731359D01*
X160043813Y-41931583D01*
X160106457Y-42124381D01*
X160193728Y-42295660D01*
X160198492Y-42305008D01*
X160317639Y-42469003D01*
X160460995Y-42612359D01*
X160608088Y-42719226D01*
X160624994Y-42731509D01*
X160805618Y-42823542D01*
X160998416Y-42886186D01*
X161198640Y-42917899D01*
X161198641Y-42917899D01*
X161401359Y-42917899D01*
X161401360Y-42917899D01*
X161601584Y-42886186D01*
X161794382Y-42823542D01*
X161975006Y-42731509D01*
X162067085Y-42664609D01*
X162139004Y-42612359D01*
X162139006Y-42612356D01*
X162139010Y-42612354D01*
X162282355Y-42469009D01*
X162282357Y-42469005D01*
X162282360Y-42469003D01*
X162334610Y-42397084D01*
X162401510Y-42305005D01*
X162493543Y-42124381D01*
X162556187Y-41931583D01*
X162587900Y-41731359D01*
X162587900Y-41528639D01*
X163012099Y-41528639D01*
X163012099Y-41731359D01*
X163043812Y-41931583D01*
X163106456Y-42124381D01*
X163193727Y-42295660D01*
X163198491Y-42305008D01*
X163317638Y-42469003D01*
X163460994Y-42612359D01*
X163608087Y-42719226D01*
X163624993Y-42731509D01*
X163805617Y-42823542D01*
X163998415Y-42886186D01*
X164198639Y-42917899D01*
X164198640Y-42917899D01*
X164401358Y-42917899D01*
X164401359Y-42917899D01*
X164601583Y-42886186D01*
X164794381Y-42823542D01*
X164975005Y-42731509D01*
X165067084Y-42664609D01*
X165139003Y-42612359D01*
X165139005Y-42612356D01*
X165139009Y-42612354D01*
X165282354Y-42469009D01*
X165282356Y-42469005D01*
X165282359Y-42469003D01*
X165334609Y-42397084D01*
X165401509Y-42305005D01*
X165493542Y-42124381D01*
X165556186Y-41931583D01*
X165587899Y-41731359D01*
X165587899Y-41528639D01*
X165556186Y-41328415D01*
X165493542Y-41135617D01*
X165401509Y-40954993D01*
X165393853Y-40944455D01*
X165282359Y-40790994D01*
X165139003Y-40647638D01*
X164975008Y-40528491D01*
X164975007Y-40528490D01*
X164975005Y-40528489D01*
X164794381Y-40436456D01*
X164601583Y-40373812D01*
X164601581Y-40373811D01*
X164601579Y-40373811D01*
X164461781Y-40351669D01*
X164401359Y-40342099D01*
X164198639Y-40342099D01*
X164152223Y-40349450D01*
X163998418Y-40373811D01*
X163805614Y-40436457D01*
X163624989Y-40528491D01*
X163460994Y-40647638D01*
X163317638Y-40790994D01*
X163198491Y-40954989D01*
X163106457Y-41135614D01*
X163043811Y-41328418D01*
X163016823Y-41498815D01*
X163012099Y-41528639D01*
X162587900Y-41528639D01*
X162556187Y-41328415D01*
X162493543Y-41135617D01*
X162401510Y-40954993D01*
X162393854Y-40944455D01*
X162282360Y-40790994D01*
X162139004Y-40647638D01*
X161975009Y-40528491D01*
X161975008Y-40528490D01*
X161975006Y-40528489D01*
X161794382Y-40436456D01*
X161601584Y-40373812D01*
X161601582Y-40373811D01*
X161601580Y-40373811D01*
X161461782Y-40351669D01*
X161401360Y-40342099D01*
X161198640Y-40342099D01*
X161152224Y-40349450D01*
X160998419Y-40373811D01*
X160805615Y-40436457D01*
X160624990Y-40528491D01*
X160460995Y-40647638D01*
X160317639Y-40790994D01*
X160198492Y-40954989D01*
X160106458Y-41135614D01*
X160043812Y-41328418D01*
X160016824Y-41498815D01*
X160012100Y-41528639D01*
X92258397Y-41528639D01*
X92400822Y-41255045D01*
X92406217Y-41245700D01*
X92611325Y-40923744D01*
X92617515Y-40914905D01*
X92849896Y-40612060D01*
X92856834Y-40603791D01*
X93114726Y-40322352D01*
X93122352Y-40314726D01*
X93403791Y-40056834D01*
X93412060Y-40049896D01*
X93714905Y-39817515D01*
X93723744Y-39811325D01*
X94045700Y-39606217D01*
X94055045Y-39600822D01*
X94393638Y-39424561D01*
X94403412Y-39420003D01*
X94756095Y-39273917D01*
X94766227Y-39270230D01*
X95130295Y-39155440D01*
X95140709Y-39152649D01*
X95513405Y-39070025D01*
X95524025Y-39068152D01*
X95902495Y-39018326D01*
X95913226Y-39017386D01*
X96297297Y-39000617D01*
X96302706Y-39000500D01*
X96365892Y-39000500D01*
X221234108Y-39000500D01*
X221297439Y-39000500D01*
X221302562Y-39000605D01*
G37*
%TD.AperFunction*%
%TD*%
M02*
