%TF.GenerationSoftware,KiCad,Pcbnew,8.0.7*%
%TF.CreationDate,2025-02-19T10:26:08-06:00*%
%TF.ProjectId,RickNAS_4PortSATA,5269636b-4e41-4535-9f34-506f72745341,rev?*%
%TF.SameCoordinates,Original*%
%TF.FileFunction,Legend,Top*%
%TF.FilePolarity,Positive*%
%FSLAX46Y46*%
G04 Gerber Fmt 4.6, Leading zero omitted, Abs format (unit mm)*
G04 Created by KiCad (PCBNEW 8.0.7) date 2025-02-19 10:26:08*
%MOMM*%
%LPD*%
G01*
G04 APERTURE LIST*
%ADD10C,0.150000*%
%ADD11C,0.000000*%
%ADD12C,0.120000*%
%ADD13C,0.152400*%
%ADD14C,0.508000*%
G04 APERTURE END LIST*
D10*
X140854819Y-135190476D02*
X140378628Y-135523809D01*
X140854819Y-135761904D02*
X139854819Y-135761904D01*
X139854819Y-135761904D02*
X139854819Y-135380952D01*
X139854819Y-135380952D02*
X139902438Y-135285714D01*
X139902438Y-135285714D02*
X139950057Y-135238095D01*
X139950057Y-135238095D02*
X140045295Y-135190476D01*
X140045295Y-135190476D02*
X140188152Y-135190476D01*
X140188152Y-135190476D02*
X140283390Y-135238095D01*
X140283390Y-135238095D02*
X140331009Y-135285714D01*
X140331009Y-135285714D02*
X140378628Y-135380952D01*
X140378628Y-135380952D02*
X140378628Y-135761904D01*
X140854819Y-134761904D02*
X139854819Y-134761904D01*
X139854819Y-134761904D02*
X140854819Y-134190476D01*
X140854819Y-134190476D02*
X139854819Y-134190476D01*
X140854819Y-133190476D02*
X140854819Y-133761904D01*
X140854819Y-133476190D02*
X139854819Y-133476190D01*
X139854819Y-133476190D02*
X139997676Y-133571428D01*
X139997676Y-133571428D02*
X140092914Y-133666666D01*
X140092914Y-133666666D02*
X140140533Y-133761904D01*
X182061905Y-140204819D02*
X182061905Y-139204819D01*
X182061905Y-139204819D02*
X182300000Y-139204819D01*
X182300000Y-139204819D02*
X182442857Y-139252438D01*
X182442857Y-139252438D02*
X182538095Y-139347676D01*
X182538095Y-139347676D02*
X182585714Y-139442914D01*
X182585714Y-139442914D02*
X182633333Y-139633390D01*
X182633333Y-139633390D02*
X182633333Y-139776247D01*
X182633333Y-139776247D02*
X182585714Y-139966723D01*
X182585714Y-139966723D02*
X182538095Y-140061961D01*
X182538095Y-140061961D02*
X182442857Y-140157200D01*
X182442857Y-140157200D02*
X182300000Y-140204819D01*
X182300000Y-140204819D02*
X182061905Y-140204819D01*
X183490476Y-139538152D02*
X183490476Y-140204819D01*
X183252381Y-139157200D02*
X183014286Y-139871485D01*
X183014286Y-139871485D02*
X183633333Y-139871485D01*
X155124405Y-140204819D02*
X155124405Y-139204819D01*
X155124405Y-139204819D02*
X155362500Y-139204819D01*
X155362500Y-139204819D02*
X155505357Y-139252438D01*
X155505357Y-139252438D02*
X155600595Y-139347676D01*
X155600595Y-139347676D02*
X155648214Y-139442914D01*
X155648214Y-139442914D02*
X155695833Y-139633390D01*
X155695833Y-139633390D02*
X155695833Y-139776247D01*
X155695833Y-139776247D02*
X155648214Y-139966723D01*
X155648214Y-139966723D02*
X155600595Y-140061961D01*
X155600595Y-140061961D02*
X155505357Y-140157200D01*
X155505357Y-140157200D02*
X155362500Y-140204819D01*
X155362500Y-140204819D02*
X155124405Y-140204819D01*
X156029167Y-139204819D02*
X156648214Y-139204819D01*
X156648214Y-139204819D02*
X156314881Y-139585771D01*
X156314881Y-139585771D02*
X156457738Y-139585771D01*
X156457738Y-139585771D02*
X156552976Y-139633390D01*
X156552976Y-139633390D02*
X156600595Y-139681009D01*
X156600595Y-139681009D02*
X156648214Y-139776247D01*
X156648214Y-139776247D02*
X156648214Y-140014342D01*
X156648214Y-140014342D02*
X156600595Y-140109580D01*
X156600595Y-140109580D02*
X156552976Y-140157200D01*
X156552976Y-140157200D02*
X156457738Y-140204819D01*
X156457738Y-140204819D02*
X156172024Y-140204819D01*
X156172024Y-140204819D02*
X156076786Y-140157200D01*
X156076786Y-140157200D02*
X156029167Y-140109580D01*
X128061905Y-140204819D02*
X128061905Y-139204819D01*
X128061905Y-139204819D02*
X128300000Y-139204819D01*
X128300000Y-139204819D02*
X128442857Y-139252438D01*
X128442857Y-139252438D02*
X128538095Y-139347676D01*
X128538095Y-139347676D02*
X128585714Y-139442914D01*
X128585714Y-139442914D02*
X128633333Y-139633390D01*
X128633333Y-139633390D02*
X128633333Y-139776247D01*
X128633333Y-139776247D02*
X128585714Y-139966723D01*
X128585714Y-139966723D02*
X128538095Y-140061961D01*
X128538095Y-140061961D02*
X128442857Y-140157200D01*
X128442857Y-140157200D02*
X128300000Y-140204819D01*
X128300000Y-140204819D02*
X128061905Y-140204819D01*
X129014286Y-139300057D02*
X129061905Y-139252438D01*
X129061905Y-139252438D02*
X129157143Y-139204819D01*
X129157143Y-139204819D02*
X129395238Y-139204819D01*
X129395238Y-139204819D02*
X129490476Y-139252438D01*
X129490476Y-139252438D02*
X129538095Y-139300057D01*
X129538095Y-139300057D02*
X129585714Y-139395295D01*
X129585714Y-139395295D02*
X129585714Y-139490533D01*
X129585714Y-139490533D02*
X129538095Y-139633390D01*
X129538095Y-139633390D02*
X128966667Y-140204819D01*
X128966667Y-140204819D02*
X129585714Y-140204819D01*
X101061905Y-140004819D02*
X101061905Y-139004819D01*
X101061905Y-139004819D02*
X101300000Y-139004819D01*
X101300000Y-139004819D02*
X101442857Y-139052438D01*
X101442857Y-139052438D02*
X101538095Y-139147676D01*
X101538095Y-139147676D02*
X101585714Y-139242914D01*
X101585714Y-139242914D02*
X101633333Y-139433390D01*
X101633333Y-139433390D02*
X101633333Y-139576247D01*
X101633333Y-139576247D02*
X101585714Y-139766723D01*
X101585714Y-139766723D02*
X101538095Y-139861961D01*
X101538095Y-139861961D02*
X101442857Y-139957200D01*
X101442857Y-139957200D02*
X101300000Y-140004819D01*
X101300000Y-140004819D02*
X101061905Y-140004819D01*
X102585714Y-140004819D02*
X102014286Y-140004819D01*
X102300000Y-140004819D02*
X102300000Y-139004819D01*
X102300000Y-139004819D02*
X102204762Y-139147676D01*
X102204762Y-139147676D02*
X102109524Y-139242914D01*
X102109524Y-139242914D02*
X102014286Y-139290533D01*
X147145180Y-85138095D02*
X146335657Y-85138095D01*
X146335657Y-85138095D02*
X146240419Y-85185714D01*
X146240419Y-85185714D02*
X146192800Y-85233333D01*
X146192800Y-85233333D02*
X146145180Y-85328571D01*
X146145180Y-85328571D02*
X146145180Y-85519047D01*
X146145180Y-85519047D02*
X146192800Y-85614285D01*
X146192800Y-85614285D02*
X146240419Y-85661904D01*
X146240419Y-85661904D02*
X146335657Y-85709523D01*
X146335657Y-85709523D02*
X147145180Y-85709523D01*
X146811847Y-86614285D02*
X146145180Y-86614285D01*
X147192800Y-86376190D02*
X146478514Y-86138095D01*
X146478514Y-86138095D02*
X146478514Y-86757142D01*
X109061904Y-85723679D02*
X109061904Y-84914156D01*
X109061904Y-84914156D02*
X109014285Y-84818918D01*
X109014285Y-84818918D02*
X108966666Y-84771299D01*
X108966666Y-84771299D02*
X108871428Y-84723679D01*
X108871428Y-84723679D02*
X108680952Y-84723679D01*
X108680952Y-84723679D02*
X108585714Y-84771299D01*
X108585714Y-84771299D02*
X108538095Y-84818918D01*
X108538095Y-84818918D02*
X108490476Y-84914156D01*
X108490476Y-84914156D02*
X108490476Y-85723679D01*
X108061904Y-85628441D02*
X108014285Y-85676060D01*
X108014285Y-85676060D02*
X107919047Y-85723679D01*
X107919047Y-85723679D02*
X107680952Y-85723679D01*
X107680952Y-85723679D02*
X107585714Y-85676060D01*
X107585714Y-85676060D02*
X107538095Y-85628441D01*
X107538095Y-85628441D02*
X107490476Y-85533203D01*
X107490476Y-85533203D02*
X107490476Y-85437965D01*
X107490476Y-85437965D02*
X107538095Y-85295108D01*
X107538095Y-85295108D02*
X108109523Y-84723679D01*
X108109523Y-84723679D02*
X107490476Y-84723679D01*
X161741905Y-130954819D02*
X161741905Y-131764342D01*
X161741905Y-131764342D02*
X161789524Y-131859580D01*
X161789524Y-131859580D02*
X161837143Y-131907200D01*
X161837143Y-131907200D02*
X161932381Y-131954819D01*
X161932381Y-131954819D02*
X162122857Y-131954819D01*
X162122857Y-131954819D02*
X162218095Y-131907200D01*
X162218095Y-131907200D02*
X162265714Y-131859580D01*
X162265714Y-131859580D02*
X162313333Y-131764342D01*
X162313333Y-131764342D02*
X162313333Y-130954819D01*
X163313333Y-131954819D02*
X162741905Y-131954819D01*
X163027619Y-131954819D02*
X163027619Y-130954819D01*
X163027619Y-130954819D02*
X162932381Y-131097676D01*
X162932381Y-131097676D02*
X162837143Y-131192914D01*
X162837143Y-131192914D02*
X162741905Y-131240533D01*
X163932381Y-130954819D02*
X164027619Y-130954819D01*
X164027619Y-130954819D02*
X164122857Y-131002438D01*
X164122857Y-131002438D02*
X164170476Y-131050057D01*
X164170476Y-131050057D02*
X164218095Y-131145295D01*
X164218095Y-131145295D02*
X164265714Y-131335771D01*
X164265714Y-131335771D02*
X164265714Y-131573866D01*
X164265714Y-131573866D02*
X164218095Y-131764342D01*
X164218095Y-131764342D02*
X164170476Y-131859580D01*
X164170476Y-131859580D02*
X164122857Y-131907200D01*
X164122857Y-131907200D02*
X164027619Y-131954819D01*
X164027619Y-131954819D02*
X163932381Y-131954819D01*
X163932381Y-131954819D02*
X163837143Y-131907200D01*
X163837143Y-131907200D02*
X163789524Y-131859580D01*
X163789524Y-131859580D02*
X163741905Y-131764342D01*
X163741905Y-131764342D02*
X163694286Y-131573866D01*
X163694286Y-131573866D02*
X163694286Y-131335771D01*
X163694286Y-131335771D02*
X163741905Y-131145295D01*
X163741905Y-131145295D02*
X163789524Y-131050057D01*
X163789524Y-131050057D02*
X163837143Y-131002438D01*
X163837143Y-131002438D02*
X163932381Y-130954819D01*
X93145180Y-85138095D02*
X92335657Y-85138095D01*
X92335657Y-85138095D02*
X92240419Y-85185714D01*
X92240419Y-85185714D02*
X92192800Y-85233333D01*
X92192800Y-85233333D02*
X92145180Y-85328571D01*
X92145180Y-85328571D02*
X92145180Y-85519047D01*
X92145180Y-85519047D02*
X92192800Y-85614285D01*
X92192800Y-85614285D02*
X92240419Y-85661904D01*
X92240419Y-85661904D02*
X92335657Y-85709523D01*
X92335657Y-85709523D02*
X93145180Y-85709523D01*
X92145180Y-86709523D02*
X92145180Y-86138095D01*
X92145180Y-86423809D02*
X93145180Y-86423809D01*
X93145180Y-86423809D02*
X93002323Y-86328571D01*
X93002323Y-86328571D02*
X92907085Y-86233333D01*
X92907085Y-86233333D02*
X92859466Y-86138095D01*
X174145180Y-85138095D02*
X173335657Y-85138095D01*
X173335657Y-85138095D02*
X173240419Y-85185714D01*
X173240419Y-85185714D02*
X173192800Y-85233333D01*
X173192800Y-85233333D02*
X173145180Y-85328571D01*
X173145180Y-85328571D02*
X173145180Y-85519047D01*
X173145180Y-85519047D02*
X173192800Y-85614285D01*
X173192800Y-85614285D02*
X173240419Y-85661904D01*
X173240419Y-85661904D02*
X173335657Y-85709523D01*
X173335657Y-85709523D02*
X174145180Y-85709523D01*
X173716609Y-86328571D02*
X173764228Y-86233333D01*
X173764228Y-86233333D02*
X173811847Y-86185714D01*
X173811847Y-86185714D02*
X173907085Y-86138095D01*
X173907085Y-86138095D02*
X173954704Y-86138095D01*
X173954704Y-86138095D02*
X174049942Y-86185714D01*
X174049942Y-86185714D02*
X174097561Y-86233333D01*
X174097561Y-86233333D02*
X174145180Y-86328571D01*
X174145180Y-86328571D02*
X174145180Y-86519047D01*
X174145180Y-86519047D02*
X174097561Y-86614285D01*
X174097561Y-86614285D02*
X174049942Y-86661904D01*
X174049942Y-86661904D02*
X173954704Y-86709523D01*
X173954704Y-86709523D02*
X173907085Y-86709523D01*
X173907085Y-86709523D02*
X173811847Y-86661904D01*
X173811847Y-86661904D02*
X173764228Y-86614285D01*
X173764228Y-86614285D02*
X173716609Y-86519047D01*
X173716609Y-86519047D02*
X173716609Y-86328571D01*
X173716609Y-86328571D02*
X173668990Y-86233333D01*
X173668990Y-86233333D02*
X173621371Y-86185714D01*
X173621371Y-86185714D02*
X173526133Y-86138095D01*
X173526133Y-86138095D02*
X173335657Y-86138095D01*
X173335657Y-86138095D02*
X173240419Y-86185714D01*
X173240419Y-86185714D02*
X173192800Y-86233333D01*
X173192800Y-86233333D02*
X173145180Y-86328571D01*
X173145180Y-86328571D02*
X173145180Y-86519047D01*
X173145180Y-86519047D02*
X173192800Y-86614285D01*
X173192800Y-86614285D02*
X173240419Y-86661904D01*
X173240419Y-86661904D02*
X173335657Y-86709523D01*
X173335657Y-86709523D02*
X173526133Y-86709523D01*
X173526133Y-86709523D02*
X173621371Y-86661904D01*
X173621371Y-86661904D02*
X173668990Y-86614285D01*
X173668990Y-86614285D02*
X173716609Y-86519047D01*
X136061904Y-85723679D02*
X136061904Y-84914156D01*
X136061904Y-84914156D02*
X136014285Y-84818918D01*
X136014285Y-84818918D02*
X135966666Y-84771299D01*
X135966666Y-84771299D02*
X135871428Y-84723679D01*
X135871428Y-84723679D02*
X135680952Y-84723679D01*
X135680952Y-84723679D02*
X135585714Y-84771299D01*
X135585714Y-84771299D02*
X135538095Y-84818918D01*
X135538095Y-84818918D02*
X135490476Y-84914156D01*
X135490476Y-84914156D02*
X135490476Y-85723679D01*
X135109523Y-85723679D02*
X134442857Y-85723679D01*
X134442857Y-85723679D02*
X134871428Y-84723679D01*
X120145180Y-85138095D02*
X119335657Y-85138095D01*
X119335657Y-85138095D02*
X119240419Y-85185714D01*
X119240419Y-85185714D02*
X119192800Y-85233333D01*
X119192800Y-85233333D02*
X119145180Y-85328571D01*
X119145180Y-85328571D02*
X119145180Y-85519047D01*
X119145180Y-85519047D02*
X119192800Y-85614285D01*
X119192800Y-85614285D02*
X119240419Y-85661904D01*
X119240419Y-85661904D02*
X119335657Y-85709523D01*
X119335657Y-85709523D02*
X120145180Y-85709523D01*
X120145180Y-86614285D02*
X120145180Y-86423809D01*
X120145180Y-86423809D02*
X120097561Y-86328571D01*
X120097561Y-86328571D02*
X120049942Y-86280952D01*
X120049942Y-86280952D02*
X119907085Y-86185714D01*
X119907085Y-86185714D02*
X119716609Y-86138095D01*
X119716609Y-86138095D02*
X119335657Y-86138095D01*
X119335657Y-86138095D02*
X119240419Y-86185714D01*
X119240419Y-86185714D02*
X119192800Y-86233333D01*
X119192800Y-86233333D02*
X119145180Y-86328571D01*
X119145180Y-86328571D02*
X119145180Y-86519047D01*
X119145180Y-86519047D02*
X119192800Y-86614285D01*
X119192800Y-86614285D02*
X119240419Y-86661904D01*
X119240419Y-86661904D02*
X119335657Y-86709523D01*
X119335657Y-86709523D02*
X119573752Y-86709523D01*
X119573752Y-86709523D02*
X119668990Y-86661904D01*
X119668990Y-86661904D02*
X119716609Y-86614285D01*
X119716609Y-86614285D02*
X119764228Y-86519047D01*
X119764228Y-86519047D02*
X119764228Y-86328571D01*
X119764228Y-86328571D02*
X119716609Y-86233333D01*
X119716609Y-86233333D02*
X119668990Y-86185714D01*
X119668990Y-86185714D02*
X119573752Y-86138095D01*
X163061904Y-85723679D02*
X163061904Y-84914156D01*
X163061904Y-84914156D02*
X163014285Y-84818918D01*
X163014285Y-84818918D02*
X162966666Y-84771299D01*
X162966666Y-84771299D02*
X162871428Y-84723679D01*
X162871428Y-84723679D02*
X162680952Y-84723679D01*
X162680952Y-84723679D02*
X162585714Y-84771299D01*
X162585714Y-84771299D02*
X162538095Y-84818918D01*
X162538095Y-84818918D02*
X162490476Y-84914156D01*
X162490476Y-84914156D02*
X162490476Y-85723679D01*
X161538095Y-85723679D02*
X162014285Y-85723679D01*
X162014285Y-85723679D02*
X162061904Y-85247489D01*
X162061904Y-85247489D02*
X162014285Y-85295108D01*
X162014285Y-85295108D02*
X161919047Y-85342727D01*
X161919047Y-85342727D02*
X161680952Y-85342727D01*
X161680952Y-85342727D02*
X161585714Y-85295108D01*
X161585714Y-85295108D02*
X161538095Y-85247489D01*
X161538095Y-85247489D02*
X161490476Y-85152251D01*
X161490476Y-85152251D02*
X161490476Y-84914156D01*
X161490476Y-84914156D02*
X161538095Y-84818918D01*
X161538095Y-84818918D02*
X161585714Y-84771299D01*
X161585714Y-84771299D02*
X161680952Y-84723679D01*
X161680952Y-84723679D02*
X161919047Y-84723679D01*
X161919047Y-84723679D02*
X162014285Y-84771299D01*
X162014285Y-84771299D02*
X162061904Y-84818918D01*
X190061904Y-85723679D02*
X190061904Y-84914156D01*
X190061904Y-84914156D02*
X190014285Y-84818918D01*
X190014285Y-84818918D02*
X189966666Y-84771299D01*
X189966666Y-84771299D02*
X189871428Y-84723679D01*
X189871428Y-84723679D02*
X189680952Y-84723679D01*
X189680952Y-84723679D02*
X189585714Y-84771299D01*
X189585714Y-84771299D02*
X189538095Y-84818918D01*
X189538095Y-84818918D02*
X189490476Y-84914156D01*
X189490476Y-84914156D02*
X189490476Y-85723679D01*
X188966666Y-84723679D02*
X188776190Y-84723679D01*
X188776190Y-84723679D02*
X188680952Y-84771299D01*
X188680952Y-84771299D02*
X188633333Y-84818918D01*
X188633333Y-84818918D02*
X188538095Y-84961775D01*
X188538095Y-84961775D02*
X188490476Y-85152251D01*
X188490476Y-85152251D02*
X188490476Y-85533203D01*
X188490476Y-85533203D02*
X188538095Y-85628441D01*
X188538095Y-85628441D02*
X188585714Y-85676060D01*
X188585714Y-85676060D02*
X188680952Y-85723679D01*
X188680952Y-85723679D02*
X188871428Y-85723679D01*
X188871428Y-85723679D02*
X188966666Y-85676060D01*
X188966666Y-85676060D02*
X189014285Y-85628441D01*
X189014285Y-85628441D02*
X189061904Y-85533203D01*
X189061904Y-85533203D02*
X189061904Y-85295108D01*
X189061904Y-85295108D02*
X189014285Y-85199870D01*
X189014285Y-85199870D02*
X188966666Y-85152251D01*
X188966666Y-85152251D02*
X188871428Y-85104632D01*
X188871428Y-85104632D02*
X188680952Y-85104632D01*
X188680952Y-85104632D02*
X188585714Y-85152251D01*
X188585714Y-85152251D02*
X188538095Y-85199870D01*
X188538095Y-85199870D02*
X188490476Y-85295108D01*
D11*
%TO.C,kibuzzard-67B605B2*%
G36*
X193084925Y-140438070D02*
G01*
X193159246Y-140449095D01*
X193232128Y-140467351D01*
X193302870Y-140492663D01*
X193370791Y-140524786D01*
X193435235Y-140563413D01*
X193495584Y-140608170D01*
X193551254Y-140658627D01*
X193601711Y-140714298D01*
X193646468Y-140774646D01*
X193685095Y-140839091D01*
X193717219Y-140907011D01*
X193742531Y-140977753D01*
X193760787Y-141050636D01*
X193771811Y-141124956D01*
X193775498Y-141200000D01*
X193771811Y-141275044D01*
X193760787Y-141349364D01*
X193742531Y-141422247D01*
X193717219Y-141492989D01*
X193685095Y-141560909D01*
X193646468Y-141625354D01*
X193601711Y-141685702D01*
X193551254Y-141741373D01*
X193495584Y-141791830D01*
X193435235Y-141836587D01*
X193370791Y-141875214D01*
X193302870Y-141907337D01*
X193232128Y-141932649D01*
X193159246Y-141950905D01*
X193084925Y-141961930D01*
X193009882Y-141965617D01*
X192639661Y-141965617D01*
X192520598Y-141965617D01*
X190532068Y-141965617D01*
X189474717Y-141965617D01*
X188834976Y-141965617D01*
X187731422Y-141965617D01*
X186794911Y-141965617D01*
X186560339Y-141965617D01*
X186190118Y-141965617D01*
X186115075Y-141961930D01*
X186040754Y-141950905D01*
X185967872Y-141932649D01*
X185897130Y-141907337D01*
X185829209Y-141875214D01*
X185764765Y-141836587D01*
X185704416Y-141791830D01*
X185648746Y-141741373D01*
X185598289Y-141685702D01*
X185553532Y-141625354D01*
X185514905Y-141560909D01*
X185482781Y-141492989D01*
X185457469Y-141422247D01*
X185439213Y-141349364D01*
X185428189Y-141275044D01*
X185424502Y-141200000D01*
X185428189Y-141124956D01*
X185439213Y-141050636D01*
X185457469Y-140977753D01*
X185482781Y-140907011D01*
X185514905Y-140839091D01*
X185553532Y-140774646D01*
X185598289Y-140714298D01*
X185600193Y-140712197D01*
X186560339Y-140712197D01*
X186560339Y-141785541D01*
X186680291Y-141805977D01*
X186794911Y-141812197D01*
X186902201Y-141804422D01*
X187000162Y-141781099D01*
X187087015Y-141740893D01*
X187160985Y-141682472D01*
X187221183Y-141604947D01*
X187266721Y-141507431D01*
X187295376Y-141388590D01*
X187304927Y-141247092D01*
X187296264Y-141108704D01*
X187276017Y-141017851D01*
X187511066Y-141017851D01*
X187511066Y-141797981D01*
X187731422Y-141797981D01*
X187731422Y-141177787D01*
X187822052Y-141160905D01*
X187912682Y-141156462D01*
X187960662Y-141158239D01*
X188019305Y-141164459D01*
X188078837Y-141174233D01*
X188129483Y-141184895D01*
X188168578Y-140982310D01*
X188100162Y-140965428D01*
X188081284Y-140962763D01*
X188305412Y-140962763D01*
X188305412Y-141144023D01*
X188536430Y-141144023D01*
X188536430Y-141451454D01*
X188539984Y-141533643D01*
X188550646Y-141606058D01*
X188599515Y-141720679D01*
X188691922Y-141792649D01*
X188756563Y-141811309D01*
X188834976Y-141817528D01*
X188944265Y-141805977D01*
X189071325Y-141762439D01*
X189042892Y-141586511D01*
X188946931Y-141619386D01*
X188874071Y-141627383D01*
X188782553Y-141590953D01*
X188755008Y-141479887D01*
X188755008Y-140962763D01*
X189154847Y-140962763D01*
X189192665Y-141086435D01*
X189231482Y-141205109D01*
X189271299Y-141318785D01*
X189312116Y-141427464D01*
X189366909Y-141563014D01*
X189421109Y-141686519D01*
X189474717Y-141797981D01*
X189657754Y-141797981D01*
X189712251Y-141686519D01*
X189769117Y-141563014D01*
X189828352Y-141427464D01*
X189844656Y-141387480D01*
X190073586Y-141387480D01*
X190081583Y-141487439D01*
X190105574Y-141574071D01*
X190144447Y-141647597D01*
X190197092Y-141708239D01*
X190262843Y-141755775D01*
X190341034Y-141789984D01*
X190430998Y-141810642D01*
X190532068Y-141817528D01*
X190676010Y-141804200D01*
X190796850Y-141771325D01*
X190766640Y-141584733D01*
X190666236Y-141613166D01*
X190540953Y-141627383D01*
X190444103Y-141615610D01*
X190366801Y-141580291D01*
X190316155Y-141524536D01*
X190299273Y-141451454D01*
X190841276Y-141451454D01*
X190843942Y-141414136D01*
X190844652Y-141378595D01*
X191843538Y-141378595D01*
X191843538Y-141538530D01*
X192302019Y-141538530D01*
X192302019Y-141797981D01*
X192520598Y-141797981D01*
X192520598Y-141538530D01*
X192639661Y-141538530D01*
X192639661Y-141359047D01*
X192520598Y-141359047D01*
X192520598Y-140697981D01*
X192325121Y-140697981D01*
X192254039Y-140773728D01*
X192182956Y-140858805D01*
X192113651Y-140949212D01*
X192047900Y-141040953D01*
X191986591Y-141132250D01*
X191930614Y-141221325D01*
X191882189Y-141304624D01*
X191843538Y-141378595D01*
X190844652Y-141378595D01*
X190844830Y-141369709D01*
X190834168Y-141241070D01*
X190802181Y-141134742D01*
X190748869Y-141050727D01*
X190675022Y-140990011D01*
X190581431Y-140953581D01*
X190468094Y-140941438D01*
X190394346Y-140948546D01*
X190322375Y-140969871D01*
X190255291Y-141005190D01*
X190196204Y-141054281D01*
X190146446Y-141117145D01*
X190107351Y-141193780D01*
X190082027Y-141283966D01*
X190073586Y-141387480D01*
X189844656Y-141387480D01*
X189872668Y-141318785D01*
X189914984Y-141205109D01*
X189955301Y-141086435D01*
X189993619Y-140962763D01*
X189771486Y-140962763D01*
X189753049Y-141032512D01*
X189729725Y-141106704D01*
X189703514Y-141183340D01*
X189676414Y-141260420D01*
X189648647Y-141336611D01*
X189620436Y-141410582D01*
X189568901Y-141543861D01*
X189520032Y-141410582D01*
X189494487Y-141336611D01*
X189469386Y-141260420D01*
X189445174Y-141183340D01*
X189422294Y-141106704D01*
X189401636Y-141032512D01*
X189384087Y-140962763D01*
X189154847Y-140962763D01*
X188755008Y-140962763D01*
X188607512Y-140962763D01*
X188305412Y-140962763D01*
X188081284Y-140962763D01*
X188024637Y-140954766D01*
X187954443Y-140948546D01*
X187903796Y-140946769D01*
X187788954Y-140951656D01*
X187689661Y-140966317D01*
X187599253Y-140988974D01*
X187511066Y-141017851D01*
X187276017Y-141017851D01*
X187270275Y-140992084D01*
X187228736Y-140895679D01*
X187173425Y-140817932D01*
X187104342Y-140758623D01*
X187032234Y-140722859D01*
X188470679Y-140722859D01*
X188510662Y-140824152D01*
X188607512Y-140861470D01*
X188705250Y-140824152D01*
X188746123Y-140722859D01*
X188705250Y-140619790D01*
X188607512Y-140582472D01*
X188510662Y-140619790D01*
X188470679Y-140722859D01*
X187032234Y-140722859D01*
X187021486Y-140717528D01*
X186927080Y-140693538D01*
X186823344Y-140685541D01*
X186700727Y-140690872D01*
X186560339Y-140712197D01*
X185600193Y-140712197D01*
X185648746Y-140658627D01*
X185704416Y-140608170D01*
X185764765Y-140563413D01*
X185829209Y-140524786D01*
X185897130Y-140492663D01*
X185967872Y-140467351D01*
X186040754Y-140449095D01*
X186115075Y-140438070D01*
X186190118Y-140434383D01*
X186560339Y-140434383D01*
X192639661Y-140434383D01*
X193009882Y-140434383D01*
X193084925Y-140438070D01*
G37*
G36*
X186961955Y-140906785D02*
G01*
X187034814Y-140989418D01*
X187072132Y-141108481D01*
X187082795Y-141247092D01*
X187079463Y-141325505D01*
X187069467Y-141397254D01*
X187025040Y-141515428D01*
X186943296Y-141593619D01*
X186818013Y-141622052D01*
X186798465Y-141622052D01*
X186778918Y-141620275D01*
X186778918Y-140881018D01*
X186810905Y-140876575D01*
X186842892Y-140875687D01*
X186961955Y-140906785D01*
G37*
G36*
X192302019Y-141359047D02*
G01*
X192053231Y-141359047D01*
X192106543Y-141257754D01*
X192169628Y-141155574D01*
X192236268Y-141058724D01*
X192302019Y-140971648D01*
X192302019Y-141359047D01*
G37*
G36*
X190546284Y-141139580D02*
G01*
X190596042Y-141179564D01*
X190624475Y-141235541D01*
X190633360Y-141300404D01*
X190299273Y-141300404D01*
X190314378Y-141234653D01*
X190346365Y-141177787D01*
X190397900Y-141138691D01*
X190471648Y-141124475D01*
X190546284Y-141139580D01*
G37*
%TO.C,kibuzzard-67B605A5*%
G36*
X166063775Y-140436302D02*
G01*
X166138268Y-140447352D01*
X166211319Y-140465650D01*
X166282226Y-140491021D01*
X166350304Y-140523219D01*
X166414898Y-140561936D01*
X166475386Y-140606797D01*
X166531186Y-140657371D01*
X166581760Y-140713171D01*
X166626621Y-140773659D01*
X166665338Y-140838253D01*
X166697536Y-140906331D01*
X166722907Y-140977237D01*
X166741205Y-141050289D01*
X166752255Y-141124782D01*
X166755950Y-141200000D01*
X166752255Y-141275218D01*
X166741205Y-141349711D01*
X166722907Y-141422763D01*
X166697536Y-141493669D01*
X166665338Y-141561747D01*
X166626621Y-141626341D01*
X166581760Y-141686829D01*
X166531186Y-141742629D01*
X166475386Y-141793203D01*
X166414898Y-141838064D01*
X166350304Y-141876781D01*
X166282226Y-141908979D01*
X166211319Y-141934350D01*
X166138268Y-141952648D01*
X166063775Y-141963698D01*
X165988557Y-141967394D01*
X165618336Y-141967394D01*
X165195396Y-141967394D01*
X163553393Y-141967394D01*
X162496042Y-141967394D01*
X161856301Y-141967394D01*
X160752746Y-141967394D01*
X159816236Y-141967394D01*
X159581664Y-141967394D01*
X159211443Y-141967394D01*
X159136225Y-141963698D01*
X159061732Y-141952648D01*
X158988681Y-141934350D01*
X158917774Y-141908979D01*
X158849696Y-141876781D01*
X158785102Y-141838064D01*
X158724614Y-141793203D01*
X158668814Y-141742629D01*
X158618240Y-141686829D01*
X158573379Y-141626341D01*
X158534662Y-141561747D01*
X158502464Y-141493669D01*
X158477093Y-141422763D01*
X158458795Y-141349711D01*
X158447745Y-141275218D01*
X158444050Y-141200000D01*
X158447745Y-141124782D01*
X158458795Y-141050289D01*
X158477093Y-140977237D01*
X158502464Y-140906331D01*
X158534662Y-140838253D01*
X158573379Y-140773659D01*
X158618240Y-140713171D01*
X158620733Y-140710420D01*
X159581664Y-140710420D01*
X159581664Y-141783764D01*
X159701616Y-141804200D01*
X159816236Y-141810420D01*
X159923526Y-141802645D01*
X160021486Y-141779321D01*
X160108340Y-141739116D01*
X160182310Y-141680695D01*
X160242508Y-141603170D01*
X160288045Y-141505654D01*
X160316700Y-141386813D01*
X160326252Y-141245315D01*
X160317589Y-141106926D01*
X160297341Y-141016074D01*
X160532391Y-141016074D01*
X160532391Y-141796204D01*
X160752746Y-141796204D01*
X160752746Y-141176010D01*
X160843376Y-141159128D01*
X160934007Y-141154685D01*
X160981987Y-141156462D01*
X161040630Y-141162682D01*
X161100162Y-141172456D01*
X161150808Y-141183118D01*
X161189903Y-140980533D01*
X161121486Y-140963651D01*
X161102601Y-140960985D01*
X161326737Y-140960985D01*
X161326737Y-141142246D01*
X161557754Y-141142246D01*
X161557754Y-141449677D01*
X161561309Y-141531866D01*
X161571971Y-141604281D01*
X161620840Y-141718901D01*
X161713247Y-141790872D01*
X161777888Y-141809532D01*
X161856301Y-141815751D01*
X161965590Y-141804200D01*
X162092649Y-141760662D01*
X162064217Y-141584733D01*
X161968255Y-141617609D01*
X161895396Y-141625606D01*
X161803877Y-141589176D01*
X161776333Y-141478110D01*
X161776333Y-140960985D01*
X162176171Y-140960985D01*
X162213989Y-141084658D01*
X162252807Y-141203332D01*
X162292624Y-141317008D01*
X162333441Y-141425687D01*
X162388234Y-141561237D01*
X162442434Y-141684742D01*
X162496042Y-141796204D01*
X162679079Y-141796204D01*
X162733576Y-141684742D01*
X162790442Y-141561237D01*
X162849677Y-141425687D01*
X162865981Y-141385703D01*
X163094911Y-141385703D01*
X163102908Y-141485662D01*
X163126898Y-141572294D01*
X163165771Y-141645820D01*
X163218417Y-141706462D01*
X163284168Y-141753998D01*
X163362359Y-141788207D01*
X163452322Y-141808865D01*
X163553393Y-141815751D01*
X163697334Y-141802423D01*
X163818175Y-141769548D01*
X163816449Y-141758885D01*
X164889742Y-141758885D01*
X164944830Y-141778433D01*
X165022133Y-141797981D01*
X165109208Y-141813086D01*
X165195396Y-141819305D01*
X165298021Y-141812863D01*
X165385541Y-141793538D01*
X165458401Y-141762439D01*
X165517044Y-141720679D01*
X165593457Y-141609612D01*
X165618336Y-141469225D01*
X165606563Y-141379927D01*
X165571244Y-141303958D01*
X165514600Y-141243094D01*
X165438853Y-141199111D01*
X165538368Y-141106704D01*
X165575687Y-140980533D01*
X165554362Y-140857916D01*
X165488611Y-140759289D01*
X165375767Y-140694426D01*
X165301353Y-140677100D01*
X165214943Y-140671325D01*
X165120537Y-140679544D01*
X165036349Y-140704200D01*
X164909289Y-140769063D01*
X164987480Y-140928998D01*
X165093215Y-140878352D01*
X165216721Y-140857916D01*
X165317124Y-140892569D01*
X165353554Y-140987641D01*
X165336672Y-141055170D01*
X165293134Y-141097819D01*
X165232714Y-141120921D01*
X165165186Y-141128029D01*
X165083441Y-141128029D01*
X165083441Y-141309289D01*
X165150969Y-141309289D01*
X165248263Y-141317952D01*
X165326898Y-141343942D01*
X165378877Y-141391700D01*
X165396204Y-141465670D01*
X165350889Y-141584733D01*
X165288914Y-141620719D01*
X165193619Y-141632714D01*
X165109431Y-141627827D01*
X165038126Y-141613166D01*
X164932391Y-141575848D01*
X164889742Y-141758885D01*
X163816449Y-141758885D01*
X163787964Y-141582956D01*
X163687561Y-141611389D01*
X163562278Y-141625606D01*
X163465428Y-141613833D01*
X163388126Y-141578514D01*
X163337480Y-141522758D01*
X163320598Y-141449677D01*
X163862601Y-141449677D01*
X163865267Y-141412359D01*
X163866155Y-141367932D01*
X163855493Y-141239293D01*
X163823506Y-141132965D01*
X163770194Y-141048950D01*
X163696347Y-140988234D01*
X163602755Y-140951804D01*
X163489418Y-140939661D01*
X163415670Y-140946769D01*
X163343700Y-140968094D01*
X163276616Y-141003413D01*
X163217528Y-141052504D01*
X163167771Y-141115368D01*
X163128675Y-141192003D01*
X163103352Y-141282189D01*
X163094911Y-141385703D01*
X162865981Y-141385703D01*
X162893992Y-141317008D01*
X162936309Y-141203332D01*
X162976626Y-141084658D01*
X163014943Y-140960985D01*
X162792811Y-140960985D01*
X162774374Y-141030735D01*
X162751050Y-141104927D01*
X162724838Y-141181563D01*
X162697738Y-141258643D01*
X162669972Y-141334834D01*
X162641761Y-141408805D01*
X162590226Y-141542084D01*
X162541357Y-141408805D01*
X162515812Y-141334834D01*
X162490711Y-141258643D01*
X162466498Y-141181563D01*
X162443619Y-141104927D01*
X162422960Y-141030735D01*
X162405412Y-140960985D01*
X162176171Y-140960985D01*
X161776333Y-140960985D01*
X161628837Y-140960985D01*
X161326737Y-140960985D01*
X161102601Y-140960985D01*
X161045961Y-140952989D01*
X160975767Y-140946769D01*
X160925121Y-140944992D01*
X160810279Y-140949879D01*
X160710986Y-140964540D01*
X160620578Y-140987197D01*
X160532391Y-141016074D01*
X160297341Y-141016074D01*
X160291599Y-140990307D01*
X160250061Y-140893901D01*
X160194750Y-140816155D01*
X160125666Y-140756846D01*
X160053559Y-140721082D01*
X161492003Y-140721082D01*
X161531987Y-140822375D01*
X161628837Y-140859693D01*
X161726575Y-140822375D01*
X161767448Y-140721082D01*
X161726575Y-140618013D01*
X161628837Y-140580695D01*
X161531987Y-140618013D01*
X161492003Y-140721082D01*
X160053559Y-140721082D01*
X160042811Y-140715751D01*
X159948405Y-140691761D01*
X159844669Y-140683764D01*
X159722052Y-140689095D01*
X159581664Y-140710420D01*
X158620733Y-140710420D01*
X158668814Y-140657371D01*
X158724614Y-140606797D01*
X158785102Y-140561936D01*
X158849696Y-140523219D01*
X158917774Y-140491021D01*
X158988681Y-140465650D01*
X159061732Y-140447352D01*
X159136225Y-140436302D01*
X159211443Y-140432606D01*
X159581664Y-140432606D01*
X165618336Y-140432606D01*
X165988557Y-140432606D01*
X166063775Y-140436302D01*
G37*
G36*
X159983280Y-140905008D02*
G01*
X160056139Y-140987641D01*
X160093457Y-141106704D01*
X160104120Y-141245315D01*
X160100788Y-141323728D01*
X160090792Y-141395477D01*
X160046365Y-141513651D01*
X159964620Y-141591842D01*
X159839338Y-141620275D01*
X159819790Y-141620275D01*
X159800242Y-141618498D01*
X159800242Y-140879241D01*
X159832229Y-140874798D01*
X159864217Y-140873910D01*
X159983280Y-140905008D01*
G37*
G36*
X163567609Y-141137803D02*
G01*
X163617367Y-141177787D01*
X163645800Y-141233764D01*
X163654685Y-141298627D01*
X163320598Y-141298627D01*
X163335703Y-141232876D01*
X163367690Y-141176010D01*
X163419225Y-141136914D01*
X163492973Y-141122698D01*
X163567609Y-141137803D01*
G37*
%TO.C,kibuzzard-67B60597*%
G36*
X138873374Y-140438070D02*
G01*
X138947695Y-140449095D01*
X139020577Y-140467351D01*
X139091319Y-140492663D01*
X139159240Y-140524786D01*
X139223684Y-140563413D01*
X139284033Y-140608170D01*
X139339703Y-140658627D01*
X139390160Y-140714298D01*
X139434918Y-140774646D01*
X139473544Y-140839091D01*
X139505668Y-140907011D01*
X139530980Y-140977753D01*
X139549236Y-141050636D01*
X139560261Y-141124956D01*
X139563947Y-141200000D01*
X139560261Y-141275044D01*
X139549236Y-141349364D01*
X139530980Y-141422247D01*
X139505668Y-141492989D01*
X139473544Y-141560909D01*
X139434918Y-141625354D01*
X139390160Y-141685702D01*
X139339703Y-141741373D01*
X139284033Y-141791830D01*
X139223684Y-141836587D01*
X139159240Y-141875214D01*
X139091319Y-141907337D01*
X139020577Y-141932649D01*
X138947695Y-141950905D01*
X138873374Y-141961930D01*
X138798331Y-141965617D01*
X138428110Y-141965617D01*
X136343619Y-141965617D01*
X135286268Y-141965617D01*
X134646527Y-141965617D01*
X133542973Y-141965617D01*
X132606462Y-141965617D01*
X132371890Y-141965617D01*
X132001669Y-141965617D01*
X131926626Y-141961930D01*
X131852305Y-141950905D01*
X131779423Y-141932649D01*
X131708681Y-141907337D01*
X131640760Y-141875214D01*
X131576316Y-141836587D01*
X131515967Y-141791830D01*
X131460297Y-141741373D01*
X131409840Y-141685702D01*
X131365082Y-141625354D01*
X131326456Y-141560909D01*
X131294332Y-141492989D01*
X131269020Y-141422247D01*
X131250764Y-141349364D01*
X131239739Y-141275044D01*
X131236053Y-141200000D01*
X131239739Y-141124956D01*
X131250764Y-141050636D01*
X131269020Y-140977753D01*
X131294332Y-140907011D01*
X131326456Y-140839091D01*
X131365082Y-140774646D01*
X131409840Y-140714298D01*
X131411744Y-140712197D01*
X132371890Y-140712197D01*
X132371890Y-141785541D01*
X132491842Y-141805977D01*
X132606462Y-141812197D01*
X132713752Y-141804422D01*
X132811712Y-141781099D01*
X132898566Y-141740893D01*
X132972536Y-141682472D01*
X133032734Y-141604947D01*
X133078271Y-141507431D01*
X133106926Y-141388590D01*
X133116478Y-141247092D01*
X133107815Y-141108704D01*
X133087568Y-141017851D01*
X133322617Y-141017851D01*
X133322617Y-141797981D01*
X133542973Y-141797981D01*
X133542973Y-141177787D01*
X133633603Y-141160905D01*
X133724233Y-141156462D01*
X133772213Y-141158239D01*
X133830856Y-141164459D01*
X133890388Y-141174233D01*
X133941034Y-141184895D01*
X133980129Y-140982310D01*
X133911712Y-140965428D01*
X133892834Y-140962763D01*
X134116963Y-140962763D01*
X134116963Y-141144023D01*
X134347981Y-141144023D01*
X134347981Y-141451454D01*
X134351535Y-141533643D01*
X134362197Y-141606058D01*
X134411066Y-141720679D01*
X134503473Y-141792649D01*
X134568114Y-141811309D01*
X134646527Y-141817528D01*
X134755816Y-141805977D01*
X134882876Y-141762439D01*
X134854443Y-141586511D01*
X134758481Y-141619386D01*
X134685622Y-141627383D01*
X134594103Y-141590953D01*
X134566559Y-141479887D01*
X134566559Y-140962763D01*
X134966397Y-140962763D01*
X135004215Y-141086435D01*
X135043033Y-141205109D01*
X135082850Y-141318785D01*
X135123667Y-141427464D01*
X135178460Y-141563014D01*
X135232660Y-141686519D01*
X135286268Y-141797981D01*
X135469305Y-141797981D01*
X135523802Y-141686519D01*
X135580668Y-141563014D01*
X135639903Y-141427464D01*
X135656207Y-141387480D01*
X135885137Y-141387480D01*
X135893134Y-141487439D01*
X135917124Y-141574071D01*
X135955998Y-141647597D01*
X136008643Y-141708239D01*
X136074394Y-141755775D01*
X136152585Y-141789984D01*
X136242548Y-141810642D01*
X136343619Y-141817528D01*
X136487561Y-141804200D01*
X136608401Y-141771325D01*
X136578191Y-141584733D01*
X136477787Y-141613166D01*
X136352504Y-141627383D01*
X136255654Y-141615610D01*
X136178352Y-141580291D01*
X136127706Y-141524536D01*
X136110824Y-141451454D01*
X136652827Y-141451454D01*
X136655493Y-141414136D01*
X136656381Y-141369709D01*
X136645719Y-141241070D01*
X136613732Y-141134742D01*
X136560420Y-141050727D01*
X136486573Y-140990011D01*
X136392982Y-140953581D01*
X136279645Y-140941438D01*
X136205897Y-140948546D01*
X136133926Y-140969871D01*
X136066842Y-141005190D01*
X136007754Y-141054281D01*
X135957997Y-141117145D01*
X135918901Y-141193780D01*
X135893578Y-141283966D01*
X135885137Y-141387480D01*
X135656207Y-141387480D01*
X135684218Y-141318785D01*
X135726535Y-141205109D01*
X135766852Y-141086435D01*
X135805170Y-140962763D01*
X135583037Y-140962763D01*
X135564600Y-141032512D01*
X135541276Y-141106704D01*
X135515065Y-141183340D01*
X135487964Y-141260420D01*
X135460198Y-141336611D01*
X135431987Y-141410582D01*
X135380452Y-141543861D01*
X135331583Y-141410582D01*
X135306038Y-141336611D01*
X135280937Y-141260420D01*
X135256725Y-141183340D01*
X135233845Y-141106704D01*
X135213187Y-141032512D01*
X135195638Y-140962763D01*
X134966397Y-140962763D01*
X134566559Y-140962763D01*
X134419063Y-140962763D01*
X134116963Y-140962763D01*
X133892834Y-140962763D01*
X133836187Y-140954766D01*
X133765994Y-140948546D01*
X133715347Y-140946769D01*
X133600505Y-140951656D01*
X133501212Y-140966317D01*
X133410804Y-140988974D01*
X133322617Y-141017851D01*
X133087568Y-141017851D01*
X133081826Y-140992084D01*
X133040287Y-140895679D01*
X132984976Y-140817932D01*
X132915893Y-140758623D01*
X132843785Y-140722859D01*
X134282229Y-140722859D01*
X134322213Y-140824152D01*
X134419063Y-140861470D01*
X134516801Y-140824152D01*
X134518952Y-140818821D01*
X137683522Y-140818821D01*
X137791922Y-140971648D01*
X137903877Y-140888126D01*
X138012278Y-140863247D01*
X138115347Y-140899677D01*
X138156220Y-141003635D01*
X138123344Y-141097819D01*
X138039822Y-141193780D01*
X137987399Y-141244649D01*
X137931422Y-141297738D01*
X137875444Y-141354160D01*
X137823021Y-141415024D01*
X137776817Y-141480998D01*
X137739499Y-141552746D01*
X137714842Y-141630937D01*
X137706624Y-141716236D01*
X137705735Y-141753554D01*
X137710178Y-141797981D01*
X138428110Y-141797981D01*
X138428110Y-141616721D01*
X137955412Y-141616721D01*
X137974071Y-141558078D01*
X138019386Y-141494992D01*
X138076252Y-141434572D01*
X138129564Y-141383926D01*
X138220194Y-141295073D01*
X138300162Y-141199111D01*
X138357027Y-141096931D01*
X138378352Y-140987641D01*
X138349919Y-140849919D01*
X138273506Y-140751292D01*
X138163328Y-140692649D01*
X138033603Y-140673102D01*
X137940973Y-140681987D01*
X137847900Y-140708643D01*
X137760158Y-140753958D01*
X137683522Y-140818821D01*
X134518952Y-140818821D01*
X134557674Y-140722859D01*
X134516801Y-140619790D01*
X134419063Y-140582472D01*
X134322213Y-140619790D01*
X134282229Y-140722859D01*
X132843785Y-140722859D01*
X132833037Y-140717528D01*
X132738631Y-140693538D01*
X132634895Y-140685541D01*
X132512278Y-140690872D01*
X132371890Y-140712197D01*
X131411744Y-140712197D01*
X131460297Y-140658627D01*
X131515967Y-140608170D01*
X131576316Y-140563413D01*
X131640760Y-140524786D01*
X131708681Y-140492663D01*
X131779423Y-140467351D01*
X131852305Y-140449095D01*
X131926626Y-140438070D01*
X132001669Y-140434383D01*
X132371890Y-140434383D01*
X138428110Y-140434383D01*
X138798331Y-140434383D01*
X138873374Y-140438070D01*
G37*
G36*
X132773506Y-140906785D02*
G01*
X132846365Y-140989418D01*
X132883683Y-141108481D01*
X132894346Y-141247092D01*
X132891014Y-141325505D01*
X132881018Y-141397254D01*
X132836591Y-141515428D01*
X132754847Y-141593619D01*
X132629564Y-141622052D01*
X132610016Y-141622052D01*
X132590468Y-141620275D01*
X132590468Y-140881018D01*
X132622456Y-140876575D01*
X132654443Y-140875687D01*
X132773506Y-140906785D01*
G37*
G36*
X136357835Y-141139580D02*
G01*
X136407593Y-141179564D01*
X136436026Y-141235541D01*
X136444911Y-141300404D01*
X136110824Y-141300404D01*
X136125929Y-141234653D01*
X136157916Y-141177787D01*
X136209451Y-141138691D01*
X136283199Y-141124475D01*
X136357835Y-141139580D01*
G37*
%TO.C,kibuzzard-67B60589*%
G36*
X111870709Y-140438070D02*
G01*
X111945029Y-140449095D01*
X112017912Y-140467351D01*
X112088654Y-140492663D01*
X112156574Y-140524786D01*
X112221019Y-140563413D01*
X112281367Y-140608170D01*
X112337038Y-140658627D01*
X112387495Y-140714298D01*
X112432252Y-140774646D01*
X112470879Y-140839091D01*
X112503003Y-140907011D01*
X112528314Y-140977753D01*
X112546571Y-141050636D01*
X112557595Y-141124956D01*
X112561282Y-141200000D01*
X112557595Y-141275044D01*
X112546571Y-141349364D01*
X112528314Y-141422247D01*
X112503003Y-141492989D01*
X112470879Y-141560909D01*
X112432252Y-141625354D01*
X112387495Y-141685702D01*
X112337038Y-141741373D01*
X112281367Y-141791830D01*
X112221019Y-141836587D01*
X112156574Y-141875214D01*
X112088654Y-141907337D01*
X112017912Y-141932649D01*
X111945029Y-141950905D01*
X111870709Y-141961930D01*
X111795665Y-141965617D01*
X111425444Y-141965617D01*
X109346284Y-141965617D01*
X108288934Y-141965617D01*
X107649192Y-141965617D01*
X106545638Y-141965617D01*
X105609128Y-141965617D01*
X105374556Y-141965617D01*
X105004335Y-141965617D01*
X104929291Y-141961930D01*
X104854971Y-141950905D01*
X104782088Y-141932649D01*
X104711346Y-141907337D01*
X104643426Y-141875214D01*
X104578981Y-141836587D01*
X104518633Y-141791830D01*
X104462962Y-141741373D01*
X104412505Y-141685702D01*
X104367748Y-141625354D01*
X104329121Y-141560909D01*
X104296997Y-141492989D01*
X104271686Y-141422247D01*
X104253429Y-141349364D01*
X104242405Y-141275044D01*
X104238718Y-141200000D01*
X104242405Y-141124956D01*
X104253429Y-141050636D01*
X104271686Y-140977753D01*
X104296997Y-140907011D01*
X104329121Y-140839091D01*
X104367748Y-140774646D01*
X104412505Y-140714298D01*
X104414409Y-140712197D01*
X105374556Y-140712197D01*
X105374556Y-141785541D01*
X105494507Y-141805977D01*
X105609128Y-141812197D01*
X105716418Y-141804422D01*
X105814378Y-141781099D01*
X105901232Y-141740893D01*
X105975202Y-141682472D01*
X106035400Y-141604947D01*
X106080937Y-141507431D01*
X106109592Y-141388590D01*
X106119144Y-141247092D01*
X106110481Y-141108704D01*
X106090233Y-141017851D01*
X106325283Y-141017851D01*
X106325283Y-141797981D01*
X106545638Y-141797981D01*
X106545638Y-141177787D01*
X106636268Y-141160905D01*
X106726898Y-141156462D01*
X106774879Y-141158239D01*
X106833522Y-141164459D01*
X106893053Y-141174233D01*
X106943700Y-141184895D01*
X106982795Y-140982310D01*
X106914378Y-140965428D01*
X106895500Y-140962763D01*
X107119628Y-140962763D01*
X107119628Y-141144023D01*
X107350646Y-141144023D01*
X107350646Y-141451454D01*
X107354200Y-141533643D01*
X107364863Y-141606058D01*
X107413732Y-141720679D01*
X107506139Y-141792649D01*
X107570779Y-141811309D01*
X107649192Y-141817528D01*
X107758481Y-141805977D01*
X107885541Y-141762439D01*
X107857108Y-141586511D01*
X107761147Y-141619386D01*
X107688288Y-141627383D01*
X107596769Y-141590953D01*
X107569225Y-141479887D01*
X107569225Y-140962763D01*
X107969063Y-140962763D01*
X108006881Y-141086435D01*
X108045699Y-141205109D01*
X108085516Y-141318785D01*
X108126333Y-141427464D01*
X108181125Y-141563014D01*
X108235326Y-141686519D01*
X108288934Y-141797981D01*
X108471971Y-141797981D01*
X108526467Y-141686519D01*
X108583333Y-141563014D01*
X108642569Y-141427464D01*
X108658873Y-141387480D01*
X108887803Y-141387480D01*
X108895800Y-141487439D01*
X108919790Y-141574071D01*
X108958663Y-141647597D01*
X109011309Y-141708239D01*
X109077060Y-141755775D01*
X109155250Y-141789984D01*
X109245214Y-141810642D01*
X109346284Y-141817528D01*
X109490226Y-141804200D01*
X109611066Y-141771325D01*
X109580856Y-141584733D01*
X109480452Y-141613166D01*
X109355170Y-141627383D01*
X109258320Y-141615610D01*
X109181018Y-141580291D01*
X109130372Y-141524536D01*
X109113489Y-141451454D01*
X109655493Y-141451454D01*
X109658158Y-141414136D01*
X109659047Y-141369709D01*
X109648384Y-141241070D01*
X109616397Y-141134742D01*
X109563086Y-141050727D01*
X109489239Y-140990011D01*
X109395647Y-140953581D01*
X109282310Y-140941438D01*
X109208562Y-140948546D01*
X109136591Y-140969871D01*
X109069507Y-141005190D01*
X109010420Y-141054281D01*
X108960662Y-141117145D01*
X108921567Y-141193780D01*
X108896244Y-141283966D01*
X108887803Y-141387480D01*
X108658873Y-141387480D01*
X108686884Y-141318785D01*
X108729200Y-141205109D01*
X108769517Y-141086435D01*
X108807835Y-140962763D01*
X108585703Y-140962763D01*
X108567266Y-141032512D01*
X108543942Y-141106704D01*
X108517730Y-141183340D01*
X108490630Y-141260420D01*
X108462863Y-141336611D01*
X108434653Y-141410582D01*
X108383118Y-141543861D01*
X108334249Y-141410582D01*
X108308704Y-141336611D01*
X108283603Y-141260420D01*
X108259390Y-141183340D01*
X108236511Y-141106704D01*
X108215852Y-141032512D01*
X108198304Y-140962763D01*
X107969063Y-140962763D01*
X107569225Y-140962763D01*
X107421729Y-140962763D01*
X107119628Y-140962763D01*
X106895500Y-140962763D01*
X106838853Y-140954766D01*
X106768659Y-140948546D01*
X106718013Y-140946769D01*
X106603170Y-140951656D01*
X106503877Y-140966317D01*
X106413469Y-140988974D01*
X106325283Y-141017851D01*
X106090233Y-141017851D01*
X106084491Y-140992084D01*
X106056543Y-140927221D01*
X110695073Y-140927221D01*
X110766155Y-141108481D01*
X110874556Y-141064943D01*
X110988288Y-141001858D01*
X110988288Y-141616721D01*
X110757270Y-141616721D01*
X110757270Y-141797981D01*
X111425444Y-141797981D01*
X111425444Y-141616721D01*
X111206866Y-141616721D01*
X111206866Y-140697981D01*
X111057593Y-140697981D01*
X110981179Y-140767286D01*
X110886995Y-140831260D01*
X110787480Y-140886349D01*
X110695073Y-140927221D01*
X106056543Y-140927221D01*
X106042952Y-140895679D01*
X105987641Y-140817932D01*
X105918558Y-140758623D01*
X105846451Y-140722859D01*
X107284895Y-140722859D01*
X107324879Y-140824152D01*
X107421729Y-140861470D01*
X107519467Y-140824152D01*
X107560339Y-140722859D01*
X107519467Y-140619790D01*
X107421729Y-140582472D01*
X107324879Y-140619790D01*
X107284895Y-140722859D01*
X105846451Y-140722859D01*
X105835703Y-140717528D01*
X105741296Y-140693538D01*
X105637561Y-140685541D01*
X105514943Y-140690872D01*
X105374556Y-140712197D01*
X104414409Y-140712197D01*
X104462962Y-140658627D01*
X104518633Y-140608170D01*
X104578981Y-140563413D01*
X104643426Y-140524786D01*
X104711346Y-140492663D01*
X104782088Y-140467351D01*
X104854971Y-140449095D01*
X104929291Y-140438070D01*
X105004335Y-140434383D01*
X105374556Y-140434383D01*
X111425444Y-140434383D01*
X111795665Y-140434383D01*
X111870709Y-140438070D01*
G37*
G36*
X105776171Y-140906785D02*
G01*
X105849031Y-140989418D01*
X105886349Y-141108481D01*
X105897011Y-141247092D01*
X105893679Y-141325505D01*
X105883683Y-141397254D01*
X105839257Y-141515428D01*
X105757512Y-141593619D01*
X105632229Y-141622052D01*
X105612682Y-141622052D01*
X105593134Y-141620275D01*
X105593134Y-140881018D01*
X105625121Y-140876575D01*
X105657108Y-140875687D01*
X105776171Y-140906785D01*
G37*
G36*
X109360501Y-141139580D02*
G01*
X109410258Y-141179564D01*
X109438691Y-141235541D01*
X109447577Y-141300404D01*
X109113489Y-141300404D01*
X109128595Y-141234653D01*
X109160582Y-141177787D01*
X109212116Y-141138691D01*
X109285864Y-141124475D01*
X109360501Y-141139580D01*
G37*
D12*
%TO.C,RN1*%
X139520000Y-134900000D02*
X139520000Y-134100000D01*
X136080000Y-134900000D02*
X136080000Y-134100000D01*
%TO.C,D4*%
X181115000Y-140440000D02*
X181115000Y-142360000D01*
X181115000Y-142360000D02*
X183800000Y-142360000D01*
X183800000Y-140440000D02*
X181115000Y-140440000D01*
%TO.C,D3*%
X154177500Y-140440000D02*
X154177500Y-142360000D01*
X154177500Y-142360000D02*
X156862500Y-142360000D01*
X156862500Y-140440000D02*
X154177500Y-140440000D01*
%TO.C,D2*%
X127115000Y-140440000D02*
X127115000Y-142360000D01*
X127115000Y-142360000D02*
X129800000Y-142360000D01*
X129800000Y-140440000D02*
X127115000Y-140440000D01*
%TO.C,D1*%
X100115000Y-140240000D02*
X100115000Y-142160000D01*
X100115000Y-142160000D02*
X102800000Y-142160000D01*
X102800000Y-140240000D02*
X100115000Y-140240000D01*
D11*
%TO.C,kibuzzard-67B6042A*%
G36*
X203544911Y-85833570D02*
G01*
X203544911Y-88204976D01*
X203544911Y-89606107D01*
X203544911Y-91787528D01*
X203544911Y-92462649D01*
X203544911Y-94739063D01*
X203544911Y-96686397D01*
X203544911Y-98436963D01*
X203544911Y-102382520D01*
X203544911Y-103600452D01*
X203544911Y-105140679D01*
X203544911Y-106833570D01*
X203544911Y-108658772D01*
X203544911Y-110863942D01*
X203544911Y-111681551D01*
X203544911Y-113700129D01*
X203544911Y-115396414D01*
X203544911Y-117041809D01*
X203544911Y-118958611D01*
X203544911Y-122164588D01*
X203544911Y-123430016D01*
X203544911Y-125139871D01*
X203544911Y-126388336D01*
X203544911Y-128664750D01*
X203544911Y-130299968D01*
X203544911Y-131470404D01*
X203544911Y-132946171D01*
X203544911Y-133652956D01*
X203536509Y-133823988D01*
X203511383Y-133993372D01*
X203469776Y-134159477D01*
X203412088Y-134320705D01*
X203338874Y-134475502D01*
X203250841Y-134622377D01*
X203148835Y-134759916D01*
X203033838Y-134886795D01*
X202906960Y-135001791D01*
X202769421Y-135103797D01*
X202622545Y-135191831D01*
X202467749Y-135265044D01*
X202306521Y-135322732D01*
X202140415Y-135364340D01*
X201971031Y-135389465D01*
X201800000Y-135397868D01*
X201628969Y-135389465D01*
X201459585Y-135364340D01*
X201293479Y-135322732D01*
X201132251Y-135265044D01*
X200977455Y-135191831D01*
X200830579Y-135103797D01*
X200693040Y-135001791D01*
X200566162Y-134886795D01*
X200451165Y-134759916D01*
X200349159Y-134622377D01*
X200261126Y-134475502D01*
X200187912Y-134320705D01*
X200130224Y-134159477D01*
X200088617Y-133993372D01*
X200063491Y-133823988D01*
X200055089Y-133652956D01*
X200055089Y-132946171D01*
X200055089Y-132403360D01*
X200568498Y-132403360D01*
X200571890Y-132522100D01*
X200580372Y-132664588D01*
X200597334Y-132812165D01*
X200622779Y-132946171D01*
X202692246Y-132946171D01*
X202692246Y-132528885D01*
X201918740Y-132528885D01*
X201918740Y-132311761D01*
X202110844Y-132196838D01*
X202300404Y-132089548D01*
X202492508Y-131992435D01*
X202692246Y-131908045D01*
X202692246Y-131470404D01*
X202470032Y-131567092D01*
X202235945Y-131684136D01*
X202012036Y-131809661D01*
X201816963Y-131931793D01*
X201721123Y-131783368D01*
X201589661Y-131684136D01*
X201431906Y-131628158D01*
X201257189Y-131609499D01*
X201092225Y-131623494D01*
X200950162Y-131665477D01*
X200734733Y-131826624D01*
X200660945Y-131941971D01*
X200609208Y-132077674D01*
X200578675Y-132232036D01*
X200568498Y-132403360D01*
X200055089Y-132403360D01*
X200055089Y-131310953D01*
X201097738Y-131310953D01*
X201443780Y-131310953D01*
X201443780Y-130869919D01*
X202030695Y-130869919D01*
X202187601Y-130863134D01*
X202325848Y-130842779D01*
X202544669Y-130749483D01*
X202682068Y-130573069D01*
X202717690Y-130449665D01*
X202729564Y-130299968D01*
X202707512Y-130091325D01*
X202624394Y-129848756D01*
X202288530Y-129903037D01*
X202351292Y-130086236D01*
X202366559Y-130225331D01*
X202297011Y-130400048D01*
X202084976Y-130452633D01*
X201097738Y-130452633D01*
X201097738Y-130734216D01*
X201097738Y-131310953D01*
X200055089Y-131310953D01*
X200055089Y-130734216D01*
X200371729Y-130734216D01*
X200442973Y-130919111D01*
X200639742Y-130995444D01*
X200833118Y-130919111D01*
X200904362Y-130734216D01*
X200833118Y-130547625D01*
X200639742Y-130469596D01*
X200442973Y-130547625D01*
X200371729Y-130734216D01*
X200055089Y-130734216D01*
X200055089Y-128674927D01*
X201057027Y-128674927D01*
X201073566Y-128895868D01*
X201123183Y-129083732D01*
X201201212Y-129240214D01*
X201302989Y-129367011D01*
X201426393Y-129464548D01*
X201569305Y-129533247D01*
X201727060Y-129573958D01*
X201894992Y-129587528D01*
X202065468Y-129574382D01*
X202224071Y-129534943D01*
X202366559Y-129467516D01*
X202488691Y-129370404D01*
X202588772Y-129242758D01*
X202665105Y-129083732D01*
X202713449Y-128891628D01*
X202729564Y-128664750D01*
X202724051Y-128506147D01*
X202707512Y-128369596D01*
X202651535Y-128155864D01*
X202308885Y-128216931D01*
X202352989Y-128412003D01*
X202366559Y-128617254D01*
X202335178Y-128872120D01*
X202241034Y-129039628D01*
X202091761Y-129132500D01*
X201894992Y-129163457D01*
X201705008Y-129136317D01*
X201554039Y-129048110D01*
X201455654Y-128886963D01*
X201420032Y-128637609D01*
X201438691Y-128425574D01*
X201481099Y-128274604D01*
X201145234Y-128183005D01*
X201077383Y-128417092D01*
X201057027Y-128674927D01*
X200055089Y-128674927D01*
X200055089Y-127406107D01*
X200337803Y-127406107D01*
X200409047Y-127826785D01*
X202692246Y-127826785D01*
X202692246Y-127406107D01*
X201939095Y-127406107D01*
X202093457Y-127265315D01*
X202290226Y-127114346D01*
X202500565Y-126973554D01*
X202692246Y-126866688D01*
X202692246Y-126388336D01*
X202475121Y-126515557D01*
X202352989Y-126599099D01*
X202230856Y-126690275D01*
X202110844Y-126786115D01*
X201995073Y-126883651D01*
X201800000Y-127066850D01*
X201637157Y-126915880D01*
X201453958Y-126749645D01*
X201267367Y-126588498D01*
X201097738Y-126449402D01*
X201097738Y-126951502D01*
X201248708Y-127046494D01*
X201413247Y-127160145D01*
X201577787Y-127282278D01*
X201728756Y-127406107D01*
X200337803Y-127406107D01*
X200055089Y-127406107D01*
X200055089Y-124804006D01*
X200592246Y-124804006D01*
X200592246Y-125180582D01*
X201884814Y-125180582D01*
X201752504Y-125240376D01*
X201599838Y-125311195D01*
X201434451Y-125390921D01*
X201263974Y-125477431D01*
X201090529Y-125568607D01*
X200916236Y-125662326D01*
X200747880Y-125757318D01*
X200592246Y-125852310D01*
X200592246Y-126188174D01*
X202692246Y-126188174D01*
X202692246Y-125811599D01*
X201297900Y-125811599D01*
X201530668Y-125685509D01*
X201763059Y-125565073D01*
X201995073Y-125450291D01*
X202227087Y-125341163D01*
X202459478Y-125237690D01*
X202692246Y-125139871D01*
X202692246Y-124804006D01*
X200592246Y-124804006D01*
X200055089Y-124804006D01*
X200055089Y-123565719D01*
X200592246Y-123565719D01*
X200592246Y-124020323D01*
X200824530Y-124092203D01*
X201063389Y-124165355D01*
X201308820Y-124239780D01*
X201560824Y-124315477D01*
X201769467Y-124376407D01*
X201986931Y-124437066D01*
X202213215Y-124497454D01*
X202448320Y-124557570D01*
X202692246Y-124617415D01*
X202692246Y-124183166D01*
X202207108Y-124088174D01*
X202207108Y-123528401D01*
X202692246Y-123430016D01*
X202692246Y-122982197D01*
X202454155Y-123038174D01*
X202222985Y-123094830D01*
X201998737Y-123152165D01*
X201781409Y-123210178D01*
X201571002Y-123268869D01*
X201315817Y-123342764D01*
X201067629Y-123416870D01*
X200826439Y-123491188D01*
X200592246Y-123565719D01*
X200055089Y-123565719D01*
X200055089Y-122066204D01*
X200544750Y-122066204D01*
X200563220Y-122274093D01*
X200618632Y-122449941D01*
X200710985Y-122593748D01*
X200909451Y-122737508D01*
X201172375Y-122785428D01*
X201421729Y-122731147D01*
X201589661Y-122593748D01*
X201701616Y-122408853D01*
X201779645Y-122212084D01*
X201839015Y-122069596D01*
X201910258Y-121940679D01*
X202000162Y-121845687D01*
X202115509Y-121808368D01*
X202215590Y-121823635D01*
X202303796Y-121879612D01*
X202364863Y-121989871D01*
X202386914Y-122164588D01*
X202375040Y-122333792D01*
X202339418Y-122475008D01*
X202237641Y-122693829D01*
X202576898Y-122815961D01*
X202680372Y-122581874D01*
X202722355Y-122399523D01*
X202736349Y-122164588D01*
X202718444Y-121926543D01*
X202664728Y-121732601D01*
X202575202Y-121582763D01*
X202380553Y-121439002D01*
X202118901Y-121391082D01*
X201960723Y-121405501D01*
X201832229Y-121448756D01*
X201642246Y-121596333D01*
X201520113Y-121793102D01*
X201436995Y-121998352D01*
X201386107Y-122128966D01*
X201323344Y-122247706D01*
X201241922Y-122334216D01*
X201135057Y-122368142D01*
X201001239Y-122331201D01*
X200920948Y-122220377D01*
X200894184Y-122035670D01*
X200928110Y-121796494D01*
X201009532Y-121608207D01*
X200687237Y-121486074D01*
X200588853Y-121728643D01*
X200555775Y-121885125D01*
X200544750Y-122066204D01*
X200055089Y-122066204D01*
X200055089Y-118799160D01*
X200568498Y-118799160D01*
X200571890Y-118931470D01*
X200580372Y-119084136D01*
X200595638Y-119238498D01*
X200619386Y-119375897D01*
X202692246Y-119375897D01*
X202692246Y-118958611D01*
X201983199Y-118958611D01*
X201983199Y-118809338D01*
X201964540Y-118558476D01*
X201908562Y-118348702D01*
X201815267Y-118180016D01*
X201680129Y-118056564D01*
X201498627Y-117982493D01*
X201270759Y-117957803D01*
X201045153Y-117982305D01*
X200865913Y-118055810D01*
X200733037Y-118178320D01*
X200641626Y-118345310D01*
X200586780Y-118552256D01*
X200568498Y-118799160D01*
X200055089Y-118799160D01*
X200055089Y-117048595D01*
X201057027Y-117048595D01*
X201062540Y-117198716D01*
X201079079Y-117343748D01*
X201128271Y-117564265D01*
X201464136Y-117506591D01*
X201423425Y-117328481D01*
X201406462Y-117099483D01*
X201426393Y-116943425D01*
X201486187Y-116841648D01*
X201684653Y-116767011D01*
X201735541Y-116767011D01*
X201715186Y-116901866D01*
X201708401Y-117055380D01*
X201733845Y-117303037D01*
X201816963Y-117513376D01*
X201969628Y-117659257D01*
X202203716Y-117713538D01*
X202449677Y-117666042D01*
X202612520Y-117530339D01*
X202702423Y-117318304D01*
X202729564Y-117041809D01*
X202722779Y-116828926D01*
X202702423Y-116638094D01*
X202654927Y-116366688D01*
X201705008Y-116366688D01*
X201435299Y-116400614D01*
X201231745Y-116512569D01*
X201102827Y-116721212D01*
X201068477Y-116868364D01*
X201057027Y-117048595D01*
X200055089Y-117048595D01*
X200055089Y-115260711D01*
X201057027Y-115260711D01*
X201066781Y-115427795D01*
X201096042Y-115569435D01*
X201204604Y-115781470D01*
X201364055Y-115903603D01*
X201555735Y-115942617D01*
X201764378Y-115891729D01*
X201901777Y-115762811D01*
X201991680Y-115589790D01*
X202054443Y-115403199D01*
X202095153Y-115279370D01*
X202137561Y-115174200D01*
X202190145Y-115102956D01*
X202264782Y-115077512D01*
X202354685Y-115158934D01*
X202376737Y-115393021D01*
X202336026Y-115666123D01*
X202247819Y-115918869D01*
X202597254Y-115983328D01*
X202682068Y-115749241D01*
X202717690Y-115588094D01*
X202729564Y-115396414D01*
X202720234Y-115208974D01*
X202692246Y-115053764D01*
X202590468Y-114828158D01*
X202437803Y-114704330D01*
X202251212Y-114667011D01*
X202039176Y-114717900D01*
X201896688Y-114848514D01*
X201803393Y-115026624D01*
X201735541Y-115216607D01*
X201693134Y-115337044D01*
X201647334Y-115435428D01*
X201594750Y-115503279D01*
X201528595Y-115528724D01*
X201445477Y-115472746D01*
X201406462Y-115257318D01*
X201445477Y-114982520D01*
X201501454Y-114802714D01*
X201148627Y-114738255D01*
X201080775Y-114970646D01*
X201062964Y-115110166D01*
X201057027Y-115260711D01*
X200055089Y-115260711D01*
X200055089Y-113564427D01*
X201057027Y-113564427D01*
X201066781Y-113731511D01*
X201096042Y-113873150D01*
X201204604Y-114085186D01*
X201364055Y-114207318D01*
X201555735Y-114246333D01*
X201764378Y-114195444D01*
X201901777Y-114066527D01*
X201991680Y-113893506D01*
X202054443Y-113706914D01*
X202095153Y-113583086D01*
X202137561Y-113477916D01*
X202190145Y-113406672D01*
X202264782Y-113381228D01*
X202354685Y-113462649D01*
X202376737Y-113696737D01*
X202336026Y-113969838D01*
X202247819Y-114222585D01*
X202597254Y-114287044D01*
X202682068Y-114052956D01*
X202717690Y-113891809D01*
X202729564Y-113700129D01*
X202720234Y-113512690D01*
X202692246Y-113357480D01*
X202590468Y-113131874D01*
X202437803Y-113008045D01*
X202251212Y-112970727D01*
X202039176Y-113021616D01*
X201896688Y-113152229D01*
X201803393Y-113330339D01*
X201735541Y-113520323D01*
X201693134Y-113640759D01*
X201647334Y-113739144D01*
X201594750Y-113806995D01*
X201528595Y-113832439D01*
X201445477Y-113776462D01*
X201406462Y-113561034D01*
X201445477Y-113286236D01*
X201501454Y-113106430D01*
X201148627Y-113041971D01*
X201080775Y-113274362D01*
X201062964Y-113413881D01*
X201057027Y-113564427D01*
X200055089Y-113564427D01*
X200055089Y-111871535D01*
X200629564Y-111871535D01*
X200697415Y-112288821D01*
X201097738Y-112288821D01*
X201097738Y-112651826D01*
X201443780Y-112651826D01*
X201443780Y-112288821D01*
X202098546Y-112288821D01*
X202279624Y-112278643D01*
X202422536Y-112248110D01*
X202614216Y-112129370D01*
X202705816Y-111939386D01*
X202729564Y-111681551D01*
X202709208Y-111422019D01*
X202641357Y-111172666D01*
X202281745Y-111230339D01*
X202325848Y-111337205D01*
X202351292Y-111432197D01*
X202363166Y-111527189D01*
X202366559Y-111634055D01*
X202356381Y-111732439D01*
X202315670Y-111807076D01*
X202230856Y-111854572D01*
X202088368Y-111871535D01*
X201443780Y-111871535D01*
X201443780Y-111203199D01*
X201097738Y-111203199D01*
X201097738Y-111871535D01*
X200629564Y-111871535D01*
X200055089Y-111871535D01*
X200055089Y-110446656D01*
X200337803Y-110446656D01*
X200409047Y-110863942D01*
X202692246Y-110863942D01*
X202692246Y-110446656D01*
X201464136Y-110446656D01*
X201440388Y-110356753D01*
X201426817Y-110243102D01*
X201525202Y-110049725D01*
X201654968Y-110011559D01*
X201847496Y-109998837D01*
X202692246Y-109998837D01*
X202692246Y-109581551D01*
X201793215Y-109581551D01*
X201637581Y-109589184D01*
X201496365Y-109612084D01*
X201265670Y-109713861D01*
X201116397Y-109903845D01*
X201076959Y-110037003D01*
X201063813Y-110198998D01*
X201079079Y-110324523D01*
X201111309Y-110446656D01*
X200337803Y-110446656D01*
X200055089Y-110446656D01*
X200055089Y-108329693D01*
X201067205Y-108329693D01*
X201076535Y-108548938D01*
X201104523Y-108738498D01*
X201147779Y-108911095D01*
X201202908Y-109079451D01*
X202692246Y-109079451D01*
X202692246Y-108658772D01*
X201508239Y-108658772D01*
X201476010Y-108485751D01*
X201467528Y-108312730D01*
X201470921Y-108221131D01*
X201482795Y-108109176D01*
X201501454Y-107995525D01*
X201521809Y-107898837D01*
X201135057Y-107824200D01*
X201102827Y-107954814D01*
X201082472Y-108098998D01*
X201070598Y-108233005D01*
X201067205Y-108329693D01*
X200055089Y-108329693D01*
X200055089Y-106833570D01*
X201057027Y-106833570D01*
X201071870Y-106990477D01*
X201116397Y-107135509D01*
X201188489Y-107264851D01*
X201286026Y-107374685D01*
X201407310Y-107463740D01*
X201550646Y-107530743D01*
X201713065Y-107572726D01*
X201891599Y-107586721D01*
X202072678Y-107573150D01*
X202235945Y-107532439D01*
X202379705Y-107466708D01*
X202502262Y-107378078D01*
X202601494Y-107268667D01*
X202675283Y-107140598D01*
X202721082Y-106995141D01*
X202736349Y-106833570D01*
X202721082Y-106671999D01*
X202675283Y-106526543D01*
X202601494Y-106398897D01*
X202502262Y-106290759D01*
X202379705Y-106203401D01*
X202235945Y-106138094D01*
X202072678Y-106097383D01*
X201891599Y-106083813D01*
X201713065Y-106097383D01*
X201550646Y-106138094D01*
X201407310Y-106203825D01*
X201286026Y-106292456D01*
X201188489Y-106401866D01*
X201116397Y-106529935D01*
X201071870Y-106674544D01*
X201057027Y-106833570D01*
X200055089Y-106833570D01*
X200055089Y-104502876D01*
X201097738Y-104502876D01*
X201097738Y-104923554D01*
X202349596Y-104923554D01*
X202366559Y-105113538D01*
X202259693Y-105318788D01*
X202124414Y-105358227D01*
X201932310Y-105371373D01*
X201097738Y-105371373D01*
X201097738Y-105788659D01*
X201986591Y-105788659D01*
X202142649Y-105781874D01*
X202285137Y-105761519D01*
X202520921Y-105661438D01*
X202675283Y-105462973D01*
X202715994Y-105319637D01*
X202729564Y-105140679D01*
X202721931Y-104954511D01*
X202699031Y-104782763D01*
X202668498Y-104630521D01*
X202637964Y-104502876D01*
X201097738Y-104502876D01*
X200055089Y-104502876D01*
X200055089Y-103373150D01*
X201063813Y-103373150D01*
X201085299Y-103604599D01*
X201149758Y-103801368D01*
X201257189Y-103963457D01*
X201408347Y-104084082D01*
X201603985Y-104156457D01*
X201844103Y-104180582D01*
X202060097Y-104162676D01*
X202242165Y-104108961D01*
X202390307Y-104019435D01*
X202499623Y-103895229D01*
X202565213Y-103737474D01*
X202587076Y-103546171D01*
X202570113Y-103388417D01*
X202519225Y-103227270D01*
X202583683Y-103227270D01*
X202710905Y-103244233D01*
X202814378Y-103301906D01*
X202883926Y-103413861D01*
X202909370Y-103593667D01*
X202877141Y-103865073D01*
X202807593Y-104072019D01*
X203160420Y-104150048D01*
X203231664Y-103887124D01*
X203254564Y-103746757D01*
X203262197Y-103600452D01*
X203241465Y-103347706D01*
X203179268Y-103145848D01*
X203075606Y-102994879D01*
X202928595Y-102890275D01*
X202736349Y-102827512D01*
X202498869Y-102806591D01*
X201148627Y-102806591D01*
X201101508Y-103005245D01*
X201073236Y-103194098D01*
X201063813Y-103373150D01*
X200055089Y-103373150D01*
X200055089Y-101965234D01*
X200337803Y-101965234D01*
X200409047Y-102382520D01*
X202692246Y-102382520D01*
X202692246Y-101965234D01*
X201464136Y-101965234D01*
X201440388Y-101875331D01*
X201426817Y-101761680D01*
X201525202Y-101568304D01*
X201654968Y-101530137D01*
X201847496Y-101517415D01*
X202692246Y-101517415D01*
X202692246Y-101100129D01*
X201793215Y-101100129D01*
X201637581Y-101107763D01*
X201496365Y-101130662D01*
X201265670Y-101232439D01*
X201116397Y-101422423D01*
X201076959Y-101555582D01*
X201063813Y-101717577D01*
X201079079Y-101843102D01*
X201111309Y-101965234D01*
X200337803Y-101965234D01*
X200055089Y-101965234D01*
X200055089Y-98477674D01*
X200568498Y-98477674D01*
X200583764Y-98759257D01*
X200619386Y-99020485D01*
X202658320Y-99020485D01*
X202685036Y-98873756D01*
X202704120Y-98725331D01*
X202715569Y-98578603D01*
X202719386Y-98436963D01*
X202711329Y-98269455D01*
X202687157Y-98112973D01*
X202643901Y-97972181D01*
X202578595Y-97851745D01*
X202375040Y-97677027D01*
X202232128Y-97628683D01*
X202057835Y-97612569D01*
X201915347Y-97631652D01*
X201779645Y-97688901D01*
X201660905Y-97799584D01*
X201569305Y-97978966D01*
X201386107Y-97783893D01*
X201262278Y-97729188D01*
X201121486Y-97710953D01*
X200924717Y-97741486D01*
X200746607Y-97856834D01*
X200617690Y-98090921D01*
X200580796Y-98262246D01*
X200568498Y-98477674D01*
X200055089Y-98477674D01*
X200055089Y-96693183D01*
X201057027Y-96693183D01*
X201062540Y-96843304D01*
X201079079Y-96988336D01*
X201128271Y-97208853D01*
X201464136Y-97151179D01*
X201423425Y-96973069D01*
X201406462Y-96744071D01*
X201426393Y-96588013D01*
X201486187Y-96486236D01*
X201684653Y-96411599D01*
X201735541Y-96411599D01*
X201715186Y-96546454D01*
X201708401Y-96699968D01*
X201733845Y-96947625D01*
X201816963Y-97157964D01*
X201969628Y-97303845D01*
X202203716Y-97358126D01*
X202449677Y-97310630D01*
X202612520Y-97174927D01*
X202702423Y-96962892D01*
X202729564Y-96686397D01*
X202722779Y-96473514D01*
X202702423Y-96282682D01*
X202654927Y-96011276D01*
X201705008Y-96011276D01*
X201435299Y-96045202D01*
X201231745Y-96157157D01*
X201102827Y-96365800D01*
X201068477Y-96512952D01*
X201057027Y-96693183D01*
X200055089Y-96693183D01*
X200055089Y-94749241D01*
X201057027Y-94749241D01*
X201073566Y-94970182D01*
X201123183Y-95158045D01*
X201201212Y-95314527D01*
X201302989Y-95441325D01*
X201426393Y-95538861D01*
X201569305Y-95607561D01*
X201727060Y-95648271D01*
X201894992Y-95661842D01*
X202065468Y-95648695D01*
X202224071Y-95609257D01*
X202366559Y-95541830D01*
X202488691Y-95444717D01*
X202588772Y-95317072D01*
X202665105Y-95158045D01*
X202713449Y-94965941D01*
X202729564Y-94739063D01*
X202724051Y-94580460D01*
X202707512Y-94443910D01*
X202651535Y-94230178D01*
X202308885Y-94291244D01*
X202352989Y-94486317D01*
X202366559Y-94691567D01*
X202335178Y-94946434D01*
X202241034Y-95113942D01*
X202091761Y-95206813D01*
X201894992Y-95237771D01*
X201705008Y-95210630D01*
X201554039Y-95122423D01*
X201455654Y-94961276D01*
X201420032Y-94711922D01*
X201438691Y-94499887D01*
X201481099Y-94348918D01*
X201145234Y-94257318D01*
X201077383Y-94491406D01*
X201057027Y-94749241D01*
X200055089Y-94749241D01*
X200055089Y-93480420D01*
X200337803Y-93480420D01*
X200409047Y-93901099D01*
X202692246Y-93901099D01*
X202692246Y-93480420D01*
X201939095Y-93480420D01*
X202093457Y-93339628D01*
X202290226Y-93188659D01*
X202500565Y-93047868D01*
X202692246Y-92941002D01*
X202692246Y-92462649D01*
X202475121Y-92589871D01*
X202352989Y-92673413D01*
X202230856Y-92764588D01*
X202110844Y-92860428D01*
X201995073Y-92957964D01*
X201800000Y-93141163D01*
X201637157Y-92990194D01*
X201453958Y-92823958D01*
X201267367Y-92662811D01*
X201097738Y-92523716D01*
X201097738Y-93025816D01*
X201248708Y-93120808D01*
X201413247Y-93234459D01*
X201577787Y-93356591D01*
X201728756Y-93480420D01*
X200337803Y-93480420D01*
X200055089Y-93480420D01*
X200055089Y-91590759D01*
X201063813Y-91590759D01*
X201069750Y-91754875D01*
X201087561Y-91921535D01*
X201114701Y-92076321D01*
X201148627Y-92204814D01*
X203252019Y-92204814D01*
X203252019Y-91787528D01*
X202651535Y-91787528D01*
X202710057Y-91620444D01*
X202729564Y-91458449D01*
X202714297Y-91311721D01*
X202668498Y-91183651D01*
X202497173Y-90986882D01*
X202375889Y-90918183D01*
X202232553Y-90868142D01*
X202070981Y-90837609D01*
X201894992Y-90827431D01*
X201657135Y-90849295D01*
X201454712Y-90914884D01*
X201287722Y-91024200D01*
X201163328Y-91174604D01*
X201088691Y-91363457D01*
X201063813Y-91590759D01*
X200055089Y-91590759D01*
X200055089Y-89741809D01*
X200358158Y-89741809D01*
X200358158Y-90600129D01*
X200704200Y-90600129D01*
X200704200Y-90159095D01*
X202057835Y-90159095D01*
X202347476Y-90126018D01*
X202558239Y-90026785D01*
X202686733Y-89855460D01*
X202729564Y-89606107D01*
X202715994Y-89417819D01*
X202683764Y-89277027D01*
X202648142Y-89183732D01*
X202624394Y-89137932D01*
X202288530Y-89192213D01*
X202332633Y-89304168D01*
X202366559Y-89514507D01*
X202308885Y-89677351D01*
X202088368Y-89741809D01*
X200358158Y-89741809D01*
X200055089Y-89741809D01*
X200055089Y-88211761D01*
X201057027Y-88211761D01*
X201062540Y-88361882D01*
X201079079Y-88506914D01*
X201128271Y-88727431D01*
X201464136Y-88669758D01*
X201423425Y-88491648D01*
X201406462Y-88262649D01*
X201426393Y-88106591D01*
X201486187Y-88004814D01*
X201684653Y-87930178D01*
X201735541Y-87930178D01*
X201715186Y-88065032D01*
X201708401Y-88218546D01*
X201733845Y-88466204D01*
X201816963Y-88676543D01*
X201969628Y-88822423D01*
X202203716Y-88876704D01*
X202449677Y-88829208D01*
X202612520Y-88693506D01*
X202702423Y-88481470D01*
X202729564Y-88204976D01*
X202722779Y-87992092D01*
X202702423Y-87801260D01*
X202654927Y-87529855D01*
X201705008Y-87529855D01*
X201435299Y-87563780D01*
X201231745Y-87675735D01*
X201102827Y-87884378D01*
X201068477Y-88031531D01*
X201057027Y-88211761D01*
X200055089Y-88211761D01*
X200055089Y-86481551D01*
X201063813Y-86481551D01*
X201070598Y-86667718D01*
X201090953Y-86839467D01*
X201118942Y-86990860D01*
X201148627Y-87115961D01*
X202692246Y-87115961D01*
X202692246Y-86698675D01*
X201440388Y-86698675D01*
X201430210Y-86601987D01*
X201426817Y-86508691D01*
X201525202Y-86301745D01*
X201654968Y-86263578D01*
X201847496Y-86250856D01*
X202692246Y-86250856D01*
X202692246Y-85833570D01*
X201793215Y-85833570D01*
X201637581Y-85841204D01*
X201496365Y-85864103D01*
X201265670Y-85967577D01*
X201116397Y-86166042D01*
X201076959Y-86307682D01*
X201063813Y-86481551D01*
X200055089Y-86481551D01*
X200055089Y-84775089D01*
X201057027Y-84775089D01*
X201070598Y-84915880D01*
X201111309Y-85053279D01*
X201178736Y-85181349D01*
X201272456Y-85294152D01*
X201392468Y-85389144D01*
X201538772Y-85463780D01*
X201710945Y-85512124D01*
X201908562Y-85528239D01*
X202099394Y-85512973D01*
X202264782Y-85467173D01*
X202405149Y-85392960D01*
X202520921Y-85292456D01*
X202611672Y-85166931D01*
X202676979Y-85017658D01*
X202716418Y-84845909D01*
X202729564Y-84652956D01*
X202704120Y-84378158D01*
X202641357Y-84147464D01*
X202285137Y-84205137D01*
X202339418Y-84396817D01*
X202366559Y-84635994D01*
X202344083Y-84820889D01*
X202276656Y-84968465D01*
X202170214Y-85065153D01*
X202030695Y-85097383D01*
X202030695Y-84062649D01*
X201959451Y-84057561D01*
X201874637Y-84055864D01*
X201629052Y-84076220D01*
X201426064Y-84137286D01*
X201265670Y-84239063D01*
X201149758Y-84380043D01*
X201080210Y-84558718D01*
X201057027Y-84775089D01*
X200055089Y-84775089D01*
X200055089Y-84055864D01*
X200055089Y-83349079D01*
X200055089Y-82302132D01*
X203544911Y-83349079D01*
X203544911Y-84055864D01*
X203544911Y-84652956D01*
X203544911Y-85833570D01*
G37*
G36*
X202088368Y-106532056D02*
G01*
X202241034Y-106594394D01*
X202340267Y-106697443D01*
X202373344Y-106840355D01*
X202340267Y-106986660D01*
X202241034Y-107086317D01*
X202088368Y-107143566D01*
X201894992Y-107162649D01*
X201702040Y-107141870D01*
X201550646Y-107079532D01*
X201452686Y-106976482D01*
X201420032Y-106833570D01*
X201452686Y-106687266D01*
X201550646Y-106587609D01*
X201702040Y-106530359D01*
X201894992Y-106511276D01*
X202088368Y-106532056D01*
G37*
G36*
X202104059Y-91269313D02*
G01*
X202249515Y-91322746D01*
X202339842Y-91413498D01*
X202369952Y-91543263D01*
X202352989Y-91678966D01*
X202308885Y-91787528D01*
X201433603Y-91787528D01*
X201425121Y-91695929D01*
X201420032Y-91594152D01*
X201454382Y-91443183D01*
X201557431Y-91336317D01*
X201713914Y-91272706D01*
X201908562Y-91251502D01*
X202104059Y-91269313D01*
G37*
G36*
X202230856Y-103334136D02*
G01*
X202247819Y-103461357D01*
X202144346Y-103685267D01*
X202017548Y-103738700D01*
X201844103Y-103756511D01*
X201599085Y-103715800D01*
X201452073Y-103593667D01*
X201403069Y-103390113D01*
X201406462Y-103312084D01*
X201420032Y-103227270D01*
X202186753Y-103227270D01*
X202230856Y-103334136D01*
G37*
G36*
X201861066Y-124010145D02*
G01*
X201643942Y-123967738D01*
X201435299Y-123920242D01*
X201224960Y-123865961D01*
X200999354Y-123803199D01*
X201224960Y-123740436D01*
X201435299Y-123686155D01*
X201643942Y-123640355D01*
X201861066Y-123599645D01*
X201861066Y-124010145D01*
G37*
G36*
X201432330Y-118410711D02*
G01*
X201540468Y-118487044D01*
X201600263Y-118613417D01*
X201620194Y-118788982D01*
X201620194Y-118958611D01*
X200941680Y-118958611D01*
X200933199Y-118855137D01*
X200931502Y-118751664D01*
X200950586Y-118601967D01*
X201007835Y-118485347D01*
X201110884Y-118410287D01*
X201267367Y-118385267D01*
X201432330Y-118410711D01*
G37*
G36*
X202208805Y-98056995D02*
G01*
X202300404Y-98143506D01*
X202344507Y-98263942D01*
X202356381Y-98403037D01*
X202352989Y-98506511D01*
X202342811Y-98603199D01*
X201772859Y-98603199D01*
X201772859Y-98379289D01*
X201839015Y-98119758D01*
X202057835Y-98023069D01*
X202208805Y-98056995D01*
G37*
G36*
X201489580Y-132128562D02*
G01*
X201551918Y-132253239D01*
X201572698Y-132437286D01*
X201572698Y-132528885D01*
X200941680Y-132528885D01*
X200933199Y-132461034D01*
X200931502Y-132403360D01*
X200951010Y-132253239D01*
X201009532Y-132135347D01*
X201109612Y-132059015D01*
X201253796Y-132033570D01*
X201489580Y-132128562D01*
G37*
G36*
X201742326Y-85097383D02*
G01*
X201616801Y-85068546D01*
X201508239Y-85007480D01*
X201433603Y-84909095D01*
X201406462Y-84768304D01*
X201435299Y-84625816D01*
X201511632Y-84530824D01*
X201618498Y-84476543D01*
X201742326Y-84459580D01*
X201742326Y-85097383D01*
G37*
G36*
X201357270Y-98199483D02*
G01*
X201426817Y-98440355D01*
X201426817Y-98603199D01*
X200945073Y-98603199D01*
X200934895Y-98511599D01*
X200931502Y-98413215D01*
X200939984Y-98301260D01*
X200973910Y-98206268D01*
X201045153Y-98141809D01*
X201165590Y-98118061D01*
X201357270Y-98199483D01*
G37*
G36*
X202392003Y-88042132D02*
G01*
X202393700Y-88174443D01*
X202347900Y-88384782D01*
X202193538Y-88466204D01*
X202095153Y-88439063D01*
X202037480Y-88366123D01*
X202008643Y-88259257D01*
X202000162Y-88133732D01*
X202005250Y-88028562D01*
X202017124Y-87930178D01*
X202383522Y-87930178D01*
X202392003Y-88042132D01*
G37*
G36*
X202392003Y-96523554D02*
G01*
X202393700Y-96655864D01*
X202347900Y-96866204D01*
X202193538Y-96947625D01*
X202095153Y-96920485D01*
X202037480Y-96847544D01*
X202008643Y-96740679D01*
X202000162Y-96615153D01*
X202005250Y-96509984D01*
X202017124Y-96411599D01*
X202383522Y-96411599D01*
X202392003Y-96523554D01*
G37*
G36*
X202392003Y-116878966D02*
G01*
X202393700Y-117011276D01*
X202347900Y-117221616D01*
X202193538Y-117303037D01*
X202095153Y-117275897D01*
X202037480Y-117202956D01*
X202008643Y-117096090D01*
X202000162Y-116970565D01*
X202005250Y-116865396D01*
X202017124Y-116767011D01*
X202383522Y-116767011D01*
X202392003Y-116878966D01*
G37*
D13*
%TO.C,U4*%
X145643300Y-87366625D02*
X151891699Y-87366625D01*
X145643300Y-130343425D02*
X145643300Y-87366625D01*
X151891699Y-87366625D02*
X151891699Y-92213113D01*
X151891699Y-101366926D02*
X151891699Y-106183113D01*
X151891699Y-125496926D02*
X151891699Y-130343425D01*
X151891699Y-130343425D02*
X145643300Y-130343425D01*
D14*
X150145699Y-86731625D02*
G75*
G02*
X149383699Y-86731625I-381000J0D01*
G01*
X149383699Y-86731625D02*
G75*
G02*
X150145699Y-86731625I381000J0D01*
G01*
D13*
%TO.C,U2*%
X99397300Y-74294500D02*
X99397300Y-86105499D01*
X99397300Y-86105499D02*
X103161961Y-86105499D01*
X112438041Y-86105499D02*
X117202700Y-86105499D01*
X117202700Y-74294500D02*
X99397300Y-74294500D01*
X117202700Y-86105499D02*
X117202700Y-74294500D01*
D14*
X99143300Y-85178499D02*
G75*
G02*
X98381300Y-85178499I-381000J0D01*
G01*
X98381300Y-85178499D02*
G75*
G02*
X99143300Y-85178499I381000J0D01*
G01*
D10*
%TO.C,U10*%
X157380000Y-133000000D02*
X157380000Y-137000000D01*
X157380000Y-137000000D02*
X186080000Y-137000000D01*
X186080000Y-133000000D02*
X157380000Y-133000000D01*
X186080000Y-137000000D02*
X186080000Y-133000000D01*
D13*
%TO.C,U1*%
X91643300Y-87366625D02*
X97891699Y-87366625D01*
X91643300Y-130343425D02*
X91643300Y-87366625D01*
X97891699Y-87366625D02*
X97891699Y-92213113D01*
X97891699Y-101366926D02*
X97891699Y-106183113D01*
X97891699Y-125496926D02*
X97891699Y-130343425D01*
X97891699Y-130343425D02*
X91643300Y-130343425D01*
D14*
X96145699Y-86731625D02*
G75*
G02*
X95383699Y-86731625I-381000J0D01*
G01*
X95383699Y-86731625D02*
G75*
G02*
X96145699Y-86731625I381000J0D01*
G01*
D13*
%TO.C,U8*%
X172643300Y-87366625D02*
X178891699Y-87366625D01*
X172643300Y-130343425D02*
X172643300Y-87366625D01*
X178891699Y-87366625D02*
X178891699Y-92213113D01*
X178891699Y-101366926D02*
X178891699Y-106183113D01*
X178891699Y-125496926D02*
X178891699Y-130343425D01*
X178891699Y-130343425D02*
X172643300Y-130343425D01*
D14*
X177145699Y-86731625D02*
G75*
G02*
X176383699Y-86731625I-381000J0D01*
G01*
X176383699Y-86731625D02*
G75*
G02*
X177145699Y-86731625I381000J0D01*
G01*
D13*
%TO.C,U7*%
X126397300Y-74294500D02*
X126397300Y-86105499D01*
X126397300Y-86105499D02*
X130161961Y-86105499D01*
X139438041Y-86105499D02*
X144202700Y-86105499D01*
X144202700Y-74294500D02*
X126397300Y-74294500D01*
X144202700Y-86105499D02*
X144202700Y-74294500D01*
D14*
X126143300Y-85178499D02*
G75*
G02*
X125381300Y-85178499I-381000J0D01*
G01*
X125381300Y-85178499D02*
G75*
G02*
X126143300Y-85178499I381000J0D01*
G01*
D10*
%TO.C,U3*%
X103380000Y-133000000D02*
X103380000Y-137000000D01*
X103380000Y-137000000D02*
X132080000Y-137000000D01*
X132080000Y-133000000D02*
X103380000Y-133000000D01*
X132080000Y-137000000D02*
X132080000Y-133000000D01*
D13*
%TO.C,U6*%
X118643300Y-87366625D02*
X124891699Y-87366625D01*
X118643300Y-130343425D02*
X118643300Y-87366625D01*
X124891699Y-87366625D02*
X124891699Y-92213113D01*
X124891699Y-101366926D02*
X124891699Y-106183113D01*
X124891699Y-125496926D02*
X124891699Y-130343425D01*
X124891699Y-130343425D02*
X118643300Y-130343425D01*
D14*
X123145699Y-86731625D02*
G75*
G02*
X122383699Y-86731625I-381000J0D01*
G01*
X122383699Y-86731625D02*
G75*
G02*
X123145699Y-86731625I381000J0D01*
G01*
D13*
%TO.C,U5*%
X153397300Y-74294500D02*
X153397300Y-86105499D01*
X153397300Y-86105499D02*
X157161961Y-86105499D01*
X166438041Y-86105499D02*
X171202700Y-86105499D01*
X171202700Y-74294500D02*
X153397300Y-74294500D01*
X171202700Y-86105499D02*
X171202700Y-74294500D01*
D14*
X153143300Y-85178499D02*
G75*
G02*
X152381300Y-85178499I-381000J0D01*
G01*
X152381300Y-85178499D02*
G75*
G02*
X153143300Y-85178499I381000J0D01*
G01*
D13*
%TO.C,U9*%
X180397300Y-74294500D02*
X180397300Y-86105499D01*
X180397300Y-86105499D02*
X184161961Y-86105499D01*
X193438041Y-86105499D02*
X198202700Y-86105499D01*
X198202700Y-74294500D02*
X180397300Y-74294500D01*
X198202700Y-86105499D02*
X198202700Y-74294500D01*
D14*
X180143300Y-85178499D02*
G75*
G02*
X179381300Y-85178499I-381000J0D01*
G01*
X179381300Y-85178499D02*
G75*
G02*
X180143300Y-85178499I381000J0D01*
G01*
D11*
%TO.C,kibuzzard-67B4AC4E*%
G36*
X205895477Y-112011012D02*
G01*
X205775929Y-111983549D01*
X205672536Y-111925390D01*
X205601454Y-111831691D01*
X205575606Y-111697604D01*
X205603069Y-111561901D01*
X205675767Y-111471432D01*
X205777544Y-111419736D01*
X205895477Y-111403581D01*
X205895477Y-112011012D01*
G37*
G36*
X205895477Y-120088557D02*
G01*
X205775929Y-120061093D01*
X205672536Y-120002935D01*
X205601454Y-119909235D01*
X205575606Y-119775148D01*
X205603069Y-119639445D01*
X205675767Y-119548977D01*
X205777544Y-119497281D01*
X205895477Y-119481125D01*
X205895477Y-120088557D01*
G37*
G36*
X206489984Y-118078864D02*
G01*
X206493215Y-118169332D01*
X206460905Y-118314324D01*
X206363974Y-118413274D01*
X206216155Y-118470221D01*
X206031179Y-118489203D01*
X205842973Y-118473048D01*
X205704847Y-118424583D01*
X205620032Y-118340576D01*
X205591761Y-118217798D01*
X205609532Y-118095019D01*
X205653150Y-117991626D01*
X206480291Y-117991626D01*
X206489984Y-118078864D01*
G37*
G36*
X206225040Y-104961335D02*
G01*
X206370436Y-105020705D01*
X206464943Y-105118848D01*
X206496446Y-105254954D01*
X206464943Y-105394292D01*
X206370436Y-105489203D01*
X206225040Y-105543726D01*
X206040872Y-105561901D01*
X205857108Y-105542111D01*
X205712924Y-105482741D01*
X205619628Y-105384599D01*
X205588530Y-105248492D01*
X205619628Y-105109155D01*
X205712924Y-105014243D01*
X205857108Y-104959720D01*
X206040872Y-104941546D01*
X206225040Y-104961335D01*
G37*
G36*
X207111416Y-100191949D02*
G01*
X207111416Y-101749300D01*
X207111416Y-103019090D01*
X207111416Y-105248492D01*
X207111416Y-106986780D01*
X207111416Y-108250108D01*
X207111416Y-109885003D01*
X207111416Y-111587749D01*
X207111416Y-113074017D01*
X207111416Y-115548977D01*
X207111416Y-118172563D01*
X207111416Y-119665293D01*
X207111416Y-121151562D01*
X207111416Y-122789688D01*
X207111416Y-124366424D01*
X207111416Y-126020705D01*
X207111416Y-127251723D01*
X207111416Y-129490819D01*
X207111416Y-130166101D01*
X207111416Y-130839230D01*
X207104620Y-130977573D01*
X207084296Y-131114584D01*
X207050641Y-131248942D01*
X207003979Y-131379356D01*
X206944758Y-131504567D01*
X206873550Y-131623371D01*
X206791040Y-131734623D01*
X206698022Y-131837252D01*
X206595393Y-131930269D01*
X206484141Y-132012780D01*
X206365337Y-132083988D01*
X206240126Y-132143209D01*
X206109713Y-132189871D01*
X205975354Y-132223526D01*
X205838343Y-132243850D01*
X205700000Y-132250646D01*
X205561657Y-132243850D01*
X205424646Y-132223526D01*
X205290287Y-132189871D01*
X205159874Y-132143209D01*
X205034663Y-132083988D01*
X204915859Y-132012780D01*
X204804607Y-131930269D01*
X204701978Y-131837252D01*
X204608960Y-131734623D01*
X204526450Y-131623371D01*
X204455242Y-131504567D01*
X204396021Y-131379356D01*
X204349359Y-131248942D01*
X204315704Y-131114584D01*
X204295380Y-130977573D01*
X204288584Y-130839230D01*
X204288584Y-130166101D01*
X204288584Y-128802612D01*
X204800162Y-128802612D01*
X204800162Y-129200027D01*
X206047334Y-129200027D01*
X206258966Y-129212951D01*
X206397900Y-129258185D01*
X206473829Y-129345423D01*
X206496446Y-129484356D01*
X206473829Y-129623290D01*
X206399515Y-129708912D01*
X206262197Y-129752531D01*
X206050565Y-129765455D01*
X204800162Y-129765455D01*
X204800162Y-130166101D01*
X206076414Y-130166101D01*
X206242811Y-130158024D01*
X206393053Y-130133791D01*
X206524717Y-130090172D01*
X206635380Y-130023936D01*
X206788853Y-129815536D01*
X206828837Y-129668928D01*
X206842165Y-129490819D01*
X206828837Y-129309882D01*
X206788853Y-129161255D01*
X206723829Y-129041707D01*
X206635380Y-128948008D01*
X206524717Y-128879348D01*
X206393053Y-128834922D01*
X206242811Y-128810689D01*
X206076414Y-128802612D01*
X204800162Y-128802612D01*
X204288584Y-128802612D01*
X204288584Y-127868848D01*
X205249273Y-127868848D01*
X205255735Y-128046150D01*
X205275121Y-128209720D01*
X205301777Y-128353904D01*
X205330048Y-128473048D01*
X206800162Y-128473048D01*
X206800162Y-128075633D01*
X205607916Y-128075633D01*
X205598223Y-127983549D01*
X205594992Y-127894696D01*
X205688691Y-127697604D01*
X205812278Y-127661255D01*
X205995638Y-127649138D01*
X206800162Y-127649138D01*
X206800162Y-127251723D01*
X205943942Y-127251723D01*
X205795719Y-127258993D01*
X205661228Y-127280802D01*
X205441519Y-127379348D01*
X205299354Y-127568363D01*
X205261793Y-127703258D01*
X205249273Y-127868848D01*
X204288584Y-127868848D01*
X204288584Y-126201642D01*
X204835703Y-126201642D01*
X204900323Y-126599058D01*
X205281583Y-126599058D01*
X205281583Y-126944777D01*
X205611147Y-126944777D01*
X205611147Y-126599058D01*
X206234733Y-126599058D01*
X206407189Y-126589365D01*
X206543296Y-126560285D01*
X206725848Y-126447200D01*
X206813086Y-126266263D01*
X206835703Y-126020705D01*
X206816317Y-125773533D01*
X206751696Y-125536053D01*
X206409208Y-125590980D01*
X206451212Y-125692757D01*
X206475444Y-125783226D01*
X206486753Y-125873694D01*
X206489984Y-125975471D01*
X206480291Y-126069171D01*
X206441519Y-126140253D01*
X206360743Y-126185487D01*
X206225040Y-126201642D01*
X205611147Y-126201642D01*
X205611147Y-125565132D01*
X205281583Y-125565132D01*
X205281583Y-126201642D01*
X204835703Y-126201642D01*
X204288584Y-126201642D01*
X204288584Y-125329268D01*
X205281583Y-125329268D01*
X205611147Y-125329268D01*
X205611147Y-124909235D01*
X206170113Y-124909235D01*
X206319548Y-124902773D01*
X206451212Y-124883387D01*
X206659612Y-124794534D01*
X206790468Y-124626521D01*
X206824394Y-124508993D01*
X206835703Y-124366424D01*
X206814701Y-124167717D01*
X206735541Y-123936699D01*
X206415670Y-123988395D01*
X206475444Y-124162870D01*
X206489984Y-124295342D01*
X206423748Y-124461739D01*
X206221809Y-124511820D01*
X205281583Y-124511820D01*
X205281583Y-124779995D01*
X205281583Y-125329268D01*
X204288584Y-125329268D01*
X204288584Y-124779995D01*
X204590145Y-124779995D01*
X204657997Y-124956085D01*
X204845396Y-125028783D01*
X205029564Y-124956085D01*
X205097415Y-124779995D01*
X205029564Y-124602289D01*
X204845396Y-124527975D01*
X204657997Y-124602289D01*
X204590145Y-124779995D01*
X204288584Y-124779995D01*
X204288584Y-122970625D01*
X204835703Y-122970625D01*
X204900323Y-123368040D01*
X205281583Y-123368040D01*
X205281583Y-123713759D01*
X205611147Y-123713759D01*
X205611147Y-123368040D01*
X206234733Y-123368040D01*
X206407189Y-123358347D01*
X206543296Y-123329268D01*
X206725848Y-123216182D01*
X206813086Y-123035245D01*
X206835703Y-122789688D01*
X206816317Y-122542515D01*
X206751696Y-122305035D01*
X206409208Y-122359962D01*
X206451212Y-122461739D01*
X206475444Y-122552208D01*
X206486753Y-122642676D01*
X206489984Y-122744453D01*
X206480291Y-122838153D01*
X206441519Y-122909235D01*
X206360743Y-122954470D01*
X206225040Y-122970625D01*
X205611147Y-122970625D01*
X205611147Y-122334114D01*
X205281583Y-122334114D01*
X205281583Y-122970625D01*
X204835703Y-122970625D01*
X204288584Y-122970625D01*
X204288584Y-121280802D01*
X204577221Y-121280802D01*
X204577221Y-122098250D01*
X204906785Y-122098250D01*
X204906785Y-121678218D01*
X206195961Y-121678218D01*
X206471809Y-121646715D01*
X206672536Y-121552208D01*
X206794911Y-121389041D01*
X206835703Y-121151562D01*
X206822779Y-120972240D01*
X206792084Y-120838153D01*
X206758158Y-120749300D01*
X206735541Y-120705681D01*
X206415670Y-120757377D01*
X206457674Y-120864001D01*
X206489984Y-121064324D01*
X206435057Y-121219413D01*
X206225040Y-121280802D01*
X204577221Y-121280802D01*
X204288584Y-121280802D01*
X204288584Y-119781610D01*
X205242811Y-119781610D01*
X205255735Y-119915697D01*
X205294507Y-120046554D01*
X205358724Y-120168525D01*
X205447981Y-120275956D01*
X205562278Y-120366424D01*
X205701616Y-120437507D01*
X205865590Y-120483549D01*
X206053796Y-120498896D01*
X206235541Y-120484356D01*
X206393053Y-120440738D01*
X206526737Y-120370059D01*
X206636995Y-120274340D01*
X206723425Y-120154793D01*
X206785622Y-120012628D01*
X206823183Y-119849058D01*
X206835703Y-119665293D01*
X206811470Y-119403581D01*
X206751696Y-119183872D01*
X206412439Y-119238799D01*
X206464136Y-119421352D01*
X206489984Y-119649138D01*
X206468578Y-119825229D01*
X206404362Y-119965778D01*
X206302989Y-120057862D01*
X206170113Y-120088557D01*
X206170113Y-119103096D01*
X206102262Y-119098250D01*
X206021486Y-119096634D01*
X205787596Y-119116020D01*
X205594274Y-119174179D01*
X205441519Y-119271109D01*
X205331125Y-119405376D01*
X205264890Y-119575543D01*
X205242811Y-119781610D01*
X204288584Y-119781610D01*
X204288584Y-117594211D01*
X204557835Y-117594211D01*
X204625687Y-117991626D01*
X205317124Y-117991626D01*
X205267044Y-118127329D01*
X205249273Y-118285649D01*
X205273147Y-118469637D01*
X205344768Y-118620957D01*
X205464136Y-118739607D01*
X205624789Y-118824870D01*
X205820266Y-118876028D01*
X206050565Y-118893080D01*
X206276737Y-118872797D01*
X206468444Y-118811946D01*
X206625687Y-118710528D01*
X206742362Y-118569619D01*
X206812368Y-118390298D01*
X206835703Y-118172563D01*
X206830048Y-118019090D01*
X206813086Y-117862386D01*
X206787237Y-117716182D01*
X206754927Y-117594211D01*
X204557835Y-117594211D01*
X204288584Y-117594211D01*
X204288584Y-114337345D01*
X204800162Y-114337345D01*
X204800162Y-115548977D01*
X206800162Y-115548977D01*
X206800162Y-114266263D01*
X206470598Y-114266263D01*
X206470598Y-115151562D01*
X205908401Y-115151562D01*
X205908401Y-114443969D01*
X205578837Y-114443969D01*
X205578837Y-115151562D01*
X205129725Y-115151562D01*
X205129725Y-114337345D01*
X204800162Y-114337345D01*
X204288584Y-114337345D01*
X204288584Y-113203258D01*
X204577221Y-113203258D01*
X204577221Y-114020705D01*
X204906785Y-114020705D01*
X204906785Y-113600673D01*
X206195961Y-113600673D01*
X206471809Y-113569171D01*
X206672536Y-113474663D01*
X206794911Y-113311497D01*
X206835703Y-113074017D01*
X206822779Y-112894696D01*
X206792084Y-112760609D01*
X206758158Y-112671756D01*
X206735541Y-112628137D01*
X206415670Y-112679833D01*
X206457674Y-112786457D01*
X206489984Y-112986780D01*
X206435057Y-113141869D01*
X206225040Y-113203258D01*
X204577221Y-113203258D01*
X204288584Y-113203258D01*
X204288584Y-111704066D01*
X205242811Y-111704066D01*
X205255735Y-111838153D01*
X205294507Y-111969009D01*
X205358724Y-112090980D01*
X205447981Y-112198411D01*
X205562278Y-112288880D01*
X205701616Y-112359962D01*
X205865590Y-112406004D01*
X206053796Y-112421352D01*
X206235541Y-112406812D01*
X206393053Y-112363193D01*
X206526737Y-112292515D01*
X206636995Y-112196796D01*
X206723425Y-112077248D01*
X206785622Y-111935083D01*
X206823183Y-111771513D01*
X206835703Y-111587749D01*
X206811470Y-111326037D01*
X206751696Y-111106327D01*
X206412439Y-111161255D01*
X206464136Y-111343807D01*
X206489984Y-111571594D01*
X206468578Y-111747684D01*
X206404362Y-111888234D01*
X206302989Y-111980318D01*
X206170113Y-112011012D01*
X206170113Y-111025552D01*
X206102262Y-111020705D01*
X206021486Y-111019090D01*
X205787596Y-111038476D01*
X205594274Y-111096634D01*
X205441519Y-111193565D01*
X205331125Y-111327832D01*
X205264890Y-111497999D01*
X205242811Y-111704066D01*
X204288584Y-111704066D01*
X204288584Y-109894696D01*
X205242811Y-109894696D01*
X205258562Y-110105116D01*
X205305816Y-110284033D01*
X205380129Y-110433064D01*
X205477060Y-110553823D01*
X205594588Y-110646715D01*
X205730695Y-110712143D01*
X205880937Y-110750915D01*
X206040872Y-110763840D01*
X206203231Y-110751319D01*
X206354281Y-110713759D01*
X206489984Y-110649542D01*
X206606300Y-110557054D01*
X206701616Y-110435487D01*
X206774313Y-110284033D01*
X206820355Y-110101077D01*
X206835703Y-109885003D01*
X206830452Y-109733953D01*
X206814701Y-109603904D01*
X206761389Y-109400350D01*
X206435057Y-109458508D01*
X206477060Y-109644292D01*
X206489984Y-109839768D01*
X206460097Y-110082499D01*
X206370436Y-110242030D01*
X206228271Y-110330479D01*
X206040872Y-110359962D01*
X205859935Y-110334114D01*
X205716155Y-110250108D01*
X205622456Y-110096634D01*
X205588530Y-109859155D01*
X205606300Y-109657216D01*
X205646688Y-109513436D01*
X205326817Y-109426198D01*
X205262197Y-109649138D01*
X205242811Y-109894696D01*
X204288584Y-109894696D01*
X204288584Y-108431045D01*
X204835703Y-108431045D01*
X204900323Y-108828460D01*
X205281583Y-108828460D01*
X205281583Y-109174179D01*
X205611147Y-109174179D01*
X205611147Y-108828460D01*
X206234733Y-108828460D01*
X206407189Y-108818767D01*
X206543296Y-108789688D01*
X206725848Y-108676602D01*
X206813086Y-108495665D01*
X206835703Y-108250108D01*
X206816317Y-108002935D01*
X206751696Y-107765455D01*
X206409208Y-107820382D01*
X206451212Y-107922159D01*
X206475444Y-108012628D01*
X206486753Y-108103096D01*
X206489984Y-108204873D01*
X206480291Y-108298573D01*
X206441519Y-108369655D01*
X206360743Y-108414890D01*
X206225040Y-108431045D01*
X205611147Y-108431045D01*
X205611147Y-107794534D01*
X205281583Y-107794534D01*
X205281583Y-108431045D01*
X204835703Y-108431045D01*
X204288584Y-108431045D01*
X204288584Y-106673371D01*
X205252504Y-106673371D01*
X205261389Y-106882176D01*
X205288045Y-107062709D01*
X205329241Y-107227087D01*
X205381745Y-107387426D01*
X206800162Y-107387426D01*
X206800162Y-106986780D01*
X205672536Y-106986780D01*
X205641842Y-106821998D01*
X205633764Y-106657216D01*
X205636995Y-106569978D01*
X205648304Y-106463355D01*
X205666074Y-106355116D01*
X205685460Y-106263032D01*
X205317124Y-106191949D01*
X205286430Y-106316344D01*
X205267044Y-106453662D01*
X205255735Y-106581287D01*
X205252504Y-106673371D01*
X204288584Y-106673371D01*
X204288584Y-105248492D01*
X205242811Y-105248492D01*
X205256947Y-105397927D01*
X205299354Y-105536053D01*
X205368013Y-105659235D01*
X205460905Y-105763840D01*
X205576414Y-105848654D01*
X205712924Y-105912466D01*
X205867609Y-105952450D01*
X206037641Y-105965778D01*
X206210097Y-105952854D01*
X206365590Y-105914082D01*
X206502504Y-105851481D01*
X206619225Y-105767071D01*
X206713732Y-105662870D01*
X206784006Y-105540899D01*
X206827625Y-105402369D01*
X206842165Y-105248492D01*
X206827625Y-105094615D01*
X206784006Y-104956085D01*
X206713732Y-104834518D01*
X206619225Y-104731529D01*
X206502504Y-104648331D01*
X206365590Y-104586134D01*
X206210097Y-104547361D01*
X206037641Y-104534437D01*
X205867609Y-104547361D01*
X205712924Y-104586134D01*
X205576414Y-104648735D01*
X205460905Y-104733145D01*
X205368013Y-104837345D01*
X205299354Y-104959316D01*
X205256947Y-105097038D01*
X205242811Y-105248492D01*
X204288584Y-105248492D01*
X204288584Y-103636214D01*
X205249273Y-103636214D01*
X205255735Y-103813516D01*
X205275121Y-103977087D01*
X205301777Y-104121271D01*
X205330048Y-104240415D01*
X206800162Y-104240415D01*
X206800162Y-103842999D01*
X205607916Y-103842999D01*
X205598223Y-103750915D01*
X205594992Y-103662062D01*
X205688691Y-103464970D01*
X205812278Y-103428621D01*
X205995638Y-103416505D01*
X206800162Y-103416505D01*
X206800162Y-103019090D01*
X205943942Y-103019090D01*
X205795719Y-103026360D01*
X205661228Y-103048169D01*
X205441519Y-103146715D01*
X205299354Y-103335730D01*
X205261793Y-103470625D01*
X205249273Y-103636214D01*
X204288584Y-103636214D01*
X204288584Y-102712143D01*
X205281583Y-102712143D01*
X205611147Y-102712143D01*
X205611147Y-102292111D01*
X206170113Y-102292111D01*
X206319548Y-102285649D01*
X206451212Y-102266263D01*
X206659612Y-102177410D01*
X206790468Y-102009397D01*
X206824394Y-101891869D01*
X206835703Y-101749300D01*
X206814701Y-101550592D01*
X206735541Y-101319575D01*
X206415670Y-101371271D01*
X206475444Y-101545746D01*
X206489984Y-101678218D01*
X206423748Y-101844615D01*
X206221809Y-101894696D01*
X205281583Y-101894696D01*
X205281583Y-102162870D01*
X205281583Y-102712143D01*
X204288584Y-102712143D01*
X204288584Y-102162870D01*
X204590145Y-102162870D01*
X204657997Y-102338961D01*
X204845396Y-102411659D01*
X205029564Y-102338961D01*
X205097415Y-102162870D01*
X205029564Y-101985164D01*
X204845396Y-101910851D01*
X204657997Y-101985164D01*
X204590145Y-102162870D01*
X204288584Y-102162870D01*
X204288584Y-100201642D01*
X205242811Y-100201642D01*
X205258562Y-100412062D01*
X205305816Y-100590980D01*
X205380129Y-100740011D01*
X205477060Y-100860770D01*
X205594588Y-100953662D01*
X205730695Y-101019090D01*
X205880937Y-101057862D01*
X206040872Y-101070786D01*
X206203231Y-101058266D01*
X206354281Y-101020705D01*
X206489984Y-100956489D01*
X206606300Y-100864001D01*
X206701616Y-100742434D01*
X206774313Y-100590980D01*
X206820355Y-100408024D01*
X206835703Y-100191949D01*
X206830452Y-100040899D01*
X206814701Y-99910851D01*
X206761389Y-99707297D01*
X206435057Y-99765455D01*
X206477060Y-99951239D01*
X206489984Y-100146715D01*
X206460097Y-100389445D01*
X206370436Y-100548977D01*
X206228271Y-100637426D01*
X206040872Y-100666909D01*
X205859935Y-100641061D01*
X205716155Y-100557054D01*
X205622456Y-100403581D01*
X205588530Y-100166101D01*
X205606300Y-99964163D01*
X205646688Y-99820382D01*
X205326817Y-99733145D01*
X205262197Y-99956085D01*
X205242811Y-100201642D01*
X204288584Y-100201642D01*
X204288584Y-98734760D01*
X205242811Y-98734760D01*
X205252100Y-98893888D01*
X205279968Y-99028783D01*
X205383360Y-99230722D01*
X205535218Y-99347038D01*
X205717771Y-99384195D01*
X205916478Y-99335730D01*
X206047334Y-99212951D01*
X206132956Y-99048169D01*
X206192730Y-98870463D01*
X206231502Y-98752531D01*
X206271890Y-98652369D01*
X206321971Y-98584518D01*
X206393053Y-98560285D01*
X206478675Y-98637830D01*
X206499677Y-98860770D01*
X206460905Y-99120867D01*
X206376898Y-99361578D01*
X206709693Y-99422967D01*
X206790468Y-99200027D01*
X206824394Y-99046554D01*
X206835703Y-98864001D01*
X206826817Y-98685487D01*
X206800162Y-98537668D01*
X206703231Y-98322806D01*
X206557835Y-98204873D01*
X206380129Y-98169332D01*
X206178191Y-98217798D01*
X206042488Y-98342192D01*
X205953635Y-98511820D01*
X205889015Y-98692757D01*
X205848627Y-98807458D01*
X205805008Y-98901158D01*
X205754927Y-98965778D01*
X205691922Y-98990011D01*
X205612763Y-98936699D01*
X205575606Y-98731529D01*
X205612763Y-98469817D01*
X205666074Y-98298573D01*
X205330048Y-98237184D01*
X205265428Y-98458508D01*
X205248465Y-98591384D01*
X205242811Y-98734760D01*
X204288584Y-98734760D01*
X204288584Y-98169332D01*
X204288584Y-97496204D01*
X204288584Y-96649354D01*
X207111416Y-97496204D01*
X207111416Y-98169332D01*
X207111416Y-98864001D01*
X207111416Y-100191949D01*
G37*
%TD*%
M02*
