M48
; DRILL file {KiCad 8.0.7} date 2025-02-19T10:26:09-0600
; FORMAT={-:-/ absolute / metric / decimal}
; #@! TF.CreationDate,2025-02-19T10:26:09-06:00
; #@! TF.GenerationSoftware,Kicad,Pcbnew,8.0.7
; #@! TF.FileFunction,Plated,1,2,PTH
FMAT,2
METRIC
; #@! TA.AperFunction,Plated,PTH,ViaDrill
T1C0.300
; #@! TA.AperFunction,Plated,PTH,ComponentDrill
T2C0.800
; #@! TA.AperFunction,Plated,PTH,ComponentDrill
T3C1.499
; #@! TA.AperFunction,Plated,PTH,ComponentDrill
T4C3.200
%
G90
G05
T1
X100.6Y-112.2
X101.8Y-119.6
X103.2Y-112.2
X104.0Y-95.0
X104.4Y-119.6
X105.8Y-112.2
X106.4Y-119.6
X107.0Y-92.0
X109.0Y-106.95
X110.0Y-108.22
X111.6Y-109.49
X112.6Y-133.6
X113.6Y-119.4
X113.8Y-136.4
X114.0Y-112.2
X114.8Y-120.6
X115.2Y-133.6
X115.8Y-112.2
X117.0Y-114.57
X118.0Y-115.84
X118.4Y-112.2
X119.0Y-117.11
X120.2Y-136.8
X121.6Y-133.6
X122.6Y-136.8
X127.6Y-121.0
X128.2Y-140.0
X131.0Y-95.0
X134.0Y-92.0
X146.0Y-121.0
X153.4Y-141.0
X154.6Y-112.0
X155.0Y-119.6
X156.8Y-112.0
X158.0Y-95.0
X158.0Y-119.6
X159.0Y-111.8
X161.0Y-92.0
X161.0Y-119.6
X162.6Y-106.95
X163.8Y-108.22
X165.0Y-109.49
X166.6Y-136.4
X167.8Y-111.8
X167.8Y-119.0
X168.0Y-133.6
X168.8Y-119.8
X169.2Y-136.4
X169.6Y-111.8
X170.2Y-114.57
X171.4Y-115.84
X171.8Y-111.8
X172.6Y-117.11
X174.2Y-133.6
X175.6Y-136.4
X176.8Y-133.6
X180.4Y-121.0
X181.8Y-139.6
X185.0Y-95.0
X188.0Y-92.0
T2
X108.84Y-135.0
X110.11Y-135.0
X111.38Y-135.0
X112.65Y-135.0
X113.92Y-135.0
X115.19Y-135.0
X116.46Y-135.0
X117.73Y-135.0
X119.0Y-135.0
X120.27Y-135.0
X121.54Y-135.0
X122.81Y-135.0
X124.08Y-135.0
X125.35Y-135.0
X126.62Y-135.0
X162.84Y-135.0
X164.11Y-135.0
X165.38Y-135.0
X166.65Y-135.0
X167.92Y-135.0
X169.19Y-135.0
X170.46Y-135.0
X171.73Y-135.0
X173.0Y-135.0
X174.27Y-135.0
X175.54Y-135.0
X176.81Y-135.0
X178.08Y-135.0
X179.35Y-135.0
X180.62Y-135.0
T3
X101.43Y-82.818
X114.17Y-82.818
X128.43Y-82.818
X141.17Y-82.818
X155.43Y-82.818
X168.17Y-82.818
X182.43Y-82.818
X195.17Y-82.818
T4
X91.0Y-79.0
X91.0Y-139.0
X203.0Y-79.0
X203.0Y-139.0
M30
