%TF.GenerationSoftware,KiCad,Pcbnew,8.0.7*%
%TF.CreationDate,2025-02-18T10:18:35-06:00*%
%TF.ProjectId,RickNAS_4PortSATA,5269636b-4e41-4535-9f34-506f72745341,rev?*%
%TF.SameCoordinates,Original*%
%TF.FileFunction,Copper,L2,Bot*%
%TF.FilePolarity,Positive*%
%FSLAX46Y46*%
G04 Gerber Fmt 4.6, Leading zero omitted, Abs format (unit mm)*
G04 Created by KiCad (PCBNEW 8.0.7) date 2025-02-18 10:18:35*
%MOMM*%
%LPD*%
G01*
G04 APERTURE LIST*
%TA.AperFunction,ComponentPad*%
%ADD10C,5.600000*%
%TD*%
%TA.AperFunction,ComponentPad*%
%ADD11R,2.387600X3.200400*%
%TD*%
%TA.AperFunction,ComponentPad*%
%ADD12C,1.100000*%
%TD*%
%TA.AperFunction,ViaPad*%
%ADD13C,0.600000*%
%TD*%
%TA.AperFunction,Conductor*%
%ADD14C,0.800000*%
%TD*%
%TA.AperFunction,Conductor*%
%ADD15C,0.200000*%
%TD*%
G04 APERTURE END LIST*
D10*
%TO.P,H4,1,1*%
%TO.N,VSS*%
X203000000Y-139000000D03*
%TD*%
%TO.P,H3,1,1*%
%TO.N,VSS*%
X91000000Y-139000000D03*
%TD*%
%TO.P,H2,1,1*%
%TO.N,VSS*%
X203000000Y-79000000D03*
%TD*%
%TO.P,H1,1,1*%
%TO.N,VSS*%
X91000000Y-79000000D03*
%TD*%
D11*
%TO.P,U9,*%
%TO.N,*%
X182430001Y-82818499D03*
X195170001Y-82818499D03*
%TD*%
%TO.P,U5,*%
%TO.N,*%
X168170001Y-82818499D03*
X155430001Y-82818499D03*
%TD*%
%TO.P,U7,*%
%TO.N,*%
X128430001Y-82818499D03*
X141170001Y-82818499D03*
%TD*%
D12*
%TO.P,U10,15,12V*%
%TO.N,+12P*%
X180620000Y-135000000D03*
%TO.P,U10,14,12V*%
X179350000Y-135000000D03*
%TO.P,U10,13,12V*%
X178080000Y-135000000D03*
%TO.P,U10,12,VSS*%
%TO.N,VSS*%
X176810000Y-135000000D03*
%TO.P,U10,11,VSS*%
X175540000Y-135000000D03*
%TO.P,U10,10,VSS*%
X174270000Y-135000000D03*
%TO.P,U10,9,5V*%
%TO.N,+5P*%
X173000000Y-135000000D03*
%TO.P,U10,8,5V*%
X171730000Y-135000000D03*
%TO.P,U10,7,5V*%
X170460000Y-135000000D03*
%TO.P,U10,6,VSS*%
%TO.N,VSS*%
X169190000Y-135000000D03*
%TO.P,U10,5,VSS*%
X167920000Y-135000000D03*
%TO.P,U10,4,VSS*%
X166650000Y-135000000D03*
%TO.P,U10,3,3.3V*%
%TO.N,+3.3VP*%
X165380000Y-135000000D03*
%TO.P,U10,2,3.3V*%
X164110000Y-135000000D03*
%TO.P,U10,1,3.3V*%
X162840000Y-135000000D03*
%TD*%
%TO.P,U3,15,12V*%
%TO.N,+12V*%
X126620000Y-135000000D03*
%TO.P,U3,14,12V*%
X125350000Y-135000000D03*
%TO.P,U3,13,12V*%
X124080000Y-135000000D03*
%TO.P,U3,12,VSS*%
%TO.N,VSS*%
X122810000Y-135000000D03*
%TO.P,U3,11,VSS*%
X121540000Y-135000000D03*
%TO.P,U3,10,VSS*%
X120270000Y-135000000D03*
%TO.P,U3,9,5V*%
%TO.N,+5V*%
X119000000Y-135000000D03*
%TO.P,U3,8,5V*%
X117730000Y-135000000D03*
%TO.P,U3,7,5V*%
X116460000Y-135000000D03*
%TO.P,U3,6,VSS*%
%TO.N,VSS*%
X115190000Y-135000000D03*
%TO.P,U3,5,VSS*%
X113920000Y-135000000D03*
%TO.P,U3,4,VSS*%
X112650000Y-135000000D03*
%TO.P,U3,3,3.3V*%
%TO.N,+3.3V*%
X111380000Y-135000000D03*
%TO.P,U3,2,3.3V*%
X110110000Y-135000000D03*
%TO.P,U3,1,3.3V*%
X108840000Y-135000000D03*
%TD*%
D11*
%TO.P,U2,*%
%TO.N,*%
X114170001Y-82818499D03*
X101430001Y-82818499D03*
%TD*%
D13*
%TO.N,VSS*%
X118400000Y-112200000D03*
X115800000Y-112200000D03*
X114000000Y-112200000D03*
X105800000Y-112200000D03*
X103200000Y-112200000D03*
X100600000Y-112200000D03*
X101800000Y-119600000D03*
X104400000Y-119600000D03*
X106400000Y-119600000D03*
X113600000Y-119400000D03*
X114800000Y-120600000D03*
X155000000Y-119600000D03*
X158000000Y-119600000D03*
X161000000Y-119600000D03*
X167800000Y-119000000D03*
X168800000Y-119800000D03*
X171800000Y-111800000D03*
X169600000Y-111800000D03*
X167800000Y-111800000D03*
X159000000Y-111800000D03*
X156800000Y-112000000D03*
X154600000Y-112000000D03*
X176800000Y-133600000D03*
X175600000Y-136400000D03*
X174200000Y-133600000D03*
X169200000Y-136400000D03*
X168000000Y-133600000D03*
X166600000Y-136400000D03*
X112600000Y-133600000D03*
X113800000Y-136400000D03*
X115200000Y-133600000D03*
X120200000Y-136800000D03*
X121600000Y-133600000D03*
X122600000Y-136800000D03*
%TO.N,+3.3VP*%
X162600000Y-106950014D03*
X163800000Y-108220025D03*
X165000000Y-109490025D03*
%TO.N,+5P*%
X170200000Y-114570025D03*
X171400000Y-115840025D03*
X172600000Y-117110025D03*
%TO.N,+3.3V*%
X109000000Y-106950014D03*
X110000000Y-108220025D03*
X111600000Y-109490025D03*
%TO.N,+5V*%
X117000000Y-114570025D03*
X118000000Y-115840025D03*
X119000000Y-117110025D03*
%TO.N,VSS*%
X185000000Y-95000000D03*
X188000000Y-92000000D03*
X158000000Y-95000000D03*
X161000000Y-92000000D03*
X104000000Y-95000000D03*
X107000000Y-92000000D03*
X131000000Y-95000000D03*
X134000000Y-92000000D03*
%TD*%
D14*
%TO.N,VSS*%
X169190000Y-136390000D02*
X169200000Y-136400000D01*
X169190000Y-135000000D02*
X169190000Y-136390000D01*
X167920000Y-133680000D02*
X168000000Y-133600000D01*
X167920000Y-135000000D02*
X167920000Y-133680000D01*
X166650000Y-136350000D02*
X166600000Y-136400000D01*
X166650000Y-135000000D02*
X166650000Y-136350000D01*
%TO.N,+3.3VP*%
X162840000Y-107190014D02*
X162600000Y-106950014D01*
X162840000Y-135000000D02*
X162840000Y-107190014D01*
X164110000Y-108530025D02*
X163800000Y-108220025D01*
X164110000Y-135000000D02*
X164110000Y-108530025D01*
X165380000Y-109870025D02*
X165000000Y-109490025D01*
X165380000Y-135000000D02*
X165380000Y-109870025D01*
%TO.N,+5P*%
X170460000Y-114830025D02*
X170200000Y-114570025D01*
X170460000Y-135000000D02*
X170460000Y-114830025D01*
X171730000Y-135000000D02*
X171730000Y-116170025D01*
X171730000Y-116170025D02*
X171400000Y-115840025D01*
X173000000Y-135000000D02*
X173000000Y-117510025D01*
X173000000Y-117510025D02*
X172600000Y-117110025D01*
D15*
%TO.N,+3.3V*%
X111380000Y-109710025D02*
X111600000Y-109490025D01*
D14*
X111380000Y-135000000D02*
X111380000Y-109710025D01*
D15*
X108840000Y-107110014D02*
X109000000Y-106950014D01*
D14*
X108840000Y-135000000D02*
X108840000Y-107110014D01*
X110110000Y-135000000D02*
X110110000Y-108330025D01*
D15*
X110110000Y-108330025D02*
X110000000Y-108220025D01*
%TO.N,+5V*%
X116460000Y-115110025D02*
X117000000Y-114570025D01*
D14*
X116460000Y-135000000D02*
X116460000Y-115110025D01*
D15*
X117730000Y-116110025D02*
X118000000Y-115840025D01*
D14*
X117730000Y-135000000D02*
X117730000Y-116110025D01*
X119000000Y-135000000D02*
X119000000Y-117110025D01*
%TD*%
%TA.AperFunction,Conductor*%
%TO.N,VSS*%
G36*
X202989841Y-74635942D02*
G01*
X202991209Y-74636034D01*
X202998573Y-74636034D01*
X202998577Y-74636035D01*
X203061764Y-74636034D01*
X203067173Y-74636152D01*
X203451242Y-74652917D01*
X203461975Y-74653857D01*
X203840446Y-74703682D01*
X203851065Y-74705554D01*
X204223762Y-74788176D01*
X204234176Y-74790967D01*
X204598246Y-74905756D01*
X204608381Y-74909445D01*
X204961045Y-75055522D01*
X204970840Y-75060090D01*
X205059464Y-75106224D01*
X205309416Y-75236340D01*
X205318784Y-75241748D01*
X205640719Y-75446842D01*
X205649580Y-75453047D01*
X205952404Y-75685412D01*
X205960685Y-75692361D01*
X206242110Y-75950240D01*
X206249759Y-75957889D01*
X206507638Y-76239314D01*
X206514588Y-76247597D01*
X206527644Y-76264611D01*
X206746952Y-76550419D01*
X206753157Y-76559280D01*
X206958251Y-76881215D01*
X206963659Y-76890583D01*
X207139907Y-77229154D01*
X207144479Y-77238959D01*
X207290548Y-77591603D01*
X207294247Y-77601766D01*
X207402391Y-77944760D01*
X207409027Y-77965805D01*
X207411827Y-77976254D01*
X207494442Y-78348917D01*
X207496320Y-78359570D01*
X207546140Y-78738002D01*
X207547083Y-78748779D01*
X207563847Y-79132827D01*
X207563965Y-79138235D01*
X207563965Y-79211410D01*
X207563966Y-79211423D01*
X207563966Y-137990966D01*
X207563965Y-137990984D01*
X207563965Y-138061764D01*
X207563847Y-138067172D01*
X207547083Y-138451220D01*
X207546140Y-138461997D01*
X207496320Y-138840429D01*
X207494442Y-138851082D01*
X207411827Y-139223745D01*
X207409027Y-139234194D01*
X207294248Y-139598231D01*
X207290548Y-139608396D01*
X207144479Y-139961040D01*
X207139907Y-139970845D01*
X206963659Y-140309416D01*
X206958251Y-140318784D01*
X206753157Y-140640719D01*
X206746952Y-140649580D01*
X206514592Y-140952398D01*
X206507638Y-140960685D01*
X206249759Y-141242110D01*
X206242110Y-141249759D01*
X205960685Y-141507638D01*
X205952398Y-141514592D01*
X205649580Y-141746952D01*
X205640719Y-141753157D01*
X205318784Y-141958251D01*
X205309416Y-141963659D01*
X204970845Y-142139907D01*
X204961040Y-142144479D01*
X204608396Y-142290548D01*
X204598231Y-142294248D01*
X204234194Y-142409027D01*
X204223745Y-142411827D01*
X203851082Y-142494442D01*
X203840429Y-142496320D01*
X203461997Y-142546140D01*
X203451220Y-142547083D01*
X203067172Y-142563847D01*
X203061764Y-142563965D01*
X202990983Y-142563965D01*
X202990967Y-142563966D01*
X91009033Y-142563966D01*
X91009017Y-142563965D01*
X90938235Y-142563965D01*
X90932827Y-142563847D01*
X90548779Y-142547083D01*
X90538003Y-142546140D01*
X90348786Y-142521230D01*
X90159570Y-142496320D01*
X90148917Y-142494442D01*
X89776254Y-142411827D01*
X89765805Y-142409027D01*
X89401768Y-142294248D01*
X89391603Y-142290548D01*
X89038959Y-142144479D01*
X89029154Y-142139907D01*
X88690583Y-141963659D01*
X88681215Y-141958251D01*
X88359280Y-141753157D01*
X88350419Y-141746952D01*
X88053123Y-141518829D01*
X88047597Y-141514588D01*
X88039314Y-141507638D01*
X87757889Y-141249759D01*
X87750240Y-141242110D01*
X87492361Y-140960685D01*
X87485407Y-140952398D01*
X87253047Y-140649580D01*
X87246842Y-140640719D01*
X87041748Y-140318784D01*
X87036340Y-140309416D01*
X86860092Y-139970845D01*
X86855520Y-139961040D01*
X86751726Y-139710457D01*
X86709445Y-139608381D01*
X86705756Y-139598246D01*
X86590967Y-139234176D01*
X86588176Y-139223762D01*
X86538570Y-138999997D01*
X87695153Y-138999997D01*
X87695153Y-139000002D01*
X87714526Y-139357314D01*
X87714527Y-139357331D01*
X87772415Y-139710431D01*
X87772421Y-139710457D01*
X87868147Y-140055232D01*
X87868149Y-140055239D01*
X88000597Y-140387659D01*
X88000606Y-140387677D01*
X88168218Y-140703827D01*
X88369033Y-141000007D01*
X88496441Y-141150003D01*
X88496442Y-141150004D01*
X89705748Y-139940698D01*
X89779588Y-140042330D01*
X89957670Y-140220412D01*
X90059300Y-140294251D01*
X88847255Y-141506295D01*
X88847256Y-141506296D01*
X88860485Y-141518828D01*
X88860486Y-141518829D01*
X89145367Y-141735388D01*
X89145370Y-141735390D01*
X89451990Y-141919876D01*
X89776739Y-142070122D01*
X89776744Y-142070123D01*
X90115855Y-142184383D01*
X90465339Y-142261311D01*
X90821075Y-142299999D01*
X90821085Y-142300000D01*
X91178915Y-142300000D01*
X91178924Y-142299999D01*
X91534660Y-142261311D01*
X91884144Y-142184383D01*
X92223255Y-142070123D01*
X92223260Y-142070122D01*
X92548009Y-141919876D01*
X92854629Y-141735390D01*
X92854632Y-141735388D01*
X93139504Y-141518836D01*
X93152742Y-141506294D01*
X91940698Y-140294251D01*
X92042330Y-140220412D01*
X92220412Y-140042330D01*
X92294251Y-139940698D01*
X93503556Y-141150003D01*
X93630964Y-141000008D01*
X93630975Y-140999994D01*
X93831781Y-140703827D01*
X93999393Y-140387677D01*
X93999402Y-140387659D01*
X94131850Y-140055239D01*
X94131852Y-140055232D01*
X94227578Y-139710457D01*
X94227584Y-139710431D01*
X94285472Y-139357331D01*
X94285473Y-139357314D01*
X94304847Y-139000002D01*
X94304847Y-138999997D01*
X199695153Y-138999997D01*
X199695153Y-139000002D01*
X199714526Y-139357314D01*
X199714527Y-139357331D01*
X199772415Y-139710431D01*
X199772421Y-139710457D01*
X199868147Y-140055232D01*
X199868149Y-140055239D01*
X200000597Y-140387659D01*
X200000606Y-140387677D01*
X200168218Y-140703827D01*
X200369033Y-141000007D01*
X200496441Y-141150003D01*
X200496442Y-141150004D01*
X201705748Y-139940698D01*
X201779588Y-140042330D01*
X201957670Y-140220412D01*
X202059300Y-140294251D01*
X200847255Y-141506295D01*
X200847256Y-141506296D01*
X200860485Y-141518828D01*
X200860486Y-141518829D01*
X201145367Y-141735388D01*
X201145370Y-141735390D01*
X201451990Y-141919876D01*
X201776739Y-142070122D01*
X201776744Y-142070123D01*
X202115855Y-142184383D01*
X202465339Y-142261311D01*
X202821075Y-142299999D01*
X202821085Y-142300000D01*
X203178915Y-142300000D01*
X203178924Y-142299999D01*
X203534660Y-142261311D01*
X203884144Y-142184383D01*
X204223255Y-142070123D01*
X204223260Y-142070122D01*
X204548009Y-141919876D01*
X204854629Y-141735390D01*
X204854632Y-141735388D01*
X205139504Y-141518836D01*
X205152742Y-141506294D01*
X203940698Y-140294251D01*
X204042330Y-140220412D01*
X204220412Y-140042330D01*
X204294251Y-139940698D01*
X205503556Y-141150003D01*
X205630964Y-141000008D01*
X205630975Y-140999994D01*
X205831781Y-140703827D01*
X205999393Y-140387677D01*
X205999402Y-140387659D01*
X206131850Y-140055239D01*
X206131852Y-140055232D01*
X206227578Y-139710457D01*
X206227584Y-139710431D01*
X206285472Y-139357331D01*
X206285473Y-139357314D01*
X206304847Y-139000002D01*
X206304847Y-138999997D01*
X206285473Y-138642685D01*
X206285472Y-138642668D01*
X206227584Y-138289568D01*
X206227578Y-138289542D01*
X206131852Y-137944767D01*
X206131850Y-137944760D01*
X205999402Y-137612340D01*
X205999393Y-137612322D01*
X205831781Y-137296172D01*
X205630966Y-136999992D01*
X205503557Y-136849995D01*
X205503556Y-136849994D01*
X204294250Y-138059300D01*
X204220412Y-137957670D01*
X204042330Y-137779588D01*
X203940697Y-137705747D01*
X205152743Y-136493703D01*
X205152742Y-136493702D01*
X205139514Y-136481171D01*
X205139513Y-136481170D01*
X204854632Y-136264611D01*
X204854629Y-136264609D01*
X204548009Y-136080123D01*
X204223260Y-135929877D01*
X204223255Y-135929876D01*
X203884144Y-135815616D01*
X203534660Y-135738688D01*
X203178924Y-135700000D01*
X202821075Y-135700000D01*
X202465339Y-135738688D01*
X202115855Y-135815616D01*
X201776744Y-135929876D01*
X201776739Y-135929877D01*
X201451990Y-136080123D01*
X201145370Y-136264609D01*
X201145367Y-136264611D01*
X200860491Y-136481166D01*
X200847256Y-136493703D01*
X200847255Y-136493703D01*
X202059301Y-137705748D01*
X201957670Y-137779588D01*
X201779588Y-137957670D01*
X201705748Y-138059301D01*
X200496442Y-136849994D01*
X200496441Y-136849995D01*
X200369040Y-136999983D01*
X200369033Y-136999993D01*
X200168218Y-137296172D01*
X200000606Y-137612322D01*
X200000597Y-137612340D01*
X199868149Y-137944760D01*
X199868147Y-137944767D01*
X199772421Y-138289542D01*
X199772415Y-138289568D01*
X199714527Y-138642668D01*
X199714526Y-138642685D01*
X199695153Y-138999997D01*
X94304847Y-138999997D01*
X94285473Y-138642685D01*
X94285472Y-138642668D01*
X94227584Y-138289568D01*
X94227578Y-138289542D01*
X94131852Y-137944767D01*
X94131850Y-137944760D01*
X93999402Y-137612340D01*
X93999393Y-137612322D01*
X93831781Y-137296172D01*
X93630966Y-136999992D01*
X93503557Y-136849995D01*
X93503556Y-136849994D01*
X92294250Y-138059300D01*
X92220412Y-137957670D01*
X92042330Y-137779588D01*
X91940697Y-137705747D01*
X93152743Y-136493703D01*
X93152742Y-136493702D01*
X93139514Y-136481171D01*
X93139513Y-136481170D01*
X92854632Y-136264611D01*
X92854629Y-136264609D01*
X92548009Y-136080123D01*
X92223260Y-135929877D01*
X92223255Y-135929876D01*
X91884144Y-135815616D01*
X91534660Y-135738688D01*
X91178924Y-135700000D01*
X90821075Y-135700000D01*
X90465339Y-135738688D01*
X90115855Y-135815616D01*
X89776744Y-135929876D01*
X89776739Y-135929877D01*
X89451990Y-136080123D01*
X89145370Y-136264609D01*
X89145367Y-136264611D01*
X88860491Y-136481166D01*
X88847256Y-136493703D01*
X88847255Y-136493703D01*
X90059301Y-137705748D01*
X89957670Y-137779588D01*
X89779588Y-137957670D01*
X89705748Y-138059301D01*
X88496442Y-136849994D01*
X88496441Y-136849995D01*
X88369040Y-136999983D01*
X88369033Y-136999993D01*
X88168218Y-137296172D01*
X88000606Y-137612322D01*
X88000597Y-137612340D01*
X87868149Y-137944760D01*
X87868147Y-137944767D01*
X87772421Y-138289542D01*
X87772415Y-138289568D01*
X87714527Y-138642668D01*
X87714526Y-138642685D01*
X87695153Y-138999997D01*
X86538570Y-138999997D01*
X86505554Y-138851065D01*
X86503682Y-138840446D01*
X86453857Y-138461975D01*
X86452917Y-138451241D01*
X86436154Y-138067251D01*
X86436037Y-138061709D01*
X86436345Y-137779588D01*
X86439473Y-134913389D01*
X104079500Y-134913389D01*
X104079500Y-135086610D01*
X104098398Y-135205932D01*
X104106598Y-135257701D01*
X104160127Y-135422445D01*
X104238768Y-135576788D01*
X104340586Y-135716928D01*
X104463072Y-135839414D01*
X104603212Y-135941232D01*
X104757555Y-136019873D01*
X104922299Y-136073402D01*
X105093389Y-136100500D01*
X105093390Y-136100500D01*
X105266610Y-136100500D01*
X105266611Y-136100500D01*
X105437701Y-136073402D01*
X105602445Y-136019873D01*
X105756788Y-135941232D01*
X105896928Y-135839414D01*
X106019414Y-135716928D01*
X106121232Y-135576788D01*
X106199873Y-135422445D01*
X106253402Y-135257701D01*
X106280500Y-135086611D01*
X106280500Y-135000000D01*
X107784417Y-135000000D01*
X107804699Y-135205932D01*
X107804700Y-135205934D01*
X107864768Y-135403954D01*
X107962315Y-135586450D01*
X107962317Y-135586452D01*
X108093589Y-135746410D01*
X108177918Y-135815616D01*
X108253550Y-135877685D01*
X108436046Y-135975232D01*
X108634066Y-136035300D01*
X108634065Y-136035300D01*
X108652529Y-136037118D01*
X108840000Y-136055583D01*
X109045934Y-136035300D01*
X109243954Y-135975232D01*
X109416548Y-135882977D01*
X109484949Y-135868736D01*
X109533450Y-135882976D01*
X109706046Y-135975232D01*
X109904066Y-136035300D01*
X109904065Y-136035300D01*
X109922529Y-136037118D01*
X110110000Y-136055583D01*
X110315934Y-136035300D01*
X110513954Y-135975232D01*
X110686548Y-135882977D01*
X110754949Y-135868736D01*
X110803450Y-135882976D01*
X110976046Y-135975232D01*
X111174066Y-136035300D01*
X111174065Y-136035300D01*
X111192529Y-136037118D01*
X111380000Y-136055583D01*
X111585934Y-136035300D01*
X111783954Y-135975232D01*
X111957078Y-135882693D01*
X112025476Y-135868453D01*
X112073981Y-135882695D01*
X112246233Y-135974766D01*
X112444165Y-136034808D01*
X112650000Y-136055080D01*
X112855834Y-136034808D01*
X113053764Y-135974766D01*
X113226546Y-135882412D01*
X113294949Y-135868170D01*
X113343454Y-135882412D01*
X113516235Y-135974766D01*
X113714165Y-136034808D01*
X113920000Y-136055080D01*
X114125834Y-136034808D01*
X114323764Y-135974766D01*
X114496546Y-135882412D01*
X114564949Y-135868170D01*
X114613454Y-135882412D01*
X114786235Y-135974766D01*
X114984165Y-136034808D01*
X115190000Y-136055080D01*
X115395834Y-136034808D01*
X115593764Y-135974766D01*
X115766016Y-135882695D01*
X115834419Y-135868453D01*
X115882921Y-135882694D01*
X116056046Y-135975232D01*
X116254066Y-136035300D01*
X116254065Y-136035300D01*
X116272529Y-136037118D01*
X116460000Y-136055583D01*
X116665934Y-136035300D01*
X116863954Y-135975232D01*
X117036548Y-135882977D01*
X117104949Y-135868736D01*
X117153450Y-135882976D01*
X117326046Y-135975232D01*
X117524066Y-136035300D01*
X117524065Y-136035300D01*
X117542529Y-136037118D01*
X117730000Y-136055583D01*
X117935934Y-136035300D01*
X118133954Y-135975232D01*
X118306548Y-135882977D01*
X118374949Y-135868736D01*
X118423450Y-135882976D01*
X118596046Y-135975232D01*
X118794066Y-136035300D01*
X118794065Y-136035300D01*
X118812529Y-136037118D01*
X119000000Y-136055583D01*
X119205934Y-136035300D01*
X119403954Y-135975232D01*
X119577078Y-135882693D01*
X119645476Y-135868453D01*
X119693981Y-135882695D01*
X119866233Y-135974766D01*
X120064165Y-136034808D01*
X120270000Y-136055080D01*
X120475834Y-136034808D01*
X120673764Y-135974766D01*
X120846546Y-135882412D01*
X120914949Y-135868170D01*
X120963454Y-135882412D01*
X121136235Y-135974766D01*
X121334165Y-136034808D01*
X121540000Y-136055080D01*
X121745834Y-136034808D01*
X121943764Y-135974766D01*
X122116546Y-135882412D01*
X122184949Y-135868170D01*
X122233454Y-135882412D01*
X122406235Y-135974766D01*
X122604165Y-136034808D01*
X122810000Y-136055080D01*
X123015834Y-136034808D01*
X123213764Y-135974766D01*
X123386016Y-135882695D01*
X123454419Y-135868453D01*
X123502921Y-135882694D01*
X123676046Y-135975232D01*
X123874066Y-136035300D01*
X123874065Y-136035300D01*
X123892529Y-136037118D01*
X124080000Y-136055583D01*
X124285934Y-136035300D01*
X124483954Y-135975232D01*
X124656548Y-135882977D01*
X124724949Y-135868736D01*
X124773450Y-135882976D01*
X124946046Y-135975232D01*
X125144066Y-136035300D01*
X125144065Y-136035300D01*
X125162529Y-136037118D01*
X125350000Y-136055583D01*
X125555934Y-136035300D01*
X125753954Y-135975232D01*
X125926548Y-135882977D01*
X125994949Y-135868736D01*
X126043450Y-135882976D01*
X126216046Y-135975232D01*
X126414066Y-136035300D01*
X126414065Y-136035300D01*
X126432529Y-136037118D01*
X126620000Y-136055583D01*
X126825934Y-136035300D01*
X127023954Y-135975232D01*
X127206450Y-135877685D01*
X127366410Y-135746410D01*
X127497685Y-135586450D01*
X127595232Y-135403954D01*
X127655300Y-135205934D01*
X127675583Y-135000000D01*
X127667052Y-134913389D01*
X128609500Y-134913389D01*
X128609500Y-135086610D01*
X128628398Y-135205932D01*
X128636598Y-135257701D01*
X128690127Y-135422445D01*
X128768768Y-135576788D01*
X128870586Y-135716928D01*
X128993072Y-135839414D01*
X129133212Y-135941232D01*
X129287555Y-136019873D01*
X129452299Y-136073402D01*
X129623389Y-136100500D01*
X129623390Y-136100500D01*
X129796610Y-136100500D01*
X129796611Y-136100500D01*
X129967701Y-136073402D01*
X130132445Y-136019873D01*
X130286788Y-135941232D01*
X130426928Y-135839414D01*
X130549414Y-135716928D01*
X130651232Y-135576788D01*
X130729873Y-135422445D01*
X130783402Y-135257701D01*
X130810500Y-135086611D01*
X130810500Y-134913389D01*
X158079500Y-134913389D01*
X158079500Y-135086610D01*
X158098398Y-135205932D01*
X158106598Y-135257701D01*
X158160127Y-135422445D01*
X158238768Y-135576788D01*
X158340586Y-135716928D01*
X158463072Y-135839414D01*
X158603212Y-135941232D01*
X158757555Y-136019873D01*
X158922299Y-136073402D01*
X159093389Y-136100500D01*
X159093390Y-136100500D01*
X159266610Y-136100500D01*
X159266611Y-136100500D01*
X159437701Y-136073402D01*
X159602445Y-136019873D01*
X159756788Y-135941232D01*
X159896928Y-135839414D01*
X160019414Y-135716928D01*
X160121232Y-135576788D01*
X160199873Y-135422445D01*
X160253402Y-135257701D01*
X160280500Y-135086611D01*
X160280500Y-134913389D01*
X160253402Y-134742299D01*
X160199873Y-134577555D01*
X160121232Y-134423212D01*
X160019414Y-134283072D01*
X159896928Y-134160586D01*
X159756788Y-134058768D01*
X159602445Y-133980127D01*
X159437701Y-133926598D01*
X159437699Y-133926597D01*
X159437698Y-133926597D01*
X159306271Y-133905781D01*
X159266611Y-133899500D01*
X159093389Y-133899500D01*
X159053728Y-133905781D01*
X158922302Y-133926597D01*
X158757552Y-133980128D01*
X158603211Y-134058768D01*
X158523256Y-134116859D01*
X158463072Y-134160586D01*
X158463070Y-134160588D01*
X158463069Y-134160588D01*
X158340588Y-134283069D01*
X158340588Y-134283070D01*
X158340586Y-134283072D01*
X158296859Y-134343256D01*
X158238768Y-134423211D01*
X158160128Y-134577552D01*
X158160127Y-134577554D01*
X158160127Y-134577555D01*
X158154120Y-134596043D01*
X158106597Y-134742302D01*
X158079500Y-134913389D01*
X130810500Y-134913389D01*
X130783402Y-134742299D01*
X130729873Y-134577555D01*
X130651232Y-134423212D01*
X130549414Y-134283072D01*
X130426928Y-134160586D01*
X130286788Y-134058768D01*
X130132445Y-133980127D01*
X129967701Y-133926598D01*
X129967699Y-133926597D01*
X129967698Y-133926597D01*
X129836271Y-133905781D01*
X129796611Y-133899500D01*
X129623389Y-133899500D01*
X129583728Y-133905781D01*
X129452302Y-133926597D01*
X129287552Y-133980128D01*
X129133211Y-134058768D01*
X129053256Y-134116859D01*
X128993072Y-134160586D01*
X128993070Y-134160588D01*
X128993069Y-134160588D01*
X128870588Y-134283069D01*
X128870588Y-134283070D01*
X128870586Y-134283072D01*
X128826859Y-134343256D01*
X128768768Y-134423211D01*
X128690128Y-134577552D01*
X128690127Y-134577554D01*
X128690127Y-134577555D01*
X128684120Y-134596043D01*
X128636597Y-134742302D01*
X128609500Y-134913389D01*
X127667052Y-134913389D01*
X127655300Y-134794066D01*
X127595232Y-134596046D01*
X127497685Y-134413550D01*
X127445702Y-134350209D01*
X127366410Y-134253589D01*
X127248677Y-134156969D01*
X127206450Y-134122315D01*
X127023954Y-134024768D01*
X126825934Y-133964700D01*
X126825932Y-133964699D01*
X126825934Y-133964699D01*
X126620000Y-133944417D01*
X126414067Y-133964699D01*
X126216041Y-134024769D01*
X126043453Y-134117020D01*
X125975050Y-134131262D01*
X125926547Y-134117020D01*
X125753958Y-134024769D01*
X125606794Y-133980128D01*
X125555934Y-133964700D01*
X125555932Y-133964699D01*
X125555934Y-133964699D01*
X125350000Y-133944417D01*
X125144067Y-133964699D01*
X124946041Y-134024769D01*
X124773453Y-134117020D01*
X124705050Y-134131262D01*
X124656547Y-134117020D01*
X124483958Y-134024769D01*
X124336794Y-133980128D01*
X124285934Y-133964700D01*
X124285932Y-133964699D01*
X124285934Y-133964699D01*
X124080000Y-133944417D01*
X123874067Y-133964699D01*
X123676041Y-134024769D01*
X123502924Y-134117303D01*
X123434521Y-134131545D01*
X123386018Y-134117304D01*
X123213762Y-134025232D01*
X123015834Y-133965191D01*
X122810000Y-133944919D01*
X122604165Y-133965191D01*
X122406233Y-134025233D01*
X122233453Y-134117586D01*
X122165050Y-134131828D01*
X122116547Y-134117586D01*
X121943766Y-134025233D01*
X121745834Y-133965191D01*
X121540000Y-133944919D01*
X121334165Y-133965191D01*
X121136233Y-134025233D01*
X120963453Y-134117586D01*
X120895050Y-134131828D01*
X120846547Y-134117586D01*
X120673766Y-134025233D01*
X120475834Y-133965191D01*
X120270000Y-133944919D01*
X120064164Y-133965191D01*
X120064161Y-133965192D01*
X120060490Y-133966306D01*
X120058473Y-133966323D01*
X120058192Y-133966380D01*
X120058181Y-133966326D01*
X119990623Y-133966927D01*
X119931512Y-133929675D01*
X119901924Y-133866380D01*
X119900500Y-133847644D01*
X119900500Y-128106354D01*
X120320398Y-128106354D01*
X120320398Y-128333691D01*
X120355962Y-128558232D01*
X120355962Y-128558235D01*
X120426211Y-128774439D01*
X120426213Y-128774442D01*
X120529422Y-128977001D01*
X120663048Y-129160921D01*
X120823800Y-129321673D01*
X121007720Y-129455299D01*
X121210279Y-129558508D01*
X121210281Y-129558509D01*
X121426486Y-129628758D01*
X121426487Y-129628758D01*
X121426490Y-129628759D01*
X121651029Y-129664323D01*
X121651030Y-129664323D01*
X121878366Y-129664323D01*
X121878367Y-129664323D01*
X122102906Y-129628759D01*
X122102909Y-129628758D01*
X122102910Y-129628758D01*
X122319114Y-129558509D01*
X122319114Y-129558508D01*
X122319117Y-129558508D01*
X122521676Y-129455299D01*
X122705596Y-129321673D01*
X122866348Y-129160921D01*
X122999974Y-128977001D01*
X123103183Y-128774442D01*
X123173434Y-128558231D01*
X123208998Y-128333692D01*
X123208998Y-128106354D01*
X147320398Y-128106354D01*
X147320398Y-128333691D01*
X147355962Y-128558232D01*
X147355962Y-128558235D01*
X147426211Y-128774439D01*
X147426213Y-128774442D01*
X147529422Y-128977001D01*
X147663048Y-129160921D01*
X147823800Y-129321673D01*
X148007720Y-129455299D01*
X148210279Y-129558508D01*
X148210281Y-129558509D01*
X148426486Y-129628758D01*
X148426487Y-129628758D01*
X148426490Y-129628759D01*
X148651029Y-129664323D01*
X148651030Y-129664323D01*
X148878366Y-129664323D01*
X148878367Y-129664323D01*
X149102906Y-129628759D01*
X149102909Y-129628758D01*
X149102910Y-129628758D01*
X149319114Y-129558509D01*
X149319114Y-129558508D01*
X149319117Y-129558508D01*
X149521676Y-129455299D01*
X149705596Y-129321673D01*
X149866348Y-129160921D01*
X149999974Y-128977001D01*
X150103183Y-128774442D01*
X150173434Y-128558231D01*
X150208998Y-128333692D01*
X150208998Y-128106354D01*
X150173434Y-127881815D01*
X150173433Y-127881811D01*
X150173433Y-127881810D01*
X150103184Y-127665606D01*
X149999973Y-127463044D01*
X149866348Y-127279125D01*
X149705596Y-127118373D01*
X149521676Y-126984747D01*
X149319114Y-126881536D01*
X149102909Y-126811287D01*
X148934501Y-126784614D01*
X148878367Y-126775723D01*
X148651029Y-126775723D01*
X148576182Y-126787577D01*
X148426488Y-126811287D01*
X148426485Y-126811287D01*
X148210281Y-126881536D01*
X148007719Y-126984747D01*
X147902786Y-127060985D01*
X147823800Y-127118373D01*
X147823798Y-127118375D01*
X147823797Y-127118375D01*
X147663050Y-127279122D01*
X147663050Y-127279123D01*
X147663048Y-127279125D01*
X147605660Y-127358111D01*
X147529422Y-127463044D01*
X147426211Y-127665606D01*
X147355962Y-127881810D01*
X147355962Y-127881813D01*
X147320398Y-128106354D01*
X123208998Y-128106354D01*
X123173434Y-127881815D01*
X123173433Y-127881811D01*
X123173433Y-127881810D01*
X123103184Y-127665606D01*
X122999973Y-127463044D01*
X122866348Y-127279125D01*
X122705596Y-127118373D01*
X122521676Y-126984747D01*
X122319114Y-126881536D01*
X122102909Y-126811287D01*
X121934501Y-126784614D01*
X121878367Y-126775723D01*
X121651029Y-126775723D01*
X121576182Y-126787577D01*
X121426488Y-126811287D01*
X121426485Y-126811287D01*
X121210281Y-126881536D01*
X121007719Y-126984747D01*
X120902786Y-127060985D01*
X120823800Y-127118373D01*
X120823798Y-127118375D01*
X120823797Y-127118375D01*
X120663050Y-127279122D01*
X120663050Y-127279123D01*
X120663048Y-127279125D01*
X120605660Y-127358111D01*
X120529422Y-127463044D01*
X120426211Y-127665606D01*
X120355962Y-127881810D01*
X120355962Y-127881813D01*
X120320398Y-128106354D01*
X119900500Y-128106354D01*
X119900500Y-117021331D01*
X119900499Y-117021329D01*
X119865896Y-116847366D01*
X119865893Y-116847357D01*
X119798016Y-116683484D01*
X119798009Y-116683471D01*
X119699464Y-116535990D01*
X119699461Y-116535986D01*
X119574038Y-116410563D01*
X119574034Y-116410560D01*
X119426553Y-116312015D01*
X119426540Y-116312008D01*
X119262667Y-116244131D01*
X119262658Y-116244128D01*
X119088694Y-116209525D01*
X119088691Y-116209525D01*
X118911309Y-116209525D01*
X118911303Y-116209525D01*
X118905287Y-116210117D01*
X118836642Y-116197092D01*
X118785936Y-116149023D01*
X118769268Y-116081170D01*
X118776104Y-116045755D01*
X118785366Y-116019285D01*
X118785368Y-116019280D01*
X118797978Y-115907366D01*
X118805565Y-115840028D01*
X118805565Y-115840021D01*
X118785369Y-115660775D01*
X118785368Y-115660770D01*
X118725788Y-115490501D01*
X118629815Y-115337762D01*
X118502262Y-115210209D01*
X118349523Y-115114236D01*
X118179254Y-115054656D01*
X118179249Y-115054655D01*
X118000004Y-115034460D01*
X117999996Y-115034460D01*
X117868778Y-115049244D01*
X117799956Y-115037189D01*
X117748577Y-114989840D01*
X117730953Y-114922230D01*
X117737854Y-114885069D01*
X117785366Y-114749287D01*
X117785369Y-114749274D01*
X117805565Y-114570028D01*
X117805565Y-114570021D01*
X117785369Y-114390775D01*
X117785368Y-114390770D01*
X117732768Y-114240449D01*
X117725789Y-114220503D01*
X117703358Y-114184805D01*
X117629815Y-114067762D01*
X117502262Y-113940209D01*
X117349523Y-113844236D01*
X117179254Y-113784656D01*
X117179249Y-113784655D01*
X117000004Y-113764460D01*
X116999996Y-113764460D01*
X116820750Y-113784655D01*
X116820745Y-113784656D01*
X116650476Y-113844236D01*
X116497737Y-113940209D01*
X116370184Y-114067762D01*
X116370182Y-114067765D01*
X116296640Y-114184805D01*
X116244305Y-114231096D01*
X116215841Y-114240449D01*
X116197336Y-114244130D01*
X116197331Y-114244131D01*
X116033459Y-114312008D01*
X116033446Y-114312015D01*
X115885965Y-114410560D01*
X115885961Y-114410563D01*
X115760538Y-114535986D01*
X115760535Y-114535990D01*
X115661990Y-114683471D01*
X115661983Y-114683484D01*
X115594106Y-114847357D01*
X115594103Y-114847366D01*
X115559500Y-115021329D01*
X115559500Y-133847644D01*
X115539815Y-133914683D01*
X115487011Y-133960438D01*
X115417853Y-133970382D01*
X115399510Y-133966306D01*
X115395838Y-133965192D01*
X115395835Y-133965191D01*
X115190000Y-133944919D01*
X114984165Y-133965191D01*
X114786233Y-134025233D01*
X114613453Y-134117586D01*
X114545050Y-134131828D01*
X114496547Y-134117586D01*
X114323766Y-134025233D01*
X114125834Y-133965191D01*
X113920000Y-133944919D01*
X113714165Y-133965191D01*
X113516233Y-134025233D01*
X113343453Y-134117586D01*
X113275050Y-134131828D01*
X113226547Y-134117586D01*
X113053766Y-134025233D01*
X112855834Y-133965191D01*
X112650000Y-133944919D01*
X112444164Y-133965191D01*
X112444161Y-133965192D01*
X112440490Y-133966306D01*
X112438473Y-133966323D01*
X112438192Y-133966380D01*
X112438181Y-133966326D01*
X112370623Y-133966927D01*
X112311512Y-133929675D01*
X112281924Y-133866380D01*
X112280500Y-133847644D01*
X112280500Y-109947346D01*
X112299506Y-109881374D01*
X112325789Y-109839547D01*
X112385368Y-109669280D01*
X112405565Y-109490025D01*
X112400320Y-109443478D01*
X112385369Y-109310775D01*
X112385368Y-109310770D01*
X112325788Y-109140501D01*
X112229815Y-108987762D01*
X112102262Y-108860209D01*
X111949523Y-108764236D01*
X111779254Y-108704656D01*
X111779249Y-108704655D01*
X111600004Y-108684460D01*
X111599996Y-108684460D01*
X111420750Y-108704655D01*
X111420737Y-108704658D01*
X111250481Y-108764234D01*
X111250472Y-108764238D01*
X111200471Y-108795656D01*
X111133234Y-108814656D01*
X111066399Y-108794288D01*
X111021186Y-108741019D01*
X111010500Y-108690662D01*
X111010500Y-108241331D01*
X111010499Y-108241329D01*
X110975896Y-108067366D01*
X110975893Y-108067357D01*
X110908016Y-107903484D01*
X110908009Y-107903471D01*
X110809464Y-107755990D01*
X110809461Y-107755986D01*
X110684038Y-107630563D01*
X110684034Y-107630560D01*
X110536553Y-107532015D01*
X110536540Y-107532008D01*
X110372667Y-107464131D01*
X110372658Y-107464128D01*
X110198694Y-107429525D01*
X110198691Y-107429525D01*
X110140667Y-107429525D01*
X110126785Y-107428745D01*
X110089819Y-107424580D01*
X110000003Y-107414460D01*
X109999996Y-107414460D01*
X109878383Y-107428162D01*
X109809561Y-107416107D01*
X109758182Y-107368758D01*
X109740500Y-107304942D01*
X109740500Y-107278561D01*
X109747459Y-107237606D01*
X109785367Y-107129271D01*
X109785368Y-107129269D01*
X109788517Y-107101318D01*
X109805565Y-106950017D01*
X109805565Y-106950010D01*
X109795572Y-106861317D01*
X161699500Y-106861317D01*
X161699500Y-107038710D01*
X161734103Y-107212672D01*
X161734105Y-107212680D01*
X161801986Y-107376559D01*
X161900534Y-107524048D01*
X161900535Y-107524049D01*
X161900536Y-107524050D01*
X161903176Y-107526690D01*
X161904118Y-107528416D01*
X161904401Y-107528760D01*
X161904335Y-107528813D01*
X161936664Y-107588009D01*
X161939500Y-107614376D01*
X161939500Y-134425172D01*
X161924858Y-134483625D01*
X161864769Y-134596041D01*
X161804699Y-134794067D01*
X161784417Y-135000000D01*
X161804699Y-135205932D01*
X161804700Y-135205934D01*
X161864768Y-135403954D01*
X161962315Y-135586450D01*
X161962317Y-135586452D01*
X162093589Y-135746410D01*
X162177918Y-135815616D01*
X162253550Y-135877685D01*
X162436046Y-135975232D01*
X162634066Y-136035300D01*
X162634065Y-136035300D01*
X162652529Y-136037118D01*
X162840000Y-136055583D01*
X163045934Y-136035300D01*
X163243954Y-135975232D01*
X163416548Y-135882977D01*
X163484949Y-135868736D01*
X163533450Y-135882976D01*
X163706046Y-135975232D01*
X163904066Y-136035300D01*
X163904065Y-136035300D01*
X163922529Y-136037118D01*
X164110000Y-136055583D01*
X164315934Y-136035300D01*
X164513954Y-135975232D01*
X164686548Y-135882977D01*
X164754949Y-135868736D01*
X164803450Y-135882976D01*
X164976046Y-135975232D01*
X165174066Y-136035300D01*
X165174065Y-136035300D01*
X165192529Y-136037118D01*
X165380000Y-136055583D01*
X165585934Y-136035300D01*
X165783954Y-135975232D01*
X165957078Y-135882693D01*
X166025476Y-135868453D01*
X166073981Y-135882695D01*
X166246233Y-135974766D01*
X166444165Y-136034808D01*
X166650000Y-136055080D01*
X166855834Y-136034808D01*
X167053764Y-135974766D01*
X167226546Y-135882412D01*
X167294949Y-135868170D01*
X167343454Y-135882412D01*
X167516235Y-135974766D01*
X167714165Y-136034808D01*
X167920000Y-136055080D01*
X168125834Y-136034808D01*
X168323764Y-135974766D01*
X168496546Y-135882412D01*
X168564949Y-135868170D01*
X168613454Y-135882412D01*
X168786235Y-135974766D01*
X168984165Y-136034808D01*
X169190000Y-136055080D01*
X169395834Y-136034808D01*
X169593764Y-135974766D01*
X169766016Y-135882695D01*
X169834419Y-135868453D01*
X169882921Y-135882694D01*
X170056046Y-135975232D01*
X170254066Y-136035300D01*
X170254065Y-136035300D01*
X170272529Y-136037118D01*
X170460000Y-136055583D01*
X170665934Y-136035300D01*
X170863954Y-135975232D01*
X171036548Y-135882977D01*
X171104949Y-135868736D01*
X171153450Y-135882976D01*
X171326046Y-135975232D01*
X171524066Y-136035300D01*
X171524065Y-136035300D01*
X171542529Y-136037118D01*
X171730000Y-136055583D01*
X171935934Y-136035300D01*
X172133954Y-135975232D01*
X172306548Y-135882977D01*
X172374949Y-135868736D01*
X172423450Y-135882976D01*
X172596046Y-135975232D01*
X172794066Y-136035300D01*
X172794065Y-136035300D01*
X172812529Y-136037118D01*
X173000000Y-136055583D01*
X173205934Y-136035300D01*
X173403954Y-135975232D01*
X173577078Y-135882693D01*
X173645476Y-135868453D01*
X173693981Y-135882695D01*
X173866233Y-135974766D01*
X174064165Y-136034808D01*
X174270000Y-136055080D01*
X174475834Y-136034808D01*
X174673764Y-135974766D01*
X174846546Y-135882412D01*
X174914949Y-135868170D01*
X174963454Y-135882412D01*
X175136235Y-135974766D01*
X175334165Y-136034808D01*
X175540000Y-136055080D01*
X175745834Y-136034808D01*
X175943764Y-135974766D01*
X176116546Y-135882412D01*
X176184949Y-135868170D01*
X176233454Y-135882412D01*
X176406235Y-135974766D01*
X176604165Y-136034808D01*
X176810000Y-136055080D01*
X177015834Y-136034808D01*
X177213764Y-135974766D01*
X177386016Y-135882695D01*
X177454419Y-135868453D01*
X177502921Y-135882694D01*
X177676046Y-135975232D01*
X177874066Y-136035300D01*
X177874065Y-136035300D01*
X177892529Y-136037118D01*
X178080000Y-136055583D01*
X178285934Y-136035300D01*
X178483954Y-135975232D01*
X178656548Y-135882977D01*
X178724949Y-135868736D01*
X178773450Y-135882976D01*
X178946046Y-135975232D01*
X179144066Y-136035300D01*
X179144065Y-136035300D01*
X179162529Y-136037118D01*
X179350000Y-136055583D01*
X179555934Y-136035300D01*
X179753954Y-135975232D01*
X179926548Y-135882977D01*
X179994949Y-135868736D01*
X180043450Y-135882976D01*
X180216046Y-135975232D01*
X180414066Y-136035300D01*
X180414065Y-136035300D01*
X180432529Y-136037118D01*
X180620000Y-136055583D01*
X180825934Y-136035300D01*
X181023954Y-135975232D01*
X181206450Y-135877685D01*
X181366410Y-135746410D01*
X181497685Y-135586450D01*
X181595232Y-135403954D01*
X181655300Y-135205934D01*
X181675583Y-135000000D01*
X181667052Y-134913389D01*
X182609500Y-134913389D01*
X182609500Y-135086610D01*
X182628398Y-135205932D01*
X182636598Y-135257701D01*
X182690127Y-135422445D01*
X182768768Y-135576788D01*
X182870586Y-135716928D01*
X182993072Y-135839414D01*
X183133212Y-135941232D01*
X183287555Y-136019873D01*
X183452299Y-136073402D01*
X183623389Y-136100500D01*
X183623390Y-136100500D01*
X183796610Y-136100500D01*
X183796611Y-136100500D01*
X183967701Y-136073402D01*
X184132445Y-136019873D01*
X184286788Y-135941232D01*
X184426928Y-135839414D01*
X184549414Y-135716928D01*
X184651232Y-135576788D01*
X184729873Y-135422445D01*
X184783402Y-135257701D01*
X184810500Y-135086611D01*
X184810500Y-134913389D01*
X184783402Y-134742299D01*
X184729873Y-134577555D01*
X184651232Y-134423212D01*
X184549414Y-134283072D01*
X184426928Y-134160586D01*
X184286788Y-134058768D01*
X184132445Y-133980127D01*
X183967701Y-133926598D01*
X183967699Y-133926597D01*
X183967698Y-133926597D01*
X183836271Y-133905781D01*
X183796611Y-133899500D01*
X183623389Y-133899500D01*
X183583728Y-133905781D01*
X183452302Y-133926597D01*
X183287552Y-133980128D01*
X183133211Y-134058768D01*
X183053256Y-134116859D01*
X182993072Y-134160586D01*
X182993070Y-134160588D01*
X182993069Y-134160588D01*
X182870588Y-134283069D01*
X182870588Y-134283070D01*
X182870586Y-134283072D01*
X182826859Y-134343256D01*
X182768768Y-134423211D01*
X182690128Y-134577552D01*
X182690127Y-134577554D01*
X182690127Y-134577555D01*
X182684120Y-134596043D01*
X182636597Y-134742302D01*
X182609500Y-134913389D01*
X181667052Y-134913389D01*
X181655300Y-134794066D01*
X181595232Y-134596046D01*
X181497685Y-134413550D01*
X181445702Y-134350209D01*
X181366410Y-134253589D01*
X181248677Y-134156969D01*
X181206450Y-134122315D01*
X181023954Y-134024768D01*
X180825934Y-133964700D01*
X180825932Y-133964699D01*
X180825934Y-133964699D01*
X180620000Y-133944417D01*
X180414067Y-133964699D01*
X180216041Y-134024769D01*
X180043453Y-134117020D01*
X179975050Y-134131262D01*
X179926547Y-134117020D01*
X179753958Y-134024769D01*
X179606794Y-133980128D01*
X179555934Y-133964700D01*
X179555932Y-133964699D01*
X179555934Y-133964699D01*
X179350000Y-133944417D01*
X179144067Y-133964699D01*
X178946041Y-134024769D01*
X178773453Y-134117020D01*
X178705050Y-134131262D01*
X178656547Y-134117020D01*
X178483958Y-134024769D01*
X178336794Y-133980128D01*
X178285934Y-133964700D01*
X178285932Y-133964699D01*
X178285934Y-133964699D01*
X178080000Y-133944417D01*
X177874067Y-133964699D01*
X177676041Y-134024769D01*
X177502924Y-134117303D01*
X177434521Y-134131545D01*
X177386018Y-134117304D01*
X177213762Y-134025232D01*
X177015834Y-133965191D01*
X176810000Y-133944919D01*
X176604165Y-133965191D01*
X176406233Y-134025233D01*
X176233453Y-134117586D01*
X176165050Y-134131828D01*
X176116547Y-134117586D01*
X175943766Y-134025233D01*
X175745834Y-133965191D01*
X175540000Y-133944919D01*
X175334165Y-133965191D01*
X175136233Y-134025233D01*
X174963453Y-134117586D01*
X174895050Y-134131828D01*
X174846547Y-134117586D01*
X174673766Y-134025233D01*
X174475834Y-133965191D01*
X174270000Y-133944919D01*
X174064164Y-133965191D01*
X174064161Y-133965192D01*
X174060490Y-133966306D01*
X174058473Y-133966323D01*
X174058192Y-133966380D01*
X174058181Y-133966326D01*
X173990623Y-133966927D01*
X173931512Y-133929675D01*
X173901924Y-133866380D01*
X173900500Y-133847644D01*
X173900500Y-128106354D01*
X174320398Y-128106354D01*
X174320398Y-128333691D01*
X174355962Y-128558232D01*
X174355962Y-128558235D01*
X174426211Y-128774439D01*
X174426213Y-128774442D01*
X174529422Y-128977001D01*
X174663048Y-129160921D01*
X174823800Y-129321673D01*
X175007720Y-129455299D01*
X175210279Y-129558508D01*
X175210281Y-129558509D01*
X175426486Y-129628758D01*
X175426487Y-129628758D01*
X175426490Y-129628759D01*
X175651029Y-129664323D01*
X175651030Y-129664323D01*
X175878366Y-129664323D01*
X175878367Y-129664323D01*
X176102906Y-129628759D01*
X176102909Y-129628758D01*
X176102910Y-129628758D01*
X176319114Y-129558509D01*
X176319114Y-129558508D01*
X176319117Y-129558508D01*
X176521676Y-129455299D01*
X176705596Y-129321673D01*
X176866348Y-129160921D01*
X176999974Y-128977001D01*
X177103183Y-128774442D01*
X177173434Y-128558231D01*
X177208998Y-128333692D01*
X177208998Y-128106354D01*
X177173434Y-127881815D01*
X177173433Y-127881811D01*
X177173433Y-127881810D01*
X177103184Y-127665606D01*
X176999973Y-127463044D01*
X176866348Y-127279125D01*
X176705596Y-127118373D01*
X176521676Y-126984747D01*
X176319114Y-126881536D01*
X176102909Y-126811287D01*
X175934501Y-126784614D01*
X175878367Y-126775723D01*
X175651029Y-126775723D01*
X175576182Y-126787577D01*
X175426488Y-126811287D01*
X175426485Y-126811287D01*
X175210281Y-126881536D01*
X175007719Y-126984747D01*
X174902786Y-127060985D01*
X174823800Y-127118373D01*
X174823798Y-127118375D01*
X174823797Y-127118375D01*
X174663050Y-127279122D01*
X174663050Y-127279123D01*
X174663048Y-127279125D01*
X174605660Y-127358111D01*
X174529422Y-127463044D01*
X174426211Y-127665606D01*
X174355962Y-127881810D01*
X174355962Y-127881813D01*
X174320398Y-128106354D01*
X173900500Y-128106354D01*
X173900500Y-117421331D01*
X173900499Y-117421329D01*
X173865896Y-117247366D01*
X173865893Y-117247357D01*
X173798016Y-117083484D01*
X173798009Y-117083471D01*
X173699465Y-116935991D01*
X173699464Y-116935990D01*
X173574035Y-116810561D01*
X173174041Y-116410565D01*
X173174034Y-116410559D01*
X173026548Y-116312013D01*
X172862666Y-116244130D01*
X172862658Y-116244128D01*
X172730309Y-116217802D01*
X172668398Y-116185417D01*
X172633824Y-116124702D01*
X172630500Y-116096185D01*
X172630500Y-116081331D01*
X172630499Y-116081329D01*
X172595896Y-115907366D01*
X172595893Y-115907357D01*
X172528016Y-115743484D01*
X172528009Y-115743471D01*
X172429465Y-115595991D01*
X172429464Y-115595990D01*
X172304035Y-115470561D01*
X171974036Y-115140561D01*
X171974035Y-115140560D01*
X171974034Y-115140559D01*
X171826548Y-115042013D01*
X171662666Y-114974130D01*
X171662658Y-114974128D01*
X171488696Y-114939525D01*
X171488692Y-114939525D01*
X171484500Y-114939525D01*
X171417461Y-114919840D01*
X171371706Y-114867036D01*
X171360500Y-114815525D01*
X171360500Y-114741333D01*
X171360499Y-114741332D01*
X171348992Y-114683478D01*
X171325895Y-114567359D01*
X171262043Y-114413207D01*
X171258013Y-114403478D01*
X171159464Y-114255990D01*
X171034035Y-114130561D01*
X170774036Y-113870561D01*
X170774033Y-113870559D01*
X170626545Y-113772011D01*
X170462666Y-113704130D01*
X170462658Y-113704128D01*
X170288696Y-113669525D01*
X170288692Y-113669525D01*
X170111308Y-113669525D01*
X170111303Y-113669525D01*
X169937341Y-113704128D01*
X169937333Y-113704130D01*
X169773451Y-113772013D01*
X169625965Y-113870559D01*
X169625958Y-113870565D01*
X169500540Y-113995983D01*
X169500534Y-113995990D01*
X169401988Y-114143476D01*
X169334105Y-114307358D01*
X169334103Y-114307366D01*
X169299500Y-114481328D01*
X169299500Y-114658721D01*
X169334103Y-114832683D01*
X169334105Y-114832691D01*
X169401986Y-114996570D01*
X169498197Y-115140561D01*
X169500536Y-115144061D01*
X169523181Y-115166706D01*
X169556666Y-115228026D01*
X169559500Y-115254386D01*
X169559500Y-133847644D01*
X169539815Y-133914683D01*
X169487011Y-133960438D01*
X169417853Y-133970382D01*
X169399510Y-133966306D01*
X169395838Y-133965192D01*
X169395835Y-133965191D01*
X169190000Y-133944919D01*
X168984165Y-133965191D01*
X168786233Y-134025233D01*
X168613453Y-134117586D01*
X168545050Y-134131828D01*
X168496547Y-134117586D01*
X168323766Y-134025233D01*
X168125834Y-133965191D01*
X167920000Y-133944919D01*
X167714165Y-133965191D01*
X167516233Y-134025233D01*
X167343453Y-134117586D01*
X167275050Y-134131828D01*
X167226547Y-134117586D01*
X167053766Y-134025233D01*
X166855834Y-133965191D01*
X166650000Y-133944919D01*
X166444164Y-133965191D01*
X166444161Y-133965192D01*
X166440490Y-133966306D01*
X166438473Y-133966323D01*
X166438192Y-133966380D01*
X166438181Y-133966326D01*
X166370623Y-133966927D01*
X166311512Y-133929675D01*
X166281924Y-133866380D01*
X166280500Y-133847644D01*
X166280500Y-109781333D01*
X166280499Y-109781332D01*
X166268660Y-109721810D01*
X166268660Y-109721807D01*
X166245896Y-109607366D01*
X166245895Y-109607359D01*
X166197293Y-109490025D01*
X166197291Y-109490021D01*
X166178015Y-109443483D01*
X166178013Y-109443478D01*
X166148575Y-109399422D01*
X166118936Y-109355064D01*
X166118936Y-109355063D01*
X166118933Y-109355061D01*
X166079466Y-109295991D01*
X166079464Y-109295989D01*
X165574041Y-108790565D01*
X165574034Y-108790559D01*
X165426548Y-108692013D01*
X165262666Y-108624130D01*
X165262658Y-108624128D01*
X165110309Y-108593824D01*
X165048398Y-108561439D01*
X165013824Y-108500724D01*
X165010500Y-108472207D01*
X165010500Y-108441333D01*
X165010499Y-108441332D01*
X164984121Y-108308717D01*
X164975895Y-108267359D01*
X164941953Y-108185418D01*
X164908013Y-108103478D01*
X164830870Y-107988026D01*
X164809464Y-107955989D01*
X164809462Y-107955986D01*
X164374041Y-107520565D01*
X164374034Y-107520559D01*
X164226548Y-107422013D01*
X164062666Y-107354130D01*
X164062658Y-107354128D01*
X163888696Y-107319525D01*
X163888692Y-107319525D01*
X163864500Y-107319525D01*
X163797461Y-107299840D01*
X163751706Y-107247036D01*
X163740500Y-107195525D01*
X163740500Y-107101320D01*
X163740499Y-107101318D01*
X163705896Y-106927355D01*
X163705893Y-106927346D01*
X163638016Y-106763473D01*
X163638009Y-106763460D01*
X163539465Y-106615980D01*
X163523975Y-106600490D01*
X163472620Y-106549135D01*
X163472618Y-106549131D01*
X163174041Y-106250554D01*
X163174034Y-106250548D01*
X163026548Y-106152002D01*
X162862666Y-106084119D01*
X162862658Y-106084117D01*
X162688696Y-106049514D01*
X162688692Y-106049514D01*
X162511308Y-106049514D01*
X162511303Y-106049514D01*
X162337341Y-106084117D01*
X162337333Y-106084119D01*
X162173451Y-106152002D01*
X162025965Y-106250548D01*
X162025958Y-106250554D01*
X161900540Y-106375972D01*
X161900534Y-106375979D01*
X161801988Y-106523465D01*
X161734105Y-106687347D01*
X161734103Y-106687355D01*
X161699500Y-106861317D01*
X109795572Y-106861317D01*
X109785369Y-106770764D01*
X109785368Y-106770759D01*
X109725788Y-106600490D01*
X109629815Y-106447751D01*
X109502262Y-106320198D01*
X109349523Y-106224225D01*
X109179254Y-106164645D01*
X109179249Y-106164644D01*
X109000004Y-106144449D01*
X108999996Y-106144449D01*
X108820750Y-106164644D01*
X108820737Y-106164647D01*
X108650479Y-106224224D01*
X108645730Y-106226511D01*
X108616135Y-106236401D01*
X108577337Y-106244118D01*
X108577331Y-106244120D01*
X108413459Y-106311997D01*
X108413446Y-106312004D01*
X108265965Y-106410549D01*
X108265961Y-106410552D01*
X108140538Y-106535975D01*
X108140535Y-106535979D01*
X108041990Y-106683460D01*
X108041983Y-106683473D01*
X107974106Y-106847346D01*
X107974103Y-106847355D01*
X107939500Y-107021318D01*
X107939500Y-134425172D01*
X107924858Y-134483625D01*
X107864769Y-134596041D01*
X107804699Y-134794067D01*
X107784417Y-135000000D01*
X106280500Y-135000000D01*
X106280500Y-134913389D01*
X106253402Y-134742299D01*
X106199873Y-134577555D01*
X106121232Y-134423212D01*
X106019414Y-134283072D01*
X105896928Y-134160586D01*
X105756788Y-134058768D01*
X105602445Y-133980127D01*
X105437701Y-133926598D01*
X105437699Y-133926597D01*
X105437698Y-133926597D01*
X105306271Y-133905781D01*
X105266611Y-133899500D01*
X105093389Y-133899500D01*
X105053728Y-133905781D01*
X104922302Y-133926597D01*
X104757552Y-133980128D01*
X104603211Y-134058768D01*
X104523256Y-134116859D01*
X104463072Y-134160586D01*
X104463070Y-134160588D01*
X104463069Y-134160588D01*
X104340588Y-134283069D01*
X104340588Y-134283070D01*
X104340586Y-134283072D01*
X104296859Y-134343256D01*
X104238768Y-134423211D01*
X104160128Y-134577552D01*
X104160127Y-134577554D01*
X104160127Y-134577555D01*
X104154120Y-134596043D01*
X104106597Y-134742302D01*
X104079500Y-134913389D01*
X86439473Y-134913389D01*
X86446903Y-128106354D01*
X93320398Y-128106354D01*
X93320398Y-128333691D01*
X93355962Y-128558232D01*
X93355962Y-128558235D01*
X93426211Y-128774439D01*
X93426213Y-128774442D01*
X93529422Y-128977001D01*
X93663048Y-129160921D01*
X93823800Y-129321673D01*
X94007720Y-129455299D01*
X94210279Y-129558508D01*
X94210281Y-129558509D01*
X94426486Y-129628758D01*
X94426487Y-129628758D01*
X94426490Y-129628759D01*
X94651029Y-129664323D01*
X94651030Y-129664323D01*
X94878366Y-129664323D01*
X94878367Y-129664323D01*
X95102906Y-129628759D01*
X95102909Y-129628758D01*
X95102910Y-129628758D01*
X95319114Y-129558509D01*
X95319114Y-129558508D01*
X95319117Y-129558508D01*
X95521676Y-129455299D01*
X95705596Y-129321673D01*
X95866348Y-129160921D01*
X95999974Y-128977001D01*
X96103183Y-128774442D01*
X96173434Y-128558231D01*
X96208998Y-128333692D01*
X96208998Y-128106354D01*
X96173434Y-127881815D01*
X96173433Y-127881811D01*
X96173433Y-127881810D01*
X96103184Y-127665606D01*
X95999973Y-127463044D01*
X95866348Y-127279125D01*
X95705596Y-127118373D01*
X95521676Y-126984747D01*
X95319114Y-126881536D01*
X95102909Y-126811287D01*
X94934501Y-126784614D01*
X94878367Y-126775723D01*
X94651029Y-126775723D01*
X94576182Y-126787577D01*
X94426488Y-126811287D01*
X94426485Y-126811287D01*
X94210281Y-126881536D01*
X94007719Y-126984747D01*
X93902786Y-127060985D01*
X93823800Y-127118373D01*
X93823798Y-127118375D01*
X93823797Y-127118375D01*
X93663050Y-127279122D01*
X93663050Y-127279123D01*
X93663048Y-127279125D01*
X93605660Y-127358111D01*
X93529422Y-127463044D01*
X93426211Y-127665606D01*
X93355962Y-127881810D01*
X93355962Y-127881813D01*
X93320398Y-128106354D01*
X86446903Y-128106354D01*
X86489174Y-89376358D01*
X93320398Y-89376358D01*
X93320398Y-89603695D01*
X93355962Y-89828236D01*
X93355962Y-89828239D01*
X93426211Y-90044443D01*
X93426213Y-90044446D01*
X93529422Y-90247005D01*
X93663048Y-90430925D01*
X93823800Y-90591677D01*
X94007720Y-90725303D01*
X94210279Y-90828512D01*
X94210281Y-90828513D01*
X94426486Y-90898762D01*
X94426487Y-90898762D01*
X94426490Y-90898763D01*
X94651029Y-90934327D01*
X94651030Y-90934327D01*
X94878366Y-90934327D01*
X94878367Y-90934327D01*
X95102906Y-90898763D01*
X95102909Y-90898762D01*
X95102910Y-90898762D01*
X95319114Y-90828513D01*
X95319114Y-90828512D01*
X95319117Y-90828512D01*
X95521676Y-90725303D01*
X95705596Y-90591677D01*
X95866348Y-90430925D01*
X95999974Y-90247005D01*
X96103183Y-90044446D01*
X96173434Y-89828235D01*
X96208998Y-89603696D01*
X96208998Y-89376358D01*
X120320398Y-89376358D01*
X120320398Y-89603695D01*
X120355962Y-89828236D01*
X120355962Y-89828239D01*
X120426211Y-90044443D01*
X120426213Y-90044446D01*
X120529422Y-90247005D01*
X120663048Y-90430925D01*
X120823800Y-90591677D01*
X121007720Y-90725303D01*
X121210279Y-90828512D01*
X121210281Y-90828513D01*
X121426486Y-90898762D01*
X121426487Y-90898762D01*
X121426490Y-90898763D01*
X121651029Y-90934327D01*
X121651030Y-90934327D01*
X121878366Y-90934327D01*
X121878367Y-90934327D01*
X122102906Y-90898763D01*
X122102909Y-90898762D01*
X122102910Y-90898762D01*
X122319114Y-90828513D01*
X122319114Y-90828512D01*
X122319117Y-90828512D01*
X122521676Y-90725303D01*
X122705596Y-90591677D01*
X122866348Y-90430925D01*
X122999974Y-90247005D01*
X123103183Y-90044446D01*
X123173434Y-89828235D01*
X123208998Y-89603696D01*
X123208998Y-89376358D01*
X147320398Y-89376358D01*
X147320398Y-89603695D01*
X147355962Y-89828236D01*
X147355962Y-89828239D01*
X147426211Y-90044443D01*
X147426213Y-90044446D01*
X147529422Y-90247005D01*
X147663048Y-90430925D01*
X147823800Y-90591677D01*
X148007720Y-90725303D01*
X148210279Y-90828512D01*
X148210281Y-90828513D01*
X148426486Y-90898762D01*
X148426487Y-90898762D01*
X148426490Y-90898763D01*
X148651029Y-90934327D01*
X148651030Y-90934327D01*
X148878366Y-90934327D01*
X148878367Y-90934327D01*
X149102906Y-90898763D01*
X149102909Y-90898762D01*
X149102910Y-90898762D01*
X149319114Y-90828513D01*
X149319114Y-90828512D01*
X149319117Y-90828512D01*
X149521676Y-90725303D01*
X149705596Y-90591677D01*
X149866348Y-90430925D01*
X149999974Y-90247005D01*
X150103183Y-90044446D01*
X150173434Y-89828235D01*
X150208998Y-89603696D01*
X150208998Y-89376358D01*
X174320398Y-89376358D01*
X174320398Y-89603695D01*
X174355962Y-89828236D01*
X174355962Y-89828239D01*
X174426211Y-90044443D01*
X174426213Y-90044446D01*
X174529422Y-90247005D01*
X174663048Y-90430925D01*
X174823800Y-90591677D01*
X175007720Y-90725303D01*
X175210279Y-90828512D01*
X175210281Y-90828513D01*
X175426486Y-90898762D01*
X175426487Y-90898762D01*
X175426490Y-90898763D01*
X175651029Y-90934327D01*
X175651030Y-90934327D01*
X175878366Y-90934327D01*
X175878367Y-90934327D01*
X176102906Y-90898763D01*
X176102909Y-90898762D01*
X176102910Y-90898762D01*
X176319114Y-90828513D01*
X176319114Y-90828512D01*
X176319117Y-90828512D01*
X176521676Y-90725303D01*
X176705596Y-90591677D01*
X176866348Y-90430925D01*
X176999974Y-90247005D01*
X177103183Y-90044446D01*
X177173434Y-89828235D01*
X177208998Y-89603696D01*
X177208998Y-89376358D01*
X177173434Y-89151819D01*
X177173433Y-89151815D01*
X177173433Y-89151814D01*
X177103184Y-88935610D01*
X176999973Y-88733048D01*
X176866348Y-88549129D01*
X176705596Y-88388377D01*
X176521676Y-88254751D01*
X176319114Y-88151540D01*
X176102909Y-88081291D01*
X175934501Y-88054618D01*
X175878367Y-88045727D01*
X175651029Y-88045727D01*
X175576182Y-88057581D01*
X175426488Y-88081291D01*
X175426485Y-88081291D01*
X175210281Y-88151540D01*
X175007719Y-88254751D01*
X174902786Y-88330989D01*
X174823800Y-88388377D01*
X174823798Y-88388379D01*
X174823797Y-88388379D01*
X174663050Y-88549126D01*
X174663050Y-88549127D01*
X174663048Y-88549129D01*
X174605660Y-88628115D01*
X174529422Y-88733048D01*
X174426211Y-88935610D01*
X174355962Y-89151814D01*
X174355962Y-89151817D01*
X174320398Y-89376358D01*
X150208998Y-89376358D01*
X150173434Y-89151819D01*
X150173433Y-89151815D01*
X150173433Y-89151814D01*
X150103184Y-88935610D01*
X149999973Y-88733048D01*
X149866348Y-88549129D01*
X149705596Y-88388377D01*
X149521676Y-88254751D01*
X149319114Y-88151540D01*
X149102909Y-88081291D01*
X148934501Y-88054618D01*
X148878367Y-88045727D01*
X148651029Y-88045727D01*
X148576182Y-88057581D01*
X148426488Y-88081291D01*
X148426485Y-88081291D01*
X148210281Y-88151540D01*
X148007719Y-88254751D01*
X147902786Y-88330989D01*
X147823800Y-88388377D01*
X147823798Y-88388379D01*
X147823797Y-88388379D01*
X147663050Y-88549126D01*
X147663050Y-88549127D01*
X147663048Y-88549129D01*
X147605660Y-88628115D01*
X147529422Y-88733048D01*
X147426211Y-88935610D01*
X147355962Y-89151814D01*
X147355962Y-89151817D01*
X147320398Y-89376358D01*
X123208998Y-89376358D01*
X123173434Y-89151819D01*
X123173433Y-89151815D01*
X123173433Y-89151814D01*
X123103184Y-88935610D01*
X122999973Y-88733048D01*
X122866348Y-88549129D01*
X122705596Y-88388377D01*
X122521676Y-88254751D01*
X122319114Y-88151540D01*
X122102909Y-88081291D01*
X121934501Y-88054618D01*
X121878367Y-88045727D01*
X121651029Y-88045727D01*
X121576182Y-88057581D01*
X121426488Y-88081291D01*
X121426485Y-88081291D01*
X121210281Y-88151540D01*
X121007719Y-88254751D01*
X120902786Y-88330989D01*
X120823800Y-88388377D01*
X120823798Y-88388379D01*
X120823797Y-88388379D01*
X120663050Y-88549126D01*
X120663050Y-88549127D01*
X120663048Y-88549129D01*
X120605660Y-88628115D01*
X120529422Y-88733048D01*
X120426211Y-88935610D01*
X120355962Y-89151814D01*
X120355962Y-89151817D01*
X120320398Y-89376358D01*
X96208998Y-89376358D01*
X96173434Y-89151819D01*
X96173433Y-89151815D01*
X96173433Y-89151814D01*
X96103184Y-88935610D01*
X95999973Y-88733048D01*
X95866348Y-88549129D01*
X95705596Y-88388377D01*
X95521676Y-88254751D01*
X95319114Y-88151540D01*
X95102909Y-88081291D01*
X94934501Y-88054618D01*
X94878367Y-88045727D01*
X94651029Y-88045727D01*
X94576182Y-88057581D01*
X94426488Y-88081291D01*
X94426485Y-88081291D01*
X94210281Y-88151540D01*
X94007719Y-88254751D01*
X93902786Y-88330989D01*
X93823800Y-88388377D01*
X93823798Y-88388379D01*
X93823797Y-88388379D01*
X93663050Y-88549126D01*
X93663050Y-88549127D01*
X93663048Y-88549129D01*
X93605660Y-88628115D01*
X93529422Y-88733048D01*
X93426211Y-88935610D01*
X93355962Y-89151814D01*
X93355962Y-89151817D01*
X93320398Y-89376358D01*
X86489174Y-89376358D01*
X86500418Y-79074561D01*
X86500500Y-79073358D01*
X86500500Y-79002690D01*
X86500559Y-78999997D01*
X87695153Y-78999997D01*
X87695153Y-79000002D01*
X87714526Y-79357314D01*
X87714527Y-79357331D01*
X87772415Y-79710431D01*
X87772421Y-79710457D01*
X87868147Y-80055232D01*
X87868149Y-80055239D01*
X88000597Y-80387659D01*
X88000606Y-80387677D01*
X88168218Y-80703827D01*
X88369033Y-81000007D01*
X88496441Y-81150003D01*
X88496442Y-81150004D01*
X89705748Y-79940698D01*
X89779588Y-80042330D01*
X89957670Y-80220412D01*
X90059300Y-80294251D01*
X88847255Y-81506295D01*
X88847256Y-81506296D01*
X88860485Y-81518828D01*
X88860486Y-81518829D01*
X89145367Y-81735388D01*
X89145370Y-81735390D01*
X89451990Y-81919876D01*
X89776739Y-82070122D01*
X89776744Y-82070123D01*
X90115855Y-82184383D01*
X90465339Y-82261311D01*
X90821075Y-82299999D01*
X90821085Y-82300000D01*
X91178915Y-82300000D01*
X91178924Y-82299999D01*
X91534660Y-82261311D01*
X91884144Y-82184383D01*
X92223255Y-82070123D01*
X92223260Y-82070122D01*
X92548009Y-81919876D01*
X92854629Y-81735390D01*
X92854632Y-81735388D01*
X93139504Y-81518836D01*
X93152742Y-81506294D01*
X92816882Y-81170434D01*
X99735701Y-81170434D01*
X99735701Y-84466569D01*
X99735702Y-84466575D01*
X99742109Y-84526182D01*
X99792403Y-84661027D01*
X99792407Y-84661034D01*
X99878653Y-84776243D01*
X99878656Y-84776246D01*
X99993865Y-84862492D01*
X99993872Y-84862496D01*
X100128718Y-84912790D01*
X100128717Y-84912790D01*
X100135645Y-84913534D01*
X100188328Y-84919199D01*
X102671673Y-84919198D01*
X102731284Y-84912790D01*
X102866132Y-84862495D01*
X102981347Y-84776245D01*
X103067597Y-84661030D01*
X103117892Y-84526182D01*
X103124301Y-84466572D01*
X103124300Y-81170434D01*
X112475701Y-81170434D01*
X112475701Y-84466569D01*
X112475702Y-84466575D01*
X112482109Y-84526182D01*
X112532403Y-84661027D01*
X112532407Y-84661034D01*
X112618653Y-84776243D01*
X112618656Y-84776246D01*
X112733865Y-84862492D01*
X112733872Y-84862496D01*
X112868718Y-84912790D01*
X112868717Y-84912790D01*
X112875645Y-84913534D01*
X112928328Y-84919199D01*
X115411673Y-84919198D01*
X115471284Y-84912790D01*
X115606132Y-84862495D01*
X115721347Y-84776245D01*
X115807597Y-84661030D01*
X115857892Y-84526182D01*
X115864301Y-84466572D01*
X115864300Y-81170434D01*
X126735701Y-81170434D01*
X126735701Y-84466569D01*
X126735702Y-84466575D01*
X126742109Y-84526182D01*
X126792403Y-84661027D01*
X126792407Y-84661034D01*
X126878653Y-84776243D01*
X126878656Y-84776246D01*
X126993865Y-84862492D01*
X126993872Y-84862496D01*
X127128718Y-84912790D01*
X127128717Y-84912790D01*
X127135645Y-84913534D01*
X127188328Y-84919199D01*
X129671673Y-84919198D01*
X129731284Y-84912790D01*
X129866132Y-84862495D01*
X129981347Y-84776245D01*
X130067597Y-84661030D01*
X130117892Y-84526182D01*
X130124301Y-84466572D01*
X130124300Y-81170434D01*
X139475701Y-81170434D01*
X139475701Y-84466569D01*
X139475702Y-84466575D01*
X139482109Y-84526182D01*
X139532403Y-84661027D01*
X139532407Y-84661034D01*
X139618653Y-84776243D01*
X139618656Y-84776246D01*
X139733865Y-84862492D01*
X139733872Y-84862496D01*
X139868718Y-84912790D01*
X139868717Y-84912790D01*
X139875645Y-84913534D01*
X139928328Y-84919199D01*
X142411673Y-84919198D01*
X142471284Y-84912790D01*
X142606132Y-84862495D01*
X142721347Y-84776245D01*
X142807597Y-84661030D01*
X142857892Y-84526182D01*
X142864301Y-84466572D01*
X142864300Y-81170434D01*
X153735701Y-81170434D01*
X153735701Y-84466569D01*
X153735702Y-84466575D01*
X153742109Y-84526182D01*
X153792403Y-84661027D01*
X153792407Y-84661034D01*
X153878653Y-84776243D01*
X153878656Y-84776246D01*
X153993865Y-84862492D01*
X153993872Y-84862496D01*
X154128718Y-84912790D01*
X154128717Y-84912790D01*
X154135645Y-84913534D01*
X154188328Y-84919199D01*
X156671673Y-84919198D01*
X156731284Y-84912790D01*
X156866132Y-84862495D01*
X156981347Y-84776245D01*
X157067597Y-84661030D01*
X157117892Y-84526182D01*
X157124301Y-84466572D01*
X157124300Y-81170434D01*
X166475701Y-81170434D01*
X166475701Y-84466569D01*
X166475702Y-84466575D01*
X166482109Y-84526182D01*
X166532403Y-84661027D01*
X166532407Y-84661034D01*
X166618653Y-84776243D01*
X166618656Y-84776246D01*
X166733865Y-84862492D01*
X166733872Y-84862496D01*
X166868718Y-84912790D01*
X166868717Y-84912790D01*
X166875645Y-84913534D01*
X166928328Y-84919199D01*
X169411673Y-84919198D01*
X169471284Y-84912790D01*
X169606132Y-84862495D01*
X169721347Y-84776245D01*
X169807597Y-84661030D01*
X169857892Y-84526182D01*
X169864301Y-84466572D01*
X169864300Y-81170434D01*
X180735701Y-81170434D01*
X180735701Y-84466569D01*
X180735702Y-84466575D01*
X180742109Y-84526182D01*
X180792403Y-84661027D01*
X180792407Y-84661034D01*
X180878653Y-84776243D01*
X180878656Y-84776246D01*
X180993865Y-84862492D01*
X180993872Y-84862496D01*
X181128718Y-84912790D01*
X181128717Y-84912790D01*
X181135645Y-84913534D01*
X181188328Y-84919199D01*
X183671673Y-84919198D01*
X183731284Y-84912790D01*
X183866132Y-84862495D01*
X183981347Y-84776245D01*
X184067597Y-84661030D01*
X184117892Y-84526182D01*
X184124301Y-84466572D01*
X184124300Y-81170434D01*
X193475701Y-81170434D01*
X193475701Y-84466569D01*
X193475702Y-84466575D01*
X193482109Y-84526182D01*
X193532403Y-84661027D01*
X193532407Y-84661034D01*
X193618653Y-84776243D01*
X193618656Y-84776246D01*
X193733865Y-84862492D01*
X193733872Y-84862496D01*
X193868718Y-84912790D01*
X193868717Y-84912790D01*
X193875645Y-84913534D01*
X193928328Y-84919199D01*
X196411673Y-84919198D01*
X196471284Y-84912790D01*
X196606132Y-84862495D01*
X196721347Y-84776245D01*
X196807597Y-84661030D01*
X196857892Y-84526182D01*
X196864301Y-84466572D01*
X196864300Y-81170427D01*
X196857892Y-81110816D01*
X196816563Y-81000008D01*
X196807598Y-80975970D01*
X196807594Y-80975963D01*
X196721348Y-80860754D01*
X196721345Y-80860751D01*
X196606136Y-80774505D01*
X196606129Y-80774501D01*
X196471283Y-80724207D01*
X196471284Y-80724207D01*
X196411684Y-80717800D01*
X196411682Y-80717799D01*
X196411674Y-80717799D01*
X196411665Y-80717799D01*
X193928330Y-80717799D01*
X193928324Y-80717800D01*
X193868717Y-80724207D01*
X193733872Y-80774501D01*
X193733865Y-80774505D01*
X193618656Y-80860751D01*
X193618653Y-80860754D01*
X193532407Y-80975963D01*
X193532403Y-80975970D01*
X193482109Y-81110816D01*
X193475702Y-81170415D01*
X193475702Y-81170422D01*
X193475701Y-81170434D01*
X184124300Y-81170434D01*
X184124300Y-81170427D01*
X184117892Y-81110816D01*
X184076563Y-81000008D01*
X184067598Y-80975970D01*
X184067594Y-80975963D01*
X183981348Y-80860754D01*
X183981345Y-80860751D01*
X183866136Y-80774505D01*
X183866129Y-80774501D01*
X183731283Y-80724207D01*
X183731284Y-80724207D01*
X183671684Y-80717800D01*
X183671682Y-80717799D01*
X183671674Y-80717799D01*
X183671665Y-80717799D01*
X181188330Y-80717799D01*
X181188324Y-80717800D01*
X181128717Y-80724207D01*
X180993872Y-80774501D01*
X180993865Y-80774505D01*
X180878656Y-80860751D01*
X180878653Y-80860754D01*
X180792407Y-80975963D01*
X180792403Y-80975970D01*
X180742109Y-81110816D01*
X180735702Y-81170415D01*
X180735702Y-81170422D01*
X180735701Y-81170434D01*
X169864300Y-81170434D01*
X169864300Y-81170427D01*
X169857892Y-81110816D01*
X169816563Y-81000008D01*
X169807598Y-80975970D01*
X169807594Y-80975963D01*
X169721348Y-80860754D01*
X169721345Y-80860751D01*
X169606136Y-80774505D01*
X169606129Y-80774501D01*
X169471283Y-80724207D01*
X169471284Y-80724207D01*
X169411684Y-80717800D01*
X169411682Y-80717799D01*
X169411674Y-80717799D01*
X169411665Y-80717799D01*
X166928330Y-80717799D01*
X166928324Y-80717800D01*
X166868717Y-80724207D01*
X166733872Y-80774501D01*
X166733865Y-80774505D01*
X166618656Y-80860751D01*
X166618653Y-80860754D01*
X166532407Y-80975963D01*
X166532403Y-80975970D01*
X166482109Y-81110816D01*
X166475702Y-81170415D01*
X166475702Y-81170422D01*
X166475701Y-81170434D01*
X157124300Y-81170434D01*
X157124300Y-81170427D01*
X157117892Y-81110816D01*
X157076563Y-81000008D01*
X157067598Y-80975970D01*
X157067594Y-80975963D01*
X156981348Y-80860754D01*
X156981345Y-80860751D01*
X156866136Y-80774505D01*
X156866129Y-80774501D01*
X156731283Y-80724207D01*
X156731284Y-80724207D01*
X156671684Y-80717800D01*
X156671682Y-80717799D01*
X156671674Y-80717799D01*
X156671665Y-80717799D01*
X154188330Y-80717799D01*
X154188324Y-80717800D01*
X154128717Y-80724207D01*
X153993872Y-80774501D01*
X153993865Y-80774505D01*
X153878656Y-80860751D01*
X153878653Y-80860754D01*
X153792407Y-80975963D01*
X153792403Y-80975970D01*
X153742109Y-81110816D01*
X153735702Y-81170415D01*
X153735702Y-81170422D01*
X153735701Y-81170434D01*
X142864300Y-81170434D01*
X142864300Y-81170427D01*
X142857892Y-81110816D01*
X142816563Y-81000008D01*
X142807598Y-80975970D01*
X142807594Y-80975963D01*
X142721348Y-80860754D01*
X142721345Y-80860751D01*
X142606136Y-80774505D01*
X142606129Y-80774501D01*
X142471283Y-80724207D01*
X142471284Y-80724207D01*
X142411684Y-80717800D01*
X142411682Y-80717799D01*
X142411674Y-80717799D01*
X142411665Y-80717799D01*
X139928330Y-80717799D01*
X139928324Y-80717800D01*
X139868717Y-80724207D01*
X139733872Y-80774501D01*
X139733865Y-80774505D01*
X139618656Y-80860751D01*
X139618653Y-80860754D01*
X139532407Y-80975963D01*
X139532403Y-80975970D01*
X139482109Y-81110816D01*
X139475702Y-81170415D01*
X139475702Y-81170422D01*
X139475701Y-81170434D01*
X130124300Y-81170434D01*
X130124300Y-81170427D01*
X130117892Y-81110816D01*
X130076563Y-81000008D01*
X130067598Y-80975970D01*
X130067594Y-80975963D01*
X129981348Y-80860754D01*
X129981345Y-80860751D01*
X129866136Y-80774505D01*
X129866129Y-80774501D01*
X129731283Y-80724207D01*
X129731284Y-80724207D01*
X129671684Y-80717800D01*
X129671682Y-80717799D01*
X129671674Y-80717799D01*
X129671665Y-80717799D01*
X127188330Y-80717799D01*
X127188324Y-80717800D01*
X127128717Y-80724207D01*
X126993872Y-80774501D01*
X126993865Y-80774505D01*
X126878656Y-80860751D01*
X126878653Y-80860754D01*
X126792407Y-80975963D01*
X126792403Y-80975970D01*
X126742109Y-81110816D01*
X126735702Y-81170415D01*
X126735702Y-81170422D01*
X126735701Y-81170434D01*
X115864300Y-81170434D01*
X115864300Y-81170427D01*
X115857892Y-81110816D01*
X115816563Y-81000008D01*
X115807598Y-80975970D01*
X115807594Y-80975963D01*
X115721348Y-80860754D01*
X115721345Y-80860751D01*
X115606136Y-80774505D01*
X115606129Y-80774501D01*
X115471283Y-80724207D01*
X115471284Y-80724207D01*
X115411684Y-80717800D01*
X115411682Y-80717799D01*
X115411674Y-80717799D01*
X115411665Y-80717799D01*
X112928330Y-80717799D01*
X112928324Y-80717800D01*
X112868717Y-80724207D01*
X112733872Y-80774501D01*
X112733865Y-80774505D01*
X112618656Y-80860751D01*
X112618653Y-80860754D01*
X112532407Y-80975963D01*
X112532403Y-80975970D01*
X112482109Y-81110816D01*
X112475702Y-81170415D01*
X112475702Y-81170422D01*
X112475701Y-81170434D01*
X103124300Y-81170434D01*
X103124300Y-81170427D01*
X103117892Y-81110816D01*
X103076563Y-81000008D01*
X103067598Y-80975970D01*
X103067594Y-80975963D01*
X102981348Y-80860754D01*
X102981345Y-80860751D01*
X102866136Y-80774505D01*
X102866129Y-80774501D01*
X102731283Y-80724207D01*
X102731284Y-80724207D01*
X102671684Y-80717800D01*
X102671682Y-80717799D01*
X102671674Y-80717799D01*
X102671665Y-80717799D01*
X100188330Y-80717799D01*
X100188324Y-80717800D01*
X100128717Y-80724207D01*
X99993872Y-80774501D01*
X99993865Y-80774505D01*
X99878656Y-80860751D01*
X99878653Y-80860754D01*
X99792407Y-80975963D01*
X99792403Y-80975970D01*
X99742109Y-81110816D01*
X99735702Y-81170415D01*
X99735702Y-81170422D01*
X99735701Y-81170434D01*
X92816882Y-81170434D01*
X91940698Y-80294251D01*
X92042330Y-80220412D01*
X92220412Y-80042330D01*
X92294251Y-79940698D01*
X93503556Y-81150003D01*
X93630964Y-81000008D01*
X93630975Y-80999994D01*
X93831781Y-80703827D01*
X93999393Y-80387677D01*
X93999402Y-80387659D01*
X94131850Y-80055239D01*
X94131852Y-80055232D01*
X94227578Y-79710457D01*
X94227584Y-79710431D01*
X94285472Y-79357331D01*
X94285473Y-79357314D01*
X94304847Y-79000002D01*
X94304847Y-78999997D01*
X199695153Y-78999997D01*
X199695153Y-79000002D01*
X199714526Y-79357314D01*
X199714527Y-79357331D01*
X199772415Y-79710431D01*
X199772421Y-79710457D01*
X199868147Y-80055232D01*
X199868149Y-80055239D01*
X200000597Y-80387659D01*
X200000606Y-80387677D01*
X200168218Y-80703827D01*
X200369033Y-81000007D01*
X200496441Y-81150003D01*
X200496442Y-81150004D01*
X201705748Y-79940698D01*
X201779588Y-80042330D01*
X201957670Y-80220412D01*
X202059300Y-80294251D01*
X200847255Y-81506295D01*
X200847256Y-81506296D01*
X200860485Y-81518828D01*
X200860486Y-81518829D01*
X201145367Y-81735388D01*
X201145370Y-81735390D01*
X201451990Y-81919876D01*
X201776739Y-82070122D01*
X201776744Y-82070123D01*
X202115855Y-82184383D01*
X202465339Y-82261311D01*
X202821075Y-82299999D01*
X202821085Y-82300000D01*
X203178915Y-82300000D01*
X203178924Y-82299999D01*
X203534660Y-82261311D01*
X203884144Y-82184383D01*
X204223255Y-82070123D01*
X204223260Y-82070122D01*
X204548009Y-81919876D01*
X204854629Y-81735390D01*
X204854632Y-81735388D01*
X205139504Y-81518836D01*
X205152742Y-81506294D01*
X203940698Y-80294251D01*
X204042330Y-80220412D01*
X204220412Y-80042330D01*
X204294251Y-79940698D01*
X205503556Y-81150003D01*
X205630964Y-81000008D01*
X205630975Y-80999994D01*
X205831781Y-80703827D01*
X205999393Y-80387677D01*
X205999402Y-80387659D01*
X206131850Y-80055239D01*
X206131852Y-80055232D01*
X206227578Y-79710457D01*
X206227584Y-79710431D01*
X206285472Y-79357331D01*
X206285473Y-79357314D01*
X206304847Y-79000002D01*
X206304847Y-78999997D01*
X206285473Y-78642685D01*
X206285472Y-78642668D01*
X206227584Y-78289568D01*
X206227578Y-78289542D01*
X206131852Y-77944767D01*
X206131850Y-77944760D01*
X205999402Y-77612340D01*
X205999393Y-77612322D01*
X205831781Y-77296172D01*
X205630966Y-76999992D01*
X205503557Y-76849995D01*
X205503556Y-76849994D01*
X204294250Y-78059300D01*
X204220412Y-77957670D01*
X204042330Y-77779588D01*
X203940697Y-77705747D01*
X205152743Y-76493703D01*
X205152742Y-76493702D01*
X205139514Y-76481171D01*
X205139513Y-76481170D01*
X204854632Y-76264611D01*
X204854629Y-76264609D01*
X204548009Y-76080123D01*
X204223260Y-75929877D01*
X204223255Y-75929876D01*
X203884144Y-75815616D01*
X203534660Y-75738688D01*
X203178924Y-75700000D01*
X202821075Y-75700000D01*
X202465339Y-75738688D01*
X202115855Y-75815616D01*
X201776744Y-75929876D01*
X201776739Y-75929877D01*
X201451990Y-76080123D01*
X201145370Y-76264609D01*
X201145367Y-76264611D01*
X200860491Y-76481166D01*
X200847256Y-76493703D01*
X200847255Y-76493703D01*
X202059301Y-77705748D01*
X201957670Y-77779588D01*
X201779588Y-77957670D01*
X201705748Y-78059301D01*
X200496442Y-76849994D01*
X200496441Y-76849995D01*
X200369040Y-76999983D01*
X200369033Y-76999993D01*
X200168218Y-77296172D01*
X200000606Y-77612322D01*
X200000597Y-77612340D01*
X199868149Y-77944760D01*
X199868147Y-77944767D01*
X199772421Y-78289542D01*
X199772415Y-78289568D01*
X199714527Y-78642668D01*
X199714526Y-78642685D01*
X199695153Y-78999997D01*
X94304847Y-78999997D01*
X94285473Y-78642685D01*
X94285472Y-78642668D01*
X94227584Y-78289568D01*
X94227578Y-78289542D01*
X94131852Y-77944767D01*
X94131850Y-77944760D01*
X93999402Y-77612340D01*
X93999393Y-77612322D01*
X93831781Y-77296172D01*
X93630966Y-76999992D01*
X93503557Y-76849995D01*
X93503556Y-76849994D01*
X92294250Y-78059300D01*
X92220412Y-77957670D01*
X92042330Y-77779588D01*
X91940697Y-77705747D01*
X93152743Y-76493703D01*
X93152742Y-76493702D01*
X93139514Y-76481171D01*
X93139513Y-76481170D01*
X92854632Y-76264611D01*
X92854629Y-76264609D01*
X92548009Y-76080123D01*
X92223260Y-75929877D01*
X92223255Y-75929876D01*
X91884144Y-75815616D01*
X91534660Y-75738688D01*
X91178924Y-75700000D01*
X90821075Y-75700000D01*
X90465339Y-75738688D01*
X90115855Y-75815616D01*
X89776744Y-75929876D01*
X89776739Y-75929877D01*
X89451990Y-76080123D01*
X89145370Y-76264609D01*
X89145367Y-76264611D01*
X88860491Y-76481166D01*
X88847256Y-76493703D01*
X88847255Y-76493703D01*
X90059301Y-77705748D01*
X89957670Y-77779588D01*
X89779588Y-77957670D01*
X89705748Y-78059301D01*
X88496442Y-76849994D01*
X88496441Y-76849995D01*
X88369040Y-76999983D01*
X88369033Y-76999993D01*
X88168218Y-77296172D01*
X88000606Y-77612322D01*
X88000597Y-77612340D01*
X87868149Y-77944760D01*
X87868147Y-77944767D01*
X87772421Y-78289542D01*
X87772415Y-78289568D01*
X87714527Y-78642668D01*
X87714526Y-78642685D01*
X87695153Y-78999997D01*
X86500559Y-78999997D01*
X86500618Y-78997281D01*
X86505997Y-78874077D01*
X86517386Y-78613227D01*
X86518326Y-78602495D01*
X86568152Y-78224025D01*
X86570025Y-78213405D01*
X86652649Y-77840709D01*
X86655440Y-77830295D01*
X86770230Y-77466227D01*
X86773917Y-77456095D01*
X86920003Y-77103412D01*
X86924561Y-77093638D01*
X87100822Y-76755045D01*
X87106217Y-76745700D01*
X87311325Y-76423744D01*
X87317515Y-76414905D01*
X87549896Y-76112060D01*
X87556834Y-76103791D01*
X87814726Y-75822352D01*
X87822352Y-75814726D01*
X88103791Y-75556834D01*
X88112060Y-75549896D01*
X88414905Y-75317515D01*
X88423744Y-75311325D01*
X88745700Y-75106217D01*
X88755045Y-75100822D01*
X89093638Y-74924561D01*
X89103412Y-74920003D01*
X89456095Y-74773917D01*
X89466227Y-74770230D01*
X89830295Y-74655440D01*
X89840709Y-74652649D01*
X90213405Y-74570025D01*
X90224025Y-74568152D01*
X90602495Y-74518326D01*
X90613227Y-74517386D01*
X90997226Y-74500620D01*
X91002752Y-74500503D01*
X202989841Y-74635942D01*
G37*
%TD.AperFunction*%
%TD*%
M02*
