%TF.GenerationSoftware,KiCad,Pcbnew,8.0.7*%
%TF.CreationDate,2025-02-18T10:18:35-06:00*%
%TF.ProjectId,RickNAS_4PortSATA,5269636b-4e41-4535-9f34-506f72745341,rev?*%
%TF.SameCoordinates,Original*%
%TF.FileFunction,Legend,Top*%
%TF.FilePolarity,Positive*%
%FSLAX46Y46*%
G04 Gerber Fmt 4.6, Leading zero omitted, Abs format (unit mm)*
G04 Created by KiCad (PCBNEW 8.0.7) date 2025-02-18 10:18:35*
%MOMM*%
%LPD*%
G01*
G04 APERTURE LIST*
%ADD10C,0.150000*%
%ADD11C,0.000000*%
%ADD12C,0.152400*%
%ADD13C,0.508000*%
G04 APERTURE END LIST*
D10*
X174145180Y-85138095D02*
X173335657Y-85138095D01*
X173335657Y-85138095D02*
X173240419Y-85185714D01*
X173240419Y-85185714D02*
X173192800Y-85233333D01*
X173192800Y-85233333D02*
X173145180Y-85328571D01*
X173145180Y-85328571D02*
X173145180Y-85519047D01*
X173145180Y-85519047D02*
X173192800Y-85614285D01*
X173192800Y-85614285D02*
X173240419Y-85661904D01*
X173240419Y-85661904D02*
X173335657Y-85709523D01*
X173335657Y-85709523D02*
X174145180Y-85709523D01*
X173716609Y-86328571D02*
X173764228Y-86233333D01*
X173764228Y-86233333D02*
X173811847Y-86185714D01*
X173811847Y-86185714D02*
X173907085Y-86138095D01*
X173907085Y-86138095D02*
X173954704Y-86138095D01*
X173954704Y-86138095D02*
X174049942Y-86185714D01*
X174049942Y-86185714D02*
X174097561Y-86233333D01*
X174097561Y-86233333D02*
X174145180Y-86328571D01*
X174145180Y-86328571D02*
X174145180Y-86519047D01*
X174145180Y-86519047D02*
X174097561Y-86614285D01*
X174097561Y-86614285D02*
X174049942Y-86661904D01*
X174049942Y-86661904D02*
X173954704Y-86709523D01*
X173954704Y-86709523D02*
X173907085Y-86709523D01*
X173907085Y-86709523D02*
X173811847Y-86661904D01*
X173811847Y-86661904D02*
X173764228Y-86614285D01*
X173764228Y-86614285D02*
X173716609Y-86519047D01*
X173716609Y-86519047D02*
X173716609Y-86328571D01*
X173716609Y-86328571D02*
X173668990Y-86233333D01*
X173668990Y-86233333D02*
X173621371Y-86185714D01*
X173621371Y-86185714D02*
X173526133Y-86138095D01*
X173526133Y-86138095D02*
X173335657Y-86138095D01*
X173335657Y-86138095D02*
X173240419Y-86185714D01*
X173240419Y-86185714D02*
X173192800Y-86233333D01*
X173192800Y-86233333D02*
X173145180Y-86328571D01*
X173145180Y-86328571D02*
X173145180Y-86519047D01*
X173145180Y-86519047D02*
X173192800Y-86614285D01*
X173192800Y-86614285D02*
X173240419Y-86661904D01*
X173240419Y-86661904D02*
X173335657Y-86709523D01*
X173335657Y-86709523D02*
X173526133Y-86709523D01*
X173526133Y-86709523D02*
X173621371Y-86661904D01*
X173621371Y-86661904D02*
X173668990Y-86614285D01*
X173668990Y-86614285D02*
X173716609Y-86519047D01*
X190061904Y-85723679D02*
X190061904Y-84914156D01*
X190061904Y-84914156D02*
X190014285Y-84818918D01*
X190014285Y-84818918D02*
X189966666Y-84771299D01*
X189966666Y-84771299D02*
X189871428Y-84723679D01*
X189871428Y-84723679D02*
X189680952Y-84723679D01*
X189680952Y-84723679D02*
X189585714Y-84771299D01*
X189585714Y-84771299D02*
X189538095Y-84818918D01*
X189538095Y-84818918D02*
X189490476Y-84914156D01*
X189490476Y-84914156D02*
X189490476Y-85723679D01*
X188966666Y-84723679D02*
X188776190Y-84723679D01*
X188776190Y-84723679D02*
X188680952Y-84771299D01*
X188680952Y-84771299D02*
X188633333Y-84818918D01*
X188633333Y-84818918D02*
X188538095Y-84961775D01*
X188538095Y-84961775D02*
X188490476Y-85152251D01*
X188490476Y-85152251D02*
X188490476Y-85533203D01*
X188490476Y-85533203D02*
X188538095Y-85628441D01*
X188538095Y-85628441D02*
X188585714Y-85676060D01*
X188585714Y-85676060D02*
X188680952Y-85723679D01*
X188680952Y-85723679D02*
X188871428Y-85723679D01*
X188871428Y-85723679D02*
X188966666Y-85676060D01*
X188966666Y-85676060D02*
X189014285Y-85628441D01*
X189014285Y-85628441D02*
X189061904Y-85533203D01*
X189061904Y-85533203D02*
X189061904Y-85295108D01*
X189061904Y-85295108D02*
X189014285Y-85199870D01*
X189014285Y-85199870D02*
X188966666Y-85152251D01*
X188966666Y-85152251D02*
X188871428Y-85104632D01*
X188871428Y-85104632D02*
X188680952Y-85104632D01*
X188680952Y-85104632D02*
X188585714Y-85152251D01*
X188585714Y-85152251D02*
X188538095Y-85199870D01*
X188538095Y-85199870D02*
X188490476Y-85295108D01*
X163061904Y-85723679D02*
X163061904Y-84914156D01*
X163061904Y-84914156D02*
X163014285Y-84818918D01*
X163014285Y-84818918D02*
X162966666Y-84771299D01*
X162966666Y-84771299D02*
X162871428Y-84723679D01*
X162871428Y-84723679D02*
X162680952Y-84723679D01*
X162680952Y-84723679D02*
X162585714Y-84771299D01*
X162585714Y-84771299D02*
X162538095Y-84818918D01*
X162538095Y-84818918D02*
X162490476Y-84914156D01*
X162490476Y-84914156D02*
X162490476Y-85723679D01*
X161538095Y-85723679D02*
X162014285Y-85723679D01*
X162014285Y-85723679D02*
X162061904Y-85247489D01*
X162061904Y-85247489D02*
X162014285Y-85295108D01*
X162014285Y-85295108D02*
X161919047Y-85342727D01*
X161919047Y-85342727D02*
X161680952Y-85342727D01*
X161680952Y-85342727D02*
X161585714Y-85295108D01*
X161585714Y-85295108D02*
X161538095Y-85247489D01*
X161538095Y-85247489D02*
X161490476Y-85152251D01*
X161490476Y-85152251D02*
X161490476Y-84914156D01*
X161490476Y-84914156D02*
X161538095Y-84818918D01*
X161538095Y-84818918D02*
X161585714Y-84771299D01*
X161585714Y-84771299D02*
X161680952Y-84723679D01*
X161680952Y-84723679D02*
X161919047Y-84723679D01*
X161919047Y-84723679D02*
X162014285Y-84771299D01*
X162014285Y-84771299D02*
X162061904Y-84818918D01*
X147145180Y-85138095D02*
X146335657Y-85138095D01*
X146335657Y-85138095D02*
X146240419Y-85185714D01*
X146240419Y-85185714D02*
X146192800Y-85233333D01*
X146192800Y-85233333D02*
X146145180Y-85328571D01*
X146145180Y-85328571D02*
X146145180Y-85519047D01*
X146145180Y-85519047D02*
X146192800Y-85614285D01*
X146192800Y-85614285D02*
X146240419Y-85661904D01*
X146240419Y-85661904D02*
X146335657Y-85709523D01*
X146335657Y-85709523D02*
X147145180Y-85709523D01*
X146811847Y-86614285D02*
X146145180Y-86614285D01*
X147192800Y-86376190D02*
X146478514Y-86138095D01*
X146478514Y-86138095D02*
X146478514Y-86757142D01*
X136061904Y-85723679D02*
X136061904Y-84914156D01*
X136061904Y-84914156D02*
X136014285Y-84818918D01*
X136014285Y-84818918D02*
X135966666Y-84771299D01*
X135966666Y-84771299D02*
X135871428Y-84723679D01*
X135871428Y-84723679D02*
X135680952Y-84723679D01*
X135680952Y-84723679D02*
X135585714Y-84771299D01*
X135585714Y-84771299D02*
X135538095Y-84818918D01*
X135538095Y-84818918D02*
X135490476Y-84914156D01*
X135490476Y-84914156D02*
X135490476Y-85723679D01*
X135109523Y-85723679D02*
X134442857Y-85723679D01*
X134442857Y-85723679D02*
X134871428Y-84723679D01*
X120145180Y-85138095D02*
X119335657Y-85138095D01*
X119335657Y-85138095D02*
X119240419Y-85185714D01*
X119240419Y-85185714D02*
X119192800Y-85233333D01*
X119192800Y-85233333D02*
X119145180Y-85328571D01*
X119145180Y-85328571D02*
X119145180Y-85519047D01*
X119145180Y-85519047D02*
X119192800Y-85614285D01*
X119192800Y-85614285D02*
X119240419Y-85661904D01*
X119240419Y-85661904D02*
X119335657Y-85709523D01*
X119335657Y-85709523D02*
X120145180Y-85709523D01*
X120145180Y-86614285D02*
X120145180Y-86423809D01*
X120145180Y-86423809D02*
X120097561Y-86328571D01*
X120097561Y-86328571D02*
X120049942Y-86280952D01*
X120049942Y-86280952D02*
X119907085Y-86185714D01*
X119907085Y-86185714D02*
X119716609Y-86138095D01*
X119716609Y-86138095D02*
X119335657Y-86138095D01*
X119335657Y-86138095D02*
X119240419Y-86185714D01*
X119240419Y-86185714D02*
X119192800Y-86233333D01*
X119192800Y-86233333D02*
X119145180Y-86328571D01*
X119145180Y-86328571D02*
X119145180Y-86519047D01*
X119145180Y-86519047D02*
X119192800Y-86614285D01*
X119192800Y-86614285D02*
X119240419Y-86661904D01*
X119240419Y-86661904D02*
X119335657Y-86709523D01*
X119335657Y-86709523D02*
X119573752Y-86709523D01*
X119573752Y-86709523D02*
X119668990Y-86661904D01*
X119668990Y-86661904D02*
X119716609Y-86614285D01*
X119716609Y-86614285D02*
X119764228Y-86519047D01*
X119764228Y-86519047D02*
X119764228Y-86328571D01*
X119764228Y-86328571D02*
X119716609Y-86233333D01*
X119716609Y-86233333D02*
X119668990Y-86185714D01*
X119668990Y-86185714D02*
X119573752Y-86138095D01*
X93145180Y-85138095D02*
X92335657Y-85138095D01*
X92335657Y-85138095D02*
X92240419Y-85185714D01*
X92240419Y-85185714D02*
X92192800Y-85233333D01*
X92192800Y-85233333D02*
X92145180Y-85328571D01*
X92145180Y-85328571D02*
X92145180Y-85519047D01*
X92145180Y-85519047D02*
X92192800Y-85614285D01*
X92192800Y-85614285D02*
X92240419Y-85661904D01*
X92240419Y-85661904D02*
X92335657Y-85709523D01*
X92335657Y-85709523D02*
X93145180Y-85709523D01*
X92145180Y-86709523D02*
X92145180Y-86138095D01*
X92145180Y-86423809D02*
X93145180Y-86423809D01*
X93145180Y-86423809D02*
X93002323Y-86328571D01*
X93002323Y-86328571D02*
X92907085Y-86233333D01*
X92907085Y-86233333D02*
X92859466Y-86138095D01*
X161741905Y-130954819D02*
X161741905Y-131764342D01*
X161741905Y-131764342D02*
X161789524Y-131859580D01*
X161789524Y-131859580D02*
X161837143Y-131907200D01*
X161837143Y-131907200D02*
X161932381Y-131954819D01*
X161932381Y-131954819D02*
X162122857Y-131954819D01*
X162122857Y-131954819D02*
X162218095Y-131907200D01*
X162218095Y-131907200D02*
X162265714Y-131859580D01*
X162265714Y-131859580D02*
X162313333Y-131764342D01*
X162313333Y-131764342D02*
X162313333Y-130954819D01*
X163313333Y-131954819D02*
X162741905Y-131954819D01*
X163027619Y-131954819D02*
X163027619Y-130954819D01*
X163027619Y-130954819D02*
X162932381Y-131097676D01*
X162932381Y-131097676D02*
X162837143Y-131192914D01*
X162837143Y-131192914D02*
X162741905Y-131240533D01*
X163932381Y-130954819D02*
X164027619Y-130954819D01*
X164027619Y-130954819D02*
X164122857Y-131002438D01*
X164122857Y-131002438D02*
X164170476Y-131050057D01*
X164170476Y-131050057D02*
X164218095Y-131145295D01*
X164218095Y-131145295D02*
X164265714Y-131335771D01*
X164265714Y-131335771D02*
X164265714Y-131573866D01*
X164265714Y-131573866D02*
X164218095Y-131764342D01*
X164218095Y-131764342D02*
X164170476Y-131859580D01*
X164170476Y-131859580D02*
X164122857Y-131907200D01*
X164122857Y-131907200D02*
X164027619Y-131954819D01*
X164027619Y-131954819D02*
X163932381Y-131954819D01*
X163932381Y-131954819D02*
X163837143Y-131907200D01*
X163837143Y-131907200D02*
X163789524Y-131859580D01*
X163789524Y-131859580D02*
X163741905Y-131764342D01*
X163741905Y-131764342D02*
X163694286Y-131573866D01*
X163694286Y-131573866D02*
X163694286Y-131335771D01*
X163694286Y-131335771D02*
X163741905Y-131145295D01*
X163741905Y-131145295D02*
X163789524Y-131050057D01*
X163789524Y-131050057D02*
X163837143Y-131002438D01*
X163837143Y-131002438D02*
X163932381Y-130954819D01*
X109061904Y-85723679D02*
X109061904Y-84914156D01*
X109061904Y-84914156D02*
X109014285Y-84818918D01*
X109014285Y-84818918D02*
X108966666Y-84771299D01*
X108966666Y-84771299D02*
X108871428Y-84723679D01*
X108871428Y-84723679D02*
X108680952Y-84723679D01*
X108680952Y-84723679D02*
X108585714Y-84771299D01*
X108585714Y-84771299D02*
X108538095Y-84818918D01*
X108538095Y-84818918D02*
X108490476Y-84914156D01*
X108490476Y-84914156D02*
X108490476Y-85723679D01*
X108061904Y-85628441D02*
X108014285Y-85676060D01*
X108014285Y-85676060D02*
X107919047Y-85723679D01*
X107919047Y-85723679D02*
X107680952Y-85723679D01*
X107680952Y-85723679D02*
X107585714Y-85676060D01*
X107585714Y-85676060D02*
X107538095Y-85628441D01*
X107538095Y-85628441D02*
X107490476Y-85533203D01*
X107490476Y-85533203D02*
X107490476Y-85437965D01*
X107490476Y-85437965D02*
X107538095Y-85295108D01*
X107538095Y-85295108D02*
X108109523Y-84723679D01*
X108109523Y-84723679D02*
X107490476Y-84723679D01*
D11*
%TO.C,kibuzzard-67B4AC4E*%
G36*
X205611416Y-100341949D02*
G01*
X205611416Y-101899300D01*
X205611416Y-103169090D01*
X205611416Y-105398492D01*
X205611416Y-107136780D01*
X205611416Y-108400108D01*
X205611416Y-110035003D01*
X205611416Y-111737749D01*
X205611416Y-113224017D01*
X205611416Y-115698977D01*
X205611416Y-118322563D01*
X205611416Y-119815293D01*
X205611416Y-121301562D01*
X205611416Y-122939688D01*
X205611416Y-124516424D01*
X205611416Y-126170705D01*
X205611416Y-127401723D01*
X205611416Y-129640819D01*
X205611416Y-130316101D01*
X205611416Y-130989230D01*
X205604620Y-131127573D01*
X205584296Y-131264584D01*
X205550641Y-131398942D01*
X205503979Y-131529356D01*
X205444758Y-131654567D01*
X205373550Y-131773371D01*
X205291040Y-131884623D01*
X205198022Y-131987252D01*
X205095393Y-132080269D01*
X204984141Y-132162780D01*
X204865337Y-132233988D01*
X204740126Y-132293209D01*
X204609713Y-132339871D01*
X204475354Y-132373526D01*
X204338343Y-132393850D01*
X204200000Y-132400646D01*
X204061657Y-132393850D01*
X203924646Y-132373526D01*
X203790287Y-132339871D01*
X203659874Y-132293209D01*
X203534663Y-132233988D01*
X203415859Y-132162780D01*
X203304607Y-132080269D01*
X203201978Y-131987252D01*
X203108960Y-131884623D01*
X203026450Y-131773371D01*
X202955242Y-131654567D01*
X202896021Y-131529356D01*
X202849359Y-131398942D01*
X202815704Y-131264584D01*
X202795380Y-131127573D01*
X202788584Y-130989230D01*
X202788584Y-130316101D01*
X202788584Y-128952612D01*
X203300162Y-128952612D01*
X203300162Y-129350027D01*
X204547334Y-129350027D01*
X204758966Y-129362951D01*
X204897900Y-129408185D01*
X204973829Y-129495423D01*
X204996446Y-129634356D01*
X204973829Y-129773290D01*
X204899515Y-129858912D01*
X204762197Y-129902531D01*
X204550565Y-129915455D01*
X203300162Y-129915455D01*
X203300162Y-130316101D01*
X204576414Y-130316101D01*
X204742811Y-130308024D01*
X204893053Y-130283791D01*
X205024717Y-130240172D01*
X205135380Y-130173936D01*
X205288853Y-129965536D01*
X205328837Y-129818928D01*
X205342165Y-129640819D01*
X205328837Y-129459882D01*
X205288853Y-129311255D01*
X205223829Y-129191707D01*
X205135380Y-129098008D01*
X205024717Y-129029348D01*
X204893053Y-128984922D01*
X204742811Y-128960689D01*
X204576414Y-128952612D01*
X203300162Y-128952612D01*
X202788584Y-128952612D01*
X202788584Y-128018848D01*
X203749273Y-128018848D01*
X203755735Y-128196150D01*
X203775121Y-128359720D01*
X203801777Y-128503904D01*
X203830048Y-128623048D01*
X205300162Y-128623048D01*
X205300162Y-128225633D01*
X204107916Y-128225633D01*
X204098223Y-128133549D01*
X204094992Y-128044696D01*
X204188691Y-127847604D01*
X204312278Y-127811255D01*
X204495638Y-127799138D01*
X205300162Y-127799138D01*
X205300162Y-127401723D01*
X204443942Y-127401723D01*
X204295719Y-127408993D01*
X204161228Y-127430802D01*
X203941519Y-127529348D01*
X203799354Y-127718363D01*
X203761793Y-127853258D01*
X203749273Y-128018848D01*
X202788584Y-128018848D01*
X202788584Y-126351642D01*
X203335703Y-126351642D01*
X203400323Y-126749058D01*
X203781583Y-126749058D01*
X203781583Y-127094777D01*
X204111147Y-127094777D01*
X204111147Y-126749058D01*
X204734733Y-126749058D01*
X204907189Y-126739365D01*
X205043296Y-126710285D01*
X205225848Y-126597200D01*
X205313086Y-126416263D01*
X205335703Y-126170705D01*
X205316317Y-125923533D01*
X205251696Y-125686053D01*
X204909208Y-125740980D01*
X204951212Y-125842757D01*
X204975444Y-125933226D01*
X204986753Y-126023694D01*
X204989984Y-126125471D01*
X204980291Y-126219171D01*
X204941519Y-126290253D01*
X204860743Y-126335487D01*
X204725040Y-126351642D01*
X204111147Y-126351642D01*
X204111147Y-125715132D01*
X203781583Y-125715132D01*
X203781583Y-126351642D01*
X203335703Y-126351642D01*
X202788584Y-126351642D01*
X202788584Y-125479268D01*
X203781583Y-125479268D01*
X204111147Y-125479268D01*
X204111147Y-125059235D01*
X204670113Y-125059235D01*
X204819548Y-125052773D01*
X204951212Y-125033387D01*
X205159612Y-124944534D01*
X205290468Y-124776521D01*
X205324394Y-124658993D01*
X205335703Y-124516424D01*
X205314701Y-124317717D01*
X205235541Y-124086699D01*
X204915670Y-124138395D01*
X204975444Y-124312870D01*
X204989984Y-124445342D01*
X204923748Y-124611739D01*
X204721809Y-124661820D01*
X203781583Y-124661820D01*
X203781583Y-124929995D01*
X203781583Y-125479268D01*
X202788584Y-125479268D01*
X202788584Y-124929995D01*
X203090145Y-124929995D01*
X203157997Y-125106085D01*
X203345396Y-125178783D01*
X203529564Y-125106085D01*
X203597415Y-124929995D01*
X203529564Y-124752289D01*
X203345396Y-124677975D01*
X203157997Y-124752289D01*
X203090145Y-124929995D01*
X202788584Y-124929995D01*
X202788584Y-123120625D01*
X203335703Y-123120625D01*
X203400323Y-123518040D01*
X203781583Y-123518040D01*
X203781583Y-123863759D01*
X204111147Y-123863759D01*
X204111147Y-123518040D01*
X204734733Y-123518040D01*
X204907189Y-123508347D01*
X205043296Y-123479268D01*
X205225848Y-123366182D01*
X205313086Y-123185245D01*
X205335703Y-122939688D01*
X205316317Y-122692515D01*
X205251696Y-122455035D01*
X204909208Y-122509962D01*
X204951212Y-122611739D01*
X204975444Y-122702208D01*
X204986753Y-122792676D01*
X204989984Y-122894453D01*
X204980291Y-122988153D01*
X204941519Y-123059235D01*
X204860743Y-123104470D01*
X204725040Y-123120625D01*
X204111147Y-123120625D01*
X204111147Y-122484114D01*
X203781583Y-122484114D01*
X203781583Y-123120625D01*
X203335703Y-123120625D01*
X202788584Y-123120625D01*
X202788584Y-121430802D01*
X203077221Y-121430802D01*
X203077221Y-122248250D01*
X203406785Y-122248250D01*
X203406785Y-121828218D01*
X204695961Y-121828218D01*
X204971809Y-121796715D01*
X205172536Y-121702208D01*
X205294911Y-121539041D01*
X205335703Y-121301562D01*
X205322779Y-121122240D01*
X205292084Y-120988153D01*
X205258158Y-120899300D01*
X205235541Y-120855681D01*
X204915670Y-120907377D01*
X204957674Y-121014001D01*
X204989984Y-121214324D01*
X204935057Y-121369413D01*
X204725040Y-121430802D01*
X203077221Y-121430802D01*
X202788584Y-121430802D01*
X202788584Y-119931610D01*
X203742811Y-119931610D01*
X203755735Y-120065697D01*
X203794507Y-120196554D01*
X203858724Y-120318525D01*
X203947981Y-120425956D01*
X204062278Y-120516424D01*
X204201616Y-120587507D01*
X204365590Y-120633549D01*
X204553796Y-120648896D01*
X204735541Y-120634356D01*
X204893053Y-120590738D01*
X205026737Y-120520059D01*
X205136995Y-120424340D01*
X205223425Y-120304793D01*
X205285622Y-120162628D01*
X205323183Y-119999058D01*
X205335703Y-119815293D01*
X205311470Y-119553581D01*
X205251696Y-119333872D01*
X204912439Y-119388799D01*
X204964136Y-119571352D01*
X204989984Y-119799138D01*
X204968578Y-119975229D01*
X204904362Y-120115778D01*
X204802989Y-120207862D01*
X204670113Y-120238557D01*
X204670113Y-119253096D01*
X204602262Y-119248250D01*
X204521486Y-119246634D01*
X204287596Y-119266020D01*
X204094274Y-119324179D01*
X203941519Y-119421109D01*
X203831125Y-119555376D01*
X203764890Y-119725543D01*
X203742811Y-119931610D01*
X202788584Y-119931610D01*
X202788584Y-117744211D01*
X203057835Y-117744211D01*
X203125687Y-118141626D01*
X203817124Y-118141626D01*
X203767044Y-118277329D01*
X203749273Y-118435649D01*
X203773147Y-118619637D01*
X203844768Y-118770957D01*
X203964136Y-118889607D01*
X204124789Y-118974870D01*
X204320266Y-119026028D01*
X204550565Y-119043080D01*
X204776737Y-119022797D01*
X204968444Y-118961946D01*
X205125687Y-118860528D01*
X205242362Y-118719619D01*
X205312368Y-118540298D01*
X205335703Y-118322563D01*
X205330048Y-118169090D01*
X205313086Y-118012386D01*
X205287237Y-117866182D01*
X205254927Y-117744211D01*
X203057835Y-117744211D01*
X202788584Y-117744211D01*
X202788584Y-114487345D01*
X203300162Y-114487345D01*
X203300162Y-115698977D01*
X205300162Y-115698977D01*
X205300162Y-114416263D01*
X204970598Y-114416263D01*
X204970598Y-115301562D01*
X204408401Y-115301562D01*
X204408401Y-114593969D01*
X204078837Y-114593969D01*
X204078837Y-115301562D01*
X203629725Y-115301562D01*
X203629725Y-114487345D01*
X203300162Y-114487345D01*
X202788584Y-114487345D01*
X202788584Y-113353258D01*
X203077221Y-113353258D01*
X203077221Y-114170705D01*
X203406785Y-114170705D01*
X203406785Y-113750673D01*
X204695961Y-113750673D01*
X204971809Y-113719171D01*
X205172536Y-113624663D01*
X205294911Y-113461497D01*
X205335703Y-113224017D01*
X205322779Y-113044696D01*
X205292084Y-112910609D01*
X205258158Y-112821756D01*
X205235541Y-112778137D01*
X204915670Y-112829833D01*
X204957674Y-112936457D01*
X204989984Y-113136780D01*
X204935057Y-113291869D01*
X204725040Y-113353258D01*
X203077221Y-113353258D01*
X202788584Y-113353258D01*
X202788584Y-111854066D01*
X203742811Y-111854066D01*
X203755735Y-111988153D01*
X203794507Y-112119009D01*
X203858724Y-112240980D01*
X203947981Y-112348411D01*
X204062278Y-112438880D01*
X204201616Y-112509962D01*
X204365590Y-112556004D01*
X204553796Y-112571352D01*
X204735541Y-112556812D01*
X204893053Y-112513193D01*
X205026737Y-112442515D01*
X205136995Y-112346796D01*
X205223425Y-112227248D01*
X205285622Y-112085083D01*
X205323183Y-111921513D01*
X205335703Y-111737749D01*
X205311470Y-111476037D01*
X205251696Y-111256327D01*
X204912439Y-111311255D01*
X204964136Y-111493807D01*
X204989984Y-111721594D01*
X204968578Y-111897684D01*
X204904362Y-112038234D01*
X204802989Y-112130318D01*
X204670113Y-112161012D01*
X204670113Y-111175552D01*
X204602262Y-111170705D01*
X204521486Y-111169090D01*
X204287596Y-111188476D01*
X204094274Y-111246634D01*
X203941519Y-111343565D01*
X203831125Y-111477832D01*
X203764890Y-111647999D01*
X203742811Y-111854066D01*
X202788584Y-111854066D01*
X202788584Y-110044696D01*
X203742811Y-110044696D01*
X203758562Y-110255116D01*
X203805816Y-110434033D01*
X203880129Y-110583064D01*
X203977060Y-110703823D01*
X204094588Y-110796715D01*
X204230695Y-110862143D01*
X204380937Y-110900915D01*
X204540872Y-110913840D01*
X204703231Y-110901319D01*
X204854281Y-110863759D01*
X204989984Y-110799542D01*
X205106300Y-110707054D01*
X205201616Y-110585487D01*
X205274313Y-110434033D01*
X205320355Y-110251077D01*
X205335703Y-110035003D01*
X205330452Y-109883953D01*
X205314701Y-109753904D01*
X205261389Y-109550350D01*
X204935057Y-109608508D01*
X204977060Y-109794292D01*
X204989984Y-109989768D01*
X204960097Y-110232499D01*
X204870436Y-110392030D01*
X204728271Y-110480479D01*
X204540872Y-110509962D01*
X204359935Y-110484114D01*
X204216155Y-110400108D01*
X204122456Y-110246634D01*
X204088530Y-110009155D01*
X204106300Y-109807216D01*
X204146688Y-109663436D01*
X203826817Y-109576198D01*
X203762197Y-109799138D01*
X203742811Y-110044696D01*
X202788584Y-110044696D01*
X202788584Y-108581045D01*
X203335703Y-108581045D01*
X203400323Y-108978460D01*
X203781583Y-108978460D01*
X203781583Y-109324179D01*
X204111147Y-109324179D01*
X204111147Y-108978460D01*
X204734733Y-108978460D01*
X204907189Y-108968767D01*
X205043296Y-108939688D01*
X205225848Y-108826602D01*
X205313086Y-108645665D01*
X205335703Y-108400108D01*
X205316317Y-108152935D01*
X205251696Y-107915455D01*
X204909208Y-107970382D01*
X204951212Y-108072159D01*
X204975444Y-108162628D01*
X204986753Y-108253096D01*
X204989984Y-108354873D01*
X204980291Y-108448573D01*
X204941519Y-108519655D01*
X204860743Y-108564890D01*
X204725040Y-108581045D01*
X204111147Y-108581045D01*
X204111147Y-107944534D01*
X203781583Y-107944534D01*
X203781583Y-108581045D01*
X203335703Y-108581045D01*
X202788584Y-108581045D01*
X202788584Y-106823371D01*
X203752504Y-106823371D01*
X203761389Y-107032176D01*
X203788045Y-107212709D01*
X203829241Y-107377087D01*
X203881745Y-107537426D01*
X205300162Y-107537426D01*
X205300162Y-107136780D01*
X204172536Y-107136780D01*
X204141842Y-106971998D01*
X204133764Y-106807216D01*
X204136995Y-106719978D01*
X204148304Y-106613355D01*
X204166074Y-106505116D01*
X204185460Y-106413032D01*
X203817124Y-106341949D01*
X203786430Y-106466344D01*
X203767044Y-106603662D01*
X203755735Y-106731287D01*
X203752504Y-106823371D01*
X202788584Y-106823371D01*
X202788584Y-105398492D01*
X203742811Y-105398492D01*
X203756947Y-105547927D01*
X203799354Y-105686053D01*
X203868013Y-105809235D01*
X203960905Y-105913840D01*
X204076414Y-105998654D01*
X204212924Y-106062466D01*
X204367609Y-106102450D01*
X204537641Y-106115778D01*
X204710097Y-106102854D01*
X204865590Y-106064082D01*
X205002504Y-106001481D01*
X205119225Y-105917071D01*
X205213732Y-105812870D01*
X205284006Y-105690899D01*
X205327625Y-105552369D01*
X205342165Y-105398492D01*
X205327625Y-105244615D01*
X205284006Y-105106085D01*
X205213732Y-104984518D01*
X205119225Y-104881529D01*
X205002504Y-104798331D01*
X204865590Y-104736134D01*
X204710097Y-104697361D01*
X204537641Y-104684437D01*
X204367609Y-104697361D01*
X204212924Y-104736134D01*
X204076414Y-104798735D01*
X203960905Y-104883145D01*
X203868013Y-104987345D01*
X203799354Y-105109316D01*
X203756947Y-105247038D01*
X203742811Y-105398492D01*
X202788584Y-105398492D01*
X202788584Y-103786214D01*
X203749273Y-103786214D01*
X203755735Y-103963516D01*
X203775121Y-104127087D01*
X203801777Y-104271271D01*
X203830048Y-104390415D01*
X205300162Y-104390415D01*
X205300162Y-103992999D01*
X204107916Y-103992999D01*
X204098223Y-103900915D01*
X204094992Y-103812062D01*
X204188691Y-103614970D01*
X204312278Y-103578621D01*
X204495638Y-103566505D01*
X205300162Y-103566505D01*
X205300162Y-103169090D01*
X204443942Y-103169090D01*
X204295719Y-103176360D01*
X204161228Y-103198169D01*
X203941519Y-103296715D01*
X203799354Y-103485730D01*
X203761793Y-103620625D01*
X203749273Y-103786214D01*
X202788584Y-103786214D01*
X202788584Y-102862143D01*
X203781583Y-102862143D01*
X204111147Y-102862143D01*
X204111147Y-102442111D01*
X204670113Y-102442111D01*
X204819548Y-102435649D01*
X204951212Y-102416263D01*
X205159612Y-102327410D01*
X205290468Y-102159397D01*
X205324394Y-102041869D01*
X205335703Y-101899300D01*
X205314701Y-101700592D01*
X205235541Y-101469575D01*
X204915670Y-101521271D01*
X204975444Y-101695746D01*
X204989984Y-101828218D01*
X204923748Y-101994615D01*
X204721809Y-102044696D01*
X203781583Y-102044696D01*
X203781583Y-102312870D01*
X203781583Y-102862143D01*
X202788584Y-102862143D01*
X202788584Y-102312870D01*
X203090145Y-102312870D01*
X203157997Y-102488961D01*
X203345396Y-102561659D01*
X203529564Y-102488961D01*
X203597415Y-102312870D01*
X203529564Y-102135164D01*
X203345396Y-102060851D01*
X203157997Y-102135164D01*
X203090145Y-102312870D01*
X202788584Y-102312870D01*
X202788584Y-100351642D01*
X203742811Y-100351642D01*
X203758562Y-100562062D01*
X203805816Y-100740980D01*
X203880129Y-100890011D01*
X203977060Y-101010770D01*
X204094588Y-101103662D01*
X204230695Y-101169090D01*
X204380937Y-101207862D01*
X204540872Y-101220786D01*
X204703231Y-101208266D01*
X204854281Y-101170705D01*
X204989984Y-101106489D01*
X205106300Y-101014001D01*
X205201616Y-100892434D01*
X205274313Y-100740980D01*
X205320355Y-100558024D01*
X205335703Y-100341949D01*
X205330452Y-100190899D01*
X205314701Y-100060851D01*
X205261389Y-99857297D01*
X204935057Y-99915455D01*
X204977060Y-100101239D01*
X204989984Y-100296715D01*
X204960097Y-100539445D01*
X204870436Y-100698977D01*
X204728271Y-100787426D01*
X204540872Y-100816909D01*
X204359935Y-100791061D01*
X204216155Y-100707054D01*
X204122456Y-100553581D01*
X204088530Y-100316101D01*
X204106300Y-100114163D01*
X204146688Y-99970382D01*
X203826817Y-99883145D01*
X203762197Y-100106085D01*
X203742811Y-100351642D01*
X202788584Y-100351642D01*
X202788584Y-98884760D01*
X203742811Y-98884760D01*
X203752100Y-99043888D01*
X203779968Y-99178783D01*
X203883360Y-99380722D01*
X204035218Y-99497038D01*
X204217771Y-99534195D01*
X204416478Y-99485730D01*
X204547334Y-99362951D01*
X204632956Y-99198169D01*
X204692730Y-99020463D01*
X204731502Y-98902531D01*
X204771890Y-98802369D01*
X204821971Y-98734518D01*
X204893053Y-98710285D01*
X204978675Y-98787830D01*
X204999677Y-99010770D01*
X204960905Y-99270867D01*
X204876898Y-99511578D01*
X205209693Y-99572967D01*
X205290468Y-99350027D01*
X205324394Y-99196554D01*
X205335703Y-99014001D01*
X205326817Y-98835487D01*
X205300162Y-98687668D01*
X205203231Y-98472806D01*
X205057835Y-98354873D01*
X204880129Y-98319332D01*
X204678191Y-98367798D01*
X204542488Y-98492192D01*
X204453635Y-98661820D01*
X204389015Y-98842757D01*
X204348627Y-98957458D01*
X204305008Y-99051158D01*
X204254927Y-99115778D01*
X204191922Y-99140011D01*
X204112763Y-99086699D01*
X204075606Y-98881529D01*
X204112763Y-98619817D01*
X204166074Y-98448573D01*
X203830048Y-98387184D01*
X203765428Y-98608508D01*
X203748465Y-98741384D01*
X203742811Y-98884760D01*
X202788584Y-98884760D01*
X202788584Y-98319332D01*
X202788584Y-97646204D01*
X202788584Y-96799354D01*
X205611416Y-97646204D01*
X205611416Y-98319332D01*
X205611416Y-99014001D01*
X205611416Y-100341949D01*
G37*
G36*
X204725040Y-105111335D02*
G01*
X204870436Y-105170705D01*
X204964943Y-105268848D01*
X204996446Y-105404954D01*
X204964943Y-105544292D01*
X204870436Y-105639203D01*
X204725040Y-105693726D01*
X204540872Y-105711901D01*
X204357108Y-105692111D01*
X204212924Y-105632741D01*
X204119628Y-105534599D01*
X204088530Y-105398492D01*
X204119628Y-105259155D01*
X204212924Y-105164243D01*
X204357108Y-105109720D01*
X204540872Y-105091546D01*
X204725040Y-105111335D01*
G37*
G36*
X204989984Y-118228864D02*
G01*
X204993215Y-118319332D01*
X204960905Y-118464324D01*
X204863974Y-118563274D01*
X204716155Y-118620221D01*
X204531179Y-118639203D01*
X204342973Y-118623048D01*
X204204847Y-118574583D01*
X204120032Y-118490576D01*
X204091761Y-118367798D01*
X204109532Y-118245019D01*
X204153150Y-118141626D01*
X204980291Y-118141626D01*
X204989984Y-118228864D01*
G37*
G36*
X204395477Y-120238557D02*
G01*
X204275929Y-120211093D01*
X204172536Y-120152935D01*
X204101454Y-120059235D01*
X204075606Y-119925148D01*
X204103069Y-119789445D01*
X204175767Y-119698977D01*
X204277544Y-119647281D01*
X204395477Y-119631125D01*
X204395477Y-120238557D01*
G37*
G36*
X204395477Y-112161012D02*
G01*
X204275929Y-112133549D01*
X204172536Y-112075390D01*
X204101454Y-111981691D01*
X204075606Y-111847604D01*
X204103069Y-111711901D01*
X204175767Y-111621432D01*
X204277544Y-111569736D01*
X204395477Y-111553581D01*
X204395477Y-112161012D01*
G37*
%TO.C,kibuzzard-67B4AC38*%
G36*
X168629887Y-142292730D02*
G01*
X167620194Y-142292730D01*
X166767205Y-142292730D01*
X165080614Y-142292730D01*
X161692892Y-142292730D01*
X159691276Y-142292730D01*
X156574960Y-142292730D01*
X155610501Y-142292730D01*
X152358481Y-142292730D01*
X149576575Y-142292730D01*
X147075767Y-142292730D01*
X141439257Y-142292730D01*
X139699354Y-142292730D01*
X137499031Y-142292730D01*
X135080614Y-142292730D01*
X132473183Y-142292730D01*
X129322940Y-142292730D01*
X128154927Y-142292730D01*
X125271244Y-142292730D01*
X122847981Y-142292730D01*
X120497415Y-142292730D01*
X117759128Y-142292730D01*
X113179160Y-142292730D01*
X111371405Y-142292730D01*
X108928756Y-142292730D01*
X107145234Y-142292730D01*
X103893215Y-142292730D01*
X101557189Y-142292730D01*
X99885137Y-142292730D01*
X97776898Y-142292730D01*
X96767205Y-142292730D01*
X96522875Y-142280727D01*
X96280898Y-142244833D01*
X96043604Y-142185394D01*
X95813279Y-142102982D01*
X95592140Y-141998392D01*
X95382318Y-141872629D01*
X95185834Y-141726907D01*
X95004579Y-141562626D01*
X94840299Y-141381371D01*
X94694576Y-141184887D01*
X94568813Y-140975065D01*
X94464223Y-140753927D01*
X94381811Y-140523601D01*
X94322372Y-140286308D01*
X94286478Y-140044330D01*
X94274475Y-139800000D01*
X94286478Y-139555670D01*
X94322372Y-139313692D01*
X94381811Y-139076399D01*
X94464223Y-138846073D01*
X94568813Y-138624935D01*
X94694576Y-138415113D01*
X94840299Y-138218629D01*
X94931273Y-138118255D01*
X97776898Y-138118255D01*
X97776898Y-141074637D01*
X98373021Y-141074637D01*
X98373021Y-139969628D01*
X98683199Y-139969628D01*
X98847375Y-140244063D01*
X99000646Y-140514863D01*
X99139378Y-140789297D01*
X99259935Y-141074637D01*
X99885137Y-141074637D01*
X99747011Y-140757189D01*
X99579806Y-140422779D01*
X99400485Y-140102908D01*
X99226010Y-139824233D01*
X99438045Y-139687318D01*
X99579806Y-139499515D01*
X99659774Y-139274152D01*
X99686430Y-139024556D01*
X99667106Y-138796769D01*
X100112924Y-138796769D01*
X100112924Y-139291115D01*
X100742973Y-139291115D01*
X100742973Y-140129564D01*
X100752666Y-140353716D01*
X100781745Y-140551212D01*
X100915024Y-140863813D01*
X101167044Y-141060097D01*
X101343336Y-141110985D01*
X101557189Y-141127948D01*
X101855250Y-141096446D01*
X102201777Y-140977706D01*
X102124233Y-140497900D01*
X101862520Y-140587561D01*
X101663813Y-140609370D01*
X101414216Y-140510016D01*
X101339095Y-140207108D01*
X101339095Y-139935703D01*
X102574960Y-139935703D01*
X102593740Y-140179241D01*
X102650081Y-140405816D01*
X102746405Y-140609370D01*
X102885137Y-140783845D01*
X103067488Y-140926817D01*
X103294669Y-141035864D01*
X103569103Y-141104927D01*
X103893215Y-141127948D01*
X104119790Y-141120073D01*
X104314863Y-141096446D01*
X104620194Y-141016478D01*
X104532956Y-140526979D01*
X104254281Y-140589984D01*
X103961066Y-140609370D01*
X103596971Y-140564540D01*
X103357674Y-140430048D01*
X103225000Y-140216801D01*
X103180775Y-139935703D01*
X103219548Y-139664297D01*
X103345557Y-139448627D01*
X103575767Y-139308078D01*
X103931987Y-139257189D01*
X104234895Y-139283845D01*
X104450565Y-139344426D01*
X104581422Y-138864620D01*
X104247011Y-138767690D01*
X103878675Y-138738611D01*
X103563045Y-138762237D01*
X103294669Y-138833118D01*
X103071123Y-138944588D01*
X102889984Y-139089984D01*
X102750646Y-139266276D01*
X102652504Y-139470436D01*
X102594346Y-139695800D01*
X102574960Y-139935703D01*
X101339095Y-139935703D01*
X101339095Y-138796769D01*
X100936834Y-138796769D01*
X100112924Y-138796769D01*
X99667106Y-138796769D01*
X99666438Y-138788893D01*
X99606462Y-138585945D01*
X99376252Y-138278191D01*
X99211470Y-138172779D01*
X99132019Y-138142488D01*
X100563651Y-138142488D01*
X100672698Y-138418740D01*
X100936834Y-138520517D01*
X101203393Y-138418740D01*
X101314863Y-138142488D01*
X101203393Y-137861389D01*
X101076461Y-137812924D01*
X105090307Y-137812924D01*
X105090307Y-141074637D01*
X105691276Y-141074637D01*
X105691276Y-139998708D01*
X105892407Y-140219225D01*
X106108078Y-140500323D01*
X106309208Y-140800808D01*
X106461874Y-141074637D01*
X107145234Y-141074637D01*
X107431179Y-141074637D01*
X107969144Y-141074637D01*
X107969144Y-139082714D01*
X108149273Y-139415240D01*
X108321325Y-139747227D01*
X108485299Y-140078675D01*
X108641195Y-140410124D01*
X108789015Y-140742111D01*
X108928756Y-141074637D01*
X109408562Y-141074637D01*
X109675121Y-141074637D01*
X110295477Y-141074637D01*
X110431179Y-140381583D01*
X111230856Y-140381583D01*
X111371405Y-141074637D01*
X112011147Y-141074637D01*
X111972405Y-140909855D01*
X112248627Y-140909855D01*
X112583037Y-141057674D01*
X112843538Y-141117649D01*
X113179160Y-141137641D01*
X113519225Y-141112062D01*
X113796284Y-141035326D01*
X114010339Y-140907431D01*
X114215711Y-140629362D01*
X114284168Y-140255574D01*
X114263570Y-140029604D01*
X114201777Y-139846042D01*
X113990953Y-139574637D01*
X113709855Y-139400162D01*
X113416640Y-139281422D01*
X113230048Y-139208724D01*
X113060420Y-139119063D01*
X112936834Y-139002746D01*
X112888368Y-138850081D01*
X112941142Y-138658912D01*
X113099461Y-138544211D01*
X113363328Y-138505977D01*
X113705008Y-138554443D01*
X113973990Y-138670759D01*
X114148465Y-138210339D01*
X113909482Y-138113409D01*
X117163005Y-138113409D01*
X117163005Y-141074637D01*
X117759128Y-141074637D01*
X117759128Y-140376737D01*
X119537803Y-140376737D01*
X119605654Y-140728110D01*
X119799515Y-140960743D01*
X120102423Y-141089176D01*
X120497415Y-141127948D01*
X120801535Y-141118255D01*
X121074152Y-141089176D01*
X121461874Y-141021325D01*
X121461874Y-140938934D01*
X122009531Y-140938934D01*
X122343942Y-141060097D01*
X122574152Y-141110985D01*
X122847981Y-141127948D01*
X123115751Y-141114620D01*
X123337480Y-141074637D01*
X123638288Y-140938934D01*
X124432795Y-140938934D01*
X124767205Y-141060097D01*
X124997415Y-141110985D01*
X125271244Y-141127948D01*
X125539015Y-141114620D01*
X125760743Y-141074637D01*
X126083037Y-140929241D01*
X126259935Y-140711147D01*
X126313247Y-140444588D01*
X126240549Y-140141680D01*
X126053958Y-139938126D01*
X125799515Y-139804847D01*
X125528110Y-139707916D01*
X125356058Y-139647334D01*
X125215509Y-139581906D01*
X125118578Y-139506785D01*
X125082229Y-139412278D01*
X125162197Y-139293538D01*
X125469952Y-139237803D01*
X125862520Y-139293538D01*
X126119386Y-139373506D01*
X126211470Y-138869467D01*
X125962481Y-138796769D01*
X126768821Y-138796769D01*
X126768821Y-139291115D01*
X127287399Y-139291115D01*
X127287399Y-140226494D01*
X127301939Y-140485178D01*
X127345557Y-140689338D01*
X127515186Y-140963166D01*
X127786591Y-141094023D01*
X128154927Y-141127948D01*
X128525687Y-141098869D01*
X128881906Y-141001939D01*
X128799515Y-140488207D01*
X128646850Y-140551212D01*
X128511147Y-140587561D01*
X128375444Y-140604523D01*
X128222779Y-140609370D01*
X128082229Y-140594830D01*
X127975606Y-140536672D01*
X127907754Y-140415509D01*
X127883522Y-140211955D01*
X127883522Y-139291115D01*
X128838288Y-139291115D01*
X128838288Y-138796769D01*
X127883522Y-138796769D01*
X127883522Y-138127948D01*
X127287399Y-138224879D01*
X127287399Y-138796769D01*
X126768821Y-138796769D01*
X125962481Y-138796769D01*
X125879483Y-138772536D01*
X125680170Y-138747092D01*
X125465105Y-138738611D01*
X125226414Y-138752544D01*
X125024071Y-138794346D01*
X124721163Y-138949435D01*
X124546688Y-139177221D01*
X124490953Y-139451050D01*
X124563651Y-139749111D01*
X124747819Y-139945396D01*
X124994992Y-140073829D01*
X125261551Y-140163489D01*
X125438449Y-140221648D01*
X125588691Y-140282229D01*
X125690468Y-140357351D01*
X125726817Y-140463974D01*
X125610501Y-140592407D01*
X125276090Y-140623910D01*
X124885945Y-140565751D01*
X124524879Y-140439742D01*
X124432795Y-140938934D01*
X123638288Y-140938934D01*
X123659774Y-140929241D01*
X123836672Y-140711147D01*
X123889984Y-140444588D01*
X123817286Y-140141680D01*
X123630695Y-139938126D01*
X123376252Y-139804847D01*
X123104847Y-139707916D01*
X122932795Y-139647334D01*
X122792246Y-139581906D01*
X122695315Y-139506785D01*
X122658966Y-139412278D01*
X122738934Y-139293538D01*
X123046688Y-139237803D01*
X123439257Y-139293538D01*
X123696123Y-139373506D01*
X123788207Y-138869467D01*
X123456220Y-138772536D01*
X123256906Y-138747092D01*
X123041842Y-138738611D01*
X122803150Y-138752544D01*
X122600808Y-138794346D01*
X122297900Y-138949435D01*
X122123425Y-139177221D01*
X122067690Y-139451050D01*
X122140388Y-139749111D01*
X122324556Y-139945396D01*
X122571729Y-140073829D01*
X122838288Y-140163489D01*
X123015186Y-140221648D01*
X123165428Y-140282229D01*
X123267205Y-140357351D01*
X123303554Y-140463974D01*
X123187237Y-140592407D01*
X122852827Y-140623910D01*
X122462682Y-140565751D01*
X122101615Y-140439742D01*
X122009531Y-140938934D01*
X121461874Y-140938934D01*
X121461874Y-139664297D01*
X121413409Y-139278998D01*
X121253473Y-138988207D01*
X120955412Y-138804039D01*
X120745194Y-138754968D01*
X120487722Y-138738611D01*
X120273263Y-138746486D01*
X120066074Y-138770113D01*
X119751050Y-138840388D01*
X119833441Y-139320194D01*
X120087884Y-139262036D01*
X120415024Y-139237803D01*
X120637964Y-139266276D01*
X120783360Y-139351696D01*
X120889984Y-139635218D01*
X120889984Y-139707916D01*
X120697334Y-139678837D01*
X120478029Y-139669144D01*
X120124233Y-139705493D01*
X119823748Y-139824233D01*
X119615347Y-140042326D01*
X119537803Y-140376737D01*
X117759128Y-140376737D01*
X117759128Y-140061712D01*
X117972375Y-140061712D01*
X118330749Y-140035057D01*
X118630425Y-139955089D01*
X118871405Y-139821809D01*
X119047765Y-139628756D01*
X119153581Y-139369467D01*
X119188853Y-139043942D01*
X119153850Y-138721648D01*
X119048842Y-138465590D01*
X118873829Y-138275767D01*
X118635272Y-138145180D01*
X118339634Y-138066828D01*
X117986914Y-138040711D01*
X117797900Y-138045557D01*
X117579806Y-138057674D01*
X117359289Y-138079483D01*
X117163005Y-138113409D01*
X113909482Y-138113409D01*
X113801939Y-138069790D01*
X113578393Y-138022536D01*
X113319709Y-138006785D01*
X113022725Y-138033172D01*
X112771513Y-138112332D01*
X112566074Y-138244265D01*
X112360703Y-138527787D01*
X112292246Y-138903393D01*
X112369790Y-139259612D01*
X112566074Y-139499515D01*
X112830210Y-139659451D01*
X113111309Y-139770921D01*
X113314863Y-139855735D01*
X113499031Y-139957512D01*
X113634733Y-140085945D01*
X113688045Y-140250727D01*
X113666236Y-140393700D01*
X113586268Y-140519709D01*
X113428756Y-140606947D01*
X113179160Y-140638449D01*
X112937439Y-140621486D01*
X112735703Y-140570598D01*
X112423102Y-140425202D01*
X112248627Y-140909855D01*
X111972405Y-140909855D01*
X111931179Y-140734507D01*
X111850242Y-140404265D01*
X111768336Y-140083910D01*
X111685460Y-139773441D01*
X111601615Y-139472859D01*
X111496052Y-139108310D01*
X111390186Y-138753756D01*
X111284017Y-138409198D01*
X111177544Y-138074637D01*
X110528110Y-138074637D01*
X110425424Y-138406472D01*
X110320921Y-138747698D01*
X110214600Y-139098314D01*
X110106462Y-139458320D01*
X110019418Y-139756381D01*
X109932763Y-140067044D01*
X109846494Y-140390307D01*
X109760614Y-140726171D01*
X109675121Y-141074637D01*
X109408562Y-141074637D01*
X109408562Y-138074637D01*
X108870598Y-138074637D01*
X108870598Y-139921163D01*
X108785178Y-139732149D01*
X108684006Y-139514055D01*
X108570113Y-139277787D01*
X108446527Y-139034249D01*
X108316276Y-138786470D01*
X108182391Y-138537480D01*
X108046688Y-138296971D01*
X107910985Y-138074637D01*
X107431179Y-138074637D01*
X107431179Y-141074637D01*
X107145234Y-141074637D01*
X106963489Y-140764459D01*
X106844144Y-140589984D01*
X106713893Y-140415509D01*
X106576979Y-140244063D01*
X106437641Y-140078675D01*
X106175929Y-139800000D01*
X106391599Y-139567367D01*
X106629079Y-139305654D01*
X106859289Y-139039095D01*
X107057997Y-138796769D01*
X106340711Y-138796769D01*
X106205008Y-139012439D01*
X106042649Y-139247496D01*
X105868174Y-139482553D01*
X105691276Y-139698223D01*
X105691276Y-137812924D01*
X129322940Y-137812924D01*
X129322940Y-141074637D01*
X129919063Y-141074637D01*
X129919063Y-139320194D01*
X130047496Y-139286268D01*
X130209855Y-139266882D01*
X130486107Y-139407431D01*
X130540630Y-139592811D01*
X130558805Y-139867851D01*
X130558805Y-141074637D01*
X131154927Y-141074637D01*
X131154927Y-139790307D01*
X131144023Y-139567973D01*
X131111309Y-139366236D01*
X130965913Y-139036672D01*
X130851799Y-138947011D01*
X131872213Y-138947011D01*
X131872213Y-141074637D01*
X132473183Y-141074637D01*
X132473183Y-139930856D01*
X134004685Y-139930856D01*
X134024071Y-140189540D01*
X134082229Y-140422779D01*
X134176131Y-140628150D01*
X134302746Y-140803231D01*
X134459047Y-140944992D01*
X134642003Y-141050404D01*
X134849798Y-141115832D01*
X135080614Y-141137641D01*
X135311430Y-141115832D01*
X135519225Y-141050404D01*
X135701575Y-140944992D01*
X135856058Y-140803231D01*
X135980856Y-140628150D01*
X136074152Y-140422779D01*
X136132310Y-140189540D01*
X136141526Y-140066559D01*
X136573344Y-140066559D01*
X136583037Y-140289499D01*
X136612116Y-140493053D01*
X136755089Y-140829887D01*
X137038611Y-141050404D01*
X137243376Y-141108562D01*
X137499031Y-141127948D01*
X137764984Y-141117044D01*
X138010339Y-141084330D01*
X138227827Y-141040711D01*
X138410178Y-140997092D01*
X138410178Y-139863005D01*
X138870598Y-139863005D01*
X138896177Y-140171567D01*
X138972913Y-140431664D01*
X139100808Y-140643296D01*
X139278244Y-140799461D01*
X139503608Y-140893161D01*
X139776898Y-140924394D01*
X140002262Y-140900162D01*
X140232472Y-140827464D01*
X140232472Y-140919548D01*
X140208239Y-141101292D01*
X140125848Y-141249111D01*
X139965913Y-141348465D01*
X139709047Y-141384814D01*
X139321325Y-141338772D01*
X139025687Y-141239418D01*
X138914216Y-141743457D01*
X139289822Y-141845234D01*
X139490347Y-141877948D01*
X139699354Y-141888853D01*
X140060420Y-141859235D01*
X140348788Y-141770382D01*
X140564459Y-141622294D01*
X140713893Y-141412278D01*
X140803554Y-141137641D01*
X140833441Y-140798384D01*
X140833441Y-138869467D01*
X140549650Y-138802154D01*
X140279860Y-138761766D01*
X140024071Y-138748304D01*
X139693430Y-138778998D01*
X139412332Y-138871082D01*
X139180775Y-139024556D01*
X139008454Y-139240495D01*
X138905062Y-139519978D01*
X138870598Y-139863005D01*
X138410178Y-139863005D01*
X138410178Y-138796769D01*
X137809208Y-138796769D01*
X137809208Y-140585137D01*
X137537803Y-140609370D01*
X137244588Y-140456704D01*
X137188247Y-140263449D01*
X137169467Y-139989015D01*
X137169467Y-138796769D01*
X136573344Y-138796769D01*
X136573344Y-140066559D01*
X136141526Y-140066559D01*
X136151696Y-139930856D01*
X136132310Y-139675808D01*
X136074152Y-139443780D01*
X135980250Y-139239015D01*
X135853635Y-139065751D01*
X135697334Y-138926414D01*
X135514378Y-138823425D01*
X135307795Y-138759814D01*
X135080614Y-138738611D01*
X134856462Y-138759814D01*
X134649273Y-138823425D01*
X134464499Y-138926414D01*
X134307593Y-139065751D01*
X134180372Y-139239015D01*
X134084653Y-139443780D01*
X134024677Y-139675808D01*
X134004685Y-139930856D01*
X132473183Y-139930856D01*
X132473183Y-139383199D01*
X132720355Y-139337157D01*
X132967528Y-139325040D01*
X133098384Y-139329887D01*
X133258320Y-139346850D01*
X133420679Y-139373506D01*
X133558805Y-139402585D01*
X133665428Y-138850081D01*
X133478837Y-138804039D01*
X133272859Y-138774960D01*
X133081422Y-138757997D01*
X132943296Y-138753150D01*
X132630089Y-138766478D01*
X132359289Y-138806462D01*
X132112722Y-138868255D01*
X131872213Y-138947011D01*
X130851799Y-138947011D01*
X130694507Y-138823425D01*
X130504281Y-138767084D01*
X130272859Y-138748304D01*
X130093538Y-138770113D01*
X129919063Y-138816155D01*
X129919063Y-137812924D01*
X141439257Y-137812924D01*
X141439257Y-141074637D01*
X142035380Y-141074637D01*
X142035380Y-139320194D01*
X142163813Y-139286268D01*
X142326171Y-139266882D01*
X142602423Y-139407431D01*
X142656947Y-139592811D01*
X142675121Y-139867851D01*
X142675121Y-141074637D01*
X143271244Y-141074637D01*
X143271244Y-139790307D01*
X143260339Y-139567973D01*
X143227625Y-139366236D01*
X143082229Y-139036672D01*
X142810824Y-138823425D01*
X142620598Y-138767084D01*
X142389176Y-138748304D01*
X142209855Y-138770113D01*
X142035380Y-138816155D01*
X142035380Y-138113409D01*
X146242165Y-138113409D01*
X146242165Y-141026171D01*
X146451777Y-141064338D01*
X146663813Y-141091599D01*
X146873425Y-141107956D01*
X147075767Y-141113409D01*
X147315065Y-141101898D01*
X147538611Y-141067367D01*
X147739742Y-141005574D01*
X147911793Y-140912278D01*
X148161389Y-140621486D01*
X148230452Y-140417326D01*
X148234205Y-140376737D01*
X148616963Y-140376737D01*
X148684814Y-140728110D01*
X148878675Y-140960743D01*
X149181583Y-141089176D01*
X149576575Y-141127948D01*
X149880695Y-141118255D01*
X150153312Y-141089176D01*
X150541034Y-141021325D01*
X150541034Y-139935703D01*
X151040226Y-139935703D01*
X151059006Y-140179241D01*
X151115347Y-140405816D01*
X151211672Y-140609370D01*
X151350404Y-140783845D01*
X151532754Y-140926817D01*
X151759935Y-141035864D01*
X152034370Y-141104927D01*
X152358481Y-141127948D01*
X152585057Y-141120073D01*
X152780129Y-141096446D01*
X153085460Y-141016478D01*
X152998223Y-140526979D01*
X152719548Y-140589984D01*
X152426333Y-140609370D01*
X152062237Y-140564540D01*
X151822940Y-140430048D01*
X151690267Y-140216801D01*
X151646042Y-139935703D01*
X151684814Y-139664297D01*
X151810824Y-139448627D01*
X152041034Y-139308078D01*
X152397254Y-139257189D01*
X152700162Y-139283845D01*
X152915832Y-139344426D01*
X153046688Y-138864620D01*
X152712278Y-138767690D01*
X152343942Y-138738611D01*
X152028312Y-138762237D01*
X151759935Y-138833118D01*
X151536389Y-138944588D01*
X151355250Y-139089984D01*
X151215913Y-139266276D01*
X151117771Y-139470436D01*
X151059612Y-139695800D01*
X151040226Y-139935703D01*
X150541034Y-139935703D01*
X150541034Y-139664297D01*
X150492569Y-139278998D01*
X150332633Y-138988207D01*
X150034572Y-138804039D01*
X149824354Y-138754968D01*
X149566882Y-138738611D01*
X149352423Y-138746486D01*
X149145234Y-138770113D01*
X148830210Y-138840388D01*
X148912601Y-139320194D01*
X149167044Y-139262036D01*
X149494184Y-139237803D01*
X149717124Y-139266276D01*
X149862520Y-139351696D01*
X149969144Y-139635218D01*
X149969144Y-139707916D01*
X149776494Y-139678837D01*
X149557189Y-139669144D01*
X149203393Y-139705493D01*
X148902908Y-139824233D01*
X148694507Y-140042326D01*
X148616963Y-140376737D01*
X148234205Y-140376737D01*
X148253473Y-140168336D01*
X148226212Y-139964782D01*
X148144426Y-139770921D01*
X147986309Y-139601292D01*
X147730048Y-139470436D01*
X148008724Y-139208724D01*
X148086874Y-139031826D01*
X148112924Y-138830695D01*
X148069305Y-138549596D01*
X147904523Y-138295153D01*
X147570113Y-138110985D01*
X147325363Y-138058279D01*
X147017609Y-138040711D01*
X146615347Y-138062520D01*
X146242165Y-138113409D01*
X142035380Y-138113409D01*
X142035380Y-137812924D01*
X153555573Y-137812924D01*
X153555573Y-141074637D01*
X154156543Y-141074637D01*
X154156543Y-139998708D01*
X154357674Y-140219225D01*
X154573344Y-140500323D01*
X154774475Y-140800808D01*
X154927141Y-141074637D01*
X155610501Y-141074637D01*
X155428756Y-140764459D01*
X155309410Y-140589984D01*
X155179160Y-140415509D01*
X155042246Y-140244063D01*
X154902908Y-140078675D01*
X154641195Y-139800000D01*
X154856866Y-139567367D01*
X155094346Y-139305654D01*
X155324556Y-139039095D01*
X155463651Y-138869467D01*
X155978837Y-138869467D01*
X155978837Y-141874313D01*
X156574960Y-141874313D01*
X156574960Y-141016478D01*
X156813651Y-141100081D01*
X157045073Y-141127948D01*
X157254685Y-141106139D01*
X157437641Y-141040711D01*
X157718740Y-140795961D01*
X157816882Y-140622698D01*
X157888368Y-140417932D01*
X157931987Y-140187116D01*
X157946527Y-139935703D01*
X157915293Y-139595907D01*
X157821594Y-139306731D01*
X157665428Y-139068174D01*
X157450565Y-138890468D01*
X157180775Y-138783845D01*
X156856058Y-138748304D01*
X156621607Y-138756785D01*
X156383522Y-138782229D01*
X156162399Y-138821002D01*
X155978837Y-138869467D01*
X155463651Y-138869467D01*
X155523263Y-138796769D01*
X154805977Y-138796769D01*
X154670275Y-139012439D01*
X154507916Y-139247496D01*
X154333441Y-139482553D01*
X154156543Y-139698223D01*
X154156543Y-138234572D01*
X158271244Y-138234572D01*
X158901292Y-138234572D01*
X158901292Y-140168336D01*
X158948546Y-140582108D01*
X159090307Y-140883199D01*
X159335057Y-141066761D01*
X159691276Y-141127948D01*
X159960258Y-141108562D01*
X160161389Y-141062520D01*
X160294669Y-141011632D01*
X160360097Y-140977706D01*
X160282552Y-140497900D01*
X160122617Y-140560905D01*
X159822132Y-140609370D01*
X159589499Y-140526979D01*
X159545582Y-140376737D01*
X160733279Y-140376737D01*
X160801131Y-140728110D01*
X160994992Y-140960743D01*
X161297900Y-141089176D01*
X161692892Y-141127948D01*
X161997011Y-141118255D01*
X162269628Y-141089176D01*
X162657351Y-141021325D01*
X162657351Y-139664297D01*
X162608885Y-139278998D01*
X162448950Y-138988207D01*
X162256779Y-138869467D01*
X163248627Y-138869467D01*
X163248627Y-141074637D01*
X163844750Y-141074637D01*
X163844750Y-139286268D01*
X163982876Y-139271729D01*
X164116155Y-139266882D01*
X164411793Y-139407431D01*
X164466317Y-139592811D01*
X164484491Y-139867851D01*
X164484491Y-141074637D01*
X165080614Y-141074637D01*
X165080614Y-139955089D01*
X165516801Y-139955089D01*
X165538611Y-140227706D01*
X165604039Y-140463974D01*
X165710057Y-140664499D01*
X165853635Y-140829887D01*
X166032956Y-140959532D01*
X166246204Y-141052827D01*
X166491559Y-141109168D01*
X166767205Y-141127948D01*
X167159774Y-141091599D01*
X167489338Y-141001939D01*
X167406947Y-140493053D01*
X167133118Y-140570598D01*
X166791438Y-140609370D01*
X166527302Y-140577262D01*
X166316478Y-140480937D01*
X166178352Y-140328877D01*
X166132310Y-140129564D01*
X167610501Y-140129564D01*
X167617771Y-140027787D01*
X167620194Y-139906624D01*
X167591115Y-139555789D01*
X167503877Y-139265805D01*
X167358481Y-139036672D01*
X167157081Y-138871082D01*
X166901831Y-138771729D01*
X166592730Y-138738611D01*
X166391599Y-138757997D01*
X166195315Y-138816155D01*
X166012359Y-138912480D01*
X165851212Y-139046365D01*
X165715509Y-139217811D01*
X165608885Y-139426817D01*
X165539822Y-139672779D01*
X165516801Y-139955089D01*
X165080614Y-139955089D01*
X165080614Y-139790307D01*
X165069709Y-139567973D01*
X165036995Y-139366236D01*
X164889176Y-139036672D01*
X164605654Y-138823425D01*
X164403312Y-138767084D01*
X164154927Y-138748304D01*
X163888974Y-138757997D01*
X163643619Y-138787076D01*
X163427342Y-138827060D01*
X163248627Y-138869467D01*
X162256779Y-138869467D01*
X162150889Y-138804039D01*
X161940670Y-138754968D01*
X161683199Y-138738611D01*
X161468740Y-138746486D01*
X161261551Y-138770113D01*
X160946527Y-138840388D01*
X161028918Y-139320194D01*
X161283360Y-139262036D01*
X161610501Y-139237803D01*
X161833441Y-139266276D01*
X161978837Y-139351696D01*
X162085460Y-139635218D01*
X162085460Y-139707916D01*
X161892811Y-139678837D01*
X161673506Y-139669144D01*
X161319709Y-139705493D01*
X161019225Y-139824233D01*
X160810824Y-140042326D01*
X160733279Y-140376737D01*
X159545582Y-140376737D01*
X159497415Y-140211955D01*
X159497415Y-137740226D01*
X158271244Y-137740226D01*
X158271244Y-138234572D01*
X154156543Y-138234572D01*
X154156543Y-137711147D01*
X153555573Y-137812924D01*
X142035380Y-137812924D01*
X142035380Y-137711147D01*
X141439257Y-137812924D01*
X129919063Y-137812924D01*
X129919063Y-137711147D01*
X129322940Y-137812924D01*
X105691276Y-137812924D01*
X105691276Y-137711147D01*
X105090307Y-137812924D01*
X101076461Y-137812924D01*
X100936834Y-137759612D01*
X100672698Y-137861389D01*
X100563651Y-138142488D01*
X99132019Y-138142488D01*
X99017609Y-138098869D01*
X98797092Y-138055250D01*
X98552342Y-138040711D01*
X98382714Y-138045557D01*
X98179160Y-138057674D01*
X97968336Y-138081906D01*
X97776898Y-138118255D01*
X94931273Y-138118255D01*
X95004579Y-138037374D01*
X95185834Y-137873093D01*
X95382318Y-137727371D01*
X95592140Y-137601608D01*
X95813279Y-137497018D01*
X96043604Y-137414606D01*
X96280898Y-137355167D01*
X96522875Y-137319273D01*
X96767205Y-137307270D01*
X97776898Y-137307270D01*
X167620194Y-137307270D01*
X168629887Y-137307270D01*
X170125525Y-137307270D01*
X168629887Y-142292730D01*
G37*
G36*
X135289620Y-139303837D02*
G01*
X135431987Y-139443780D01*
X135513772Y-139660057D01*
X135541034Y-139935703D01*
X135511349Y-140211955D01*
X135422294Y-140430048D01*
X135275081Y-140571809D01*
X135070921Y-140619063D01*
X134861914Y-140571809D01*
X134719548Y-140430048D01*
X134637763Y-140211955D01*
X134610501Y-139935703D01*
X134640186Y-139660057D01*
X134729241Y-139443780D01*
X134876454Y-139303837D01*
X135080614Y-139257189D01*
X135289620Y-139303837D01*
G37*
G36*
X157066882Y-139306260D02*
G01*
X157219548Y-139453473D01*
X157310420Y-139677019D01*
X157340711Y-139955089D01*
X157315267Y-140234370D01*
X157238934Y-140442165D01*
X157109289Y-140571204D01*
X156923910Y-140614216D01*
X156730048Y-140589984D01*
X156574960Y-140526979D01*
X156574960Y-139276575D01*
X156705816Y-139264459D01*
X156851212Y-139257189D01*
X157066882Y-139306260D01*
G37*
G36*
X140111309Y-139237803D02*
G01*
X140232472Y-139257189D01*
X140232472Y-140352504D01*
X140079806Y-140415509D01*
X139898061Y-140439742D01*
X139578191Y-140291922D01*
X139501858Y-140110784D01*
X139476414Y-139863005D01*
X139534572Y-139512978D01*
X139709047Y-139302962D01*
X139999838Y-139232956D01*
X140111309Y-139237803D01*
G37*
G36*
X110927948Y-138978514D02*
G01*
X111005493Y-139278998D01*
X111070921Y-139577060D01*
X111129079Y-139887237D01*
X110542649Y-139887237D01*
X110603231Y-139577060D01*
X110671082Y-139278998D01*
X110748627Y-138978514D01*
X110838288Y-138656220D01*
X110927948Y-138978514D01*
G37*
G36*
X118268619Y-138586551D02*
G01*
X118435218Y-138668336D01*
X118542447Y-138815549D01*
X118578191Y-139039095D01*
X118541842Y-139274758D01*
X118432795Y-139429241D01*
X118252262Y-139514661D01*
X118001454Y-139543134D01*
X117759128Y-139543134D01*
X117759128Y-138573829D01*
X117906947Y-138561712D01*
X118054766Y-138559289D01*
X118268619Y-138586551D01*
G37*
G36*
X147528918Y-139855735D02*
G01*
X147667044Y-140168336D01*
X147618578Y-140384006D01*
X147494992Y-140514863D01*
X147322940Y-140577868D01*
X147124233Y-140594830D01*
X146976414Y-140589984D01*
X146838288Y-140575444D01*
X146838288Y-139761228D01*
X147158158Y-139761228D01*
X147528918Y-139855735D01*
G37*
G36*
X98766801Y-138587157D02*
G01*
X98935218Y-138670759D01*
X99044265Y-138813732D01*
X99080614Y-139019709D01*
X98944911Y-139356543D01*
X98766801Y-139445598D01*
X98503877Y-139475283D01*
X98373021Y-139475283D01*
X98373021Y-138573829D01*
X98469952Y-138561712D01*
X98552342Y-138559289D01*
X98766801Y-138587157D01*
G37*
G36*
X166805977Y-139278998D02*
G01*
X166941680Y-139388045D01*
X167019225Y-139540711D01*
X167043457Y-139717609D01*
X166132310Y-139717609D01*
X166173506Y-139538288D01*
X166260743Y-139383199D01*
X166401292Y-139276575D01*
X166602423Y-139237803D01*
X166805977Y-139278998D01*
G37*
G36*
X147269628Y-138571405D02*
G01*
X147405331Y-138619871D01*
X147497415Y-138721648D01*
X147531341Y-138893700D01*
X147415024Y-139167528D01*
X147070921Y-139266882D01*
X146838288Y-139266882D01*
X146838288Y-138578675D01*
X146969144Y-138564136D01*
X147109693Y-138559289D01*
X147269628Y-138571405D01*
G37*
G36*
X161944911Y-140093215D02*
G01*
X162085460Y-140110178D01*
X162085460Y-140633603D01*
X161925525Y-140645719D01*
X161736510Y-140648142D01*
X161436026Y-140582714D01*
X161319709Y-140362197D01*
X161358481Y-140221648D01*
X161462682Y-140139257D01*
X161615347Y-140098061D01*
X161794669Y-140085945D01*
X161944911Y-140093215D01*
G37*
G36*
X149828594Y-140093215D02*
G01*
X149969144Y-140110178D01*
X149969144Y-140633603D01*
X149809208Y-140645719D01*
X149620194Y-140648142D01*
X149319709Y-140582714D01*
X149203393Y-140362197D01*
X149242165Y-140221648D01*
X149346365Y-140139257D01*
X149499031Y-140098061D01*
X149678352Y-140085945D01*
X149828594Y-140093215D01*
G37*
G36*
X120749435Y-140093215D02*
G01*
X120889984Y-140110178D01*
X120889984Y-140633603D01*
X120730048Y-140645719D01*
X120541034Y-140648142D01*
X120240549Y-140582714D01*
X120124233Y-140362197D01*
X120163005Y-140221648D01*
X120267205Y-140139257D01*
X120419871Y-140098061D01*
X120599192Y-140085945D01*
X120749435Y-140093215D01*
G37*
D12*
%TO.C,U8*%
X178891699Y-87366625D02*
X178891699Y-92213113D01*
X172643300Y-87366625D02*
X178891699Y-87366625D01*
X178891699Y-101366926D02*
X178891699Y-106183113D01*
X178891699Y-125496926D02*
X178891699Y-130343425D01*
X178891699Y-130343425D02*
X172643300Y-130343425D01*
X172643300Y-130343425D02*
X172643300Y-87366625D01*
D13*
X177145699Y-86731625D02*
G75*
G02*
X176383699Y-86731625I-381000J0D01*
G01*
X176383699Y-86731625D02*
G75*
G02*
X177145699Y-86731625I381000J0D01*
G01*
%TO.C,U9*%
X180143300Y-85178499D02*
G75*
G02*
X179381300Y-85178499I-381000J0D01*
G01*
X179381300Y-85178499D02*
G75*
G02*
X180143300Y-85178499I381000J0D01*
G01*
D12*
X180397300Y-74294500D02*
X180397300Y-86105499D01*
X180397300Y-86105499D02*
X184161961Y-86105499D01*
X193438041Y-86105499D02*
X198202700Y-86105499D01*
X198202700Y-74294500D02*
X180397300Y-74294500D01*
X198202700Y-86105499D02*
X198202700Y-74294500D01*
%TO.C,U5*%
X171202700Y-86105499D02*
X171202700Y-74294500D01*
X171202700Y-74294500D02*
X153397300Y-74294500D01*
X166438041Y-86105499D02*
X171202700Y-86105499D01*
X153397300Y-86105499D02*
X157161961Y-86105499D01*
X153397300Y-74294500D02*
X153397300Y-86105499D01*
D13*
X153143300Y-85178499D02*
G75*
G02*
X152381300Y-85178499I-381000J0D01*
G01*
X152381300Y-85178499D02*
G75*
G02*
X153143300Y-85178499I381000J0D01*
G01*
D12*
%TO.C,U4*%
X151891699Y-87366625D02*
X151891699Y-92213113D01*
X145643300Y-87366625D02*
X151891699Y-87366625D01*
X151891699Y-101366926D02*
X151891699Y-106183113D01*
X151891699Y-125496926D02*
X151891699Y-130343425D01*
X151891699Y-130343425D02*
X145643300Y-130343425D01*
X145643300Y-130343425D02*
X145643300Y-87366625D01*
D13*
X150145699Y-86731625D02*
G75*
G02*
X149383699Y-86731625I-381000J0D01*
G01*
X149383699Y-86731625D02*
G75*
G02*
X150145699Y-86731625I381000J0D01*
G01*
%TO.C,U7*%
X126143300Y-85178499D02*
G75*
G02*
X125381300Y-85178499I-381000J0D01*
G01*
X125381300Y-85178499D02*
G75*
G02*
X126143300Y-85178499I381000J0D01*
G01*
D12*
X126397300Y-74294500D02*
X126397300Y-86105499D01*
X126397300Y-86105499D02*
X130161961Y-86105499D01*
X139438041Y-86105499D02*
X144202700Y-86105499D01*
X144202700Y-74294500D02*
X126397300Y-74294500D01*
X144202700Y-86105499D02*
X144202700Y-74294500D01*
%TO.C,U6*%
X124891699Y-87366625D02*
X124891699Y-92213113D01*
X118643300Y-87366625D02*
X124891699Y-87366625D01*
X124891699Y-101366926D02*
X124891699Y-106183113D01*
X124891699Y-125496926D02*
X124891699Y-130343425D01*
X124891699Y-130343425D02*
X118643300Y-130343425D01*
X118643300Y-130343425D02*
X118643300Y-87366625D01*
D13*
X123145699Y-86731625D02*
G75*
G02*
X122383699Y-86731625I-381000J0D01*
G01*
X122383699Y-86731625D02*
G75*
G02*
X123145699Y-86731625I381000J0D01*
G01*
D12*
%TO.C,U1*%
X97891699Y-87366625D02*
X97891699Y-92213113D01*
X91643300Y-87366625D02*
X97891699Y-87366625D01*
X97891699Y-101366926D02*
X97891699Y-106183113D01*
X97891699Y-125496926D02*
X97891699Y-130343425D01*
X97891699Y-130343425D02*
X91643300Y-130343425D01*
X91643300Y-130343425D02*
X91643300Y-87366625D01*
D13*
X96145699Y-86731625D02*
G75*
G02*
X95383699Y-86731625I-381000J0D01*
G01*
X95383699Y-86731625D02*
G75*
G02*
X96145699Y-86731625I381000J0D01*
G01*
D10*
%TO.C,U10*%
X186080000Y-137000000D02*
X186080000Y-133000000D01*
X186080000Y-133000000D02*
X157380000Y-133000000D01*
X157380000Y-137000000D02*
X186080000Y-137000000D01*
X157380000Y-133000000D02*
X157380000Y-137000000D01*
%TO.C,U3*%
X132080000Y-137000000D02*
X132080000Y-133000000D01*
X132080000Y-133000000D02*
X103380000Y-133000000D01*
X103380000Y-137000000D02*
X132080000Y-137000000D01*
X103380000Y-133000000D02*
X103380000Y-137000000D01*
D12*
%TO.C,U2*%
X117202700Y-86105499D02*
X117202700Y-74294500D01*
X117202700Y-74294500D02*
X99397300Y-74294500D01*
X112438041Y-86105499D02*
X117202700Y-86105499D01*
X99397300Y-86105499D02*
X103161961Y-86105499D01*
X99397300Y-74294500D02*
X99397300Y-86105499D01*
D13*
X99143300Y-85178499D02*
G75*
G02*
X98381300Y-85178499I-381000J0D01*
G01*
X98381300Y-85178499D02*
G75*
G02*
X99143300Y-85178499I381000J0D01*
G01*
%TD*%
M02*
