%TF.GenerationSoftware,KiCad,Pcbnew,8.0.7*%
%TF.CreationDate,2025-02-19T10:26:07-06:00*%
%TF.ProjectId,RickNAS_4PortSATA,5269636b-4e41-4535-9f34-506f72745341,rev?*%
%TF.SameCoordinates,Original*%
%TF.FileFunction,Paste,Top*%
%TF.FilePolarity,Positive*%
%FSLAX46Y46*%
G04 Gerber Fmt 4.6, Leading zero omitted, Abs format (unit mm)*
G04 Created by KiCad (PCBNEW 8.0.7) date 2025-02-19 10:26:07*
%MOMM*%
%LPD*%
G01*
G04 APERTURE LIST*
G04 Aperture macros list*
%AMRoundRect*
0 Rectangle with rounded corners*
0 $1 Rounding radius*
0 $2 $3 $4 $5 $6 $7 $8 $9 X,Y pos of 4 corners*
0 Add a 4 corners polygon primitive as box body*
4,1,4,$2,$3,$4,$5,$6,$7,$8,$9,$2,$3,0*
0 Add four circle primitives for the rounded corners*
1,1,$1+$1,$2,$3*
1,1,$1+$1,$4,$5*
1,1,$1+$1,$6,$7*
1,1,$1+$1,$8,$9*
0 Add four rect primitives between the rounded corners*
20,1,$1+$1,$2,$3,$4,$5,0*
20,1,$1+$1,$4,$5,$6,$7,0*
20,1,$1+$1,$6,$7,$8,$9,0*
20,1,$1+$1,$8,$9,$2,$3,0*%
G04 Aperture macros list end*
%ADD10R,0.400000X0.900000*%
%ADD11RoundRect,0.243750X-0.243750X-0.456250X0.243750X-0.456250X0.243750X0.456250X-0.243750X0.456250X0*%
%ADD12R,4.089400X0.889000*%
%ADD13R,0.990600X2.209800*%
G04 APERTURE END LIST*
D10*
%TO.C,RN1*%
X139000000Y-133650000D03*
X138200000Y-133650000D03*
X137400000Y-133650000D03*
X136600000Y-133650000D03*
X136600000Y-135350000D03*
X137400000Y-135350000D03*
X138200000Y-135350000D03*
X139000000Y-135350000D03*
%TD*%
D11*
%TO.C,D4*%
X181862500Y-141400000D03*
X183737500Y-141400000D03*
%TD*%
%TO.C,D3*%
X154925000Y-141400000D03*
X156800000Y-141400000D03*
%TD*%
%TO.C,D2*%
X127862500Y-141400000D03*
X129737500Y-141400000D03*
%TD*%
%TO.C,D1*%
X100862500Y-141200000D03*
X102737500Y-141200000D03*
%TD*%
D12*
%TO.C,U4*%
X149764699Y-92980014D03*
X149764699Y-94250025D03*
X149764699Y-95520025D03*
X149764699Y-96790025D03*
X149764699Y-98060025D03*
X149764699Y-99330025D03*
X149764699Y-100600025D03*
X149764699Y-106950014D03*
X149764699Y-108220025D03*
X149764699Y-109490025D03*
X149764699Y-110760025D03*
X149764699Y-112030025D03*
X149764699Y-113300025D03*
X149764699Y-114570025D03*
X149764699Y-115840025D03*
X149764699Y-117110025D03*
X149764699Y-118380025D03*
X149764699Y-119650025D03*
X149764699Y-120920025D03*
X149764699Y-122190025D03*
X149764699Y-123460025D03*
X149764699Y-124730025D03*
%TD*%
D13*
%TO.C,U2*%
X103990001Y-85178499D03*
X105260001Y-85178499D03*
X106530001Y-85178499D03*
X107800001Y-85178499D03*
X109070001Y-85178499D03*
X110340001Y-85178499D03*
X111610001Y-85178499D03*
%TD*%
D12*
%TO.C,U1*%
X95764699Y-92980014D03*
X95764699Y-94250025D03*
X95764699Y-95520025D03*
X95764699Y-96790025D03*
X95764699Y-98060025D03*
X95764699Y-99330025D03*
X95764699Y-100600025D03*
X95764699Y-106950014D03*
X95764699Y-108220025D03*
X95764699Y-109490025D03*
X95764699Y-110760025D03*
X95764699Y-112030025D03*
X95764699Y-113300025D03*
X95764699Y-114570025D03*
X95764699Y-115840025D03*
X95764699Y-117110025D03*
X95764699Y-118380025D03*
X95764699Y-119650025D03*
X95764699Y-120920025D03*
X95764699Y-122190025D03*
X95764699Y-123460025D03*
X95764699Y-124730025D03*
%TD*%
%TO.C,U8*%
X176764699Y-92980014D03*
X176764699Y-94250025D03*
X176764699Y-95520025D03*
X176764699Y-96790025D03*
X176764699Y-98060025D03*
X176764699Y-99330025D03*
X176764699Y-100600025D03*
X176764699Y-106950014D03*
X176764699Y-108220025D03*
X176764699Y-109490025D03*
X176764699Y-110760025D03*
X176764699Y-112030025D03*
X176764699Y-113300025D03*
X176764699Y-114570025D03*
X176764699Y-115840025D03*
X176764699Y-117110025D03*
X176764699Y-118380025D03*
X176764699Y-119650025D03*
X176764699Y-120920025D03*
X176764699Y-122190025D03*
X176764699Y-123460025D03*
X176764699Y-124730025D03*
%TD*%
D13*
%TO.C,U7*%
X130990001Y-85178499D03*
X132260001Y-85178499D03*
X133530001Y-85178499D03*
X134800001Y-85178499D03*
X136070001Y-85178499D03*
X137340001Y-85178499D03*
X138610001Y-85178499D03*
%TD*%
D12*
%TO.C,U6*%
X122764699Y-92980014D03*
X122764699Y-94250025D03*
X122764699Y-95520025D03*
X122764699Y-96790025D03*
X122764699Y-98060025D03*
X122764699Y-99330025D03*
X122764699Y-100600025D03*
X122764699Y-106950014D03*
X122764699Y-108220025D03*
X122764699Y-109490025D03*
X122764699Y-110760025D03*
X122764699Y-112030025D03*
X122764699Y-113300025D03*
X122764699Y-114570025D03*
X122764699Y-115840025D03*
X122764699Y-117110025D03*
X122764699Y-118380025D03*
X122764699Y-119650025D03*
X122764699Y-120920025D03*
X122764699Y-122190025D03*
X122764699Y-123460025D03*
X122764699Y-124730025D03*
%TD*%
D13*
%TO.C,U5*%
X157990001Y-85178499D03*
X159260001Y-85178499D03*
X160530001Y-85178499D03*
X161800001Y-85178499D03*
X163070001Y-85178499D03*
X164340001Y-85178499D03*
X165610001Y-85178499D03*
%TD*%
%TO.C,U9*%
X184990001Y-85178499D03*
X186260001Y-85178499D03*
X187530001Y-85178499D03*
X188800001Y-85178499D03*
X190070001Y-85178499D03*
X191340001Y-85178499D03*
X192610001Y-85178499D03*
%TD*%
M02*
