%TF.GenerationSoftware,KiCad,Pcbnew,8.0.7*%
%TF.CreationDate,2025-02-18T10:18:35-06:00*%
%TF.ProjectId,RickNAS_4PortSATA,5269636b-4e41-4535-9f34-506f72745341,rev?*%
%TF.SameCoordinates,Original*%
%TF.FileFunction,Copper,L1,Top*%
%TF.FilePolarity,Positive*%
%FSLAX46Y46*%
G04 Gerber Fmt 4.6, Leading zero omitted, Abs format (unit mm)*
G04 Created by KiCad (PCBNEW 8.0.7) date 2025-02-18 10:18:35*
%MOMM*%
%LPD*%
G01*
G04 APERTURE LIST*
%TA.AperFunction,ComponentPad*%
%ADD10C,5.600000*%
%TD*%
%TA.AperFunction,SMDPad,CuDef*%
%ADD11R,4.089400X0.889000*%
%TD*%
%TA.AperFunction,SMDPad,CuDef*%
%ADD12R,0.990600X2.209800*%
%TD*%
%TA.AperFunction,ComponentPad*%
%ADD13R,2.387600X3.200400*%
%TD*%
%TA.AperFunction,ComponentPad*%
%ADD14C,1.100000*%
%TD*%
%TA.AperFunction,ViaPad*%
%ADD15C,0.600000*%
%TD*%
%TA.AperFunction,Conductor*%
%ADD16C,0.800000*%
%TD*%
%TA.AperFunction,Conductor*%
%ADD17C,1.000000*%
%TD*%
%TA.AperFunction,Conductor*%
%ADD18C,0.200000*%
%TD*%
%TA.AperFunction,Conductor*%
%ADD19C,0.296900*%
%TD*%
G04 APERTURE END LIST*
D10*
%TO.P,H4,1,1*%
%TO.N,VSS*%
X203000000Y-139000000D03*
%TD*%
%TO.P,H3,1,1*%
%TO.N,VSS*%
X91000000Y-139000000D03*
%TD*%
%TO.P,H2,1,1*%
%TO.N,VSS*%
X203000000Y-79000000D03*
%TD*%
%TO.P,H1,1,1*%
%TO.N,VSS*%
X91000000Y-79000000D03*
%TD*%
D11*
%TO.P,U8,1,VSS*%
%TO.N,VSS*%
X176764699Y-92980014D03*
%TO.P,U8,2,A+*%
%TO.N,/A3+*%
X176764699Y-94250025D03*
%TO.P,U8,3,A-*%
%TO.N,/A3-*%
X176764699Y-95520025D03*
%TO.P,U8,4,VSS*%
%TO.N,VSS*%
X176764699Y-96790025D03*
%TO.P,U8,5,B-*%
%TO.N,/B3-*%
X176764699Y-98060025D03*
%TO.P,U8,6,B+*%
%TO.N,/B3+*%
X176764699Y-99330025D03*
%TO.P,U8,7,VSS*%
%TO.N,VSS*%
X176764699Y-100600025D03*
%TO.P,U8,8,3.3V*%
%TO.N,+3.3VP*%
X176764699Y-106950014D03*
%TO.P,U8,9,3.3V*%
X176764699Y-108220025D03*
%TO.P,U8,10,3.3V*%
X176764699Y-109490025D03*
%TO.P,U8,11,VSS*%
%TO.N,VSS*%
X176764699Y-110760025D03*
%TO.P,U8,12,VSS*%
X176764699Y-112030025D03*
%TO.P,U8,13,VSS*%
X176764699Y-113300025D03*
%TO.P,U8,14,5V*%
%TO.N,+5P*%
X176764699Y-114570025D03*
%TO.P,U8,15,5V*%
X176764699Y-115840025D03*
%TO.P,U8,16,5V*%
X176764699Y-117110025D03*
%TO.P,U8,17,VSS*%
%TO.N,VSS*%
X176764699Y-118380025D03*
%TO.P,U8,18,VSS*%
X176764699Y-119650025D03*
%TO.P,U8,19,VSS*%
X176764699Y-120920025D03*
%TO.P,U8,20,12V*%
%TO.N,+12P*%
X176764699Y-122190025D03*
%TO.P,U8,21,12V*%
X176764699Y-123460025D03*
%TO.P,U8,22,12V*%
X176764699Y-124730025D03*
%TD*%
D12*
%TO.P,U9,7,VSS*%
%TO.N,VSS*%
X192610001Y-85178499D03*
%TO.P,U9,6,B+*%
%TO.N,/B3+*%
X191340001Y-85178499D03*
%TO.P,U9,5,B-*%
%TO.N,/B3-*%
X190070001Y-85178499D03*
%TO.P,U9,4,VSS*%
%TO.N,VSS*%
X188800001Y-85178499D03*
%TO.P,U9,3,A-*%
%TO.N,/A3-*%
X187530001Y-85178499D03*
%TO.P,U9,2,A+*%
%TO.N,/A3+*%
X186260001Y-85178499D03*
%TO.P,U9,1,VSS*%
%TO.N,VSS*%
X184990001Y-85178499D03*
D13*
%TO.P,U9,*%
%TO.N,*%
X182430001Y-82818499D03*
X195170001Y-82818499D03*
%TD*%
%TO.P,U5,*%
%TO.N,*%
X168170001Y-82818499D03*
X155430001Y-82818499D03*
D12*
%TO.P,U5,1,VSS*%
%TO.N,VSS*%
X157990001Y-85178499D03*
%TO.P,U5,2,A+*%
%TO.N,/A1+*%
X159260001Y-85178499D03*
%TO.P,U5,3,A-*%
%TO.N,/A1-*%
X160530001Y-85178499D03*
%TO.P,U5,4,VSS*%
%TO.N,VSS*%
X161800001Y-85178499D03*
%TO.P,U5,5,B-*%
%TO.N,/B1-*%
X163070001Y-85178499D03*
%TO.P,U5,6,B+*%
%TO.N,/B1+*%
X164340001Y-85178499D03*
%TO.P,U5,7,VSS*%
%TO.N,VSS*%
X165610001Y-85178499D03*
%TD*%
D11*
%TO.P,U4,1,VSS*%
%TO.N,VSS*%
X149764699Y-92980014D03*
%TO.P,U4,2,A+*%
%TO.N,/A1+*%
X149764699Y-94250025D03*
%TO.P,U4,3,A-*%
%TO.N,/A1-*%
X149764699Y-95520025D03*
%TO.P,U4,4,VSS*%
%TO.N,VSS*%
X149764699Y-96790025D03*
%TO.P,U4,5,B-*%
%TO.N,/B1-*%
X149764699Y-98060025D03*
%TO.P,U4,6,B+*%
%TO.N,/B1+*%
X149764699Y-99330025D03*
%TO.P,U4,7,VSS*%
%TO.N,VSS*%
X149764699Y-100600025D03*
%TO.P,U4,8,3.3V*%
%TO.N,+3.3VP*%
X149764699Y-106950014D03*
%TO.P,U4,9,3.3V*%
X149764699Y-108220025D03*
%TO.P,U4,10,3.3V*%
X149764699Y-109490025D03*
%TO.P,U4,11,VSS*%
%TO.N,VSS*%
X149764699Y-110760025D03*
%TO.P,U4,12,VSS*%
X149764699Y-112030025D03*
%TO.P,U4,13,VSS*%
X149764699Y-113300025D03*
%TO.P,U4,14,5V*%
%TO.N,+5P*%
X149764699Y-114570025D03*
%TO.P,U4,15,5V*%
X149764699Y-115840025D03*
%TO.P,U4,16,5V*%
X149764699Y-117110025D03*
%TO.P,U4,17,VSS*%
%TO.N,VSS*%
X149764699Y-118380025D03*
%TO.P,U4,18,VSS*%
X149764699Y-119650025D03*
%TO.P,U4,19,VSS*%
X149764699Y-120920025D03*
%TO.P,U4,20,12V*%
%TO.N,+12P*%
X149764699Y-122190025D03*
%TO.P,U4,21,12V*%
X149764699Y-123460025D03*
%TO.P,U4,22,12V*%
X149764699Y-124730025D03*
%TD*%
D12*
%TO.P,U7,7,VSS*%
%TO.N,VSS*%
X138610001Y-85178499D03*
%TO.P,U7,6,B+*%
%TO.N,/B2+*%
X137340001Y-85178499D03*
%TO.P,U7,5,B-*%
%TO.N,/B2-*%
X136070001Y-85178499D03*
%TO.P,U7,4,VSS*%
%TO.N,VSS*%
X134800001Y-85178499D03*
%TO.P,U7,3,A-*%
%TO.N,/A2-*%
X133530001Y-85178499D03*
%TO.P,U7,2,A+*%
%TO.N,/A2+*%
X132260001Y-85178499D03*
%TO.P,U7,1,VSS*%
%TO.N,VSS*%
X130990001Y-85178499D03*
D13*
%TO.P,U7,*%
%TO.N,*%
X128430001Y-82818499D03*
X141170001Y-82818499D03*
%TD*%
D11*
%TO.P,U6,1,VSS*%
%TO.N,VSS*%
X122764699Y-92980014D03*
%TO.P,U6,2,A+*%
%TO.N,/A2+*%
X122764699Y-94250025D03*
%TO.P,U6,3,A-*%
%TO.N,/A2-*%
X122764699Y-95520025D03*
%TO.P,U6,4,VSS*%
%TO.N,VSS*%
X122764699Y-96790025D03*
%TO.P,U6,5,B-*%
%TO.N,/B2-*%
X122764699Y-98060025D03*
%TO.P,U6,6,B+*%
%TO.N,/B2+*%
X122764699Y-99330025D03*
%TO.P,U6,7,VSS*%
%TO.N,VSS*%
X122764699Y-100600025D03*
%TO.P,U6,8,3.3V*%
%TO.N,+3.3V*%
X122764699Y-106950014D03*
%TO.P,U6,9,3.3V*%
X122764699Y-108220025D03*
%TO.P,U6,10,3.3V*%
X122764699Y-109490025D03*
%TO.P,U6,11,VSS*%
%TO.N,VSS*%
X122764699Y-110760025D03*
%TO.P,U6,12,VSS*%
X122764699Y-112030025D03*
%TO.P,U6,13,VSS*%
X122764699Y-113300025D03*
%TO.P,U6,14,5V*%
%TO.N,+5V*%
X122764699Y-114570025D03*
%TO.P,U6,15,5V*%
X122764699Y-115840025D03*
%TO.P,U6,16,5V*%
X122764699Y-117110025D03*
%TO.P,U6,17,VSS*%
%TO.N,VSS*%
X122764699Y-118380025D03*
%TO.P,U6,18,VSS*%
X122764699Y-119650025D03*
%TO.P,U6,19,VSS*%
X122764699Y-120920025D03*
%TO.P,U6,20,12V*%
%TO.N,+12V*%
X122764699Y-122190025D03*
%TO.P,U6,21,12V*%
X122764699Y-123460025D03*
%TO.P,U6,22,12V*%
X122764699Y-124730025D03*
%TD*%
%TO.P,U1,1,VSS*%
%TO.N,VSS*%
X95764699Y-92980014D03*
%TO.P,U1,2,A+*%
%TO.N,/A+*%
X95764699Y-94250025D03*
%TO.P,U1,3,A-*%
%TO.N,/A-*%
X95764699Y-95520025D03*
%TO.P,U1,4,VSS*%
%TO.N,VSS*%
X95764699Y-96790025D03*
%TO.P,U1,5,B-*%
%TO.N,/B-*%
X95764699Y-98060025D03*
%TO.P,U1,6,B+*%
%TO.N,/B+*%
X95764699Y-99330025D03*
%TO.P,U1,7,VSS*%
%TO.N,VSS*%
X95764699Y-100600025D03*
%TO.P,U1,8,3.3V*%
%TO.N,+3.3V*%
X95764699Y-106950014D03*
%TO.P,U1,9,3.3V*%
X95764699Y-108220025D03*
%TO.P,U1,10,3.3V*%
X95764699Y-109490025D03*
%TO.P,U1,11,VSS*%
%TO.N,VSS*%
X95764699Y-110760025D03*
%TO.P,U1,12,VSS*%
X95764699Y-112030025D03*
%TO.P,U1,13,VSS*%
X95764699Y-113300025D03*
%TO.P,U1,14,5V*%
%TO.N,+5V*%
X95764699Y-114570025D03*
%TO.P,U1,15,5V*%
X95764699Y-115840025D03*
%TO.P,U1,16,5V*%
X95764699Y-117110025D03*
%TO.P,U1,17,VSS*%
%TO.N,VSS*%
X95764699Y-118380025D03*
%TO.P,U1,18,VSS*%
X95764699Y-119650025D03*
%TO.P,U1,19,VSS*%
X95764699Y-120920025D03*
%TO.P,U1,20,12V*%
%TO.N,+12V*%
X95764699Y-122190025D03*
%TO.P,U1,21,12V*%
X95764699Y-123460025D03*
%TO.P,U1,22,12V*%
X95764699Y-124730025D03*
%TD*%
D14*
%TO.P,U10,15,12V*%
%TO.N,+12P*%
X180620000Y-135000000D03*
%TO.P,U10,14,12V*%
X179350000Y-135000000D03*
%TO.P,U10,13,12V*%
X178080000Y-135000000D03*
%TO.P,U10,12,VSS*%
%TO.N,VSS*%
X176810000Y-135000000D03*
%TO.P,U10,11,VSS*%
X175540000Y-135000000D03*
%TO.P,U10,10,VSS*%
X174270000Y-135000000D03*
%TO.P,U10,9,5V*%
%TO.N,+5P*%
X173000000Y-135000000D03*
%TO.P,U10,8,5V*%
X171730000Y-135000000D03*
%TO.P,U10,7,5V*%
X170460000Y-135000000D03*
%TO.P,U10,6,VSS*%
%TO.N,VSS*%
X169190000Y-135000000D03*
%TO.P,U10,5,VSS*%
X167920000Y-135000000D03*
%TO.P,U10,4,VSS*%
X166650000Y-135000000D03*
%TO.P,U10,3,3.3V*%
%TO.N,+3.3VP*%
X165380000Y-135000000D03*
%TO.P,U10,2,3.3V*%
X164110000Y-135000000D03*
%TO.P,U10,1,3.3V*%
X162840000Y-135000000D03*
%TD*%
%TO.P,U3,15,12V*%
%TO.N,+12V*%
X126620000Y-135000000D03*
%TO.P,U3,14,12V*%
X125350000Y-135000000D03*
%TO.P,U3,13,12V*%
X124080000Y-135000000D03*
%TO.P,U3,12,VSS*%
%TO.N,VSS*%
X122810000Y-135000000D03*
%TO.P,U3,11,VSS*%
X121540000Y-135000000D03*
%TO.P,U3,10,VSS*%
X120270000Y-135000000D03*
%TO.P,U3,9,5V*%
%TO.N,+5V*%
X119000000Y-135000000D03*
%TO.P,U3,8,5V*%
X117730000Y-135000000D03*
%TO.P,U3,7,5V*%
X116460000Y-135000000D03*
%TO.P,U3,6,VSS*%
%TO.N,VSS*%
X115190000Y-135000000D03*
%TO.P,U3,5,VSS*%
X113920000Y-135000000D03*
%TO.P,U3,4,VSS*%
X112650000Y-135000000D03*
%TO.P,U3,3,3.3V*%
%TO.N,+3.3V*%
X111380000Y-135000000D03*
%TO.P,U3,2,3.3V*%
X110110000Y-135000000D03*
%TO.P,U3,1,3.3V*%
X108840000Y-135000000D03*
%TD*%
D13*
%TO.P,U2,*%
%TO.N,*%
X114170001Y-82818499D03*
X101430001Y-82818499D03*
D12*
%TO.P,U2,1,VSS*%
%TO.N,VSS*%
X103990001Y-85178499D03*
%TO.P,U2,2,A+*%
%TO.N,/A+*%
X105260001Y-85178499D03*
%TO.P,U2,3,A-*%
%TO.N,/A-*%
X106530001Y-85178499D03*
%TO.P,U2,4,VSS*%
%TO.N,VSS*%
X107800001Y-85178499D03*
%TO.P,U2,5,B-*%
%TO.N,/B-*%
X109070001Y-85178499D03*
%TO.P,U2,6,B+*%
%TO.N,/B+*%
X110340001Y-85178499D03*
%TO.P,U2,7,VSS*%
%TO.N,VSS*%
X111610001Y-85178499D03*
%TD*%
D15*
%TO.N,VSS*%
X118400000Y-112200000D03*
X115800000Y-112200000D03*
X114000000Y-112200000D03*
X105800000Y-112200000D03*
X103200000Y-112200000D03*
X100600000Y-112200000D03*
X101800000Y-119600000D03*
X104400000Y-119600000D03*
X106400000Y-119600000D03*
X113600000Y-119400000D03*
X114800000Y-120600000D03*
X155000000Y-119600000D03*
X158000000Y-119600000D03*
X161000000Y-119600000D03*
X167800000Y-119000000D03*
X168800000Y-119800000D03*
X171800000Y-111800000D03*
X169600000Y-111800000D03*
X167800000Y-111800000D03*
X159000000Y-111800000D03*
X156800000Y-112000000D03*
X154600000Y-112000000D03*
X176800000Y-133600000D03*
X175600000Y-136400000D03*
X174200000Y-133600000D03*
X169200000Y-136400000D03*
X168000000Y-133600000D03*
X166600000Y-136400000D03*
X112600000Y-133600000D03*
X113800000Y-136400000D03*
X115200000Y-133600000D03*
X120200000Y-136800000D03*
X121600000Y-133600000D03*
X122600000Y-136800000D03*
%TO.N,+3.3VP*%
X162600000Y-106950014D03*
X163800000Y-108220025D03*
X165000000Y-109490025D03*
%TO.N,+5P*%
X170200000Y-114570025D03*
X171400000Y-115840025D03*
X172600000Y-117110025D03*
%TO.N,+3.3V*%
X109000000Y-106950014D03*
X110000000Y-108220025D03*
X111600000Y-109490025D03*
%TO.N,+5V*%
X117000000Y-114570025D03*
X118000000Y-115840025D03*
X119000000Y-117110025D03*
%TO.N,VSS*%
X185000000Y-95000000D03*
X188000000Y-92000000D03*
X158000000Y-95000000D03*
X161000000Y-92000000D03*
X104000000Y-95000000D03*
X107000000Y-92000000D03*
X131000000Y-95000000D03*
X134000000Y-92000000D03*
%TD*%
D16*
%TO.N,+12V*%
X124810025Y-123460025D02*
X122764699Y-123460025D01*
X125350000Y-124000000D02*
X124810025Y-123460025D01*
X125350000Y-135000000D02*
X125350000Y-124000000D01*
X126620000Y-123620000D02*
X125190025Y-122190025D01*
X126620000Y-135000000D02*
X126620000Y-123620000D01*
X125190025Y-122190025D02*
X122764699Y-122190025D01*
%TO.N,VSS*%
X176810000Y-133610000D02*
X176800000Y-133600000D01*
X176810000Y-135000000D02*
X176810000Y-133610000D01*
X175540000Y-135000000D02*
X175540000Y-136340000D01*
X175540000Y-136340000D02*
X175600000Y-136400000D01*
X174270000Y-133670000D02*
X174200000Y-133600000D01*
X174270000Y-135000000D02*
X174270000Y-133670000D01*
X112650000Y-133650000D02*
X112600000Y-133600000D01*
X112650000Y-135000000D02*
X112650000Y-133650000D01*
X113920000Y-136280000D02*
X113800000Y-136400000D01*
X113920000Y-135000000D02*
X113920000Y-136280000D01*
X115190000Y-135000000D02*
X115190000Y-133610000D01*
X115190000Y-133610000D02*
X115200000Y-133600000D01*
X120270000Y-136730000D02*
X120200000Y-136800000D01*
X120270000Y-135000000D02*
X120270000Y-136730000D01*
X121540000Y-133660000D02*
X121600000Y-133600000D01*
X121540000Y-135000000D02*
X121540000Y-133660000D01*
X122810000Y-136590000D02*
X122600000Y-136800000D01*
X122810000Y-135000000D02*
X122810000Y-136590000D01*
%TO.N,+3.3VP*%
X162600000Y-106950014D02*
X176764699Y-106950014D01*
X149764699Y-106950014D02*
X162600000Y-106950014D01*
X163800000Y-108220025D02*
X176764699Y-108220025D01*
X149764699Y-108220025D02*
X163800000Y-108220025D01*
X149764699Y-109490025D02*
X165000000Y-109490025D01*
X165000000Y-109490025D02*
X176764699Y-109490025D01*
%TO.N,+5P*%
X170200000Y-114570025D02*
X176764699Y-114570025D01*
X149764699Y-114570025D02*
X170200000Y-114570025D01*
X171400000Y-115840025D02*
X176764699Y-115840025D01*
X149764699Y-115840025D02*
X171400000Y-115840025D01*
X172600000Y-117110025D02*
X176764699Y-117110025D01*
X149764699Y-117110025D02*
X172600000Y-117110025D01*
%TO.N,+12P*%
X178760025Y-123460025D02*
X176764699Y-123460025D01*
X179350000Y-124050000D02*
X178760025Y-123460025D01*
X179350000Y-135000000D02*
X179350000Y-124050000D01*
X180620000Y-123220000D02*
X179590025Y-122190025D01*
X179590025Y-122190025D02*
X176764699Y-122190025D01*
X180620000Y-135000000D02*
X180620000Y-123220000D01*
X178080000Y-126045326D02*
X176764699Y-124730025D01*
X178080000Y-135000000D02*
X178080000Y-126045326D01*
%TO.N,+3.3V*%
X122764699Y-109490025D02*
X111600000Y-109490025D01*
X95764699Y-109490025D02*
X111600000Y-109490025D01*
D17*
X109000000Y-106950014D02*
X122764699Y-106950014D01*
X95764699Y-106950014D02*
X109000000Y-106950014D01*
D16*
X110000000Y-108220025D02*
X122764699Y-108220025D01*
X95764699Y-108220025D02*
X110000000Y-108220025D01*
%TO.N,+5V*%
X117000000Y-114570025D02*
X122764699Y-114570025D01*
X95764699Y-114570025D02*
X117000000Y-114570025D01*
X95764699Y-115840025D02*
X118000000Y-115840025D01*
X118000000Y-115840025D02*
X122764699Y-115840025D01*
X119000000Y-117110025D02*
X122764699Y-117110025D01*
X95764699Y-117110025D02*
X119000000Y-117110025D01*
%TO.N,+12V*%
X124080000Y-126045326D02*
X122764699Y-124730025D01*
X124080000Y-135000000D02*
X124080000Y-126045326D01*
D17*
X95764699Y-122190025D02*
X95764699Y-124730025D01*
D16*
X122764699Y-122190025D02*
X122764699Y-124730025D01*
%TO.N,+12P*%
X149764699Y-122190025D02*
X149764699Y-124730025D01*
X176764699Y-122190025D02*
X176764699Y-124730025D01*
X149764699Y-124730025D02*
X176764699Y-124730025D01*
X149764699Y-123460025D02*
X176764699Y-123460025D01*
X149764699Y-122190025D02*
X176764699Y-122190025D01*
%TO.N,+12V*%
X95764699Y-124730025D02*
X122764699Y-124730025D01*
X95764699Y-123460025D02*
X122764699Y-123460025D01*
X95764699Y-122190025D02*
X122764699Y-122190025D01*
D17*
%TO.N,+5V*%
X95764699Y-117110025D02*
X95764699Y-114570025D01*
D16*
X122764699Y-117110025D02*
X122764699Y-114570025D01*
%TO.N,+5P*%
X149764699Y-117110025D02*
X149764699Y-114570025D01*
X176764699Y-117110025D02*
X176764699Y-114570025D01*
D17*
%TO.N,+3.3V*%
X95764699Y-106950014D02*
X95764699Y-109490025D01*
D16*
X122764699Y-106950014D02*
X122764699Y-109490025D01*
%TO.N,+3.3VP*%
X149764699Y-109490025D02*
X149764699Y-108220025D01*
X149764699Y-106950014D02*
X149764699Y-108220025D01*
X176764699Y-109490025D02*
X176764699Y-108220025D01*
X176764699Y-106950014D02*
X176764699Y-108220025D01*
D18*
%TO.N,VSS*%
X131160195Y-95000000D02*
X131000000Y-95000000D01*
X134000000Y-92000000D02*
X134000000Y-92160195D01*
X134000000Y-92160195D02*
X131160195Y-95000000D01*
X104160192Y-95000000D02*
X104000000Y-95000000D01*
X107000000Y-92000000D02*
X107000000Y-92160192D01*
X107000000Y-92160192D02*
X104160192Y-95000000D01*
X158160192Y-95000000D02*
X158000000Y-95000000D01*
X161000000Y-92160192D02*
X158160192Y-95000000D01*
X161000000Y-92000000D02*
X161000000Y-92160192D01*
X187000000Y-93051410D02*
X187000000Y-93160192D01*
X187000000Y-93160192D02*
X185160192Y-95000000D01*
X188000000Y-92000000D02*
X187027671Y-92972329D01*
X187027671Y-92972329D02*
X187000000Y-93051410D01*
X185160192Y-95000000D02*
X185000000Y-95000000D01*
D19*
%TO.N,/A3-*%
X184776477Y-92623527D02*
X184776476Y-92623523D01*
%TO.N,/A3+*%
X185130104Y-92269901D02*
X185130101Y-92269898D01*
X185766625Y-91279747D02*
X185908076Y-91138298D01*
%TO.N,/A3-*%
X184882562Y-92729610D02*
X185059375Y-92906423D01*
%TO.N,/A3+*%
X185236188Y-92375984D02*
X185413001Y-92552797D01*
%TO.N,/A3-*%
X187145051Y-87220800D02*
X187530001Y-86835850D01*
X186296920Y-93224544D02*
X186438371Y-93083092D01*
%TO.N,/A3+*%
X186644951Y-90401423D02*
X186644951Y-87220800D01*
X186084746Y-92729466D02*
G75*
G03*
X186084726Y-92517314I-106046J106066D01*
G01*
X183468207Y-92729756D02*
G75*
G02*
X183468162Y-91810289I459693J459756D01*
G01*
X185943295Y-92870918D02*
X186084746Y-92729466D01*
%TO.N,/A3-*%
X187145051Y-90608575D02*
X187145051Y-87220800D01*
X184139951Y-92694251D02*
X183821831Y-92376131D01*
X185377496Y-93224544D02*
G75*
G03*
X186296920Y-93224544I459712J459712D01*
G01*
X184175456Y-92022506D02*
X184493577Y-92340627D01*
%TO.N,/A3+*%
X185731122Y-92870918D02*
G75*
G03*
X185943295Y-92870919I106087J106088D01*
G01*
X183609659Y-91668880D02*
G75*
G02*
X184529083Y-91668880I459712J-459715D01*
G01*
X183468206Y-91810332D02*
X183609659Y-91668880D01*
%TO.N,/A3-*%
X186261701Y-91491923D02*
X187145051Y-90608575D01*
%TO.N,/A3+*%
X183786327Y-93047876D02*
X183468207Y-92729756D01*
X183786325Y-93260049D02*
X183786326Y-93260050D01*
%TO.N,/A3-*%
X184139951Y-93613675D02*
G75*
G03*
X184139914Y-92694288I-459751J459675D01*
G01*
%TO.N,/A3+*%
X185413001Y-92552797D02*
X185731122Y-92870918D01*
%TO.N,/A3-*%
X184493577Y-92340627D02*
X184776477Y-92623527D01*
%TO.N,/A3+*%
X184529083Y-91668880D02*
X184847204Y-91987001D01*
%TO.N,/A3-*%
X186120250Y-91845547D02*
G75*
G02*
X186120290Y-91633413I106050J106047D01*
G01*
%TO.N,/A3+*%
X183786326Y-93260050D02*
G75*
G03*
X183786290Y-93047913I-106126J106050D01*
G01*
X186644951Y-87220800D02*
X186260001Y-86835850D01*
X184847204Y-91987001D02*
X185130104Y-92269901D01*
%TO.N,/A3-*%
X186438371Y-93083092D02*
G75*
G03*
X186438351Y-92163688I-459671J459692D01*
G01*
X183821831Y-92376131D02*
G75*
G02*
X183821787Y-92163913I106069J106131D01*
G01*
%TO.N,/A3+*%
X185130101Y-92269898D02*
X185236188Y-92375984D01*
%TO.N,/A3-*%
X184776476Y-92623523D02*
X184882562Y-92729610D01*
X183963284Y-92022505D02*
G75*
G02*
X184175486Y-92022475I106116J-106095D01*
G01*
X185059375Y-92906423D02*
X185377496Y-93224544D01*
X186120250Y-91633373D02*
X186261701Y-91491923D01*
X183821831Y-92163957D02*
X183963284Y-92022505D01*
%TO.N,/A3+*%
X185766625Y-92199172D02*
G75*
G02*
X185766665Y-91279788I459675J459672D01*
G01*
%TO.N,/A3-*%
X186438371Y-92163668D02*
X186120250Y-91845547D01*
%TO.N,/A3+*%
X185908076Y-91138298D02*
X186644951Y-90401423D01*
X186084746Y-92517293D02*
X185766625Y-92199172D01*
X181287792Y-94394975D02*
X181287792Y-94254699D01*
X180327792Y-94634975D02*
X180216700Y-94634975D01*
X181047792Y-94014699D02*
X180927792Y-94014699D01*
X180687792Y-94254699D02*
X180687792Y-94394975D01*
X180687792Y-94394975D02*
G75*
G02*
X180447792Y-94634992I-239992J-25D01*
G01*
X181527792Y-94634975D02*
G75*
G02*
X181287825Y-94394975I8J239975D01*
G01*
X181287792Y-94254699D02*
G75*
G03*
X181047792Y-94014708I-239992J-1D01*
G01*
X180927792Y-94014699D02*
G75*
G03*
X180687799Y-94254699I8J-240001D01*
G01*
X180216700Y-94634975D02*
X179831750Y-94250025D01*
X180447792Y-94634975D02*
X180327792Y-94634975D01*
%TO.N,/B3-*%
X190214951Y-89160992D02*
X190074653Y-89160992D01*
X190074653Y-89760992D02*
X190214951Y-89760992D01*
X190454951Y-90000992D02*
X190454951Y-90120992D01*
X190074653Y-89160992D02*
G75*
G03*
X189834692Y-89400992I47J-240008D01*
G01*
X190214951Y-89760992D02*
G75*
G02*
X190455008Y-90000992I49J-240008D01*
G01*
X189834653Y-89400992D02*
X189834653Y-89520992D01*
X189834653Y-89520992D02*
G75*
G03*
X190074653Y-89761047I240047J-8D01*
G01*
X190454951Y-88920992D02*
G75*
G02*
X190214951Y-89160951I-239951J-8D01*
G01*
X190454951Y-90120992D02*
X190454951Y-91091423D01*
X190454951Y-91091423D02*
X187620914Y-93925460D01*
%TO.N,/A1+*%
X155411399Y-94634975D02*
X154527792Y-94634975D01*
X156786325Y-93260049D02*
X155411399Y-94634975D01*
X152831750Y-94250025D02*
X149764699Y-94250025D01*
%TO.N,/B1-*%
X153216700Y-98444975D02*
X152831750Y-98060025D01*
X160620914Y-93925460D02*
X156101399Y-98444975D01*
X163454951Y-87220800D02*
X163454951Y-88920992D01*
X163070001Y-86835850D02*
X163454951Y-87220800D01*
X152831750Y-98060025D02*
X149764699Y-98060025D01*
X163070001Y-85178499D02*
X163070001Y-86835850D01*
X156101399Y-98444975D02*
X153216700Y-98444975D01*
%TO.N,/B1+*%
X156308551Y-98945075D02*
X163955051Y-91298575D01*
X164340001Y-86835850D02*
X164340001Y-85178499D01*
X163955051Y-91298575D02*
X163955051Y-87220800D01*
X152831750Y-99330025D02*
X153216700Y-98945075D01*
X149764699Y-99330025D02*
X152831750Y-99330025D01*
X153216700Y-98945075D02*
X156308551Y-98945075D01*
X163955051Y-87220800D02*
X164340001Y-86835850D01*
%TO.N,/A1-*%
X160530001Y-86835850D02*
X160530001Y-85178499D01*
X152831750Y-95520025D02*
X153216700Y-95135075D01*
X153216700Y-95135075D02*
X155618551Y-95135075D01*
X155618551Y-95135075D02*
X157139951Y-93613675D01*
%TO.N,/A1+*%
X159260001Y-86835850D02*
X159260001Y-85178499D01*
%TO.N,/A1-*%
X149764699Y-95520025D02*
X152831750Y-95520025D01*
%TO.N,/B1-*%
X163214951Y-89160992D02*
X163074653Y-89160992D01*
X163074653Y-89760992D02*
X163214951Y-89760992D01*
X162834653Y-89400992D02*
X162834653Y-89520992D01*
X163454951Y-90000992D02*
X163454951Y-90120992D01*
X163454951Y-90120992D02*
X163454951Y-91091423D01*
X163074653Y-89160992D02*
G75*
G03*
X162834692Y-89400992I47J-240008D01*
G01*
X163214951Y-89760992D02*
G75*
G02*
X163455008Y-90000992I49J-240008D01*
G01*
X162834653Y-89520992D02*
G75*
G03*
X163074653Y-89761047I240047J-8D01*
G01*
X163454951Y-88920992D02*
G75*
G02*
X163214951Y-89160951I-239951J-8D01*
G01*
X163454951Y-91091423D02*
X160620914Y-93925460D01*
%TO.N,/A1+*%
X153216700Y-94634975D02*
X152831750Y-94250025D01*
X154047792Y-94014699D02*
X153927792Y-94014699D01*
X153687792Y-94254699D02*
X153687792Y-94394975D01*
X153687792Y-94394975D02*
G75*
G02*
X153447792Y-94634992I-239992J-25D01*
G01*
X154527792Y-94634975D02*
G75*
G02*
X154287825Y-94394975I8J239975D01*
G01*
X153327792Y-94634975D02*
X153216700Y-94634975D01*
X154287792Y-94394975D02*
X154287792Y-94254699D01*
X154287792Y-94254699D02*
G75*
G03*
X154047792Y-94014708I-239992J-1D01*
G01*
X153927792Y-94014699D02*
G75*
G03*
X153687799Y-94254699I8J-240001D01*
G01*
X153447792Y-94634975D02*
X153327792Y-94634975D01*
%TO.N,/A1-*%
X157776477Y-92623527D02*
X157776476Y-92623523D01*
%TO.N,/A1+*%
X158130104Y-92269901D02*
X158130101Y-92269898D01*
X158130101Y-92269898D02*
X158236188Y-92375984D01*
%TO.N,/A1-*%
X157882562Y-92729610D02*
X158059375Y-92906423D01*
%TO.N,/A1+*%
X158236188Y-92375984D02*
X158413001Y-92552797D01*
%TO.N,/A1-*%
X160145051Y-87220800D02*
X160530001Y-86835850D01*
%TO.N,/A1+*%
X158766625Y-91279747D02*
X158908076Y-91138298D01*
%TO.N,/A1-*%
X159296920Y-93224544D02*
X159438371Y-93083092D01*
X156821831Y-92163957D02*
X156963284Y-92022505D01*
X157175456Y-92022506D02*
X157493577Y-92340627D01*
%TO.N,/A1+*%
X158943295Y-92870918D02*
X159084746Y-92729466D01*
X158908076Y-91138298D02*
X159644951Y-90401423D01*
X159644951Y-87220800D02*
X159260001Y-86835850D01*
X159644951Y-90401423D02*
X159644951Y-87220800D01*
%TO.N,/A1-*%
X157493577Y-92340627D02*
X157776477Y-92623527D01*
%TO.N,/A1+*%
X159084746Y-92729466D02*
G75*
G03*
X159084726Y-92517314I-106046J106066D01*
G01*
X156468207Y-92729756D02*
G75*
G02*
X156468162Y-91810289I459693J459756D01*
G01*
%TO.N,/A1-*%
X158377496Y-93224544D02*
G75*
G03*
X159296920Y-93224544I459712J459712D01*
G01*
%TO.N,/A1+*%
X158731122Y-92870918D02*
G75*
G03*
X158943295Y-92870919I106087J106088D01*
G01*
X156786326Y-93260050D02*
G75*
G03*
X156786290Y-93047913I-106126J106050D01*
G01*
X156609659Y-91668880D02*
G75*
G02*
X157529083Y-91668880I459712J-459715D01*
G01*
X156468206Y-91810332D02*
X156609659Y-91668880D01*
X156786325Y-93260049D02*
X156786326Y-93260050D01*
X157529083Y-91668880D02*
X157847204Y-91987001D01*
%TO.N,/A1-*%
X157139951Y-93613675D02*
G75*
G03*
X157139914Y-92694288I-459751J459675D01*
G01*
%TO.N,/A1+*%
X158413001Y-92552797D02*
X158731122Y-92870918D01*
X159084746Y-92517293D02*
X158766625Y-92199172D01*
X156786327Y-93047876D02*
X156468207Y-92729756D01*
%TO.N,/A1-*%
X156821831Y-92376131D02*
G75*
G02*
X156821787Y-92163913I106069J106131D01*
G01*
X160145051Y-90608575D02*
X160145051Y-87220800D01*
X157776476Y-92623523D02*
X157882562Y-92729610D01*
X156963284Y-92022505D02*
G75*
G02*
X157175486Y-92022475I106116J-106095D01*
G01*
X159438371Y-93083092D02*
G75*
G03*
X159438351Y-92163688I-459671J459692D01*
G01*
%TO.N,/A1+*%
X157847204Y-91987001D02*
X158130104Y-92269901D01*
%TO.N,/A1-*%
X158059375Y-92906423D02*
X158377496Y-93224544D01*
X159261701Y-91491923D02*
X160145051Y-90608575D01*
X159120250Y-91633373D02*
X159261701Y-91491923D01*
X157139951Y-92694251D02*
X156821831Y-92376131D01*
%TO.N,/A1+*%
X158766625Y-92199172D02*
G75*
G02*
X158766665Y-91279788I459675J459672D01*
G01*
%TO.N,/A1-*%
X159438371Y-92163668D02*
X159120250Y-91845547D01*
X159120250Y-91845547D02*
G75*
G02*
X159120290Y-91633413I106050J106047D01*
G01*
%TO.N,/A3+*%
X182411399Y-94634975D02*
X181527792Y-94634975D01*
X183786325Y-93260049D02*
X182411399Y-94634975D01*
%TO.N,/A3-*%
X182618551Y-95135075D02*
X184139951Y-93613675D01*
%TO.N,/A3+*%
X186260001Y-86835850D02*
X186260001Y-85178499D01*
%TO.N,/B3+*%
X176764699Y-99330025D02*
X179831750Y-99330025D01*
%TO.N,/A3+*%
X179831750Y-94250025D02*
X176764699Y-94250025D01*
%TO.N,/A3-*%
X179831750Y-95520025D02*
X180216700Y-95135075D01*
%TO.N,/B3+*%
X183308551Y-98945075D02*
X190955051Y-91298575D01*
%TO.N,/B3-*%
X180216700Y-98444975D02*
X179831750Y-98060025D01*
X179831750Y-98060025D02*
X176764699Y-98060025D01*
%TO.N,/B3+*%
X179831750Y-99330025D02*
X180216700Y-98945075D01*
%TO.N,/A3-*%
X176764699Y-95520025D02*
X179831750Y-95520025D01*
%TO.N,/B3-*%
X190070001Y-86835850D02*
X190454951Y-87220800D01*
%TO.N,/B3+*%
X191340001Y-86835850D02*
X191340001Y-85178499D01*
X180216700Y-98945075D02*
X183308551Y-98945075D01*
%TO.N,/B3-*%
X187620914Y-93925460D02*
X183101399Y-98444975D01*
X190454951Y-87220800D02*
X190454951Y-88920992D01*
X190070001Y-85178499D02*
X190070001Y-86835850D01*
X183101399Y-98444975D02*
X180216700Y-98444975D01*
%TO.N,/B3+*%
X190955051Y-91298575D02*
X190955051Y-87220800D01*
X190955051Y-87220800D02*
X191340001Y-86835850D01*
%TO.N,/A3-*%
X187530001Y-86835850D02*
X187530001Y-85178499D01*
X180216700Y-95135075D02*
X182618551Y-95135075D01*
%TO.N,/A2+*%
X128411399Y-94634975D02*
X127527792Y-94634975D01*
X129786325Y-93260049D02*
X128411399Y-94634975D01*
X125831750Y-94250025D02*
X122764699Y-94250025D01*
%TO.N,/B2-*%
X126216700Y-98444975D02*
X125831750Y-98060025D01*
X133620914Y-93925460D02*
X129101399Y-98444975D01*
X136454951Y-87220800D02*
X136454951Y-88920992D01*
X136070001Y-86835850D02*
X136454951Y-87220800D01*
X125831750Y-98060025D02*
X122764699Y-98060025D01*
X136070001Y-85178499D02*
X136070001Y-86835850D01*
X129101399Y-98444975D02*
X126216700Y-98444975D01*
%TO.N,/B2+*%
X129308551Y-98945075D02*
X136955051Y-91298575D01*
X137340001Y-86835850D02*
X137340001Y-85178499D01*
X136955051Y-91298575D02*
X136955051Y-87220800D01*
X125831750Y-99330025D02*
X126216700Y-98945075D01*
X122764699Y-99330025D02*
X125831750Y-99330025D01*
X126216700Y-98945075D02*
X129308551Y-98945075D01*
X136955051Y-87220800D02*
X137340001Y-86835850D01*
%TO.N,/A2-*%
X133530001Y-86835850D02*
X133530001Y-85178499D01*
X125831750Y-95520025D02*
X126216700Y-95135075D01*
X126216700Y-95135075D02*
X128618551Y-95135075D01*
X128618551Y-95135075D02*
X130139951Y-93613675D01*
%TO.N,/A2+*%
X132260001Y-86835850D02*
X132260001Y-85178499D01*
%TO.N,/A2-*%
X122764699Y-95520025D02*
X125831750Y-95520025D01*
%TO.N,/B2-*%
X136214951Y-89160992D02*
X136074653Y-89160992D01*
X136074653Y-89760992D02*
X136214951Y-89760992D01*
X136454951Y-90000992D02*
X136454951Y-90120992D01*
X136074653Y-89160992D02*
G75*
G03*
X135834692Y-89400992I47J-240008D01*
G01*
X136214951Y-89760992D02*
G75*
G02*
X136455008Y-90000992I49J-240008D01*
G01*
X135834653Y-89400992D02*
X135834653Y-89520992D01*
X135834653Y-89520992D02*
G75*
G03*
X136074653Y-89761047I240047J-8D01*
G01*
X136454951Y-88920992D02*
G75*
G02*
X136214951Y-89160951I-239951J-8D01*
G01*
X136454951Y-90120992D02*
X136454951Y-91091423D01*
X136454951Y-91091423D02*
X133620914Y-93925460D01*
%TO.N,/A2+*%
X127287792Y-94394975D02*
X127287792Y-94254699D01*
X126327792Y-94634975D02*
X126216700Y-94634975D01*
X127047792Y-94014699D02*
X126927792Y-94014699D01*
X126687792Y-94254699D02*
X126687792Y-94394975D01*
X126687792Y-94394975D02*
G75*
G02*
X126447792Y-94634992I-239992J-25D01*
G01*
X127527792Y-94634975D02*
G75*
G02*
X127287825Y-94394975I8J239975D01*
G01*
X127287792Y-94254699D02*
G75*
G03*
X127047792Y-94014708I-239992J-1D01*
G01*
X126927792Y-94014699D02*
G75*
G03*
X126687799Y-94254699I8J-240001D01*
G01*
X126216700Y-94634975D02*
X125831750Y-94250025D01*
X126447792Y-94634975D02*
X126327792Y-94634975D01*
X131766625Y-91279747D02*
X131908076Y-91138298D01*
%TO.N,/A2-*%
X130776477Y-92623527D02*
X130776476Y-92623523D01*
%TO.N,/A2+*%
X131130104Y-92269901D02*
X131130101Y-92269898D01*
X131130101Y-92269898D02*
X131236188Y-92375984D01*
%TO.N,/A2-*%
X130882562Y-92729610D02*
X131059375Y-92906423D01*
X133145051Y-87220800D02*
X133530001Y-86835850D01*
%TO.N,/A2+*%
X131236188Y-92375984D02*
X131413001Y-92552797D01*
%TO.N,/A2-*%
X132261701Y-91491923D02*
X133145051Y-90608575D01*
X132296920Y-93224544D02*
X132438371Y-93083092D01*
X130175456Y-92022506D02*
X130493577Y-92340627D01*
%TO.N,/A2+*%
X132644951Y-87220800D02*
X132260001Y-86835850D01*
X132644951Y-90401423D02*
X132644951Y-87220800D01*
X132084746Y-92729466D02*
G75*
G03*
X132084726Y-92517314I-106046J106066D01*
G01*
%TO.N,/A2-*%
X130139951Y-92694251D02*
X129821831Y-92376131D01*
%TO.N,/A2+*%
X129468207Y-92729756D02*
G75*
G02*
X129468162Y-91810289I459693J459756D01*
G01*
X131943295Y-92870918D02*
X132084746Y-92729466D01*
%TO.N,/A2-*%
X133145051Y-90608575D02*
X133145051Y-87220800D01*
X131377496Y-93224544D02*
G75*
G03*
X132296920Y-93224544I459712J459712D01*
G01*
%TO.N,/A2+*%
X131731122Y-92870918D02*
G75*
G03*
X131943295Y-92870919I106087J106088D01*
G01*
X129609659Y-91668880D02*
G75*
G02*
X130529083Y-91668880I459712J-459715D01*
G01*
X129468206Y-91810332D02*
X129609659Y-91668880D01*
X129786327Y-93047876D02*
X129468207Y-92729756D01*
X129786325Y-93260049D02*
X129786326Y-93260050D01*
%TO.N,/A2-*%
X130139951Y-93613675D02*
G75*
G03*
X130139914Y-92694288I-459751J459675D01*
G01*
X130493577Y-92340627D02*
X130776477Y-92623527D01*
%TO.N,/A2+*%
X131413001Y-92552797D02*
X131731122Y-92870918D01*
X130529083Y-91668880D02*
X130847204Y-91987001D01*
%TO.N,/A2-*%
X132120250Y-91845547D02*
G75*
G02*
X132120290Y-91633413I106050J106047D01*
G01*
%TO.N,/A2+*%
X129786326Y-93260050D02*
G75*
G03*
X129786290Y-93047913I-106126J106050D01*
G01*
X130847204Y-91987001D02*
X131130104Y-92269901D01*
%TO.N,/A2-*%
X132438371Y-93083092D02*
G75*
G03*
X132438351Y-92163688I-459671J459692D01*
G01*
%TO.N,/A2+*%
X132084746Y-92517293D02*
X131766625Y-92199172D01*
%TO.N,/A2-*%
X129821831Y-92376131D02*
G75*
G02*
X129821787Y-92163913I106069J106131D01*
G01*
X130776476Y-92623523D02*
X130882562Y-92729610D01*
X129963284Y-92022505D02*
G75*
G02*
X130175486Y-92022475I106116J-106095D01*
G01*
X131059375Y-92906423D02*
X131377496Y-93224544D01*
X132120250Y-91633373D02*
X132261701Y-91491923D01*
X129821831Y-92163957D02*
X129963284Y-92022505D01*
%TO.N,/A2+*%
X131766625Y-92199172D02*
G75*
G02*
X131766665Y-91279788I459675J459672D01*
G01*
%TO.N,/A2-*%
X132438371Y-92163668D02*
X132120250Y-91845547D01*
%TO.N,/A2+*%
X131908076Y-91138298D02*
X132644951Y-90401423D01*
%TO.N,/A+*%
X99216700Y-94634975D02*
X98831750Y-94250025D01*
X101411399Y-94634975D02*
X100527792Y-94634975D01*
X100287792Y-94394975D02*
X100287792Y-94254699D01*
X99327792Y-94634975D02*
X99216700Y-94634975D01*
X102786325Y-93260049D02*
X101411399Y-94634975D01*
X99447792Y-94634975D02*
X99327792Y-94634975D01*
X98831750Y-94250025D02*
X95764699Y-94250025D01*
X100047792Y-94014699D02*
X99927792Y-94014699D01*
X99687792Y-94254699D02*
X99687792Y-94394975D01*
X99687792Y-94394975D02*
G75*
G02*
X99447792Y-94634992I-239992J-25D01*
G01*
X99927792Y-94014699D02*
G75*
G03*
X99687799Y-94254699I8J-240001D01*
G01*
X100527792Y-94634975D02*
G75*
G02*
X100287825Y-94394975I8J239975D01*
G01*
X100287792Y-94254699D02*
G75*
G03*
X100047792Y-94014708I-239992J-1D01*
G01*
%TO.N,/B-*%
X109214951Y-89160992D02*
X109074653Y-89160992D01*
X99216700Y-98444975D02*
X98831750Y-98060025D01*
X109074653Y-89760992D02*
X109214951Y-89760992D01*
X106620914Y-93925460D02*
X102101399Y-98444975D01*
X108834653Y-89400992D02*
X108834653Y-89520992D01*
X109454951Y-90000992D02*
X109454951Y-90120992D01*
X109454951Y-87220800D02*
X109454951Y-88920992D01*
X109070001Y-86835850D02*
X109454951Y-87220800D01*
X109454951Y-91091423D02*
X106620914Y-93925460D01*
X98831750Y-98060025D02*
X95764699Y-98060025D01*
X109454951Y-90120992D02*
X109454951Y-91091423D01*
X109070001Y-85178499D02*
X109070001Y-86835850D01*
X102101399Y-98444975D02*
X99216700Y-98444975D01*
X109454951Y-88920992D02*
G75*
G02*
X109214951Y-89160951I-239951J-8D01*
G01*
X109074653Y-89160992D02*
G75*
G03*
X108834692Y-89400992I47J-240008D01*
G01*
X109214951Y-89760992D02*
G75*
G02*
X109455008Y-90000992I49J-240008D01*
G01*
X108834653Y-89520992D02*
G75*
G03*
X109074653Y-89761047I240047J-8D01*
G01*
%TO.N,/B+*%
X110340001Y-86835850D02*
X110340001Y-85178499D01*
X109955051Y-87220800D02*
X110340001Y-86835850D01*
X109955051Y-91298575D02*
X109955051Y-87220800D01*
X99216700Y-98945075D02*
X102308551Y-98945075D01*
X98831750Y-99330025D02*
X99216700Y-98945075D01*
X95764699Y-99330025D02*
X98831750Y-99330025D01*
X102308551Y-98945075D02*
X109955051Y-91298575D01*
%TO.N,/A-*%
X106530001Y-86835850D02*
X106530001Y-85178499D01*
%TO.N,/A+*%
X104766625Y-91279747D02*
X104908076Y-91138298D01*
%TO.N,/A-*%
X98831750Y-95520025D02*
X99216700Y-95135075D01*
X103776477Y-92623527D02*
X103776476Y-92623523D01*
%TO.N,/A+*%
X103847204Y-91987001D02*
X104130104Y-92269901D01*
X104130104Y-92269901D02*
X104130101Y-92269898D01*
%TO.N,/A-*%
X99216700Y-95135075D02*
X101618551Y-95135075D01*
%TO.N,/A+*%
X102786327Y-93047876D02*
X102468207Y-92729756D01*
X102468206Y-91810332D02*
X102609659Y-91668880D01*
X104130101Y-92269898D02*
X104236188Y-92375984D01*
%TO.N,/A-*%
X103882562Y-92729610D02*
X104059375Y-92906423D01*
X101618551Y-95135075D02*
X103139951Y-93613675D01*
%TO.N,/A+*%
X105084746Y-92517293D02*
X104766625Y-92199172D01*
X104236188Y-92375984D02*
X104413001Y-92552797D01*
%TO.N,/A-*%
X106145051Y-87220800D02*
X106530001Y-86835850D01*
X106145051Y-90608575D02*
X106145051Y-87220800D01*
X105261701Y-91491923D02*
X106145051Y-90608575D01*
%TO.N,/A+*%
X105260001Y-86835850D02*
X105260001Y-85178499D01*
%TO.N,/A-*%
X105438371Y-92163668D02*
X105120250Y-91845547D01*
X105120250Y-91633373D02*
X105261701Y-91491923D01*
X104059375Y-92906423D02*
X104377496Y-93224544D01*
X103776476Y-92623523D02*
X103882562Y-92729610D01*
X103493577Y-92340627D02*
X103776477Y-92623527D01*
X105296920Y-93224544D02*
X105438371Y-93083092D01*
%TO.N,/A+*%
X104908076Y-91138298D02*
X105644951Y-90401423D01*
X104413001Y-92552797D02*
X104731122Y-92870918D01*
%TO.N,/A-*%
X102821831Y-92163957D02*
X102963284Y-92022505D01*
X103175456Y-92022506D02*
X103493577Y-92340627D01*
%TO.N,/A+*%
X104943295Y-92870918D02*
X105084746Y-92729466D01*
%TO.N,/A-*%
X103139951Y-92694251D02*
X102821831Y-92376131D01*
%TO.N,/A+*%
X105644951Y-87220800D02*
X105260001Y-86835850D01*
X103529083Y-91668880D02*
X103847204Y-91987001D01*
X102786325Y-93260049D02*
X102786326Y-93260050D01*
X105644951Y-90401423D02*
X105644951Y-87220800D01*
%TO.N,/A-*%
X95764699Y-95520025D02*
X98831750Y-95520025D01*
X103139951Y-93613675D02*
G75*
G03*
X103139914Y-92694288I-459751J459675D01*
G01*
%TO.N,/A+*%
X105084746Y-92729466D02*
G75*
G03*
X105084726Y-92517314I-106046J106066D01*
G01*
X102468207Y-92729756D02*
G75*
G02*
X102468162Y-91810289I459693J459756D01*
G01*
%TO.N,/A-*%
X105120250Y-91845547D02*
G75*
G02*
X105120290Y-91633413I106050J106047D01*
G01*
X105438371Y-93083092D02*
G75*
G03*
X105438351Y-92163688I-459671J459692D01*
G01*
X104377496Y-93224544D02*
G75*
G03*
X105296920Y-93224544I459712J459712D01*
G01*
%TO.N,/A+*%
X104731122Y-92870918D02*
G75*
G03*
X104943295Y-92870919I106087J106088D01*
G01*
X102786326Y-93260050D02*
G75*
G03*
X102786290Y-93047913I-106126J106050D01*
G01*
%TO.N,/A-*%
X102821831Y-92376131D02*
G75*
G02*
X102821787Y-92163913I106069J106131D01*
G01*
X102963284Y-92022505D02*
G75*
G02*
X103175486Y-92022475I106116J-106095D01*
G01*
%TO.N,/A+*%
X104766625Y-92199172D02*
G75*
G02*
X104766665Y-91279788I459675J459672D01*
G01*
X102609659Y-91668880D02*
G75*
G02*
X103529083Y-91668880I459712J-459715D01*
G01*
%TD*%
%TA.AperFunction,Conductor*%
%TO.N,VSS*%
G36*
X202989841Y-74635942D02*
G01*
X202991209Y-74636034D01*
X202998573Y-74636034D01*
X202998577Y-74636035D01*
X203061764Y-74636034D01*
X203067173Y-74636152D01*
X203451242Y-74652917D01*
X203461975Y-74653857D01*
X203840446Y-74703682D01*
X203851065Y-74705554D01*
X204223762Y-74788176D01*
X204234176Y-74790967D01*
X204598246Y-74905756D01*
X204608381Y-74909445D01*
X204961045Y-75055522D01*
X204970840Y-75060090D01*
X205059464Y-75106224D01*
X205309416Y-75236340D01*
X205318784Y-75241748D01*
X205640719Y-75446842D01*
X205649580Y-75453047D01*
X205952404Y-75685412D01*
X205960685Y-75692361D01*
X206242110Y-75950240D01*
X206249759Y-75957889D01*
X206507638Y-76239314D01*
X206514588Y-76247597D01*
X206527644Y-76264611D01*
X206746952Y-76550419D01*
X206753157Y-76559280D01*
X206958251Y-76881215D01*
X206963659Y-76890583D01*
X207139907Y-77229154D01*
X207144479Y-77238959D01*
X207290548Y-77591603D01*
X207294247Y-77601766D01*
X207402391Y-77944760D01*
X207409027Y-77965805D01*
X207411827Y-77976254D01*
X207494442Y-78348917D01*
X207496320Y-78359570D01*
X207546140Y-78738002D01*
X207547083Y-78748779D01*
X207563847Y-79132827D01*
X207563965Y-79138235D01*
X207563965Y-79211410D01*
X207563966Y-79211423D01*
X207563966Y-137990966D01*
X207563965Y-137990984D01*
X207563965Y-138061764D01*
X207563847Y-138067172D01*
X207547083Y-138451220D01*
X207546140Y-138461997D01*
X207496320Y-138840429D01*
X207494442Y-138851082D01*
X207411827Y-139223745D01*
X207409027Y-139234194D01*
X207294248Y-139598231D01*
X207290548Y-139608396D01*
X207144479Y-139961040D01*
X207139907Y-139970845D01*
X206963659Y-140309416D01*
X206958251Y-140318784D01*
X206753157Y-140640719D01*
X206746952Y-140649580D01*
X206514592Y-140952398D01*
X206507638Y-140960685D01*
X206249759Y-141242110D01*
X206242110Y-141249759D01*
X205960685Y-141507638D01*
X205952398Y-141514592D01*
X205649580Y-141746952D01*
X205640719Y-141753157D01*
X205318784Y-141958251D01*
X205309416Y-141963659D01*
X204970845Y-142139907D01*
X204961040Y-142144479D01*
X204608396Y-142290548D01*
X204598231Y-142294248D01*
X204234194Y-142409027D01*
X204223745Y-142411827D01*
X203851082Y-142494442D01*
X203840429Y-142496320D01*
X203461997Y-142546140D01*
X203451220Y-142547083D01*
X203067172Y-142563847D01*
X203061764Y-142563965D01*
X202990983Y-142563965D01*
X202990967Y-142563966D01*
X91009033Y-142563966D01*
X91009017Y-142563965D01*
X90938235Y-142563965D01*
X90932827Y-142563847D01*
X90548779Y-142547083D01*
X90538003Y-142546140D01*
X90348786Y-142521230D01*
X90159570Y-142496320D01*
X90148917Y-142494442D01*
X89776254Y-142411827D01*
X89765805Y-142409027D01*
X89401768Y-142294248D01*
X89391603Y-142290548D01*
X89038959Y-142144479D01*
X89029154Y-142139907D01*
X88690583Y-141963659D01*
X88681215Y-141958251D01*
X88359280Y-141753157D01*
X88350419Y-141746952D01*
X88053123Y-141518829D01*
X88047597Y-141514588D01*
X88039314Y-141507638D01*
X87757889Y-141249759D01*
X87750240Y-141242110D01*
X87492361Y-140960685D01*
X87485407Y-140952398D01*
X87253047Y-140649580D01*
X87246842Y-140640719D01*
X87041748Y-140318784D01*
X87036340Y-140309416D01*
X86860092Y-139970845D01*
X86855520Y-139961040D01*
X86751726Y-139710457D01*
X86709445Y-139608381D01*
X86705756Y-139598246D01*
X86590967Y-139234176D01*
X86588176Y-139223762D01*
X86538570Y-138999997D01*
X87695153Y-138999997D01*
X87695153Y-139000002D01*
X87714526Y-139357314D01*
X87714527Y-139357331D01*
X87772415Y-139710431D01*
X87772421Y-139710457D01*
X87868147Y-140055232D01*
X87868149Y-140055239D01*
X88000597Y-140387659D01*
X88000606Y-140387677D01*
X88168218Y-140703827D01*
X88369033Y-141000007D01*
X88496441Y-141150003D01*
X88496442Y-141150004D01*
X89705748Y-139940698D01*
X89779588Y-140042330D01*
X89957670Y-140220412D01*
X90059300Y-140294251D01*
X88847255Y-141506295D01*
X88847256Y-141506296D01*
X88860485Y-141518828D01*
X88860486Y-141518829D01*
X89145367Y-141735388D01*
X89145370Y-141735390D01*
X89451990Y-141919876D01*
X89776739Y-142070122D01*
X89776744Y-142070123D01*
X90115855Y-142184383D01*
X90465339Y-142261311D01*
X90821075Y-142299999D01*
X90821085Y-142300000D01*
X91178915Y-142300000D01*
X91178924Y-142299999D01*
X91534660Y-142261311D01*
X91884144Y-142184383D01*
X92223255Y-142070123D01*
X92223260Y-142070122D01*
X92548009Y-141919876D01*
X92854629Y-141735390D01*
X92854632Y-141735388D01*
X93139504Y-141518836D01*
X93152742Y-141506294D01*
X91940698Y-140294251D01*
X92042330Y-140220412D01*
X92220412Y-140042330D01*
X92294251Y-139940698D01*
X93503556Y-141150003D01*
X93630964Y-141000008D01*
X93630975Y-140999994D01*
X93831781Y-140703827D01*
X93999393Y-140387677D01*
X93999402Y-140387659D01*
X94131850Y-140055239D01*
X94131852Y-140055232D01*
X94227578Y-139710457D01*
X94227584Y-139710431D01*
X94285472Y-139357331D01*
X94285473Y-139357314D01*
X94304847Y-139000002D01*
X94304847Y-138999997D01*
X199695153Y-138999997D01*
X199695153Y-139000002D01*
X199714526Y-139357314D01*
X199714527Y-139357331D01*
X199772415Y-139710431D01*
X199772421Y-139710457D01*
X199868147Y-140055232D01*
X199868149Y-140055239D01*
X200000597Y-140387659D01*
X200000606Y-140387677D01*
X200168218Y-140703827D01*
X200369033Y-141000007D01*
X200496441Y-141150003D01*
X200496442Y-141150004D01*
X201705748Y-139940698D01*
X201779588Y-140042330D01*
X201957670Y-140220412D01*
X202059300Y-140294251D01*
X200847255Y-141506295D01*
X200847256Y-141506296D01*
X200860485Y-141518828D01*
X200860486Y-141518829D01*
X201145367Y-141735388D01*
X201145370Y-141735390D01*
X201451990Y-141919876D01*
X201776739Y-142070122D01*
X201776744Y-142070123D01*
X202115855Y-142184383D01*
X202465339Y-142261311D01*
X202821075Y-142299999D01*
X202821085Y-142300000D01*
X203178915Y-142300000D01*
X203178924Y-142299999D01*
X203534660Y-142261311D01*
X203884144Y-142184383D01*
X204223255Y-142070123D01*
X204223260Y-142070122D01*
X204548009Y-141919876D01*
X204854629Y-141735390D01*
X204854632Y-141735388D01*
X205139504Y-141518836D01*
X205152742Y-141506294D01*
X203940698Y-140294251D01*
X204042330Y-140220412D01*
X204220412Y-140042330D01*
X204294251Y-139940698D01*
X205503556Y-141150003D01*
X205630964Y-141000008D01*
X205630975Y-140999994D01*
X205831781Y-140703827D01*
X205999393Y-140387677D01*
X205999402Y-140387659D01*
X206131850Y-140055239D01*
X206131852Y-140055232D01*
X206227578Y-139710457D01*
X206227584Y-139710431D01*
X206285472Y-139357331D01*
X206285473Y-139357314D01*
X206304847Y-139000002D01*
X206304847Y-138999997D01*
X206285473Y-138642685D01*
X206285472Y-138642668D01*
X206227584Y-138289568D01*
X206227578Y-138289542D01*
X206131852Y-137944767D01*
X206131850Y-137944760D01*
X205999402Y-137612340D01*
X205999393Y-137612322D01*
X205831781Y-137296172D01*
X205630966Y-136999992D01*
X205503557Y-136849995D01*
X205503556Y-136849994D01*
X204294250Y-138059300D01*
X204220412Y-137957670D01*
X204042330Y-137779588D01*
X203940697Y-137705747D01*
X205152743Y-136493703D01*
X205152742Y-136493702D01*
X205139514Y-136481171D01*
X205139513Y-136481170D01*
X204854632Y-136264611D01*
X204854629Y-136264609D01*
X204548009Y-136080123D01*
X204223260Y-135929877D01*
X204223255Y-135929876D01*
X203884144Y-135815616D01*
X203534660Y-135738688D01*
X203178924Y-135700000D01*
X202821075Y-135700000D01*
X202465339Y-135738688D01*
X202115855Y-135815616D01*
X201776744Y-135929876D01*
X201776739Y-135929877D01*
X201451990Y-136080123D01*
X201145370Y-136264609D01*
X201145367Y-136264611D01*
X200860491Y-136481166D01*
X200847256Y-136493703D01*
X200847255Y-136493703D01*
X202059301Y-137705748D01*
X201957670Y-137779588D01*
X201779588Y-137957670D01*
X201705748Y-138059301D01*
X200496442Y-136849994D01*
X200496441Y-136849995D01*
X200369040Y-136999983D01*
X200369033Y-136999993D01*
X200168218Y-137296172D01*
X200000606Y-137612322D01*
X200000597Y-137612340D01*
X199868149Y-137944760D01*
X199868147Y-137944767D01*
X199772421Y-138289542D01*
X199772415Y-138289568D01*
X199714527Y-138642668D01*
X199714526Y-138642685D01*
X199695153Y-138999997D01*
X94304847Y-138999997D01*
X94285473Y-138642685D01*
X94285472Y-138642668D01*
X94227584Y-138289568D01*
X94227578Y-138289542D01*
X94131852Y-137944767D01*
X94131850Y-137944760D01*
X93999402Y-137612340D01*
X93999393Y-137612322D01*
X93831781Y-137296172D01*
X93630966Y-136999992D01*
X93503557Y-136849995D01*
X93503556Y-136849994D01*
X92294250Y-138059300D01*
X92220412Y-137957670D01*
X92042330Y-137779588D01*
X91940697Y-137705747D01*
X93152743Y-136493703D01*
X93152742Y-136493702D01*
X93139514Y-136481171D01*
X93139513Y-136481170D01*
X92854632Y-136264611D01*
X92854629Y-136264609D01*
X92548009Y-136080123D01*
X92223260Y-135929877D01*
X92223255Y-135929876D01*
X91884144Y-135815616D01*
X91534660Y-135738688D01*
X91178924Y-135700000D01*
X90821075Y-135700000D01*
X90465339Y-135738688D01*
X90115855Y-135815616D01*
X89776744Y-135929876D01*
X89776739Y-135929877D01*
X89451990Y-136080123D01*
X89145370Y-136264609D01*
X89145367Y-136264611D01*
X88860491Y-136481166D01*
X88847256Y-136493703D01*
X88847255Y-136493703D01*
X90059301Y-137705748D01*
X89957670Y-137779588D01*
X89779588Y-137957670D01*
X89705748Y-138059301D01*
X88496442Y-136849994D01*
X88496441Y-136849995D01*
X88369040Y-136999983D01*
X88369033Y-136999993D01*
X88168218Y-137296172D01*
X88000606Y-137612322D01*
X88000597Y-137612340D01*
X87868149Y-137944760D01*
X87868147Y-137944767D01*
X87772421Y-138289542D01*
X87772415Y-138289568D01*
X87714527Y-138642668D01*
X87714526Y-138642685D01*
X87695153Y-138999997D01*
X86538570Y-138999997D01*
X86505554Y-138851065D01*
X86503682Y-138840446D01*
X86453857Y-138461975D01*
X86452917Y-138451241D01*
X86436154Y-138067251D01*
X86436037Y-138061709D01*
X86436345Y-137779588D01*
X86439473Y-134913389D01*
X104079500Y-134913389D01*
X104079500Y-135086610D01*
X104098398Y-135205932D01*
X104106598Y-135257701D01*
X104160127Y-135422445D01*
X104238768Y-135576788D01*
X104340586Y-135716928D01*
X104463072Y-135839414D01*
X104603212Y-135941232D01*
X104757555Y-136019873D01*
X104922299Y-136073402D01*
X105093389Y-136100500D01*
X105093390Y-136100500D01*
X105266610Y-136100500D01*
X105266611Y-136100500D01*
X105437701Y-136073402D01*
X105602445Y-136019873D01*
X105756788Y-135941232D01*
X105896928Y-135839414D01*
X106019414Y-135716928D01*
X106121232Y-135576788D01*
X106199873Y-135422445D01*
X106253402Y-135257701D01*
X106280500Y-135086611D01*
X106280500Y-134913389D01*
X106253402Y-134742299D01*
X106199873Y-134577555D01*
X106121232Y-134423212D01*
X106019414Y-134283072D01*
X105896928Y-134160586D01*
X105756788Y-134058768D01*
X105602445Y-133980127D01*
X105437701Y-133926598D01*
X105437699Y-133926597D01*
X105437698Y-133926597D01*
X105306271Y-133905781D01*
X105266611Y-133899500D01*
X105093389Y-133899500D01*
X105053728Y-133905781D01*
X104922302Y-133926597D01*
X104757552Y-133980128D01*
X104603211Y-134058768D01*
X104523256Y-134116859D01*
X104463072Y-134160586D01*
X104463070Y-134160588D01*
X104463069Y-134160588D01*
X104340588Y-134283069D01*
X104340588Y-134283070D01*
X104340586Y-134283072D01*
X104296859Y-134343256D01*
X104238768Y-134423211D01*
X104160128Y-134577552D01*
X104160127Y-134577554D01*
X104160127Y-134577555D01*
X104154120Y-134596043D01*
X104106597Y-134742302D01*
X104079500Y-134913389D01*
X86439473Y-134913389D01*
X86446902Y-128106354D01*
X93320398Y-128106354D01*
X93320398Y-128333691D01*
X93355962Y-128558232D01*
X93355962Y-128558235D01*
X93426211Y-128774439D01*
X93426213Y-128774442D01*
X93529422Y-128977001D01*
X93663048Y-129160921D01*
X93823800Y-129321673D01*
X94007720Y-129455299D01*
X94210279Y-129558508D01*
X94210281Y-129558509D01*
X94426486Y-129628758D01*
X94426487Y-129628758D01*
X94426490Y-129628759D01*
X94651029Y-129664323D01*
X94651030Y-129664323D01*
X94878366Y-129664323D01*
X94878367Y-129664323D01*
X95102906Y-129628759D01*
X95102909Y-129628758D01*
X95102910Y-129628758D01*
X95319114Y-129558509D01*
X95319114Y-129558508D01*
X95319117Y-129558508D01*
X95521676Y-129455299D01*
X95705596Y-129321673D01*
X95866348Y-129160921D01*
X95999974Y-128977001D01*
X96103183Y-128774442D01*
X96173434Y-128558231D01*
X96208998Y-128333692D01*
X96208998Y-128106354D01*
X96173434Y-127881815D01*
X96173433Y-127881811D01*
X96173433Y-127881810D01*
X96103184Y-127665606D01*
X95999973Y-127463044D01*
X95866348Y-127279125D01*
X95705596Y-127118373D01*
X95521676Y-126984747D01*
X95319114Y-126881536D01*
X95102909Y-126811287D01*
X94934501Y-126784614D01*
X94878367Y-126775723D01*
X94651029Y-126775723D01*
X94576182Y-126787577D01*
X94426488Y-126811287D01*
X94426485Y-126811287D01*
X94210281Y-126881536D01*
X94007719Y-126984747D01*
X93902786Y-127060985D01*
X93823800Y-127118373D01*
X93823798Y-127118375D01*
X93823797Y-127118375D01*
X93663050Y-127279122D01*
X93663050Y-127279123D01*
X93663048Y-127279125D01*
X93627169Y-127328508D01*
X93529422Y-127463044D01*
X93426211Y-127665606D01*
X93355962Y-127881810D01*
X93355962Y-127881813D01*
X93320398Y-128106354D01*
X86446902Y-128106354D01*
X86453897Y-121697660D01*
X93219499Y-121697660D01*
X93219499Y-122682395D01*
X93219500Y-122682401D01*
X93225907Y-122742007D01*
X93240709Y-122781694D01*
X93245692Y-122851386D01*
X93240709Y-122868356D01*
X93225907Y-122908042D01*
X93219500Y-122967641D01*
X93219499Y-122967660D01*
X93219499Y-123952395D01*
X93219500Y-123952401D01*
X93225907Y-124012007D01*
X93240709Y-124051694D01*
X93245692Y-124121386D01*
X93240709Y-124138356D01*
X93225907Y-124178042D01*
X93219500Y-124237641D01*
X93219499Y-124237660D01*
X93219499Y-125222395D01*
X93219500Y-125222401D01*
X93225907Y-125282008D01*
X93276201Y-125416853D01*
X93276205Y-125416860D01*
X93362451Y-125532069D01*
X93362454Y-125532072D01*
X93477663Y-125618318D01*
X93477670Y-125618322D01*
X93612516Y-125668616D01*
X93612515Y-125668616D01*
X93619443Y-125669360D01*
X93672126Y-125675025D01*
X95407031Y-125675024D01*
X95454482Y-125684462D01*
X95456229Y-125685185D01*
X95472864Y-125692076D01*
X95472868Y-125692076D01*
X95472869Y-125692077D01*
X95666155Y-125730525D01*
X95666158Y-125730525D01*
X95863242Y-125730525D01*
X96056529Y-125692077D01*
X96056529Y-125692076D01*
X96056534Y-125692076D01*
X96067954Y-125687345D01*
X96074914Y-125684463D01*
X96122367Y-125675024D01*
X97857270Y-125675024D01*
X97857271Y-125675024D01*
X97916882Y-125668616D01*
X97998048Y-125638343D01*
X98041381Y-125630525D01*
X120488017Y-125630525D01*
X120531350Y-125638343D01*
X120612516Y-125668616D01*
X120612515Y-125668616D01*
X120619443Y-125669360D01*
X120672126Y-125675025D01*
X122384836Y-125675024D01*
X122451875Y-125694709D01*
X122472517Y-125711343D01*
X123143181Y-126382006D01*
X123176666Y-126443329D01*
X123179500Y-126469687D01*
X123179500Y-127328508D01*
X123159815Y-127395547D01*
X123107011Y-127441302D01*
X123037853Y-127451246D01*
X122974297Y-127422221D01*
X122955182Y-127401394D01*
X122946229Y-127389071D01*
X122866348Y-127279125D01*
X122705596Y-127118373D01*
X122521676Y-126984747D01*
X122319114Y-126881536D01*
X122102909Y-126811287D01*
X121934501Y-126784614D01*
X121878367Y-126775723D01*
X121651029Y-126775723D01*
X121576182Y-126787577D01*
X121426488Y-126811287D01*
X121426485Y-126811287D01*
X121210281Y-126881536D01*
X121007719Y-126984747D01*
X120902786Y-127060985D01*
X120823800Y-127118373D01*
X120823798Y-127118375D01*
X120823797Y-127118375D01*
X120663050Y-127279122D01*
X120663050Y-127279123D01*
X120663048Y-127279125D01*
X120627169Y-127328508D01*
X120529422Y-127463044D01*
X120426211Y-127665606D01*
X120355962Y-127881810D01*
X120355962Y-127881813D01*
X120320398Y-128106354D01*
X120320398Y-128333691D01*
X120355962Y-128558232D01*
X120355962Y-128558235D01*
X120426211Y-128774439D01*
X120426213Y-128774442D01*
X120529422Y-128977001D01*
X120663048Y-129160921D01*
X120823800Y-129321673D01*
X121007720Y-129455299D01*
X121210279Y-129558508D01*
X121210281Y-129558509D01*
X121426486Y-129628758D01*
X121426487Y-129628758D01*
X121426490Y-129628759D01*
X121651029Y-129664323D01*
X121651030Y-129664323D01*
X121878366Y-129664323D01*
X121878367Y-129664323D01*
X122102906Y-129628759D01*
X122102909Y-129628758D01*
X122102910Y-129628758D01*
X122319114Y-129558509D01*
X122319114Y-129558508D01*
X122319117Y-129558508D01*
X122521676Y-129455299D01*
X122705596Y-129321673D01*
X122866348Y-129160921D01*
X122955183Y-129038650D01*
X123010512Y-128995986D01*
X123080125Y-128990007D01*
X123141920Y-129022613D01*
X123176278Y-129083452D01*
X123179500Y-129111537D01*
X123179500Y-133847644D01*
X123159815Y-133914683D01*
X123107011Y-133960438D01*
X123037853Y-133970382D01*
X123019510Y-133966306D01*
X123015838Y-133965192D01*
X123015835Y-133965191D01*
X122810000Y-133944919D01*
X122604165Y-133965191D01*
X122406233Y-134025233D01*
X122233453Y-134117586D01*
X122165050Y-134131828D01*
X122116547Y-134117586D01*
X121943766Y-134025233D01*
X121745834Y-133965191D01*
X121540000Y-133944919D01*
X121334165Y-133965191D01*
X121136233Y-134025233D01*
X120963453Y-134117586D01*
X120895050Y-134131828D01*
X120846547Y-134117586D01*
X120673766Y-134025233D01*
X120475834Y-133965191D01*
X120270000Y-133944919D01*
X120064165Y-133965191D01*
X119866237Y-134025232D01*
X119693982Y-134117304D01*
X119625579Y-134131545D01*
X119577076Y-134117303D01*
X119403958Y-134024769D01*
X119256794Y-133980128D01*
X119205934Y-133964700D01*
X119205932Y-133964699D01*
X119205934Y-133964699D01*
X119000000Y-133944417D01*
X118794067Y-133964699D01*
X118596041Y-134024769D01*
X118423453Y-134117020D01*
X118355050Y-134131262D01*
X118306547Y-134117020D01*
X118133958Y-134024769D01*
X117986794Y-133980128D01*
X117935934Y-133964700D01*
X117935932Y-133964699D01*
X117935934Y-133964699D01*
X117730000Y-133944417D01*
X117524067Y-133964699D01*
X117326041Y-134024769D01*
X117153453Y-134117020D01*
X117085050Y-134131262D01*
X117036547Y-134117020D01*
X116863958Y-134024769D01*
X116716794Y-133980128D01*
X116665934Y-133964700D01*
X116665932Y-133964699D01*
X116665934Y-133964699D01*
X116460000Y-133944417D01*
X116254067Y-133964699D01*
X116056041Y-134024769D01*
X115882924Y-134117303D01*
X115814521Y-134131545D01*
X115766018Y-134117304D01*
X115593762Y-134025232D01*
X115395834Y-133965191D01*
X115190000Y-133944919D01*
X114984165Y-133965191D01*
X114786233Y-134025233D01*
X114613453Y-134117586D01*
X114545050Y-134131828D01*
X114496547Y-134117586D01*
X114323766Y-134025233D01*
X114125834Y-133965191D01*
X113920000Y-133944919D01*
X113714165Y-133965191D01*
X113516233Y-134025233D01*
X113343453Y-134117586D01*
X113275050Y-134131828D01*
X113226547Y-134117586D01*
X113053766Y-134025233D01*
X112855834Y-133965191D01*
X112650000Y-133944919D01*
X112444165Y-133965191D01*
X112246237Y-134025232D01*
X112073982Y-134117304D01*
X112005579Y-134131545D01*
X111957076Y-134117303D01*
X111783958Y-134024769D01*
X111636794Y-133980128D01*
X111585934Y-133964700D01*
X111585932Y-133964699D01*
X111585934Y-133964699D01*
X111380000Y-133944417D01*
X111174067Y-133964699D01*
X110976041Y-134024769D01*
X110803453Y-134117020D01*
X110735050Y-134131262D01*
X110686547Y-134117020D01*
X110513958Y-134024769D01*
X110366794Y-133980128D01*
X110315934Y-133964700D01*
X110315932Y-133964699D01*
X110315934Y-133964699D01*
X110110000Y-133944417D01*
X109904067Y-133964699D01*
X109706041Y-134024769D01*
X109533453Y-134117020D01*
X109465050Y-134131262D01*
X109416547Y-134117020D01*
X109243958Y-134024769D01*
X109096794Y-133980128D01*
X109045934Y-133964700D01*
X109045932Y-133964699D01*
X109045934Y-133964699D01*
X108840000Y-133944417D01*
X108634067Y-133964699D01*
X108436043Y-134024769D01*
X108372437Y-134058768D01*
X108253550Y-134122315D01*
X108253548Y-134122316D01*
X108253547Y-134122317D01*
X108093589Y-134253589D01*
X107962317Y-134413547D01*
X107864769Y-134596043D01*
X107804699Y-134794067D01*
X107784417Y-135000000D01*
X107804699Y-135205932D01*
X107804700Y-135205934D01*
X107864768Y-135403954D01*
X107962315Y-135586450D01*
X107962317Y-135586452D01*
X108093589Y-135746410D01*
X108177918Y-135815616D01*
X108253550Y-135877685D01*
X108436046Y-135975232D01*
X108634066Y-136035300D01*
X108634065Y-136035300D01*
X108652529Y-136037118D01*
X108840000Y-136055583D01*
X109045934Y-136035300D01*
X109243954Y-135975232D01*
X109416548Y-135882977D01*
X109484949Y-135868736D01*
X109533450Y-135882976D01*
X109706046Y-135975232D01*
X109904066Y-136035300D01*
X109904065Y-136035300D01*
X109922529Y-136037118D01*
X110110000Y-136055583D01*
X110315934Y-136035300D01*
X110513954Y-135975232D01*
X110686548Y-135882977D01*
X110754949Y-135868736D01*
X110803450Y-135882976D01*
X110976046Y-135975232D01*
X111174066Y-136035300D01*
X111174065Y-136035300D01*
X111192529Y-136037118D01*
X111380000Y-136055583D01*
X111585934Y-136035300D01*
X111783954Y-135975232D01*
X111957078Y-135882693D01*
X112025476Y-135868453D01*
X112073981Y-135882695D01*
X112246233Y-135974766D01*
X112444165Y-136034808D01*
X112650000Y-136055080D01*
X112855834Y-136034808D01*
X113053764Y-135974766D01*
X113226546Y-135882412D01*
X113294949Y-135868170D01*
X113343454Y-135882412D01*
X113516235Y-135974766D01*
X113714165Y-136034808D01*
X113920000Y-136055080D01*
X114125834Y-136034808D01*
X114323764Y-135974766D01*
X114496546Y-135882412D01*
X114564949Y-135868170D01*
X114613454Y-135882412D01*
X114786235Y-135974766D01*
X114984165Y-136034808D01*
X115190000Y-136055080D01*
X115395834Y-136034808D01*
X115593764Y-135974766D01*
X115766016Y-135882695D01*
X115834419Y-135868453D01*
X115882921Y-135882694D01*
X116056046Y-135975232D01*
X116254066Y-136035300D01*
X116254065Y-136035300D01*
X116272529Y-136037118D01*
X116460000Y-136055583D01*
X116665934Y-136035300D01*
X116863954Y-135975232D01*
X117036548Y-135882977D01*
X117104949Y-135868736D01*
X117153450Y-135882976D01*
X117326046Y-135975232D01*
X117524066Y-136035300D01*
X117524065Y-136035300D01*
X117542529Y-136037118D01*
X117730000Y-136055583D01*
X117935934Y-136035300D01*
X118133954Y-135975232D01*
X118306548Y-135882977D01*
X118374949Y-135868736D01*
X118423450Y-135882976D01*
X118596046Y-135975232D01*
X118794066Y-136035300D01*
X118794065Y-136035300D01*
X118812529Y-136037118D01*
X119000000Y-136055583D01*
X119205934Y-136035300D01*
X119403954Y-135975232D01*
X119577078Y-135882693D01*
X119645476Y-135868453D01*
X119693981Y-135882695D01*
X119866233Y-135974766D01*
X120064165Y-136034808D01*
X120270000Y-136055080D01*
X120475834Y-136034808D01*
X120673764Y-135974766D01*
X120846546Y-135882412D01*
X120914949Y-135868170D01*
X120963454Y-135882412D01*
X121136235Y-135974766D01*
X121334165Y-136034808D01*
X121540000Y-136055080D01*
X121745834Y-136034808D01*
X121943764Y-135974766D01*
X122116546Y-135882412D01*
X122184949Y-135868170D01*
X122233454Y-135882412D01*
X122406235Y-135974766D01*
X122604165Y-136034808D01*
X122810000Y-136055080D01*
X123015834Y-136034808D01*
X123213764Y-135974766D01*
X123386016Y-135882695D01*
X123454419Y-135868453D01*
X123502921Y-135882694D01*
X123676046Y-135975232D01*
X123874066Y-136035300D01*
X123874065Y-136035300D01*
X123892529Y-136037118D01*
X124080000Y-136055583D01*
X124285934Y-136035300D01*
X124483954Y-135975232D01*
X124656548Y-135882977D01*
X124724949Y-135868736D01*
X124773450Y-135882976D01*
X124946046Y-135975232D01*
X125144066Y-136035300D01*
X125144065Y-136035300D01*
X125162529Y-136037118D01*
X125350000Y-136055583D01*
X125555934Y-136035300D01*
X125753954Y-135975232D01*
X125926548Y-135882977D01*
X125994949Y-135868736D01*
X126043450Y-135882976D01*
X126216046Y-135975232D01*
X126414066Y-136035300D01*
X126414065Y-136035300D01*
X126432529Y-136037118D01*
X126620000Y-136055583D01*
X126825934Y-136035300D01*
X127023954Y-135975232D01*
X127206450Y-135877685D01*
X127366410Y-135746410D01*
X127497685Y-135586450D01*
X127595232Y-135403954D01*
X127655300Y-135205934D01*
X127675583Y-135000000D01*
X127667052Y-134913389D01*
X128609500Y-134913389D01*
X128609500Y-135086610D01*
X128628398Y-135205932D01*
X128636598Y-135257701D01*
X128690127Y-135422445D01*
X128768768Y-135576788D01*
X128870586Y-135716928D01*
X128993072Y-135839414D01*
X129133212Y-135941232D01*
X129287555Y-136019873D01*
X129452299Y-136073402D01*
X129623389Y-136100500D01*
X129623390Y-136100500D01*
X129796610Y-136100500D01*
X129796611Y-136100500D01*
X129967701Y-136073402D01*
X130132445Y-136019873D01*
X130286788Y-135941232D01*
X130426928Y-135839414D01*
X130549414Y-135716928D01*
X130651232Y-135576788D01*
X130729873Y-135422445D01*
X130783402Y-135257701D01*
X130810500Y-135086611D01*
X130810500Y-134913389D01*
X158079500Y-134913389D01*
X158079500Y-135086610D01*
X158098398Y-135205932D01*
X158106598Y-135257701D01*
X158160127Y-135422445D01*
X158238768Y-135576788D01*
X158340586Y-135716928D01*
X158463072Y-135839414D01*
X158603212Y-135941232D01*
X158757555Y-136019873D01*
X158922299Y-136073402D01*
X159093389Y-136100500D01*
X159093390Y-136100500D01*
X159266610Y-136100500D01*
X159266611Y-136100500D01*
X159437701Y-136073402D01*
X159602445Y-136019873D01*
X159756788Y-135941232D01*
X159896928Y-135839414D01*
X160019414Y-135716928D01*
X160121232Y-135576788D01*
X160199873Y-135422445D01*
X160253402Y-135257701D01*
X160280500Y-135086611D01*
X160280500Y-134913389D01*
X160253402Y-134742299D01*
X160199873Y-134577555D01*
X160121232Y-134423212D01*
X160019414Y-134283072D01*
X159896928Y-134160586D01*
X159756788Y-134058768D01*
X159602445Y-133980127D01*
X159437701Y-133926598D01*
X159437699Y-133926597D01*
X159437698Y-133926597D01*
X159306271Y-133905781D01*
X159266611Y-133899500D01*
X159093389Y-133899500D01*
X159053728Y-133905781D01*
X158922302Y-133926597D01*
X158757552Y-133980128D01*
X158603211Y-134058768D01*
X158523256Y-134116859D01*
X158463072Y-134160586D01*
X158463070Y-134160588D01*
X158463069Y-134160588D01*
X158340588Y-134283069D01*
X158340588Y-134283070D01*
X158340586Y-134283072D01*
X158296859Y-134343256D01*
X158238768Y-134423211D01*
X158160128Y-134577552D01*
X158160127Y-134577554D01*
X158160127Y-134577555D01*
X158154120Y-134596043D01*
X158106597Y-134742302D01*
X158079500Y-134913389D01*
X130810500Y-134913389D01*
X130783402Y-134742299D01*
X130729873Y-134577555D01*
X130651232Y-134423212D01*
X130549414Y-134283072D01*
X130426928Y-134160586D01*
X130286788Y-134058768D01*
X130132445Y-133980127D01*
X129967701Y-133926598D01*
X129967699Y-133926597D01*
X129967698Y-133926597D01*
X129836271Y-133905781D01*
X129796611Y-133899500D01*
X129623389Y-133899500D01*
X129583728Y-133905781D01*
X129452302Y-133926597D01*
X129287552Y-133980128D01*
X129133211Y-134058768D01*
X129053256Y-134116859D01*
X128993072Y-134160586D01*
X128993070Y-134160588D01*
X128993069Y-134160588D01*
X128870588Y-134283069D01*
X128870588Y-134283070D01*
X128870586Y-134283072D01*
X128826859Y-134343256D01*
X128768768Y-134423211D01*
X128690128Y-134577552D01*
X128690127Y-134577554D01*
X128690127Y-134577555D01*
X128684120Y-134596043D01*
X128636597Y-134742302D01*
X128609500Y-134913389D01*
X127667052Y-134913389D01*
X127655300Y-134794066D01*
X127595232Y-134596046D01*
X127595230Y-134596043D01*
X127595230Y-134596041D01*
X127535142Y-134483625D01*
X127520500Y-134425172D01*
X127520500Y-128106354D01*
X147320398Y-128106354D01*
X147320398Y-128333691D01*
X147355962Y-128558232D01*
X147355962Y-128558235D01*
X147426211Y-128774439D01*
X147426213Y-128774442D01*
X147529422Y-128977001D01*
X147663048Y-129160921D01*
X147823800Y-129321673D01*
X148007720Y-129455299D01*
X148210279Y-129558508D01*
X148210281Y-129558509D01*
X148426486Y-129628758D01*
X148426487Y-129628758D01*
X148426490Y-129628759D01*
X148651029Y-129664323D01*
X148651030Y-129664323D01*
X148878366Y-129664323D01*
X148878367Y-129664323D01*
X149102906Y-129628759D01*
X149102909Y-129628758D01*
X149102910Y-129628758D01*
X149319114Y-129558509D01*
X149319114Y-129558508D01*
X149319117Y-129558508D01*
X149521676Y-129455299D01*
X149705596Y-129321673D01*
X149866348Y-129160921D01*
X149999974Y-128977001D01*
X150103183Y-128774442D01*
X150173434Y-128558231D01*
X150208998Y-128333692D01*
X150208998Y-128106354D01*
X150173434Y-127881815D01*
X150173433Y-127881811D01*
X150173433Y-127881810D01*
X150103184Y-127665606D01*
X149999973Y-127463044D01*
X149866348Y-127279125D01*
X149705596Y-127118373D01*
X149521676Y-126984747D01*
X149319114Y-126881536D01*
X149102909Y-126811287D01*
X148934501Y-126784614D01*
X148878367Y-126775723D01*
X148651029Y-126775723D01*
X148576182Y-126787577D01*
X148426488Y-126811287D01*
X148426485Y-126811287D01*
X148210281Y-126881536D01*
X148007719Y-126984747D01*
X147902786Y-127060985D01*
X147823800Y-127118373D01*
X147823798Y-127118375D01*
X147823797Y-127118375D01*
X147663050Y-127279122D01*
X147663050Y-127279123D01*
X147663048Y-127279125D01*
X147627169Y-127328508D01*
X147529422Y-127463044D01*
X147426211Y-127665606D01*
X147355962Y-127881810D01*
X147355962Y-127881813D01*
X147320398Y-128106354D01*
X127520500Y-128106354D01*
X127520500Y-123531307D01*
X127520499Y-123531303D01*
X127485896Y-123357341D01*
X127485895Y-123357334D01*
X127442258Y-123251987D01*
X127418013Y-123193453D01*
X127341084Y-123078321D01*
X127319464Y-123045964D01*
X127319462Y-123045961D01*
X127319459Y-123045958D01*
X125971160Y-121697660D01*
X147219499Y-121697660D01*
X147219499Y-122682395D01*
X147219500Y-122682401D01*
X147225907Y-122742007D01*
X147240709Y-122781694D01*
X147245692Y-122851386D01*
X147240709Y-122868356D01*
X147225907Y-122908042D01*
X147219500Y-122967641D01*
X147219499Y-122967660D01*
X147219499Y-123952395D01*
X147219500Y-123952401D01*
X147225907Y-124012007D01*
X147240709Y-124051694D01*
X147245692Y-124121386D01*
X147240709Y-124138356D01*
X147225907Y-124178042D01*
X147219500Y-124237641D01*
X147219499Y-124237660D01*
X147219499Y-125222395D01*
X147219500Y-125222401D01*
X147225907Y-125282008D01*
X147276201Y-125416853D01*
X147276205Y-125416860D01*
X147362451Y-125532069D01*
X147362454Y-125532072D01*
X147477663Y-125618318D01*
X147477670Y-125618322D01*
X147612516Y-125668616D01*
X147612515Y-125668616D01*
X147619443Y-125669360D01*
X147672126Y-125675025D01*
X151857271Y-125675024D01*
X151916882Y-125668616D01*
X151998048Y-125638343D01*
X152041381Y-125630525D01*
X174488017Y-125630525D01*
X174531350Y-125638343D01*
X174612516Y-125668616D01*
X174612515Y-125668616D01*
X174619443Y-125669360D01*
X174672126Y-125675025D01*
X176384836Y-125675024D01*
X176451875Y-125694709D01*
X176472517Y-125711343D01*
X177143181Y-126382006D01*
X177176666Y-126443329D01*
X177179500Y-126469687D01*
X177179500Y-127328508D01*
X177159815Y-127395547D01*
X177107011Y-127441302D01*
X177037853Y-127451246D01*
X176974297Y-127422221D01*
X176955182Y-127401394D01*
X176946229Y-127389071D01*
X176866348Y-127279125D01*
X176705596Y-127118373D01*
X176521676Y-126984747D01*
X176319114Y-126881536D01*
X176102909Y-126811287D01*
X175934501Y-126784614D01*
X175878367Y-126775723D01*
X175651029Y-126775723D01*
X175576182Y-126787577D01*
X175426488Y-126811287D01*
X175426485Y-126811287D01*
X175210281Y-126881536D01*
X175007719Y-126984747D01*
X174902786Y-127060985D01*
X174823800Y-127118373D01*
X174823798Y-127118375D01*
X174823797Y-127118375D01*
X174663050Y-127279122D01*
X174663050Y-127279123D01*
X174663048Y-127279125D01*
X174627169Y-127328508D01*
X174529422Y-127463044D01*
X174426211Y-127665606D01*
X174355962Y-127881810D01*
X174355962Y-127881813D01*
X174320398Y-128106354D01*
X174320398Y-128333691D01*
X174355962Y-128558232D01*
X174355962Y-128558235D01*
X174426211Y-128774439D01*
X174426213Y-128774442D01*
X174529422Y-128977001D01*
X174663048Y-129160921D01*
X174823800Y-129321673D01*
X175007720Y-129455299D01*
X175210279Y-129558508D01*
X175210281Y-129558509D01*
X175426486Y-129628758D01*
X175426487Y-129628758D01*
X175426490Y-129628759D01*
X175651029Y-129664323D01*
X175651030Y-129664323D01*
X175878366Y-129664323D01*
X175878367Y-129664323D01*
X176102906Y-129628759D01*
X176102909Y-129628758D01*
X176102910Y-129628758D01*
X176319114Y-129558509D01*
X176319114Y-129558508D01*
X176319117Y-129558508D01*
X176521676Y-129455299D01*
X176705596Y-129321673D01*
X176866348Y-129160921D01*
X176955183Y-129038650D01*
X177010512Y-128995986D01*
X177080125Y-128990007D01*
X177141920Y-129022613D01*
X177176278Y-129083452D01*
X177179500Y-129111537D01*
X177179500Y-133847644D01*
X177159815Y-133914683D01*
X177107011Y-133960438D01*
X177037853Y-133970382D01*
X177019510Y-133966306D01*
X177015838Y-133965192D01*
X177015835Y-133965191D01*
X176810000Y-133944919D01*
X176604165Y-133965191D01*
X176406233Y-134025233D01*
X176233453Y-134117586D01*
X176165050Y-134131828D01*
X176116547Y-134117586D01*
X175943766Y-134025233D01*
X175745834Y-133965191D01*
X175540000Y-133944919D01*
X175334165Y-133965191D01*
X175136233Y-134025233D01*
X174963453Y-134117586D01*
X174895050Y-134131828D01*
X174846547Y-134117586D01*
X174673766Y-134025233D01*
X174475834Y-133965191D01*
X174270000Y-133944919D01*
X174064165Y-133965191D01*
X173866237Y-134025232D01*
X173693982Y-134117304D01*
X173625579Y-134131545D01*
X173577076Y-134117303D01*
X173403958Y-134024769D01*
X173256794Y-133980128D01*
X173205934Y-133964700D01*
X173205932Y-133964699D01*
X173205934Y-133964699D01*
X173000000Y-133944417D01*
X172794067Y-133964699D01*
X172596041Y-134024769D01*
X172423453Y-134117020D01*
X172355050Y-134131262D01*
X172306547Y-134117020D01*
X172133958Y-134024769D01*
X171986794Y-133980128D01*
X171935934Y-133964700D01*
X171935932Y-133964699D01*
X171935934Y-133964699D01*
X171730000Y-133944417D01*
X171524067Y-133964699D01*
X171326041Y-134024769D01*
X171153453Y-134117020D01*
X171085050Y-134131262D01*
X171036547Y-134117020D01*
X170863958Y-134024769D01*
X170716794Y-133980128D01*
X170665934Y-133964700D01*
X170665932Y-133964699D01*
X170665934Y-133964699D01*
X170460000Y-133944417D01*
X170254067Y-133964699D01*
X170056041Y-134024769D01*
X169882924Y-134117303D01*
X169814521Y-134131545D01*
X169766018Y-134117304D01*
X169593762Y-134025232D01*
X169395834Y-133965191D01*
X169190000Y-133944919D01*
X168984165Y-133965191D01*
X168786233Y-134025233D01*
X168613453Y-134117586D01*
X168545050Y-134131828D01*
X168496547Y-134117586D01*
X168323766Y-134025233D01*
X168125834Y-133965191D01*
X167920000Y-133944919D01*
X167714165Y-133965191D01*
X167516233Y-134025233D01*
X167343453Y-134117586D01*
X167275050Y-134131828D01*
X167226547Y-134117586D01*
X167053766Y-134025233D01*
X166855834Y-133965191D01*
X166650000Y-133944919D01*
X166444165Y-133965191D01*
X166246237Y-134025232D01*
X166073982Y-134117304D01*
X166005579Y-134131545D01*
X165957076Y-134117303D01*
X165783958Y-134024769D01*
X165636794Y-133980128D01*
X165585934Y-133964700D01*
X165585932Y-133964699D01*
X165585934Y-133964699D01*
X165380000Y-133944417D01*
X165174067Y-133964699D01*
X164976041Y-134024769D01*
X164803453Y-134117020D01*
X164735050Y-134131262D01*
X164686547Y-134117020D01*
X164513958Y-134024769D01*
X164366794Y-133980128D01*
X164315934Y-133964700D01*
X164315932Y-133964699D01*
X164315934Y-133964699D01*
X164110000Y-133944417D01*
X163904067Y-133964699D01*
X163706041Y-134024769D01*
X163533453Y-134117020D01*
X163465050Y-134131262D01*
X163416547Y-134117020D01*
X163243958Y-134024769D01*
X163096794Y-133980128D01*
X163045934Y-133964700D01*
X163045932Y-133964699D01*
X163045934Y-133964699D01*
X162840000Y-133944417D01*
X162634067Y-133964699D01*
X162436043Y-134024769D01*
X162372437Y-134058768D01*
X162253550Y-134122315D01*
X162253548Y-134122316D01*
X162253547Y-134122317D01*
X162093589Y-134253589D01*
X161962317Y-134413547D01*
X161864769Y-134596043D01*
X161804699Y-134794067D01*
X161784417Y-135000000D01*
X161804699Y-135205932D01*
X161804700Y-135205934D01*
X161864768Y-135403954D01*
X161962315Y-135586450D01*
X161962317Y-135586452D01*
X162093589Y-135746410D01*
X162177918Y-135815616D01*
X162253550Y-135877685D01*
X162436046Y-135975232D01*
X162634066Y-136035300D01*
X162634065Y-136035300D01*
X162652529Y-136037118D01*
X162840000Y-136055583D01*
X163045934Y-136035300D01*
X163243954Y-135975232D01*
X163416548Y-135882977D01*
X163484949Y-135868736D01*
X163533450Y-135882976D01*
X163706046Y-135975232D01*
X163904066Y-136035300D01*
X163904065Y-136035300D01*
X163922529Y-136037118D01*
X164110000Y-136055583D01*
X164315934Y-136035300D01*
X164513954Y-135975232D01*
X164686548Y-135882977D01*
X164754949Y-135868736D01*
X164803450Y-135882976D01*
X164976046Y-135975232D01*
X165174066Y-136035300D01*
X165174065Y-136035300D01*
X165192529Y-136037118D01*
X165380000Y-136055583D01*
X165585934Y-136035300D01*
X165783954Y-135975232D01*
X165957078Y-135882693D01*
X166025476Y-135868453D01*
X166073981Y-135882695D01*
X166246233Y-135974766D01*
X166444165Y-136034808D01*
X166650000Y-136055080D01*
X166855834Y-136034808D01*
X167053764Y-135974766D01*
X167226546Y-135882412D01*
X167294949Y-135868170D01*
X167343454Y-135882412D01*
X167516235Y-135974766D01*
X167714165Y-136034808D01*
X167920000Y-136055080D01*
X168125834Y-136034808D01*
X168323764Y-135974766D01*
X168496546Y-135882412D01*
X168564949Y-135868170D01*
X168613454Y-135882412D01*
X168786235Y-135974766D01*
X168984165Y-136034808D01*
X169190000Y-136055080D01*
X169395834Y-136034808D01*
X169593764Y-135974766D01*
X169766016Y-135882695D01*
X169834419Y-135868453D01*
X169882921Y-135882694D01*
X170056046Y-135975232D01*
X170254066Y-136035300D01*
X170254065Y-136035300D01*
X170272529Y-136037118D01*
X170460000Y-136055583D01*
X170665934Y-136035300D01*
X170863954Y-135975232D01*
X171036548Y-135882977D01*
X171104949Y-135868736D01*
X171153450Y-135882976D01*
X171326046Y-135975232D01*
X171524066Y-136035300D01*
X171524065Y-136035300D01*
X171542529Y-136037118D01*
X171730000Y-136055583D01*
X171935934Y-136035300D01*
X172133954Y-135975232D01*
X172306548Y-135882977D01*
X172374949Y-135868736D01*
X172423450Y-135882976D01*
X172596046Y-135975232D01*
X172794066Y-136035300D01*
X172794065Y-136035300D01*
X172812529Y-136037118D01*
X173000000Y-136055583D01*
X173205934Y-136035300D01*
X173403954Y-135975232D01*
X173577078Y-135882693D01*
X173645476Y-135868453D01*
X173693981Y-135882695D01*
X173866233Y-135974766D01*
X174064165Y-136034808D01*
X174270000Y-136055080D01*
X174475834Y-136034808D01*
X174673764Y-135974766D01*
X174846546Y-135882412D01*
X174914949Y-135868170D01*
X174963454Y-135882412D01*
X175136235Y-135974766D01*
X175334165Y-136034808D01*
X175540000Y-136055080D01*
X175745834Y-136034808D01*
X175943764Y-135974766D01*
X176116546Y-135882412D01*
X176184949Y-135868170D01*
X176233454Y-135882412D01*
X176406235Y-135974766D01*
X176604165Y-136034808D01*
X176810000Y-136055080D01*
X177015834Y-136034808D01*
X177213764Y-135974766D01*
X177386016Y-135882695D01*
X177454419Y-135868453D01*
X177502921Y-135882694D01*
X177676046Y-135975232D01*
X177874066Y-136035300D01*
X177874065Y-136035300D01*
X177892529Y-136037118D01*
X178080000Y-136055583D01*
X178285934Y-136035300D01*
X178483954Y-135975232D01*
X178656548Y-135882977D01*
X178724949Y-135868736D01*
X178773450Y-135882976D01*
X178946046Y-135975232D01*
X179144066Y-136035300D01*
X179144065Y-136035300D01*
X179162529Y-136037118D01*
X179350000Y-136055583D01*
X179555934Y-136035300D01*
X179753954Y-135975232D01*
X179926548Y-135882977D01*
X179994949Y-135868736D01*
X180043450Y-135882976D01*
X180216046Y-135975232D01*
X180414066Y-136035300D01*
X180414065Y-136035300D01*
X180432529Y-136037118D01*
X180620000Y-136055583D01*
X180825934Y-136035300D01*
X181023954Y-135975232D01*
X181206450Y-135877685D01*
X181366410Y-135746410D01*
X181497685Y-135586450D01*
X181595232Y-135403954D01*
X181655300Y-135205934D01*
X181675583Y-135000000D01*
X181667052Y-134913389D01*
X182609500Y-134913389D01*
X182609500Y-135086610D01*
X182628398Y-135205932D01*
X182636598Y-135257701D01*
X182690127Y-135422445D01*
X182768768Y-135576788D01*
X182870586Y-135716928D01*
X182993072Y-135839414D01*
X183133212Y-135941232D01*
X183287555Y-136019873D01*
X183452299Y-136073402D01*
X183623389Y-136100500D01*
X183623390Y-136100500D01*
X183796610Y-136100500D01*
X183796611Y-136100500D01*
X183967701Y-136073402D01*
X184132445Y-136019873D01*
X184286788Y-135941232D01*
X184426928Y-135839414D01*
X184549414Y-135716928D01*
X184651232Y-135576788D01*
X184729873Y-135422445D01*
X184783402Y-135257701D01*
X184810500Y-135086611D01*
X184810500Y-134913389D01*
X184783402Y-134742299D01*
X184729873Y-134577555D01*
X184651232Y-134423212D01*
X184549414Y-134283072D01*
X184426928Y-134160586D01*
X184286788Y-134058768D01*
X184132445Y-133980127D01*
X183967701Y-133926598D01*
X183967699Y-133926597D01*
X183967698Y-133926597D01*
X183836271Y-133905781D01*
X183796611Y-133899500D01*
X183623389Y-133899500D01*
X183583728Y-133905781D01*
X183452302Y-133926597D01*
X183287552Y-133980128D01*
X183133211Y-134058768D01*
X183053256Y-134116859D01*
X182993072Y-134160586D01*
X182993070Y-134160588D01*
X182993069Y-134160588D01*
X182870588Y-134283069D01*
X182870588Y-134283070D01*
X182870586Y-134283072D01*
X182826859Y-134343256D01*
X182768768Y-134423211D01*
X182690128Y-134577552D01*
X182690127Y-134577554D01*
X182690127Y-134577555D01*
X182684120Y-134596043D01*
X182636597Y-134742302D01*
X182609500Y-134913389D01*
X181667052Y-134913389D01*
X181655300Y-134794066D01*
X181595232Y-134596046D01*
X181595230Y-134596043D01*
X181595230Y-134596041D01*
X181535142Y-134483625D01*
X181520500Y-134425172D01*
X181520500Y-123131308D01*
X181520499Y-123131307D01*
X181503524Y-123045964D01*
X181503524Y-123045961D01*
X181485896Y-122957341D01*
X181485895Y-122957334D01*
X181420339Y-122799071D01*
X181418695Y-122794474D01*
X181319465Y-122645966D01*
X181319464Y-122645965D01*
X181194035Y-122520536D01*
X180164066Y-121490565D01*
X180164065Y-121490564D01*
X180164061Y-121490561D01*
X180104984Y-121451088D01*
X180104983Y-121451086D01*
X180016569Y-121392010D01*
X180016567Y-121392009D01*
X179934632Y-121358071D01*
X179934631Y-121358071D01*
X179852691Y-121324130D01*
X179852683Y-121324128D01*
X179678721Y-121289525D01*
X179678717Y-121289525D01*
X179678716Y-121289525D01*
X179433399Y-121289525D01*
X179366360Y-121269840D01*
X179320605Y-121217036D01*
X179310650Y-121171276D01*
X179309399Y-121170025D01*
X174219999Y-121170025D01*
X174218128Y-121171895D01*
X174200314Y-121232564D01*
X174147510Y-121278319D01*
X174095999Y-121289525D01*
X152433399Y-121289525D01*
X152366360Y-121269840D01*
X152320605Y-121217036D01*
X152310650Y-121171276D01*
X152309399Y-121170025D01*
X147219999Y-121170025D01*
X147219999Y-121412369D01*
X147226400Y-121471897D01*
X147226402Y-121471905D01*
X147240975Y-121510977D01*
X147245959Y-121580669D01*
X147240976Y-121597641D01*
X147225907Y-121638043D01*
X147219500Y-121697641D01*
X147219499Y-121697660D01*
X125971160Y-121697660D01*
X125764060Y-121490560D01*
X125764055Y-121490556D01*
X125704986Y-121451089D01*
X125704985Y-121451088D01*
X125616569Y-121392010D01*
X125616567Y-121392009D01*
X125534632Y-121358071D01*
X125534631Y-121358071D01*
X125452691Y-121324130D01*
X125452685Y-121324128D01*
X125409207Y-121315480D01*
X125347296Y-121283095D01*
X125312722Y-121222379D01*
X125309399Y-121193863D01*
X125309399Y-121170025D01*
X120219999Y-121170025D01*
X120218128Y-121171895D01*
X120200314Y-121232564D01*
X120147510Y-121278319D01*
X120095999Y-121289525D01*
X98433399Y-121289525D01*
X98366360Y-121269840D01*
X98320605Y-121217036D01*
X98310650Y-121171276D01*
X98309399Y-121170025D01*
X93219999Y-121170025D01*
X93219999Y-121412369D01*
X93226400Y-121471897D01*
X93226402Y-121471905D01*
X93240975Y-121510977D01*
X93245959Y-121580669D01*
X93240976Y-121597641D01*
X93225907Y-121638043D01*
X93219500Y-121697641D01*
X93219499Y-121697660D01*
X86453897Y-121697660D01*
X86455595Y-120142369D01*
X93219999Y-120142369D01*
X93226400Y-120201897D01*
X93226402Y-120201904D01*
X93241242Y-120241694D01*
X93246225Y-120311386D01*
X93241242Y-120328356D01*
X93226402Y-120368145D01*
X93226400Y-120368152D01*
X93219999Y-120427680D01*
X93219999Y-120670025D01*
X95514699Y-120670025D01*
X96014699Y-120670025D01*
X98309399Y-120670025D01*
X98309399Y-120427697D01*
X98309398Y-120427680D01*
X98302997Y-120368153D01*
X98288155Y-120328359D01*
X98283171Y-120258668D01*
X98288155Y-120241691D01*
X98302997Y-120201896D01*
X98309398Y-120142369D01*
X120219999Y-120142369D01*
X120226400Y-120201897D01*
X120226402Y-120201904D01*
X120241242Y-120241694D01*
X120246225Y-120311386D01*
X120241242Y-120328356D01*
X120226402Y-120368145D01*
X120226400Y-120368152D01*
X120219999Y-120427680D01*
X120219999Y-120670025D01*
X122514699Y-120670025D01*
X123014699Y-120670025D01*
X125309399Y-120670025D01*
X125309399Y-120427697D01*
X125309398Y-120427680D01*
X125302997Y-120368153D01*
X125288155Y-120328359D01*
X125283171Y-120258668D01*
X125288155Y-120241691D01*
X125302997Y-120201896D01*
X125309398Y-120142369D01*
X147219999Y-120142369D01*
X147226400Y-120201897D01*
X147226402Y-120201904D01*
X147241242Y-120241694D01*
X147246225Y-120311386D01*
X147241242Y-120328356D01*
X147226402Y-120368145D01*
X147226400Y-120368152D01*
X147219999Y-120427680D01*
X147219999Y-120670025D01*
X149514699Y-120670025D01*
X150014699Y-120670025D01*
X152309399Y-120670025D01*
X152309399Y-120427697D01*
X152309398Y-120427680D01*
X152302997Y-120368153D01*
X152288155Y-120328359D01*
X152283171Y-120258668D01*
X152288155Y-120241691D01*
X152302997Y-120201896D01*
X152309398Y-120142369D01*
X174219999Y-120142369D01*
X174226400Y-120201897D01*
X174226402Y-120201904D01*
X174241242Y-120241694D01*
X174246225Y-120311386D01*
X174241242Y-120328356D01*
X174226402Y-120368145D01*
X174226400Y-120368152D01*
X174219999Y-120427680D01*
X174219999Y-120670025D01*
X176514699Y-120670025D01*
X177014699Y-120670025D01*
X179309399Y-120670025D01*
X179309399Y-120427697D01*
X179309398Y-120427680D01*
X179302997Y-120368153D01*
X179288155Y-120328359D01*
X179283171Y-120258668D01*
X179288155Y-120241691D01*
X179302997Y-120201896D01*
X179309398Y-120142369D01*
X179309399Y-120142352D01*
X179309399Y-119900025D01*
X177014699Y-119900025D01*
X177014699Y-120670025D01*
X176514699Y-120670025D01*
X176514699Y-119900025D01*
X174219999Y-119900025D01*
X174219999Y-120142369D01*
X152309398Y-120142369D01*
X152309399Y-120142352D01*
X152309399Y-119900025D01*
X150014699Y-119900025D01*
X150014699Y-120670025D01*
X149514699Y-120670025D01*
X149514699Y-119900025D01*
X147219999Y-119900025D01*
X147219999Y-120142369D01*
X125309398Y-120142369D01*
X125309399Y-120142352D01*
X125309399Y-119900025D01*
X123014699Y-119900025D01*
X123014699Y-120670025D01*
X122514699Y-120670025D01*
X122514699Y-119900025D01*
X120219999Y-119900025D01*
X120219999Y-120142369D01*
X98309398Y-120142369D01*
X98309399Y-120142352D01*
X98309399Y-119900025D01*
X96014699Y-119900025D01*
X96014699Y-120670025D01*
X95514699Y-120670025D01*
X95514699Y-119900025D01*
X93219999Y-119900025D01*
X93219999Y-120142369D01*
X86455595Y-120142369D01*
X86456981Y-118872369D01*
X93219999Y-118872369D01*
X93226400Y-118931897D01*
X93226402Y-118931904D01*
X93241242Y-118971694D01*
X93246225Y-119041386D01*
X93241242Y-119058356D01*
X93226402Y-119098145D01*
X93226400Y-119098152D01*
X93219999Y-119157680D01*
X93219999Y-119400025D01*
X95514699Y-119400025D01*
X96014699Y-119400025D01*
X98309399Y-119400025D01*
X98309399Y-119157697D01*
X98309398Y-119157680D01*
X98302997Y-119098153D01*
X98288155Y-119058359D01*
X98283171Y-118988668D01*
X98288155Y-118971691D01*
X98302997Y-118931896D01*
X98309398Y-118872369D01*
X120219999Y-118872369D01*
X120226400Y-118931897D01*
X120226402Y-118931904D01*
X120241242Y-118971694D01*
X120246225Y-119041386D01*
X120241242Y-119058356D01*
X120226402Y-119098145D01*
X120226400Y-119098152D01*
X120219999Y-119157680D01*
X120219999Y-119400025D01*
X122514699Y-119400025D01*
X123014699Y-119400025D01*
X125309399Y-119400025D01*
X125309399Y-119157697D01*
X125309398Y-119157680D01*
X125302997Y-119098153D01*
X125288155Y-119058359D01*
X125283171Y-118988668D01*
X125288155Y-118971691D01*
X125302997Y-118931896D01*
X125309398Y-118872369D01*
X147219999Y-118872369D01*
X147226400Y-118931897D01*
X147226402Y-118931904D01*
X147241242Y-118971694D01*
X147246225Y-119041386D01*
X147241242Y-119058356D01*
X147226402Y-119098145D01*
X147226400Y-119098152D01*
X147219999Y-119157680D01*
X147219999Y-119400025D01*
X149514699Y-119400025D01*
X150014699Y-119400025D01*
X152309399Y-119400025D01*
X152309399Y-119157697D01*
X152309398Y-119157680D01*
X152302997Y-119098153D01*
X152288155Y-119058359D01*
X152283171Y-118988668D01*
X152288155Y-118971691D01*
X152302997Y-118931896D01*
X152309398Y-118872369D01*
X174219999Y-118872369D01*
X174226400Y-118931897D01*
X174226402Y-118931904D01*
X174241242Y-118971694D01*
X174246225Y-119041386D01*
X174241242Y-119058356D01*
X174226402Y-119098145D01*
X174226400Y-119098152D01*
X174219999Y-119157680D01*
X174219999Y-119400025D01*
X176514699Y-119400025D01*
X177014699Y-119400025D01*
X179309399Y-119400025D01*
X179309399Y-119157697D01*
X179309398Y-119157680D01*
X179302997Y-119098153D01*
X179288155Y-119058359D01*
X179283171Y-118988668D01*
X179288155Y-118971691D01*
X179302997Y-118931896D01*
X179309398Y-118872369D01*
X179309399Y-118872352D01*
X179309399Y-118630025D01*
X177014699Y-118630025D01*
X177014699Y-119400025D01*
X176514699Y-119400025D01*
X176514699Y-118630025D01*
X174219999Y-118630025D01*
X174219999Y-118872369D01*
X152309398Y-118872369D01*
X152309399Y-118872352D01*
X152309399Y-118630025D01*
X150014699Y-118630025D01*
X150014699Y-119400025D01*
X149514699Y-119400025D01*
X149514699Y-118630025D01*
X147219999Y-118630025D01*
X147219999Y-118872369D01*
X125309398Y-118872369D01*
X125309399Y-118872352D01*
X125309399Y-118630025D01*
X123014699Y-118630025D01*
X123014699Y-119400025D01*
X122514699Y-119400025D01*
X122514699Y-118630025D01*
X120219999Y-118630025D01*
X120219999Y-118872369D01*
X98309398Y-118872369D01*
X98309399Y-118872352D01*
X98309399Y-118630025D01*
X96014699Y-118630025D01*
X96014699Y-119400025D01*
X95514699Y-119400025D01*
X95514699Y-118630025D01*
X93219999Y-118630025D01*
X93219999Y-118872369D01*
X86456981Y-118872369D01*
X86462214Y-114077660D01*
X93219499Y-114077660D01*
X93219499Y-115062395D01*
X93219500Y-115062401D01*
X93225907Y-115122007D01*
X93240709Y-115161694D01*
X93245692Y-115231386D01*
X93240709Y-115248356D01*
X93225907Y-115288042D01*
X93219500Y-115347641D01*
X93219500Y-115347648D01*
X93219499Y-115347660D01*
X93219499Y-116332395D01*
X93219500Y-116332401D01*
X93225907Y-116392007D01*
X93240709Y-116431694D01*
X93245692Y-116501386D01*
X93240709Y-116518356D01*
X93225907Y-116558042D01*
X93219500Y-116617641D01*
X93219500Y-116617648D01*
X93219499Y-116617660D01*
X93219499Y-117602395D01*
X93219500Y-117602401D01*
X93225907Y-117662008D01*
X93240975Y-117702407D01*
X93245959Y-117772099D01*
X93240976Y-117789070D01*
X93226400Y-117828150D01*
X93219999Y-117887680D01*
X93219999Y-118130025D01*
X98309399Y-118130025D01*
X98311269Y-118128154D01*
X98329084Y-118067486D01*
X98381888Y-118021731D01*
X98433399Y-118010525D01*
X118911309Y-118010525D01*
X120095999Y-118010525D01*
X120163038Y-118030210D01*
X120208793Y-118083014D01*
X120218747Y-118128773D01*
X120219999Y-118130025D01*
X125309399Y-118130025D01*
X125309399Y-117887697D01*
X125309398Y-117887680D01*
X125302997Y-117828152D01*
X125302996Y-117828148D01*
X125288422Y-117789073D01*
X125283438Y-117719381D01*
X125288423Y-117702404D01*
X125303488Y-117662013D01*
X125303490Y-117662008D01*
X125309899Y-117602398D01*
X125309898Y-116617653D01*
X125303490Y-116558042D01*
X125288689Y-116518359D01*
X125283704Y-116448667D01*
X125288688Y-116431694D01*
X125303490Y-116392008D01*
X125309899Y-116332398D01*
X125309898Y-115347653D01*
X125303490Y-115288042D01*
X125288689Y-115248359D01*
X125283704Y-115178667D01*
X125288688Y-115161694D01*
X125303490Y-115122008D01*
X125309899Y-115062398D01*
X125309898Y-114077660D01*
X147219499Y-114077660D01*
X147219499Y-115062395D01*
X147219500Y-115062401D01*
X147225907Y-115122007D01*
X147240709Y-115161694D01*
X147245692Y-115231386D01*
X147240709Y-115248356D01*
X147225907Y-115288042D01*
X147219500Y-115347641D01*
X147219500Y-115347648D01*
X147219499Y-115347660D01*
X147219499Y-116332395D01*
X147219500Y-116332401D01*
X147225907Y-116392007D01*
X147240709Y-116431694D01*
X147245692Y-116501386D01*
X147240709Y-116518356D01*
X147225907Y-116558042D01*
X147219500Y-116617641D01*
X147219500Y-116617648D01*
X147219499Y-116617660D01*
X147219499Y-117602395D01*
X147219500Y-117602401D01*
X147225907Y-117662008D01*
X147240975Y-117702407D01*
X147245959Y-117772099D01*
X147240976Y-117789070D01*
X147226400Y-117828150D01*
X147219999Y-117887680D01*
X147219999Y-118130025D01*
X152309399Y-118130025D01*
X152311269Y-118128154D01*
X152329084Y-118067486D01*
X152381888Y-118021731D01*
X152433399Y-118010525D01*
X172511309Y-118010525D01*
X174095999Y-118010525D01*
X174163038Y-118030210D01*
X174208793Y-118083014D01*
X174218747Y-118128773D01*
X174219999Y-118130025D01*
X179309399Y-118130025D01*
X179309399Y-117887697D01*
X179309398Y-117887680D01*
X179302997Y-117828152D01*
X179302996Y-117828148D01*
X179288422Y-117789073D01*
X179283438Y-117719381D01*
X179288423Y-117702404D01*
X179303488Y-117662013D01*
X179303490Y-117662008D01*
X179309899Y-117602398D01*
X179309898Y-116617653D01*
X179303490Y-116558042D01*
X179288689Y-116518359D01*
X179283704Y-116448667D01*
X179288688Y-116431694D01*
X179303490Y-116392008D01*
X179309899Y-116332398D01*
X179309898Y-115347653D01*
X179303490Y-115288042D01*
X179288689Y-115248359D01*
X179283704Y-115178667D01*
X179288688Y-115161694D01*
X179303490Y-115122008D01*
X179309899Y-115062398D01*
X179309898Y-114077653D01*
X179303490Y-114018042D01*
X179288421Y-113977642D01*
X179283438Y-113907952D01*
X179288423Y-113890974D01*
X179302997Y-113851901D01*
X179309398Y-113792369D01*
X179309399Y-113792352D01*
X179309399Y-113550025D01*
X174219999Y-113550025D01*
X174218128Y-113551895D01*
X174200314Y-113612564D01*
X174147510Y-113658319D01*
X174095999Y-113669525D01*
X152433399Y-113669525D01*
X152366360Y-113649840D01*
X152320605Y-113597036D01*
X152310650Y-113551276D01*
X152309399Y-113550025D01*
X147219999Y-113550025D01*
X147219999Y-113792369D01*
X147226400Y-113851897D01*
X147226402Y-113851905D01*
X147240975Y-113890977D01*
X147245959Y-113960669D01*
X147240976Y-113977641D01*
X147225907Y-114018043D01*
X147219500Y-114077641D01*
X147219500Y-114077648D01*
X147219499Y-114077660D01*
X125309898Y-114077660D01*
X125309898Y-114077653D01*
X125303490Y-114018042D01*
X125288421Y-113977642D01*
X125283438Y-113907952D01*
X125288423Y-113890974D01*
X125302997Y-113851901D01*
X125309398Y-113792369D01*
X125309399Y-113792352D01*
X125309399Y-113550025D01*
X120219999Y-113550025D01*
X120218128Y-113551895D01*
X120200314Y-113612564D01*
X120147510Y-113658319D01*
X120095999Y-113669525D01*
X98433399Y-113669525D01*
X98366360Y-113649840D01*
X98320605Y-113597036D01*
X98310650Y-113551276D01*
X98309399Y-113550025D01*
X93219999Y-113550025D01*
X93219999Y-113792369D01*
X93226400Y-113851897D01*
X93226402Y-113851905D01*
X93240975Y-113890977D01*
X93245959Y-113960669D01*
X93240976Y-113977641D01*
X93225907Y-114018043D01*
X93219500Y-114077641D01*
X93219500Y-114077648D01*
X93219499Y-114077660D01*
X86462214Y-114077660D01*
X86463912Y-112522369D01*
X93219999Y-112522369D01*
X93226400Y-112581897D01*
X93226402Y-112581904D01*
X93241242Y-112621694D01*
X93246225Y-112691386D01*
X93241242Y-112708356D01*
X93226402Y-112748145D01*
X93226400Y-112748152D01*
X93219999Y-112807680D01*
X93219999Y-113050025D01*
X95514699Y-113050025D01*
X96014699Y-113050025D01*
X98309399Y-113050025D01*
X98309399Y-112807697D01*
X98309398Y-112807680D01*
X98302997Y-112748153D01*
X98288155Y-112708359D01*
X98283171Y-112638668D01*
X98288155Y-112621691D01*
X98302997Y-112581896D01*
X98309398Y-112522369D01*
X120219999Y-112522369D01*
X120226400Y-112581897D01*
X120226402Y-112581904D01*
X120241242Y-112621694D01*
X120246225Y-112691386D01*
X120241242Y-112708356D01*
X120226402Y-112748145D01*
X120226400Y-112748152D01*
X120219999Y-112807680D01*
X120219999Y-113050025D01*
X122514699Y-113050025D01*
X123014699Y-113050025D01*
X125309399Y-113050025D01*
X125309399Y-112807697D01*
X125309398Y-112807680D01*
X125302997Y-112748153D01*
X125288155Y-112708359D01*
X125283171Y-112638668D01*
X125288155Y-112621691D01*
X125302997Y-112581896D01*
X125309398Y-112522369D01*
X147219999Y-112522369D01*
X147226400Y-112581897D01*
X147226402Y-112581904D01*
X147241242Y-112621694D01*
X147246225Y-112691386D01*
X147241242Y-112708356D01*
X147226402Y-112748145D01*
X147226400Y-112748152D01*
X147219999Y-112807680D01*
X147219999Y-113050025D01*
X149514699Y-113050025D01*
X150014699Y-113050025D01*
X152309399Y-113050025D01*
X152309399Y-112807697D01*
X152309398Y-112807680D01*
X152302997Y-112748153D01*
X152288155Y-112708359D01*
X152283171Y-112638668D01*
X152288155Y-112621691D01*
X152302997Y-112581896D01*
X152309398Y-112522369D01*
X174219999Y-112522369D01*
X174226400Y-112581897D01*
X174226402Y-112581904D01*
X174241242Y-112621694D01*
X174246225Y-112691386D01*
X174241242Y-112708356D01*
X174226402Y-112748145D01*
X174226400Y-112748152D01*
X174219999Y-112807680D01*
X174219999Y-113050025D01*
X176514699Y-113050025D01*
X177014699Y-113050025D01*
X179309399Y-113050025D01*
X179309399Y-112807697D01*
X179309398Y-112807680D01*
X179302997Y-112748153D01*
X179288155Y-112708359D01*
X179283171Y-112638668D01*
X179288155Y-112621691D01*
X179302997Y-112581896D01*
X179309398Y-112522369D01*
X179309399Y-112522352D01*
X179309399Y-112280025D01*
X177014699Y-112280025D01*
X177014699Y-113050025D01*
X176514699Y-113050025D01*
X176514699Y-112280025D01*
X174219999Y-112280025D01*
X174219999Y-112522369D01*
X152309398Y-112522369D01*
X152309399Y-112522352D01*
X152309399Y-112280025D01*
X150014699Y-112280025D01*
X150014699Y-113050025D01*
X149514699Y-113050025D01*
X149514699Y-112280025D01*
X147219999Y-112280025D01*
X147219999Y-112522369D01*
X125309398Y-112522369D01*
X125309399Y-112522352D01*
X125309399Y-112280025D01*
X123014699Y-112280025D01*
X123014699Y-113050025D01*
X122514699Y-113050025D01*
X122514699Y-112280025D01*
X120219999Y-112280025D01*
X120219999Y-112522369D01*
X98309398Y-112522369D01*
X98309399Y-112522352D01*
X98309399Y-112280025D01*
X96014699Y-112280025D01*
X96014699Y-113050025D01*
X95514699Y-113050025D01*
X95514699Y-112280025D01*
X93219999Y-112280025D01*
X93219999Y-112522369D01*
X86463912Y-112522369D01*
X86465298Y-111252369D01*
X93219999Y-111252369D01*
X93226400Y-111311897D01*
X93226402Y-111311904D01*
X93241242Y-111351694D01*
X93246225Y-111421386D01*
X93241242Y-111438356D01*
X93226402Y-111478145D01*
X93226400Y-111478152D01*
X93219999Y-111537680D01*
X93219999Y-111780025D01*
X95514699Y-111780025D01*
X96014699Y-111780025D01*
X98309399Y-111780025D01*
X98309399Y-111537697D01*
X98309398Y-111537680D01*
X98302997Y-111478153D01*
X98288155Y-111438359D01*
X98283171Y-111368668D01*
X98288155Y-111351691D01*
X98302997Y-111311896D01*
X98309398Y-111252369D01*
X120219999Y-111252369D01*
X120226400Y-111311897D01*
X120226402Y-111311904D01*
X120241242Y-111351694D01*
X120246225Y-111421386D01*
X120241242Y-111438356D01*
X120226402Y-111478145D01*
X120226400Y-111478152D01*
X120219999Y-111537680D01*
X120219999Y-111780025D01*
X122514699Y-111780025D01*
X123014699Y-111780025D01*
X125309399Y-111780025D01*
X125309399Y-111537697D01*
X125309398Y-111537680D01*
X125302997Y-111478153D01*
X125288155Y-111438359D01*
X125283171Y-111368668D01*
X125288155Y-111351691D01*
X125302997Y-111311896D01*
X125309398Y-111252369D01*
X147219999Y-111252369D01*
X147226400Y-111311897D01*
X147226402Y-111311904D01*
X147241242Y-111351694D01*
X147246225Y-111421386D01*
X147241242Y-111438356D01*
X147226402Y-111478145D01*
X147226400Y-111478152D01*
X147219999Y-111537680D01*
X147219999Y-111780025D01*
X149514699Y-111780025D01*
X150014699Y-111780025D01*
X152309399Y-111780025D01*
X152309399Y-111537697D01*
X152309398Y-111537680D01*
X152302997Y-111478153D01*
X152288155Y-111438359D01*
X152283171Y-111368668D01*
X152288155Y-111351691D01*
X152302997Y-111311896D01*
X152309398Y-111252369D01*
X174219999Y-111252369D01*
X174226400Y-111311897D01*
X174226402Y-111311904D01*
X174241242Y-111351694D01*
X174246225Y-111421386D01*
X174241242Y-111438356D01*
X174226402Y-111478145D01*
X174226400Y-111478152D01*
X174219999Y-111537680D01*
X174219999Y-111780025D01*
X176514699Y-111780025D01*
X177014699Y-111780025D01*
X179309399Y-111780025D01*
X179309399Y-111537697D01*
X179309398Y-111537680D01*
X179302997Y-111478153D01*
X179288155Y-111438359D01*
X179283171Y-111368668D01*
X179288155Y-111351691D01*
X179302997Y-111311896D01*
X179309398Y-111252369D01*
X179309399Y-111252352D01*
X179309399Y-111010025D01*
X177014699Y-111010025D01*
X177014699Y-111780025D01*
X176514699Y-111780025D01*
X176514699Y-111010025D01*
X174219999Y-111010025D01*
X174219999Y-111252369D01*
X152309398Y-111252369D01*
X152309399Y-111252352D01*
X152309399Y-111010025D01*
X150014699Y-111010025D01*
X150014699Y-111780025D01*
X149514699Y-111780025D01*
X149514699Y-111010025D01*
X147219999Y-111010025D01*
X147219999Y-111252369D01*
X125309398Y-111252369D01*
X125309399Y-111252352D01*
X125309399Y-111010025D01*
X123014699Y-111010025D01*
X123014699Y-111780025D01*
X122514699Y-111780025D01*
X122514699Y-111010025D01*
X120219999Y-111010025D01*
X120219999Y-111252369D01*
X98309398Y-111252369D01*
X98309399Y-111252352D01*
X98309399Y-111010025D01*
X96014699Y-111010025D01*
X96014699Y-111780025D01*
X95514699Y-111780025D01*
X95514699Y-111010025D01*
X93219999Y-111010025D01*
X93219999Y-111252369D01*
X86465298Y-111252369D01*
X86470531Y-106457649D01*
X93219499Y-106457649D01*
X93219499Y-107442384D01*
X93219500Y-107442390D01*
X93225907Y-107501997D01*
X93240711Y-107541686D01*
X93245695Y-107611377D01*
X93240711Y-107628352D01*
X93225907Y-107668042D01*
X93219500Y-107727641D01*
X93219500Y-107727648D01*
X93219499Y-107727660D01*
X93219499Y-108712395D01*
X93219500Y-108712401D01*
X93225907Y-108772007D01*
X93240709Y-108811694D01*
X93245692Y-108881386D01*
X93240709Y-108898356D01*
X93225907Y-108938042D01*
X93219500Y-108997641D01*
X93219500Y-108997648D01*
X93219499Y-108997660D01*
X93219499Y-109982395D01*
X93219500Y-109982401D01*
X93225907Y-110042008D01*
X93240975Y-110082407D01*
X93245959Y-110152099D01*
X93240976Y-110169070D01*
X93226400Y-110208150D01*
X93219999Y-110267680D01*
X93219999Y-110510025D01*
X98309399Y-110510025D01*
X98311269Y-110508154D01*
X98329084Y-110447486D01*
X98381888Y-110401731D01*
X98433399Y-110390525D01*
X111511309Y-110390525D01*
X120095999Y-110390525D01*
X120163038Y-110410210D01*
X120208793Y-110463014D01*
X120218747Y-110508773D01*
X120219999Y-110510025D01*
X125309399Y-110510025D01*
X125309399Y-110267697D01*
X125309398Y-110267680D01*
X125302997Y-110208152D01*
X125302996Y-110208148D01*
X125288422Y-110169073D01*
X125283438Y-110099381D01*
X125288423Y-110082404D01*
X125303488Y-110042013D01*
X125303490Y-110042008D01*
X125309899Y-109982398D01*
X125309898Y-108997653D01*
X125303490Y-108938042D01*
X125288689Y-108898359D01*
X125283704Y-108828667D01*
X125288688Y-108811694D01*
X125303490Y-108772008D01*
X125309899Y-108712398D01*
X125309898Y-107727653D01*
X125303490Y-107668042D01*
X125288685Y-107628350D01*
X125283702Y-107558660D01*
X125288684Y-107541691D01*
X125303490Y-107501997D01*
X125309899Y-107442387D01*
X125309898Y-106457649D01*
X147219499Y-106457649D01*
X147219499Y-107442384D01*
X147219500Y-107442390D01*
X147225907Y-107501997D01*
X147240711Y-107541686D01*
X147245695Y-107611377D01*
X147240711Y-107628352D01*
X147225907Y-107668042D01*
X147219500Y-107727641D01*
X147219500Y-107727648D01*
X147219499Y-107727660D01*
X147219499Y-108712395D01*
X147219500Y-108712401D01*
X147225907Y-108772007D01*
X147240709Y-108811694D01*
X147245692Y-108881386D01*
X147240709Y-108898356D01*
X147225907Y-108938042D01*
X147219500Y-108997641D01*
X147219500Y-108997648D01*
X147219499Y-108997660D01*
X147219499Y-109982395D01*
X147219500Y-109982401D01*
X147225907Y-110042008D01*
X147240975Y-110082407D01*
X147245959Y-110152099D01*
X147240976Y-110169070D01*
X147226400Y-110208150D01*
X147219999Y-110267680D01*
X147219999Y-110510025D01*
X152309399Y-110510025D01*
X152311269Y-110508154D01*
X152329084Y-110447486D01*
X152381888Y-110401731D01*
X152433399Y-110390525D01*
X164911309Y-110390525D01*
X174095999Y-110390525D01*
X174163038Y-110410210D01*
X174208793Y-110463014D01*
X174218747Y-110508773D01*
X174219999Y-110510025D01*
X179309399Y-110510025D01*
X179309399Y-110267697D01*
X179309398Y-110267680D01*
X179302997Y-110208152D01*
X179302996Y-110208148D01*
X179288422Y-110169073D01*
X179283438Y-110099381D01*
X179288423Y-110082404D01*
X179303488Y-110042013D01*
X179303490Y-110042008D01*
X179309899Y-109982398D01*
X179309898Y-108997653D01*
X179303490Y-108938042D01*
X179288689Y-108898359D01*
X179283704Y-108828667D01*
X179288688Y-108811694D01*
X179303490Y-108772008D01*
X179309899Y-108712398D01*
X179309898Y-107727653D01*
X179303490Y-107668042D01*
X179288685Y-107628350D01*
X179283702Y-107558660D01*
X179288684Y-107541691D01*
X179303490Y-107501997D01*
X179309899Y-107442387D01*
X179309898Y-106457642D01*
X179303490Y-106398031D01*
X179253195Y-106263183D01*
X179253194Y-106263182D01*
X179253192Y-106263178D01*
X179166946Y-106147969D01*
X179166943Y-106147966D01*
X179051734Y-106061720D01*
X179051727Y-106061716D01*
X178916881Y-106011422D01*
X178916882Y-106011422D01*
X178857282Y-106005015D01*
X178857280Y-106005014D01*
X178857272Y-106005014D01*
X178857263Y-106005014D01*
X174672128Y-106005014D01*
X174672122Y-106005015D01*
X174612515Y-106011422D01*
X174531350Y-106041696D01*
X174488017Y-106049514D01*
X152041381Y-106049514D01*
X151998048Y-106041696D01*
X151916881Y-106011422D01*
X151916882Y-106011422D01*
X151857282Y-106005015D01*
X151857280Y-106005014D01*
X151857272Y-106005014D01*
X151857263Y-106005014D01*
X147672128Y-106005014D01*
X147672122Y-106005015D01*
X147612515Y-106011422D01*
X147477670Y-106061716D01*
X147477663Y-106061720D01*
X147362454Y-106147966D01*
X147362451Y-106147969D01*
X147276205Y-106263178D01*
X147276201Y-106263185D01*
X147225907Y-106398031D01*
X147219500Y-106457630D01*
X147219500Y-106457637D01*
X147219499Y-106457649D01*
X125309898Y-106457649D01*
X125309898Y-106457642D01*
X125303490Y-106398031D01*
X125253195Y-106263183D01*
X125253194Y-106263182D01*
X125253192Y-106263178D01*
X125166946Y-106147969D01*
X125166943Y-106147966D01*
X125051734Y-106061720D01*
X125051727Y-106061716D01*
X124916881Y-106011422D01*
X124916882Y-106011422D01*
X124857282Y-106005015D01*
X124857280Y-106005014D01*
X124857272Y-106005014D01*
X124857264Y-106005014D01*
X123122366Y-106005014D01*
X123074915Y-105995576D01*
X123056534Y-105987963D01*
X123056532Y-105987962D01*
X122863242Y-105949514D01*
X122863240Y-105949514D01*
X109098541Y-105949514D01*
X95863240Y-105949514D01*
X95666158Y-105949514D01*
X95666156Y-105949514D01*
X95472866Y-105987962D01*
X95472864Y-105987962D01*
X95454481Y-105995577D01*
X95407032Y-106005014D01*
X93672128Y-106005014D01*
X93672122Y-106005015D01*
X93612515Y-106011422D01*
X93477670Y-106061716D01*
X93477663Y-106061720D01*
X93362454Y-106147966D01*
X93362451Y-106147969D01*
X93276205Y-106263178D01*
X93276201Y-106263185D01*
X93225907Y-106398031D01*
X93219500Y-106457630D01*
X93219500Y-106457637D01*
X93219499Y-106457649D01*
X86470531Y-106457649D01*
X86476387Y-101092369D01*
X93219999Y-101092369D01*
X93226400Y-101151897D01*
X93226402Y-101151904D01*
X93276644Y-101286611D01*
X93276648Y-101286618D01*
X93362808Y-101401712D01*
X93362811Y-101401715D01*
X93477905Y-101487875D01*
X93477912Y-101487879D01*
X93612619Y-101538121D01*
X93612626Y-101538123D01*
X93672154Y-101544524D01*
X93672171Y-101544525D01*
X95514699Y-101544525D01*
X96014699Y-101544525D01*
X97857227Y-101544525D01*
X97857243Y-101544524D01*
X97916771Y-101538123D01*
X97916778Y-101538121D01*
X98051485Y-101487879D01*
X98051492Y-101487875D01*
X98166586Y-101401715D01*
X98166589Y-101401712D01*
X98252749Y-101286618D01*
X98252753Y-101286611D01*
X98302995Y-101151904D01*
X98302997Y-101151897D01*
X98309398Y-101092369D01*
X120219999Y-101092369D01*
X120226400Y-101151897D01*
X120226402Y-101151904D01*
X120276644Y-101286611D01*
X120276648Y-101286618D01*
X120362808Y-101401712D01*
X120362811Y-101401715D01*
X120477905Y-101487875D01*
X120477912Y-101487879D01*
X120612619Y-101538121D01*
X120612626Y-101538123D01*
X120672154Y-101544524D01*
X120672171Y-101544525D01*
X122514699Y-101544525D01*
X123014699Y-101544525D01*
X124857227Y-101544525D01*
X124857243Y-101544524D01*
X124916771Y-101538123D01*
X124916778Y-101538121D01*
X125051485Y-101487879D01*
X125051492Y-101487875D01*
X125166586Y-101401715D01*
X125166589Y-101401712D01*
X125252749Y-101286618D01*
X125252753Y-101286611D01*
X125302995Y-101151904D01*
X125302997Y-101151897D01*
X125309398Y-101092369D01*
X147219999Y-101092369D01*
X147226400Y-101151897D01*
X147226402Y-101151904D01*
X147276644Y-101286611D01*
X147276648Y-101286618D01*
X147362808Y-101401712D01*
X147362811Y-101401715D01*
X147477905Y-101487875D01*
X147477912Y-101487879D01*
X147612619Y-101538121D01*
X147612626Y-101538123D01*
X147672154Y-101544524D01*
X147672171Y-101544525D01*
X149514699Y-101544525D01*
X150014699Y-101544525D01*
X151857227Y-101544525D01*
X151857243Y-101544524D01*
X151916771Y-101538123D01*
X151916778Y-101538121D01*
X152051485Y-101487879D01*
X152051492Y-101487875D01*
X152166586Y-101401715D01*
X152166589Y-101401712D01*
X152252749Y-101286618D01*
X152252753Y-101286611D01*
X152302995Y-101151904D01*
X152302997Y-101151897D01*
X152309398Y-101092369D01*
X174219999Y-101092369D01*
X174226400Y-101151897D01*
X174226402Y-101151904D01*
X174276644Y-101286611D01*
X174276648Y-101286618D01*
X174362808Y-101401712D01*
X174362811Y-101401715D01*
X174477905Y-101487875D01*
X174477912Y-101487879D01*
X174612619Y-101538121D01*
X174612626Y-101538123D01*
X174672154Y-101544524D01*
X174672171Y-101544525D01*
X176514699Y-101544525D01*
X177014699Y-101544525D01*
X178857227Y-101544525D01*
X178857243Y-101544524D01*
X178916771Y-101538123D01*
X178916778Y-101538121D01*
X179051485Y-101487879D01*
X179051492Y-101487875D01*
X179166586Y-101401715D01*
X179166589Y-101401712D01*
X179252749Y-101286618D01*
X179252753Y-101286611D01*
X179302995Y-101151904D01*
X179302997Y-101151897D01*
X179309398Y-101092369D01*
X179309399Y-101092352D01*
X179309399Y-100850025D01*
X177014699Y-100850025D01*
X177014699Y-101544525D01*
X176514699Y-101544525D01*
X176514699Y-100850025D01*
X174219999Y-100850025D01*
X174219999Y-101092369D01*
X152309398Y-101092369D01*
X152309399Y-101092352D01*
X152309399Y-100850025D01*
X150014699Y-100850025D01*
X150014699Y-101544525D01*
X149514699Y-101544525D01*
X149514699Y-100850025D01*
X147219999Y-100850025D01*
X147219999Y-101092369D01*
X125309398Y-101092369D01*
X125309399Y-101092352D01*
X125309399Y-100850025D01*
X123014699Y-100850025D01*
X123014699Y-101544525D01*
X122514699Y-101544525D01*
X122514699Y-100850025D01*
X120219999Y-100850025D01*
X120219999Y-101092369D01*
X98309398Y-101092369D01*
X98309399Y-101092352D01*
X98309399Y-100850025D01*
X96014699Y-100850025D01*
X96014699Y-101544525D01*
X95514699Y-101544525D01*
X95514699Y-100850025D01*
X93219999Y-100850025D01*
X93219999Y-101092369D01*
X86476387Y-101092369D01*
X86484392Y-93757660D01*
X93219499Y-93757660D01*
X93219499Y-94742395D01*
X93219500Y-94742401D01*
X93225907Y-94802007D01*
X93240709Y-94841694D01*
X93245692Y-94911386D01*
X93240709Y-94928356D01*
X93225907Y-94968042D01*
X93219500Y-95027641D01*
X93219499Y-95027660D01*
X93219499Y-96012395D01*
X93219500Y-96012401D01*
X93225907Y-96072008D01*
X93240975Y-96112407D01*
X93245959Y-96182099D01*
X93240976Y-96199070D01*
X93226400Y-96238150D01*
X93219999Y-96297680D01*
X93219999Y-96540025D01*
X98309399Y-96540025D01*
X98309399Y-96294376D01*
X98310737Y-96294376D01*
X98325574Y-96231608D01*
X98375857Y-96183096D01*
X98433324Y-96168975D01*
X98895668Y-96168975D01*
X98980014Y-96152196D01*
X99021042Y-96144036D01*
X99139143Y-96095117D01*
X99245432Y-96024097D01*
X99335822Y-95933707D01*
X99449185Y-95820344D01*
X99510508Y-95786859D01*
X99536866Y-95784025D01*
X101682469Y-95784025D01*
X101766815Y-95767246D01*
X101807843Y-95759086D01*
X101925944Y-95710167D01*
X102032233Y-95639147D01*
X102122623Y-95548757D01*
X102122624Y-95548756D01*
X103541611Y-94129767D01*
X103541680Y-94129707D01*
X103547162Y-94124223D01*
X103547167Y-94124221D01*
X103562160Y-94109224D01*
X103562322Y-94109136D01*
X103598901Y-94072550D01*
X103598902Y-94072551D01*
X103671190Y-94000251D01*
X103791366Y-93834817D01*
X103808776Y-93800641D01*
X103856746Y-93749844D01*
X103924566Y-93733043D01*
X103990702Y-93755576D01*
X103992059Y-93756547D01*
X104156342Y-93875905D01*
X104230197Y-93913536D01*
X104338533Y-93968737D01*
X104338536Y-93968738D01*
X104435522Y-94000250D01*
X104533006Y-94031924D01*
X104734968Y-94063912D01*
X104734969Y-94063912D01*
X104939447Y-94063912D01*
X104939448Y-94063912D01*
X105141410Y-94031924D01*
X105324608Y-93972399D01*
X105394449Y-93970405D01*
X105454282Y-94006485D01*
X105485110Y-94069186D01*
X105477145Y-94138601D01*
X105450607Y-94178012D01*
X101868914Y-97759706D01*
X101807591Y-97793191D01*
X101781233Y-97796025D01*
X99536866Y-97796025D01*
X99469827Y-97776340D01*
X99449185Y-97759706D01*
X99245435Y-97555955D01*
X99245431Y-97555952D01*
X99139149Y-97484936D01*
X99139136Y-97484929D01*
X99021046Y-97436015D01*
X99021036Y-97436012D01*
X98895668Y-97411075D01*
X98895666Y-97411075D01*
X98433324Y-97411075D01*
X98366285Y-97391390D01*
X98320530Y-97338586D01*
X98310493Y-97285674D01*
X98309399Y-97285674D01*
X98309399Y-97040025D01*
X93219999Y-97040025D01*
X93219999Y-97282369D01*
X93226400Y-97341897D01*
X93226402Y-97341905D01*
X93240975Y-97380977D01*
X93245959Y-97450669D01*
X93240976Y-97467641D01*
X93225907Y-97508043D01*
X93219500Y-97567641D01*
X93219499Y-97567660D01*
X93219499Y-98552395D01*
X93219500Y-98552401D01*
X93225907Y-98612007D01*
X93240709Y-98651694D01*
X93245692Y-98721386D01*
X93240709Y-98738356D01*
X93225907Y-98778042D01*
X93219500Y-98837641D01*
X93219499Y-98837660D01*
X93219499Y-99822395D01*
X93219500Y-99822401D01*
X93225907Y-99882008D01*
X93240975Y-99922407D01*
X93245959Y-99992099D01*
X93240976Y-100009070D01*
X93226400Y-100048150D01*
X93219999Y-100107680D01*
X93219999Y-100350025D01*
X98309399Y-100350025D01*
X98309399Y-100104376D01*
X98310737Y-100104376D01*
X98325574Y-100041608D01*
X98375857Y-99993096D01*
X98433324Y-99978975D01*
X98895668Y-99978975D01*
X98980014Y-99962196D01*
X99021042Y-99954036D01*
X99139143Y-99905117D01*
X99245432Y-99834097D01*
X99335822Y-99743707D01*
X99449185Y-99630344D01*
X99510508Y-99596859D01*
X99536866Y-99594025D01*
X102372469Y-99594025D01*
X102456815Y-99577246D01*
X102497843Y-99569086D01*
X102615944Y-99520167D01*
X102722233Y-99449147D01*
X102812623Y-99358757D01*
X102812624Y-99358756D01*
X108413720Y-93757660D01*
X120219499Y-93757660D01*
X120219499Y-94742395D01*
X120219500Y-94742401D01*
X120225907Y-94802007D01*
X120240709Y-94841694D01*
X120245692Y-94911386D01*
X120240709Y-94928356D01*
X120225907Y-94968042D01*
X120219500Y-95027641D01*
X120219499Y-95027660D01*
X120219499Y-96012395D01*
X120219500Y-96012401D01*
X120225907Y-96072008D01*
X120240975Y-96112407D01*
X120245959Y-96182099D01*
X120240976Y-96199070D01*
X120226400Y-96238150D01*
X120219999Y-96297680D01*
X120219999Y-96540025D01*
X125309399Y-96540025D01*
X125309399Y-96294376D01*
X125310737Y-96294376D01*
X125325574Y-96231608D01*
X125375857Y-96183096D01*
X125433324Y-96168975D01*
X125895668Y-96168975D01*
X125980014Y-96152196D01*
X126021042Y-96144036D01*
X126139143Y-96095117D01*
X126245432Y-96024097D01*
X126335822Y-95933707D01*
X126449185Y-95820344D01*
X126510508Y-95786859D01*
X126536866Y-95784025D01*
X128682469Y-95784025D01*
X128766815Y-95767246D01*
X128807843Y-95759086D01*
X128925944Y-95710167D01*
X129032233Y-95639147D01*
X129122623Y-95548757D01*
X129122624Y-95548756D01*
X130541611Y-94129767D01*
X130541680Y-94129707D01*
X130547162Y-94124223D01*
X130547167Y-94124221D01*
X130562160Y-94109224D01*
X130562322Y-94109136D01*
X130598901Y-94072550D01*
X130598902Y-94072551D01*
X130671190Y-94000251D01*
X130791366Y-93834817D01*
X130808776Y-93800641D01*
X130856746Y-93749844D01*
X130924566Y-93733043D01*
X130990702Y-93755576D01*
X130992059Y-93756547D01*
X131156342Y-93875905D01*
X131230197Y-93913536D01*
X131338533Y-93968737D01*
X131338536Y-93968738D01*
X131435522Y-94000250D01*
X131533006Y-94031924D01*
X131734968Y-94063912D01*
X131734969Y-94063912D01*
X131939447Y-94063912D01*
X131939448Y-94063912D01*
X132141410Y-94031924D01*
X132324608Y-93972399D01*
X132394449Y-93970405D01*
X132454282Y-94006485D01*
X132485110Y-94069186D01*
X132477145Y-94138601D01*
X132450607Y-94178012D01*
X128868914Y-97759706D01*
X128807591Y-97793191D01*
X128781233Y-97796025D01*
X126536866Y-97796025D01*
X126469827Y-97776340D01*
X126449185Y-97759706D01*
X126245435Y-97555955D01*
X126245431Y-97555952D01*
X126139149Y-97484936D01*
X126139136Y-97484929D01*
X126021046Y-97436015D01*
X126021036Y-97436012D01*
X125895668Y-97411075D01*
X125895666Y-97411075D01*
X125433324Y-97411075D01*
X125366285Y-97391390D01*
X125320530Y-97338586D01*
X125310493Y-97285674D01*
X125309399Y-97285674D01*
X125309399Y-97040025D01*
X120219999Y-97040025D01*
X120219999Y-97282369D01*
X120226400Y-97341897D01*
X120226402Y-97341905D01*
X120240975Y-97380977D01*
X120245959Y-97450669D01*
X120240976Y-97467641D01*
X120225907Y-97508043D01*
X120219500Y-97567641D01*
X120219499Y-97567660D01*
X120219499Y-98552395D01*
X120219500Y-98552401D01*
X120225907Y-98612007D01*
X120240709Y-98651694D01*
X120245692Y-98721386D01*
X120240709Y-98738356D01*
X120225907Y-98778042D01*
X120219500Y-98837641D01*
X120219499Y-98837660D01*
X120219499Y-99822395D01*
X120219500Y-99822401D01*
X120225907Y-99882008D01*
X120240975Y-99922407D01*
X120245959Y-99992099D01*
X120240976Y-100009070D01*
X120226400Y-100048150D01*
X120219999Y-100107680D01*
X120219999Y-100350025D01*
X125309399Y-100350025D01*
X125309399Y-100104376D01*
X125310737Y-100104376D01*
X125325574Y-100041608D01*
X125375857Y-99993096D01*
X125433324Y-99978975D01*
X125895668Y-99978975D01*
X125980014Y-99962196D01*
X126021042Y-99954036D01*
X126139143Y-99905117D01*
X126245432Y-99834097D01*
X126335822Y-99743707D01*
X126449185Y-99630344D01*
X126510508Y-99596859D01*
X126536866Y-99594025D01*
X129372469Y-99594025D01*
X129456815Y-99577246D01*
X129497843Y-99569086D01*
X129615944Y-99520167D01*
X129722233Y-99449147D01*
X129812623Y-99358757D01*
X129812624Y-99358756D01*
X135413720Y-93757660D01*
X147219499Y-93757660D01*
X147219499Y-94742395D01*
X147219500Y-94742401D01*
X147225907Y-94802007D01*
X147240709Y-94841694D01*
X147245692Y-94911386D01*
X147240709Y-94928356D01*
X147225907Y-94968042D01*
X147219500Y-95027641D01*
X147219499Y-95027660D01*
X147219499Y-96012395D01*
X147219500Y-96012401D01*
X147225907Y-96072008D01*
X147240975Y-96112407D01*
X147245959Y-96182099D01*
X147240976Y-96199070D01*
X147226400Y-96238150D01*
X147219999Y-96297680D01*
X147219999Y-96540025D01*
X152309399Y-96540025D01*
X152309399Y-96294376D01*
X152310737Y-96294376D01*
X152325574Y-96231608D01*
X152375857Y-96183096D01*
X152433324Y-96168975D01*
X152895668Y-96168975D01*
X152980014Y-96152196D01*
X153021042Y-96144036D01*
X153139143Y-96095117D01*
X153245432Y-96024097D01*
X153335822Y-95933707D01*
X153449185Y-95820344D01*
X153510508Y-95786859D01*
X153536866Y-95784025D01*
X155682469Y-95784025D01*
X155766815Y-95767246D01*
X155807843Y-95759086D01*
X155925944Y-95710167D01*
X156032233Y-95639147D01*
X156122623Y-95548757D01*
X156122624Y-95548756D01*
X157541611Y-94129767D01*
X157541680Y-94129707D01*
X157547162Y-94124223D01*
X157547167Y-94124221D01*
X157562160Y-94109224D01*
X157562322Y-94109136D01*
X157598901Y-94072550D01*
X157598902Y-94072551D01*
X157671190Y-94000251D01*
X157791366Y-93834817D01*
X157808776Y-93800641D01*
X157856746Y-93749844D01*
X157924566Y-93733043D01*
X157990702Y-93755576D01*
X157992059Y-93756547D01*
X158156342Y-93875905D01*
X158230197Y-93913536D01*
X158338533Y-93968737D01*
X158338536Y-93968738D01*
X158435522Y-94000250D01*
X158533006Y-94031924D01*
X158734968Y-94063912D01*
X158734969Y-94063912D01*
X158939447Y-94063912D01*
X158939448Y-94063912D01*
X159141410Y-94031924D01*
X159324608Y-93972399D01*
X159394449Y-93970405D01*
X159454282Y-94006485D01*
X159485110Y-94069186D01*
X159477145Y-94138601D01*
X159450607Y-94178012D01*
X155868914Y-97759706D01*
X155807591Y-97793191D01*
X155781233Y-97796025D01*
X153536866Y-97796025D01*
X153469827Y-97776340D01*
X153449185Y-97759706D01*
X153245435Y-97555955D01*
X153245431Y-97555952D01*
X153139149Y-97484936D01*
X153139136Y-97484929D01*
X153021046Y-97436015D01*
X153021036Y-97436012D01*
X152895668Y-97411075D01*
X152895666Y-97411075D01*
X152433324Y-97411075D01*
X152366285Y-97391390D01*
X152320530Y-97338586D01*
X152310493Y-97285674D01*
X152309399Y-97285674D01*
X152309399Y-97040025D01*
X147219999Y-97040025D01*
X147219999Y-97282369D01*
X147226400Y-97341897D01*
X147226402Y-97341905D01*
X147240975Y-97380977D01*
X147245959Y-97450669D01*
X147240976Y-97467641D01*
X147225907Y-97508043D01*
X147219500Y-97567641D01*
X147219499Y-97567660D01*
X147219499Y-98552395D01*
X147219500Y-98552401D01*
X147225907Y-98612007D01*
X147240709Y-98651694D01*
X147245692Y-98721386D01*
X147240709Y-98738356D01*
X147225907Y-98778042D01*
X147219500Y-98837641D01*
X147219499Y-98837660D01*
X147219499Y-99822395D01*
X147219500Y-99822401D01*
X147225907Y-99882008D01*
X147240975Y-99922407D01*
X147245959Y-99992099D01*
X147240976Y-100009070D01*
X147226400Y-100048150D01*
X147219999Y-100107680D01*
X147219999Y-100350025D01*
X152309399Y-100350025D01*
X152309399Y-100104376D01*
X152310737Y-100104376D01*
X152325574Y-100041608D01*
X152375857Y-99993096D01*
X152433324Y-99978975D01*
X152895668Y-99978975D01*
X152980014Y-99962196D01*
X153021042Y-99954036D01*
X153139143Y-99905117D01*
X153245432Y-99834097D01*
X153335822Y-99743707D01*
X153449185Y-99630344D01*
X153510508Y-99596859D01*
X153536866Y-99594025D01*
X156372469Y-99594025D01*
X156456815Y-99577246D01*
X156497843Y-99569086D01*
X156615944Y-99520167D01*
X156722233Y-99449147D01*
X156812623Y-99358757D01*
X156812624Y-99358756D01*
X162413720Y-93757660D01*
X174219499Y-93757660D01*
X174219499Y-94742395D01*
X174219500Y-94742401D01*
X174225907Y-94802007D01*
X174240709Y-94841694D01*
X174245692Y-94911386D01*
X174240709Y-94928356D01*
X174225907Y-94968042D01*
X174219500Y-95027641D01*
X174219499Y-95027660D01*
X174219499Y-96012395D01*
X174219500Y-96012401D01*
X174225907Y-96072008D01*
X174240975Y-96112407D01*
X174245959Y-96182099D01*
X174240976Y-96199070D01*
X174226400Y-96238150D01*
X174219999Y-96297680D01*
X174219999Y-96540025D01*
X179309399Y-96540025D01*
X179309399Y-96294376D01*
X179310737Y-96294376D01*
X179325574Y-96231608D01*
X179375857Y-96183096D01*
X179433324Y-96168975D01*
X179895668Y-96168975D01*
X179980014Y-96152196D01*
X180021042Y-96144036D01*
X180139143Y-96095117D01*
X180245432Y-96024097D01*
X180335822Y-95933707D01*
X180449185Y-95820344D01*
X180510508Y-95786859D01*
X180536866Y-95784025D01*
X182682469Y-95784025D01*
X182766815Y-95767246D01*
X182807843Y-95759086D01*
X182925944Y-95710167D01*
X183032233Y-95639147D01*
X183122623Y-95548757D01*
X183122624Y-95548756D01*
X184541611Y-94129767D01*
X184541680Y-94129707D01*
X184547162Y-94124223D01*
X184547167Y-94124221D01*
X184562160Y-94109224D01*
X184562322Y-94109136D01*
X184598901Y-94072550D01*
X184598902Y-94072551D01*
X184671190Y-94000251D01*
X184791366Y-93834817D01*
X184808776Y-93800641D01*
X184856746Y-93749844D01*
X184924566Y-93733043D01*
X184990702Y-93755576D01*
X184992059Y-93756547D01*
X185156342Y-93875905D01*
X185230197Y-93913536D01*
X185338533Y-93968737D01*
X185338536Y-93968738D01*
X185435522Y-94000250D01*
X185533006Y-94031924D01*
X185734968Y-94063912D01*
X185734969Y-94063912D01*
X185939447Y-94063912D01*
X185939448Y-94063912D01*
X186141410Y-94031924D01*
X186324608Y-93972399D01*
X186394449Y-93970405D01*
X186454282Y-94006485D01*
X186485110Y-94069186D01*
X186477145Y-94138601D01*
X186450607Y-94178012D01*
X182868914Y-97759706D01*
X182807591Y-97793191D01*
X182781233Y-97796025D01*
X180536866Y-97796025D01*
X180469827Y-97776340D01*
X180449185Y-97759706D01*
X180245435Y-97555955D01*
X180245431Y-97555952D01*
X180139149Y-97484936D01*
X180139136Y-97484929D01*
X180021046Y-97436015D01*
X180021036Y-97436012D01*
X179895668Y-97411075D01*
X179895666Y-97411075D01*
X179433324Y-97411075D01*
X179366285Y-97391390D01*
X179320530Y-97338586D01*
X179310493Y-97285674D01*
X179309399Y-97285674D01*
X179309399Y-97040025D01*
X174219999Y-97040025D01*
X174219999Y-97282369D01*
X174226400Y-97341897D01*
X174226402Y-97341905D01*
X174240975Y-97380977D01*
X174245959Y-97450669D01*
X174240976Y-97467641D01*
X174225907Y-97508043D01*
X174219500Y-97567641D01*
X174219499Y-97567660D01*
X174219499Y-98552395D01*
X174219500Y-98552401D01*
X174225907Y-98612007D01*
X174240709Y-98651694D01*
X174245692Y-98721386D01*
X174240709Y-98738356D01*
X174225907Y-98778042D01*
X174219500Y-98837641D01*
X174219499Y-98837660D01*
X174219499Y-99822395D01*
X174219500Y-99822401D01*
X174225907Y-99882008D01*
X174240975Y-99922407D01*
X174245959Y-99992099D01*
X174240976Y-100009070D01*
X174226400Y-100048150D01*
X174219999Y-100107680D01*
X174219999Y-100350025D01*
X179309399Y-100350025D01*
X179309399Y-100104376D01*
X179310737Y-100104376D01*
X179325574Y-100041608D01*
X179375857Y-99993096D01*
X179433324Y-99978975D01*
X179895668Y-99978975D01*
X179980014Y-99962196D01*
X180021042Y-99954036D01*
X180139143Y-99905117D01*
X180245432Y-99834097D01*
X180335822Y-99743707D01*
X180449185Y-99630344D01*
X180510508Y-99596859D01*
X180536866Y-99594025D01*
X183372469Y-99594025D01*
X183456815Y-99577246D01*
X183497843Y-99569086D01*
X183615944Y-99520167D01*
X183722233Y-99449147D01*
X183812623Y-99358757D01*
X183812624Y-99358756D01*
X191459123Y-91712257D01*
X191530143Y-91605968D01*
X191579062Y-91487867D01*
X191584272Y-91461671D01*
X191589530Y-91435242D01*
X191589530Y-91435239D01*
X191604001Y-91362491D01*
X191604001Y-87540966D01*
X191623686Y-87473927D01*
X191640320Y-87453285D01*
X191844074Y-87249531D01*
X191867639Y-87214262D01*
X191915093Y-87143243D01*
X191964012Y-87025142D01*
X191988951Y-86899766D01*
X191989396Y-86895250D01*
X192015554Y-86830462D01*
X192072587Y-86790100D01*
X192112799Y-86783399D01*
X192360001Y-86783399D01*
X192860001Y-86783399D01*
X193153129Y-86783399D01*
X193153145Y-86783398D01*
X193212673Y-86776997D01*
X193212680Y-86776995D01*
X193347387Y-86726753D01*
X193347394Y-86726749D01*
X193462488Y-86640589D01*
X193462491Y-86640586D01*
X193548651Y-86525492D01*
X193548655Y-86525485D01*
X193598897Y-86390778D01*
X193598899Y-86390771D01*
X193605300Y-86331243D01*
X193605301Y-86331226D01*
X193605301Y-85428499D01*
X192860001Y-85428499D01*
X192860001Y-86783399D01*
X192360001Y-86783399D01*
X192360001Y-83573599D01*
X192860001Y-83573599D01*
X192860001Y-84928499D01*
X193605299Y-84928499D01*
X193631950Y-84901848D01*
X193693273Y-84868363D01*
X193762965Y-84873347D01*
X193868718Y-84912790D01*
X193868717Y-84912790D01*
X193875645Y-84913534D01*
X193928328Y-84919199D01*
X196411673Y-84919198D01*
X196471284Y-84912790D01*
X196606132Y-84862495D01*
X196721347Y-84776245D01*
X196807597Y-84661030D01*
X196857892Y-84526182D01*
X196864301Y-84466572D01*
X196864300Y-81170427D01*
X196857892Y-81110816D01*
X196816563Y-81000008D01*
X196807598Y-80975970D01*
X196807594Y-80975963D01*
X196721348Y-80860754D01*
X196721345Y-80860751D01*
X196606136Y-80774505D01*
X196606129Y-80774501D01*
X196471283Y-80724207D01*
X196471284Y-80724207D01*
X196411684Y-80717800D01*
X196411682Y-80717799D01*
X196411674Y-80717799D01*
X196411665Y-80717799D01*
X193928330Y-80717799D01*
X193928324Y-80717800D01*
X193868717Y-80724207D01*
X193733872Y-80774501D01*
X193733865Y-80774505D01*
X193618656Y-80860751D01*
X193618653Y-80860754D01*
X193532407Y-80975963D01*
X193532403Y-80975970D01*
X193482109Y-81110816D01*
X193475702Y-81170415D01*
X193475702Y-81170422D01*
X193475701Y-81170434D01*
X193475701Y-83499509D01*
X193456016Y-83566548D01*
X193403212Y-83612303D01*
X193334054Y-83622247D01*
X193308368Y-83615691D01*
X193212680Y-83580002D01*
X193212673Y-83580000D01*
X193153145Y-83573599D01*
X192860001Y-83573599D01*
X192360001Y-83573599D01*
X192066856Y-83573599D01*
X192007328Y-83580000D01*
X192004609Y-83580643D01*
X192001353Y-83580643D01*
X191999614Y-83580830D01*
X191999594Y-83580643D01*
X191947588Y-83580643D01*
X191942782Y-83579507D01*
X191883184Y-83573100D01*
X191883182Y-83573099D01*
X191883174Y-83573099D01*
X191883165Y-83573099D01*
X190796830Y-83573099D01*
X190796824Y-83573100D01*
X190737213Y-83579508D01*
X190733511Y-83580383D01*
X190676497Y-83580384D01*
X190672789Y-83579508D01*
X190613184Y-83573100D01*
X190613182Y-83573099D01*
X190613174Y-83573099D01*
X190613165Y-83573099D01*
X189526830Y-83573099D01*
X189526826Y-83573100D01*
X189467217Y-83579508D01*
X189462419Y-83580642D01*
X189410408Y-83580642D01*
X189410388Y-83580830D01*
X189408648Y-83580642D01*
X189405393Y-83580643D01*
X189402673Y-83580000D01*
X189343145Y-83573599D01*
X189050001Y-83573599D01*
X189050001Y-86783399D01*
X189297203Y-86783399D01*
X189364242Y-86803084D01*
X189409997Y-86855888D01*
X189420605Y-86895241D01*
X189421050Y-86899758D01*
X189421051Y-86899763D01*
X189421051Y-86899766D01*
X189423765Y-86913408D01*
X189423766Y-86913413D01*
X189423765Y-86913413D01*
X189445988Y-87025134D01*
X189445991Y-87025146D01*
X189494905Y-87143236D01*
X189494912Y-87143249D01*
X189565928Y-87249531D01*
X189565931Y-87249535D01*
X189769682Y-87453285D01*
X189803167Y-87514608D01*
X189806001Y-87540966D01*
X189806001Y-88467200D01*
X189786316Y-88534239D01*
X189733512Y-88579994D01*
X189729471Y-88581754D01*
X189653505Y-88613233D01*
X189507931Y-88710525D01*
X189507927Y-88710529D01*
X189384137Y-88834338D01*
X189384135Y-88834341D01*
X189286865Y-88979931D01*
X189219863Y-89141702D01*
X189185705Y-89313424D01*
X189185704Y-89313428D01*
X189185704Y-89333206D01*
X189185703Y-89333244D01*
X189185703Y-89400973D01*
X189185701Y-89481673D01*
X189185703Y-89481706D01*
X189185703Y-89590482D01*
X189185754Y-89591533D01*
X189185754Y-89608513D01*
X189219903Y-89780241D01*
X189219904Y-89780245D01*
X189286889Y-89941995D01*
X189286893Y-89942002D01*
X189286895Y-89942006D01*
X189351602Y-90038866D01*
X189384156Y-90087597D01*
X189384159Y-90087600D01*
X189507941Y-90211410D01*
X189507951Y-90211418D01*
X189653505Y-90308704D01*
X189653511Y-90308707D01*
X189653514Y-90308709D01*
X189729470Y-90340184D01*
X189783867Y-90384033D01*
X189805923Y-90450330D01*
X189806001Y-90454738D01*
X189806001Y-90771257D01*
X189786316Y-90838296D01*
X189769682Y-90858938D01*
X187391885Y-93236734D01*
X187330562Y-93270219D01*
X187260870Y-93265235D01*
X187204937Y-93223363D01*
X187180520Y-93157899D01*
X187186272Y-93110737D01*
X187245781Y-92927588D01*
X187277768Y-92725616D01*
X187277763Y-92521127D01*
X187245768Y-92319157D01*
X187182570Y-92124679D01*
X187089725Y-91942482D01*
X187000131Y-91819182D01*
X186976649Y-91753378D01*
X186992470Y-91685324D01*
X187012757Y-91658619D01*
X187649123Y-91022257D01*
X187720143Y-90915969D01*
X187769062Y-90797868D01*
X187794001Y-90672491D01*
X187794001Y-90544660D01*
X187794001Y-87540966D01*
X187813686Y-87473927D01*
X187830320Y-87453285D01*
X188034074Y-87249531D01*
X188057639Y-87214262D01*
X188105093Y-87143243D01*
X188154012Y-87025142D01*
X188178951Y-86899766D01*
X188179396Y-86895250D01*
X188205554Y-86830462D01*
X188262587Y-86790100D01*
X188302799Y-86783399D01*
X188550001Y-86783399D01*
X188550001Y-83573599D01*
X188256856Y-83573599D01*
X188197328Y-83580000D01*
X188194609Y-83580643D01*
X188191353Y-83580643D01*
X188189614Y-83580830D01*
X188189594Y-83580643D01*
X188137588Y-83580643D01*
X188132782Y-83579507D01*
X188073184Y-83573100D01*
X188073182Y-83573099D01*
X188073174Y-83573099D01*
X188073165Y-83573099D01*
X186986830Y-83573099D01*
X186986824Y-83573100D01*
X186927213Y-83579508D01*
X186923511Y-83580383D01*
X186866497Y-83580384D01*
X186862789Y-83579508D01*
X186803184Y-83573100D01*
X186803182Y-83573099D01*
X186803174Y-83573099D01*
X186803165Y-83573099D01*
X185716830Y-83573099D01*
X185716826Y-83573100D01*
X185657217Y-83579508D01*
X185652419Y-83580642D01*
X185600408Y-83580642D01*
X185600388Y-83580830D01*
X185598648Y-83580642D01*
X185595393Y-83580643D01*
X185592673Y-83580000D01*
X185533145Y-83573599D01*
X185240001Y-83573599D01*
X185240001Y-86783399D01*
X185487203Y-86783399D01*
X185554242Y-86803084D01*
X185599997Y-86855888D01*
X185610605Y-86895241D01*
X185611050Y-86899758D01*
X185611051Y-86899763D01*
X185611051Y-86899766D01*
X185613765Y-86913408D01*
X185613766Y-86913413D01*
X185613765Y-86913413D01*
X185635988Y-87025134D01*
X185635991Y-87025146D01*
X185684905Y-87143236D01*
X185684912Y-87143249D01*
X185755928Y-87249531D01*
X185755931Y-87249535D01*
X185959682Y-87453285D01*
X185993167Y-87514608D01*
X185996001Y-87540966D01*
X185996001Y-90081257D01*
X185976316Y-90148296D01*
X185959682Y-90168938D01*
X185494398Y-90634221D01*
X185258649Y-90869968D01*
X185257934Y-90870756D01*
X185235523Y-90893164D01*
X185235523Y-90893165D01*
X185115329Y-91058570D01*
X185115315Y-91058593D01*
X185097861Y-91092843D01*
X185049883Y-91143636D01*
X184982061Y-91160426D01*
X184915928Y-91137883D01*
X184914496Y-91136858D01*
X184750240Y-91017520D01*
X184568048Y-90924688D01*
X184373572Y-90861498D01*
X184171616Y-90829512D01*
X184171611Y-90829512D01*
X183967131Y-90829512D01*
X183967126Y-90829512D01*
X183765169Y-90861498D01*
X183570693Y-90924688D01*
X183388502Y-91017520D01*
X183223082Y-91137704D01*
X183223078Y-91137708D01*
X183195982Y-91164803D01*
X183195979Y-91164806D01*
X183195976Y-91164808D01*
X183195966Y-91164817D01*
X183063014Y-91297767D01*
X183063004Y-91297777D01*
X183063002Y-91297780D01*
X183045672Y-91315109D01*
X183045482Y-91315212D01*
X182936979Y-91423723D01*
X182936977Y-91423725D01*
X182816791Y-91589157D01*
X182816785Y-91589166D01*
X182723960Y-91771364D01*
X182723960Y-91771365D01*
X182660778Y-91965842D01*
X182660777Y-91965846D01*
X182628797Y-92167818D01*
X182628806Y-92372308D01*
X182660806Y-92574272D01*
X182724009Y-92768754D01*
X182816854Y-92950945D01*
X182816857Y-92950949D01*
X182906442Y-93074235D01*
X182929926Y-93140040D01*
X182914106Y-93208095D01*
X182893810Y-93234808D01*
X182178914Y-93949706D01*
X182117591Y-93983191D01*
X182091233Y-93986025D01*
X181981558Y-93986025D01*
X181914519Y-93966340D01*
X181868764Y-93913536D01*
X181867010Y-93909510D01*
X181835572Y-93833613D01*
X181835567Y-93833606D01*
X181835566Y-93833603D01*
X181738287Y-93688019D01*
X181738286Y-93688018D01*
X181738284Y-93688015D01*
X181614459Y-93564195D01*
X181468857Y-93466912D01*
X181468850Y-93466909D01*
X181307075Y-93399904D01*
X181307069Y-93399902D01*
X181163683Y-93371385D01*
X181135326Y-93365746D01*
X181135325Y-93365746D01*
X181047770Y-93365749D01*
X181007690Y-93365749D01*
X181007654Y-93365747D01*
X180979136Y-93365747D01*
X180979112Y-93365740D01*
X180840221Y-93365744D01*
X180668478Y-93399911D01*
X180668474Y-93399912D01*
X180506708Y-93466922D01*
X180506704Y-93466924D01*
X180361118Y-93564205D01*
X180361116Y-93564206D01*
X180276395Y-93648929D01*
X180215072Y-93682414D01*
X180145380Y-93677430D01*
X180141261Y-93675809D01*
X180021046Y-93626015D01*
X180021042Y-93626014D01*
X179981090Y-93618067D01*
X179952615Y-93612403D01*
X179895668Y-93601075D01*
X179895666Y-93601075D01*
X179433323Y-93601075D01*
X179366284Y-93581390D01*
X179320529Y-93528586D01*
X179310498Y-93475663D01*
X179309399Y-93475663D01*
X179309399Y-93230014D01*
X174219999Y-93230014D01*
X174219999Y-93472358D01*
X174226400Y-93531886D01*
X174226402Y-93531893D01*
X174240977Y-93570971D01*
X174245961Y-93640663D01*
X174240978Y-93657634D01*
X174225908Y-93698041D01*
X174225907Y-93698042D01*
X174219500Y-93757641D01*
X174219499Y-93757660D01*
X162413720Y-93757660D01*
X163683711Y-92487669D01*
X174219999Y-92487669D01*
X174219999Y-92730014D01*
X176514699Y-92730014D01*
X177014699Y-92730014D01*
X179309399Y-92730014D01*
X179309399Y-92487686D01*
X179309398Y-92487669D01*
X179302997Y-92428141D01*
X179302995Y-92428134D01*
X179252753Y-92293427D01*
X179252749Y-92293420D01*
X179166589Y-92178326D01*
X179166586Y-92178323D01*
X179051492Y-92092163D01*
X179051485Y-92092159D01*
X178916778Y-92041917D01*
X178916771Y-92041915D01*
X178857243Y-92035514D01*
X177014699Y-92035514D01*
X177014699Y-92730014D01*
X176514699Y-92730014D01*
X176514699Y-92035514D01*
X174672154Y-92035514D01*
X174612626Y-92041915D01*
X174612619Y-92041917D01*
X174477912Y-92092159D01*
X174477905Y-92092163D01*
X174362811Y-92178323D01*
X174362808Y-92178326D01*
X174276648Y-92293420D01*
X174276644Y-92293427D01*
X174226402Y-92428134D01*
X174226400Y-92428141D01*
X174219999Y-92487669D01*
X163683711Y-92487669D01*
X164459123Y-91712257D01*
X164530143Y-91605968D01*
X164579062Y-91487867D01*
X164584272Y-91461671D01*
X164589530Y-91435242D01*
X164589530Y-91435239D01*
X164604001Y-91362491D01*
X164604001Y-89376358D01*
X174320398Y-89376358D01*
X174320398Y-89603695D01*
X174355962Y-89828236D01*
X174355962Y-89828239D01*
X174426211Y-90044443D01*
X174529422Y-90247005D01*
X174663048Y-90430925D01*
X174823800Y-90591677D01*
X175007720Y-90725303D01*
X175097910Y-90771257D01*
X175210281Y-90828513D01*
X175426486Y-90898762D01*
X175426487Y-90898762D01*
X175426490Y-90898763D01*
X175651029Y-90934327D01*
X175651030Y-90934327D01*
X175878366Y-90934327D01*
X175878367Y-90934327D01*
X176102906Y-90898763D01*
X176102909Y-90898762D01*
X176102910Y-90898762D01*
X176319114Y-90828513D01*
X176319114Y-90828512D01*
X176319117Y-90828512D01*
X176521676Y-90725303D01*
X176705596Y-90591677D01*
X176866348Y-90430925D01*
X176999974Y-90247005D01*
X177103183Y-90044446D01*
X177173434Y-89828235D01*
X177208998Y-89603696D01*
X177208998Y-89376358D01*
X177173434Y-89151819D01*
X177173433Y-89151815D01*
X177173433Y-89151814D01*
X177103184Y-88935610D01*
X176999973Y-88733048D01*
X176983609Y-88710525D01*
X176866348Y-88549129D01*
X176705596Y-88388377D01*
X176521676Y-88254751D01*
X176319114Y-88151540D01*
X176102909Y-88081291D01*
X175934501Y-88054618D01*
X175878367Y-88045727D01*
X175651029Y-88045727D01*
X175576182Y-88057581D01*
X175426488Y-88081291D01*
X175426485Y-88081291D01*
X175210281Y-88151540D01*
X175007719Y-88254751D01*
X174902786Y-88330989D01*
X174823800Y-88388377D01*
X174823798Y-88388379D01*
X174823797Y-88388379D01*
X174663050Y-88549126D01*
X174663050Y-88549127D01*
X174663048Y-88549129D01*
X174616474Y-88613233D01*
X174529422Y-88733048D01*
X174426211Y-88935610D01*
X174355962Y-89151814D01*
X174355962Y-89151817D01*
X174320398Y-89376358D01*
X164604001Y-89376358D01*
X164604001Y-87540966D01*
X164623686Y-87473927D01*
X164640320Y-87453285D01*
X164844074Y-87249531D01*
X164867639Y-87214262D01*
X164915093Y-87143243D01*
X164964012Y-87025142D01*
X164988951Y-86899766D01*
X164989396Y-86895250D01*
X165015554Y-86830462D01*
X165072587Y-86790100D01*
X165112799Y-86783399D01*
X165360001Y-86783399D01*
X165860001Y-86783399D01*
X166153129Y-86783399D01*
X166153145Y-86783398D01*
X166212673Y-86776997D01*
X166212680Y-86776995D01*
X166347387Y-86726753D01*
X166347394Y-86726749D01*
X166462488Y-86640589D01*
X166462491Y-86640586D01*
X166548651Y-86525492D01*
X166548655Y-86525485D01*
X166598897Y-86390778D01*
X166598899Y-86390771D01*
X166605300Y-86331243D01*
X183994701Y-86331243D01*
X184001102Y-86390771D01*
X184001104Y-86390778D01*
X184051346Y-86525485D01*
X184051350Y-86525492D01*
X184137510Y-86640586D01*
X184137513Y-86640589D01*
X184252607Y-86726749D01*
X184252614Y-86726753D01*
X184387321Y-86776995D01*
X184387328Y-86776997D01*
X184446856Y-86783398D01*
X184446873Y-86783399D01*
X184740001Y-86783399D01*
X184740001Y-85428499D01*
X183994701Y-85428499D01*
X183994701Y-86331243D01*
X166605300Y-86331243D01*
X166605301Y-86331226D01*
X166605301Y-85428499D01*
X165860001Y-85428499D01*
X165860001Y-86783399D01*
X165360001Y-86783399D01*
X165360001Y-83573599D01*
X165860001Y-83573599D01*
X165860001Y-84928499D01*
X166605299Y-84928499D01*
X166631950Y-84901848D01*
X166693273Y-84868363D01*
X166762965Y-84873347D01*
X166868718Y-84912790D01*
X166868717Y-84912790D01*
X166875645Y-84913534D01*
X166928328Y-84919199D01*
X169411673Y-84919198D01*
X169471284Y-84912790D01*
X169606132Y-84862495D01*
X169721347Y-84776245D01*
X169807597Y-84661030D01*
X169857892Y-84526182D01*
X169864301Y-84466572D01*
X169864300Y-81170434D01*
X180735701Y-81170434D01*
X180735701Y-84466569D01*
X180735702Y-84466575D01*
X180742109Y-84526182D01*
X180792403Y-84661027D01*
X180792407Y-84661034D01*
X180878653Y-84776243D01*
X180878656Y-84776246D01*
X180993865Y-84862492D01*
X180993872Y-84862496D01*
X181128718Y-84912790D01*
X181128717Y-84912790D01*
X181135645Y-84913534D01*
X181188328Y-84919199D01*
X183671673Y-84919198D01*
X183731284Y-84912790D01*
X183837036Y-84873346D01*
X183906727Y-84868363D01*
X183968050Y-84901848D01*
X183994701Y-84928499D01*
X184740001Y-84928499D01*
X184740001Y-83573599D01*
X184446856Y-83573599D01*
X184387328Y-83580000D01*
X184387318Y-83580002D01*
X184291632Y-83615691D01*
X184221941Y-83620675D01*
X184160618Y-83587189D01*
X184127134Y-83525866D01*
X184124300Y-83499515D01*
X184124300Y-81170427D01*
X184117892Y-81110816D01*
X184076563Y-81000008D01*
X184067598Y-80975970D01*
X184067594Y-80975963D01*
X183981348Y-80860754D01*
X183981345Y-80860751D01*
X183866136Y-80774505D01*
X183866129Y-80774501D01*
X183731283Y-80724207D01*
X183731284Y-80724207D01*
X183671684Y-80717800D01*
X183671682Y-80717799D01*
X183671674Y-80717799D01*
X183671665Y-80717799D01*
X181188330Y-80717799D01*
X181188324Y-80717800D01*
X181128717Y-80724207D01*
X180993872Y-80774501D01*
X180993865Y-80774505D01*
X180878656Y-80860751D01*
X180878653Y-80860754D01*
X180792407Y-80975963D01*
X180792403Y-80975970D01*
X180742109Y-81110816D01*
X180735702Y-81170415D01*
X180735702Y-81170422D01*
X180735701Y-81170434D01*
X169864300Y-81170434D01*
X169864300Y-81170427D01*
X169857892Y-81110816D01*
X169816563Y-81000008D01*
X169807598Y-80975970D01*
X169807594Y-80975963D01*
X169721348Y-80860754D01*
X169721345Y-80860751D01*
X169606136Y-80774505D01*
X169606129Y-80774501D01*
X169471283Y-80724207D01*
X169471284Y-80724207D01*
X169411684Y-80717800D01*
X169411682Y-80717799D01*
X169411674Y-80717799D01*
X169411665Y-80717799D01*
X166928330Y-80717799D01*
X166928324Y-80717800D01*
X166868717Y-80724207D01*
X166733872Y-80774501D01*
X166733865Y-80774505D01*
X166618656Y-80860751D01*
X166618653Y-80860754D01*
X166532407Y-80975963D01*
X166532403Y-80975970D01*
X166482109Y-81110816D01*
X166475702Y-81170415D01*
X166475702Y-81170422D01*
X166475701Y-81170434D01*
X166475701Y-83499509D01*
X166456016Y-83566548D01*
X166403212Y-83612303D01*
X166334054Y-83622247D01*
X166308368Y-83615691D01*
X166212680Y-83580002D01*
X166212673Y-83580000D01*
X166153145Y-83573599D01*
X165860001Y-83573599D01*
X165360001Y-83573599D01*
X165066856Y-83573599D01*
X165007328Y-83580000D01*
X165004609Y-83580643D01*
X165001353Y-83580643D01*
X164999614Y-83580830D01*
X164999594Y-83580643D01*
X164947588Y-83580643D01*
X164942782Y-83579507D01*
X164883184Y-83573100D01*
X164883182Y-83573099D01*
X164883174Y-83573099D01*
X164883165Y-83573099D01*
X163796830Y-83573099D01*
X163796824Y-83573100D01*
X163737213Y-83579508D01*
X163733511Y-83580383D01*
X163676497Y-83580384D01*
X163672789Y-83579508D01*
X163613184Y-83573100D01*
X163613182Y-83573099D01*
X163613174Y-83573099D01*
X163613165Y-83573099D01*
X162526830Y-83573099D01*
X162526826Y-83573100D01*
X162467217Y-83579508D01*
X162462419Y-83580642D01*
X162410408Y-83580642D01*
X162410388Y-83580830D01*
X162408648Y-83580642D01*
X162405393Y-83580643D01*
X162402673Y-83580000D01*
X162343145Y-83573599D01*
X162050001Y-83573599D01*
X162050001Y-86783399D01*
X162297203Y-86783399D01*
X162364242Y-86803084D01*
X162409997Y-86855888D01*
X162420605Y-86895241D01*
X162421050Y-86899758D01*
X162421051Y-86899763D01*
X162421051Y-86899766D01*
X162423765Y-86913408D01*
X162423766Y-86913413D01*
X162423765Y-86913413D01*
X162445988Y-87025134D01*
X162445991Y-87025146D01*
X162494905Y-87143236D01*
X162494912Y-87143249D01*
X162565928Y-87249531D01*
X162565931Y-87249535D01*
X162769682Y-87453285D01*
X162803167Y-87514608D01*
X162806001Y-87540966D01*
X162806001Y-88467200D01*
X162786316Y-88534239D01*
X162733512Y-88579994D01*
X162729471Y-88581754D01*
X162653505Y-88613233D01*
X162507931Y-88710525D01*
X162507927Y-88710529D01*
X162384137Y-88834338D01*
X162384135Y-88834341D01*
X162286865Y-88979931D01*
X162219863Y-89141702D01*
X162185705Y-89313424D01*
X162185704Y-89313428D01*
X162185704Y-89333206D01*
X162185703Y-89333244D01*
X162185703Y-89400973D01*
X162185701Y-89481673D01*
X162185703Y-89481706D01*
X162185703Y-89590482D01*
X162185754Y-89591533D01*
X162185754Y-89608513D01*
X162219903Y-89780241D01*
X162219904Y-89780245D01*
X162286889Y-89941995D01*
X162286893Y-89942002D01*
X162286895Y-89942006D01*
X162351602Y-90038866D01*
X162384156Y-90087597D01*
X162384159Y-90087600D01*
X162507941Y-90211410D01*
X162507951Y-90211418D01*
X162653505Y-90308704D01*
X162653511Y-90308707D01*
X162653514Y-90308709D01*
X162729470Y-90340184D01*
X162783867Y-90384033D01*
X162805923Y-90450330D01*
X162806001Y-90454738D01*
X162806001Y-90771257D01*
X162786316Y-90838296D01*
X162769682Y-90858938D01*
X160391885Y-93236734D01*
X160330562Y-93270219D01*
X160260870Y-93265235D01*
X160204937Y-93223363D01*
X160180520Y-93157899D01*
X160186272Y-93110737D01*
X160245781Y-92927588D01*
X160277768Y-92725616D01*
X160277763Y-92521127D01*
X160245768Y-92319157D01*
X160182570Y-92124679D01*
X160089725Y-91942482D01*
X160000131Y-91819182D01*
X159976649Y-91753378D01*
X159992470Y-91685324D01*
X160012757Y-91658619D01*
X160649123Y-91022257D01*
X160720143Y-90915969D01*
X160769062Y-90797868D01*
X160794001Y-90672491D01*
X160794001Y-90544660D01*
X160794001Y-87540966D01*
X160813686Y-87473927D01*
X160830320Y-87453285D01*
X161034074Y-87249531D01*
X161057639Y-87214262D01*
X161105093Y-87143243D01*
X161154012Y-87025142D01*
X161178951Y-86899766D01*
X161179396Y-86895250D01*
X161205554Y-86830462D01*
X161262587Y-86790100D01*
X161302799Y-86783399D01*
X161550001Y-86783399D01*
X161550001Y-83573599D01*
X161256856Y-83573599D01*
X161197328Y-83580000D01*
X161194609Y-83580643D01*
X161191353Y-83580643D01*
X161189614Y-83580830D01*
X161189594Y-83580643D01*
X161137588Y-83580643D01*
X161132782Y-83579507D01*
X161073184Y-83573100D01*
X161073182Y-83573099D01*
X161073174Y-83573099D01*
X161073165Y-83573099D01*
X159986830Y-83573099D01*
X159986824Y-83573100D01*
X159927213Y-83579508D01*
X159923511Y-83580383D01*
X159866497Y-83580384D01*
X159862789Y-83579508D01*
X159803184Y-83573100D01*
X159803182Y-83573099D01*
X159803174Y-83573099D01*
X159803165Y-83573099D01*
X158716830Y-83573099D01*
X158716826Y-83573100D01*
X158657217Y-83579508D01*
X158652419Y-83580642D01*
X158600408Y-83580642D01*
X158600388Y-83580830D01*
X158598648Y-83580642D01*
X158595393Y-83580643D01*
X158592673Y-83580000D01*
X158533145Y-83573599D01*
X158240001Y-83573599D01*
X158240001Y-86783399D01*
X158487203Y-86783399D01*
X158554242Y-86803084D01*
X158599997Y-86855888D01*
X158610605Y-86895241D01*
X158611050Y-86899758D01*
X158611051Y-86899763D01*
X158611051Y-86899766D01*
X158613765Y-86913408D01*
X158613766Y-86913413D01*
X158613765Y-86913413D01*
X158635988Y-87025134D01*
X158635991Y-87025146D01*
X158684905Y-87143236D01*
X158684912Y-87143249D01*
X158755928Y-87249531D01*
X158755931Y-87249535D01*
X158959682Y-87453285D01*
X158993167Y-87514608D01*
X158996001Y-87540966D01*
X158996001Y-90081257D01*
X158976316Y-90148296D01*
X158959682Y-90168938D01*
X158494398Y-90634221D01*
X158258649Y-90869968D01*
X158257934Y-90870756D01*
X158235523Y-90893164D01*
X158235523Y-90893165D01*
X158115329Y-91058570D01*
X158115315Y-91058593D01*
X158097861Y-91092843D01*
X158049883Y-91143636D01*
X157982061Y-91160426D01*
X157915928Y-91137883D01*
X157914496Y-91136858D01*
X157750240Y-91017520D01*
X157568048Y-90924688D01*
X157373572Y-90861498D01*
X157171616Y-90829512D01*
X157171611Y-90829512D01*
X156967131Y-90829512D01*
X156967126Y-90829512D01*
X156765169Y-90861498D01*
X156570693Y-90924688D01*
X156388502Y-91017520D01*
X156223082Y-91137704D01*
X156223078Y-91137708D01*
X156195982Y-91164803D01*
X156195979Y-91164806D01*
X156195976Y-91164808D01*
X156195966Y-91164817D01*
X156063014Y-91297767D01*
X156063004Y-91297777D01*
X156063002Y-91297780D01*
X156045672Y-91315109D01*
X156045482Y-91315212D01*
X155936979Y-91423723D01*
X155936977Y-91423725D01*
X155816791Y-91589157D01*
X155816785Y-91589166D01*
X155723960Y-91771364D01*
X155723960Y-91771365D01*
X155660778Y-91965842D01*
X155660777Y-91965846D01*
X155628797Y-92167818D01*
X155628806Y-92372308D01*
X155660806Y-92574272D01*
X155724009Y-92768754D01*
X155816854Y-92950945D01*
X155816857Y-92950949D01*
X155906442Y-93074235D01*
X155929926Y-93140040D01*
X155914106Y-93208095D01*
X155893810Y-93234808D01*
X155178914Y-93949706D01*
X155117591Y-93983191D01*
X155091233Y-93986025D01*
X154981558Y-93986025D01*
X154914519Y-93966340D01*
X154868764Y-93913536D01*
X154867010Y-93909510D01*
X154835572Y-93833613D01*
X154835567Y-93833606D01*
X154835566Y-93833603D01*
X154738287Y-93688019D01*
X154738286Y-93688018D01*
X154738284Y-93688015D01*
X154614459Y-93564195D01*
X154468857Y-93466912D01*
X154468850Y-93466909D01*
X154307075Y-93399904D01*
X154307069Y-93399902D01*
X154163683Y-93371385D01*
X154135326Y-93365746D01*
X154135325Y-93365746D01*
X154047770Y-93365749D01*
X154007690Y-93365749D01*
X154007654Y-93365747D01*
X153979136Y-93365747D01*
X153979112Y-93365740D01*
X153840221Y-93365744D01*
X153668478Y-93399911D01*
X153668474Y-93399912D01*
X153506708Y-93466922D01*
X153506704Y-93466924D01*
X153361118Y-93564205D01*
X153361116Y-93564206D01*
X153276395Y-93648929D01*
X153215072Y-93682414D01*
X153145380Y-93677430D01*
X153141261Y-93675809D01*
X153021046Y-93626015D01*
X153021042Y-93626014D01*
X152981090Y-93618067D01*
X152952615Y-93612403D01*
X152895668Y-93601075D01*
X152895666Y-93601075D01*
X152433323Y-93601075D01*
X152366284Y-93581390D01*
X152320529Y-93528586D01*
X152310498Y-93475663D01*
X152309399Y-93475663D01*
X152309399Y-93230014D01*
X147219999Y-93230014D01*
X147219999Y-93472358D01*
X147226400Y-93531886D01*
X147226402Y-93531893D01*
X147240977Y-93570971D01*
X147245961Y-93640663D01*
X147240978Y-93657634D01*
X147225908Y-93698041D01*
X147225907Y-93698042D01*
X147219500Y-93757641D01*
X147219499Y-93757660D01*
X135413720Y-93757660D01*
X136683711Y-92487669D01*
X147219999Y-92487669D01*
X147219999Y-92730014D01*
X149514699Y-92730014D01*
X150014699Y-92730014D01*
X152309399Y-92730014D01*
X152309399Y-92487686D01*
X152309398Y-92487669D01*
X152302997Y-92428141D01*
X152302995Y-92428134D01*
X152252753Y-92293427D01*
X152252749Y-92293420D01*
X152166589Y-92178326D01*
X152166586Y-92178323D01*
X152051492Y-92092163D01*
X152051485Y-92092159D01*
X151916778Y-92041917D01*
X151916771Y-92041915D01*
X151857243Y-92035514D01*
X150014699Y-92035514D01*
X150014699Y-92730014D01*
X149514699Y-92730014D01*
X149514699Y-92035514D01*
X147672154Y-92035514D01*
X147612626Y-92041915D01*
X147612619Y-92041917D01*
X147477912Y-92092159D01*
X147477905Y-92092163D01*
X147362811Y-92178323D01*
X147362808Y-92178326D01*
X147276648Y-92293420D01*
X147276644Y-92293427D01*
X147226402Y-92428134D01*
X147226400Y-92428141D01*
X147219999Y-92487669D01*
X136683711Y-92487669D01*
X137459123Y-91712257D01*
X137530143Y-91605968D01*
X137579062Y-91487867D01*
X137584272Y-91461671D01*
X137589530Y-91435242D01*
X137589530Y-91435239D01*
X137604001Y-91362491D01*
X137604001Y-89376358D01*
X147320398Y-89376358D01*
X147320398Y-89603695D01*
X147355962Y-89828236D01*
X147355962Y-89828239D01*
X147426211Y-90044443D01*
X147529422Y-90247005D01*
X147663048Y-90430925D01*
X147823800Y-90591677D01*
X148007720Y-90725303D01*
X148097910Y-90771257D01*
X148210281Y-90828513D01*
X148426486Y-90898762D01*
X148426487Y-90898762D01*
X148426490Y-90898763D01*
X148651029Y-90934327D01*
X148651030Y-90934327D01*
X148878366Y-90934327D01*
X148878367Y-90934327D01*
X149102906Y-90898763D01*
X149102909Y-90898762D01*
X149102910Y-90898762D01*
X149319114Y-90828513D01*
X149319114Y-90828512D01*
X149319117Y-90828512D01*
X149521676Y-90725303D01*
X149705596Y-90591677D01*
X149866348Y-90430925D01*
X149999974Y-90247005D01*
X150103183Y-90044446D01*
X150173434Y-89828235D01*
X150208998Y-89603696D01*
X150208998Y-89376358D01*
X150173434Y-89151819D01*
X150173433Y-89151815D01*
X150173433Y-89151814D01*
X150103184Y-88935610D01*
X149999973Y-88733048D01*
X149983609Y-88710525D01*
X149866348Y-88549129D01*
X149705596Y-88388377D01*
X149521676Y-88254751D01*
X149319114Y-88151540D01*
X149102909Y-88081291D01*
X148934501Y-88054618D01*
X148878367Y-88045727D01*
X148651029Y-88045727D01*
X148576182Y-88057581D01*
X148426488Y-88081291D01*
X148426485Y-88081291D01*
X148210281Y-88151540D01*
X148007719Y-88254751D01*
X147902786Y-88330989D01*
X147823800Y-88388377D01*
X147823798Y-88388379D01*
X147823797Y-88388379D01*
X147663050Y-88549126D01*
X147663050Y-88549127D01*
X147663048Y-88549129D01*
X147616474Y-88613233D01*
X147529422Y-88733048D01*
X147426211Y-88935610D01*
X147355962Y-89151814D01*
X147355962Y-89151817D01*
X147320398Y-89376358D01*
X137604001Y-89376358D01*
X137604001Y-87540966D01*
X137623686Y-87473927D01*
X137640320Y-87453285D01*
X137844074Y-87249531D01*
X137867639Y-87214262D01*
X137915093Y-87143243D01*
X137964012Y-87025142D01*
X137988951Y-86899766D01*
X137989396Y-86895250D01*
X138015554Y-86830462D01*
X138072587Y-86790100D01*
X138112799Y-86783399D01*
X138360001Y-86783399D01*
X138860001Y-86783399D01*
X139153129Y-86783399D01*
X139153145Y-86783398D01*
X139212673Y-86776997D01*
X139212680Y-86776995D01*
X139347387Y-86726753D01*
X139347394Y-86726749D01*
X139462488Y-86640589D01*
X139462491Y-86640586D01*
X139548651Y-86525492D01*
X139548655Y-86525485D01*
X139598897Y-86390778D01*
X139598899Y-86390771D01*
X139605300Y-86331243D01*
X156994701Y-86331243D01*
X157001102Y-86390771D01*
X157001104Y-86390778D01*
X157051346Y-86525485D01*
X157051350Y-86525492D01*
X157137510Y-86640586D01*
X157137513Y-86640589D01*
X157252607Y-86726749D01*
X157252614Y-86726753D01*
X157387321Y-86776995D01*
X157387328Y-86776997D01*
X157446856Y-86783398D01*
X157446873Y-86783399D01*
X157740001Y-86783399D01*
X157740001Y-85428499D01*
X156994701Y-85428499D01*
X156994701Y-86331243D01*
X139605300Y-86331243D01*
X139605301Y-86331226D01*
X139605301Y-85428499D01*
X138860001Y-85428499D01*
X138860001Y-86783399D01*
X138360001Y-86783399D01*
X138360001Y-83573599D01*
X138860001Y-83573599D01*
X138860001Y-84928499D01*
X139605299Y-84928499D01*
X139631950Y-84901848D01*
X139693273Y-84868363D01*
X139762965Y-84873347D01*
X139868718Y-84912790D01*
X139868717Y-84912790D01*
X139875645Y-84913534D01*
X139928328Y-84919199D01*
X142411673Y-84919198D01*
X142471284Y-84912790D01*
X142606132Y-84862495D01*
X142721347Y-84776245D01*
X142807597Y-84661030D01*
X142857892Y-84526182D01*
X142864301Y-84466572D01*
X142864300Y-81170434D01*
X153735701Y-81170434D01*
X153735701Y-84466569D01*
X153735702Y-84466575D01*
X153742109Y-84526182D01*
X153792403Y-84661027D01*
X153792407Y-84661034D01*
X153878653Y-84776243D01*
X153878656Y-84776246D01*
X153993865Y-84862492D01*
X153993872Y-84862496D01*
X154128718Y-84912790D01*
X154128717Y-84912790D01*
X154135645Y-84913534D01*
X154188328Y-84919199D01*
X156671673Y-84919198D01*
X156731284Y-84912790D01*
X156837036Y-84873346D01*
X156906727Y-84868363D01*
X156968050Y-84901848D01*
X156994701Y-84928499D01*
X157740001Y-84928499D01*
X157740001Y-83573599D01*
X157446856Y-83573599D01*
X157387328Y-83580000D01*
X157387318Y-83580002D01*
X157291632Y-83615691D01*
X157221941Y-83620675D01*
X157160618Y-83587189D01*
X157127134Y-83525866D01*
X157124300Y-83499515D01*
X157124300Y-81170427D01*
X157117892Y-81110816D01*
X157076563Y-81000008D01*
X157067598Y-80975970D01*
X157067594Y-80975963D01*
X156981348Y-80860754D01*
X156981345Y-80860751D01*
X156866136Y-80774505D01*
X156866129Y-80774501D01*
X156731283Y-80724207D01*
X156731284Y-80724207D01*
X156671684Y-80717800D01*
X156671682Y-80717799D01*
X156671674Y-80717799D01*
X156671665Y-80717799D01*
X154188330Y-80717799D01*
X154188324Y-80717800D01*
X154128717Y-80724207D01*
X153993872Y-80774501D01*
X153993865Y-80774505D01*
X153878656Y-80860751D01*
X153878653Y-80860754D01*
X153792407Y-80975963D01*
X153792403Y-80975970D01*
X153742109Y-81110816D01*
X153735702Y-81170415D01*
X153735702Y-81170422D01*
X153735701Y-81170434D01*
X142864300Y-81170434D01*
X142864300Y-81170427D01*
X142857892Y-81110816D01*
X142816563Y-81000008D01*
X142807598Y-80975970D01*
X142807594Y-80975963D01*
X142721348Y-80860754D01*
X142721345Y-80860751D01*
X142606136Y-80774505D01*
X142606129Y-80774501D01*
X142471283Y-80724207D01*
X142471284Y-80724207D01*
X142411684Y-80717800D01*
X142411682Y-80717799D01*
X142411674Y-80717799D01*
X142411665Y-80717799D01*
X139928330Y-80717799D01*
X139928324Y-80717800D01*
X139868717Y-80724207D01*
X139733872Y-80774501D01*
X139733865Y-80774505D01*
X139618656Y-80860751D01*
X139618653Y-80860754D01*
X139532407Y-80975963D01*
X139532403Y-80975970D01*
X139482109Y-81110816D01*
X139475702Y-81170415D01*
X139475702Y-81170422D01*
X139475701Y-81170434D01*
X139475701Y-83499509D01*
X139456016Y-83566548D01*
X139403212Y-83612303D01*
X139334054Y-83622247D01*
X139308368Y-83615691D01*
X139212680Y-83580002D01*
X139212673Y-83580000D01*
X139153145Y-83573599D01*
X138860001Y-83573599D01*
X138360001Y-83573599D01*
X138066856Y-83573599D01*
X138007328Y-83580000D01*
X138004609Y-83580643D01*
X138001353Y-83580643D01*
X137999614Y-83580830D01*
X137999594Y-83580643D01*
X137947588Y-83580643D01*
X137942782Y-83579507D01*
X137883184Y-83573100D01*
X137883182Y-83573099D01*
X137883174Y-83573099D01*
X137883165Y-83573099D01*
X136796830Y-83573099D01*
X136796824Y-83573100D01*
X136737213Y-83579508D01*
X136733511Y-83580383D01*
X136676497Y-83580384D01*
X136672789Y-83579508D01*
X136613184Y-83573100D01*
X136613182Y-83573099D01*
X136613174Y-83573099D01*
X136613165Y-83573099D01*
X135526830Y-83573099D01*
X135526826Y-83573100D01*
X135467217Y-83579508D01*
X135462419Y-83580642D01*
X135410408Y-83580642D01*
X135410388Y-83580830D01*
X135408648Y-83580642D01*
X135405393Y-83580643D01*
X135402673Y-83580000D01*
X135343145Y-83573599D01*
X135050001Y-83573599D01*
X135050001Y-86783399D01*
X135297203Y-86783399D01*
X135364242Y-86803084D01*
X135409997Y-86855888D01*
X135420605Y-86895241D01*
X135421050Y-86899758D01*
X135421051Y-86899763D01*
X135421051Y-86899766D01*
X135423765Y-86913408D01*
X135423766Y-86913413D01*
X135423765Y-86913413D01*
X135445988Y-87025134D01*
X135445991Y-87025146D01*
X135494905Y-87143236D01*
X135494912Y-87143249D01*
X135565928Y-87249531D01*
X135565931Y-87249535D01*
X135769682Y-87453285D01*
X135803167Y-87514608D01*
X135806001Y-87540966D01*
X135806001Y-88467200D01*
X135786316Y-88534239D01*
X135733512Y-88579994D01*
X135729471Y-88581754D01*
X135653505Y-88613233D01*
X135507931Y-88710525D01*
X135507927Y-88710529D01*
X135384137Y-88834338D01*
X135384135Y-88834341D01*
X135286865Y-88979931D01*
X135219863Y-89141702D01*
X135185705Y-89313424D01*
X135185704Y-89313428D01*
X135185704Y-89333206D01*
X135185703Y-89333244D01*
X135185703Y-89400973D01*
X135185701Y-89481673D01*
X135185703Y-89481706D01*
X135185703Y-89590482D01*
X135185754Y-89591533D01*
X135185754Y-89608513D01*
X135219903Y-89780241D01*
X135219904Y-89780245D01*
X135286889Y-89941995D01*
X135286893Y-89942002D01*
X135286895Y-89942006D01*
X135351602Y-90038866D01*
X135384156Y-90087597D01*
X135384159Y-90087600D01*
X135507941Y-90211410D01*
X135507951Y-90211418D01*
X135653505Y-90308704D01*
X135653511Y-90308707D01*
X135653514Y-90308709D01*
X135729470Y-90340184D01*
X135783867Y-90384033D01*
X135805923Y-90450330D01*
X135806001Y-90454738D01*
X135806001Y-90771257D01*
X135786316Y-90838296D01*
X135769682Y-90858938D01*
X133391885Y-93236734D01*
X133330562Y-93270219D01*
X133260870Y-93265235D01*
X133204937Y-93223363D01*
X133180520Y-93157899D01*
X133186272Y-93110737D01*
X133245781Y-92927588D01*
X133277768Y-92725616D01*
X133277763Y-92521127D01*
X133245768Y-92319157D01*
X133182570Y-92124679D01*
X133089725Y-91942482D01*
X133000131Y-91819182D01*
X132976649Y-91753378D01*
X132992470Y-91685324D01*
X133012757Y-91658619D01*
X133649123Y-91022257D01*
X133720143Y-90915969D01*
X133769062Y-90797868D01*
X133794001Y-90672491D01*
X133794001Y-90544660D01*
X133794001Y-87540966D01*
X133813686Y-87473927D01*
X133830320Y-87453285D01*
X134034074Y-87249531D01*
X134057639Y-87214262D01*
X134105093Y-87143243D01*
X134154012Y-87025142D01*
X134178951Y-86899766D01*
X134179396Y-86895250D01*
X134205554Y-86830462D01*
X134262587Y-86790100D01*
X134302799Y-86783399D01*
X134550001Y-86783399D01*
X134550001Y-83573599D01*
X134256856Y-83573599D01*
X134197328Y-83580000D01*
X134194609Y-83580643D01*
X134191353Y-83580643D01*
X134189614Y-83580830D01*
X134189594Y-83580643D01*
X134137588Y-83580643D01*
X134132782Y-83579507D01*
X134073184Y-83573100D01*
X134073182Y-83573099D01*
X134073174Y-83573099D01*
X134073165Y-83573099D01*
X132986830Y-83573099D01*
X132986824Y-83573100D01*
X132927213Y-83579508D01*
X132923511Y-83580383D01*
X132866497Y-83580384D01*
X132862789Y-83579508D01*
X132803184Y-83573100D01*
X132803182Y-83573099D01*
X132803174Y-83573099D01*
X132803165Y-83573099D01*
X131716830Y-83573099D01*
X131716826Y-83573100D01*
X131657217Y-83579508D01*
X131652419Y-83580642D01*
X131600408Y-83580642D01*
X131600388Y-83580830D01*
X131598648Y-83580642D01*
X131595393Y-83580643D01*
X131592673Y-83580000D01*
X131533145Y-83573599D01*
X131240001Y-83573599D01*
X131240001Y-86783399D01*
X131487203Y-86783399D01*
X131554242Y-86803084D01*
X131599997Y-86855888D01*
X131610605Y-86895241D01*
X131611050Y-86899758D01*
X131611051Y-86899763D01*
X131611051Y-86899766D01*
X131613765Y-86913408D01*
X131613766Y-86913413D01*
X131613765Y-86913413D01*
X131635988Y-87025134D01*
X131635991Y-87025146D01*
X131684905Y-87143236D01*
X131684912Y-87143249D01*
X131755928Y-87249531D01*
X131755931Y-87249535D01*
X131959682Y-87453285D01*
X131993167Y-87514608D01*
X131996001Y-87540966D01*
X131996001Y-90081257D01*
X131976316Y-90148296D01*
X131959682Y-90168938D01*
X131494398Y-90634221D01*
X131258649Y-90869968D01*
X131257934Y-90870756D01*
X131235523Y-90893164D01*
X131235523Y-90893165D01*
X131115329Y-91058570D01*
X131115315Y-91058593D01*
X131097861Y-91092843D01*
X131049883Y-91143636D01*
X130982061Y-91160426D01*
X130915928Y-91137883D01*
X130914496Y-91136858D01*
X130750240Y-91017520D01*
X130568048Y-90924688D01*
X130373572Y-90861498D01*
X130171616Y-90829512D01*
X130171611Y-90829512D01*
X129967131Y-90829512D01*
X129967126Y-90829512D01*
X129765169Y-90861498D01*
X129570693Y-90924688D01*
X129388502Y-91017520D01*
X129223082Y-91137704D01*
X129223078Y-91137708D01*
X129195982Y-91164803D01*
X129195979Y-91164806D01*
X129195976Y-91164808D01*
X129195966Y-91164817D01*
X129063014Y-91297767D01*
X129063004Y-91297777D01*
X129063002Y-91297780D01*
X129045672Y-91315109D01*
X129045482Y-91315212D01*
X128936979Y-91423723D01*
X128936977Y-91423725D01*
X128816791Y-91589157D01*
X128816785Y-91589166D01*
X128723960Y-91771364D01*
X128723960Y-91771365D01*
X128660778Y-91965842D01*
X128660777Y-91965846D01*
X128628797Y-92167818D01*
X128628806Y-92372308D01*
X128660806Y-92574272D01*
X128724009Y-92768754D01*
X128816854Y-92950945D01*
X128816857Y-92950949D01*
X128906442Y-93074235D01*
X128929926Y-93140040D01*
X128914106Y-93208095D01*
X128893810Y-93234808D01*
X128178914Y-93949706D01*
X128117591Y-93983191D01*
X128091233Y-93986025D01*
X127981558Y-93986025D01*
X127914519Y-93966340D01*
X127868764Y-93913536D01*
X127867010Y-93909510D01*
X127835572Y-93833613D01*
X127835567Y-93833606D01*
X127835566Y-93833603D01*
X127738287Y-93688019D01*
X127738286Y-93688018D01*
X127738284Y-93688015D01*
X127614459Y-93564195D01*
X127468857Y-93466912D01*
X127468850Y-93466909D01*
X127307075Y-93399904D01*
X127307069Y-93399902D01*
X127163683Y-93371385D01*
X127135326Y-93365746D01*
X127135325Y-93365746D01*
X127047770Y-93365749D01*
X127007690Y-93365749D01*
X127007654Y-93365747D01*
X126979136Y-93365747D01*
X126979112Y-93365740D01*
X126840221Y-93365744D01*
X126668478Y-93399911D01*
X126668474Y-93399912D01*
X126506708Y-93466922D01*
X126506704Y-93466924D01*
X126361118Y-93564205D01*
X126361116Y-93564206D01*
X126276395Y-93648929D01*
X126215072Y-93682414D01*
X126145380Y-93677430D01*
X126141261Y-93675809D01*
X126021046Y-93626015D01*
X126021042Y-93626014D01*
X125981090Y-93618067D01*
X125952615Y-93612403D01*
X125895668Y-93601075D01*
X125895666Y-93601075D01*
X125433323Y-93601075D01*
X125366284Y-93581390D01*
X125320529Y-93528586D01*
X125310498Y-93475663D01*
X125309399Y-93475663D01*
X125309399Y-93230014D01*
X120219999Y-93230014D01*
X120219999Y-93472358D01*
X120226400Y-93531886D01*
X120226402Y-93531893D01*
X120240977Y-93570971D01*
X120245961Y-93640663D01*
X120240978Y-93657634D01*
X120225908Y-93698041D01*
X120225907Y-93698042D01*
X120219500Y-93757641D01*
X120219499Y-93757660D01*
X108413720Y-93757660D01*
X109683711Y-92487669D01*
X120219999Y-92487669D01*
X120219999Y-92730014D01*
X122514699Y-92730014D01*
X123014699Y-92730014D01*
X125309399Y-92730014D01*
X125309399Y-92487686D01*
X125309398Y-92487669D01*
X125302997Y-92428141D01*
X125302995Y-92428134D01*
X125252753Y-92293427D01*
X125252749Y-92293420D01*
X125166589Y-92178326D01*
X125166586Y-92178323D01*
X125051492Y-92092163D01*
X125051485Y-92092159D01*
X124916778Y-92041917D01*
X124916771Y-92041915D01*
X124857243Y-92035514D01*
X123014699Y-92035514D01*
X123014699Y-92730014D01*
X122514699Y-92730014D01*
X122514699Y-92035514D01*
X120672154Y-92035514D01*
X120612626Y-92041915D01*
X120612619Y-92041917D01*
X120477912Y-92092159D01*
X120477905Y-92092163D01*
X120362811Y-92178323D01*
X120362808Y-92178326D01*
X120276648Y-92293420D01*
X120276644Y-92293427D01*
X120226402Y-92428134D01*
X120226400Y-92428141D01*
X120219999Y-92487669D01*
X109683711Y-92487669D01*
X110459123Y-91712257D01*
X110530143Y-91605968D01*
X110579062Y-91487867D01*
X110584272Y-91461671D01*
X110589530Y-91435242D01*
X110589530Y-91435239D01*
X110604001Y-91362491D01*
X110604001Y-89376358D01*
X120320398Y-89376358D01*
X120320398Y-89603695D01*
X120355962Y-89828236D01*
X120355962Y-89828239D01*
X120426211Y-90044443D01*
X120529422Y-90247005D01*
X120663048Y-90430925D01*
X120823800Y-90591677D01*
X121007720Y-90725303D01*
X121097910Y-90771257D01*
X121210281Y-90828513D01*
X121426486Y-90898762D01*
X121426487Y-90898762D01*
X121426490Y-90898763D01*
X121651029Y-90934327D01*
X121651030Y-90934327D01*
X121878366Y-90934327D01*
X121878367Y-90934327D01*
X122102906Y-90898763D01*
X122102909Y-90898762D01*
X122102910Y-90898762D01*
X122319114Y-90828513D01*
X122319114Y-90828512D01*
X122319117Y-90828512D01*
X122521676Y-90725303D01*
X122705596Y-90591677D01*
X122866348Y-90430925D01*
X122999974Y-90247005D01*
X123103183Y-90044446D01*
X123173434Y-89828235D01*
X123208998Y-89603696D01*
X123208998Y-89376358D01*
X123173434Y-89151819D01*
X123173433Y-89151815D01*
X123173433Y-89151814D01*
X123103184Y-88935610D01*
X122999973Y-88733048D01*
X122983609Y-88710525D01*
X122866348Y-88549129D01*
X122705596Y-88388377D01*
X122521676Y-88254751D01*
X122319114Y-88151540D01*
X122102909Y-88081291D01*
X121934501Y-88054618D01*
X121878367Y-88045727D01*
X121651029Y-88045727D01*
X121576182Y-88057581D01*
X121426488Y-88081291D01*
X121426485Y-88081291D01*
X121210281Y-88151540D01*
X121007719Y-88254751D01*
X120902786Y-88330989D01*
X120823800Y-88388377D01*
X120823798Y-88388379D01*
X120823797Y-88388379D01*
X120663050Y-88549126D01*
X120663050Y-88549127D01*
X120663048Y-88549129D01*
X120616474Y-88613233D01*
X120529422Y-88733048D01*
X120426211Y-88935610D01*
X120355962Y-89151814D01*
X120355962Y-89151817D01*
X120320398Y-89376358D01*
X110604001Y-89376358D01*
X110604001Y-87540966D01*
X110623686Y-87473927D01*
X110640320Y-87453285D01*
X110844074Y-87249531D01*
X110867639Y-87214262D01*
X110915093Y-87143243D01*
X110964012Y-87025142D01*
X110988951Y-86899766D01*
X110989396Y-86895250D01*
X111015554Y-86830462D01*
X111072587Y-86790100D01*
X111112799Y-86783399D01*
X111360001Y-86783399D01*
X111860001Y-86783399D01*
X112153129Y-86783399D01*
X112153145Y-86783398D01*
X112212673Y-86776997D01*
X112212680Y-86776995D01*
X112347387Y-86726753D01*
X112347394Y-86726749D01*
X112462488Y-86640589D01*
X112462491Y-86640586D01*
X112548651Y-86525492D01*
X112548655Y-86525485D01*
X112598897Y-86390778D01*
X112598899Y-86390771D01*
X112605300Y-86331243D01*
X129994701Y-86331243D01*
X130001102Y-86390771D01*
X130001104Y-86390778D01*
X130051346Y-86525485D01*
X130051350Y-86525492D01*
X130137510Y-86640586D01*
X130137513Y-86640589D01*
X130252607Y-86726749D01*
X130252614Y-86726753D01*
X130387321Y-86776995D01*
X130387328Y-86776997D01*
X130446856Y-86783398D01*
X130446873Y-86783399D01*
X130740001Y-86783399D01*
X130740001Y-85428499D01*
X129994701Y-85428499D01*
X129994701Y-86331243D01*
X112605300Y-86331243D01*
X112605301Y-86331226D01*
X112605301Y-85428499D01*
X111860001Y-85428499D01*
X111860001Y-86783399D01*
X111360001Y-86783399D01*
X111360001Y-83573599D01*
X111860001Y-83573599D01*
X111860001Y-84928499D01*
X112605299Y-84928499D01*
X112631950Y-84901848D01*
X112693273Y-84868363D01*
X112762965Y-84873347D01*
X112868718Y-84912790D01*
X112868717Y-84912790D01*
X112875645Y-84913534D01*
X112928328Y-84919199D01*
X115411673Y-84919198D01*
X115471284Y-84912790D01*
X115606132Y-84862495D01*
X115721347Y-84776245D01*
X115807597Y-84661030D01*
X115857892Y-84526182D01*
X115864301Y-84466572D01*
X115864300Y-81170434D01*
X126735701Y-81170434D01*
X126735701Y-84466569D01*
X126735702Y-84466575D01*
X126742109Y-84526182D01*
X126792403Y-84661027D01*
X126792407Y-84661034D01*
X126878653Y-84776243D01*
X126878656Y-84776246D01*
X126993865Y-84862492D01*
X126993872Y-84862496D01*
X127128718Y-84912790D01*
X127128717Y-84912790D01*
X127135645Y-84913534D01*
X127188328Y-84919199D01*
X129671673Y-84919198D01*
X129731284Y-84912790D01*
X129837036Y-84873346D01*
X129906727Y-84868363D01*
X129968050Y-84901848D01*
X129994701Y-84928499D01*
X130740001Y-84928499D01*
X130740001Y-83573599D01*
X130446856Y-83573599D01*
X130387328Y-83580000D01*
X130387318Y-83580002D01*
X130291632Y-83615691D01*
X130221941Y-83620675D01*
X130160618Y-83587189D01*
X130127134Y-83525866D01*
X130124300Y-83499515D01*
X130124300Y-81170427D01*
X130117892Y-81110816D01*
X130076563Y-81000008D01*
X130067598Y-80975970D01*
X130067594Y-80975963D01*
X129981348Y-80860754D01*
X129981345Y-80860751D01*
X129866136Y-80774505D01*
X129866129Y-80774501D01*
X129731283Y-80724207D01*
X129731284Y-80724207D01*
X129671684Y-80717800D01*
X129671682Y-80717799D01*
X129671674Y-80717799D01*
X129671665Y-80717799D01*
X127188330Y-80717799D01*
X127188324Y-80717800D01*
X127128717Y-80724207D01*
X126993872Y-80774501D01*
X126993865Y-80774505D01*
X126878656Y-80860751D01*
X126878653Y-80860754D01*
X126792407Y-80975963D01*
X126792403Y-80975970D01*
X126742109Y-81110816D01*
X126735702Y-81170415D01*
X126735702Y-81170422D01*
X126735701Y-81170434D01*
X115864300Y-81170434D01*
X115864300Y-81170427D01*
X115857892Y-81110816D01*
X115816563Y-81000008D01*
X115807598Y-80975970D01*
X115807594Y-80975963D01*
X115721348Y-80860754D01*
X115721345Y-80860751D01*
X115606136Y-80774505D01*
X115606129Y-80774501D01*
X115471283Y-80724207D01*
X115471284Y-80724207D01*
X115411684Y-80717800D01*
X115411682Y-80717799D01*
X115411674Y-80717799D01*
X115411665Y-80717799D01*
X112928330Y-80717799D01*
X112928324Y-80717800D01*
X112868717Y-80724207D01*
X112733872Y-80774501D01*
X112733865Y-80774505D01*
X112618656Y-80860751D01*
X112618653Y-80860754D01*
X112532407Y-80975963D01*
X112532403Y-80975970D01*
X112482109Y-81110816D01*
X112475702Y-81170415D01*
X112475702Y-81170422D01*
X112475701Y-81170434D01*
X112475701Y-83499509D01*
X112456016Y-83566548D01*
X112403212Y-83612303D01*
X112334054Y-83622247D01*
X112308368Y-83615691D01*
X112212680Y-83580002D01*
X112212673Y-83580000D01*
X112153145Y-83573599D01*
X111860001Y-83573599D01*
X111360001Y-83573599D01*
X111066856Y-83573599D01*
X111007328Y-83580000D01*
X111004609Y-83580643D01*
X111001353Y-83580643D01*
X110999614Y-83580830D01*
X110999594Y-83580643D01*
X110947588Y-83580643D01*
X110942782Y-83579507D01*
X110883184Y-83573100D01*
X110883182Y-83573099D01*
X110883174Y-83573099D01*
X110883165Y-83573099D01*
X109796830Y-83573099D01*
X109796824Y-83573100D01*
X109737213Y-83579508D01*
X109733511Y-83580383D01*
X109676497Y-83580384D01*
X109672789Y-83579508D01*
X109613184Y-83573100D01*
X109613182Y-83573099D01*
X109613174Y-83573099D01*
X109613165Y-83573099D01*
X108526830Y-83573099D01*
X108526826Y-83573100D01*
X108467217Y-83579508D01*
X108462419Y-83580642D01*
X108410408Y-83580642D01*
X108410388Y-83580830D01*
X108408648Y-83580642D01*
X108405393Y-83580643D01*
X108402673Y-83580000D01*
X108343145Y-83573599D01*
X108050001Y-83573599D01*
X108050001Y-86783399D01*
X108297203Y-86783399D01*
X108364242Y-86803084D01*
X108409997Y-86855888D01*
X108420605Y-86895241D01*
X108421050Y-86899758D01*
X108421051Y-86899763D01*
X108421051Y-86899766D01*
X108423765Y-86913408D01*
X108423766Y-86913413D01*
X108423765Y-86913413D01*
X108445988Y-87025134D01*
X108445991Y-87025146D01*
X108494905Y-87143236D01*
X108494912Y-87143249D01*
X108565928Y-87249531D01*
X108565931Y-87249535D01*
X108769682Y-87453285D01*
X108803167Y-87514608D01*
X108806001Y-87540966D01*
X108806001Y-88467200D01*
X108786316Y-88534239D01*
X108733512Y-88579994D01*
X108729471Y-88581754D01*
X108653505Y-88613233D01*
X108507931Y-88710525D01*
X108507927Y-88710529D01*
X108384137Y-88834338D01*
X108384135Y-88834341D01*
X108286865Y-88979931D01*
X108219863Y-89141702D01*
X108185705Y-89313424D01*
X108185704Y-89313428D01*
X108185704Y-89333206D01*
X108185703Y-89333244D01*
X108185703Y-89400973D01*
X108185701Y-89481673D01*
X108185703Y-89481706D01*
X108185703Y-89590482D01*
X108185754Y-89591533D01*
X108185754Y-89608513D01*
X108219903Y-89780241D01*
X108219904Y-89780245D01*
X108286889Y-89941995D01*
X108286893Y-89942002D01*
X108286895Y-89942006D01*
X108351602Y-90038866D01*
X108384156Y-90087597D01*
X108384159Y-90087600D01*
X108507941Y-90211410D01*
X108507951Y-90211418D01*
X108653505Y-90308704D01*
X108653511Y-90308707D01*
X108653514Y-90308709D01*
X108729470Y-90340184D01*
X108783867Y-90384033D01*
X108805923Y-90450330D01*
X108806001Y-90454738D01*
X108806001Y-90771257D01*
X108786316Y-90838296D01*
X108769682Y-90858938D01*
X106391885Y-93236734D01*
X106330562Y-93270219D01*
X106260870Y-93265235D01*
X106204937Y-93223363D01*
X106180520Y-93157899D01*
X106186272Y-93110737D01*
X106245781Y-92927588D01*
X106277768Y-92725616D01*
X106277763Y-92521127D01*
X106245768Y-92319157D01*
X106182570Y-92124679D01*
X106089725Y-91942482D01*
X106000131Y-91819182D01*
X105976649Y-91753378D01*
X105992470Y-91685324D01*
X106012757Y-91658619D01*
X106649123Y-91022257D01*
X106720143Y-90915969D01*
X106769062Y-90797868D01*
X106794001Y-90672491D01*
X106794001Y-90544660D01*
X106794001Y-87540966D01*
X106813686Y-87473927D01*
X106830320Y-87453285D01*
X107034074Y-87249531D01*
X107057639Y-87214262D01*
X107105093Y-87143243D01*
X107154012Y-87025142D01*
X107178951Y-86899766D01*
X107179396Y-86895250D01*
X107205554Y-86830462D01*
X107262587Y-86790100D01*
X107302799Y-86783399D01*
X107550001Y-86783399D01*
X107550001Y-83573599D01*
X107256856Y-83573599D01*
X107197328Y-83580000D01*
X107194609Y-83580643D01*
X107191353Y-83580643D01*
X107189614Y-83580830D01*
X107189594Y-83580643D01*
X107137588Y-83580643D01*
X107132782Y-83579507D01*
X107073184Y-83573100D01*
X107073182Y-83573099D01*
X107073174Y-83573099D01*
X107073165Y-83573099D01*
X105986830Y-83573099D01*
X105986824Y-83573100D01*
X105927213Y-83579508D01*
X105923511Y-83580383D01*
X105866497Y-83580384D01*
X105862789Y-83579508D01*
X105803184Y-83573100D01*
X105803182Y-83573099D01*
X105803174Y-83573099D01*
X105803165Y-83573099D01*
X104716830Y-83573099D01*
X104716826Y-83573100D01*
X104657217Y-83579508D01*
X104652419Y-83580642D01*
X104600408Y-83580642D01*
X104600388Y-83580830D01*
X104598648Y-83580642D01*
X104595393Y-83580643D01*
X104592673Y-83580000D01*
X104533145Y-83573599D01*
X104240001Y-83573599D01*
X104240001Y-86783399D01*
X104487203Y-86783399D01*
X104554242Y-86803084D01*
X104599997Y-86855888D01*
X104610605Y-86895241D01*
X104611050Y-86899758D01*
X104611051Y-86899763D01*
X104611051Y-86899766D01*
X104613765Y-86913408D01*
X104613766Y-86913413D01*
X104613765Y-86913413D01*
X104635988Y-87025134D01*
X104635991Y-87025146D01*
X104684905Y-87143236D01*
X104684912Y-87143249D01*
X104755928Y-87249531D01*
X104755931Y-87249535D01*
X104959682Y-87453285D01*
X104993167Y-87514608D01*
X104996001Y-87540966D01*
X104996001Y-90081257D01*
X104976316Y-90148296D01*
X104959682Y-90168938D01*
X104494398Y-90634221D01*
X104258649Y-90869968D01*
X104257934Y-90870756D01*
X104235523Y-90893164D01*
X104235523Y-90893165D01*
X104115329Y-91058570D01*
X104115315Y-91058593D01*
X104097861Y-91092843D01*
X104049883Y-91143636D01*
X103982061Y-91160426D01*
X103915928Y-91137883D01*
X103914496Y-91136858D01*
X103750240Y-91017520D01*
X103568048Y-90924688D01*
X103373572Y-90861498D01*
X103171616Y-90829512D01*
X103171611Y-90829512D01*
X102967131Y-90829512D01*
X102967126Y-90829512D01*
X102765169Y-90861498D01*
X102570693Y-90924688D01*
X102388502Y-91017520D01*
X102223082Y-91137704D01*
X102223078Y-91137708D01*
X102195982Y-91164803D01*
X102195979Y-91164806D01*
X102195976Y-91164808D01*
X102195966Y-91164817D01*
X102063014Y-91297767D01*
X102063004Y-91297777D01*
X102063002Y-91297780D01*
X102045672Y-91315109D01*
X102045482Y-91315212D01*
X101936979Y-91423723D01*
X101936977Y-91423725D01*
X101816791Y-91589157D01*
X101816785Y-91589166D01*
X101723960Y-91771364D01*
X101723960Y-91771365D01*
X101660778Y-91965842D01*
X101660777Y-91965846D01*
X101628797Y-92167818D01*
X101628806Y-92372308D01*
X101660806Y-92574272D01*
X101724009Y-92768754D01*
X101816854Y-92950945D01*
X101816857Y-92950949D01*
X101906442Y-93074235D01*
X101929926Y-93140040D01*
X101914106Y-93208095D01*
X101893810Y-93234808D01*
X101178914Y-93949706D01*
X101117591Y-93983191D01*
X101091233Y-93986025D01*
X100981558Y-93986025D01*
X100914519Y-93966340D01*
X100868764Y-93913536D01*
X100867010Y-93909510D01*
X100835572Y-93833613D01*
X100835567Y-93833606D01*
X100835566Y-93833603D01*
X100738287Y-93688019D01*
X100738286Y-93688018D01*
X100738284Y-93688015D01*
X100614459Y-93564195D01*
X100468857Y-93466912D01*
X100468850Y-93466909D01*
X100307075Y-93399904D01*
X100307069Y-93399902D01*
X100163683Y-93371385D01*
X100135326Y-93365746D01*
X100135325Y-93365746D01*
X100047770Y-93365749D01*
X100007690Y-93365749D01*
X100007654Y-93365747D01*
X99979136Y-93365747D01*
X99979112Y-93365740D01*
X99840221Y-93365744D01*
X99668478Y-93399911D01*
X99668474Y-93399912D01*
X99506708Y-93466922D01*
X99506704Y-93466924D01*
X99361118Y-93564205D01*
X99361116Y-93564206D01*
X99276395Y-93648929D01*
X99215072Y-93682414D01*
X99145380Y-93677430D01*
X99141261Y-93675809D01*
X99021046Y-93626015D01*
X99021042Y-93626014D01*
X98981090Y-93618067D01*
X98952615Y-93612403D01*
X98895668Y-93601075D01*
X98895666Y-93601075D01*
X98433323Y-93601075D01*
X98366284Y-93581390D01*
X98320529Y-93528586D01*
X98310498Y-93475663D01*
X98309399Y-93475663D01*
X98309399Y-93230014D01*
X93219999Y-93230014D01*
X93219999Y-93472358D01*
X93226400Y-93531886D01*
X93226402Y-93531893D01*
X93240977Y-93570971D01*
X93245961Y-93640663D01*
X93240978Y-93657634D01*
X93225908Y-93698041D01*
X93225907Y-93698042D01*
X93219500Y-93757641D01*
X93219499Y-93757660D01*
X86484392Y-93757660D01*
X86485778Y-92487669D01*
X93219999Y-92487669D01*
X93219999Y-92730014D01*
X95514699Y-92730014D01*
X96014699Y-92730014D01*
X98309399Y-92730014D01*
X98309399Y-92487686D01*
X98309398Y-92487669D01*
X98302997Y-92428141D01*
X98302995Y-92428134D01*
X98252753Y-92293427D01*
X98252749Y-92293420D01*
X98166589Y-92178326D01*
X98166586Y-92178323D01*
X98051492Y-92092163D01*
X98051485Y-92092159D01*
X97916778Y-92041917D01*
X97916771Y-92041915D01*
X97857243Y-92035514D01*
X96014699Y-92035514D01*
X96014699Y-92730014D01*
X95514699Y-92730014D01*
X95514699Y-92035514D01*
X93672154Y-92035514D01*
X93612626Y-92041915D01*
X93612619Y-92041917D01*
X93477912Y-92092159D01*
X93477905Y-92092163D01*
X93362811Y-92178323D01*
X93362808Y-92178326D01*
X93276648Y-92293420D01*
X93276644Y-92293427D01*
X93226402Y-92428134D01*
X93226400Y-92428141D01*
X93219999Y-92487669D01*
X86485778Y-92487669D01*
X86489174Y-89376358D01*
X93320398Y-89376358D01*
X93320398Y-89603695D01*
X93355962Y-89828236D01*
X93355962Y-89828239D01*
X93426211Y-90044443D01*
X93529422Y-90247005D01*
X93663048Y-90430925D01*
X93823800Y-90591677D01*
X94007720Y-90725303D01*
X94097910Y-90771257D01*
X94210281Y-90828513D01*
X94426486Y-90898762D01*
X94426487Y-90898762D01*
X94426490Y-90898763D01*
X94651029Y-90934327D01*
X94651030Y-90934327D01*
X94878366Y-90934327D01*
X94878367Y-90934327D01*
X95102906Y-90898763D01*
X95102909Y-90898762D01*
X95102910Y-90898762D01*
X95319114Y-90828513D01*
X95319114Y-90828512D01*
X95319117Y-90828512D01*
X95521676Y-90725303D01*
X95705596Y-90591677D01*
X95866348Y-90430925D01*
X95999974Y-90247005D01*
X96103183Y-90044446D01*
X96173434Y-89828235D01*
X96208998Y-89603696D01*
X96208998Y-89376358D01*
X96173434Y-89151819D01*
X96173433Y-89151815D01*
X96173433Y-89151814D01*
X96103184Y-88935610D01*
X95999973Y-88733048D01*
X95983609Y-88710525D01*
X95866348Y-88549129D01*
X95705596Y-88388377D01*
X95521676Y-88254751D01*
X95319114Y-88151540D01*
X95102909Y-88081291D01*
X94934501Y-88054618D01*
X94878367Y-88045727D01*
X94651029Y-88045727D01*
X94576182Y-88057581D01*
X94426488Y-88081291D01*
X94426485Y-88081291D01*
X94210281Y-88151540D01*
X94007719Y-88254751D01*
X93902786Y-88330989D01*
X93823800Y-88388377D01*
X93823798Y-88388379D01*
X93823797Y-88388379D01*
X93663050Y-88549126D01*
X93663050Y-88549127D01*
X93663048Y-88549129D01*
X93616474Y-88613233D01*
X93529422Y-88733048D01*
X93426211Y-88935610D01*
X93355962Y-89151814D01*
X93355962Y-89151817D01*
X93320398Y-89376358D01*
X86489174Y-89376358D01*
X86492498Y-86331243D01*
X102994701Y-86331243D01*
X103001102Y-86390771D01*
X103001104Y-86390778D01*
X103051346Y-86525485D01*
X103051350Y-86525492D01*
X103137510Y-86640586D01*
X103137513Y-86640589D01*
X103252607Y-86726749D01*
X103252614Y-86726753D01*
X103387321Y-86776995D01*
X103387328Y-86776997D01*
X103446856Y-86783398D01*
X103446873Y-86783399D01*
X103740001Y-86783399D01*
X103740001Y-85428499D01*
X102994701Y-85428499D01*
X102994701Y-86331243D01*
X86492498Y-86331243D01*
X86500418Y-79074561D01*
X86500500Y-79073358D01*
X86500500Y-79002690D01*
X86500559Y-78999997D01*
X87695153Y-78999997D01*
X87695153Y-79000002D01*
X87714526Y-79357314D01*
X87714527Y-79357331D01*
X87772415Y-79710431D01*
X87772421Y-79710457D01*
X87868147Y-80055232D01*
X87868149Y-80055239D01*
X88000597Y-80387659D01*
X88000606Y-80387677D01*
X88168218Y-80703827D01*
X88369033Y-81000007D01*
X88496441Y-81150003D01*
X88496442Y-81150004D01*
X89705748Y-79940698D01*
X89779588Y-80042330D01*
X89957670Y-80220412D01*
X90059300Y-80294251D01*
X88847255Y-81506295D01*
X88847256Y-81506296D01*
X88860485Y-81518828D01*
X88860486Y-81518829D01*
X89145367Y-81735388D01*
X89145370Y-81735390D01*
X89451990Y-81919876D01*
X89776739Y-82070122D01*
X89776744Y-82070123D01*
X90115855Y-82184383D01*
X90465339Y-82261311D01*
X90821075Y-82299999D01*
X90821085Y-82300000D01*
X91178915Y-82300000D01*
X91178924Y-82299999D01*
X91534660Y-82261311D01*
X91884144Y-82184383D01*
X92223255Y-82070123D01*
X92223260Y-82070122D01*
X92548009Y-81919876D01*
X92854629Y-81735390D01*
X92854632Y-81735388D01*
X93139504Y-81518836D01*
X93152742Y-81506294D01*
X92816882Y-81170434D01*
X99735701Y-81170434D01*
X99735701Y-84466569D01*
X99735702Y-84466575D01*
X99742109Y-84526182D01*
X99792403Y-84661027D01*
X99792407Y-84661034D01*
X99878653Y-84776243D01*
X99878656Y-84776246D01*
X99993865Y-84862492D01*
X99993872Y-84862496D01*
X100128718Y-84912790D01*
X100128717Y-84912790D01*
X100135645Y-84913534D01*
X100188328Y-84919199D01*
X102671673Y-84919198D01*
X102731284Y-84912790D01*
X102837036Y-84873346D01*
X102906727Y-84868363D01*
X102968050Y-84901848D01*
X102994701Y-84928499D01*
X103740001Y-84928499D01*
X103740001Y-83573599D01*
X103446856Y-83573599D01*
X103387328Y-83580000D01*
X103387318Y-83580002D01*
X103291632Y-83615691D01*
X103221941Y-83620675D01*
X103160618Y-83587189D01*
X103127134Y-83525866D01*
X103124300Y-83499515D01*
X103124300Y-81170427D01*
X103117892Y-81110816D01*
X103076563Y-81000008D01*
X103067598Y-80975970D01*
X103067594Y-80975963D01*
X102981348Y-80860754D01*
X102981345Y-80860751D01*
X102866136Y-80774505D01*
X102866129Y-80774501D01*
X102731283Y-80724207D01*
X102731284Y-80724207D01*
X102671684Y-80717800D01*
X102671682Y-80717799D01*
X102671674Y-80717799D01*
X102671665Y-80717799D01*
X100188330Y-80717799D01*
X100188324Y-80717800D01*
X100128717Y-80724207D01*
X99993872Y-80774501D01*
X99993865Y-80774505D01*
X99878656Y-80860751D01*
X99878653Y-80860754D01*
X99792407Y-80975963D01*
X99792403Y-80975970D01*
X99742109Y-81110816D01*
X99735702Y-81170415D01*
X99735702Y-81170422D01*
X99735701Y-81170434D01*
X92816882Y-81170434D01*
X91940698Y-80294251D01*
X92042330Y-80220412D01*
X92220412Y-80042330D01*
X92294251Y-79940698D01*
X93503556Y-81150003D01*
X93630964Y-81000008D01*
X93630975Y-80999994D01*
X93831781Y-80703827D01*
X93999393Y-80387677D01*
X93999402Y-80387659D01*
X94131850Y-80055239D01*
X94131852Y-80055232D01*
X94227578Y-79710457D01*
X94227584Y-79710431D01*
X94285472Y-79357331D01*
X94285473Y-79357314D01*
X94304847Y-79000002D01*
X94304847Y-78999997D01*
X199695153Y-78999997D01*
X199695153Y-79000002D01*
X199714526Y-79357314D01*
X199714527Y-79357331D01*
X199772415Y-79710431D01*
X199772421Y-79710457D01*
X199868147Y-80055232D01*
X199868149Y-80055239D01*
X200000597Y-80387659D01*
X200000606Y-80387677D01*
X200168218Y-80703827D01*
X200369033Y-81000007D01*
X200496441Y-81150003D01*
X200496442Y-81150004D01*
X201705748Y-79940698D01*
X201779588Y-80042330D01*
X201957670Y-80220412D01*
X202059300Y-80294251D01*
X200847255Y-81506295D01*
X200847256Y-81506296D01*
X200860485Y-81518828D01*
X200860486Y-81518829D01*
X201145367Y-81735388D01*
X201145370Y-81735390D01*
X201451990Y-81919876D01*
X201776739Y-82070122D01*
X201776744Y-82070123D01*
X202115855Y-82184383D01*
X202465339Y-82261311D01*
X202821075Y-82299999D01*
X202821085Y-82300000D01*
X203178915Y-82300000D01*
X203178924Y-82299999D01*
X203534660Y-82261311D01*
X203884144Y-82184383D01*
X204223255Y-82070123D01*
X204223260Y-82070122D01*
X204548009Y-81919876D01*
X204854629Y-81735390D01*
X204854632Y-81735388D01*
X205139504Y-81518836D01*
X205152742Y-81506294D01*
X203940698Y-80294251D01*
X204042330Y-80220412D01*
X204220412Y-80042330D01*
X204294251Y-79940698D01*
X205503556Y-81150003D01*
X205630964Y-81000008D01*
X205630975Y-80999994D01*
X205831781Y-80703827D01*
X205999393Y-80387677D01*
X205999402Y-80387659D01*
X206131850Y-80055239D01*
X206131852Y-80055232D01*
X206227578Y-79710457D01*
X206227584Y-79710431D01*
X206285472Y-79357331D01*
X206285473Y-79357314D01*
X206304847Y-79000002D01*
X206304847Y-78999997D01*
X206285473Y-78642685D01*
X206285472Y-78642668D01*
X206227584Y-78289568D01*
X206227578Y-78289542D01*
X206131852Y-77944767D01*
X206131850Y-77944760D01*
X205999402Y-77612340D01*
X205999393Y-77612322D01*
X205831781Y-77296172D01*
X205630966Y-76999992D01*
X205503557Y-76849995D01*
X205503556Y-76849994D01*
X204294250Y-78059300D01*
X204220412Y-77957670D01*
X204042330Y-77779588D01*
X203940697Y-77705747D01*
X205152743Y-76493703D01*
X205152742Y-76493702D01*
X205139514Y-76481171D01*
X205139513Y-76481170D01*
X204854632Y-76264611D01*
X204854629Y-76264609D01*
X204548009Y-76080123D01*
X204223260Y-75929877D01*
X204223255Y-75929876D01*
X203884144Y-75815616D01*
X203534660Y-75738688D01*
X203178924Y-75700000D01*
X202821075Y-75700000D01*
X202465339Y-75738688D01*
X202115855Y-75815616D01*
X201776744Y-75929876D01*
X201776739Y-75929877D01*
X201451990Y-76080123D01*
X201145370Y-76264609D01*
X201145367Y-76264611D01*
X200860491Y-76481166D01*
X200847256Y-76493703D01*
X200847255Y-76493703D01*
X202059301Y-77705748D01*
X201957670Y-77779588D01*
X201779588Y-77957670D01*
X201705748Y-78059301D01*
X200496442Y-76849994D01*
X200496441Y-76849995D01*
X200369040Y-76999983D01*
X200369033Y-76999993D01*
X200168218Y-77296172D01*
X200000606Y-77612322D01*
X200000597Y-77612340D01*
X199868149Y-77944760D01*
X199868147Y-77944767D01*
X199772421Y-78289542D01*
X199772415Y-78289568D01*
X199714527Y-78642668D01*
X199714526Y-78642685D01*
X199695153Y-78999997D01*
X94304847Y-78999997D01*
X94285473Y-78642685D01*
X94285472Y-78642668D01*
X94227584Y-78289568D01*
X94227578Y-78289542D01*
X94131852Y-77944767D01*
X94131850Y-77944760D01*
X93999402Y-77612340D01*
X93999393Y-77612322D01*
X93831781Y-77296172D01*
X93630966Y-76999992D01*
X93503557Y-76849995D01*
X93503556Y-76849994D01*
X92294250Y-78059300D01*
X92220412Y-77957670D01*
X92042330Y-77779588D01*
X91940697Y-77705747D01*
X93152743Y-76493703D01*
X93152742Y-76493702D01*
X93139514Y-76481171D01*
X93139513Y-76481170D01*
X92854632Y-76264611D01*
X92854629Y-76264609D01*
X92548009Y-76080123D01*
X92223260Y-75929877D01*
X92223255Y-75929876D01*
X91884144Y-75815616D01*
X91534660Y-75738688D01*
X91178924Y-75700000D01*
X90821075Y-75700000D01*
X90465339Y-75738688D01*
X90115855Y-75815616D01*
X89776744Y-75929876D01*
X89776739Y-75929877D01*
X89451990Y-76080123D01*
X89145370Y-76264609D01*
X89145367Y-76264611D01*
X88860491Y-76481166D01*
X88847256Y-76493703D01*
X88847255Y-76493703D01*
X90059301Y-77705748D01*
X89957670Y-77779588D01*
X89779588Y-77957670D01*
X89705748Y-78059301D01*
X88496442Y-76849994D01*
X88496441Y-76849995D01*
X88369040Y-76999983D01*
X88369033Y-76999993D01*
X88168218Y-77296172D01*
X88000606Y-77612322D01*
X88000597Y-77612340D01*
X87868149Y-77944760D01*
X87868147Y-77944767D01*
X87772421Y-78289542D01*
X87772415Y-78289568D01*
X87714527Y-78642668D01*
X87714526Y-78642685D01*
X87695153Y-78999997D01*
X86500559Y-78999997D01*
X86500618Y-78997281D01*
X86505997Y-78874077D01*
X86517386Y-78613227D01*
X86518326Y-78602495D01*
X86568152Y-78224025D01*
X86570025Y-78213405D01*
X86652649Y-77840709D01*
X86655440Y-77830295D01*
X86770230Y-77466227D01*
X86773917Y-77456095D01*
X86920003Y-77103412D01*
X86924561Y-77093638D01*
X87100822Y-76755045D01*
X87106217Y-76745700D01*
X87311325Y-76423744D01*
X87317515Y-76414905D01*
X87549896Y-76112060D01*
X87556834Y-76103791D01*
X87814726Y-75822352D01*
X87822352Y-75814726D01*
X88103791Y-75556834D01*
X88112060Y-75549896D01*
X88414905Y-75317515D01*
X88423744Y-75311325D01*
X88745700Y-75106217D01*
X88755045Y-75100822D01*
X89093638Y-74924561D01*
X89103412Y-74920003D01*
X89456095Y-74773917D01*
X89466227Y-74770230D01*
X89830295Y-74655440D01*
X89840709Y-74652649D01*
X90213405Y-74570025D01*
X90224025Y-74568152D01*
X90602495Y-74518326D01*
X90613227Y-74517386D01*
X90997226Y-74500620D01*
X91002752Y-74500503D01*
X202989841Y-74635942D01*
G37*
%TD.AperFunction*%
%TD*%
M02*
